<?xml version="1.0" encoding="UTF-8"?><svg id="Layer_1" xmlns="http://www.w3.org/2000/svg" viewBox="0 0 147.58 100.07"><defs><style>.cls-1{font-family:AllRoundGothic-Demi, 'All Round Gothic';font-size:16.25px;font-weight:300;}.cls-1,.cls-2{fill:#231f20;}.cls-3{letter-spacing:.05em;}.cls-4{letter-spacing:.05em;}.cls-5{letter-spacing:.05em;}.cls-6{letter-spacing:.04em;}.cls-7{letter-spacing:.05em;}.cls-8{fill:#020202;}.cls-9{fill:#fff;}.cls-10{letter-spacing:.04em;}.cls-11{letter-spacing:.02em;}.cls-12{letter-spacing:0em;}.cls-2{font-family:Tarif-Medium, Tarif;font-size:13px;font-weight:500;}.cls-13{letter-spacing:.03em;}.cls-14{letter-spacing:0em;}.cls-15{letter-spacing:.03em;}.cls-16{letter-spacing:.03em;}.cls-17{letter-spacing:.05em;}.cls-18{letter-spacing:.05em;}.cls-19{fill:#93a5ab;}.cls-19,.cls-20{stroke:#010101;stroke-miterlimit:10;stroke-width:3px;}.cls-20{fill:#50573f;}.cls-21{letter-spacing:.04em;}</style></defs><text class="cls-2" transform="translate(1.12 94.34)"><tspan class="cls-18" x="0" y="0">B</tspan><tspan class="cls-5" x="8.48" y="0">o</tspan><tspan class="cls-11" x="15.33" y="0">o</tspan><tspan class="cls-7" x="21.83" y="0">k</tspan><tspan class="cls-5" x="29.52" y="0">s A</tspan><tspan class="cls-16" x="49.43" y="0">r</tspan><tspan class="cls-21" x="55.52" y="0">o</tspan><tspan class="cls-6" x="62.24" y="0">u</tspan><tspan class="cls-13" x="70.39" y="0">n</tspan><tspan class="cls-3" x="78.73" y="0">d </tspan><tspan class="cls-10" x="91.02" y="0">t</tspan><tspan class="cls-15" x="96.65" y="0">h</tspan><tspan class="cls-4" x="105.01" y="0">e </tspan><tspan class="cls-17" x="115.95" y="0">B</tspan><tspan class="cls-21" x="124.42" y="0">e</tspan><tspan class="cls-13" x="130.53" y="0">n</tspan><tspan class="cls-3" x="138.86" y="0">d</tspan></text><g><text class="cls-1" transform="translate(81.98 77.28)"><tspan class="cls-14" x="0" y="0">L</tspan><tspan class="cls-12" x="9.13" y="0">ocator</tspan></text><text class="cls-1" transform="translate(81.98 44.92)"><tspan x="0" y="0">Little</tspan></text><text class="cls-1" transform="translate(81.98 61.47)"><tspan x="0" y="0">Library</tspan></text><g><rect class="cls-20" x="1.5" y="39.94" width="77.92" height="36.92"/><rect class="cls-19" x="1.53" y="1.5" width="77.91" height="37.93"/><g><rect class="cls-9" x="9.71" y="7.25" width="33.71" height="61.68"/><rect class="cls-9" x="52.03" y="6.34" width="15.71" height="61.56" transform="translate(-7.86 17.78) rotate(-15.86)"/><path d="M44.9,20.13c0,.39,0,.78,0,1.16,0,15.5,0,31,0,46.51,0,.33,.02,.66-.02,.99-.09,.75-.55,1.17-1.31,1.23-.27,.02-.54,.01-.81,.01-14.46,0-18.5,0-32.95,0-.3,0-.6,.01-.9-.02-.75-.07-1.19-.53-1.25-1.29-.02-.24,0-.48,0-.72,0-16.97,0-33.94-.01-50.91,0-3.39,0-6.78,.02-10.16,0-.4,.08-.87,.3-1.18,.2-.27,.63-.41,.98-.53,.24-.08,.53-.02,.8-.02,14.49,0,18.56,0,33.04,0,.12,0,.24,0,.36,0,1.25,.01,1.68,.41,1.75,1.64,0,.15,.02,.29,.03,.52,.26-.04,.49-.06,.7-.12,6.23-1.66,7.55-2.1,13.77-3.77,.2-.05,.4-.11,.61-.15,.84-.15,1.4,.16,1.65,.99,.36,1.21,.67,2.42,1,3.64,4.13,15.39,8.26,30.78,12.39,46.18,.86,3.21,1.71,6.43,2.57,9.64,.07,.26,.15,.52,.17,.79,.05,.71-.36,1.19-1.22,1.43-1.68,.46,1.55-.32-.13,.13-5.33,1.43-10.65,2.85-15.98,4.27-.26,.07-.53,.14-.79,.15-.57,.03-.98-.24-1.22-.75-.11-.24-.16-.51-.23-.77-4.3-16.03-8.61-32.05-12.91-48.08-.08-.28-.16-.56-.24-.84-.05,.01-.1,.03-.15,.04Zm-34.51-1.91V57h13.53V18.22H10.39Zm31.76,38.78V18.29c-1.04-.18-14.75-.15-15.41,.03V57h15.41Zm15.76,.62c6.42-1.72,7.84-2.19,14.23-3.9-3.36-12.54-6.69-24.97-10.05-37.51-6.39,1.71-7.81,2.18-14.23,3.9,3.36,12.55,6.7,25,10.05,37.52Zm-47.56,9.66c1.35,.2,12.97,.14,13.58-.05v-7.41c-1.38-.19-12.95-.12-13.58,.07v7.39Zm16.38-7.52v7.56h15.37c.18-1.04,.14-6.9-.05-7.56h-15.32ZM47.15,17.51c6.44-1.73,7.86-2.19,14.25-3.91-.67-2.5-1.32-4.91-1.98-7.38-6.42,1.72-7.84,2.19-14.24,3.91,.66,2.48,1.3,4.87,1.97,7.38Zm27.68,46.18c-.67-2.49-1.31-4.89-1.95-7.28-1.31,.14-13.69,3.61-14.24,3.96,.64,2.38,1.28,4.77,1.94,7.22,6.42-1.72,7.83-2.19,14.25-3.9ZM23.89,15.46c.19-1.15,.14-6.92-.05-7.53H10.42c-.18,1.19-.13,6.92,.05,7.53h13.42Zm18.28-7.52h-15.43v7.47c1.11,.18,14.74,.13,15.43-.05V7.95Z"/></g></g></g><rect class="cls-8" x=".45" y="80.61" width="146.11" height="2.53"/></svg>