<?xml version="1.0" encoding="UTF-8"?><svg id="Layer_1" xmlns="http://www.w3.org/2000/svg" viewBox="0 0 490.05 182.53"><defs><style>.cls-1{fill:#ffcf01;}.cls-2{fill:#231f20;}.cls-3{stroke:#231f20;stroke-width:4.86px;}.cls-3,.cls-4{fill:none;stroke-miterlimit:10;}.cls-4{stroke:#fff;stroke-width:1.8px;}</style></defs><path class="cls-2" d="m63.08,38.5c-13.69,0-24.84,11.14-24.84,24.84s11.14,24.84,24.84,24.84,24.84-11.14,24.84-24.84-11.14-24.84-24.84-24.84Zm9.78,12.65l2.4,2.4c.82.82.82,2.15,0,2.97l-5.23,5.23-5.37-5.37,5.23-5.23c.4-.4.92-.62,1.49-.62s1.09.22,1.49.61Zm-4.41,12.18l-5.37,5.37-5.37-5.37,5.37-5.37,5.37,5.37Zm-5.37-17.09c2.95,0,5.73.75,8.15,2.07-1.1.04-2.14.48-2.92,1.26l-5.23,5.23-5.23-5.23c-.79-.78-1.82-1.23-2.92-1.26,2.42-1.32,5.2-2.07,8.15-2.07Zm-12.18,7.31l2.4-2.4c.4-.4.92-.62,1.49-.62s1.09.22,1.49.61l5.23,5.23-5.37,5.37-5.23-5.23c-.82-.82-.82-2.15,0-2.97Zm-2.84,17.93c-1.32-2.42-2.07-5.2-2.07-8.15s.75-5.73,2.07-8.16c.03,1.06.45,2.12,1.26,2.93l5.23,5.23-5.23,5.23c-.79.78-1.23,1.82-1.26,2.92Zm5.24,4.03l-2.4-2.4c-.82-.82-.82-2.15,0-2.97l5.23-5.23,5.37,5.37-5.23,5.23c-.4.4-.92.62-1.49.62s-1.09-.22-1.49-.62Zm9.78,4.91c-2.95,0-5.73-.75-8.15-2.07,1.1-.04,2.14-.48,2.92-1.26l5.23-5.23,5.23,5.23c.79.79,1.82,1.23,2.92,1.26-2.42,1.32-5.2,2.07-8.15,2.07Zm12.18-7.31l-2.4,2.4c-.4.4-.92.62-1.49.62s-1.09-.22-1.49-.62l-5.23-5.23,5.37-5.37,5.23,5.23c.82.82.82,2.15,0,2.97Zm2.84-1.62c-.03-1.06-.45-2.12-1.26-2.93l-5.23-5.23,5.23-5.23c.81-.81,1.23-1.86,1.26-2.93,1.32,2.42,2.07,5.2,2.07,8.16s-.75,5.73-2.07,8.16Z"/><path class="cls-3" d="m106.26,100.1c.11-1.31-1.07-2.36-1.07-2.36,0,0-.97-1.03-2.35-1.11-1.38-.07-8.16.37-9,.52s-.39,2.63-1.47,2.46c-.41-.06-.98-.22-1.53-.38v-2.47c1.99-.49,3.11-1.04,3.11-1.62v-7.71c0-.52-.9-1.01-2.52-1.46.26-1.04,1-4.05,1.84-7.93h6.43c1.44,0,2.61-6.59,2.61-14.71s-1.17-14.71-2.61-14.71h-4.18c-3.25-14.23-15.63-24.98-30.64-25.79v-8.31c0-1-.81-1.81-1.81-1.81s-1.81.81-1.81,1.81v8.31c-17.27.98-27.39,11.56-30.64,25.79h-4.47c-1.44,0-2.61,6.59-2.61,14.71s1.17,14.71,2.61,14.71h6.76c.74,2.75,1.57,5.36,2.44,7.76-2.02.49-3.16,1.04-3.16,1.63v7.71c0,.58,1.12,1.13,3.11,1.62v2.47c-.54.16-1.11.31-1.53.38-1.08.17-.62-2.31-1.47-2.46-.84-.15-7.62-.6-9-.52-1.38.07-2.35,1.11-2.35,1.11,0,0-.98,1.06-1.07,2.36-.09,1.31-.02.37.38,2.94s8.17,20.72,10.46,24.57c2.74,4.6,8.69,8.55,18,9.35,6.05.52,9.48.82,11.14.96h6.41c1.66-.14,5.09-.44,11.14-.96,9.31-.8,15.27-4.74,18-9.35,2.29-3.85,10.06-22.08,10.46-24.57s.26-1.46.38-2.94Zm-43.18-13.63c-12.76,0-23.14-10.38-23.14-23.14s10.38-23.14,23.14-23.14,23.14,10.38,23.14,23.14-10.38,23.14-23.14,23.14Z"/><g><path class="cls-2" d="m158.57,126.26c-6.61,0-9.32-1-11.77-3.44-3.71-3.62-5.79-10.77-5.79-28.25s2.08-24.62,5.79-28.25c2.44-2.44,5.16-3.44,11.77-3.44h21.64c6.16,0,9.51.72,11.95,3.17,3.35,3.35,4.44,10.32,4.62,21.91h-18.2c-.27-7.51-.45-9.23-1.09-9.87-.54-.54-1.54-.72-3.89-.72h-7.79c-2.81,0-3.62.18-4.16.72-.63.63-1.09,2.62-1.09,16.48s.45,15.84,1.09,16.48c.54.54,1.36.72,4.16.72h7.79c2.72,0,3.44-.27,3.89-.72.63-.63.81-1.9,1.09-10.14h18.2c-.18,11.77-1.27,18.74-4.62,22.09-2.44,2.44-5.52,3.26-11.95,3.26h-21.64Z"/><path class="cls-2" d="m208.54,123c-3.35-3.44-4.89-8.6-4.89-22.09s1.54-18.65,4.89-22.09c2.26-2.44,4.8-3.26,10.14-3.26h18.47c5.34,0,7.79.82,10.14,3.26,3.35,3.44,4.89,8.6,4.89,22.09s-1.54,18.65-4.89,22.09c-2.35,2.44-4.8,3.26-10.14,3.26h-18.47c-5.34,0-7.79-.81-10.14-3.26Zm13.67-10.77c.54.72,1.27.81,3.17.81h5.07c1.9,0,2.63-.18,3.17-.81.54-.63.91-2.44.91-11.32s-.36-10.68-.91-11.32c-.54-.63-1.27-.81-3.17-.81h-5.07c-1.9,0-2.63.09-3.17.81-.54.63-.91,2.44-.91,11.32s.36,10.68.91,11.32Z"/><path class="cls-2" d="m289.12,119.11c-6.25,6.07-8.51,7.24-12.77,7.24h-2.9c-5.34,0-8.24-.82-10.59-3.17-3.26-3.26-4.35-8.24-4.35-22.27s1.63-18.74,5.07-22.18c2.35-2.35,5.52-3.26,10.23-3.26h3.35c4.25,0,6.88.91,11.95,5.43v-9.51h-5.79v-13.49h23.72v54.86h5.79v13.49h-23.72v-7.15Zm0-7.51v-21.55c-1.99-.72-3.71-1.09-5.34-1.09h-2.08c-2.08,0-3.26.27-4.07,1.09-1.09,1.09-1.45,2.81-1.45,10.86s.36,9.78,1.45,10.86c.81.82,1.99,1.09,4.07,1.09h1.63c1.72,0,3.53-.36,5.79-1.27Z"/><path class="cls-2" d="m317.55,126.26v-13.49h6.07v-23.72h-6.07v-13.49h23.99v37.39h6.07v13.31h-30.06Zm5.16-70.61h18.02v13.76h-18.02v-13.76Z"/><path class="cls-2" d="m375.85,83.08c6.52-6.61,8.6-7.6,13.76-7.6h2.9c4.35,0,7.42.81,9.42,2.81,2.17,2.17,2.9,5.07,2.9,12.86v21.64h5.52v13.49h-26.98v-13.31h3.53v-19.37c0-1.9-.27-2.81-.91-3.44-.63-.63-1.45-.91-3.17-.91h-.45c-1.72,0-3.44.27-6.52,1.27v22.45h3.53v13.31h-27.25v-13.49h5.79v-23.72h-5.79v-13.49h23.72v7.51Z"/><path class="cls-2" d="m419.22,139.11c-1.9-1.9-2.62-4.71-2.62-12.86h15.84c0,1.36.09,2.17.54,2.62.54.54,1.36.63,2.9.63h5.79c1.54,0,2.44-.18,2.99-.72.63-.63.81-1.45.81-5.43v-6.79c-6.25,5.97-8.51,6.52-12.76,6.52h-2.9c-5.34,0-8.24-.81-10.59-3.17-3.26-3.26-4.34-8.51-4.34-20.64s1.63-17.11,5.07-20.55c2.35-2.35,5.52-3.26,10.23-3.26h3.35c4.26,0,6.88.91,11.95,5.43v-5.34h23.72v13.49h-5.79v36.94c0,7.79-.72,10.68-2.9,12.86-1.99,1.99-5.07,2.81-9.42,2.81h-23.9c-4.16,0-6.34-.91-7.97-2.54Zm14.76-29.88c.81.81,1.99,1.09,4.07,1.09h1.63c1.72,0,3.53-.36,5.79-1.27v-19.01c-1.99-.72-3.71-1.09-5.34-1.09h-2.08c-2.08,0-3.26.27-4.07,1.09-1.09,1.09-1.45,2.99-1.45,9.6s.36,8.51,1.45,9.6Z"/></g><g><path class="cls-2" d="m171.83,12.97c2.72,2.72,4.11,7.49,4.11,18.01s-1.39,15.29-4.11,18.01c-2.3,2.3-5.2,3.14-10.57,3.14h-23.45v-7.61h5.08v-27.13h-5.08v-7.55h23.45c5.38,0,8.28.79,10.57,3.14Zm-19.52,31.54h7.67c2.54,0,3.56-.18,4.47-1.03,1.09-1.09,1.45-3.44,1.45-12.51s-.36-11.42-1.45-12.51c-.91-.91-1.93-1.09-4.47-1.09h-7.67v27.13Z"/><path class="cls-2" d="m181.68,17.38v-7.55h35.41v14.08h-8.46v-6.59h-12.45v9.55h10.09v7.13h-10.09v10.57h12.75v-7.37h8.46v14.92h-35.71v-7.61h5.08v-27.13h-5.08Z"/><path class="cls-2" d="m222.53,17.38v-7.55h35.41v14.08h-8.46v-6.59h-12.45v9.55h10.09v7.13h-10.09v10.57h12.75v-7.37h8.46v14.92h-35.71v-7.61h5.08v-27.13h-5.08Z"/><path class="cls-2" d="m296.56,34.3c-1.45,1.51-3.56,1.93-6.83,1.93h-11.84v8.28h5.44v7.61h-19.94v-7.61h5.08v-27.13h-5.08v-7.55h26.35c3.26,0,5.38.42,6.83,1.93,1.81,1.81,2.72,3.93,2.72,11.18s-.91,9.55-2.72,11.36Zm-10.63-5.38c1.75,0,2.36-.18,2.72-.48.54-.6.73-1.45.73-5.32s-.18-4.71-.73-5.32c-.36-.3-.97-.48-2.72-.48h-8.04v11.6h8.04Z"/><path class="cls-2" d="m353.9,12.97c2.72,2.72,4.11,7.49,4.11,18.01s-1.39,15.29-4.11,18.01c-2.3,2.3-5.2,3.14-10.57,3.14h-23.45v-7.61h5.08v-27.13h-5.08v-7.55h23.45c5.38,0,8.28.79,10.57,3.14Zm-19.52,31.54h7.67c2.54,0,3.57-.18,4.47-1.03,1.09-1.09,1.45-3.44,1.45-12.51s-.36-11.42-1.45-12.51c-.91-.91-1.93-1.09-4.47-1.09h-7.67v27.13Z"/><path class="cls-2" d="m383.94,44.51v7.61h-20v-7.61h5.32v-27.13h-5.32v-7.55h20v7.55h-5.26v27.13h5.26Z"/><path class="cls-2" d="m387.39,17.38v-7.55h19.28v7.55h-4.65l6.95,25.56h.79l7.01-25.56h-4.65v-7.55h18.55v7.55h-4.23l-10.09,31.9c-.79,2.3-1.57,3.02-3.93,3.02h-6.77c-2.36,0-3.14-.73-3.93-3.02l-10.09-31.9h-4.23Z"/><path class="cls-2" d="m433.92,17.38v-7.55h35.41v14.08h-8.46v-6.59h-12.45v9.55h10.09v7.13h-10.09v10.57h12.75v-7.37h8.46v14.92h-35.71v-7.61h5.08v-27.13h-5.08Z"/></g><circle class="cls-4" cx="63.08" cy="63.33" r="20.94"/><g><path d="m58.11,122.57l-10.04-4.62v-1.51l10.04-5.23v2.53l-6.78,3.34,6.78,2.96v2.52Z"/><path d="m67.85,109.29l-5.74,15.41h-2.92l5.74-15.41h2.92Z"/><path d="m68.88,120.05l6.78-2.96-6.78-3.34v-2.53l10.04,5.23v1.51l-10.04,4.62v-2.52Z"/></g><path d="m317.89,162.35c-.67.32-2.26.72-4.28.72-5.79,0-8.78-3.63-8.78-8.4,0-5.69,4.08-8.85,9.15-8.85,1.96,0,3.46.4,4.13.72l-.8,3.01c-.74-.32-1.81-.62-3.18-.62-2.98,0-5.32,1.81-5.32,5.54,0,3.33,1.99,5.45,5.34,5.45,1.17,0,2.41-.23,3.18-.55l.55,2.98Z"/><path d="m320.4,162.82v-16.75h4.42l3.48,6.14c.99,1.76,1.96,3.85,2.73,5.74h.05c-.22-2.21-.3-4.48-.3-7.01v-4.87h3.48v16.75h-3.98l-3.58-6.46c-1-1.82-2.11-3.95-2.91-5.92h-.1c.12,2.24.17,4.6.17,7.33v5.04h-3.48Z"/><path d="m351.72,156.41c-.07-2.01-.15-4.42-.15-6.88h-.05c-.55,2.14-1.24,4.52-1.89,6.49l-2.04,6.54h-2.96l-1.79-6.49c-.55-1.96-1.09-4.33-1.51-6.54h-.05c-.07,2.26-.17,4.85-.27,6.93l-.33,6.36h-3.5l1.07-16.75h5.05l1.64,5.59c.55,1.94,1.04,4.02,1.42,5.99h.1c.45-1.94,1.02-4.15,1.59-6.02l1.77-5.57h4.97l.9,16.75h-3.68l-.27-6.41Z"/><rect x="363.63" y="146.07" width="3.78" height="16.75"/><path d="m370.56,154.55c0-1.52-.05-2.78-.1-3.88h3.28l.17,1.69h.08c.5-.79,1.71-1.96,3.75-1.96,2.49,0,4.35,1.66,4.35,5.24v7.18h-3.78v-6.73c0-1.57-.55-2.64-1.91-2.64-1.04,0-1.66.72-1.94,1.42-.1.25-.13.6-.13.95v7.01h-3.77v-8.28Z"/><path d="m402.58,157.95c.12,1.56,1.66,2.31,3.43,2.31,1.29,0,2.34-.17,3.35-.52l.5,2.56c-1.24.52-2.76.77-4.4.77-4.13,0-6.49-2.39-6.49-6.19,0-3.08,1.94-6.49,6.14-6.49,3.93,0,5.42,3.06,5.42,6.06,0,.64-.08,1.22-.12,1.49h-7.83Zm4.45-2.58c0-.92-.4-2.46-2.11-2.46-1.62,0-2.26,1.47-2.36,2.46h4.47Z"/><path d="m412.79,154.55c0-1.52-.05-2.78-.1-3.88h3.28l.17,1.69h.07c.5-.79,1.72-1.96,3.76-1.96,2.49,0,4.35,1.66,4.35,5.24v7.18h-3.78v-6.73c0-1.57-.55-2.64-1.91-2.64-1.04,0-1.67.72-1.94,1.42-.1.25-.12.6-.12.95v7.01h-3.78v-8.28Z"/><path d="m438.82,158.92c0,1.59.05,2.89.1,3.91h-3.28l-.17-1.72h-.08c-.47.75-1.62,1.99-3.8,1.99-2.49,0-4.28-1.54-4.28-5.3v-7.14h3.78v6.54c0,1.77.57,2.84,1.91,2.84,1.04,0,1.67-.72,1.89-1.32.1-.23.15-.5.15-.82v-7.23h3.78v8.25Z"/><path d="m443.72,149.18c-1.19,0-1.97-.84-1.97-1.89s.8-1.89,2.01-1.89,1.96.82,1.99,1.89c0,1.05-.77,1.89-2.02,1.89h-.02Zm-1.87,1.49h3.78v12.15h-3.78v-12.15Z"/><path d="m452.88,147.37v3.3h2.71v2.79h-2.71v4.4c0,1.47.38,2.14,1.49,2.14.52,0,.77-.02,1.12-.1l.02,2.86c-.47.17-1.39.32-2.44.32-1.22,0-2.24-.43-2.86-1.04-.7-.72-1.04-1.89-1.04-3.6v-4.97h-1.62v-2.79h1.62v-2.28l3.7-1.02Z"/><path d="m460.74,150.67l1.82,5.99c.2.7.44,1.62.59,2.26h.08c.17-.67.37-1.56.55-2.28l1.49-5.97h4.05l-2.83,8c-1.74,4.85-2.91,6.76-4.28,7.98-1.29,1.14-2.68,1.57-3.66,1.67l-.79-3.18c.47-.1,1.07-.32,1.64-.65.57-.3,1.22-.92,1.57-1.52.12-.2.2-.4.2-.55s-.02-.32-.15-.62l-4.47-11.14h4.2Z"/><path d="m393.89,170.44c0,.33-.38.6-.85.6h-4.9c-.47,0-.85-.27-.85-.6s.38-.59.85-.59h4.9c.47,0,.85.27.85.59"/><path d="m393.89,172.68c0,.33-.38.59-.85.59h-4.9c-.47,0-.85-.27-.85-.59s.38-.59.85-.59h4.9c.47,0,.85.27.85.59"/><path d="m392.62,174.82c0,.33-.23.6-.5.6h-2.88c-.28,0-.5-.27-.5-.6s.23-.59.5-.59h2.88c.28,0,.5.27.5.59"/><path class="cls-1" d="m394,167.81c-.04-3.68,1.62-6.62,2.21-10.16.49-2.96-.45-5.37-3.26-6.65-2.36-1.07-5.76-.21-7.06,2.14-1.57,2.84-.43,6,1.26,8.55.87,1.31,2.99.09,2.12-1.23-1.2-1.8-2.61-4.41-.98-6.41,1.04-1.28,2.8-1.22,4.18-.59,1.83.83,1.49,2.92,1.24,4.46-.33,2.03-1.42,3.8-1.83,5.81-.27,1.33-.33,2.74-.32,4.09.02,1.58,2.47,1.58,2.45,0"/><path d="m189.41,156c0-1.33-.04-2.47-.08-3.4h2.74l.14,1.41h.04c.75-1.08,1.91-1.64,3.38-1.64,2.22,0,4.21,1.93,4.21,5.17,0,3.7-2.35,5.44-4.61,5.44-1.22,0-2.18-.5-2.63-1.16h-.04v5.04h-3.16v-10.86Zm3.16,2.39c0,.25.02.48.06.67.21.85.94,1.49,1.85,1.49,1.37,0,2.18-1.14,2.18-2.86,0-1.62-.73-2.85-2.14-2.85-.89,0-1.68.66-1.89,1.6-.04.17-.06.38-.06.56v1.39Z"/><path d="m211.92,157.56c0,3.71-2.64,5.42-5.35,5.42-2.97,0-5.25-1.95-5.25-5.23s2.16-5.37,5.42-5.37,5.19,2.14,5.19,5.19m-7.35.1c0,1.75.73,3.05,2.08,3.05,1.22,0,2.01-1.22,2.01-3.05,0-1.51-.58-3.05-2.01-3.05-1.52,0-2.08,1.56-2.08,3.05"/><path d="m215.87,152.6l.81,4.15c.21,1.06.41,2.18.58,3.34h.04c.21-1.16.5-2.32.75-3.32l1.08-4.17h2.49l1.02,4.05c.27,1.14.54,2.28.75,3.45h.04c.15-1.16.35-2.3.58-3.47l.87-4.03h3.09l-3.11,10.15h-2.97l-.95-3.57c-.25-1-.43-1.91-.64-3.16h-.04c-.19,1.27-.39,2.2-.66,3.16l-1.02,3.57h-2.97l-2.95-10.15h3.22Z"/><path d="m231.56,158.68c.1,1.31,1.39,1.93,2.86,1.93,1.08,0,1.95-.15,2.8-.42l.42,2.14c-1.04.41-2.31.62-3.67.62-3.45,0-5.42-1.99-5.42-5.17,0-2.57,1.6-5.42,5.13-5.42,3.28,0,4.53,2.55,4.53,5.07,0,.54-.06,1.02-.1,1.24h-6.54Zm3.72-2.16c0-.77-.33-2.05-1.78-2.05-1.33,0-1.87,1.2-1.95,2.05h3.74Z"/><path d="m240.1,155.94c0-1.5-.04-2.47-.08-3.34h2.72l.1,1.87h.08c.52-1.47,1.76-2.1,2.74-2.1.29,0,.44,0,.66.04v2.97c-.23-.04-.5-.08-.85-.08-1.16,0-1.95.62-2.16,1.6-.04.21-.06.46-.06.71v5.15h-3.15v-6.81Z"/><path d="m250.25,158.68c.11,1.31,1.39,1.93,2.86,1.93,1.08,0,1.95-.15,2.8-.42l.42,2.14c-1.04.41-2.3.62-3.67.62-3.44,0-5.42-1.99-5.42-5.17,0-2.57,1.6-5.42,5.13-5.42,3.28,0,4.53,2.55,4.53,5.07,0,.54-.06,1.02-.1,1.24h-6.54Zm3.72-2.16c0-.77-.33-2.05-1.79-2.05-1.33,0-1.87,1.2-1.95,2.05h3.74Z"/><path d="m268.63,148.01v11.71c0,1.14.04,2.35.08,3.03h-2.8l-.15-1.49h-.04c-.64,1.14-1.87,1.72-3.18,1.72-2.41,0-4.34-2.05-4.34-5.21-.02-3.43,2.12-5.4,4.54-5.4,1.25,0,2.22.44,2.68,1.14h.04v-5.5h3.15Zm-3.15,8.88c0-.17-.02-.39-.04-.56-.18-.85-.87-1.56-1.85-1.56-1.43,0-2.18,1.29-2.18,2.89,0,1.72.85,2.8,2.16,2.8.91,0,1.64-.62,1.83-1.52.06-.23.08-.46.08-.73v-1.33Z"/><path d="m275.28,162.75c.04-.66.08-1.89.08-3.03v-11.71h3.15v5.79h.04c.6-.87,1.66-1.43,3.07-1.43,2.43,0,4.22,2.01,4.19,5.13,0,3.65-2.33,5.48-4.65,5.48-1.18,0-2.33-.43-3.05-1.64h-.04l-.12,1.41h-2.68Zm3.24-4.32c0,.21.02.4.06.56.21.85.93,1.49,1.85,1.49,1.35,0,2.18-1.03,2.18-2.86,0-1.58-.71-2.82-2.18-2.82-.85,0-1.64.64-1.85,1.56-.04.19-.06.37-.06.58v1.49Z"/><path d="m289.96,152.6l1.52,4.98c.17.6.37,1.35.5,1.89h.06c.14-.54.31-1.31.46-1.89l1.24-4.98h3.38l-2.37,6.68c-1.45,4.03-2.43,5.65-3.57,6.66-1.1.95-2.26,1.29-3.05,1.39l-.66-2.68c.39-.06.89-.25,1.37-.54.48-.25,1-.75,1.31-1.27.1-.15.17-.31.17-.46,0-.1-.02-.27-.15-.52l-3.72-9.28h3.51Z"/></svg>