<?xml version="1.0" encoding="UTF-8"?><svg id="Layer_36" xmlns="http://www.w3.org/2000/svg" viewBox="0 0 75 75"><defs><style>.cls-1{fill:#231f20;}</style></defs><g id="S4nv3I"><path class="cls-1" d="M44.11,54.17c2.63-.37,5.09-.77,7.42-1.81,3.72-1.65,6.45-4.19,7.78-8.13,1.23-3.67,1.57-7.4,.9-11.21-.39-2.22-1.61-4.49-3.36-6.43,1.17-2.89,.89-5.81-.04-8.73-.26-.81-.72-1.21-1.51-1.01-1.36,.35-2.75,.68-4.04,1.24-1.46,.63-2.8,1.53-4.22,2.26-.31,.16-.76,.25-1.1,.16-3.74-.95-7.53-1.27-11.35-.92-1.88,.17-3.73,.63-5.6,.92-.32,.05-.74,.01-1-.16-2.02-1.35-4.2-2.34-6.48-3.11-2.66-.9-3.14-.62-3.77,2.1-.53,2.29-.52,4.55,.21,6.81,.07,.23,.03,.61-.12,.78-2.81,3.23-3.64,7.02-3.35,11.19,.23,3.22,.91,6.29,2.6,9.06,1.96,3.21,5.04,4.93,8.52,5.97,1.65,.5,3.38,.74,5.14,1.11-.96,1.01-1.73,2.21-1.92,3.62-.14,1.06-.75,1.43-1.62,1.62-2.08,.47-4.16,.8-6.15-.39-1.2-.72-2.12-1.7-2.8-2.92-.83-1.5-2.06-2.58-3.56-3.36-.99-.51-2.05-.79-3.17-.47-.68,.19-.78,.47-.36,1.02,.29,.38,.62,.77,1.02,1,1.97,1.13,3.15,2.92,3.9,4.94,1.16,3.16,3.46,4.65,6.64,4.91,1.87,.15,3.77,.03,5.78,.03,0,.6,0,1.34,0,2.08,0,1.42,.03,2.84,.02,4.26-.01,1.55-1.12,2.36-2.59,1.85-3.61-1.24-7-2.91-10.05-5.24-6.14-4.69-10.49-10.69-12.86-18.05-1.63-5.05-2.03-10.25-1.37-15.53,1.07-8.62,4.86-15.86,11.11-21.83,3.7-3.53,8.01-6.13,12.84-7.81,4.88-1.7,9.92-2.24,15.07-1.82,4.78,.4,9.28,1.69,13.51,3.91,6.62,3.48,11.68,8.54,15.22,15.13,2.81,5.24,4.14,10.84,4.18,16.76,.06,9.42-3.17,17.61-9.43,24.59-4.11,4.59-9.12,7.87-14.99,9.81-1.65,.55-2.66-.19-2.67-1.94,0-3.19,.02-6.38,0-9.56-.03-2.45-.43-4.8-2.39-6.71Z"/></g></svg>