<?xml version="1.0" encoding="UTF-8"?><svg id="Layer_36" xmlns="http://www.w3.org/2000/svg" viewBox="0 0 75 75"><path d="M37.51,1.58c19.75-.05,36.1,16.05,35.92,36.25-.17,19.7-16.24,35.77-36.29,35.59C17.41,73.24,1.37,57.12,1.56,37.13,1.75,17.41,17.83,1.52,37.51,1.58Zm2.93,32.02c0-.13-.02-.25-.02-.37,0-.83-.01-1.66,0-2.48,0-.32-.09-.43-.42-.43-2.18,.01-4.35,.01-6.53,0-.33,0-.41,.11-.41,.43,0,7.92,0,15.85,0,23.77,0,.36,.12,.43,.45,.43,2.24-.01,4.48,0,6.71,0q.5,0,.5-.52c0-3.99-.01-7.99,.02-11.98,0-.88,.11-1.78,.28-2.65,.42-2.07,1.7-3.15,3.8-3.32,2.34-.19,3.81,.92,4.19,3.23,.15,.95,.21,1.92,.21,2.88,.02,3.96,.01,7.91,0,11.87,0,.36,.07,.5,.47,.49,2.25-.02,4.5-.02,6.75,0,.35,0,.46-.1,.46-.46-.01-4.51,0-9.02-.02-13.54,0-1.96-.15-3.9-.74-5.79-.73-2.35-2.15-4.07-4.53-4.88-1.65-.56-3.36-.7-5.09-.5-1.79,.21-3.39,.9-4.69,2.17-.5,.49-.91,1.06-1.4,1.64Zm-12.12,9.05c0-3.95,0-7.91,0-11.86,0-.35-.09-.47-.45-.47-2.25,.02-4.5,.02-6.75,0-.37,0-.49,.09-.48,.47,.01,7.9,.01,15.79,0,23.69,0,.35,.09,.47,.45,.47,2.24-.02,4.47,0,6.71,0q.51,0,.51-.5c0-3.93,0-7.86,0-11.79Zm-3.83-15.65c2.45,0,4.45-2.03,4.43-4.48-.01-2.44-2.01-4.43-4.45-4.42-2.46,.01-4.43,1.99-4.43,4.44,0,2.47,2,4.47,4.45,4.46Z"/></svg>