<?xml version="1.0" encoding="UTF-8"?><svg xmlns="http://www.w3.org/2000/svg" viewBox="0 0 1000 1000"><defs><style>.cls-1{fill:#f3ead2;}.cls-2{fill:#fff;}.cls-3{fill:#cab898;}.cls-4{fill:#2d3024;}.cls-5{fill:#93a5ab;}.cls-5,.cls-6{stroke:#010101;stroke-miterlimit:10;stroke-width:3px;}.cls-6{fill:#50573f;}</style></defs><g id="Layer_3"><rect class="cls-4" width="1000" height="1000"/></g><g id="Layer_4"><g><g><path class="cls-4" d="M678.92,356.88v347.85H330.53c-.02-.54-.04-1.08-.04-1.62,0-114.71,0-229.41,0-344.12,0-.45,0-.9,0-1.35,0-.23,.04-.46,.08-.81h1.36c115.28,0,230.55,0,345.83,0,.39,0,.78,.03,1.17,.05Zm-136.02,238.28c.19-.26,.41-.5,.58-.77,5.9-9.5,11.8-19,17.69-28.5,.19-.3,.38-.59,.6-.95,.68,.4,1.29,.76,1.95,1.15-4.63,7.75-9.21,15.42-13.78,23.09-4.57,7.68-9.17,15.34-13.59,23.11,.35-.4,.71-.8,1.08-1.24,.77,.19,1.53,.36,2.28,.55,2.67,.67,5.33,1.39,8.02,1.99,1.57,.35,3.06,.81,4.42,1.69,1.56,1,2.86,2.28,3.97,3.75,1.89,2.5,3.12,5.31,4.03,8.28,.15,.48,.3,.96,.46,1.48,14.37,1.23,28.65,2.91,42.88,4.97-6.36-1.73-12.78-3.15-19.27-4.26-6.47-1.11-12.96-2.12-19.56-3.2,12.95-9.09,23.62-20.24,31.99-33.56,8.38-13.34,13.82-27.8,16.27-43.38,2.44-15.53,1.77-30.92-1.99-46.26h-74.48c.04-1.66,1.6-2.89,5.22-4.18-.57-2.68-.2-5.23,1.39-7.53,1.59-2.29,3.8-3.59,6.56-3.98,3.75-.53,8.46,2.03,9.26,5.08-1.55-.32-2.93-.04-4.09,1.08,1.43-.56,2.85-.67,4.29-.1,1.48,.58,2.44,1.69,3.09,3.12,0-.75-.17-1.45-.6-2.04-.43-.58-.95-1.1-1.47-1.7,2.13-.81,4.19-.59,6.25,.34,.47-2.95,1.8-5.29,4.14-7.01,2.33-1.7,6.14-2.48,7.73-1.6-1.96,2.07-2.85,4.03-2.34,5.22,.69-2.22,2.02-3.87,4.16-4.82,2.15-.96,4.3-.81,6.44,.11-1.75-1.69-3.84-2.02-6.27-1.52,.63-2.7,1.91-4.88,3.86-6.65,3.42-3.11,7.46-4.03,11.92-3.18,4.03-6.62,9.85-9.21,17.43-7.95-6.38-2.32-11.96-1.02-16.78,3.72-13.25-20.57-30.93-35.82-53.46-45.24-22.48-9.4-45.74-11.42-69.53-6.26-23.86,5.18-43.95,17.05-60.62,34.86-2.07-1.84-4.4-3-7.06-3.51-2.7-.52-6.62,0-7.59,.88,7.09-1.15,12.49,1.35,16.22,7.51,3.32-.69,6.47-.26,9.35,1.54,2.87,1.78,4.7,4.34,5.55,7.57-1.13,.04-2.17,0-3.19,.15-1.04,.14-1.95,.66-2.86,1.53,4.55-1.93,8.81,.08,10.33,4.45-.04-.58-.09-1.16-.24-1.72-.36-1.34-1.16-2.41-2.37-3.37,2.06-.39,3.88-.21,5.63,.54,3.37,1.46,5.23,4.13,5.86,7.69,2.61-.98,4.61-1.02,5.83-.17-1.49,1.43-1.91,2.17-1.82,3.27,1.49-2.92,3.82-3.74,6.99-2.68-1-.92-1.05-.93-3.94-1.18,.95-2.56,4.84-5.44,9.26-4.6,2.02,.38,3.72,1.32,5.07,2.86,2.01,2.31,2.53,5.02,1.95,8,.28,.07,.48,.11,.68,.16,1.42,.39,2.66,1.08,3.64,2.2,.37,.42,.71,.86,.66,1.56h-79c-.18,.4-.32,.73-.46,1.06-5.04,12.15-7.95,24.79-8.67,37.93-.31,5.67-.25,11.33,.26,16.98,.54,6.01,1.52,11.95,3,17.8,5.11,20.19,14.96,37.73,29.43,52.68,4.93,5.1,10.33,9.67,16.12,13.77,.22,.16,.43,.34,.77,.61-13.24,1.76-26.17,3.98-38.89,7.33,.25,.05,.48,.04,.72,0,1.04-.15,2.08-.31,3.11-.44,3.89-.51,7.78-1.03,11.68-1.51,3.87-.48,7.74-.94,11.61-1.35,4.59-.48,9.19-.9,13.78-1.33,.65-.06,1.26-.13,1.56-.81,.27,0,.51-.02,.75,0,3.87,.33,7.73-.03,11.59-.29,3.5-.24,7-.47,10.5-.66,2.9-.16,5.81-.24,8.72-.37,.17,0,.48-.03,.5-.09,.16-.66,.75-.5,1.16-.62,4.86-1.37,8.86-4.02,11.96-8.02,.3-.39,.54-.82,.81-1.24-.04-.04-.09-.08-.13-.12-2.47,2.12-5.18,3.85-8.2,5.07-3.02,1.22-6.14,1.97-9.36,2.15-.86-1.26-.69-2.6-.64-3.92-.27-.11-.53-.21-.77-.31-2.32-.97-3.38-2.86-2.91-5.34,.23-1.22,.1-2.38-.35-3.52-.09-.23-.16-.47-.27-.82,7.17,1.33,13.99,.36,20.68-1.96-.06-.07-.12-.1-.17-.09-3.6,.48-7.22,.7-10.85,.46-2.95-.2-5.83-.71-8.59-1.79-1.8-.71-3.48-1.62-4.9-2.95-.26-.25-.49-.53-.74-.8,.91,.11,1.71,.34,2.52,.53,4.58,1.03,9.17,.84,13.77,.11,4.81-.77,9.46-2.15,14.01-3.88,.2-.08,.38-.18,.57-.28-.19-.09-.33-.07-.47-.04-2.19,.49-4.37,1.04-6.58,1.47-4.81,.92-9.67,1.44-14.58,1.16-2.25-.13-4.47-.49-6.6-1.25-2.04-.73-3.9-1.76-5.23-3.51-1.2-1.58-2.17-3.3-2.88-5.17-.98-2.58-1.21-5.24-.81-7.96,.28-1.91,.88-3.71,1.68-5.47,2.09-4.62,3.76-9.4,5.45-14.17,.05-.16,.07-.32,.11-.49-.5,.76-.88,1.57-1.27,2.38-.39,.81-.79,1.62-1.19,2.42-.39,.78-.78,1.55-1.19,2.32-.42,.79-.85,1.58-1.31,2.36-.44,.76-.83,1.55-1.45,2.31-.05-.23-.09-.31-.09-.4-.27-5.11-.07-10.19,1.01-15.21,.54-2.53,1.38-4.97,2.98-7.07,.18-.23,.27-.53,.37-.81,.91-2.38,2.03-4.67,3.32-6.87,1.02-1.74,2.45-2.98,4.12-4.05,1.36-.87,2.78-1.13,4.29-.72,1.7,.46,3.38,1.02,5.06,1.54,.3,.09,.6,.22,.89,.33,.02-.06,.04-.11,.06-.17-2.58-1.47-5.3-2.62-8.28-3.32,.87-1.38,1.41-2.77,1.74-4.24,.49-2.18,.58-4.39,.59-6.61,0-1.88-.35-3.69-.84-5.49-.83-3.04-1.46-6.12-1.69-9.27-.22-2.91-.2-5.83,.63-8.65,.88-2.99,2-5.91,3.64-8.57,.72-1.17,1.57-2.28,2.5-3.28,4.01-4.31,9.12-6.38,14.85-7.08,1.45-.18,2.93-.2,4.33-.28,.37-.32,.68-.72,1.08-.91,1.09-.49,2.73,.05,3.32,1.09,.24,.42,.54,.58,.94,.74,1.49,.62,3.02,1.18,4.46,1.91,4.75,2.41,8.57,5.81,11.02,10.61,2.2,4.3,2.92,8.91,2.67,13.69-.03,.57,.08,.97,.52,1.33,.39,.32,.75,.69,1.11,1.05,2.68,2.66,5.36,5.32,8.03,8,.35,.35,.65,.76,.99,1.17-.17,.2-.27,.36-.4,.45-1.08,.77-2.2,1.46-3.51,1.77-2.14,.5-4.23,.22-6.28-.46-3.56-1.18-6.64-3.19-9.41-5.67-1.34-1.19-2.55-2.52-3.93-3.91,.89,2.09,2.23,3.67,3.83,5.03,1.59,1.34,3.29,2.56,4.95,3.83-.03,.04-.07,.12-.14,.17-.35,.28-.71,.56-1.05,.84-2.34,1.95-3.66,4.32-3.1,7.49,.15,.85,.2,1.73,.22,2.59,.02,.9-.41,1.39-1.29,1.58-.47,.1-.95,.13-1.43,.17-.8,.06-1.12,.31-1.29,1.1-.07,.32-.06,.65-.1,.98-.13,1.29-.72,1.92-2,2.13-.11,.02-.21,.09-.35,.15-.05,.48-.06,1.03-.63,1.18-1.07,.29-1.65,1.12-2.32,1.9-.72,.84-1.42,1.73-2.29,2.39-2.26,1.72-4.76,2.02-7.37,.85-1.75-.78-3.03-2.12-4.11-3.67-.09-.12-.15-.26-.24-.38-.07-.1-.15-.18-.22-.27,.66,2.17,1.86,3.89,3.81,5.06,.37,.22,.71,.55,.98,.89,2.92,3.63,5.48,7.5,7.6,11.65,1.82,3.56,3.29,7.26,3.95,11.23,.14,.85,.24,1.71,.35,2.54,1.8,.6,3.59,.85,5.54,.78-.82,1.14-1.83,1.8-3.02,2.17-.86,.27-1.73,.48-2.6,.71-1.84,.49-3.2,1.57-4.16,3.2-.29,.48-.45,.96-.38,1.53,.1,.8,.13,1.62,.25,2.41,.22,1.39,.59,2.75,1.23,4.02,.44,.87,1,1.64,1.77,2.24,1.33,1.03,4.16,1.53,5.51-.13,.58-.71,1.2-1.35,2.11-1.65-.89,.05-1.27,.25-1.82,.83-.37,.39-.74,.8-1.18,1.1-1.06,.74-2.28,.39-2.83-.78-.29-.61-.27-1.24,.04-1.82,.27-.5,.59-.98,.97-1.39,1-1.1,1.39-2.35,1.12-3.81-.05-.27-.04-.56-.07-.9,.41,.04,.7,.06,1.15,.1-.14-.39-.23-.69-.35-.97-.16-.39-.37-.76-.48-1.16-.31-1.13,.28-2.15,1.42-2.39,1.59-.33,3.21-.46,4.83-.18,1.53,.27,2.75,.96,3.36,2.51,.21,.51,.59,.97,.96,1.4,.15,.17,.54,.32,.7,.24,.22-.11,.41-.43,.45-.69,.22-1.35-.64-2.91-1.92-3.44-.54-.23-1.15-.37-1.74-.42-1.19-.09-2.4-.1-3.59-.14-.33-.01-.67,0-.98-.07-.53-.11-.76-.47-.63-1,.08-.31,.23-.62,.42-.88,.56-.8,1.32-1.39,2.19-1.82,1.75-.85,2.76-.41,3.35,1.42,.38,1.17,1.19,2,2.23,2.61,.27,.16,.6,.36,.92,.11,.34-.26,.32-.65,.18-.99-.28-.69-.61-1.36-.94-2.02-.13-.26-.35-.48-.53-.74,4.57-7.72,9.13-15.43,13.7-23.15,8.99,3.04,17.88,6.05,26.77,9.06l.07-.19c-7.26-2.84-14.52-5.68-21.87-8.56,1.35-1.65,2.61-3.19,3.9-4.76,9.31,5.41,18.52,10.76,27.77,16.14-.2,.35-.34,.61-.49,.86-5.72,9.57-11.45,19.14-17.16,28.71-.2,.33-.34,.69-.51,1.03-.29,.22-.47,.48-.37,.9,.14-.29,.28-.57,.41-.86Zm-140.64-173.37s-.09,0-.14,0c-.02,.19-.06,.38-.07,.57-.03,.57-.02,1.14-.08,1.71-.34,3.46-2.06,5.93-5.28,7.32-1.45,.62-2.97,.92-4.52,1.08-.2,.02-.39,.1-.59,.15,.48,.18,.93,.19,1.38,.23,3.27,.27,5.82,1.72,7.46,4.62,.82,1.45,1.27,3.03,1.56,4.66,.07,.42,.15,.83,.23,1.25,.19-1.07,.19-2.12,.32-3.15,.45-3.43,2.26-5.79,5.6-6.9,1.23-.41,2.5-.6,3.79-.67,.29-.01,.58-.04,.88-.06,0-.06-.01-.13-.02-.19-.53-.04-1.06-.06-1.59-.12-3.21-.34-5.64-1.86-7.2-4.71-.61-1.11-1.02-2.3-1.28-3.53-.16-.75-.3-1.5-.44-2.25Zm158.01-12.92c.06,0,.12,0,.19-.01,.02-.21,.04-.41,.06-.62,.22-2.48,1.38-4.39,3.57-5.57,.94-.5,2-.78,3-1.15,.28-.1,.57-.15,.96-.25-.16-.1-.19-.13-.21-.13-.27-.04-.53-.08-.8-.12-2.59-.31-4.45-1.68-5.56-4.01-.41-.86-.63-1.8-.94-2.7-.08-.24-.15-.48-.26-.82-.08,.15-.1,.18-.1,.2-.02,.15-.03,.3-.04,.44-.24,2.69-1.52,4.7-3.95,5.89-.82,.41-1.73,.64-2.61,.94-.28,.1-.58,.15-.96,.25,.18,.1,.23,.15,.28,.16,.3,.05,.59,.08,.89,.12,2.04,.29,3.65,1.27,4.8,2.98,.66,.98,1.08,2.06,1.38,3.2,.1,.39,.21,.79,.31,1.18Zm-72.15,174.39s0-.07,0-.1c-.05-.03-.1-.07-.15-.08-2.3-.68-4.64-1.19-7.03-1.42-2.51-.25-4.97-.11-7.28,1.05-.04,.02-.11-.01-.25-.03,.98-2.76,.92-5.57,.45-8.4-.19,1.94-.45,3.85-1.28,5.66-1.78-.25-3.46-.19-5.1,.46-1.64,.65-3.48,1.97-4.01,2.93,.32-.19,.63-.39,.94-.56,1.58-.84,3.24-1.41,5.07-1.3,1.82,.11,2.77,1.25,2.57,3.05-.16,1.4-.71,2.65-1.44,3.84-1.13,1.83-2.58,3.38-4.15,4.83-.2,.19-.39,.39-.65,.64,.17,0,.23,.02,.28,0,.19-.1,.37-.19,.55-.31,1.63-1.08,3.09-2.37,4.33-3.89,.59-.72,1.16-1.45,1.79-2.14,1.9-2.09,4.17-3.59,6.97-4.19,1.92-.41,3.86-.46,5.81-.29,.86,.07,1.72,.18,2.58,.26Zm115.71-146.47c-.25-.06-.5-.13-.75-.17-1.66-.26-2.88-1.14-3.66-2.61-.32-.6-.51-1.27-.75-1.92-.09-.23-.16-.48-.26-.79-.07,.13-.09,.16-.09,.19-.02,.12-.02,.24-.04,.36-.22,1.91-1.2,3.3-2.92,4.13-.54,.26-1.12,.42-1.68,.62-.24,.08-.47,.16-.71,.24,3.33,.3,4.76,2.45,5.47,5.42,.35-3.31,2.46-4.75,5.39-5.46Zm-111.41,169.75c6.41,1.27,12.65,2.51,18.89,3.75,.01-.06,.03-.12,.04-.19-2.8-.74-5.61-1.46-8.41-2.23-2.78-.76-5.59-1.42-8.42-2.28,1.8-3.61,3.55-7.11,5.29-10.61-.05-.03-.1-.05-.15-.08-2.39,3.83-4.77,7.66-7.25,11.63Zm11.11-23.76c.04,.51,.32,.84,.72,1.06,.34,.19,.68,.37,1.05,.51,1.34,.5,2.37,1.38,3.12,2.59,.29,.46,.57,.92,.88,1.36,.14,.2,.35,.34,.54,.52,.86-1.21,.61-3.16-.8-3.93-.72-.4-1.53-.69-2.33-.87-1.13-.25-2.21-.54-3.17-1.24Zm5.64,7.25c-.87-1.44-2.4-2.1-3.48-1.53,.52,.55,1.06,1.1,1.57,1.68,.72,.82,1.23,.79,1.91-.14Z"/><path class="cls-1" d="M542.85,595.12c.17-.34,.32-.7,.51-1.03,5.72-9.57,11.44-19.14,17.16-28.71,.15-.25,.29-.51,.49-.86-9.25-5.37-18.46-10.73-27.77-16.14-1.28,1.57-2.54,3.11-3.9,4.76,7.35,2.88,14.61,5.72,21.87,8.56l-.07,.19c-8.89-3.01-17.78-6.02-26.77-9.06-4.57,7.72-9.13,15.42-13.7,23.15,.19,.25,.4,.47,.53,.74,.34,.66,.66,1.33,.94,2.02,.14,.34,.16,.73-.18,.99-.32,.25-.65,.05-.92-.11-1.04-.61-1.84-1.43-2.23-2.61-.59-1.83-1.61-2.27-3.35-1.42-.88,.43-1.63,1.02-2.19,1.82-.19,.26-.34,.57-.42,.88-.13,.52,.1,.88,.63,1,.32,.07,.66,.06,.98,.07,1.2,.04,2.4,.04,3.59,.14,.59,.05,1.19,.19,1.74,.42,1.28,.53,2.15,2.1,1.92,3.44-.04,.26-.24,.58-.45,.69-.16,.08-.55-.07-.7-.24-.37-.43-.75-.88-.96-1.4-.62-1.55-1.84-2.24-3.36-2.51-1.62-.28-3.23-.15-4.83,.18-1.14,.24-1.73,1.26-1.42,2.39,.11,.4,.33,.77,.48,1.16,.11,.29,.21,.58,.35,.97-.45-.04-.73-.06-1.15-.1,.02,.34,.02,.63,.07,.9,.27,1.46-.12,2.71-1.12,3.81-.38,.42-.7,.9-.97,1.39-.31,.58-.32,1.22-.04,1.82,.55,1.17,1.76,1.52,2.83,.78,.44-.3,.81-.71,1.18-1.1,.55-.58,.93-.77,1.82-.83-.91,.3-1.53,.93-2.11,1.65-1.34,1.65-4.17,1.16-5.51,.13-.78-.6-1.33-1.37-1.77-2.24-.64-1.27-1.01-2.63-1.23-4.02-.13-.8-.16-1.61-.25-2.41-.07-.57,.1-1.05,.38-1.53,.96-1.63,2.32-2.72,4.16-3.2,.87-.23,1.74-.44,2.6-.71,1.19-.38,2.2-1.03,3.02-2.17-1.94,.06-3.73-.18-5.54-.78-.11-.84-.21-1.69-.35-2.54-.66-3.97-2.12-7.67-3.95-11.23-2.12-4.15-4.68-8.02-7.6-11.65-.28-.34-.61-.67-.98-.89-1.95-1.16-3.15-2.89-3.81-5.06,.08,.09,.16,.17,.22,.27,.09,.12,.15,.26,.24,.38,1.08,1.55,2.36,2.89,4.11,3.67,2.61,1.17,5.11,.87,7.37-.85,.87-.66,1.57-1.55,2.29-2.39,.66-.78,1.25-1.61,2.32-1.9,.57-.15,.58-.7,.63-1.18,.13-.06,.23-.13,.35-.15,1.28-.21,1.88-.85,2-2.13,.03-.33,.03-.66,.1-.98,.17-.79,.49-1.04,1.29-1.1,.48-.04,.96-.07,1.43-.17,.88-.19,1.31-.68,1.29-1.58-.02-.87-.07-1.74-.22-2.59-.56-3.17,.76-5.53,3.1-7.49,.34-.29,.7-.56,1.05-.84,.07-.05,.11-.14,.14-.17-1.66-1.28-3.36-2.49-4.95-3.83-1.6-1.35-2.94-2.94-3.83-5.03,1.38,1.38,2.6,2.71,3.93,3.91,2.77,2.48,5.85,4.49,9.41,5.67,2.05,.68,4.14,.97,6.28,.46,1.31-.31,2.43-1,3.51-1.77,.14-.1,.23-.26,.4-.45-.34-.41-.63-.82-.99-1.17-2.67-2.67-5.35-5.33-8.03-8-.36-.36-.72-.73-1.11-1.05-.44-.36-.55-.76-.52-1.33,.25-4.78-.47-9.39-2.67-13.69-2.45-4.8-6.27-8.2-11.02-10.61-1.44-.73-2.96-1.29-4.46-1.91-.4-.16-.7-.33-.94-.74-.59-1.05-2.23-1.59-3.32-1.09-.41,.18-.71,.59-1.08,.91-1.41,.09-2.88,.1-4.33,.28-5.73,.71-10.84,2.78-14.85,7.08-.93,1-1.78,2.12-2.5,3.28-1.65,2.67-2.76,5.58-3.64,8.57-.83,2.83-.85,5.74-.63,8.65,.24,3.15,.86,6.23,1.69,9.27,.49,1.8,.84,3.61,.84,5.49,0,2.22-.1,4.43-.59,6.61-.33,1.47-.87,2.86-1.74,4.24,2.98,.7,5.7,1.86,8.28,3.32-.02,.06-.04,.11-.06,.17-.3-.11-.59-.23-.89-.33-1.69-.52-3.36-1.08-5.06-1.54-1.51-.41-2.93-.14-4.29,.72-1.68,1.07-3.11,2.31-4.12,4.05-1.29,2.21-2.4,4.49-3.32,6.87-.11,.28-.2,.58-.37,.81-1.6,2.1-2.43,4.54-2.98,7.07-1.07,5.02-1.27,10.1-1.01,15.21,0,.09,.04,.17,.09,.4,.62-.76,1.01-1.55,1.45-2.31,.45-.78,.88-1.57,1.31-2.36,.41-.77,.8-1.54,1.19-2.32,.4-.8,.8-1.61,1.19-2.42,.39-.8,.77-1.61,1.27-2.38-.04,.16-.05,.33-.11,.49-1.69,4.77-3.36,9.55-5.45,14.17-.8,1.76-1.4,3.56-1.68,5.47-.39,2.72-.17,5.38,.81,7.96,.71,1.86,1.68,3.59,2.88,5.17,1.33,1.75,3.19,2.78,5.23,3.51,2.13,.76,4.35,1.12,6.6,1.25,4.91,.29,9.76-.23,14.58-1.16,2.2-.42,4.38-.97,6.58-1.47,.14-.03,.28-.05,.47,.04-.19,.09-.38,.2-.57,.28-4.55,1.73-9.19,3.11-14.01,3.88-4.59,.73-9.19,.92-13.77-.11-.81-.18-1.61-.42-2.52-.53,.25,.27,.47,.56,.74,.8,1.42,1.33,3.1,2.25,4.9,2.95,2.76,1.08,5.64,1.59,8.59,1.79,3.63,.24,7.25,.03,10.85-.46,.05,0,.11,.02,.17,.09-6.69,2.32-13.51,3.29-20.68,1.96,.11,.35,.18,.59,.27,.82,.46,1.14,.58,2.3,.35,3.52-.46,2.48,.59,4.37,2.91,5.34,.25,.1,.5,.2,.77,.31-.05,1.32-.22,2.66,.64,3.92,3.22-.18,6.34-.93,9.36-2.15,3.02-1.22,5.73-2.95,8.2-5.07,.04,.04,.09,.08,.13,.12-.27,.41-.51,.85-.81,1.24-3.1,4-7.09,6.65-11.96,8.02-.41,.11-1-.04-1.16,.62-.02,.07-.33,.09-.5,.09-2.91,.12-5.81,.21-8.72,.37-3.5,.19-7,.42-10.5,.66-3.86,.26-7.71,.62-11.59,.29-.24-.02-.48,0-.75,0-.3,.68-.91,.75-1.56,.81-4.6,.43-9.19,.85-13.78,1.33-3.87,.41-7.74,.87-11.61,1.35-3.9,.48-7.79,1-11.68,1.51-1.04,.14-2.08,.3-3.11,.44-.23,.03-.47,.05-.72,0,12.72-3.35,25.64-5.58,38.89-7.33-.35-.28-.55-.46-.77-.61-5.79-4.1-11.18-8.67-16.12-13.77-14.47-14.95-24.32-32.49-29.43-52.68-1.48-5.85-2.47-11.79-3-17.8-.5-5.65-.57-11.32-.26-16.98,.72-13.14,3.63-25.78,8.67-37.93,.14-.33,.28-.66,.46-1.06h79c.05-.7-.29-1.15-.66-1.56-.98-1.12-2.22-1.81-3.64-2.2-.2-.05-.4-.1-.68-.16,.58-2.98,.06-5.69-1.95-8-1.34-1.55-3.05-2.48-5.07-2.86-4.41-.84-8.31,2.04-9.26,4.6,2.9,.25,2.94,.27,3.94,1.18-3.17-1.06-5.5-.24-6.99,2.68-.1-1.1,.32-1.84,1.82-3.27-1.22-.86-3.23-.81-5.83,.17-.63-3.57-2.48-6.23-5.86-7.69-1.75-.76-3.56-.93-5.63-.54,1.21,.96,2.01,2.03,2.37,3.37,.15,.56,.2,1.14,.24,1.72-1.52-4.37-5.78-6.38-10.33-4.45,.92-.87,1.82-1.39,2.86-1.53,1.02-.14,2.06-.1,3.19-.15-.84-3.23-2.67-5.79-5.55-7.57-2.89-1.79-6.03-2.23-9.35-1.54-3.73-6.16-9.14-8.66-16.22-7.51,.97-.88,4.89-1.4,7.59-.88,2.66,.51,4.98,1.67,7.06,3.51,16.67-17.81,36.77-29.69,60.62-34.86,23.8-5.16,47.05-3.14,69.53,6.26,22.53,9.42,40.21,24.67,53.46,45.24,4.81-4.74,10.4-6.04,16.78-3.72-7.58-1.26-13.4,1.33-17.43,7.95-4.46-.85-8.5,.06-11.92,3.18-1.94,1.77-3.22,3.95-3.86,6.65,2.43-.5,4.52-.17,6.27,1.52-2.14-.92-4.29-1.07-6.44-.11-2.13,.95-3.47,2.6-4.16,4.82-.51-1.2,.37-3.15,2.34-5.22-1.59-.88-5.4-.1-7.73,1.6-2.35,1.71-3.67,4.06-4.14,7.01-2.06-.93-4.12-1.14-6.25-.34,.52,.59,1.04,1.11,1.47,1.7,.43,.58,.59,1.28,.6,2.04-.65-1.43-1.61-2.53-3.09-3.12-1.44-.57-2.86-.45-4.29,.1,1.16-1.12,2.55-1.4,4.09-1.08-.8-3.05-5.51-5.6-9.26-5.08-2.76,.39-4.98,1.69-6.56,3.98-1.59,2.29-1.96,4.84-1.39,7.53-3.62,1.29-5.18,2.52-5.22,4.18h74.48c3.75,15.33,4.43,30.72,1.99,46.26-2.45,15.57-7.89,30.03-16.27,43.38-8.37,13.32-19.04,24.47-31.99,33.56,6.6,1.07,13.09,2.08,19.56,3.2,6.49,1.12,12.91,2.53,19.27,4.26-14.24-2.06-28.51-3.74-42.88-4.97-.16-.52-.31-1-.46-1.48-.91-2.97-2.15-5.79-4.03-8.28-1.11-1.47-2.41-2.74-3.97-3.75-1.36-.88-2.85-1.34-4.42-1.69-2.69-.6-5.35-1.32-8.02-1.99-.75-.19-1.51-.36-2.28-.55-.38,.43-.73,.83-1.08,1.24,4.42-7.77,9.02-15.43,13.59-23.11,4.57-7.67,9.15-15.33,13.78-23.09-.66-.39-1.27-.75-1.95-1.15-.22,.35-.41,.65-.6,.95-5.9,9.5-11.79,19-17.69,28.5-.17,.27-.38,.51-.58,.77l-.04-.04Z"/><path class="cls-1" d="M402.26,421.78c.15,.75,.28,1.5,.44,2.25,.27,1.23,.67,2.42,1.28,3.53,1.56,2.85,4,4.37,7.2,4.71,.53,.06,1.06,.08,1.59,.12,0,.06,.01,.13,.02,.19-.29,.02-.58,.05-.88,.06-1.29,.07-2.56,.26-3.79,.67-3.34,1.11-5.15,3.46-5.6,6.9-.13,1.03-.14,2.08-.32,3.15-.08-.42-.16-.83-.23-1.25-.28-1.63-.74-3.21-1.56-4.66-1.64-2.9-4.19-4.35-7.46-4.62-.45-.04-.89-.04-1.38-.23,.2-.05,.39-.12,.59-.15,1.56-.17,3.08-.46,4.52-1.08,3.22-1.38,4.94-3.86,5.28-7.32,.06-.57,.05-1.14,.08-1.71,0-.19,.05-.38,.07-.57,.05,0,.09,0,.14,0Z"/><path class="cls-1" d="M560.27,408.86c-.1-.39-.21-.79-.31-1.18-.29-1.14-.72-2.22-1.38-3.2-1.16-1.71-2.77-2.69-4.8-2.98-.3-.04-.59-.08-.89-.12-.05,0-.1-.05-.28-.16,.38-.1,.68-.16,.96-.25,.87-.3,1.78-.53,2.61-.94,2.43-1.19,3.72-3.2,3.95-5.89,.01-.15,.03-.3,.04-.44,0-.03,.02-.05,.1-.2,.11,.34,.18,.58,.26,.82,.31,.9,.53,1.85,.94,2.7,1.11,2.33,2.96,3.7,5.56,4.01,.27,.03,.53,.07,.8,.12,.03,0,.05,.03,.21,.13-.39,.1-.68,.15-.96,.25-1.01,.37-2.07,.64-3,1.15-2.19,1.18-3.35,3.09-3.57,5.57-.02,.21-.04,.41-.06,.62-.06,0-.12,0-.19,.01Z"/><path class="cls-1" d="M488.12,583.25c-.86-.09-1.72-.19-2.58-.26-1.95-.17-3.89-.12-5.81,.29-2.8,.6-5.06,2.11-6.97,4.19-.63,.69-1.2,1.41-1.79,2.14-1.24,1.53-2.69,2.81-4.33,3.89-.17,.12-.36,.21-.55,.31-.04,.02-.11,0-.28,0,.25-.25,.45-.45,.65-.64,1.56-1.45,3.02-3,4.15-4.83,.73-1.18,1.28-2.43,1.44-3.84,.2-1.8-.74-2.94-2.57-3.05-1.83-.11-3.48,.45-5.07,1.3-.32,.17-.62,.37-.94,.56,.53-.96,2.36-2.27,4.01-2.93,1.63-.65,3.32-.71,5.1-.46,.83-1.81,1.09-3.72,1.28-5.66,.47,2.83,.53,5.64-.45,8.4,.14,.02,.21,.05,.25,.03,2.31-1.16,4.77-1.3,7.28-1.05,2.39,.24,4.73,.75,7.03,1.42,.05,.02,.1,.06,.15,.08,0,.03,0,.07,0,.1Z"/><path class="cls-1" d="M603.83,436.79c-2.93,.71-5.05,2.15-5.39,5.46-.72-2.97-2.15-5.12-5.47-5.42,.24-.08,.48-.15,.71-.24,.56-.2,1.15-.36,1.68-.62,1.73-.83,2.7-2.22,2.92-4.13,.01-.12,.02-.24,.04-.36,0-.03,.03-.05,.09-.19,.1,.32,.17,.56,.26,.79,.24,.64,.43,1.31,.75,1.92,.77,1.47,2,2.35,3.66,2.61,.25,.04,.5,.11,.75,.17Z"/><path class="cls-1" d="M492.42,606.53c2.48-3.98,4.87-7.81,7.25-11.63,.05,.03,.1,.05,.15,.08-1.74,3.5-3.49,6.99-5.29,10.61,2.83,.86,5.64,1.52,8.42,2.28,2.8,.76,5.6,1.49,8.41,2.23-.01,.06-.03,.12-.04,.19-6.24-1.24-12.49-2.47-18.89-3.75Z"/><path class="cls-1" d="M503.53,582.77c.97,.69,2.05,.99,3.17,1.24,.81,.18,1.61,.48,2.33,.87,1.41,.77,1.66,2.72,.8,3.93-.19-.18-.4-.33-.54-.52-.31-.44-.59-.9-.88-1.36-.76-1.21-1.78-2.09-3.12-2.59-.36-.14-.71-.32-1.05-.51-.4-.23-.68-.56-.72-1.06Z"/><path class="cls-1" d="M509.17,590.02c-.68,.93-1.19,.96-1.91,.14-.51-.58-1.05-1.12-1.57-1.68,1.08-.56,2.61,.1,3.48,1.53Z"/><path class="cls-1" d="M542.9,595.15c-.14,.29-.28,.57-.41,.86-.1-.41,.09-.68,.37-.9,0,0,.04,.04,.04,.04Z"/></g><path class="cls-1" d="M296.47,590.75h-103.3v-35.95l103.3-144.83h41.53v143.44h22.34v37.34h-22.34v47.46h-41.53v-47.46Zm.7-37.34v-86.55l-60.03,86.55h60.03Z"/><path class="cls-1" d="M733.64,590.75h-103.3v-35.95l103.3-144.83h41.53v143.44h22.34v37.34h-22.34v47.46h-41.53v-47.46Zm.7-37.34v-86.55l-60.03,86.55h60.03Z"/><g><path class="cls-3" d="M21.94,731.47v-3.77h.49c3.2,0,3.69-.82,3.69-3.07v-15.29h-2.95c-1.35,0-2.01,.45-2.3,2.38l-.29,1.84h-3.32l.74-8.61h20.42l.74,8.61h-3.36l-.29-1.84c-.29-1.93-.9-2.38-2.3-2.38h-2.91v15.29c0,2.25,.49,3.07,3.69,3.07h.49v3.77h-12.55Z"/><path class="cls-3" d="M47.19,719.62h.25c1.48-4.63,4.06-6.72,7.22-6.72,3.85,0,5.33,2.67,5.33,5.78v6.97c0,1.72,.16,2.25,2.13,2.25h1.39v3.57h-10.41v-3.57h1.11c1.56,0,1.68-.53,1.68-2.25v-4.14c0-2.58-1.19-3.98-3.53-3.98-2.09,0-4.67,2.17-4.67,4.51v3.61c0,1.72,.12,2.25,1.68,2.25h1.11v3.57h-10.41v-3.57h1.39c1.97,0,2.13-.53,2.13-2.25v-14.88c0-2.38-.25-3.28-2.71-3.28v-3.32c2.54,.04,5.21-.04,7.09-.21l.33,.33c-.53,3.98-.78,11.19-1.11,15.33Z"/><path class="cls-3" d="M64.45,722.65c0-6.15,4.02-9.76,8.82-9.76,4.43,0,7.09,3.03,7.09,7.3,0,.66-.08,1.93-.12,3.03h-11.93c.33,2.75,2.01,4.3,4.63,4.3,1.84,0,3.57-.74,5.08-2.01l1.85,2.21c-1.35,1.85-3.36,4.14-7.34,4.14-5.25,0-8.08-4.1-8.08-9.23Zm12.34-1.89c.04-.21,.04-.29,.04-.7,0-1.84-1.52-2.99-3.94-2.99s-4.14,.98-4.59,3.69h8.49Z"/><path class="cls-3" d="M106.81,727.69h1.44v3.77h-13v-3.77h1.19c2.54,0,2.79-.29,2.79-2.25v-14.47c0-1.97-.25-2.25-2.79-2.25h-1.19v-3.77h12.71c5.95,0,9.43,2.83,9.43,8.12,0,6.15-4.76,8.32-10.41,8.32h-3.48v4.06c0,1.97,.29,2.25,3.32,2.25Zm.78-9.88c3.32,0,5.58-1.39,5.58-4.3,0-2.67-1.64-4.18-4.96-4.18h-4.71v8.49h4.1Z"/><path class="cls-3" d="M117.59,726.5c0-4.35,3.36-6.11,7.34-6.11,1.68,0,3.36,.21,4.63,.74v-.62c0-2.01-1.15-3.2-3.32-3.2-2.3,0-4.55,.66-5.66,1.27l-.29,.04c-.41-1.44-.7-2.71-.78-4.14,2.05-.9,4.47-1.6,7.46-1.6,4.59,0,6.68,2.09,6.68,6.27v6.68c0,1.52,.62,2.05,2.21,2.05h.45v3.57h-6.52l-.29-.41c.29-2.67,.29-2.95,.45-5.25h-.21c-.9,3.24-2.95,6.07-6.72,6.07-2.95,0-5.45-1.8-5.45-5.37Zm7.59,.82c2.42,0,4.39-2.09,4.39-4.18v-.12c-.86-.21-2.25-.29-3.65-.29-2.62,0-3.73,.9-3.73,2.42,0,1.23,.78,2.17,2.99,2.17Z"/><path class="cls-3" d="M145.84,735.03c3.07,0,4.43-2.09,4.63-4.43,.25-1.89,.16-2.83,.57-5.04h-.21c-1.35,3.77-3.57,6.15-6.6,6.15-3.57,0-6.81-3.03-6.81-9.1,0-7.34,4.51-9.68,8.45-9.68,3.48,0,6.31,.62,9.35,1.8v1.97c-.66,.82-.78,1.72-.78,6.93,0,3.36,.45,5.74,.45,8.12,0,5.12-3.9,7.71-8.36,7.71-2.62,0-5.78-.7-7.3-1.19l-.16-4.76h.12c3.03,1.11,4.88,1.52,6.64,1.52Zm-.25-7.71c2.05,0,4.8-1.6,4.8-4.67v-4.35c-.94-.45-2.79-.9-4.55-.9-2.25,0-4.39,1.15-4.39,5.08,0,3.28,1.93,4.84,4.14,4.84Z"/><path class="cls-3" d="M156.91,722.65c0-6.15,4.02-9.76,8.82-9.76,4.43,0,7.09,3.03,7.09,7.3,0,.66-.08,1.93-.12,3.03h-11.93c.33,2.75,2.01,4.3,4.63,4.3,1.84,0,3.57-.74,5.08-2.01l1.85,2.21c-1.35,1.85-3.36,4.14-7.34,4.14-5.25,0-8.08-4.1-8.08-9.23Zm12.34-1.89c.04-.21,.04-.29,.04-.7,0-1.84-1.52-2.99-3.94-2.99s-4.14,.98-4.59,3.69h8.49Z"/><path class="cls-3" d="M193.36,731.47v-3.77h.49c3.03,0,3.49-.82,3.49-3.07v-3.16l-5.7-10.25c-1.15-2.05-1.48-2.5-3.53-2.5h-.78v-3.77h10.41v3.77h-.66c-1.64,0-1.76,.49-.66,2.54l3.36,6.23,3.36-6.23c1.11-2.05,.98-2.54-.66-2.54h-.66v-3.77h9.96v3.77h-.78c-2.05,0-2.38,.45-3.53,2.5l-5.9,10.25v3.16c0,2.25,.45,3.07,3.49,3.07h.49v3.77h-12.22Z"/><path class="cls-3" d="M208.32,722.61c0-5.99,4.02-9.72,9.23-9.72s8.45,3.44,8.45,9.1c0,6.19-3.81,9.88-9.23,9.88-4.84,0-8.45-3.4-8.45-9.27Zm8.86,5c2.95,0,4.88-1.97,4.88-5.33,0-2.95-1.89-5.08-4.92-5.08s-4.88,1.89-4.88,5.29c0,3.12,1.89,5.12,4.92,5.12Z"/><path class="cls-3" d="M229.89,726.14v-5.74c0-2.5,0-3.69-3.36-3.61v-3.44l8-.33,.25,.25c-.49,2.21-.74,4.96-.74,9.55,0,3.36,1.44,4.47,3.69,4.47,2.13,0,4.43-1.8,4.43-4.35v-3.16c0-2.09-.25-2.99-3.44-3.07v-3.36l8.08-.33,.25,.25c-.53,1.93-.74,5.21-.74,8.69v3.2c0,2.3,.98,2.79,3.12,2.79l.04,3.53h-7.05l-.29-.41c.25-1.93,.45-3.73,.49-5.25h-.25c-1.64,4.22-4.22,6.03-6.93,6.03-3.85,0-5.54-2.34-5.54-5.7Z"/><path class="cls-3" d="M264.12,726.5c0-4.35,3.36-6.11,7.34-6.11,1.68,0,3.36,.21,4.63,.74v-.62c0-2.01-1.15-3.2-3.32-3.2-2.3,0-4.55,.66-5.66,1.27l-.29,.04c-.41-1.44-.7-2.71-.78-4.14,2.05-.9,4.47-1.6,7.46-1.6,4.59,0,6.68,2.09,6.68,6.27v6.68c0,1.52,.61,2.05,2.21,2.05h.45v3.57h-6.52l-.29-.41c.29-2.67,.29-2.95,.45-5.25h-.21c-.9,3.24-2.95,6.07-6.72,6.07-2.95,0-5.45-1.8-5.45-5.37Zm7.58,.82c2.42,0,4.39-2.09,4.39-4.18v-.12c-.86-.21-2.25-.29-3.65-.29-2.62,0-3.73,.9-3.73,2.42,0,1.23,.78,2.17,2.99,2.17Z"/><path class="cls-3" d="M284.78,727.9h1.39c1.97,0,2.13-.53,2.13-2.25v-5.54c0-2.25-.08-3.32-3.65-3.32l.21-3.44,7.87-.33,.25,.29c-.61,2.13-.9,3.85-1.07,6.31h.21c1.39-5.45,3.94-6.72,6.23-6.72,.86,0,1.72,.21,2.42,.53-.12,1.56-.45,3.89-1.02,7.22h-1.93c.2-2.46-.9-3.12-2.01-3.12-1.89,0-3.4,2.5-3.4,4.76v3.36c0,1.72,.16,2.25,2.13,2.25h1.39v3.57h-11.15v-3.57Z"/><path class="cls-3" d="M301.8,722.65c0-6.15,4.02-9.76,8.81-9.76,4.43,0,7.09,3.03,7.09,7.3,0,.66-.08,1.93-.12,3.03h-11.93c.33,2.75,2.01,4.3,4.63,4.3,1.85,0,3.57-.74,5.08-2.01l1.85,2.21c-1.35,1.85-3.36,4.14-7.34,4.14-5.25,0-8.08-4.1-8.08-9.23Zm12.34-1.89c.04-.21,.04-.29,.04-.7,0-1.84-1.52-2.99-3.94-2.99s-4.14,.98-4.59,3.69h8.49Z"/><path class="cls-3" d="M332.59,731.47v-3.77h.49c3.03,0,3.49-.82,3.49-3.07v-12.83c0-2.25-.45-3.07-3.49-3.07h-.49v-3.77h12.22v3.77h-.49c-3.03,0-3.49,.82-3.49,3.07v15.29h6.48c1.07,0,1.76-.21,2.17-2.91l.21-1.31h3.44l-.7,8.61h-19.84Z"/><path class="cls-3" d="M354.89,722.61c0-5.99,4.02-9.72,9.22-9.72s8.45,3.44,8.45,9.1c0,6.19-3.81,9.88-9.23,9.88-4.84,0-8.45-3.4-8.45-9.27Zm8.86,5c2.95,0,4.88-1.97,4.88-5.33,0-2.95-1.89-5.08-4.92-5.08s-4.88,1.89-4.88,5.29c0,3.12,1.89,5.12,4.92,5.12Z"/><path class="cls-3" d="M374.53,722.61c0-5.99,4.02-9.72,9.22-9.72s8.45,3.44,8.45,9.1c0,6.19-3.81,9.88-9.23,9.88-4.84,0-8.45-3.4-8.45-9.27Zm8.86,5c2.95,0,4.88-1.97,4.88-5.33,0-2.95-1.89-5.08-4.92-5.08s-4.88,1.89-4.88,5.29c0,3.12,1.89,5.12,4.92,5.12Z"/><path class="cls-3" d="M393.06,727.9h1.39c1.97,0,2.13-.53,2.13-2.25v-13.08c0-4.39-.21-5-2.58-5.08v-3.32c2.99,0,5.25,.08,7.01-.21l.25,.33c-.49,4.63-.57,7.38-.57,12.75v4.92l4.02-3.73c1.15-1.11,.29-1.35-.78-1.43v-3.44h8.77v3.32c-3.03,.08-3.98,1.15-5.54,2.42l-1.8,1.48,4.35,5.29c1.48,1.84,2.17,2.17,4.1,2.17v3.44h-8.69v-3.61c2.01,0,1.97-.49,.62-2.3l-2.46-3.32-2.58,2.09v1.31c0,1.72,.08,2.25,1.93,2.25h.94v3.57h-10.5v-3.57Z"/><path class="cls-3" d="M422.99,721.95v3.69c0,1.72,.16,2.25,2.13,2.25h1.39v3.57h-10.95v-3.57h1.31c1.8,0,1.97-.53,1.97-2.25v-5.33c0-2.79-.12-3.53-3.4-3.53v-3.44l7.95-.33,.25,.25c-.41,2.09-.66,5.37-.66,8.69Zm-2.3-17.79c1.8,0,3.28,1.35,3.28,3.03s-1.48,3.12-3.28,3.12-3.28-1.39-3.28-3.12,1.48-3.03,3.28-3.03Z"/><path class="cls-3" d="M428.53,727.9h1.39c1.97,0,2.13-.53,2.13-2.25v-6.27c0-2.05-.12-2.58-2.34-2.58h-1.15v-3.44l7.42-.16,.16,.29c-.29,2.54-.33,4.1-.53,5.45h.25c.53-2.91,2.75-6.03,6.68-6.03s5.58,2.87,5.58,6.6v6.15c0,1.72,.16,2.25,2.13,2.25h1.39v3.57h-10.41v-3.57h1.11c1.56,0,1.68-.53,1.68-2.25v-3.89c0-3.24-1.44-4.35-3.28-4.35-2.46,0-4.59,2.13-4.59,4.18v4.06c0,1.72,.12,2.25,1.68,2.25h1.11v3.57h-10.41v-3.57Z"/><path class="cls-3" d="M461,735.03c3.08,0,4.43-2.09,4.63-4.43,.25-1.89,.16-2.83,.57-5.04h-.2c-1.35,3.77-3.57,6.15-6.6,6.15-3.57,0-6.81-3.03-6.81-9.1,0-7.34,4.51-9.68,8.45-9.68,3.49,0,6.31,.62,9.35,1.8v1.97c-.66,.82-.78,1.72-.78,6.93,0,3.36,.45,5.74,.45,8.12,0,5.12-3.9,7.71-8.36,7.71-2.62,0-5.78-.7-7.3-1.19l-.16-4.76h.12c3.03,1.11,4.88,1.52,6.64,1.52Zm-.25-7.71c2.05,0,4.8-1.6,4.8-4.67v-4.35c-.94-.45-2.79-.9-4.55-.9-2.25,0-4.39,1.15-4.39,5.08,0,3.28,1.93,4.84,4.14,4.84Z"/><path class="cls-3" d="M494.13,708.38c-2.05,0-3.12,.82-3.12,2.5,0,.86,.37,1.72,.86,2.46h5.86v3.73h-4.59v8.57c0,1.72,.21,2.25,2.67,2.25h1.76v3.57h-12.14v-3.57h1.39c1.97,0,2.13-.53,2.13-2.25v-8.57h-2.95v-2.42l2.95-1.11c-.57-.94-1.11-2.21-1.11-3.69,0-4.06,3.28-5.94,6.85-5.94,1.72,0,3.2,.2,5.25,1.23-.16,1.48-.33,2.99-.66,4.55h-.33c-1.6-.98-3.36-1.31-4.84-1.31Z"/><path class="cls-3" d="M498.96,722.61c0-5.99,4.02-9.72,9.23-9.72s8.45,3.44,8.45,9.1c0,6.19-3.81,9.88-9.23,9.88-4.84,0-8.45-3.4-8.45-9.27Zm8.86,5c2.95,0,4.88-1.97,4.88-5.33,0-2.95-1.89-5.08-4.92-5.08s-4.88,1.89-4.88,5.29c0,3.12,1.89,5.12,4.92,5.12Z"/><path class="cls-3" d="M518.11,727.9h1.39c1.97,0,2.13-.53,2.13-2.25v-5.54c0-2.25-.08-3.32-3.65-3.32l.2-3.44,7.87-.33,.25,.29c-.61,2.13-.9,3.85-1.07,6.31h.21c1.39-5.45,3.94-6.72,6.23-6.72,.86,0,1.72,.21,2.42,.53-.12,1.56-.45,3.89-1.02,7.22h-1.93c.2-2.46-.9-3.12-2.01-3.12-1.89,0-3.4,2.5-3.4,4.76v3.36c0,1.72,.16,2.25,2.13,2.25h1.39v3.57h-11.15v-3.57Z"/><path class="cls-3" d="M556.36,721.95v3.69c0,1.72,.16,2.25,2.13,2.25h1.39v3.57h-10.95v-3.57h1.31c1.8,0,1.97-.53,1.97-2.25v-5.33c0-2.79-.12-3.53-3.4-3.53v-3.44l7.95-.33,.25,.25c-.41,2.09-.66,5.37-.66,8.69Zm-2.3-17.79c1.8,0,3.28,1.35,3.28,3.03s-1.48,3.12-3.28,3.12-3.28-1.39-3.28-3.12,1.48-3.03,3.28-3.03Z"/><path class="cls-3" d="M568.66,727.45c1.6,0,2.58-.53,2.58-1.56,0-1.11-.9-1.35-2.42-1.89l-1.6-.57c-2.58-.82-4.39-2.5-4.39-5.08,0-3.24,2.83-5.45,6.11-5.45,2.75,0,4.1,.37,6.19,1.27,0,1.48-.25,2.95-.7,4.43h-.25c-2.05-.9-3.53-1.31-5-1.31-1.19,0-2.17,.33-2.17,1.6,0,1.02,.7,1.43,1.97,1.89l1.8,.66c3.16,1.11,4.59,2.79,4.59,5,0,3.49-3.28,5.41-6.93,5.41-2.5,0-4.14-.45-6.07-1.19,.08-1.52,.25-3.03,.7-4.51h.25c1.84,.86,3.81,1.31,5.33,1.31Z"/><path class="cls-3" d="M591.09,730.28c.16-1.52,.49-2.83,.82-3.81,1.68,.57,3.4,.98,5,.98s3.57-.74,3.57-4.55v-11.11c0-2.25-.57-3.07-4.39-3.07h-.62v-3.77h13.12v3.77h-.49c-2.87,0-3.28,.82-3.28,3.07v11.28c0,2.75-.66,8.82-7.75,8.82-2.13,0-4.22-.57-5.99-1.6Z"/><path class="cls-3" d="M610.89,726.14v-5.74c0-2.5,0-3.69-3.36-3.61v-3.44l8-.33,.25,.25c-.49,2.21-.74,4.96-.74,9.55,0,3.36,1.44,4.47,3.69,4.47,2.13,0,4.43-1.8,4.43-4.35v-3.16c0-2.09-.25-2.99-3.44-3.07v-3.36l8.08-.33,.25,.25c-.53,1.93-.74,5.21-.74,8.69v3.2c0,2.3,.98,2.79,3.12,2.79l.04,3.53h-7.05l-.29-.41c.25-1.93,.45-3.73,.49-5.25h-.25c-1.64,4.22-4.22,6.03-6.93,6.03-3.85,0-5.54-2.34-5.54-5.7Z"/><path class="cls-3" d="M639.26,727.45c1.6,0,2.58-.53,2.58-1.56,0-1.11-.9-1.35-2.42-1.89l-1.6-.57c-2.58-.82-4.39-2.5-4.39-5.08,0-3.24,2.83-5.45,6.11-5.45,2.75,0,4.1,.37,6.19,1.27,0,1.48-.25,2.95-.7,4.43h-.25c-2.05-.9-3.53-1.31-5-1.31-1.19,0-2.17,.33-2.17,1.6,0,1.02,.7,1.43,1.97,1.89l1.8,.66c3.16,1.11,4.59,2.79,4.59,5,0,3.49-3.28,5.41-6.93,5.41-2.5,0-4.14-.45-6.07-1.19,.08-1.52,.25-3.03,.7-4.51h.25c1.84,.86,3.81,1.31,5.33,1.31Z"/><path class="cls-3" d="M650.58,725.77v-8.57h-2.99v-2.95c1.76-.9,3.85-2.75,4.55-5.54h2.58v4.63h6.85v3.85h-6.89v7.63c0,1.89,.94,2.67,2.34,2.67,1.52,0,2.99-.66,4.26-1.6l1.68,2.5c-1.6,2.25-3.85,3.49-6.85,3.49-3.9,0-5.54-2.3-5.54-6.11Z"/><path class="cls-3" d="M677.15,727.69h1.19c1.35,0,1.68-.45,2.3-2.13l7.38-20.62h4.67l7.67,20.66c.62,1.68,.9,2.09,2.46,2.09h.9v3.77h-11.15v-3.77h1.6c2.54,0,2.34-.74,1.68-2.54l-.86-2.42h-9.43l-.86,2.46c-.62,1.85-.66,2.5,1.56,2.5h1.8v3.77h-10.91v-3.77Zm16.81-7.91l-3.16-9.02c-.16-.41-.25-.53-.53-.53-.33,0-.41,.12-.53,.53l-3.16,9.02h7.38Z"/><path class="cls-3" d="M705.6,727.9h1.39c1.97,0,2.13-.53,2.13-2.25v-5.54c0-2.25-.08-3.32-3.65-3.32l.21-3.44,7.87-.33,.25,.29c-.61,2.13-.9,3.85-1.07,6.31h.21c1.39-5.45,3.94-6.72,6.23-6.72,.86,0,1.72,.21,2.42,.53-.12,1.56-.45,3.89-1.02,7.22h-1.93c.2-2.46-.9-3.12-2.01-3.12-1.89,0-3.4,2.5-3.4,4.76v3.36c0,1.72,.16,2.25,2.13,2.25h1.39v3.57h-11.15v-3.57Z"/><path class="cls-3" d="M722.62,722.61c0-5.99,4.02-9.72,9.22-9.72s8.45,3.44,8.45,9.1c0,6.19-3.81,9.88-9.23,9.88-4.84,0-8.45-3.4-8.45-9.27Zm8.86,5c2.95,0,4.88-1.97,4.88-5.33,0-2.95-1.89-5.08-4.92-5.08s-4.88,1.89-4.88,5.29c0,3.12,1.89,5.12,4.92,5.12Z"/><path class="cls-3" d="M744.18,726.14v-5.74c0-2.5,0-3.69-3.36-3.61v-3.44l8-.33,.25,.25c-.49,2.21-.74,4.96-.74,9.55,0,3.36,1.44,4.47,3.69,4.47,2.13,0,4.43-1.8,4.43-4.35v-3.16c0-2.09-.25-2.99-3.44-3.07v-3.36l8.08-.33,.25,.25c-.53,1.93-.74,5.21-.74,8.69v3.2c0,2.3,.98,2.79,3.12,2.79l.04,3.53h-7.05l-.29-.41c.25-1.93,.45-3.73,.49-5.25h-.25c-1.64,4.22-4.22,6.03-6.93,6.03-3.85,0-5.54-2.34-5.54-5.7Z"/><path class="cls-3" d="M765.71,727.9h1.39c1.97,0,2.13-.53,2.13-2.25v-6.27c0-2.05-.12-2.58-2.34-2.58h-1.15v-3.44l7.42-.16,.16,.29c-.29,2.54-.33,4.1-.53,5.45h.25c.53-2.91,2.75-6.03,6.68-6.03s5.58,2.87,5.58,6.6v6.15c0,1.72,.16,2.25,2.13,2.25h1.39v3.57h-10.41v-3.57h1.11c1.56,0,1.68-.53,1.68-2.25v-3.89c0-3.24-1.44-4.35-3.28-4.35-2.46,0-4.59,2.13-4.59,4.18v4.06c0,1.72,.12,2.25,1.68,2.25h1.11v3.57h-10.41v-3.57Z"/><path class="cls-3" d="M789.9,722.69c0-7.5,4.92-9.8,8-9.8,2.09,0,3.98,.62,4.96,1.6v-3.73c0-2.79-.57-3.2-2.58-3.2v-3.4l6.56-.25,.29,.33c-.12,2.21-.21,6.36-.21,13.2v8.28c0,1.48,.7,2.17,2.09,2.17h.94v3.57l-6.76,.04-.25-.37c.21-1.8,.25-2.71,.41-5.33h-.2c-.78,3.61-3.61,6.07-6.52,6.07-3.98,0-6.72-3.28-6.72-9.18Zm8.2,4.67c2.13,0,4.76-1.93,4.76-4.43v-4.35c-1.27-.86-2.71-1.15-4.35-1.15-3.07,0-4.55,1.8-4.55,5.04,0,3.44,1.89,4.88,4.14,4.88Z"/><path class="cls-3" d="M826.8,725.77v-8.57h-2.99v-2.95c1.76-.9,3.85-2.75,4.55-5.54h2.58v4.63h6.85v3.85h-6.89v7.63c0,1.89,.94,2.67,2.34,2.67,1.52,0,2.99-.66,4.26-1.6l1.68,2.5c-1.6,2.25-3.85,3.49-6.85,3.49-3.9,0-5.54-2.3-5.54-6.11Z"/><path class="cls-3" d="M847.66,719.62h.25c1.48-4.63,4.06-6.72,7.22-6.72,3.85,0,5.33,2.67,5.33,5.78v6.97c0,1.72,.16,2.25,2.13,2.25h1.39v3.57h-10.41v-3.57h1.11c1.56,0,1.68-.53,1.68-2.25v-4.14c0-2.58-1.19-3.98-3.53-3.98-2.09,0-4.67,2.17-4.67,4.51v3.61c0,1.72,.12,2.25,1.68,2.25h1.11v3.57h-10.41v-3.57h1.39c1.97,0,2.13-.53,2.13-2.25v-14.88c0-2.38-.25-3.28-2.71-3.28v-3.32c2.54,.04,5.21-.04,7.09-.21l.33,.33c-.53,3.98-.78,11.19-1.11,15.33Z"/><path class="cls-3" d="M864.93,722.65c0-6.15,4.02-9.76,8.81-9.76,4.43,0,7.09,3.03,7.09,7.3,0,.66-.08,1.93-.12,3.03h-11.93c.33,2.75,2.01,4.3,4.63,4.3,1.85,0,3.57-.74,5.08-2.01l1.85,2.21c-1.35,1.85-3.36,4.14-7.34,4.14-5.25,0-8.08-4.1-8.08-9.23Zm12.34-1.89c.04-.21,.04-.29,.04-.7,0-1.84-1.52-2.99-3.94-2.99s-4.14,.98-4.59,3.69h8.49Z"/><path class="cls-3" d="M895.72,731.47v-3.77h.49c3.03,0,3.49-.82,3.49-3.07v-12.83c0-2.25-.45-3.07-3.49-3.07h-.49v-3.77h13.2c4.92,0,8.2,1.8,8.2,6.07,0,3.48-2.34,6.27-7.26,6.81v.08c4.92,.16,8.32,2.09,8.32,6.48,0,5.17-3.98,7.09-9.23,7.09h-13.24Zm12.05-15.17c2.46,0,5.04-1.23,5.04-3.94,0-2.13-1.56-3.24-4.59-3.24h-4.26v7.17h3.81Zm1.03,10.99c3.53,0,5.17-1.35,5.17-3.98,0-2.79-2.87-3.73-5.82-3.73h-4.18v7.71h4.84Z"/><path class="cls-3" d="M920.23,722.65c0-6.15,4.02-9.76,8.81-9.76,4.43,0,7.09,3.03,7.09,7.3,0,.66-.08,1.93-.12,3.03h-11.93c.33,2.75,2.01,4.3,4.63,4.3,1.85,0,3.57-.74,5.08-2.01l1.85,2.21c-1.35,1.85-3.36,4.14-7.34,4.14-5.25,0-8.08-4.1-8.08-9.23Zm12.34-1.89c.04-.21,.04-.29,.04-.7,0-1.84-1.52-2.99-3.94-2.99s-4.14,.98-4.59,3.69h8.49Z"/><path class="cls-3" d="M937.66,727.9h1.39c1.97,0,2.13-.53,2.13-2.25v-6.27c0-2.05-.12-2.58-2.34-2.58h-1.15v-3.44l7.42-.16,.16,.29c-.29,2.54-.33,4.1-.53,5.45h.25c.53-2.91,2.75-6.03,6.68-6.03s5.58,2.87,5.58,6.6v6.15c0,1.72,.16,2.25,2.13,2.25h1.39v3.57h-10.41v-3.57h1.11c1.56,0,1.68-.53,1.68-2.25v-3.89c0-3.24-1.44-4.35-3.28-4.35-2.46,0-4.59,2.13-4.59,4.18v4.06c0,1.72,.12,2.25,1.68,2.25h1.11v3.57h-10.41v-3.57Z"/><path class="cls-3" d="M961.85,722.69c0-7.5,4.92-9.8,8-9.8,2.09,0,3.98,.62,4.96,1.6v-3.73c0-2.79-.57-3.2-2.58-3.2v-3.4l6.56-.25,.29,.33c-.12,2.21-.21,6.36-.21,13.2v8.28c0,1.48,.7,2.17,2.09,2.17h.94v3.57l-6.76,.04-.25-.37c.21-1.8,.25-2.71,.41-5.33h-.2c-.78,3.61-3.61,6.07-6.52,6.07-3.98,0-6.72-3.28-6.72-9.18Zm8.2,4.67c2.13,0,4.76-1.93,4.76-4.43v-4.35c-1.27-.86-2.71-1.15-4.35-1.15-3.07,0-4.55,1.8-4.55,5.04,0,3.44,1.89,4.88,4.14,4.88Z"/></g><g><rect class="cls-6" x="382.77" y="207.97" width="233.75" height="110.76"/><rect class="cls-5" x="382.86" y="92.64" width="233.73" height="113.79"/><g><rect class="cls-2" x="407.41" y="109.88" width="101.14" height="185.05"/><rect class="cls-2" x="534.37" y="107.15" width="47.12" height="184.68" transform="translate(-33.28 160.07) rotate(-15.86)"/><path d="M512.96,148.54c0,1.16,0,2.33,0,3.49,0,46.51-.01,93.01-.02,139.52,0,.99,.05,1.99-.07,2.96-.28,2.26-1.64,3.51-3.93,3.69-.81,.06-1.62,.03-2.43,.03-43.37,0-55.49,0-98.86,0-.9,0-1.81,.04-2.7-.05-2.24-.22-3.56-1.59-3.74-3.86-.06-.72-.02-1.44-.02-2.16-.01-50.91-.02-101.83-.03-152.74,0-10.16,0-20.33,.07-30.49,0-1.2,.23-2.6,.89-3.53,.59-.82,1.88-1.24,2.94-1.59,.73-.24,1.6-.06,2.41-.06,43.46,0,55.67,0,99.13,0,.36,0,.72,0,1.08,0,3.75,.04,5.03,1.23,5.25,4.92,.03,.44,.06,.88,.1,1.55,.79-.13,1.46-.19,2.1-.36,18.68-4.99,22.64-6.3,41.31-11.3,.61-.16,1.21-.34,1.83-.46,2.51-.46,4.2,.48,4.94,2.97,1.07,3.62,2.02,7.27,2.99,10.92,12.39,46.17,24.78,92.35,37.16,138.53,2.58,9.63,5.14,19.28,7.71,28.92,.21,.78,.46,1.57,.52,2.36,.16,2.13-1.08,3.58-3.66,4.29-5.03,1.38,4.64-.97-.39,.38-15.98,4.28-31.96,8.55-47.94,12.82-.78,.21-1.58,.41-2.37,.45-1.71,.09-2.95-.73-3.65-2.26-.33-.73-.49-1.54-.7-2.32-12.91-48.08-25.82-96.15-38.74-144.23-.23-.84-.48-1.68-.72-2.52-.15,.04-.31,.08-.46,.12Zm-103.52-5.73v116.32h40.59v-116.32h-40.59Zm95.27,116.34v-116.13c-3.12-.55-44.26-.44-46.23,.09v116.03h46.23Zm47.29,1.86c19.27-5.17,23.52-6.57,42.69-11.71-10.08-37.62-20.08-74.91-30.16-112.54-19.18,5.14-23.43,6.53-42.69,11.69,10.09,37.64,20.1,75,30.16,112.56Zm-142.69,28.98c4.05,.61,38.92,.41,40.74-.16v-22.22c-4.14-.56-38.84-.36-40.74,.21v22.17Zm49.15-22.56v22.68h46.11c.55-3.12,.43-20.7-.16-22.68h-45.96Zm61.25-126.76c19.32-5.18,23.57-6.58,42.75-11.72-2.02-7.51-3.96-14.74-5.95-22.15-19.27,5.16-23.52,6.57-42.73,11.72,1.99,7.44,3.91,14.61,5.92,22.15Zm83.03,138.55c-2-7.46-3.94-14.68-5.86-21.84-3.92,.42-41.06,10.82-42.71,11.89,1.92,7.13,3.85,14.3,5.83,21.67,19.25-5.16,23.49-6.56,42.74-11.71Zm-152.81-144.71c.57-3.44,.43-20.77-.15-22.58h-40.27c-.55,3.56-.4,20.75,.16,22.58h40.26Zm54.85-22.55h-46.3v22.42c3.32,.54,44.21,.4,46.3-.15v-22.27Z"/></g></g></g></g></svg>