<?xml version="1.0" encoding="UTF-8"?><svg id="Layer_1" xmlns="http://www.w3.org/2000/svg" viewBox="0 0 147.58 100.07"><defs><style>.cls-1{fill:#020202;}.cls-2{fill:#fff;}.cls-3{fill:#231f20;}.cls-4{fill:#93a5ab;}.cls-4,.cls-5{stroke:#010101;stroke-miterlimit:10;stroke-width:3px;}.cls-5{fill:#50573f;}</style></defs><g><path class="cls-3" d="m1.51,94.34v-1.2h.16c.96,0,1.1-.26,1.1-.97v-4.07c0-.71-.14-.97-1.1-.97h-.16v-1.2h4.19c1.56,0,2.6.57,2.6,1.92,0,1.11-.74,1.99-2.3,2.16v.03c1.56.05,2.64.66,2.64,2.05,0,1.64-1.26,2.25-2.92,2.25H1.51Zm3.82-4.81c.78,0,1.6-.39,1.6-1.25,0-.68-.49-1.03-1.46-1.03h-1.35v2.27h1.21Zm.33,3.48c1.12,0,1.64-.43,1.64-1.26,0-.88-.91-1.18-1.85-1.18h-1.33v2.44h1.53Z"/><path class="cls-3" d="m9.9,91.53c0-1.9,1.27-3.08,2.93-3.08s2.68,1.09,2.68,2.89c0,1.96-1.21,3.13-2.92,3.13-1.53,0-2.68-1.08-2.68-2.94Zm2.81,1.59c.94,0,1.55-.62,1.55-1.69,0-.94-.6-1.61-1.56-1.61s-1.55.6-1.55,1.68c0,.99.6,1.62,1.56,1.62Z"/><path class="cls-3" d="m16.76,91.53c0-1.9,1.27-3.08,2.93-3.08s2.68,1.09,2.68,2.89c0,1.96-1.21,3.13-2.92,3.13-1.53,0-2.68-1.08-2.68-2.94Zm2.81,1.59c.94,0,1.55-.62,1.55-1.69,0-.94-.6-1.61-1.56-1.61s-1.55.6-1.55,1.68c0,.99.6,1.62,1.56,1.62Z"/><path class="cls-3" d="m23.26,93.21h.44c.62,0,.68-.17.68-.71v-4.15c0-1.39-.06-1.59-.82-1.61v-1.05c.95,0,1.66.03,2.22-.07l.08.1c-.16,1.47-.18,2.34-.18,4.04v1.56l1.27-1.18c.36-.35.09-.43-.25-.46v-1.09h2.78v1.05c-.96.03-1.26.36-1.75.77l-.57.47,1.38,1.68c.47.58.69.69,1.3.69v1.09h-2.76v-1.14c.64,0,.62-.16.19-.73l-.78-1.05-.82.66v.42c0,.55.03.71.61.71h.3v1.13h-3.33v-1.13Z"/><path class="cls-3" d="m33.17,93.06c.51,0,.82-.17.82-.49,0-.35-.29-.43-.77-.6l-.51-.18c-.82-.26-1.39-.79-1.39-1.61,0-1.03.9-1.73,1.94-1.73.87,0,1.3.12,1.96.4,0,.47-.08.94-.22,1.4h-.08c-.65-.29-1.12-.42-1.59-.42-.38,0-.69.1-.69.51,0,.33.22.46.62.6l.57.21c1,.35,1.46.88,1.46,1.59,0,1.1-1.04,1.72-2.2,1.72-.79,0-1.31-.14-1.92-.38.03-.48.08-.96.22-1.43h.08c.58.27,1.21.42,1.69.42Z"/><path class="cls-3" d="m41.29,93.14h.38c.43,0,.53-.14.73-.68l2.34-6.54h1.48l2.43,6.55c.19.53.29.66.78.66h.29v1.2h-3.54v-1.2h.51c.81,0,.74-.23.53-.81l-.27-.77h-2.99l-.27.78c-.19.58-.21.79.49.79h.57v1.2h-3.46v-1.2Zm5.33-2.51l-1-2.86c-.05-.13-.08-.17-.17-.17-.1,0-.13.04-.17.17l-1,2.86h2.34Z"/><path class="cls-3" d="m50.93,93.21h.44c.62,0,.68-.17.68-.71v-1.76c0-.71-.03-1.05-1.16-1.05l.06-1.09,2.5-.1.08.09c-.2.68-.29,1.22-.34,2h.07c.44-1.73,1.25-2.13,1.98-2.13.27,0,.55.07.77.17-.04.49-.14,1.23-.33,2.29h-.61c.07-.78-.29-.99-.64-.99-.6,0-1.08.79-1.08,1.51v1.07c0,.55.05.71.68.71h.44v1.13h-3.54v-1.13Z"/><path class="cls-3" d="m56.95,91.53c0-1.9,1.27-3.08,2.93-3.08s2.68,1.09,2.68,2.89c0,1.96-1.21,3.13-2.92,3.13-1.53,0-2.68-1.08-2.68-2.94Zm2.81,1.59c.94,0,1.55-.62,1.55-1.69,0-.94-.6-1.61-1.56-1.61s-1.55.6-1.55,1.68c0,.99.6,1.62,1.56,1.62Z"/><path class="cls-3" d="m64.41,92.65v-1.82c0-.79,0-1.17-1.07-1.14v-1.09l2.54-.1.08.08c-.16.7-.23,1.57-.23,3.03,0,1.07.46,1.42,1.17,1.42.68,0,1.4-.57,1.4-1.38v-1c0-.66-.08-.95-1.09-.98v-1.07l2.56-.1.08.08c-.17.61-.23,1.65-.23,2.76v1.01c0,.73.31.88.99.88v1.12s-2.22,0-2.22,0l-.09-.13c.08-.61.14-1.18.16-1.66h-.08c-.52,1.34-1.34,1.91-2.2,1.91-1.22,0-1.75-.74-1.75-1.81Z"/><path class="cls-3" d="m71.86,93.21h.44c.62,0,.68-.17.68-.71v-1.99c0-.65-.04-.82-.74-.82h-.36v-1.09l2.35-.05.05.09c-.09.81-.1,1.3-.17,1.73h.08c.17-.92.87-1.91,2.12-1.91s1.77.91,1.77,2.09v1.95c0,.55.05.71.68.71h.44v1.13h-3.3v-1.13h.35c.49,0,.53-.17.53-.71v-1.24c0-1.03-.46-1.38-1.04-1.38-.78,0-1.46.68-1.46,1.33v1.29c0,.55.04.71.53.71h.35v1.13h-3.3v-1.13Z"/><path class="cls-3" d="m80.16,91.55c0-2.38,1.56-3.11,2.54-3.11.66,0,1.26.2,1.57.51v-1.18c0-.88-.18-1.01-.82-1.01v-1.08l2.08-.08.09.1c-.04.7-.07,2.01-.07,4.19v2.63c0,.47.22.69.66.69h.3v1.13h-2.15s-.08-.1-.08-.1c.07-.57.08-.86.13-1.69h-.06c-.25,1.14-1.14,1.92-2.07,1.92-1.26,0-2.13-1.04-2.13-2.91Zm2.6,1.48c.68,0,1.51-.61,1.51-1.4v-1.38c-.4-.27-.86-.36-1.38-.36-.97,0-1.44.57-1.44,1.6,0,1.09.6,1.55,1.31,1.55Z"/><path class="cls-3" d="m93.1,92.53v-2.72h-.95v-.94c.56-.29,1.22-.87,1.44-1.75h.82v1.47h2.17v1.22h-2.18v2.42c0,.6.3.85.74.85.48,0,.95-.21,1.35-.51l.53.79c-.51.71-1.22,1.1-2.17,1.1-1.24,0-1.76-.73-1.76-1.94Z"/><path class="cls-3" d="m100.34,90.58h.08c.47-1.47,1.29-2.13,2.29-2.13,1.22,0,1.69.85,1.69,1.83v2.21c0,.55.05.71.68.71h.44v1.13h-3.3v-1.13h.35c.49,0,.53-.17.53-.71v-1.31c0-.82-.38-1.26-1.12-1.26-.66,0-1.48.69-1.48,1.43v1.14c0,.55.04.71.53.71h.35v1.13h-3.3v-1.13h.44c.62,0,.68-.17.68-.71v-4.72c0-.75-.08-1.04-.86-1.04v-1.05c.81.01,1.65-.01,2.25-.07l.1.1c-.17,1.26-.25,3.55-.35,4.86Z"/><path class="cls-3" d="m106.44,91.54c0-1.95,1.27-3.09,2.8-3.09,1.4,0,2.25.96,2.25,2.31,0,.21-.03.61-.04.96h-3.78c.1.87.64,1.37,1.47,1.37.58,0,1.13-.23,1.61-.64l.58.7c-.43.58-1.07,1.31-2.33,1.31-1.66,0-2.56-1.3-2.56-2.92Zm3.91-.6c.01-.06.01-.09.01-.22,0-.58-.48-.95-1.25-.95s-1.31.31-1.46,1.17h2.69Z"/><path class="cls-3" d="m117.45,94.34v-1.2h.16c.96,0,1.11-.26,1.11-.97v-4.07c0-.71-.14-.97-1.11-.97h-.16v-1.2h4.19c1.56,0,2.6.57,2.6,1.92,0,1.11-.74,1.99-2.3,2.16v.03c1.56.05,2.64.66,2.64,2.05,0,1.64-1.26,2.25-2.93,2.25h-4.2Zm3.82-4.81c.78,0,1.6-.39,1.6-1.25,0-.68-.49-1.03-1.46-1.03h-1.35v2.27h1.21Zm.33,3.48c1.12,0,1.64-.43,1.64-1.26,0-.88-.91-1.18-1.85-1.18h-1.33v2.44h1.53Z"/><path class="cls-3" d="m125.85,91.54c0-1.95,1.27-3.09,2.8-3.09,1.4,0,2.25.96,2.25,2.31,0,.21-.03.61-.04.96h-3.78c.1.87.64,1.37,1.47,1.37.58,0,1.13-.23,1.61-.64l.58.7c-.43.58-1.07,1.31-2.33,1.31-1.66,0-2.56-1.3-2.56-2.92Zm3.91-.6c.01-.06.01-.09.01-.22,0-.58-.48-.95-1.25-.95s-1.31.31-1.46,1.17h2.69Z"/><path class="cls-3" d="m132,93.21h.44c.62,0,.68-.17.68-.71v-1.99c0-.65-.04-.82-.74-.82h-.36v-1.09l2.35-.05.05.09c-.09.81-.1,1.3-.17,1.73h.08c.17-.92.87-1.91,2.12-1.91s1.77.91,1.77,2.09v1.95c0,.55.05.71.68.71h.44v1.13h-3.3v-1.13h.35c.49,0,.53-.17.53-.71v-1.24c0-1.03-.46-1.38-1.04-1.38-.78,0-1.46.68-1.46,1.33v1.29c0,.55.04.71.53.71h.35v1.13h-3.3v-1.13Z"/><path class="cls-3" d="m140.29,91.55c0-2.38,1.56-3.11,2.54-3.11.66,0,1.26.2,1.57.51v-1.18c0-.88-.18-1.01-.82-1.01v-1.08l2.08-.08.09.1c-.04.7-.07,2.01-.07,4.19v2.63c0,.47.22.69.66.69h.3v1.13h-2.14s-.08-.1-.08-.1c.06-.57.08-.86.13-1.69h-.07c-.25,1.14-1.14,1.92-2.07,1.92-1.26,0-2.13-1.04-2.13-2.91Zm2.6,1.48c.68,0,1.51-.61,1.51-1.4v-1.38c-.4-.27-.86-.36-1.38-.36-.97,0-1.44.57-1.44,1.6,0,1.09.6,1.55,1.31,1.55Z"/></g><g><g><path class="cls-3" d="m83.07,66.65h2.08v8.71h5.56v1.92h-7.64v-10.63Z"/><path class="cls-3" d="m91.58,73.26c0-2.44,1.79-4.23,4.32-4.23s4.32,1.79,4.32,4.23-1.79,4.22-4.32,4.22-4.32-1.79-4.32-4.22Zm6.68,0c0-1.41-.94-2.42-2.36-2.42s-2.37,1.01-2.37,2.42.96,2.42,2.37,2.42,2.36-1.01,2.36-2.42Z"/><path class="cls-3" d="m101.17,73.26c0-2.44,1.79-4.23,4.32-4.23,2.18,0,3.77,1.32,4.16,3.22h-1.95c-.34-.86-1.15-1.41-2.21-1.41-1.41,0-2.37,1.01-2.37,2.42s.96,2.42,2.37,2.42c1.06,0,1.87-.55,2.21-1.41h1.95c-.39,1.9-1.98,3.22-4.16,3.22-2.54,0-4.32-1.79-4.32-4.22Z"/><path class="cls-3" d="m110.59,73.34c0-2.55,1.79-4.31,4.34-4.31s4.27,1.71,4.27,4.29v3.95h-1.77v-1.58c-.49,1.19-1.58,1.79-2.84,1.79-1.95,0-4-1.4-4-4.14Zm6.68-.08c0-1.41-.94-2.42-2.36-2.42s-2.37,1.01-2.37,2.42.96,2.42,2.37,2.42,2.36-1.01,2.36-2.42Z"/><path class="cls-3" d="m120.8,74.19v-7.78h1.93v2.84h4.14v1.75h-4.14v3.18c0,1.07.55,1.5,1.35,1.5s1.35-.41,1.35-1.5v-.21h1.93v.21c0,2.23-1.33,3.3-3.28,3.3s-3.28-1.07-3.28-3.3Z"/><path class="cls-3" d="m128.27,73.26c0-2.44,1.79-4.23,4.32-4.23s4.32,1.79,4.32,4.23-1.79,4.22-4.32,4.22-4.32-1.79-4.32-4.22Zm6.68,0c0-1.41-.94-2.42-2.36-2.42s-2.37,1.01-2.37,2.42.96,2.42,2.37,2.42,2.36-1.01,2.36-2.42Z"/><path class="cls-3" d="m138.19,72.61c0-2.42,1.43-3.58,3.53-3.58s3.51,1.15,3.51,3.61v.05h-1.92v-.08c0-1.3-.65-1.77-1.59-1.77s-1.59.47-1.59,1.77v4.66h-1.93v-4.66Z"/></g><g><path class="cls-3" d="m83.07,34.3h2.08v8.71h5.56v1.92h-7.64v-10.63Z"/><path class="cls-3" d="m91.89,34.57c0-.75.54-1.3,1.28-1.3s1.28.55,1.28,1.3-.54,1.28-1.28,1.28-1.28-.54-1.28-1.28Zm.31,2.32h1.93v8.03h-1.93v-8.03Z"/><path class="cls-3" d="m96,41.84v-7.78h1.93v2.84h4.14v1.75h-4.14v3.19c0,1.07.55,1.49,1.35,1.49s1.35-.41,1.35-1.49v-.21h1.93v.21c0,2.23-1.33,3.3-3.28,3.3s-3.28-1.07-3.28-3.3Z"/><path class="cls-3" d="m103.8,41.84v-7.78h1.93v2.84h4.14v1.75h-4.14v3.19c0,1.07.55,1.49,1.35,1.49s1.35-.41,1.35-1.49v-.21h1.93v.21c0,2.23-1.33,3.3-3.28,3.3s-3.28-1.07-3.28-3.3Z"/><path class="cls-3" d="m111.88,33.39h1.93v11.54h-1.93v-11.54Z"/><path class="cls-3" d="m115.36,40.91c0-2.44,1.79-4.23,4.32-4.23s4.29,1.79,4.29,4.23v.68h-6.58c.26,1.17,1.15,1.79,2.29,1.79.86,0,1.5-.24,1.9-.76h2.06c-.6,1.53-2.06,2.52-3.96,2.52-2.54,0-4.32-1.79-4.32-4.23Zm6.56-.86c-.31-1.07-1.19-1.61-2.24-1.61s-1.93.55-2.24,1.61h4.48Z"/></g><g><path class="cls-3" d="m83.07,50.84h2.08v8.71h5.56v1.92h-7.64v-10.63Z"/><path class="cls-3" d="m91.89,51.11c0-.75.54-1.3,1.28-1.3s1.28.55,1.28,1.3-.54,1.28-1.28,1.28-1.28-.54-1.28-1.28Zm.31,2.32h1.93v8.03h-1.93v-8.03Z"/><path class="cls-3" d="m96,57.39v-7.46h1.93v4.68c.57-.89,1.53-1.38,2.68-1.38,1.95,0,4,1.4,4,4.14,0,2.55-1.79,4.31-4.34,4.31s-4.27-1.69-4.27-4.29Zm6.66.07c0-1.41-.96-2.42-2.37-2.42s-2.36,1.01-2.36,2.42.94,2.42,2.36,2.42,2.37-1.01,2.37-2.42Z"/><path class="cls-3" d="m105.88,56.8c0-2.42,1.43-3.58,3.53-3.58s3.51,1.15,3.51,3.61v.05h-1.92v-.08c0-1.3-.65-1.77-1.59-1.77s-1.59.47-1.59,1.77v4.66h-1.93v-4.66Z"/><path class="cls-3" d="m113.63,57.53c0-2.55,1.79-4.31,4.34-4.31s4.27,1.71,4.27,4.29v3.95h-1.77v-1.58c-.49,1.19-1.58,1.79-2.84,1.79-1.95,0-4-1.4-4-4.14Zm6.68-.08c0-1.41-.94-2.42-2.36-2.42s-2.37,1.01-2.37,2.42.96,2.42,2.37,2.42,2.36-1.01,2.36-2.42Z"/><path class="cls-3" d="m123.84,56.8c0-2.42,1.43-3.58,3.53-3.58s3.51,1.15,3.51,3.61v.05h-1.92v-.08c0-1.3-.65-1.77-1.59-1.77s-1.59.47-1.59,1.77v4.66h-1.93v-4.66Z"/><path class="cls-3" d="m131.98,62.34h1.93c.33.75.96,1.09,1.93,1.09,1.32,0,2.06-.63,2.06-2.19v-1.01c-.49.88-1.33,1.35-2.39,1.35-1.85,0-3.61-1.2-3.61-4.06v-4.08h1.93v4.08c0,1.53.81,2.26,2.03,2.26s2.03-.76,2.03-2.26v-4.08h1.93v7.75c0,2.79-1.77,3.92-4,3.92-1.87,0-3.41-.86-3.87-2.76Z"/></g><g><rect class="cls-5" x="1.5" y="39.94" width="77.92" height="36.92"/><rect class="cls-4" x="1.53" y="1.5" width="77.91" height="37.93"/><g><rect class="cls-2" x="9.71" y="7.25" width="33.71" height="61.68"/><rect class="cls-2" x="52.03" y="6.34" width="15.71" height="61.56" transform="translate(-7.86 17.78) rotate(-15.86)"/><path d="m44.9,20.13c0,.39,0,.78,0,1.16,0,15.5,0,31,0,46.51,0,.33.02.66-.02.99-.09.75-.55,1.17-1.31,1.23-.27.02-.54.01-.81.01-14.46,0-18.5,0-32.95,0-.3,0-.6.01-.9-.02-.75-.07-1.19-.53-1.25-1.29-.02-.24,0-.48,0-.72,0-16.97,0-33.94-.01-50.91,0-3.39,0-6.78.02-10.16,0-.4.08-.87.3-1.18.2-.27.63-.41.98-.53.24-.08.53-.02.8-.02,14.49,0,18.56,0,33.04,0,.12,0,.24,0,.36,0,1.25.01,1.68.41,1.75,1.64,0,.15.02.29.03.52.26-.04.49-.06.7-.12,6.23-1.66,7.55-2.1,13.77-3.77.2-.05.4-.11.61-.15.84-.15,1.4.16,1.65.99.36,1.21.67,2.42,1,3.64,4.13,15.39,8.26,30.78,12.39,46.18.86,3.21,1.71,6.43,2.57,9.64.07.26.15.52.17.79.05.71-.36,1.19-1.22,1.43-1.68.46,1.55-.32-.13.13-5.33,1.43-10.65,2.85-15.98,4.27-.26.07-.53.14-.79.15-.57.03-.98-.24-1.22-.75-.11-.24-.16-.51-.23-.77-4.3-16.03-8.61-32.05-12.91-48.08-.08-.28-.16-.56-.24-.84-.05.01-.1.03-.15.04Zm-34.51-1.91v38.77h13.53V18.22h-13.53Zm31.76,38.78V18.29c-1.04-.18-14.75-.15-15.41.03v38.68h15.41Zm15.76.62c6.42-1.72,7.84-2.19,14.23-3.9-3.36-12.54-6.69-24.97-10.05-37.51-6.39,1.71-7.81,2.18-14.23,3.9,3.36,12.55,6.7,25,10.05,37.52Zm-47.56,9.66c1.35.2,12.97.14,13.58-.05v-7.41c-1.38-.19-12.95-.12-13.58.07v7.39Zm16.38-7.52v7.56h15.37c.18-1.04.14-6.9-.05-7.56h-15.32Zm20.42-42.25c6.44-1.73,7.86-2.19,14.25-3.91-.67-2.5-1.32-4.91-1.98-7.38-6.42,1.72-7.84,2.19-14.24,3.91.66,2.48,1.3,4.87,1.97,7.38Zm27.68,46.18c-.67-2.49-1.31-4.89-1.95-7.28-1.31.14-13.69,3.61-14.24,3.96.64,2.38,1.28,4.77,1.94,7.22,6.42-1.72,7.83-2.19,14.25-3.9ZM23.89,15.46c.19-1.15.14-6.92-.05-7.53h-13.42c-.18,1.19-.13,6.92.05,7.53h13.42Zm18.28-7.52h-15.43v7.47c1.11.18,14.74.13,15.43-.05v-7.42Z"/></g></g></g><rect class="cls-1" x=".45" y="80.61" width="146.11" height="2.53"/></svg>