<?xml version="1.0" encoding="UTF-8"?><svg xmlns="http://www.w3.org/2000/svg" viewBox="0 0 1048.16 537.21"><defs><style>.cls-1{fill:#fff;}.cls-2{fill:#cab898;}.cls-3{fill:#2d3024;}.cls-4{fill:#93a5ab;}.cls-4,.cls-5{stroke:#010101;stroke-miterlimit:10;stroke-width:3px;}.cls-5{fill:#50573f;}</style></defs><g id="Layer_1"><rect class="cls-3" width="1048.16" height="537.21"/><g><path class="cls-2" d="M115.57,331.34v-3.77h.49c3.2,0,3.69-.82,3.69-3.07v-15.29h-2.95c-1.35,0-2.01,.45-2.3,2.38l-.29,1.84h-3.32l.74-8.61h20.42l.74,8.61h-3.36l-.29-1.84c-.29-1.93-.9-2.38-2.3-2.38h-2.91v15.29c0,2.25,.49,3.07,3.69,3.07h.49v3.77h-12.55Z"/><path class="cls-2" d="M140.83,319.49h.25c1.48-4.63,4.06-6.72,7.22-6.72,3.85,0,5.33,2.67,5.33,5.78v6.97c0,1.72,.16,2.25,2.13,2.25h1.39v3.57h-10.41v-3.57h1.11c1.56,0,1.68-.53,1.68-2.25v-4.14c0-2.58-1.19-3.98-3.53-3.98-2.09,0-4.67,2.17-4.67,4.51v3.61c0,1.72,.12,2.25,1.68,2.25h1.11v3.57h-10.41v-3.57h1.39c1.97,0,2.13-.53,2.13-2.25v-14.88c0-2.38-.25-3.28-2.71-3.28v-3.32c2.54,.04,5.21-.04,7.09-.21l.33,.33c-.53,3.98-.78,11.19-1.11,15.33Z"/><path class="cls-2" d="M158.09,322.53c0-6.15,4.02-9.76,8.82-9.76,4.43,0,7.09,3.03,7.09,7.3,0,.66-.08,1.93-.12,3.03h-11.93c.33,2.75,2.01,4.3,4.63,4.3,1.84,0,3.57-.74,5.08-2.01l1.85,2.21c-1.35,1.85-3.36,4.14-7.34,4.14-5.25,0-8.08-4.1-8.08-9.23Zm12.34-1.89c.04-.21,.04-.29,.04-.7,0-1.84-1.52-2.99-3.94-2.99s-4.14,.98-4.59,3.69h8.49Z"/><path class="cls-2" d="M200.44,327.57h1.44v3.77h-13v-3.77h1.19c2.54,0,2.79-.29,2.79-2.25v-14.47c0-1.97-.25-2.25-2.79-2.25h-1.19v-3.77h12.71c5.95,0,9.43,2.83,9.43,8.12,0,6.15-4.76,8.32-10.41,8.32h-3.48v4.06c0,1.97,.29,2.25,3.32,2.25Zm.78-9.88c3.32,0,5.58-1.39,5.58-4.3,0-2.67-1.64-4.18-4.96-4.18h-4.71v8.49h4.1Z"/><path class="cls-2" d="M211.22,326.38c0-4.35,3.36-6.11,7.34-6.11,1.68,0,3.36,.21,4.63,.74v-.62c0-2.01-1.15-3.2-3.32-3.2-2.3,0-4.55,.66-5.66,1.27l-.29,.04c-.41-1.44-.7-2.71-.78-4.14,2.05-.9,4.47-1.6,7.46-1.6,4.59,0,6.68,2.09,6.68,6.27v6.68c0,1.52,.62,2.05,2.21,2.05h.45v3.57h-6.52l-.29-.41c.29-2.67,.29-2.95,.45-5.25h-.21c-.9,3.24-2.95,6.07-6.72,6.07-2.95,0-5.45-1.8-5.45-5.37Zm7.59,.82c2.42,0,4.39-2.09,4.39-4.18v-.12c-.86-.21-2.25-.29-3.65-.29-2.62,0-3.73,.9-3.73,2.42,0,1.23,.78,2.17,2.99,2.17Z"/><path class="cls-2" d="M239.47,334.91c3.07,0,4.43-2.09,4.63-4.43,.25-1.89,.16-2.83,.57-5.04h-.21c-1.35,3.77-3.57,6.15-6.6,6.15-3.57,0-6.81-3.03-6.81-9.1,0-7.34,4.51-9.68,8.45-9.68,3.48,0,6.31,.62,9.35,1.8v1.97c-.66,.82-.78,1.72-.78,6.93,0,3.36,.45,5.74,.45,8.12,0,5.12-3.9,7.71-8.36,7.71-2.62,0-5.78-.7-7.3-1.19l-.16-4.76h.12c3.03,1.11,4.88,1.52,6.64,1.52Zm-.25-7.71c2.05,0,4.8-1.6,4.8-4.67v-4.35c-.94-.45-2.79-.9-4.55-.9-2.25,0-4.39,1.15-4.39,5.08,0,3.28,1.93,4.84,4.14,4.84Z"/><path class="cls-2" d="M250.54,322.53c0-6.15,4.02-9.76,8.82-9.76,4.43,0,7.09,3.03,7.09,7.3,0,.66-.08,1.93-.12,3.03h-11.93c.33,2.75,2.01,4.3,4.63,4.3,1.84,0,3.57-.74,5.08-2.01l1.85,2.21c-1.35,1.85-3.36,4.14-7.34,4.14-5.25,0-8.08-4.1-8.08-9.23Zm12.34-1.89c.04-.21,.04-.29,.04-.7,0-1.84-1.52-2.99-3.94-2.99s-4.14,.98-4.59,3.69h8.49Z"/><path class="cls-2" d="M288.75,321.83v3.69c0,1.72,.16,2.25,2.13,2.25h1.39v3.57h-10.95v-3.57h1.31c1.8,0,1.97-.53,1.97-2.25v-5.33c0-2.79-.12-3.53-3.4-3.53v-3.44l7.95-.33,.25,.25c-.41,2.09-.66,5.37-.66,8.69Zm-2.3-17.79c1.8,0,3.28,1.35,3.28,3.03s-1.48,3.12-3.28,3.12-3.28-1.39-3.28-3.12,1.48-3.03,3.28-3.03Z"/><path class="cls-2" d="M301.05,327.32c1.6,0,2.58-.53,2.58-1.56,0-1.11-.9-1.35-2.42-1.89l-1.6-.57c-2.58-.82-4.39-2.5-4.39-5.08,0-3.24,2.83-5.45,6.11-5.45,2.75,0,4.1,.37,6.19,1.27,0,1.48-.25,2.95-.7,4.43h-.25c-2.05-.9-3.53-1.31-5-1.31-1.19,0-2.17,.33-2.17,1.6,0,1.02,.7,1.43,1.97,1.89l1.8,.66c3.16,1.11,4.59,2.79,4.59,5,0,3.49-3.28,5.41-6.93,5.41-2.5,0-4.14-.45-6.07-1.19,.08-1.52,.25-3.03,.7-4.51h.25c1.85,.86,3.81,1.31,5.33,1.31Z"/><path class="cls-2" d="M323.27,331.34v-3.77h.49c3.03,0,3.48-.82,3.48-3.07v-12.83c0-2.25-.45-3.07-3.48-3.07h-.49v-3.77h12.22v3.77h-.49c-3.03,0-3.48,.82-3.48,3.07v15.29h6.48c1.07,0,1.76-.21,2.17-2.91l.21-1.31h3.44l-.7,8.61h-19.84Z"/><path class="cls-2" d="M345.58,322.48c0-5.99,4.02-9.72,9.22-9.72s8.45,3.44,8.45,9.1c0,6.19-3.81,9.88-9.23,9.88-4.84,0-8.45-3.4-8.45-9.27Zm8.86,5c2.95,0,4.88-1.97,4.88-5.33,0-2.95-1.89-5.08-4.92-5.08s-4.88,1.89-4.88,5.29c0,3.12,1.89,5.12,4.92,5.12Z"/><path class="cls-2" d="M364.64,326.38c0-4.35,3.36-6.11,7.34-6.11,1.68,0,3.36,.21,4.63,.74v-.62c0-2.01-1.15-3.2-3.32-3.2-2.3,0-4.55,.66-5.66,1.27l-.29,.04c-.41-1.44-.7-2.71-.78-4.14,2.05-.9,4.47-1.6,7.46-1.6,4.59,0,6.68,2.09,6.68,6.27v6.68c0,1.52,.61,2.05,2.21,2.05h.45v3.57h-6.52l-.29-.41c.29-2.67,.29-2.95,.45-5.25h-.21c-.9,3.24-2.95,6.07-6.72,6.07-2.95,0-5.45-1.8-5.45-5.37Zm7.58,.82c2.42,0,4.39-2.09,4.39-4.18v-.12c-.86-.21-2.25-.29-3.65-.29-2.62,0-3.73,.9-3.73,2.42,0,1.23,.78,2.17,2.99,2.17Z"/><path class="cls-2" d="M384.49,322.57c0-7.5,4.92-9.8,8-9.8,2.09,0,3.98,.62,4.96,1.6v-3.73c0-2.79-.57-3.2-2.58-3.2v-3.4l6.56-.25,.29,.33c-.12,2.21-.21,6.36-.21,13.2v8.28c0,1.48,.7,2.17,2.09,2.17h.94v3.57l-6.76,.04-.25-.37c.21-1.8,.25-2.71,.41-5.33h-.2c-.78,3.61-3.61,6.07-6.52,6.07-3.98,0-6.72-3.28-6.72-9.18Zm8.2,4.67c2.13,0,4.76-1.93,4.76-4.43v-4.35c-1.27-.86-2.71-1.15-4.35-1.15-3.07,0-4.55,1.8-4.55,5.04,0,3.44,1.89,4.88,4.14,4.88Z"/><path class="cls-2" d="M413.88,321.83v3.69c0,1.72,.16,2.25,2.13,2.25h1.39v3.57h-10.95v-3.57h1.31c1.8,0,1.97-.53,1.97-2.25v-5.33c0-2.79-.12-3.53-3.4-3.53v-3.44l7.95-.33,.25,.25c-.41,2.09-.66,5.37-.66,8.69Zm-2.3-17.79c1.8,0,3.28,1.35,3.28,3.03s-1.48,3.12-3.28,3.12-3.28-1.39-3.28-3.12,1.48-3.03,3.28-3.03Z"/><path class="cls-2" d="M419.42,327.77h1.39c1.97,0,2.13-.53,2.13-2.25v-6.27c0-2.05-.12-2.58-2.34-2.58h-1.15v-3.44l7.42-.16,.16,.29c-.29,2.54-.33,4.1-.53,5.45h.25c.53-2.91,2.75-6.03,6.68-6.03s5.58,2.87,5.58,6.6v6.15c0,1.72,.16,2.25,2.13,2.25h1.39v3.57h-10.41v-3.57h1.11c1.56,0,1.68-.53,1.68-2.25v-3.89c0-3.24-1.44-4.35-3.28-4.35-2.46,0-4.59,2.13-4.59,4.18v4.06c0,1.72,.12,2.25,1.68,2.25h1.11v3.57h-10.41v-3.57Z"/><path class="cls-2" d="M451.89,334.91c3.08,0,4.43-2.09,4.63-4.43,.25-1.89,.16-2.83,.57-5.04h-.2c-1.35,3.77-3.57,6.15-6.6,6.15-3.57,0-6.81-3.03-6.81-9.1,0-7.34,4.51-9.68,8.45-9.68,3.49,0,6.31,.62,9.35,1.8v1.97c-.66,.82-.78,1.72-.78,6.93,0,3.36,.45,5.74,.45,8.12,0,5.12-3.9,7.71-8.36,7.71-2.62,0-5.78-.7-7.3-1.19l-.16-4.76h.12c3.03,1.11,4.88,1.52,6.64,1.52Zm-.25-7.71c2.05,0,4.8-1.6,4.8-4.67v-4.35c-.94-.45-2.79-.9-4.55-.9-2.25,0-4.39,1.15-4.39,5.08,0,3.28,1.93,4.84,4.14,4.84Z"/><path class="cls-2" d="M476.2,322.48c0-5.99,4.02-9.72,9.22-9.72s8.45,3.44,8.45,9.1c0,6.19-3.81,9.88-9.23,9.88-4.84,0-8.45-3.4-8.45-9.27Zm8.86,5c2.95,0,4.88-1.97,4.88-5.33,0-2.95-1.89-5.08-4.92-5.08s-4.88,1.89-4.88,5.29c0,3.12,1.89,5.12,4.92,5.12Z"/><path class="cls-2" d="M495.35,327.77h1.39c1.97,0,2.13-.53,2.13-2.25v-5.54c0-2.25-.08-3.32-3.65-3.32l.21-3.44,7.87-.33,.25,.29c-.61,2.13-.9,3.85-1.07,6.31h.21c1.39-5.45,3.94-6.72,6.23-6.72,.86,0,1.72,.21,2.42,.53-.12,1.56-.45,3.89-1.02,7.22h-1.93c.2-2.46-.9-3.12-2.01-3.12-1.89,0-3.4,2.5-3.4,4.76v3.36c0,1.72,.16,2.25,2.13,2.25h1.39v3.57h-11.15v-3.57Z"/><path class="cls-2" d="M531.84,331.34v-3.77h.49c3.03,0,3.49-.82,3.49-3.07v-3.16l-5.7-10.25c-1.15-2.05-1.48-2.5-3.53-2.5h-.78v-3.77h10.41v3.77h-.66c-1.64,0-1.76,.49-.66,2.54l3.36,6.23,3.36-6.23c1.11-2.05,.98-2.54-.66-2.54h-.66v-3.77h9.96v3.77h-.78c-2.05,0-2.38,.45-3.53,2.5l-5.9,10.25v3.16c0,2.25,.45,3.07,3.49,3.07h.49v3.77h-12.22Z"/><path class="cls-2" d="M546.81,322.48c0-5.99,4.02-9.72,9.22-9.72s8.45,3.44,8.45,9.1c0,6.19-3.81,9.88-9.23,9.88-4.84,0-8.45-3.4-8.45-9.27Zm8.86,5c2.95,0,4.88-1.97,4.88-5.33,0-2.95-1.89-5.08-4.92-5.08s-4.88,1.89-4.88,5.29c0,3.12,1.89,5.12,4.92,5.12Z"/><path class="cls-2" d="M568.37,326.01v-5.74c0-2.5,0-3.69-3.36-3.61v-3.44l8-.33,.25,.25c-.49,2.21-.74,4.96-.74,9.55,0,3.36,1.44,4.47,3.69,4.47,2.13,0,4.43-1.8,4.43-4.35v-3.16c0-2.09-.25-2.99-3.44-3.07v-3.36l8.08-.33,.25,.25c-.53,1.93-.74,5.21-.74,8.69v3.2c0,2.3,.98,2.79,3.12,2.79l.04,3.53h-7.05l-.29-.41c.25-1.93,.45-3.73,.49-5.25h-.25c-1.64,4.22-4.22,6.03-6.93,6.03-3.85,0-5.54-2.34-5.54-5.7Z"/><path class="cls-2" d="M609.86,319.49h.25c1.48-4.63,4.06-6.72,7.22-6.72,3.85,0,5.33,2.67,5.33,5.78v6.97c0,1.72,.16,2.25,2.13,2.25h1.39v3.57h-10.41v-3.57h1.11c1.56,0,1.68-.53,1.68-2.25v-4.14c0-2.58-1.19-3.98-3.53-3.98-2.09,0-4.67,2.17-4.67,4.51v3.61c0,1.72,.12,2.25,1.68,2.25h1.11v3.57h-10.41v-3.57h1.39c1.97,0,2.13-.53,2.13-2.25v-14.88c0-2.38-.25-3.28-2.71-3.28v-3.32c2.54,.04,5.21-.04,7.09-.21l.33,.33c-.53,3.98-.78,11.19-1.11,15.33Z"/><path class="cls-2" d="M627.29,326.38c0-4.35,3.36-6.11,7.34-6.11,1.68,0,3.36,.21,4.63,.74v-.62c0-2.01-1.15-3.2-3.32-3.2-2.3,0-4.55,.66-5.66,1.27l-.29,.04c-.41-1.44-.7-2.71-.78-4.14,2.05-.9,4.47-1.6,7.46-1.6,4.59,0,6.68,2.09,6.68,6.27v6.68c0,1.52,.61,2.05,2.21,2.05h.45v3.57h-6.52l-.29-.41c.29-2.67,.29-2.95,.45-5.25h-.21c-.9,3.24-2.95,6.07-6.72,6.07-2.95,0-5.45-1.8-5.45-5.37Zm7.58,.82c2.42,0,4.39-2.09,4.39-4.18v-.12c-.86-.21-2.25-.29-3.65-.29-2.62,0-3.73,.9-3.73,2.42,0,1.23,.78,2.17,2.99,2.17Z"/><path class="cls-2" d="M645.45,316.66v-3.44h9.63v3.53c-2.58,.04-2.62,.53-1.72,2.83l2.38,5.9c.33,.82,.49,.94,.9,.94,.33,0,.53-.12,.86-.94l2.46-5.9c.94-2.3,.86-2.79-1.76-2.83v-3.53h8.36v3.44c-1.56,.08-2.17,.53-3.12,2.67l-5.04,12.01h-5.04l-4.84-12.01c-.86-2.13-1.52-2.58-3.08-2.67Z"/><path class="cls-2" d="M667.22,322.53c0-6.15,4.02-9.76,8.81-9.76,4.43,0,7.09,3.03,7.09,7.3,0,.66-.08,1.93-.12,3.03h-11.93c.33,2.75,2.01,4.3,4.63,4.3,1.85,0,3.57-.74,5.08-2.01l1.85,2.21c-1.35,1.85-3.36,4.14-7.34,4.14-5.25,0-8.08-4.1-8.08-9.23Zm12.34-1.89c.04-.21,.04-.29,.04-.7,0-1.84-1.52-2.99-3.94-2.99s-4.14,.98-4.59,3.69h8.49Z"/><path class="cls-2" d="M697.89,327.77h1.39c1.97,0,2.13-.53,2.13-2.25v-6.27c0-2.05-.12-2.58-2.34-2.58h-1.15v-3.44l7.42-.16,.16,.29c-.29,2.54-.33,4.1-.53,5.45h.25c.53-2.91,2.75-6.03,6.68-6.03s5.58,2.87,5.58,6.6v6.15c0,1.72,.16,2.25,2.13,2.25h1.39v3.57h-10.41v-3.57h1.11c1.56,0,1.68-.53,1.68-2.25v-3.89c0-3.24-1.44-4.35-3.28-4.35-2.46,0-4.59,2.13-4.59,4.18v4.06c0,1.72,.12,2.25,1.68,2.25h1.11v3.57h-10.41v-3.57Z"/><path class="cls-2" d="M721.87,322.48c0-5.99,4.02-9.72,9.22-9.72s8.45,3.44,8.45,9.1c0,6.19-3.81,9.88-9.23,9.88-4.84,0-8.45-3.4-8.45-9.27Zm8.86,5c2.95,0,4.88-1.97,4.88-5.33,0-2.95-1.89-5.08-4.92-5.08s-4.88,1.89-4.88,5.29c0,3.12,1.89,5.12,4.92,5.12Z"/><path class="cls-2" d="M743.32,325.64v-8.57h-2.99v-2.95c1.76-.9,3.85-2.75,4.55-5.54h2.58v4.63h6.85v3.85h-6.89v7.63c0,1.89,.94,2.67,2.34,2.67,1.52,0,2.99-.66,4.26-1.6l1.68,2.5c-1.6,2.25-3.85,3.49-6.85,3.49-3.9,0-5.54-2.3-5.54-6.11Z"/><path class="cls-2" d="M775.05,328.68h-.21c0,.94,.12,1.93,.29,2.87l-.21,.16h-3.49v-9.27l.29-.33h3.03c.41,3.03,2.54,5.04,6.19,5.04,2.21,0,4.51-.82,4.51-3.16,0-1.89-1.6-2.99-3.81-3.77l-3.85-1.11c-3.12-.94-6.27-2.95-6.27-7.42s3.4-7.5,7.75-7.5c3.12,0,5.45,1.35,6.4,3.32h.16c0-.98-.12-2.13-.29-2.91l.16-.21h3.4v9.35l-.25,.29h-2.91c-.57-2.91-2.95-5-6.11-5-2.34,0-4.02,1.07-4.02,3.03,0,2.09,1.52,2.83,3.9,3.57l2.67,.78c4.76,1.39,7.3,3.81,7.3,7.79,0,4.88-3.61,7.75-7.95,7.75-3.57,0-5.9-1.64-6.68-3.28Z"/><path class="cls-2" d="M798.87,321.83v3.69c0,1.72,.16,2.25,2.13,2.25h1.39v3.57h-10.95v-3.57h1.31c1.8,0,1.97-.53,1.97-2.25v-5.33c0-2.79-.12-3.53-3.4-3.53v-3.44l7.95-.33,.25,.25c-.41,2.09-.66,5.37-.66,8.69Zm-2.3-17.79c1.8,0,3.28,1.35,3.28,3.03s-1.48,3.12-3.28,3.12-3.28-1.39-3.28-3.12,1.48-3.03,3.28-3.03Z"/><path class="cls-2" d="M811.83,334.91c3.08,0,4.43-2.09,4.63-4.43,.25-1.89,.16-2.83,.57-5.04h-.2c-1.35,3.77-3.57,6.15-6.6,6.15-3.57,0-6.81-3.03-6.81-9.1,0-7.34,4.51-9.68,8.45-9.68,3.49,0,6.31,.62,9.35,1.8v1.97c-.66,.82-.78,1.72-.78,6.93,0,3.36,.45,5.74,.45,8.12,0,5.12-3.9,7.71-8.36,7.71-2.62,0-5.78-.7-7.3-1.19l-.16-4.76h.12c3.03,1.11,4.88,1.52,6.64,1.52Zm-.25-7.71c2.05,0,4.8-1.6,4.8-4.67v-4.35c-.94-.45-2.79-.9-4.55-.9-2.25,0-4.39,1.15-4.39,5.08,0,3.28,1.93,4.84,4.14,4.84Z"/><path class="cls-2" d="M823.22,327.77h1.39c1.97,0,2.13-.53,2.13-2.25v-6.27c0-2.05-.12-2.58-2.34-2.58h-1.15v-3.44l7.42-.16,.16,.29c-.29,2.54-.33,4.1-.53,5.45h.25c.53-2.91,2.75-6.03,6.68-6.03s5.58,2.87,5.58,6.6v6.15c0,1.72,.16,2.25,2.13,2.25h1.39v3.57h-10.41v-3.57h1.11c1.56,0,1.68-.53,1.68-2.25v-3.89c0-3.24-1.44-4.35-3.28-4.35-2.46,0-4.59,2.13-4.59,4.18v4.06c0,1.72,.12,2.25,1.68,2.25h1.11v3.57h-10.41v-3.57Z"/><path class="cls-2" d="M847.29,322.53c0-6.15,4.02-9.76,8.81-9.76,4.43,0,7.09,3.03,7.09,7.3,0,.66-.08,1.93-.12,3.03h-11.93c.33,2.75,2.01,4.3,4.63,4.3,1.85,0,3.57-.74,5.08-2.01l1.85,2.21c-1.35,1.85-3.36,4.14-7.34,4.14-5.25,0-8.08-4.1-8.08-9.23Zm12.34-1.89c.04-.21,.04-.29,.04-.7,0-1.84-1.52-2.99-3.94-2.99s-4.14,.98-4.59,3.69h8.49Z"/><path class="cls-2" d="M865,322.57c0-7.5,4.92-9.8,8-9.8,2.09,0,3.98,.62,4.96,1.6v-3.73c0-2.79-.57-3.2-2.58-3.2v-3.4l6.56-.25,.29,.33c-.12,2.21-.21,6.36-.21,13.2v8.28c0,1.48,.7,2.17,2.09,2.17h.94v3.57l-6.76,.04-.25-.37c.21-1.8,.25-2.71,.41-5.33h-.21c-.78,3.61-3.61,6.07-6.52,6.07-3.98,0-6.72-3.28-6.72-9.18Zm8.2,4.67c2.13,0,4.76-1.93,4.76-4.43v-4.35c-1.27-.86-2.71-1.15-4.35-1.15-3.07,0-4.55,1.8-4.55,5.04,0,3.44,1.89,4.88,4.14,4.88Z"/><path class="cls-2" d="M900.1,331.34v-3.77h.49c3.03,0,3.49-.82,3.49-3.07v-12.83c0-2.25-.45-3.07-3.49-3.07h-.49v-3.77h12.18v3.77h-.49c-3.03,0-3.49,.82-3.49,3.07v12.83c0,2.25,.45,3.07,3.49,3.07h.49v3.77h-12.18Z"/><path class="cls-2" d="M914.45,327.77h1.39c1.97,0,2.13-.53,2.13-2.25v-6.27c0-2.05-.12-2.58-2.34-2.58h-1.15v-3.44l7.42-.16,.16,.29c-.29,2.54-.33,4.1-.53,5.45h.25c.53-2.91,2.75-6.03,6.68-6.03s5.58,2.87,5.58,6.6v6.15c0,1.72,.16,2.25,2.13,2.25h1.39v3.57h-10.41v-3.57h1.11c1.56,0,1.68-.53,1.68-2.25v-3.89c0-3.24-1.44-4.35-3.28-4.35-2.46,0-4.59,2.13-4.59,4.18v4.06c0,1.72,.12,2.25,1.68,2.25h1.11v3.57h-10.41v-3.57Z"/></g></g><g id="Layer_3"><g><rect class="cls-5" x="436.51" y="437.16" width="175.32" height="83.07"/><rect class="cls-4" x="436.58" y="350.66" width="175.3" height="85.34"/><g><rect class="cls-1" x="454.99" y="363.59" width="75.86" height="138.78"/><rect class="cls-1" x="550.21" y="361.54" width="35.34" height="138.51" transform="translate(-96.11 171.59) rotate(-15.86)"/><path d="M534.15,392.58c0,.87,0,1.75,0,2.62,0,34.88,0,69.76-.02,104.64,0,.74,.04,1.49-.05,2.22-.21,1.69-1.23,2.63-2.95,2.77-.6,.05-1.21,.02-1.82,.02-32.53,0-41.61,0-74.14,0-.67,0-1.35,.03-2.02-.03-1.68-.16-2.67-1.19-2.81-2.89-.04-.54-.01-1.08-.01-1.62,0-38.18-.02-76.37-.02-114.55,0-7.62,0-15.25,.05-22.87,0-.9,.17-1.95,.67-2.65,.44-.62,1.41-.93,2.21-1.19,.55-.18,1.2-.05,1.81-.05,32.6,0,41.75,0,74.35,0,.27,0,.54,0,.81,0,2.81,.03,3.77,.93,3.94,3.69,.02,.33,.04,.66,.07,1.17,.59-.1,1.1-.14,1.58-.27,14.01-3.74,16.98-4.73,30.98-8.47,.46-.12,.91-.26,1.37-.34,1.88-.35,3.15,.36,3.7,2.23,.81,2.71,1.51,5.46,2.25,8.19,9.29,34.63,18.58,69.26,27.87,103.89,1.94,7.23,3.86,14.46,5.78,21.69,.16,.59,.34,1.18,.39,1.77,.12,1.6-.81,2.69-2.74,3.22-3.77,1.03,3.48-.73-.3,.28-11.98,3.21-23.97,6.42-35.96,9.61-.58,.16-1.18,.31-1.78,.34-1.28,.07-2.21-.55-2.74-1.7-.25-.54-.37-1.15-.53-1.74-9.68-36.06-19.37-72.12-29.05-108.17-.17-.63-.36-1.26-.54-1.89-.12,.03-.23,.06-.35,.09Zm-77.64-4.29v87.24h30.44v-87.24h-30.44Zm71.45,87.25v-87.1c-2.34-.41-33.19-.33-34.68,.07v87.02h34.68Zm35.47,1.4c14.45-3.87,17.64-4.93,32.02-8.78-7.56-28.22-15.06-56.18-22.62-84.41-14.39,3.85-17.57,4.9-32.02,8.77,7.57,28.23,15.07,56.25,22.62,84.42Zm-107.02,21.74c3.04,.46,29.19,.31,30.55-.12v-16.67c-3.1-.42-29.13-.27-30.55,.16v16.63Zm36.86-16.92v17.01h34.59c.41-2.34,.32-15.52-.12-17.01h-34.47Zm45.94-95.07c14.49-3.88,17.68-4.94,32.07-8.79-1.51-5.63-2.97-11.06-4.46-16.61-14.45,3.87-17.64,4.93-32.05,8.79,1.49,5.58,2.93,10.95,4.44,16.61Zm62.27,103.91c-1.5-5.6-2.96-11.01-4.4-16.38-2.94,.32-30.79,8.12-32.03,8.92,1.44,5.35,2.89,10.72,4.37,16.25,14.44-3.87,17.62-4.92,32.05-8.78Zm-114.61-108.53c.43-2.58,.32-15.58-.11-16.93h-30.2c-.41,2.67-.3,15.56,.12,16.93h30.2Zm41.14-16.91h-34.73v16.82c2.49,.4,33.16,.3,34.73-.11v-16.7Z"/></g></g></g><g id="Layer_2"><path d="M285.82,260.81c1.69,.43,3.38,.85,5.12,1.29-.99-1.32-2.05-2.33-3.92-2.46-3.56-.24-7.02,.12-10.44,1.06-.43,.12-.85,.25-1.31,.29,2.03-1.44,4.22-2.56,6.82-3.34-.51-.33-.87-.57-1.22-.8-1.83-1.2-3.28-2.74-4.17-4.72-1.53-3.41-.48-6.84,2.97-9.13-.36,.66-.61,1.1-.85,1.55-1.69,3.18-1.03,5.71,2.03,7.72,1.58,1.04,3.33,1.72,5.26,2.12-.3-.24-.59-.5-.9-.73-.32-.24-.64-.48-.98-.7-2.28-1.52-2.22-3.87-1.69-5.48,.31-.95,.75-1.41,1.99-2.13-.24,.44-.38,.72-.54,.99-.57,.96-.56,1.92,.03,2.86,.28,.44,.58,.91,.98,1.25,1.65,1.4,3.34,2.75,5.25,3.98-.2-.69-.39-1.39-.6-2.11,.24-.01,.44-.02,.87-.04-.75-.43-1.31-.75-1.93-1.1,1.2-.25,2.17-.02,3.23,.81,1.35,1.06,2.42,2.34,3.1,3.92,.57,1.34,.6,1.33,1.82,1.95-.66-1.66-1.49-2.97-2.42-4.22-.92-1.23-1.92-2.4-2.96-3.71,1.17-.19,1.99,.45,3.22,.79-1.36-2.27-2.86-4.06-4.67-5.62-1.81-1.56-3.87-2.68-6.39-3.44,2.08-.27,4.86,.6,7.2,2.13,2.09,1.37,3.72,3.16,5.26,5.21,.03-1.18,.03-2.36,.1-3.54,.07-1.17,.21-2.34,.29-3.16,.31,1.95,.62,4.24,1.06,6.5,.21,1.06,.68,2.08,1.01,3.12,.15,.46,.41,.64,.96,.49-.28-1.18-.56-2.31-.8-3.46-.44-2.07-.54-4.17-.37-6.27,.07-.85-.17-1.51-.66-2.18-1.49-2.04-2.98-4.07-4.38-6.16-1.46-2.17-2.62-4.49-3.15-7.06-.72-3.47-.09-6.69,1.92-9.65,1.46-2.15,3.34-3.9,5.42-5.46,.09-.07,.22-.08,.46,.03-.71,.7-1.42,1.41-2.14,2.11-.92,.9-1.9,1.75-2.77,2.69-1.68,1.83-2.25,4-1.52,6.35,.46,1.49,1.1,2.97,1.87,4.33,1,1.76,2.19,3.42,3.35,5.08,1.73,2.49,3.51,4.95,5.25,7.39,.36-1.7-.79-6.13-3.32-12.67,1.48,1.13,2.31,3.07,4.21,9.59-.06-5.15-.74-10.27-1.29-15.63,.78,.69,1.04,1.4,1.2,2.09,.45,1.96,.85,3.93,1.22,5.91,.5,2.67,.96,5.34,1.44,8.01,.04,.2,.15,.4,.31,.59,.11-7.93,1.55-15.64,3.86-23.22-.96,6.54-1.89,13.07-1.59,19.77,1.2-2.7,2.39-5.41,3.59-8.11,.09,.03,.18,.06,.27,.08-3.18,8.72-4.84,17.71-5.23,26.95,.12-.46,.24-.91,.34-1.37,.1-.47,.19-.94,.27-1.42,.46-3.07,.84-6.16,1.38-9.22,.49-2.75,1.56-5.3,3.35-7.52,.54-.67,1.18-1.27,1.78-1.91,.07,.05,.14,.1,.21,.15-.19,.27-.37,.53-.56,.8-1.73,2.53-2.72,5.31-3.05,8.32-.32,2.86-.66,5.73-.98,8.59,.27-.17,.62-.39,1.13-.7-.71,3.86-2.52,7.29-2.78,11.3,.31-.27,.48-.37,.58-.51,2.25-3.23,3.56-6.73,3.59-10.68,.01-1.86,.38-3.72,.67-5.6,.51,2.12,.58,4.3,.93,6.49,.09-.22,.2-.44,.27-.67,.58-1.93,1.07-3.89,1.75-5.79,.4-1.12,.46-2.21,.32-3.35-.14-1.21-.28-2.43-.19-3.73,.19,.44,.48,.86,.57,1.32,.39,2.02,.8,4.04,1.06,6.07,.59,4.56,1.08,9.12,1.64,13.68,.13,1.07,.39,2.13,.72,3.17,.03-7.76-.89-15.44-1.99-23.11,3.12,11.83,4.82,23.83,4.77,36.08,.1-.56,.23-1.11,.3-1.68,.56-4.72,.14-9.44-.13-14.16-.14-2.4-.24-4.8-.26-7.21,.95,2.13,1.13,4.45,1.97,6.61-.19-1.47-.38-2.94-.58-4.42-.2-1.43-.45-2.85-.61-4.29-.31-2.94,.6-5.59,2.18-8.09-.18,1.82-.46,3.63-.51,5.46-.05,1.92,.04,3.85,.21,5.77,.16,1.87,.44,3.74,.75,5.59,.31,1.85,.71,3.68,1.18,5.52,1.31-10.05,1.15-20.08-.6-30.08,1.11,2.13,1.61,4.46,2.48,6.7,.11-4.38,.78-8.56,3.97-11.99-.71,1.93-1.65,3.82-2.07,5.81-.44,2.08-.47,4.26-.5,6.39-.03,2.09,.12,4.19,.74,6.24,.28-2.97,.51-5.93,1.69-8.74-.92,4.36-1.02,8.74-.15,13.13,.18-3.13,.36-6.26,.54-9.39,.08,0,.16,0,.24,0,.33,3.17,.65,6.33,.98,9.5,.05,0,.1,.02,.15,.03,.08-.65,.15-1.31,.24-1.96,.37-2.55,.63-5.13,1.17-7.65,.27-1.3,.99-2.52,1.6-3.73,.24-.49,.73-.86,1.22-1.41,.05,.28,.11,.4,.07,.47-1.37,2.37-1.98,4.98-2.34,7.63-.58,4.26-.75,8.54-.67,12.84,0,.29,.05,.58,.11,1.19,1.62-2.8,2.54-5.5,2.65-8.4,.11-2.83,.02-5.67,.09-8.52,.73,1.89,.85,3.9,1.27,5.85,1.35-5.49,.05-10.81-1.06-16.2,1.36,1.16,2.18,3.61,3.21,9.06,.12-.62,.24-1.23,.35-1.85,.1-.6,.19-1.21,.38-1.82,.47,2.99,.52,6.02,.79,9.06,.92-3.41,2.06-6.7,4.98-9.1-2.91,6.26-3.46,12.85-2.9,19.61,.15-1.01,.27-2.03,.47-3.04,.52-2.62,.98-5.25,1.65-7.83,.6-2.3,1.75-4.4,3.1-6.39,.22-.32,.47-.62,.91-.84-.29,.76-.57,1.52-.87,2.27-.45,1.1-1,2.16-1.37,3.28-.81,2.46-1.15,4.93-.06,7.43,.25,.58,.23,1.27,.34,1.97,1.16-1.46,2.39-7.56,2.89-12.4,.45-4.3-.78-8.38-1.36-12.55,1.39,1.78,1.56,3.94,2.23,6.16,.45-1.12,.84-2.09,1.23-3.06,.08,.03,.16,.05,.24,.08-.08,.47-.15,.93-.23,1.4-.35,2-.32,3.99-.02,6.01,.63,4.19,.44,8.37-.17,12.55-.09,.65-.19,1.29-.12,2,.72-1.67,1.44-3.34,2.28-5.28,.08,.53,.11,.78,.15,1.03,.07,.03,.14,.06,.21,.09,.22-.39,.49-.75,.66-1.16,.48-1.14,.33-2.33,.11-3.49-.44-2.28-.95-4.54-1.36-6.83-.38-2.13-.4-4.27,.41-6.34,.06-.16,.14-.32,.23-.47,.04-.06,.13-.08,.21-.13,.04,.07,.11,.13,.11,.2-.31,3.17,.31,6.28,.57,9.42,.15,1.87,.13,3.75,.19,5.63,0,.15,.04,.3,.17,.47,.62-1.66,1.6-3.2,1.48-5.06-.11-1.62-.25-3.23-.34-4.84-.15-2.55,.04-5.07,.6-7.57,.04-.16,.1-.31,.16-.52,.4,2.29,.78,4.5,1.17,6.71,.85-2.96,1.55-5.88,2.9-8.63-.6,2.64-1.27,5.26-1.3,8.02,1.31-2.77,2.59-5.55,3.92-8.31,1.32-2.71,2.69-5.39,4.04-8.09,.08,.03,.16,.06,.25,.09l-5.23,15.65c.09,.04,.18,.08,.27,.12,.19-.33,.4-.65,.57-.99,.82-1.56,1.58-3.15,2.47-4.67,1.33-2.25,3.22-3.35,6.07-3.6-.75,.46-1.42,.8-2,1.25-1.92,1.46-3.39,3.29-4.3,5.48-.57,1.37-1.06,2.8-1.38,4.24-.57,2.62-1.7,4.86-3.96,6.51-1.04,.76-.89,1.99-1.17,3.06,1.26-1.4,2.14-3.06,3.67-4.23-3.73,5.5-5.41,11.69-6.76,17.99,.09,.03,.17,.07,.26,.1,.19-.43,.37-.86,.57-1.29,.96-2.12,1.91-4.25,2.89-6.36,.22-.48,.53-.92,.82-1.36,.96-1.45,2.28-2.69,2.74-4.45v.88c1.5-.59,1.74-.83,1.75-2.19,.03-2.71,0-5.42,.11-8.14,.8,2.94,.96,5.95,.99,8.96,.03,3.01-.15,6.02-.17,9.04,1.88-5.28,2.32-10.78,2.43-16.42,1,1.28,1.05,1.68,1.64,10.38,1.73-3.28,1.8-6.77,1.29-10.34,.98,2.54,.77,5.14,.58,7.78,1.04-1.47,1.81-3.12,3.44-4.16-.63,.96-1.33,1.88-1.87,2.88-.58,1.08-1,2.24-1.47,3.38-.45,1.09-.86,2.19-1.11,3.37,.84-1.38,1.68-2.76,2.52-4.14,.09,.04,.18,.08,.27,.11-.78,5.52-2.3,10.91-3.03,16.47,.14-.21,.31-.41,.41-.63,.94-1.94,1.84-3.9,2.82-5.82,1.39-2.73,1.56-5.62,1.28-8.58-.05-.52-.1-1.05-.14-1.57,0-.11,.04-.23,.25-.36,.22,1.3,.45,2.6,.72,4.19,1.57-6.18,.77-11.95-.86-17.69,2.08,3.87,3.4,7.92,3.36,12.35,.1-.63,.26-1.26,.29-1.89,.12-3.15,.2-6.3,.3-9.45,0-.22,.02-.45-.04-.65-.86-3.15-.35-6.25,.25-9.36,.9-4.73,1.69-9.48,2.63-14.2,1.62-8.13,4.02-16.06,6.48-23.97,.84-2.72,1.58-5.47,2.39-8.2,.38-1.29,.33-2.57,.18-3.89-.24-2.17-.39-4.35-.53-6.53-.11-1.57-.19-3.14-.78-4.62-2.24,.42-3.64,1.94-4.17,4.45-.47,2.22,.36,4.09,1.82,5.87-1.41,.56-2.5,.14-3.48-.62-1.52-1.18-2.51-2.73-3.14-4.51-.14-.41-.25-.83-.39-1.31-.27,.11-.52,.18-.75,.3-3.54,1.89-7.14,1.57-10.67,.07-2.08-.89-2.59-2.6-1.57-4.44,.14,.12,.28,.22,.39,.35,1.34,1.58,3.47,1.41,4.94,.17,1.39-1.17,1.78-2.69,1.44-4.4-.43-2.11-1.51-3.91-2.9-5.64-2.36,.98-4.6,.73-6.71-.58-1.73-1.08-2.97-2.55-3.42-4.54-.6-2.66,1.71-6.62,4.32-7.17-.32,.37-.57,.64-.8,.93-.73,.89-1.1,1.9-1.03,3.05,.09,1.47,1.04,2.43,2.54,2.6,1.53,.17,2.85-.27,3.97-1.28,2.29-2.07,3.13-5.63,1.95-8.44-.37-.89-.85-1.74-1.26-2.62-1.52-3.24-1.12-5.11,1.61-7.46,.51-.44,1.03-.86,1.53-1.3,.33-.3,.66-.6,.95-.93,1.7-1.94,1.63-3.36-.21-5.16-.85-.84-1.77-1.65-2.46-2.61-2.56-3.56-3.08-7.34-.81-11.22,1.02-1.75,1.43-3.57,1.19-5.54-.05-.43-.1-.87-.14-1.31-.34-3.66,1.49-6.4,5.1-7.53,.97-.3,2.01-.42,3.06-.52-1.05,.34-1.87,.9-2.3,1.91-.42,.98-.38,1.97,0,2.95,.6,1.55,1.62,2.73,3.28,3.27,2.06,.66,3.95-.25,4.35-2.31,.27-1.39,.17-2.87,.09-4.3-.06-1.13-.31-2.25-.55-3.37-.34-1.58-.06-3.06,.79-4.41,.61-.97,1.26-1.92,1.97-2.83,1.67-2.12,2.14-4.47,1.61-7.07-.25-1.24-.43-2.5-.58-3.76-.09-.78-.11-1.57-.08-2.36,.09-2.22,1.28-3.77,3.29-4.85-.25-.9-.54-1.76-.72-2.65-.14-.68-.25-1.39-.22-2.07,.08-1.64,1.15-2.6,2.87-2.76-.31,.38-.77,.75-.96,1.23-.37,.94,.13,1.87,1.18,2.36,1.58,.74,3.13,.68,4.66-.17,1.25-.7,2.2-1.7,2.86-2.91,.78-1.43,1.46-2.91,2.12-4.39,.7-1.57,1.29-3.17,1.98-4.74,.8-1.8,1.97-3.33,3.62-4.5,1.55-1.09,2.63-2.44,2.89-4.4,.17-1.32,.94-2.48,1.94-3.39,.95-.87,1.96-1.68,3.04-2.38,1.19-.78,2.47-1.44,3.74-2.11,2.24-1.17,4.3-2.56,5.99-4.43,1.92-2.13,4.38-2.99,7.25-2.86,5.9,.27,11.51,1.66,16.7,4.4,2.93,1.55,5.76,3.27,8.61,4.96,2.81,1.66,5.1,3.88,7.11,6.39,1.3,1.62,2.68,3.19,4.01,4.79,.48,.58,1,1.14,1.4,1.77,3.37,5.32,6.29,10.82,7.19,17.12,.73,5.11,.45,10.12-1.46,14.99-.26,.68-.61,1.25-1.22,1.68-1.17,.82-2.3,1.69-3.48,2.5-1.86,1.28-3.89,2.18-6.19,2.5-1.56,.22-3.07,.66-4.47,1.44-.74,.42-1.29,.92-1.6,1.69-.71,1.83-1.11,3.69-.75,5.65,.09,.52,.18,1.04,.22,1.56,.11,1.42-.76,2.94-2.79,2.73-.58-.06-1.18-.07-1.74-.21-.71-.18-1.2,.07-1.7,.51-1.14,1-1.74,2.28-1.76,3.72-.02,1.74,.02,3.51,.31,5.22,.5,2.98,1.41,5.88,2.72,8.63,.6,1.26,1.35,2.48,2.2,3.6,1.27,1.68,2.96,2.81,5.21,2.97-.79,.85-1.69,1.04-4.14,.84,.63,1.9,1.04,3.82,2.11,5.49,.64,.99,1.75,1.34,2.96,1.26,.86-.05,1.31-.49,1.41-1.32,.04-.34,0-.7-.07-1.04-.05-.29-.19-.57-.36-1.06,.9,.59,1.4,1.25,1.6,2.03,.21,.84,.38,1.74,.29,2.58-.5,4.56-4.18,5.74-8.11,4.26,.19,3.19-.13,6.15-3.77,7.64-.64-1.72-1.24-3.35-1.86-5-.17,.1-.28,.12-.29,.17-.51,2.3-.52,4.61,.15,6.88,.41,1.38,1.38,2.33,2.85,2.82q-.85,.43-3.76-.7c.05,.38,.05,.71,.14,1.01,1.15,3.68,2.33,7.36,3.47,11.04,.31,1,.49,2.04,.8,3.04,.28,.92,.69,1.79,.95,2.71,.25,.87,.47,1.77,.53,2.67,.1,1.61,.36,2.05,1.94,2.59,2.15,.73,4.39,.92,6.65,1.1,3.23,.27,6.48,.51,9.67,1.06,2.25,.38,4.44,1.17,6.59,1.93,1.33,.47,2.47,.4,3.75-.17,12.1-5.37,24.22-10.7,36.33-16.04,.49-.22,.99-.41,1.62-.66,.37,.49,.75,.96,1.08,1.46,2.66,4.12,5.3,8.24,7.96,12.36,.31,.47,.67,.91,1.07,1.45,2.56-.97,5.06-1.93,7.67-2.92,.5,1.55,.95,2.95,1.43,4.41,.44-.13,.77-.24,1.11-.34,.77-.21,1.1-.04,1.24,.72,.07,.38,.06,.78,.05,1.18-.06,1.79-.13,3.58-.21,5.51,1.51,.59,3.04,1.21,4.59,1.77,.68,.24,1.26-.06,1.77-.83,1.35-2.02,2.69-4.05,4-6.09,1.27-1.97,2.49-3.96,3.74-5.93,.28-.44,.6-.87,.97-1.4,.57,.21,1.11,.39,1.63,.61,11.62,5.12,23.25,10.22,34.86,15.38,1.15,.51,2.19,.64,3.37,.18,5.09-1.97,10.41-2.77,15.87-2.94,1.47-.05,2.94-.28,4.44-.44,.22-1.7,.75-3.09,1.81-4.31,.3-.34,.24-1.09,.15-1.62-.31-1.81-.65-3.62-1.09-5.41-.55-2.28-.43-4.51,.18-6.75,.11-.41,.19-.83,.34-1.5-.58,.21-.93,.32-1.27,.47-1.19,.53-2.35,1.12-3.56,1.58-2.24,.85-4.3,.59-6.17-1.01-.94-.8-2.06-1.41-3.1-2.1-.18-.12-.39-.26-.6-.29-1.24-.21-2.37-.53-2.88-1.84-.06-.16-.45-.26-.7-.29-.96-.11-1.67-.6-2.31-1.26-.25-.25-.52-.49-.79-.71-1.12-.9-2.32-1.29-3.75-.7-.49,.2-1.04,.27-1.58,.36-1.29,.22-1.84-.1-2.16-1.36-.23-.89-.32-1.81-.48-2.71-.08-.47-.17-.95-.24-1.42-.34-2.34-1.49-4.18-3.52-5.51-1.29-.84-2.24-1.99-3.18-3.19-1.33-1.7-2.84-3.27-4.28-4.89-1-1.12-2-2.24-3.02-3.35-.19-.21-.43-.37-.82-.7-.24,1.72,.17,3.15,.32,4.6,.14,1.43,.47,2.8,1.35,4.13-.8,.13-1.24-.25-1.55-.6-.88-.99-1.8-1.97-2.48-3.09-.89-1.45-1.56-3.03-2.44-4.77-.5,2.38-.42,4.67-.83,6.97-.21-.11-.4-.15-.42-.23-.63-2.5-1.36-4.99-1.83-7.52-.43-2.33-.4-4.71-.07-7.07,.2-1.45,.63-2.82,1.39-4.09,.26-.44,.48-.89,.51-1.46-.78,1.11-1.57,2.23-2.35,3.34-.11-.05-.22-.09-.33-.14,0-2.4,.72-4.71,1.32-7.13-1.11,.51-.84,2.02-2.13,2.22-.52-.49-.35-1.09-.23-1.61,.86-3.8,1.67-7.61,2.66-11.38,1.19-4.49,3.59-8.27,7.41-11.16,1.63-1.23,3.13-2.62,4.85-4.07-1.5-.22-2.22,.91-3.22,1.22-.08-.11-.14-.16-.13-.18,.59-.92,1.09-1.91,1.78-2.75,2.76-3.29,6.32-5.43,10.51-6.58,1.54-.42,3.13-.33,4.7-.08,.43,.07,.87,.12,1.46-.03-.76-.92-1.52-1.84-2.41-2.93,2.23-.45,3.88,.35,5.54,1.39,1.61-.99,2.57-2.8,4.6-3.5,.06,1.39-.98,2.4-1.05,3.57,1.43,0,2.77,.01,4.11,0,2.4-.03,4.78,.06,7.12,.68,3.29,.86,5.83,2.89,8.3,5.02,1.26,1.09,2.24,2.38,3.03,3.83,.49,.91,1.15,1.73,1.83,2.75-.33-.06-.55-.04-.68-.13-.25-.18-.48-.4-.68-.63-1.66-1.98-3.96-2.6-6.46-2.96,.07,.14,.08,.25,.14,.28,3.11,1.6,5.57,4.01,8.19,6.21,2.1,1.77,3.76,3.89,5.02,6.3,1,1.91,1.95,3.85,2.93,5.76,.45,.88,.95,1.73,1.54,2.82-1.79-.38-2.65-1.7-4.05-2.55,.82,1.81,1.57,3.43,2.3,5.06,1.23,2.77,2.46,5.56,2.94,8.56,.25,1.55,.46,3.13,.42,4.69-.13,5.57,2.61,9.28,7.72,11.52,.29,.13,.58,.26,.87,.35,6.27,2.05,11.5,5.75,16.55,9.77,7.11,5.66,12.37,12.68,16.43,20.61,4.67,9.14,8.1,18.68,9.99,28.74,2.19,11.7,1.64,23.25-1.82,34.67-.27,.88-.27,1.61,.19,2.47,1.2,2.29,1.52,4.83,1.82,7.36,.17,1.47,.28,2.95,.66,4.45,.33-3.11,.67-6.23,1-9.34,.06,0,.13,0,.19,0,.18,3.18,.37,6.36,.55,9.55,.63-2,.67-4.03,.59-6.05-.08-2.04-.3-4.08-.41-6.13,.9,2.54,1.12,5.19,1.34,7.86,.8-3.1,.75-6.24,.73-9.41-.02-3.24-1.43-6.09-2.67-9.17,2.23,1.34,3.59,5.55,4.06,12.31,.83-2.5,1.57-4.75,2.31-7.01,.05,.01,.11,.03,.16,.04-.39,3.29-.91,6.57-1.14,9.87-.24,3.4-.3,6.82-.25,10.23,.05,3.36,.25,6.72,.83,10.05,1.59-7.39,3.02-14.78,1.63-22.39,1.54,2.4,2.45,4.98,2.16,7.81-.26,2.61-.7,5.2-1.05,7.8-.05,.39-.07,.78,.03,1.19,.49-2.08,.99-4.16,1.48-6.24,.08,0,.16,0,.24-.01,.03,.3,.11,.6,.09,.89-.15,3.15-.29,6.29-.48,9.44-.22,3.72-.32,7.43,.12,11.14,.02,.2,.07,.4,.23,.6,.1-12.44,1.8-24.66,5.08-36.68-1.97,11.59-2.89,23.25-2.17,35.01,.78-4.39,1.56-8.79,2.34-13.18,.06,0,.12,0,.18,.01v5.89c.06,0,.12,0,.18,.01,.15-.94,.3-1.87,.5-3.1,.34,1.69,.59,3.11,.92,4.51,.32,1.38,.78,2.73,1.42,4,.09-.02,.18-.05,.27-.07-.88-6.23-1.76-12.46-2.64-18.69,.05-.02,.1-.03,.15-.05,.75,2.48,1.5,4.95,2.25,7.43,.17-5.6-1.72-10.88-2.33-16.36,1.26,2.56,1.92,5.3,2.92,8.01,.22-2.11,.43-4.21,.65-6.32h.26c.04,.36,.08,.72,.11,1.07,.25,2.56,.4,5.13,.77,7.68,.41,2.82,1.69,5.34,3.36,7.66,.07,.1,.19,.16,.51,.43-.09-.76-.08-1.3-.22-1.81-.61-2.24-1.26-4.47-1.88-6.7-.24-.87-.47-1.75-.77-2.88,.56,.36,.88,.56,1.36,.87-.17-.92-.35-1.69-.44-2.48-.28-2.21-.51-4.43-.78-6.65-.41-3.38-1.67-6.43-4.11-9.33,.47,.32,.7,.46,.91,.63,.24,.2,.47,.41,.68,.63,2.41,2.46,3.73,5.46,4.34,8.74,.46,2.49,.72,5.02,1.11,7.53,.23,1.46,.52,2.92,.84,4.37,.3-1.74-.58-8.75-1.44-13.26-.85-4.42-2.03-8.76-3.39-13.06,1.72,3.06,3.04,6.27,4.19,9.55,1.16,3.3,2.17,6.65,3.4,10.01,.06-.5,.14-1,.19-1.5,.39-3.7,.67-7.41,1.63-11.03,.54-2.04,1.31-4,2.48-5.79,.25-.38,.54-.74,.91-1.07-3.57,7.98-4.41,16.3-3.75,25.02,2.61-3.75,3.7-7.72,3.7-12.02,.76,3.28,.53,6.52-.22,9.75-.11,.47-.28,.93-.36,1.4-.07,.37-.4,.75,.16,1.12,.18,.12,0,.73-.02,1.12-.08,2.04-.16,4.08-.25,6.11,.12,.02,.25,.03,.37,.05l2.15-9.36c.1,0,.2,.01,.3,.02,1.34,4.19,1.01,8.47,.61,12.77,1.41-4.65,2.07-9.44,2.83-14.21-.37,4.9-.75,9.79-1.12,14.69,.11,.02,.22,.05,.33,.07,1.2-2.12,2.88-4.02,2.58-6.75-.33-2.96-.55-5.92-.82-8.89-.22-2.45-.24-4.9,.41-7.3,.59-2.18,1.75-4,3.75-5.3-.21,.3-.42,.6-.62,.91-1.77,2.75-2.37,5.64-1.09,8.75,.62,1.5,1.19,3.01,1.98,4.55,.2-.93,.42-1.85,.59-2.78,.17-.95,.33-1.9,.44-2.85,.11-1,.14-2,.24-3v7.41s.06,.03,.1,.04c.18-.89,.45-1.78,.52-2.69,.23-2.93,1.6-5.23,3.94-7.06,.7-.55,1.37-1.14,1.98-1.78,1.97-2.09,2.34-4.64,1.03-7.17-.41-.8-.94-1.54-1.32-2.37,.95,.26,1.4,.98,1.74,1.78,.85,2.03,1.04,4.15,.95,6.31-.13,3.06-1.34,5.68-3.53,7.88-.97,.98-1.92,1.97-2.83,3-1.24,1.41-2.1,3.02-2.52,4.89,2-2.07,4.26-3.61,7.26-3.89-2.63,1.12-4.3,3.12-5.5,5.59,2.21-1.24,4.62-2.11,6.56-3.76,1.52-1.29,1.89-2.93,1.35-4.77-.2-.69-.51-1.36-.69-2.06,1.9,1.74,2.92,3.8,2.42,6.42,1.79-2.17,1.56-4.38,.21-6.65,2.16,1.44,2.14,3.63,2.17,6.01,3.64-2.58,7.57-3.5,12.16-2.87-3.91,1.11-7.43,2.48-10.63,4.62,.91-.09,1.82-.16,2.72-.29,1.69-.24,3.41-.39,5.07-.8,4.07-1,6.33-3.66,7.01-7.62,.14-.82,.23-1.64,.51-2.5,.11,.51,.29,1.02,.31,1.53,.05,1.31,.16,2.63,.02,3.92-.48,4.37-3.4,7.04-7.96,7.28-1.93,.1-3.88,0-5.82,.05-1.17,.03-2.34,.15-3.5,.28-.41,.05-.81,.24-1.21,.36,.03,.1,.05,.19,.08,.29,.93-.14,1.86-.33,2.8-.39,.94-.07,1.89-.01,2.85,.07-3.24,.16-5.72,1.7-7.89,3.87-.69,.69-1.05,1.48-1.01,2.53,1.22-.55,2.33-1.14,3.91-.87-.96,1.16-1.83,2.19-2.68,3.23-.84,1.03-1.68,2.06-2.46,3.13-.79,1.09-1.51,2.23-2.15,3.46,1.79-.79,3.36-1.83,4.74-3.15,1.44-1.38,2.6-2.96,3.19-4.82,.56-1.76,.83-3.61,1.28-5.6,1.25,1.84,1.11,3.76,1.01,5.92,.5-.4,.86-.67,1.21-.96,1.51-1.22,3.13-2.25,5.12-2.52,.6-.08,1.21-.01,1.88,.19-1.49,.84-3,1.64-4.45,2.53-1.49,.91-2.81,2.04-3.85,3.53,4.2-2.5,8.51-3.21,13.04-1.06-4.93-.24-7.19-.04-9.21,.98,.55,.1,1,.14,1.42,.26,.99,.29,2.01,.53,2.93,.96,.72,.34,1.41,.57,2.19,.55,.9-.02,1.8-.04,2.7-.13,2.46-.26,4.29-1.3,4.9-3.92,.32,2.91-1.43,4.85-6.14,6.89,1.6,2.84,2.14,5.92,2.09,9.15-.22-.47-.42-.94-.65-1.4-1.46-2.93-3.81-4.84-7.06-5.66-2.43-.61-4.54,.09-5.95,2.05,.8-.34,1.43-.62,2.37-1.02-.32,.43-.47,.63-.73,.98,1.58-.08,3.05-.5,4.67,.16-.49,.05-.81,.08-1.12,.1-1.99,.14-3.77,.85-5.4,1.92-.82,.54-1.07,1.44-1.41,2.48,2.46-.79,4.77-1.47,7.46-.63-3.04,.28-4.72,1.07-5.79,2.53,1.48,.07,3.05,.05,4.58,.24,1.95,.24,3.75,.94,5.27,2.2,1.77,1.47,2.63,3.32,2.54,5.69-.26-.27-.45-.46-.63-.66-1.07-1.18-2.07-2.43-3.23-3.51-1.16-1.06-2.58-1.74-4.35-1.86,.55,.79,1.04,1.51,1.54,2.23-1.5-.95-3.09-.92-4.69-.71-1.64,.22-3.16,.75-4.48,1.72-.43,.31-.67,.86-1.05,1.38,2.53,.19,4.76-.38,6.68-1.71-.68,1.69-2.12,2.1-3.66,2.65,.42,.15,.71,.26,.98,.36-1.07,.37-2.13,.66-3.12,1.11-.98,.44-1.77,1.17-2.47,2.32,.55-.16,.87-.24,1.17-.35,1.35-.53,2.76-.84,4.22-.84,2.36,0,4.08,1,4.99,3.15,.37,.88,.61,1.81,.71,2.81-.13-.14-.27-.26-.39-.41-1.71-2.19-4.59-3.06-7.24-2.19-2.23,.73-3.43,2.37-3.41,4.66,0,.78,0,1.55,0,2.42-.33,.03-.68,.07-1.03,.09-.32,.01-.63,0-.95,0-151.89,0-303.77,0-455.66,.03-1.28,0-2.15-.37-2.81-1.38-.43-.67-.88-1.32-1.35-1.97-1.42-1.98-3.37-3.11-5.86-3.35-.8-.08-1.6-.17-2.61-.28,.4-.35,.66-.58,.98-.86-3.43-.53-6.91,1.72-8.36,5.33-1.14-2.05-.12-6.56,2.4-10.04-1.86,.49-3.24,1.37-4.54,2.44,.47-1.7,2.1-3.17,5.85-5.49-.66,.06-1.32,.12-1.96,.18,1.25-1.75,4.08-2.27,8.97-1.57-1.7-1.36-3.45-2.18-5.27-2.89,.03-.09,.06-.18,.09-.27,1.76,.27,3.51,.53,5.26,.79-.26-.46-1.86-2.16-2.23-2.2-.57-.06-1.17-.06-1.74,.03-3.27,.52-6.21,1.77-8.88,3.67-.35,.25-.7,.5-1.13,.67,.62-2.03,2.06-3.39,3.88-4.41,1.79-1,3.75-1.39,5.83-1.53-1.1-.89-2.11-1.79-3.76-1.45-1.52,.32-2.94,.81-4.26,1.6-.33,.2-.66,.39-1.02,.5,2.48-2.74,5.51-4.11,9.36-3.34-2.33-.99-6.01-.56-9.05,.98-2.9,1.47-4.86,3.68-5.55,6.86-.15-2.29,.28-3.91,1.75-6.72-1.01-.87-1.26-2.01-1.08-3.31,3.16,1.93,2.95,1.27,4.64-.04-1.51-.81-2.5-1.93-2.36-3.89,.18,.31,.3,.44,.35,.6,.46,1.57,1.64,2.19,3.18,2.08,1.38-.09,2.76-.38,4.12-.65,1.1-.22,2.17-.61,3.27-.82,2.14-.43,4.27-.28,6.39,.14,.17,.03,.35,.02,.87,.05-.53-.38-.79-.63-1.1-.78-1.05-.5-2.12-.96-3.17-1.46-.24-.11-.44-.32-.65-.48l-.03,.03Zm248.27-24.8c-.15,.26-.4,.51-.43,.79-.12,1.07-.54,2.02-1.11,2.93-.41,.66-.57,2.57-.36,3.55,.44-.56,.81-1.11,1.26-1.58,1.1-1.14,1.22-2.45,.86-3.9-.14-.58-.16-1.19-.23-1.79-.08-.14-.23-.28-.24-.43-.17-1.76-.1-3.5,.49-5.19,.09-.25,.25-.47,.37-.71,.1,.02,.19,.04,.29,.06,0,1.53-.1,3.06,.03,4.58,.11,1.23,1.22,3.51,1.93,4.29-.38-2.05-.71-3.84-1.04-5.63,.08-.01,.15-.03,.23-.04,.25,.74,.49,1.48,.75,2.27,.79-1.5,1.56-2.96,2.33-4.41,.09,.04,.18,.08,.27,.11-.32,.94-.72,1.86-.94,2.82-.23,1.02-.41,2.08-.36,3.11,.05,.99,.36,1.97,.65,2.93,.29,.94,.7,1.84,1.04,2.7,.08-1.34,.17-2.71,.26-4.07,.16,1.91,.26,3.81,.37,5.71,0,.14,.07,.28,.17,.68,.18-.39,.25-.54,.31-.69,.88-2.14,.94-4.34,.56-6.58-.15-.86-.51-1.85-.23-2.58,.42-1.08,.4-2.2,.75-3.26,.4-1.19,.96-2.28,2.12-2.97-.99,2.07-1.35,4.2-.89,6.45v-2.14c.3,.4,.43,.81,.5,1.23,.29,1.68,.55,3.37,.86,5.05,.52,2.8,1.17,5.57,2.22,8.24,.12,.32,.33,.61,.49,.91,.05-3.3-.68-6.39-1.74-9.42,1.49,2.06,2.29,4.41,3.2,6.72,.2-2.96,.38-5.88,.35-8.8-.06-6.38-1.75-12.28-5.89-17.38-.12-.15-.17-.37-.3-.64,1.19-.11,2.11,.29,2.76,1.03,.87,.99,1.69,2.05,2.33,3.19,1.13,1.98,1.77,4.17,2.81,6.2,.67,1.33,.92,2.94,1.04,4.44,.22,2.83,.2,5.68,.31,8.52,.04,1.08,.19,2.15,.32,3.53,.32-2.31,.49-4.32,.89-6.28,.4-1.94,1.2-3.77,2.24-5.51-1.2,4.54-1.76,9.1-1.14,13.77,.11-.33,.17-.66,.19-.99,.19-2.23,.71-4.38,1.51-6.48,.83-2.17,1.61-4.36,2.3-6.58,.58-1.85,.84-3.77,.44-5.7-.19-.88-.48-1.74-.76-2.76,1.18,.83,1.58,1.91,1.84,3.06,.41,1.84,.21,3.67-.16,5.48-.55,2.7-1.11,5.41-1.87,8.06-.45,1.57,.21,2.65,1.12,3.77-.18-2.48-.33-4.94,.56-7.34-.48,3.45-.32,6.8,1.34,9.98-.25-5.11,.06-10.03,4.12-13.98-.56-1.07-1.08-2.07-1.67-3.2,1.48,.37,1.81,1.62,2.61,2.4,.65-.43,1.24-.81,1.88-1.23-1.51-4.53-3-9-4.49-13.47,.11-.04,.21-.08,.32-.12,2.09,4.24,4.18,8.48,6.3,12.78,.38-.13,.7-.24,1.14-.38-.39-1.58-.76-3.09-1.13-4.59,.07-.02,.13-.04,.2-.06,.55,1.5,1.11,3.01,1.68,4.58,.75-.14,1.39-.26,2.04-.38,.05-.79,.1-1.45,.14-2.11,.05,0,.09,0,.14,0,.18,.7,.36,1.4,.53,2.08,1.22,.16,2.32-.16,3.45,0,1.18,.17,2.41,.04,3.71,.04,.32-.7,.7-1.51,1.07-2.32,.09,.03,.18,.05,.28,.08-.07,.8-.15,1.6-.24,2.55,2.75,.33,5.48,.65,8.15,.97,.34-3.9,.66-7.63,.99-11.39-.4-.17-.8-.36-1.22-.53-14.68-5.98-29.36-11.95-44.04-17.93-.75-.3-1.51-.58-2.24-.93-.92-.44-1.06-.74-.68-1.66,.42-1.01,.51-2.02,.38-3.09-.1-.78-.11-1.57-.19-2.36-.03-.28-.13-.55-.2-.84-3.1,.94-54.52,22.04-55.45,22.74,1,1.09,15.42,11.01,16.84,11.58-.12-.83-.23-1.64-.34-2.45,.41,.86,.66,1.74,.92,2.62,.27,.9,1.06,1.6,2.1,1.86,.33-1.53,.66-3.05,.99-4.58,.14,1.48,.12,2.93-.08,4.35-.21,1.48,.66,2.21,1.82,2.98,.86-3.22,1.54-6.33,.93-9.55-.76-4.03-2.59-7.35-6.68-9.1-.1-.04-.18-.15-.28-.24,1.93-.88,3.97-.57,5.42,1.02,.85,.93,1.57,2.05,2.05,3.2,1.31,3.18,1.79,6.5,1.23,9.91-.19,1.17,.31,2.04,1.07,2.82,.16,.17,.52,.15,.79,.22,0,.82,1.16,2.67,2.24,3.36-.26-1.54-.4-2.93-.75-4.27-.35-1.32-.9-2.59-1.41-4.01,.79,.46,1.13,1.13,1.47,1.78,.95,1.86,1.49,3.84,1.89,5.87,.24,1.23,.43,2.47,.64,3.71,.4-3.24,.08-6.44-.24-9.66,.42,.93,.74,1.87,.95,2.84,1.09,5,.91,10-.12,14.99-.37,1.78-.53,3.58-.16,5.39,1.65-7.19,2.58-14.43,1.41-21.78,.54,1.06,1.12,2.09,1.59,3.16,.46,1.06,.8,2.16,1.25,3.4,.24-.98,.43-1.79,.64-2.59,.2-.77,.41-1.54,.62-2.3l.34,.08c-.48,2.17-.99,4.33-1.44,6.51-.46,2.21-.31,4.45-.4,6.97,2.4-5.95,2.97-11.97,4.33-17.84-.07,3.74,.04,7.46,1.07,11.1,.21-.55,.32-1.1,.35-1.65,.04-.74-.03-1.49,.01-2.23,.12-2.1,1.11-3.75,2.89-4.95,.21-.14,.49-.2,.91-.36-1.32,1.93-1.74,3.13-1.31,4.45,.38,1.16,.97,2.25,1.49,3.36,.04,.08,.23,.08,.35,.12Zm69.43-3.02c-.02-.18,0-.31-.05-.43-.36-.89-.81-1.76-1.08-2.68-.42-1.42-1.18-2.36-2.69-2.93-1.54-.59-2.82-1.64-3.55-3.24-.37-.81-1.1-1.48-1.72-2.18-.21-.23-.57-.33-.92-.53-.58,3.53-.85,6.91-.08,10.29,.09,.39,.12,.81,.64,.87,.47,.05,1,.25,1.31-.34,.07-.15,.16-.29,.34-.59,.1,.54,.14,.78,.19,1.02,.55,.07,1.04,.12,1.86,.22-1.26-2.23-2.38-4.21-3.5-6.2,1.48,.75,2.55,1.87,3.49,3.09,.7,.91,1.3,1.89,1.95,2.83,.38,.56,1.7,.89,2.26,.57,.12-.31,.24-.61,.48-1.2,.11,.67,.17,1.03,.24,1.43h.85Zm91.99,19.95c0-1.82,.06-3.64-.01-5.46-.15-3.98-.33-7.95-1.36-11.84-.13-.48-.31-.95-.54-1.63-2.01,4.88-1.11,14.36,1.91,18.93Zm-85.33-21.13c-.11-.6-.14-1.04-.28-1.44-.09-.25-.31-.59-.54-.65-1.1-.3-2.23-.51-3.53-.8,.15,1.44,.27,2.69,.4,3.93,.05,.48,.35,.67,.82,.69,.64,.03,1.27,.06,2.01,.1-.35-1.31-.69-2.58-1.02-3.85l.23-.12c.6,.67,1.2,1.33,1.92,2.14Zm4.15,2.71c-.15-3.21-.59-3.35-2.8-3.84,.46,1.19,.93,2.39,1.42,3.65,.43,.06,.9,.12,1.38,.19Zm-231.32,1.92v4.96c1.54-1.72,.78-3.36,0-4.96Zm220.95-5.45c.1-.02,.2-.03,.31-.05-.22-.86-.44-1.71-.65-2.54-.55-.13-.97-.22-1.55-.36,.7,1.08,1.3,2.01,1.9,2.95Zm-11.09-2.21c-.06-.01-.12-.02-.18-.04-.1,.91-.21,1.81-.29,2.72-.04,.49,.22,.58,.76,.41-.1-1.05-.2-2.07-.29-3.1Zm98.93,11.42l-.41-.03c-.08,.67-.16,1.35-.23,2.02,.12,.02,.25,.03,.37,.05,.09-.68,.18-1.36,.27-2.04Zm-73.93-6.13c-.1-.02-.19-.03-.29-.05v.67c.06,0,.12,.01,.18,.02,.04-.21,.07-.43,.11-.64Zm-329.34,35.88l.16-.24-.9-.42c-.03,.05-.06,.11-.09,.16,.27,.17,.55,.33,.82,.5Z"/></g></svg>