<?xml version="1.0" encoding="UTF-8"?><svg id="Layer_2" xmlns="http://www.w3.org/2000/svg" xmlns:xlink="http://www.w3.org/1999/xlink" viewBox="0 0 72 72"><defs><style>.cls-1{fill:none;}.cls-2{clip-path:url(#clippath);}.cls-3{fill:#fff;}.cls-4{fill:#e66b5b;}.cls-5{fill:#876145;}.cls-6{fill:#b78e65;}.cls-7{fill:#8cc4c6;}.cls-8{fill:#c0a084;}.cls-9{fill:#c2544c;}.cls-10{fill:#d3d3d3;}.cls-11{fill:#1e1e1e;}.cls-12{fill:#3f3d3d;}.cls-13{fill:#2c2c2c;}.cls-14{fill:#76a5a5;}</style><clipPath id="clippath"><rect class="cls-1" y="0" width="72" height="72"/></clipPath></defs><g id="Group_490"><g class="cls-2"><g id="Group_489"><path id="Path_2127" class="cls-4" d="M72,36c0,19.88-16.12,36-36,36S0,55.88,0,36,16.12,0,36,0s36,16.12,36,36"/><path id="Path_2128" class="cls-7" d="M36,72c9.88,.04,19.35-4.07,26.25-11.38l-7.94-6.24H17.8l-7.28,7.05c6.84,6.81,15.98,10.61,25.48,10.57"/><rect id="Rectangle_392" class="cls-10" x="26.62" y="46.05" width="18.77" height="3.52"/><path id="Path_2129" class="cls-8" d="M41.71,57.27l-11.8,.04-.08-17.32,11.8-.04,.08,17.32Z"/><rect id="Rectangle_393" class="cls-3" x="25.32" y="53.74" width="23.54" height="12.38"/><path id="Path_2130" class="cls-6" d="M38.15,35.71s-.08,0-.11,0c.03,0,.06-.01,.1-.02,.1,0,.19,0,.28,.03-.09,0-.18,0-.27,0"/><path id="Path_2131" class="cls-7" d="M48.54,52.39l4.49,4.03-3.01,3.19,4.22,3.03-17.12,9.34c6.04-.17,11.95-1.88,17.2-4.98v-12.61l-5.77-1.99Z"/><path id="Path_2132" class="cls-7" d="M18.89,56.46l4.46-3.99-5.56,1.91v8.21l4.12-2.94-3.02-3.19Z"/><path id="Path_2133" class="cls-7" d="M17.8,67.06c5.05,2.96,10.7,4.64,16.5,4.9l-16.5-9.22v4.32Z"/><path id="Path_2134" class="cls-4" d="M37.9,58.43h.93l2.38-4.54h-10.41l2.39,4.54h1.03l-.75,7.79c.7,1.88,1.37,3.83,1.99,5.77,.17,0,.34,.01,.52,.01l2.6-6.98-.67-6.59Z"/><path id="Path_2135" class="cls-4" d="M33.47,66.26v.08s1.97,5.64,1.97,5.64h.02c-.62-1.94-1.29-3.88-1.99-5.77v.05Z"/><path id="Path_2136" class="cls-13" d="M17.69,62.67l.11,.06v-.14l-.11,.08Z"/><path id="Path_2137" class="cls-14" d="M27.34,48.9l-3.99,3.57-4.46,3.99,3.02,3.19-4.12,2.95v.14l16.5,9.22c.31,.01,.62,.02,.92,.03,.07,0,.14,0,.22,0l-8.1-23.09Zm22.68,10.71l3.01-3.19-4.49-4.03-3.95-3.54-6.02,16.17-2.59,6.98h.2c.31,0,.62-.01,.93-.03l17.12-9.34-4.22-3.03Z"/><path id="Path_2138" class="cls-3" d="M26.62,46.05l9.38,7.85-11,4.76,1.61-12.6Z"/><path id="Path_2139" class="cls-3" d="M45.4,46.05l-9.38,7.85,11.31,4.92-1.92-12.76Z"/><path id="Path_2140" class="cls-11" d="M50.17,21.86c0,9.61-6.46,17.4-14.43,17.4s-14.43-7.8-14.43-17.4S27.76,4.45,35.73,4.45s14.43,7.79,14.43,17.4"/><path id="Path_2141" class="cls-8" d="M47.61,24.91c0,9.34-2.64,20.15-11.88,20.15s-11.88-10.81-11.88-20.15S29.17,7.99,35.73,7.99s11.88,7.57,11.88,16.92"/><path id="Path_2142" class="cls-8" d="M26.36,28.42c.01,2.63-1,4.76-2.28,4.77s-2.32-2.12-2.33-4.74,1-4.76,2.27-4.77,2.31,2.11,2.34,4.74"/><path id="Path_2143" class="cls-8" d="M49.71,28.42c.01,2.63-1,4.76-2.28,4.77s-2.31-2.12-2.33-4.74,1-4.76,2.28-4.77,2.31,2.11,2.33,4.74"/><path id="Path_2144" class="cls-5" d="M38.53,32.28c-.18-.24-.68-.22-.74-.21-.25,.02-.49,.1-.7,.23l-.08,.05c-.38,.25-.82,.4-1.28,.44-.45-.03-.9-.18-1.28-.42l-.08-.04c-.21-.13-.46-.21-.7-.23-.06,0-.55-.01-.73,.22-.08,.1-.08,.24-.01,.34,.12,.16,.31,.24,.5,.21,.3,0,.59-.05,.86-.16,.43,.27,.93,.42,1.43,.44h.03c.5-.03,.99-.18,1.42-.45,.28,.11,.57,.16,.86,.15,.19,.03,.39-.05,.5-.22,.06-.11,.06-.24-.01-.34"/><path id="Path_2145" class="cls-11" d="M47.61,23.39c-.41-.05-.95,5.82-.95,7.57s-1.32,6.41-3.19,6.41c-2.19,0-3.35-3.82-7.73-3.82s-5.54,3.82-7.73,3.82c-1.86,0-3.18-4.66-3.18-6.41s-.55-7.62-.95-7.57c0,2.92,.73,12.15,.73,12.15,0,4.32,2.83,11.23,6.7,12.74,2.71,1.01,2.05-.31,4.45-.31h0c2.39,0,1.73,1.33,4.44,.31,3.86-1.51,6.7-8.42,6.7-12.74,0,0,.73-9.23,.73-12.15"/><path id="Path_2146" class="cls-11" d="M35.74,11.52c11.52,0,10.89,5.7,12.26,12.33,.25-1.22,.38-2.46,.38-3.7,0-8.41-5.66-15.24-12.64-15.24s-12.64,6.82-12.64,15.24c0,1.22,.13,2.44,.38,3.63,1.37-6.63,.77-12.26,12.26-12.26"/><path id="Path_2147" class="cls-4" d="M32.01,36.37c1.49,2.26,2.21,1.91,3.71,1.98,1.58-.12,2.21,.46,3.74-1.95-1.2,.3-2.44,.45-3.67,.45-1.27,0-2.54-.15-3.77-.47"/><path id="Path_2148" class="cls-9" d="M37.09,36.27c-.81,.13-.89,.33-1.31,.32-.53-.07-1.06-.18-1.58-.32-.73-.02-1.46,.01-2.19,.11,1.21,.4,2.46,.65,3.72,.76,1.26-.11,2.51-.36,3.72-.74-.78-.12-1.57-.16-2.36-.13"/><path id="Path_2149" class="cls-3" d="M41.26,26.37c1.19-.11,2.3-.65,3.14-1.54-.83-.89-1.95-1.43-3.14-1.54-1.19,.11-2.3,.65-3.14,1.54,.83,.89,1.95,1.43,3.14,1.54"/><path id="Path_2150" class="cls-12" d="M40.03,24.88c-.02,.71,.52,1.31,1.21,1.33,.69,.02,1.27-.54,1.29-1.25,.02-.71-.52-1.31-1.21-1.33-.01,0-.03,0-.04,0-.68-.01-1.24,.55-1.25,1.25"/><path id="Path_2151" class="cls-11" d="M38.13,24.83c.83-.89,1.94-1.43,3.13-1.54,1.19,.11,2.3,.65,3.13,1.54-.95-.59-2.03-.92-3.13-.95-1.11,.03-2.18,.36-3.13,.95"/><path id="Path_2152" class="cls-11" d="M41.62,24.88c0,.19-.14,.36-.32,.37-.19,0-.35-.14-.35-.33,0-.19,.14-.36,.32-.37,0,0,.01,0,.02,0,.18,0,.33,.15,.33,.33"/><path id="Path_2153" class="cls-11" d="M37.88,22.49c-.24-.46,.08-1.1,.75-1.31,1.71-.54,3.54-.54,5.25,0,.67,.22,.99,.86,.75,1.31-.28,.46-.83,.66-1.33,.48-1.34-.42-2.76-.42-4.1,0-.5,.18-1.05-.02-1.33-.48"/><path id="Path_2154" class="cls-3" d="M29.61,26.37c-1.19-.11-2.3-.65-3.14-1.54,.83-.89,1.95-1.43,3.14-1.54,1.19,.11,2.31,.65,3.14,1.54-.83,.89-1.95,1.43-3.14,1.54"/><path id="Path_2155" class="cls-12" d="M30.84,24.88c.02,.71-.52,1.31-1.21,1.33-.69,.02-1.27-.54-1.29-1.25-.02-.71,.52-1.31,1.21-1.33,.01,0,.03,0,.04,0,.68-.01,1.24,.55,1.25,1.25,0,0,0,0,0,0"/><path id="Path_2156" class="cls-11" d="M32.74,24.83c-.83-.89-1.94-1.43-3.13-1.54-1.19,.1-2.3,.65-3.13,1.54,.95-.59,2.03-.92,3.13-.95,1.11,.03,2.18,.36,3.13,.95"/><path id="Path_2157" class="cls-11" d="M29.25,24.88c0,.19,.14,.36,.32,.37,.19,0,.35-.14,.35-.33s-.14-.36-.32-.37c0,0,0,0-.01,0-.18,0-.33,.15-.34,.33"/><path id="Path_2158" class="cls-11" d="M32.99,22.49c.24-.46-.08-1.1-.76-1.31-1.71-.54-3.54-.54-5.24,0-.67,.22-1,.86-.75,1.31,.28,.46,.83,.66,1.33,.48,1.33-.43,2.76-.43,4.1,0,.5,.18,1.05-.02,1.33-.48"/><path id="Path_2159" class="cls-11" d="M35.22,7.41c-8.67,0-15.22,8.65-12.62,14.73,.36,.84,.93,.89,1.38,1.7,6.7-8.68,18.55-11.14,18.56-11.15,3.27,1.95,5.07,11,5.07,11,0,0,.99-5.22-.2-7.75,0,0-3.52-8.54-12.19-8.54"/><path id="Path_2160" class="cls-11" d="M42.94,12.45s-2.62,1.53-3.61,2.18-12.25,8.68-15.31,9.04c-1.36-.14,.12-5.38,.12-5.38l6.83-6.34,9.51-1.97,2.46,2.46Z"/></g></g></g></svg>