<?xml version="1.0" encoding="UTF-8"?><svg id="Layer_5" xmlns="http://www.w3.org/2000/svg" xmlns:xlink="http://www.w3.org/1999/xlink" viewBox="0 0 72 72"><defs><style>.cls-1{fill:none;}.cls-2{clip-path:url(#clippath);}.cls-3{fill:#f7d5b7;}.cls-4{fill:#fff;}.cls-5{fill:#fbb316;}.cls-6{fill:#e5e5e5;}.cls-7{fill:#e66b5b;}.cls-8{fill:#684132;}.cls-9{fill:#b28967;}.cls-10{fill:#c2544c;}.cls-11{fill:#e1c2ac;}.cls-12{fill:#171616;}.cls-13{fill:#1e1e1e;}.cls-14{fill:#232222;}.cls-15{fill:#3f3d3d;}.cls-16{fill:#383c3d;}.cls-17{fill:#51524f;}</style><clipPath id="clippath"><rect class="cls-1" width="72" height="72"/></clipPath></defs><g id="Group_442"><g class="cls-2"><g id="Group_441"><path id="Path_626" class="cls-5" d="M72,36c0,19.88-16.12,36-36,36S0,55.88,0,36,16.12,0,36,0s36,16.11,36,36"/><path id="Path_627" class="cls-12" d="M15.9,55.52l-1.24,9.47c1.57,1.15,3.22,2.17,4.95,3.05l-2.48-13.23-1.23,.7Z"/><path id="Path_628" class="cls-12" d="M55.8,54.82l-2.38,12.68c1.67-.92,3.26-1.98,4.76-3.16l-1.15-8.82-1.23-.7Z"/><path id="Path_629" class="cls-11" d="M41.46,44.29h0s0-.65,0-.65c-1.49,1-3.25,1.52-5.03,1.49-1.76,.03-3.49-.5-4.95-1.52v.7l4.96,6.29,5.03-6.3Z"/><path id="Path_630" class="cls-4" d="M38.93,53.56l-.77,1.72,1.27,10.13,2.09-8.76-2.59-3.1Z"/><path id="Path_631" class="cls-4" d="M31.4,56.68l2.05,8.7,1.27-10.1-.76-1.69-2.56,3.1Z"/><path id="Path_632" class="cls-4" d="M36.44,50.59h0s0,0,0,0h.01Z"/><path id="Path_633" class="cls-7" d="M37.69,52.09h-2.49l-1.25,1.51,.76,1.69h3.44l.77-1.72-1.24-1.48Z"/><path id="Path_634" class="cls-7" d="M36.43,50.59l-1.23,1.49h2.49l-1.25-1.49h-.01Z"/><path id="Path_635" class="cls-10" d="M38.15,55.28h-3.44l-1.26,10.1,1.55,6.59c.33,0,.66,.03,1,.03,.63,0,1.24-.02,1.86-.05l1.57-6.54-1.27-10.13Z"/><path id="Path_637" class="cls-6" d="M43.22,49.51l.54-2.28-2.29-2.94v5.49l1.75-.28Z"/><path id="Path_638" class="cls-6" d="M36.44,50.59l5.03-.8v-5.49h0s-5.03,6.29-5.03,6.29Z"/><path id="Path_639" class="cls-6" d="M39.59,52.09l-.66,1.47,2.59,3.1,1.48-6.18,.23-.96-1.76,.28v2.3h-1.88Z"/><path id="Path_640" class="cls-6" d="M40.25,50.59l-.66,1.49h1.88v-2.3l-5.03,.8h0s3.81,0,3.81,0Z"/><path id="Path_641" class="cls-6" d="M37.69,52.09l1.24,1.47,.66-1.47h-1.9Z"/><path id="Path_642" class="cls-6" d="M40.26,50.59h-3.81l1.25,1.49h1.9l.67-1.49Z"/><path id="Path_643" class="cls-6" d="M31.48,49.77v-5.47h0s-2.3,2.95-2.3,2.95l.52,2.23,1.78,.29Z"/><path id="Path_644" class="cls-6" d="M36.44,50.59l-4.96-6.29v5.47l4.96,.82Z"/><path id="Path_645" class="cls-6" d="M30.11,51.21l1.29,5.48,2.56-3.09-.68-1.51h-1.79v-2.32l-1.78-.29,.41,1.73Z"/><path id="Path_646" class="cls-6" d="M33.28,52.09l-.67-1.49h3.83s-4.96-.83-4.96-.83v2.32h1.79Z"/><path id="Path_647" class="cls-6" d="M33.95,53.59l1.25-1.51h-1.92l.67,1.51Z"/><path id="Path_648" class="cls-6" d="M32.61,50.59l.67,1.49h1.93l1.23-1.49h-3.83Z"/><path id="Path_649" class="cls-14" d="M26.43,54.61l.48-.6-2.27-.97,1.58-2.03-9.1,3.79v.02l.05-.02,3.87,13.95c2.47,1.13,5.06,1.98,7.72,2.52v-11.17l-2.32-5.49Z"/><path id="Path_650" class="cls-14" d="M17.13,54.82l2.48,13.23c.47,.25,.95,.48,1.43,.7l-3.87-13.95-.04,.03Z"/><path id="Path_651" class="cls-14" d="M28.76,60.09v11.18c1.28,.26,2.58,.45,3.88,.57l.25-2-4.13-9.75Z"/><path id="Path_652" class="cls-14" d="M32.64,71.84c.38,.03,.75,.06,1.13,.08l-.88-2.08-.25,2Z"/><path id="Path_653" class="cls-14" d="M55.8,54.82v-.02l-9.1-3.79,1.58,2.03-2.26,.97,.48,.6-2.05,4.94v8.38h6.65v.75c.31-.14,.62-.29,.93-.45l3.72-13.44,.04,.03Z"/><path id="Path_654" class="cls-14" d="M55.76,54.79l-3.73,13.44c.47-.23,.94-.48,1.39-.73l2.38-12.68-.04-.03Z"/><path id="Path_655" class="cls-14" d="M43.24,70.36v-1.23h.06v-1.21h1.16v-8.38l-4.42,10.7,.19,1.49c1.04-.12,2.07-.28,3.08-.48v-.9h-.06Z"/><path id="Path_656" class="cls-14" d="M39.37,71.84c.28-.03,.56-.06,.84-.1l-.19-1.49-.66,1.59Z"/><path id="Path_657" class="cls-15" d="M26.95,50.1l2.22-2.86v-.02l-2.94,3.78,1.03-.43-.32-.47Z"/><path id="Path_658" class="cls-15" d="M27.26,50.58l1.49-.62v-.64l.94,.16-.53-2.23-2.22,2.86,.31,.47Z"/><path id="Path_659" class="cls-15" d="M29.54,50.76l.36-.45,.21,.89-.41-1.73-.94-.16v.64l.52-.22,.26,1.03Z"/><path id="Path_660" class="cls-15" d="M26.92,54.01l1.43-1.77-1.08-1.66-1.03,.43-1.58,2.03,2.27,.97Z"/><path id="Path_661" class="cls-15" d="M28.76,49.95l-1.49,.62,1.08,1.66,.41-.51v-1.78Z"/><path id="Path_662" class="cls-15" d="M29.54,50.76l-.26-1.03-.52,.22v1.78l.78-.97Z"/><path id="Path_663" class="cls-15" d="M31.31,56.79l-.42-.64,2.48,9.82,.07-.59-2.05-8.7-.08,.1Z"/><path id="Path_664" class="cls-15" d="M33.37,65.97l1.51,6h.11l-1.56-6.59-.07,.59Z"/><path id="Path_665" class="cls-15" d="M29.74,51.55l1.16,4.59,.42,.64,.08-.1-1.29-5.48-.37,.34Z"/><path id="Path_666" class="cls-15" d="M28.59,52.61l-1.57,1.45-.11-.05-.48,.6,2.32,5.48v-7.22l-.17-.26Z"/><path id="Path_667" class="cls-15" d="M28.76,52.87v7.23l4.13,9.75,.48-3.88-2.48-9.82-2.14-3.27Z"/><path id="Path_668" class="cls-15" d="M32.89,69.84l.88,2.08c.37,.02,.74,.04,1.12,.05l-1.51-6-.48,3.87Z"/><path id="Path_669" class="cls-15" d="M28.59,52.61l.17,.26v-.41l-.17,.16Z"/><path id="Path_670" class="cls-15" d="M28.76,52.46v.41l2.14,3.28-1.16-4.59-.98,.9Z"/><path id="Path_671" class="cls-15" d="M30.11,51.21l-.21-.89-.36,.45,.2,.79,.37-.34Z"/><path id="Path_672" class="cls-15" d="M28.59,52.61l-.24-.37-1.43,1.77,.11,.05,1.56-1.45Z"/><path id="Path_673" class="cls-15" d="M28.76,52.46v-.72l-.41,.51,.25,.37,.17-.16Z"/><path id="Path_674" class="cls-15" d="M29.54,50.76l-.78,.96v.72l.98-.9-.2-.78Z"/><path id="Path_675" class="cls-15" d="M45.67,50.58l1.03,.43-2.94-3.78h0s2.23,2.87,2.23,2.87l-.31,.48Z"/><path id="Path_676" class="cls-15" d="M44.45,49.32v.75l1.22,.51,.31-.48-2.23-2.86-.54,2.28,1.23-.19Z"/><path id="Path_677" class="cls-15" d="M43.03,50.32l.36,.45,.26-1.02,.8,.33v-.75l-1.23,.19-.23,.96,.04-.16Z"/><path id="Path_678" class="cls-15" d="M44.59,52.24l1.43,1.77,2.27-.97-1.58-2.03-1.03-.43-1.08,1.66Z"/><path id="Path_679" class="cls-15" d="M44.59,52.25l1.08-1.66-1.22-.51v2l.13,.17Z"/><path id="Path_680" class="cls-15" d="M43.39,50.76l1.06,1.31v-2l-.8-.33-.26,1.03Z"/><path id="Path_681" class="cls-15" d="M41.62,56.79l-.11-.13-2.09,8.76,.09,.72,2.52-9.98-.41,.63Z"/><path id="Path_682" class="cls-15" d="M39.42,65.41l-1.57,6.54c.07,0,.13-.01,.19-.01l1.46-5.8-.09-.73Z"/><path id="Path_683" class="cls-15" d="M42.82,51.21l.17-.73-1.48,6.18,.11,.13,.41-.63,1.16-4.6-.38-.34Z"/><path id="Path_684" class="cls-15" d="M44.45,52.71v6.84l2.04-4.94-.48-.6-.11,.05-1.45-1.35Z"/><path id="Path_685" class="cls-15" d="M44.34,52.61l-2.31,3.54-2.52,9.98,.51,4.11,4.42-10.7v-6.83l-.11-.11Z"/><path id="Path_686" class="cls-15" d="M39.51,66.14l-1.46,5.8c.44-.03,.88-.06,1.32-.1l.66-1.59-.51-4.11Z"/><path id="Path_687" class="cls-15" d="M42.03,56.16l2.31-3.55-1.14-1.06-1.17,4.6Z"/><path id="Path_688" class="cls-15" d="M43.2,51.55l.2-.79-.36-.45-.04,.16-.17,.73,.37,.34Z"/><path id="Path_689" class="cls-15" d="M44.45,52.45v.27l1.45,1.34,.11-.05-1.43-1.77-.14,.2Z"/><path id="Path_690" class="cls-15" d="M44.45,52.72v-.27l-.11,.16,.11,.1Z"/><path id="Path_691" class="cls-15" d="M44.45,52.45l.14-.2-.14-.17v.37Z"/><path id="Path_692" class="cls-15" d="M43.39,50.76l-.2,.79,1.15,1.06,.11-.16v-.37l-1.06-1.31Z"/><rect id="Rectangle_354" class="cls-15" x="43.24" y="69.13" width=".06" height="1.23"/><path id="Path_693" class="cls-4" d="M44.45,70.99c.77-.19,1.54-.39,2.29-.63h-2.29v.63Z"/><path id="Path_694" class="cls-4" d="M44.45,67.93v1.21h5.64c.34-.14,.67-.3,1.01-.46v-.75h-6.65Z"/><rect id="Rectangle_355" class="cls-4" x="43.3" y="67.93" width="1.16" height="1.21"/><path id="Path_695" class="cls-4" d="M43.3,70.37v.89c.39-.08,.77-.17,1.16-.26v-.63h-1.16Z"/><path id="Path_696" class="cls-4" d="M44.45,69.39h1.7v.74h-1.7v.24h2.29c.24-.07,.48-.16,.72-.24h-.73v-.74h2.73c.21-.08,.42-.16,.63-.26h-5.64v.26Z"/><path id="Path_697" class="cls-4" d="M43.3,70.37h1.16v-.24h-.75v-.74h.75v-.26h-1.16v1.23Z"/><rect id="Rectangle_356" class="cls-15" x="44.45" y="69.39" width="1.7" height=".74"/><rect id="Rectangle_357" class="cls-15" x="43.7" y="69.39" width=".75" height=".74"/><path id="Path_698" class="cls-15" d="M46.73,70.12h.73c.67-.23,1.34-.47,2-.74h-2.73v.74Z"/><path id="Path_699" class="cls-13" d="M47.35,24.05l.24,.04c-.22-1.52-.53-3.03-.93-4.51-.03,.18-.06,.36-.09,.55,.38,1.28,.64,2.59,.78,3.92"/><path id="Path_700" class="cls-13" d="M46.58,34.87c.23-.26,.44-.53,.64-.81-.15-.01-.3-.06-.44-.13-.06,.32-.13,.63-.21,.94"/><path id="Path_701" class="cls-13" d="M25.59,22.3c-.11,.58-.21,1.17-.32,1.78,.08-.01,.16-.02,.25-.03,.06-.58,.14-1.15,.25-1.7-.06-.01-.12-.03-.18-.05"/><path id="Path_702" class="cls-13" d="M25.7,34.06c.22,.28,.43,.56,.66,.83-.08-.32-.16-.64-.23-.96-.13,.08-.28,.12-.43,.14"/><path id="Path_703" class="cls-13" d="M24.27,26.13c-.07-.11-.17-.2-.29-.26h-.01c-.1-.04-.17-.12-.18-.22v-.05c-.01-.35,.02-.97,.03-1.11v-.03s.03-.06,.06-.07h.01c.31-.11,.62-.19,.94-.23-.1-.73-.15-1.46-.16-2.19,0-7.83,5.27-14.17,11.76-14.17s11.75,6.35,11.75,14.17c0,.75-.06,1.5-.16,2.25l.09,.03h.01s.05,.04,.06,.07v.03c0,.14,.05,.76,.04,1.11v.05c0,.05-.03,.1-.07,.14,.91,1.12,1.37,2.55,1.28,4.01,0,.22-.01,.43-.03,.64,1.07-2.51,1.62-5.22,1.61-7.96,0-9.65-6.52-17.46-14.56-17.46s-14.56,7.81-14.56,17.45c0,2.68,.52,5.33,1.55,7.8,0-.15-.02-.3-.02-.45-.05-1.24,.25-2.47,.85-3.55"/><path id="Path_704" class="cls-3" d="M41.47,41.19v2.45c2.64-1.8,4.23-5.05,5.11-8.76-2.08,2.48-4.92,4.15-8.06,4.72-.45,.72-1.26,1.12-2.09,1.03-.85,.09-1.67-.31-2.13-1.04-3.09-.59-5.88-2.25-7.93-4.69,.92,3.69,2.55,6.91,5.12,8.71v-2.41h9.99Z"/><path id="Path_705" class="cls-3" d="M41.47,43.63v-2.44h-9.99v2.41c1.46,1.02,3.19,1.55,4.95,1.53,1.79,.03,3.54-.49,5.03-1.49"/><path id="Path_706" class="cls-3" d="M42.21,20.75c-1.01-.63-2.15-1-3.33-1.11-2.52-.3-4.84,1.16-6.92,2.05-1.95,.89-4.12,1.12-6.2,.65-.1,.56-.18,1.13-.25,1.7,1.99-.23,4-.27,5.99-.11,2.34,.25,3.73,.88,4.49,.9,.77-.03,2.16-.68,4.49-.95,1.35-.13,2.7-.16,4.06-.1-.16-.29-.32-.58-.5-.86-.47-.84-1.09-1.59-1.84-2.18"/><path id="Path_707" class="cls-3" d="M45.89,23.88c.56,.04,1.05,.1,1.46,.17-.13-1.33-.39-2.64-.78-3.92-.22,1.22-.49,2.69-.68,3.75"/><path id="Path_708" class="cls-3" d="M27.71,29.65c0,.36-.02,.72-.06,1.08,1.28,.24,2.61,.16,3.85-.24,.77-.26,1.4-.84,1.72-1.6,.47-.86,1.05-2.22,.74-3.2-.28-.9-1.51-1.04-2.21-1.19-1.67-.3-3.39-.24-5.03,.2-.33,.12-.62,.33-.85,.61,1.02,.33,1.82,2.14,1.83,4.34m.29-4.01c.76-.43,1.66-.55,2.5-.33,.96,.2,1.7,.97,1.9,1.95-.03,.1-.09,.19-.17,.25v.03c.11,.31-2.32,.26-3.55-.55-.32-.14-.6-.36-.83-.64-.12-.25-.06-.54,.14-.72"/><path id="Path_709" class="cls-3" d="M34.3,39.57c-.37-.47-.7-.96-1-1.48,.17,.3,1.42,.23,1.92,.3,.39,.16,.81,.27,1.22,.34,.33,0,.38-.22,1.01-.38,.39-.1,1.44,.17,2.06-.4-.29,.57-.61,1.12-.98,1.64,3.14-.57,5.98-2.24,8.06-4.72,.07-.31,.14-.63,.21-.94-.73-.38-1.3-1.52-1.52-2.99-.04,.02-.08,.04-.12,.06-.75,.25-4.36,.76-6.21-.79-.49-.52-.89-1.12-1.17-1.78-.21-.5-.77-1.93-.86-2.15-.09-.37-.43-.63-.8-.62h-.18c-.38-.01-.71,.25-.8,.63-.08,.22-.63,1.66-.83,2.16-.28,.66-.67,1.27-1.15,1.79-1.52,1.3-4.25,1.2-5.57,.99-.09,1.06-.61,2.04-1.44,2.69,.07,.33,.14,.64,.23,.96,2.05,2.45,4.85,4.1,7.94,4.7m.1-3.87c.13-.17,.48-.16,.52-.16,.18,0,.35,.07,.5,.16l.06,.03c.28,.18,.59,.28,.92,.3,.33-.03,.64-.13,.92-.32l.05-.03c.15-.1,.33-.16,.5-.17,.04,0,.4-.01,.53,.16,.06,.07,.06,.17,.01,.24-.08,.12-.22,.18-.36,.16-.21,0-.42-.03-.62-.11-.31,.19-.66,.3-1.02,.32h-.02c-.36-.02-.71-.12-1.02-.32-.2,.08-.41,.12-.62,.12-.14,.02-.28-.04-.36-.15-.05-.08-.04-.17,0-.25"/><path id="Path_710" class="cls-3" d="M45.78,26.51c-.26-.69-.55-1.37-.88-2.03-1.53-.31-3.1-.32-4.63-.04-.69,.15-1.92,.31-2.19,1.22-.29,.98,.29,2.33,.78,3.18,.33,.76,.97,1.34,1.74,1.58,1.25,.39,2.58,.46,3.86,.2,.26-.04,.51-.13,.74-.26-.02-.22-.04-.45-.04-.69-.03-1.09,.19-2.17,.63-3.16m-.9-.15c-.22,.28-.51,.5-.83,.63-1.24,.8-3.66,.84-3.56,.54v-.04c-.07-.06-.13-.15-.16-.25,.2-.98,.95-1.74,1.91-1.94,.85-.22,1.74-.1,2.5,.34,.2,.18,.25,.48,.14,.72"/><path id="Path_711" class="cls-3" d="M45.74,24.8c-.03,.18-.05,.31-.05,.38-.02-.15-.05-.29-.07-.44-.05-.03-.11-.06-.17-.08,.15,.6,.27,1.2,.36,1.81,.15-.33,.36-.62,.62-.87-.16-.33-.39-.61-.69-.8"/><path id="Path_712" class="cls-3" d="M44.77,21.19c-.27-.92-.7-1.79-1.29-2.54-.83-.85-1.83-1.5-2.93-1.9-.18-.07-.36-.13-.55-.18,2.29,.91,3.64,3.18,4.43,5.05,.3,.72,.56,1.46,.78,2.21,.08,0,.16,0,.23,.02-.17-.9-.4-1.79-.69-2.65"/><path id="Path_713" class="cls-3" d="M25.6,34.08s.07-.01,.11-.02c-.91-1.21-1.67-2.53-2.25-3.93,.13,2.22,1.04,3.96,2.15,3.95"/><path id="Path_714" class="cls-3" d="M25.55,29.95c-.32-.62-.53-1.29-.63-1.99-.1-.65-.32-1.27-.64-1.84-.6,1.08-.9,2.31-.85,3.55,0,.15,.02,.3,.02,.45,.58,1.4,1.34,2.72,2.25,3.93,.15-.02,.3-.06,.43-.14-.28-1.31-.47-2.63-.59-3.97"/><path id="Path_715" class="cls-3" d="M25.39,27.12v-.44c0,.15,0,.29,0,.44"/><path id="Path_716" class="cls-3" d="M25.39,26.68v.44c.08,.69,.22,1.37,.41,2.04,.27,.84,.99,1.45,1.84,1.57h0c.04-.36,.06-.72,.06-1.08-.01-2.2-.8-4.01-1.83-4.34-.2,.25-.35,.54-.43,.85-.04,.17-.06,.34-.06,.52"/><path id="Path_717" class="cls-3" d="M25.55,29.95c.12,1.33,.31,2.66,.59,3.97,.83-.65,1.35-1.62,1.44-2.68-.21-.03-.42-.08-.63-.13-.59-.18-1.09-.6-1.4-1.15"/><path id="Path_718" class="cls-3" d="M47.33,34.08c1.08,0,1.95-1.66,2.09-3.79-.58,1.35-1.31,2.61-2.19,3.77,.03,0,.07,.01,.1,.02"/><path id="Path_719" class="cls-3" d="M48.16,25.64s-.07,.06-.11,.08h-.01c-.14,.06-.34,.24-.56,.84,0,2.47-.23,4.94-.69,7.37,.14,.07,.29,.12,.44,.13,.88-1.16,1.61-2.43,2.19-3.78,.01-.21,.03-.42,.03-.64,.08-1.45-.37-2.88-1.28-4"/><path id="Path_720" class="cls-3" d="M47.13,27.84c-.16,.81-.35,2.51-1.87,3.1,.22,1.47,.8,2.61,1.52,2.99,.47-2.43,.7-4.9,.69-7.37-.15,.42-.26,.84-.35,1.28"/><path id="Path_721" class="cls-3" d="M45.84,26.66s-.04-.1-.06-.14c-.44,.99-.65,2.07-.63,3.16,0,.23,.02,.47,.04,.69,.52-.27,.92-.75,1.09-1.33,.33-.96,.43-1.99,.31-3-.04-.15-.1-.29-.17-.43-.26,.25-.47,.54-.62,.87,0,.06,.02,.12,.03,.18"/><path id="Path_722" class="cls-13" d="M25.59,22.3c-.14-.04-.28-.07-.43-.12-.43-.15,.44-4.37,4.31-8.01,1.27-1.54,2.96-2.66,4.85-3.23,2.12-.94,4.37-1.55,6.68-1.79,1.35-.15,6.18,7.02,5.83,9.44-.04,.27-.09,.61-.16,.99,.39,1.49,.7,2.99,.93,4.51,.15,.03,.29,.07,.44,.11,.1-.75,.16-1.5,.17-2.25,0-7.83-5.26-14.17-11.76-14.17s-11.76,6.35-11.76,14.18c0,.73,.05,1.47,.16,2.19,.14-.02,.28-.04,.44-.06,.11-.61,.21-1.21,.32-1.78"/><path id="Path_723" class="cls-13" d="M29.47,14.17c1.43-1.34,3.07-2.43,4.85-3.23-1.89,.56-3.58,1.69-4.85,3.23"/><path id="Path_724" class="cls-9" d="M34.75,36.1c.21,0,.42-.04,.62-.12,.31,.19,.66,.3,1.02,.31h.02c.36-.02,.71-.13,1.02-.32,.2,.08,.41,.12,.62,.11,.14,.02,.28-.04,.36-.16,.05-.08,.04-.17-.01-.24-.13-.17-.49-.16-.53-.16-.18,.02-.35,.07-.51,.17l-.05,.03c-.28,.18-.59,.29-.92,.32-.33-.02-.64-.12-.92-.3l-.06-.03c-.15-.1-.33-.16-.51-.16-.04,0-.4-.01-.52,.16-.06,.07-.06,.17,0,.25,.08,.12,.22,.18,.36,.15"/><path id="Path_725" class="cls-7" d="M34.3,39.58c.46,.73,1.28,1.14,2.13,1.04,.83,.09,1.64-.3,2.1-1.03-.68,.12-1.37,.19-2.06,.19-.73,0-1.45-.08-2.17-.22"/><path id="Path_726" class="cls-7" d="M37.44,38.36c-.63,.16-.68,.38-1.01,.38-.42-.07-.83-.18-1.22-.34-.5-.07-1.75,0-1.92-.3,.3,.51,.64,1.01,1.01,1.48,.72,.14,1.44,.21,2.17,.22,.69,0,1.38-.07,2.06-.2,.37-.52,.69-1.07,.98-1.64-.61,.57-1.66,.3-2.06,.4"/><path id="Path_727" class="cls-16" d="M28.69,26.99c-.35-.19-.61-.54-.69-.95-.02-.2,.45-.51,1.22-.58h0s.06-.01,.08-.01h.37c.06,0,.11,0,.17,.01,.2,.01,.41,.05,.6,.09,.15,.04,.3,.09,.45,.15,.04,.02,.08,.04,.12,.06,.09,.04,.17,.09,.26,.15,.03,.02,.07,.05,.1,.07,.08,.06,.16,.14,.23,.22l.03,.03c.29,.37,.5,.8,.6,1.26,.08-.06,.14-.15,.17-.25-.2-.98-.94-1.75-1.9-1.95-.84-.22-1.74-.11-2.5,.32-.2,.18-.25,.48-.14,.72,.22,.28,.5,.5,.82,.64"/><path id="Path_728" class="cls-4" d="M30.55,27.49c-.16,.03-.31,.03-.47,0-.15-.03-.3-.09-.43-.17-.33-.08-.65-.19-.95-.33,1.23,.81,3.66,.86,3.56,.55v-.03s-.08,.07-.12,.09c-.53,0-1.06-.04-1.59-.11"/><path id="Path_729" class="cls-4" d="M31.62,26.45c-.11,.54-.54,.96-1.07,1.04,.53,.07,1.06,.11,1.59,.11,.04-.02,.08-.06,.11-.09-.1-.46-.31-.9-.6-1.26,0,.07,0,.13-.02,.2"/><path id="Path_730" class="cls-4" d="M31.61,26.22l.03,.03-.03-.03"/><path id="Path_731" class="cls-4" d="M29.03,25.95c.03-.17,.1-.34,.2-.48-.77,.07-1.24,.38-1.22,.58,.08,.4,.33,.75,.69,.95,.31,.14,.63,.25,.95,.33-.47-.27-.72-.83-.62-1.37"/><path id="Path_732" class="cls-4" d="M31.28,25.93s.07,.05,.1,.07c-.03-.03-.06-.05-.1-.07"/><path id="Path_733" class="cls-4" d="M30.9,25.72s.08,.04,.12,.06c-.04-.02-.08-.04-.12-.06"/><path id="Path_735" class="cls-4" d="M29.85,25.47c.2,.02,.41,.05,.6,.1-.2-.05-.4-.08-.6-.1"/><path id="Path_736" class="cls-8" d="M30.45,25.56c.15,.04,.3,.09,.45,.15-.15-.06-.3-.12-.45-.15"/><path id="Path_737" class="cls-8" d="M31.02,25.78c.09,.05,.17,.1,.26,.15-.08-.05-.17-.1-.26-.15"/><path id="Path_738" class="cls-8" d="M31.37,26c.08,.06,.16,.14,.23,.22-.07-.08-.15-.15-.23-.22"/><path id="Path_739" class="cls-8" d="M29.68,25.46c.06,0,.11,0,.17,.01-.06,0-.11,0-.17-.01"/><path id="Path_740" class="cls-8" d="M29.23,25.46h0s.09,0,.09,0c-.03,0-.06,0-.08,0"/><path id="Path_742" class="cls-8" d="M30.07,27.49c.16,.03,.31,.03,.47,0-.29-.04-.6-.1-.9-.17,.13,.08,.28,.14,.43,.17"/><path id="Path_743" class="cls-8" d="M29.65,27.32c.3,.08,.61,.13,.9,.17,.53-.09,.96-.5,1.07-1.04,.01-.07,.02-.13,.02-.2l-.03-.03c-.07-.08-.15-.15-.23-.22-.03-.02-.06-.05-.1-.07-.08-.05-.17-.1-.26-.15-.04-.02-.08-.04-.12-.06-.14-.06-.29-.12-.45-.15-.2-.05-.4-.08-.6-.1-.06,0-.11,0-.17-.01-.13,0-.25,0-.37,0h-.09c-.1,.16-.17,.32-.2,.49-.1,.55,.15,1.1,.62,1.37m.74-1.53c.21,.04,.36,.24,.32,.46,0,0,0,0,0,0-.05,.22-.26,.37-.47,.33-.22-.04-.36-.25-.32-.48,.05-.22,.26-.36,.48-.32"/><path id="Path_744" class="cls-16" d="M30.23,26.59c.22,.04,.43-.1,.47-.33,.04-.22-.1-.43-.31-.47,0,0,0,0,0,0-.22-.04-.43,.1-.48,.32-.04,.22,.1,.43,.32,.48,0,0,0,0,0,0m.15-.68c.09,.02,.16,.11,.14,.2-.02,.1-.11,.16-.2,.14-.09-.01-.16-.1-.15-.2,.01-.1,.1-.16,.19-.15,0,0,.01,0,.02,0"/><path id="Path_745" class="cls-4" d="M30.32,26.26c.09,.02,.18-.04,.2-.14,.02-.1-.04-.19-.14-.21,0,0,0,0,0,0-.09-.02-.18,.04-.2,.14-.02,.09,.04,.19,.13,.2,0,0,0,0,0,0"/><path id="Path_746" class="cls-16" d="M42.24,25.31c-.96,.2-1.71,.96-1.91,1.94,.03,.1,.09,.19,.17,.25,.11-.46,.31-.89,.61-1.26h0c.08-.09,.17-.17,.26-.24,.03-.02,.06-.04,.09-.06,.08-.06,.17-.12,.26-.16,.04-.02,.07-.04,.11-.05,.15-.07,.3-.12,.45-.15,.2-.05,.4-.08,.6-.1,.06,0,.12,0,.18,0h.44c.77,.08,1.24,.4,1.21,.59-.08,.4-.34,.75-.69,.94,.32-.14,.61-.35,.83-.63,.12-.24,.06-.54-.14-.72-.76-.44-1.66-.56-2.5-.34"/><path id="Path_747" class="cls-4" d="M42.67,27.49c-.16,.03-.32,.03-.47,0-.53,.07-1.06,.1-1.59,.1-.04-.03-.07-.06-.1-.09v.04c-.11,.3,2.31,.27,3.55-.54-.3,.14-.62,.25-.95,.33-.13,.08-.28,.14-.43,.16"/><path id="Path_748" class="cls-4" d="M42.3,25.57c.2-.05,.4-.08,.6-.1-.2,.02-.4,.05-.6,.1"/><path id="Path_749" class="cls-4" d="M41.73,25.77s.07-.04,.11-.05c-.04,.02-.08,.04-.11,.05"/><path id="Path_750" class="cls-4" d="M41.38,25.99s.06-.04,.09-.06c-.03,.02-.06,.04-.09,.06"/><path id="Path_752" class="cls-4" d="M43.07,25.46h.36c-.12,0-.23,0-.36,0"/><path id="Path_753" class="cls-4" d="M44.74,26.06c.03-.2-.45-.52-1.21-.59,.1,.15,.16,.31,.19,.48,.1,.55-.15,1.1-.63,1.38,.33-.08,.64-.19,.95-.33,.36-.19,.61-.54,.69-.94"/><path id="Path_754" class="cls-4" d="M42.19,27.5c-.53-.09-.96-.51-1.07-1.05-.01-.07-.02-.13-.02-.2-.29,.37-.5,.8-.61,1.26,.03,.04,.06,.07,.1,.09,.53,0,1.06-.03,1.59-.1"/><path id="Path_755" class="cls-8" d="M41.47,25.93c.08-.06,.17-.11,.26-.16-.09,.05-.18,.1-.26,.16"/><path id="Path_756" class="cls-8" d="M41.85,25.72c.15-.06,.3-.12,.45-.15-.15,.04-.31,.09-.45,.15"/><path id="Path_757" class="cls-8" d="M43.52,25.47h-.08s.06,0,.09,0h0"/><path id="Path_758" class="cls-8" d="M42.9,25.47c.06,0,.12,0,.18,0-.06,0-.12,0-.18,0"/><path id="Path_759" class="cls-8" d="M41.12,26.23c.08-.09,.17-.17,.26-.24-.1,.07-.18,.15-.26,.24"/><path id="Path_761" class="cls-8" d="M42.67,27.49c.15-.03,.3-.08,.43-.16-.3,.07-.61,.13-.9,.16,.16,.03,.32,.03,.47,0"/><path id="Path_762" class="cls-8" d="M42.19,27.49c.29-.04,.6-.09,.9-.16,.47-.28,.72-.83,.63-1.38-.03-.17-.1-.34-.19-.48-.03,0-.06,0-.09,0-.11,0-.23,0-.36,0-.06,0-.12,0-.18,0-.2,.02-.4,.05-.6,.1-.15,.04-.3,.09-.45,.15-.04,.02-.08,.04-.11,.05-.09,.05-.18,.1-.27,.16-.03,.02-.06,.04-.09,.06-.09,.07-.18,.15-.26,.24h0c0,.07,0,.13,.02,.2,.11,.54,.53,.96,1.06,1.06m.17-1.69c.22-.04,.42,.1,.47,.32,.04,.22-.1,.43-.31,.47,0,0,0,0-.01,0-.22,.04-.42-.11-.47-.33-.04-.22,.1-.43,.32-.47,0,0,0,0,0,0"/><path id="Path_763" class="cls-16" d="M42.51,26.59c.21-.04,.36-.24,.32-.46,0,0,0,0,0-.01-.04-.22-.25-.37-.47-.32-.21,.04-.36,.24-.32,.46,0,0,0,0,0,0,.04,.22,.25,.37,.47,.33m-.14-.68c.09-.02,.18,.04,.2,.14,.02,.1-.04,.19-.14,.21,0,0,0,0,0,0-.09,.03-.19-.03-.21-.12-.02-.09,.03-.19,.12-.22,0,0,.02,0,.03,0"/><path id="Path_764" class="cls-4" d="M42.43,26.26c.09-.02,.16-.11,.14-.2-.02-.09-.11-.16-.2-.14-.09,.02-.16,.11-.14,.21,.02,.1,.11,.16,.2,.14,0,0,0,0,0,0"/><path id="Path_765" class="cls-17" d="M47.59,24.09c-.07-.02-.16-.03-.24-.04,.04,.4,.08,.81,.09,1.23,.27,.05,.52,.17,.72,.37,.04-.04,.06-.09,.07-.14v-.05c0-.35-.03-.97-.04-1.11v-.03s-.03-.05-.06-.07h-.01s-.1-.04-.1-.04c-.05,.4-.1,.8-.18,1.2-.09-.44-.17-.88-.25-1.31"/><path id="Path_766" class="cls-17" d="M25.43,25.26c.02-.41,.05-.81,.09-1.21l-.25,.03c-.08,.41-.15,.83-.23,1.24-.08-.39-.15-.78-.2-1.18-.32,.05-.63,.12-.94,.23h-.01s-.05,.04-.06,.07v.03c0,.14-.04,.76-.03,1.11v.05c.02,.1,.09,.19,.19,.22h.01c.12,.06,.22,.15,.29,.26,.24-.45,.66-.76,1.15-.86"/><path id="Path_767" class="cls-17" d="M45.89,23.88c-.06,.37-.12,.69-.16,.93,.3,.2,.54,.48,.69,.8,.23-.22,.53-.36,.84-.37,.06,0,.12,.02,.17,.04-.02-.41-.05-.82-.1-1.23-.4-.07-.9-.13-1.46-.17"/><path id="Path_768" class="cls-17" d="M45.23,23.83c.08,.28,.15,.55,.22,.83,.06,.03,.11,.05,.17,.08-.05-.3-.1-.6-.16-.9-.08,0-.16-.01-.23-.02"/><path id="Path_769" class="cls-17" d="M44.46,30.62c-1.28,.26-2.61,.19-3.86-.2-.78-.25-1.41-.82-1.74-1.58-.49-.85-1.07-2.21-.78-3.19,.27-.91,1.5-1.07,2.19-1.22,1.53-.28,3.1-.27,4.63,.04-.11-.23-.23-.46-.35-.69-1.35-.07-2.71-.04-4.06,.1-2.33,.28-3.71,.93-4.48,.95-.77-.02-2.16-.65-4.49-.9-2-.15-4.01-.12-6,.11-.04,.4-.07,.8-.09,1.21,.04,0,.08-.03,.12-.03,.12,0,.23,.03,.34,.07,.22-.28,.52-.49,.85-.61,1.64-.44,3.36-.5,5.03-.2,.69,.14,1.92,.29,2.21,1.19,.3,.98-.27,2.34-.74,3.2-.32,.76-.95,1.35-1.72,1.6-1.25,.4-2.57,.48-3.85,.24-.02,.17-.04,.35-.07,.51,1.32,.2,4.05,.3,5.57-.99,.49-.52,.88-1.13,1.15-1.79,.2-.5,.75-1.94,.83-2.16,.09-.38,.42-.64,.8-.63h.18c.38-.01,.71,.25,.8,.62,.08,.22,.64,1.65,.86,2.15,.29,.66,.68,1.26,1.17,1.78,1.85,1.54,5.46,1.03,6.21,.79,.05-.02,.08-.04,.12-.06-.03-.19-.05-.37-.07-.58-.23,.13-.48,.22-.74,.26"/><path id="Path_770" class="cls-17" d="M25.39,26.68v-.3c0-.38,.02-.75,.04-1.13-.49,.1-.91,.42-1.15,.86,.32,.57,.54,1.19,.64,1.84,.1,.69,.31,1.37,.63,1.99-.09-.95-.14-1.9-.16-2.84,0-.15,0-.29,0-.44"/><path id="Path_771" class="cls-17" d="M25.39,26.68c0-.17,.03-.35,.06-.52,.08-.31,.23-.61,.43-.85-.11-.04-.22-.07-.34-.07-.04,0-.08,.02-.12,.03-.02,.37-.04,.74-.04,1.13v.3"/><path id="Path_772" class="cls-17" d="M27.64,30.72c-.86-.12-1.57-.73-1.84-1.57-.19-.67-.33-1.35-.41-2.04,.02,.94,.07,1.89,.16,2.84,.31,.55,.81,.96,1.4,1.15,.21,.06,.41,.1,.63,.13,.03-.16,.05-.34,.08-.51h-.01Z"/><path id="Path_773" class="cls-17" d="M47.44,25.27c.02,.37,.04,.73,.04,1.11v.18c.22-.6,.42-.78,.56-.83h.01s.08-.05,.11-.09c-.2-.19-.45-.32-.72-.37"/><path id="Path_774" class="cls-17" d="M47.13,27.84c.09-.43,.2-.86,.35-1.28v-.18c0-.38-.02-.74-.04-1.11-.06-.02-.11-.03-.17-.04-.32,.01-.62,.15-.85,.37,.07,.14,.13,.28,.17,.43,.12,1.01,.01,2.04-.31,3-.17,.58-.57,1.06-1.09,1.33,.02,.2,.04,.39,.07,.57,1.52-.59,1.71-2.28,1.87-3.1"/><path id="Path_775" class="cls-17" d="M25.27,24.08c-.16,.02-.3,.04-.44,.06,.05,.4,.12,.79,.2,1.18,.09-.42,.16-.83,.23-1.24"/><path id="Path_776" class="cls-17" d="M47.84,25.4c.08-.39,.13-.79,.18-1.2-.14-.05-.29-.08-.44-.11,.08,.43,.16,.87,.25,1.31"/><path id="Path_777" class="cls-13" d="M27.83,16.51c-1.36,1.49-1.84,3.51-2.25,5.79l.17,.05c.37-2.05,1.07-4.03,2.07-5.84"/><path id="Path_778" class="cls-13" d="M46.57,20.12c.03-.19,.06-.37,.09-.55-.31-1.13-.86-2.17-1.62-3.04,.64,1.14,1.15,2.34,1.53,3.59"/><path id="Path_779" class="cls-13" d="M45.68,25.19c0-.07,.03-.2,.05-.38-.04-.02-.08-.04-.12-.06,.02,.15,.05,.29,.07,.44"/><path id="Path_780" class="cls-13" d="M44.44,21.62c-.79-1.87-2.14-4.13-4.43-5.04,.18,.05,.36,.11,.54,.18,1.1,.4,2.1,1.05,2.93,1.9,.59,.75,1.02,1.61,1.29,2.54,.29,.87,.52,1.75,.69,2.65,.15,0,.3,.02,.44,.03,.19-1.06,.46-2.53,.68-3.75-.38-1.25-.89-2.46-1.53-3.59-1.47-1.61-3.99-2.6-8.61-2.6s-7.12,.98-8.6,2.58c-1,1.82-1.7,3.79-2.07,5.84,2.08,.47,4.25,.24,6.2-.65,2.08-.88,4.39-2.35,6.92-2.05,1.18,.1,2.32,.48,3.33,1.1,.75,.6,1.37,1.34,1.84,2.18,.17,.28,.34,.57,.5,.86,.23,.01,.46,.02,.68,.03-.22-.75-.48-1.49-.78-2.21"/><path id="Path_781" class="cls-13" d="M45.81,26.47c-.09-.61-.21-1.21-.36-1.81-.05-.02-.1-.05-.15-.07-.12-.04-.26-.08-.4-.11,.33,.66,.62,1.34,.88,2.03,0-.01,.02-.03,.03-.04"/><path id="Path_782" class="cls-13" d="M45.84,26.66c0-.06-.02-.12-.03-.18,0,.02-.02,.03-.03,.04,.02,.05,.04,.1,.06,.14"/><path id="Path_783" class="cls-13" d="M29.47,14.17c-3.86,3.64-4.74,7.86-4.31,8.01,.14,.05,.28,.08,.43,.12,.41-2.29,.88-4.3,2.25-5.79,.47-.83,1.02-1.62,1.64-2.34"/><path id="Path_784" class="cls-13" d="M45.04,16.53c.76,.87,1.31,1.92,1.62,3.04,.07-.37,.12-.71,.16-.98,.35-2.42-4.48-9.6-5.83-9.44-2.3,.24-4.55,.85-6.67,1.79,.69-.2,1.4-.3,2.11-.3,3.48,0,6.58,2.3,8.61,5.89"/><path id="Path_785" class="cls-13" d="M36.43,13.93c4.62,0,7.14,.98,8.61,2.6-2.03-3.59-5.13-5.89-8.61-5.89-.71,0-1.42,.1-2.11,.3-1.78,.79-3.42,1.89-4.85,3.23-.62,.72-1.17,1.51-1.64,2.34,1.47-1.61,3.99-2.58,8.6-2.58"/><path id="Path_786" class="cls-13" d="M45.61,24.74s.08,.03,.12,.06c.04-.24,.09-.56,.16-.93-.14-.02-.29-.02-.44-.03,.06,.3,.11,.6,.16,.9"/><path id="Path_787" class="cls-13" d="M45.45,24.66c-.07-.28-.14-.56-.22-.83-.22-.02-.45-.02-.68-.03,.12,.23,.23,.46,.35,.68,.13,.03,.27,.07,.4,.11,.05,.02,.1,.05,.15,.07"/></g></g></g></svg>