<?xml version="1.0" encoding="UTF-8"?><svg id="Layer_21" xmlns="http://www.w3.org/2000/svg" xmlns:xlink="http://www.w3.org/1999/xlink" viewBox="0 0 72 72"><defs><style>.cls-1{fill:none;}.cls-2{clip-path:url(#clippath);}.cls-3{fill:#e9caab;}.cls-4{fill:#fff;}.cls-5{fill:#fbb316;}.cls-6{fill:#fcd8b0;}.cls-7{fill:#e66b5b;}.cls-8{fill:#8cc4c6;}.cls-9{fill:#b28967;}.cls-10{fill:#d4d4c6;}.cls-11{fill:#130d0a;}.cls-12{fill:#110e0d;}.cls-13{fill:#72411b;}.cls-14{fill:#298291;}.cls-15{fill:#4a494a;}.cls-16{fill:#256b7c;}</style><clipPath id="clippath"><rect class="cls-1" width="72" height="72"/></clipPath></defs><g id="Group_462"><g class="cls-2"><g id="Group_461"><path id="Path_1385" class="cls-10" d="M72,36c0,19.88-16.12,36-36,36S0,55.88,0,36,16.11,0,36,0s36,16.12,36,36"/><rect id="Rectangle_372" class="cls-16" x="26.55" y="51.36" width="18.77" height="8.38"/><path id="Path_1386" class="cls-15" d="M52.21,29.95c-.1,9.05-7.35,16.3-16.21,16.2-8.85,.1-16.11-7.15-16.2-16.2,.1-9.05,7.35-16.3,16.2-16.2,0,0,0,0,0,0,8.85-.1,16.11,7.15,16.21,16.2"/><path id="Path_2161" class="cls-3" d="M30.07,42.92l11.81-.04,.05,17.32-11.81,.04-.05-17.32Z"/><path id="Path_1387" class="cls-6" d="M51.63,32.69c0,2.3-.9,4.17-2.02,4.17s-2.02-1.86-2.02-4.17,.91-4.17,2.02-4.17,2.02,1.87,2.02,4.17"/><path id="Path_1388" class="cls-6" d="M24.41,32.69c0,2.3-.9,4.17-2.02,4.17s-2.02-1.86-2.02-4.17,.9-4.17,2.02-4.17,2.02,1.87,2.02,4.17"/><path id="Path_1389" class="cls-6" d="M36.52,10.44h-.96c-9.42,0-13.98,10.92-13.98,17.71s5.1,21.02,14.46,21.17c9.35-.15,14.38-14.41,14.38-21.17s-4.47-17.71-13.9-17.71"/><path id="Path_1390" class="cls-15" d="M50.46,28.29v-.03s-.03-.07-.07-.09h-.02c-1.21-.55-6.3-.86-9.04-.52-2.77,.35-4.41,1.19-5.32,1.21-.91-.03-2.56-.87-5.32-1.21-2.75-.35-7.84-.04-9.05,.51h-.02s-.06,.05-.07,.09v.03c-.01,.19-.06,1-.04,1.46v.07c.02,.13,.1,.24,.22,.29h.02c.24,.12,.66,.57,1.09,2.78,.2,1.1,.43,3.42,2.38,4.13,.88,.31,5.17,.96,7.36-1.08,.59-.69,1.05-1.48,1.38-2.34,.24-.65,.9-2.54,1-2.83,.08-.47,.47-.82,.94-.82h.22c.47,0,.87,.35,.95,.82,.1,.28,.75,2.17,1,2.83,.33,.85,.79,1.64,1.38,2.34,2.19,2.04,6.47,1.4,7.36,1.08,1.94-.71,2.18-3.03,2.38-4.13,.43-2.21,.85-2.66,1.09-2.77,0,0,.01,0,.02,0,.12-.05,.2-.16,.22-.29,0-.02,0-.05,0-.07,.01-.46-.03-1.27-.04-1.46m-17.79,5.86c-.36,.97-1.11,1.72-2.05,2.08-1.47,.52-3.05,.62-4.58,.29-1.06-.2-1.9-1.01-2.18-2.08-.39-1.27-.53-2.61-.39-3.93,.16-.86,.74-1.57,1.53-1.91,1.94-.56,3.99-.64,5.97-.23,.82,.19,2.28,.4,2.61,1.58,.35,1.28-.33,3.07-.91,4.19m15.5,.3c-.27,1.06-1.12,1.87-2.18,2.08-1.52,.33-3.1,.23-4.58-.29-.95-.35-1.7-1.11-2.06-2.08-.57-1.13-1.25-2.91-.9-4.19,.33-1.18,1.79-1.38,2.61-1.58,1.98-.41,4.02-.33,5.97,.23,.79,.33,1.37,1.05,1.53,1.91,.14,1.32,0,2.66-.39,3.93"/><path id="Path_1391" class="cls-5" d="M56.5,24.71c0,2.86-9.18,5.18-20.49,5.18s-20.5-2.32-20.5-5.18,9.18-5.18,20.49-5.18,20.49,2.32,20.49,5.18"/><path id="Path_1392" class="cls-5" d="M40.91,6.72c-2.38,0-2.57,1.49-4.89,1.52-2.32-.03-2.51-1.52-4.89-1.52-5.55,0-9.5,15.1-9.5,15.1,0,1.33,1.27,2.42,2.83,2.42l10.48,1.46h2.14l10.48-1.46c1.42,.12,2.66-.95,2.78-2.4,0,0-3.91-15.11-9.45-15.11"/><path id="Path_1393" class="cls-15" d="M50.49,22.52c-.17-.94-.41-1.86-.72-2.76-3.49,2.3-8.36,3.71-13.76,3.74,0,.06,0,.13,0,.19,0-.06,0-.13,0-.19-5.4-.03-10.27-1.43-13.76-3.74-.31,.9-.55,1.82-.72,2.76-.09,.7,.54,1.31,1.34,1.74,3.96,2.32,8.45,3.52,13.01,3.47h0s.28,0,.28,0h0c4.56,.04,9.05-1.15,13.01-3.48,.8-.43,1.43-1.05,1.34-1.74"/><path id="Path_1394" class="cls-7" d="M22.86,57.77c-.02-1.89-1.53-3.4-3.38-3.37-.58,0-1.15,.16-1.66,.46v5.84c.51,.29,1.08,.45,1.66,.45,1.84,.02,3.36-1.48,3.38-3.37,0,0,0,0,0,0"/><path id="Path_1395" class="cls-7" d="M48.88,57.77c.02,1.88,1.53,3.39,3.37,3.37,0,0,0,0,0,0,.69,0,1.36-.21,1.92-.61v-5.53c-.57-.39-1.24-.61-1.92-.61-1.84-.02-3.35,1.49-3.38,3.37"/><path id="Path_1396" class="cls-7" d="M25.52,63.17c-1.82,.04-3.27,1.59-3.22,3.45s1.55,3.34,3.38,3.3c1.79-.04,3.22-1.54,3.22-3.37-.02-1.88-1.53-3.39-3.37-3.37,0,0,0,0-.01,0"/><path id="Path_1397" class="cls-7" d="M39.82,66.55c.04-1.9-1.44-3.48-3.3-3.52s-3.4,1.47-3.44,3.37c-.04,1.9,1.44,3.48,3.3,3.52,.02,0,.05,0,.07,0,1.84,.02,3.35-1.48,3.37-3.37,0,0,0,0,0,0"/><path id="Path_1398" class="cls-7" d="M47.38,69.92c1.82-.04,3.27-1.59,3.23-3.45-.04-1.86-1.55-3.34-3.38-3.3-1.79,.04-3.23,1.54-3.23,3.37,.02,1.88,1.53,3.39,3.37,3.37,0,0,0,0,0,0"/><path id="Path_1399" class="cls-14" d="M36,63.01c6.46,.04,12.2-4.18,14.22-10.45l-4.91-1.19c-1.97,5.3-7.76,7.96-12.95,5.95-2.68-1.04-4.8-3.21-5.82-5.95l-4.78,1.16c2.01,6.29,7.76,10.53,14.23,10.49"/><path id="Path_1400" class="cls-7" d="M25.52,63.17c-1.82,.04-3.27,1.59-3.22,3.45s1.55,3.34,3.38,3.3c1.79-.04,3.22-1.54,3.22-3.37-.02-1.88-1.53-3.39-3.37-3.37,0,0,0,0-.01,0"/><path id="Path_1401" class="cls-7" d="M36.45,63.17c-1.82,.04-3.27,1.58-3.23,3.45,.04,1.86,1.55,3.34,3.37,3.3,1.79-.04,3.23-1.54,3.23-3.37-.02-1.88-1.53-3.39-3.37-3.37,0,0,0,0,0,0"/><path id="Path_1402" class="cls-7" d="M47.38,63.17c-1.82,.04-3.27,1.58-3.23,3.44,.04,1.86,1.55,3.34,3.37,3.3,1.8-.04,3.23-1.54,3.23-3.37-.02-1.88-1.53-3.39-3.37-3.37h0"/><path id="Path_1403" class="cls-8" d="M52.26,61.14c-1.82,.05-3.34-1.42-3.39-3.28-.05-1.86,1.39-3.41,3.21-3.46,.06,0,.12,0,.18,0,.69,0,1.36,.21,1.93,.61v-1.48l-3.96-.96c-2.64,8.03-11.15,12.35-19,9.65-4.47-1.53-7.97-5.12-9.46-9.69l-3.95,1v1.33c.51-.3,1.08-.45,1.66-.46,1.82-.05,3.34,1.42,3.39,3.28,.05,1.86-1.39,3.41-3.21,3.46-.06,0-.12,0-.18,0-.58,0-1.15-.16-1.66-.45v4.91c.09,.31,.14,.63,.15,.95,0,.19-.02,.38-.06,.57,11.26,6.52,25.04,6.5,36.28-.05v-6.54c-.57,.4-1.24,.61-1.93,.61m-26.74,8.78c-1.82-.04-3.27-1.59-3.22-3.45,.04-1.86,1.55-3.34,3.38-3.3,1.79,.04,3.22,1.54,3.22,3.37-.02,1.88-1.53,3.4-3.37,3.37,0,0,0,0,0,0m10.93,0c-1.82-.04-3.27-1.58-3.23-3.45,.04-1.86,1.55-3.34,3.37-3.3,1.79,.04,3.23,1.54,3.23,3.37-.02,1.88-1.53,3.39-3.37,3.37m10.93,0c-1.82-.04-3.27-1.58-3.23-3.44,.04-1.86,1.55-3.34,3.37-3.3,1.8,.04,3.23,1.54,3.23,3.37-.02,1.88-1.53,3.39-3.37,3.37"/><path id="Path_1404" class="cls-9" d="M38.31,40.19c-.15-.2-.57-.18-.61-.18-.21,.02-.41,.09-.59,.2l-.06,.04c-.32,.21-.68,.33-1.06,.36-.38-.02-.74-.14-1.06-.35l-.07-.03c-.18-.12-.38-.18-.59-.19-.05,0-.46-.01-.6,.19-.06,.08-.07,.19-.01,.28,.1,.14,.26,.21,.42,.18,.25,.01,.49-.03,.72-.13,.36,.22,.77,.35,1.19,.36h0s.03,0,.03,0h0c.42-.03,.82-.16,1.18-.39,.23,.09,.47,.13,.72,.13,.16,.02,.32-.05,.42-.18,.05-.09,.05-.2-.01-.29"/><path id="Path_1405" class="cls-7" d="M34.76,43.13c.42,.18,.86,.31,1.3,.4,.35,0,.41-.23,1.09-.38,.42-.09,1.55,.22,2.21-.37-1.49,2.68-2.02,2.27-3.37,2.29-1.27,.02-1.88,.16-3.3-2.3,.18,.32,1.52,.27,2.06,.37"/><path id="Path_1406" class="cls-4" d="M32.63,33.78s-1.45-2.96-4.26-2.8c-3.02,.16-3.3,2.21-3.3,2.21,.78,1.33,2.29,2.02,3.78,1.75,1.31-.18,2.59-.57,3.78-1.16"/><path id="Path_1407" class="cls-13" d="M26.75,32.33c-.18,1.03,.49,2.02,1.5,2.21,0,0,0,0,0,0,1.01,.2,2-.47,2.21-1.5,.19-1.02-.47-2.01-1.47-2.2,0,0-.02,0-.03,0-1.02-.21-2.01,.47-2.21,1.5"/><path id="Path_1408" class="cls-11" d="M27.32,32.22c-.14,.73,.33,1.43,1.05,1.57,0,0,.02,0,.02,0,.72,.15,1.43-.33,1.58-1.07,.13-.73-.34-1.44-1.06-1.58,0,0-.01,0-.02,0-.73-.15-1.43,.33-1.58,1.07"/><path id="Path_1409" class="cls-4" d="M28.55,32.02c-.05,.27,.12,.52,.38,.57,.26,.05,.51-.12,.57-.39,.05-.26-.12-.52-.38-.57,0,0,0,0,0,0-.26-.05-.51,.12-.57,.38"/><path id="Path_1410" class="cls-4" d="M27.87,32.07c-.03,.14,.07,.28,.21,.31s.27-.07,.3-.21h0c.03-.14-.06-.27-.2-.3,0,0,0,0,0,0-.14-.03-.28,.07-.31,.21"/><path id="Path_1411" class="cls-12" d="M32.63,33.78s-2.13-4.28-7.61-.7c.37-1.4,4.46-5.04,7.61,.7"/><path id="Path_1412" class="cls-4" d="M39.78,33.78s1.45-2.96,4.26-2.8c3.01,.16,3.3,2.21,3.3,2.21-.78,1.33-2.29,2.02-3.78,1.75-1.31-.17-2.59-.57-3.78-1.16"/><path id="Path_1413" class="cls-13" d="M45.66,32.33c.19,1.03-.48,2.02-1.48,2.21,0,0-.01,0-.02,0-1.02,.2-2-.46-2.22-1.5-.19-1.03,.48-2.02,1.48-2.21,0,0,.02,0,.02,0,1.02-.21,2,.46,2.21,1.5"/><path id="Path_1414" class="cls-11" d="M45.1,32.22c.13,.73-.34,1.44-1.06,1.57,0,0-.01,0-.02,0-.73,.15-1.43-.33-1.58-1.07-.14-.73,.34-1.44,1.05-1.58,0,0,.01,0,.02,0,.73-.15,1.43,.33,1.58,1.07"/><path id="Path_1415" class="cls-4" d="M43.87,32.02c.05,.26-.12,.52-.38,.57,0,0,0,0,0,0-.26,.05-.51-.12-.57-.39-.05-.27,.13-.52,.38-.57,0,0,0,0,0,0,.26-.05,.51,.12,.57,.38"/><path id="Path_1416" class="cls-4" d="M44.55,32.07c.03,.14-.06,.28-.2,.3,0,0,0,0,0,0-.14,.03-.27-.06-.3-.2-.03-.14,.06-.28,.2-.31,.14-.03,.28,.07,.31,.21"/><path id="Path_1417" class="cls-12" d="M39.78,33.78s2.13-4.28,7.61-.7c-.37-1.4-4.46-5.04-7.61,.7"/></g></g></g></svg>