<?xml version="1.0" encoding="UTF-8"?><svg id="Layer_28" xmlns="http://www.w3.org/2000/svg" xmlns:xlink="http://www.w3.org/1999/xlink" viewBox="0 0 72 72"><defs><style>.cls-1{fill:none;}.cls-2{clip-path:url(#clippath);}.cls-3{fill:#017d8d;}.cls-4{fill:#e9caab;}.cls-5{fill:#fff;}.cls-6{fill:#fcd8b0;}.cls-7{fill:#e66b5b;}.cls-8{fill:#cca884;}.cls-9{fill:#d4d4c6;}.cls-10{fill:#130d0a;}.cls-11{fill:#110e0d;}.cls-12{fill:#42b5e8;}.cls-13{fill:#454342;}.cls-14{fill:#3f4ba0;}.cls-15{fill:#2c2c2c;}</style><clipPath id="clippath"><rect class="cls-1" width="72" height="72"/></clipPath></defs><g id="Group_448"><g class="cls-2"><g id="Group_447"><path id="Path_835" class="cls-9" d="M72,36c0,19.88-16.12,36-36,36S0,55.88,0,36,16.12,0,36,0s36,16.12,36,36"/><path id="Path_836" class="cls-15" d="M27.75,53.05h17.06s2.66,3.15,2.66,3.15l-9.46,6.41-10.71-2.2-.8-5.87,1.26-1.49Z"/><path id="Path_837" class="cls-7" d="M56.34,37.46c.06,2.1-1.6,3.85-3.7,3.9-2.1,.06-3.85-1.6-3.9-3.7-.06-2.1,1.6-3.85,3.7-3.9,.03,0,.07,0,.1,0,2.07-.03,3.77,1.63,3.8,3.7,0,0,0,0,0,0"/><path id="Path_838" class="cls-7" d="M53.75,42.91c.06,2.1-1.6,3.85-3.7,3.9-2.1,.06-3.85-1.6-3.9-3.7-.06-2.1,1.6-3.85,3.7-3.9,.04,0,.07,0,.11,0,2.07-.03,3.77,1.63,3.8,3.7h0"/><path id="Path_839" class="cls-7" d="M50.61,47.02c.06,2.1-1.6,3.85-3.7,3.9s-3.85-1.6-3.9-3.7c-.06-2.1,1.6-3.85,3.7-3.9,.03,0,.07,0,.1,0,2.07-.03,3.77,1.63,3.8,3.7"/><path id="Path_840" class="cls-7" d="M27.94,45.17c.06,2.1-1.6,3.85-3.69,3.9s-3.85-1.6-3.9-3.69c-.06-2.1,1.6-3.85,3.69-3.9,.03,0,.07,0,.1,0,2.07-.03,3.77,1.62,3.8,3.69,0,0,0,0,0,0"/><path id="Path_841" class="cls-7" d="M20.43,32.28c.06,2.1-1.6,3.85-3.69,3.91s-3.85-1.6-3.91-3.69c-.06-2.1,1.6-3.85,3.69-3.91,.03,0,.07,0,.1,0,2.07-.03,3.78,1.62,3.81,3.7,0,0,0,0,0,0"/><path id="Path_842" class="cls-7" d="M21.66,38.39c.06,2.1-1.6,3.85-3.7,3.9-2.1,.06-3.85-1.6-3.9-3.7-.06-2.1,1.6-3.85,3.7-3.9,.03,0,.07,0,.1,0,2.07-.03,3.77,1.63,3.8,3.7"/><path id="Path_843" class="cls-7" d="M23.57,43.97c.06,2.1-1.6,3.85-3.69,3.9s-3.85-1.6-3.9-3.69,1.6-3.85,3.69-3.9c.03,0,.07,0,.1,0,2.07-.03,3.77,1.63,3.8,3.7"/><path id="Path_844" class="cls-7" d="M27.26,47.82c.06,2.1-1.6,3.85-3.7,3.9-2.1,.06-3.85-1.6-3.9-3.7s1.6-3.85,3.7-3.9c.03,0,.07,0,.1,0,2.07-.03,3.77,1.62,3.8,3.7,0,0,0,0,0,0"/><path id="Path_845" class="cls-7" d="M32.17,48.48c.06,2.1-1.59,3.85-3.69,3.91-2.1,.06-3.85-1.59-3.91-3.69-.06-2.1,1.59-3.85,3.69-3.91,.04,0,.07,0,.11,0,2.07-.03,3.77,1.63,3.8,3.69"/><path id="Path_846" class="cls-7" d="M47.88,49.02c.06,2.1-1.6,3.85-3.69,3.91-2.1,.06-3.85-1.6-3.91-3.69s1.6-3.85,3.69-3.91c.03,0,.07,0,.1,0,2.07-.03,3.77,1.63,3.8,3.7"/><path id="Path_847" class="cls-7" d="M59.48,27.23c.06,2.1-1.59,3.85-3.69,3.91-2.1,.06-3.85-1.59-3.91-3.69s1.59-3.85,3.69-3.91c.04,0,.07,0,.11,0,2.07-.03,3.77,1.62,3.8,3.69"/><path id="Path_848" class="cls-7" d="M56.89,21.39c.06,2.1-1.6,3.85-3.7,3.9-2.1,.06-3.85-1.6-3.9-3.7-.06-2.1,1.6-3.85,3.7-3.9,.03,0,.07,0,.1,0,2.07-.03,3.77,1.62,3.8,3.69,0,0,0,0,0,0"/><path id="Path_849" class="cls-7" d="M54.7,15.55c.06,2.1-1.6,3.85-3.7,3.9-2.1,.06-3.85-1.6-3.9-3.7-.06-2.1,1.6-3.85,3.7-3.9,.03,0,.07,0,.1,0,2.07-.03,3.77,1.62,3.8,3.69,0,0,0,0,0,0"/><path id="Path_850" class="cls-7" d="M22.21,20.06c.06,2.1-1.6,3.85-3.7,3.9-2.1,.06-3.85-1.6-3.9-3.7s1.6-3.85,3.7-3.9c.03,0,.07,0,.1,0,2.07-.03,3.77,1.63,3.8,3.7"/><path id="Path_851" class="cls-7" d="M21.39,23.65c.06,2.1-1.6,3.85-3.7,3.9-2.1,.06-3.85-1.6-3.9-3.7-.06-2.1,1.6-3.85,3.7-3.9,.03,0,.07,0,.1,0,2.07-.03,3.77,1.62,3.8,3.69,0,0,0,0,0,0"/><path id="Path_852" class="cls-7" d="M19.61,27.77c.06,2.1-1.6,3.85-3.69,3.9s-3.85-1.6-3.9-3.69,1.6-3.85,3.69-3.9c.03,0,.07,0,.1,0,2.07-.03,3.77,1.63,3.8,3.7"/><path id="Path_853" class="cls-7" d="M59.21,32.94c.06,2.1-1.59,3.85-3.69,3.91-2.1,.06-3.85-1.59-3.91-3.69s1.59-3.85,3.69-3.91c.04,0,.07,0,.11,0,2.07-.03,3.77,1.62,3.8,3.69"/><path id="Path_854" class="cls-7" d="M59.07,38.92c.06,2.1-1.6,3.85-3.7,3.9s-3.85-1.6-3.9-3.7c-.06-2.1,1.6-3.85,3.7-3.9,.03,0,.07,0,.1,0,2.07-.03,3.77,1.62,3.8,3.69,0,0,0,0,0,0"/><path id="Path_855" class="cls-7" d="M56.21,43.84c.06,2.1-1.6,3.85-3.7,3.9s-3.85-1.6-3.9-3.7,1.6-3.85,3.7-3.9c.03,0,.07,0,.1,0,2.07-.03,3.77,1.63,3.8,3.7"/><path id="Path_856" class="cls-7" d="M53.34,48.48c.06,2.1-1.6,3.85-3.69,3.91-2.1,.06-3.85-1.6-3.91-3.69-.06-2.1,1.6-3.85,3.69-3.91,.03,0,.07,0,.1,0,2.07-.03,3.77,1.62,3.8,3.69,0,0,0,0,0,0"/><path id="Path_857" class="cls-7" d="M57.16,33.34c.06,2.1-1.6,3.85-3.7,3.9-2.1,.06-3.85-1.6-3.9-3.7-.06-2.1,1.6-3.85,3.7-3.9,.03,0,.07,0,.1,0,2.07-.03,3.77,1.63,3.8,3.7"/><path id="Path_858" class="cls-7" d="M24.25,33.22c.06,2.1-1.6,3.85-3.7,3.9-2.1,.06-3.85-1.6-3.9-3.7-.06-2.1,1.6-3.85,3.7-3.9,.03,0,.07,0,.1,0,2.07-.03,3.77,1.63,3.8,3.7,0,0,0,0,0,0"/><path id="Path_859" class="cls-7" d="M22.51,26.86c.06,2.1-1.6,3.85-3.7,3.9s-3.85-1.6-3.9-3.7c-.06-2.1,1.6-3.85,3.7-3.9,.03,0,.07,0,.1,0,2.07-.03,3.77,1.62,3.8,3.69,0,0,0,0,0,0"/><path id="Path_860" class="cls-7" d="M24.39,22.2c.06,2.1-1.6,3.85-3.7,3.9-2.1,.06-3.85-1.6-3.9-3.7-.06-2.1,1.6-3.85,3.7-3.9,.03,0,.07,0,.1,0,2.07-.03,3.77,1.63,3.8,3.7,0,0,0,0,0,0"/><path id="Path_861" class="cls-7" d="M24.69,16.12c.06,2.1-1.6,3.85-3.7,3.9-2.1,.06-3.85-1.6-3.9-3.7-.06-2.1,1.6-3.85,3.7-3.9,.03,0,.07,0,.1,0,2.07-.03,3.77,1.62,3.8,3.69,0,0,0,0,0,0"/><path id="Path_862" class="cls-7" d="M29.04,12.31c.06,2.1-1.6,3.84-3.7,3.9-2.1,.06-3.84-1.6-3.9-3.7-.06-2.1,1.6-3.84,3.7-3.9,.03,0,.07,0,.1,0,2.07-.03,3.77,1.63,3.8,3.7,0,0,0,0,0,0"/><path id="Path_863" class="cls-7" d="M34.27,9.9c-.06,2.1-1.81,3.75-3.91,3.69-2.01-.06-3.63-1.68-3.69-3.69,.06-2.1,1.81-3.75,3.91-3.69,2.01,.06,3.63,1.68,3.69,3.69"/><path id="Path_864" class="cls-7" d="M39.94,9.62c-.04,2.1-1.78,3.77-3.88,3.72-2.04-.04-3.68-1.68-3.72-3.72,.04-2.1,1.78-3.77,3.88-3.72,2.04,.04,3.68,1.68,3.72,3.72"/><path id="Path_865" class="cls-7" d="M45.31,10.47c-.07,2.1-1.84,3.74-3.94,3.66-1.99-.07-3.59-1.67-3.66-3.66,.07-2.1,1.84-3.74,3.94-3.66,1.99,.07,3.59,1.67,3.66,3.66"/><path id="Path_866" class="cls-7" d="M50.39,13.86c.06,2.1-1.6,3.85-3.7,3.9-2.1,.06-3.85-1.6-3.9-3.7s1.6-3.85,3.7-3.9c.03,0,.07,0,.1,0,2.07-.03,3.77,1.63,3.8,3.7,0,0,0,0,0,0"/><path id="Path_867" class="cls-7" d="M53.3,18.38c.06,2.1-1.6,3.85-3.7,3.9-2.1,.06-3.85-1.6-3.9-3.7-.06-2.1,1.6-3.85,3.7-3.9,.03,0,.07,0,.1,0,2.07-.03,3.77,1.63,3.8,3.7"/><path id="Path_868" class="cls-7" d="M55.04,23.61c.06,2.1-1.6,3.85-3.7,3.9-2.1,.06-3.85-1.6-3.9-3.7-.06-2.1,1.6-3.85,3.7-3.9,.03,0,.07,0,.1,0,2.07-.03,3.77,1.63,3.8,3.69,0,0,0,0,0,0"/><path id="Path_869" class="cls-7" d="M55.77,29.69c.06,2.1-1.6,3.85-3.7,3.91s-3.85-1.6-3.91-3.7,1.6-3.85,3.7-3.91c.04,0,.07,0,.11,0,2.07-.03,3.77,1.63,3.8,3.7h0"/><path id="Path_870" class="cls-7" d="M54.32,34.35c.06,2.1-1.6,3.85-3.69,3.91-2.1,.06-3.85-1.6-3.91-3.69-.06-2.1,1.6-3.85,3.69-3.91,.04,0,.07,0,.11,0,2.07-.03,3.77,1.63,3.8,3.7"/><path id="Path_871" class="cls-7" d="M52.57,40c.06,2.1-1.6,3.85-3.7,3.9s-3.85-1.6-3.9-3.7c-.06-2.1,1.6-3.85,3.7-3.9,.03,0,.07,0,.1,0,2.07-.03,3.77,1.63,3.8,3.69,0,0,0,0,0,0"/><path id="Path_872" class="cls-7" d="M48.8,43.96c.06,2.1-1.6,3.85-3.7,3.9s-3.85-1.6-3.9-3.7,1.6-3.85,3.7-3.9c.03,0,.07,0,.1,0,2.07-.03,3.77,1.63,3.8,3.7,0,0,0,0,0,0"/><path id="Path_873" class="cls-7" d="M45.17,46.5c.06,2.1-1.6,3.85-3.69,3.91-2.1,.06-3.85-1.6-3.91-3.69-.06-2.1,1.6-3.85,3.69-3.91,.03,0,.07,0,.1,0,2.07-.03,3.77,1.63,3.8,3.7"/><path id="Path_874" class="cls-7" d="M33.23,46.26c.06,2.1-1.6,3.85-3.69,3.91-2.1,.06-3.85-1.6-3.91-3.69-.06-2.1,1.6-3.85,3.69-3.91,.04,0,.07,0,.11,0,2.07-.03,3.77,1.63,3.8,3.7"/><path id="Path_875" class="cls-7" d="M30.03,42.73c.06,2.1-1.6,3.85-3.7,3.9-2.1,.06-3.85-1.6-3.9-3.7-.06-2.1,1.6-3.85,3.7-3.9,.03,0,.07,0,.1,0,2.07-.03,3.77,1.62,3.8,3.69,0,0,0,0,0,0"/><path id="Path_876" class="cls-7" d="M25.82,41.18c.06,2.1-1.6,3.85-3.7,3.9-2.1,.06-3.85-1.6-3.9-3.7s1.6-3.85,3.7-3.9c.03,0,.07,0,.1,0,2.07-.03,3.77,1.62,3.8,3.69,0,0,0,0,0,0"/><path id="Path_877" class="cls-7" d="M23.64,37.5c.06,2.1-1.6,3.85-3.7,3.9-2.1,.06-3.85-1.6-3.9-3.7-.06-2.1,1.6-3.85,3.7-3.9,.03,0,.07,0,.1,0,2.07-.03,3.77,1.63,3.8,3.7h0"/><path id="Path_878" class="cls-7" d="M20.04,27.5c-.11-8.97,7.07-16.33,16.04-16.45,8.97,.12,16.15,7.48,16.04,16.45,0,9.09-16.04,16.45-16.04,16.45,0,0-16.04-7.36-16.04-16.45"/><path id="Path_879" class="cls-12" d="M36.08,33.97s0,.03,0,.04v-.06s0,.01,0,.02"/><path id="Path_880" class="cls-14" d="M36.08,32.7h0v-.02s0,.02,0,.02"/><path id="Path_881" class="cls-4" d="M42.02,59.48l-11.8,.04-.08-16.85,11.8-.04,.08,16.85Z"/><path id="Path_882" class="cls-6" d="M35.45,14.72c7.81-.14,14.28,7.22,14.45,16.47,0,.79-.04,1.57-.1,2.33,.49-.17,.92,.3,1.05,1.52,.07,1.51-.18,3.01-.74,4.41-.78,1.96-1.54,1.36-1.92,.08-1.43,3.26-3.95,5.92-7.13,7.51-1.17,1.58-3,2.54-4.97,2.61h-.02c-1.97-.07-3.8-1.03-4.97-2.61-3.18-1.59-5.71-4.25-7.13-7.51-.38,1.28-1.14,1.88-1.92-.08-.56-1.4-.81-2.9-.74-4.41,.13-1.22,.56-1.69,1.05-1.52-.07-.76-.11-1.54-.1-2.33,.17-9.25,6.63-16.62,14.45-16.47"/><path id="Path_883" class="cls-7" d="M33.31,43.73c.32,.08,.65,.03,.94-.12,.27-.17,.46-.42,.8-.41s.61,.28,.97,.28c.32-.03,.62-.12,.91-.25,.83-.31,1.27,.65,2.09,.69-.27,.12-.51,.31-.69,.55-.17,.24-.2,.54-.44,.75-.55,.46-1.34,.1-1.96,.27-.6,.2-1.25,.07-1.74-.33-.2-.23-.23-.54-.41-.78-.08-.09-.16-.18-.25-.27-.04-.05-.1-.12-.13-.16-.04-.06-.14-.13-.07-.11"/><path id="Path_884" class="cls-7" d="M51.87,26.22c.07-.85,.06-1.7-.03-2.55-.04-.21-.1-.42-.17-.64,.08-.3,.13-.61,.13-.91-.01-1.49-.94-2.82-2.33-3.34-.23-.33-.46-.66-.69-.97,.03-.18,.05-.37,.05-.55-.02-1.95-1.58-3.54-3.53-3.59-.29-1.77-1.83-3.07-3.62-3.06-.21,0-.43,.02-.64,.06-.57-.17-1.16-.28-1.75-.33-1.18-.82-2.73-.89-3.98-.18-.36,0-.68,0-.94,.02-.94-.67-2.07-1.03-3.23-1.02-2.39,0-4.38,1.43-4.78,3.3-2-.28-3.85,1.13-4.13,3.13-.02,.14-.03,.29-.03,.43,0,.31,.04,.62,.13,.92-.08,.1-.16,.19-.24,.28l-.3,.39c-1.38,1.93-1.37,4.91-1.37,4.91v.84c-1.07,1.3-1.08,3.17-.02,4.47,.03,1.5,.15,4.18,.18,5.1,.04,1.1,1.7,1.31,1.73,1.09s.19-.72,.27-.66,.39-.35,.5-.99,1.19-1.68,1.48-1.33,1.19,.45,1.29-.32,.68-2.37,1.07-1.92,1.38,.07,1.07-1.34c0,0-.11-.52,1.64-2.12,.89-.81,1.88-1.51,2.94-2.08,1.31-.66,2.79-1.38,3.29-1.61s1.7-.08,1.62,.93,1.6,2.96,2.36,3.15,2.12,1.51,2.69,.91,2.97,1.85,3.43,2.66c.21,.33,.45,.63,.72,.9,.35,1.63,2.56,3.95,3.18,3.69s2.82-1.65,2.82-3.63c0-1.43,.41-3.46-.82-4.04"/><path id="Path_885" class="cls-7" d="M28.9,28.69c.06,2.1-1.59,3.85-3.69,3.91-2.1,.06-3.85-1.59-3.91-3.69-.06-2.1,1.59-3.85,3.69-3.91,.04,0,.07,0,.11,0,2.07-.03,3.77,1.62,3.8,3.69"/><path id="Path_886" class="cls-7" d="M25.76,31.35c.06,2.1-1.6,3.85-3.69,3.9s-3.85-1.6-3.9-3.69c-.06-2.1,1.6-3.85,3.69-3.9,.03,0,.07,0,.1,0,2.07-.03,3.77,1.62,3.8,3.69h0"/><path id="Path_887" class="cls-7" d="M54.16,30.42c.06,2.1-1.59,3.85-3.69,3.91-2.1,.06-3.85-1.59-3.91-3.69s1.59-3.85,3.69-3.91c.04,0,.07,0,.11,0,2.07-.03,3.77,1.62,3.8,3.69"/><path id="Path_888" class="cls-7" d="M36.68,22.32c.06,2.1-1.6,3.85-3.69,3.9-2.1,.06-3.85-1.6-3.9-3.69s1.6-3.85,3.69-3.9c.03,0,.07,0,.1,0,2.07-.03,3.77,1.62,3.8,3.69,0,0,0,0,0,0"/><path id="Path_889" class="cls-7" d="M34.9,24.98c.06,2.1-1.6,3.85-3.7,3.9-2.1,.06-3.85-1.6-3.9-3.7-.06-2.1,1.6-3.85,3.7-3.9,.03,0,.07,0,.1,0,2.07-.03,3.77,1.63,3.8,3.7,0,0,0,0,0,0"/><path id="Path_890" class="cls-7" d="M44.96,23.44c.08,2.97-2.25,5.44-5.22,5.52-2.97,.08-5.44-2.25-5.52-5.22-.08-2.97,2.25-5.44,5.22-5.52,.05,0,.1,0,.15,0,2.92-.04,5.33,2.3,5.37,5.22"/><path id="Path_891" class="cls-13" d="M54.4,57.16c-1.29-.42-6.04-2.51-9.6-4.1,0,0-.01,0-.02-.01,0,.04-.03,.08-.03,.12-.02,.14-.06,.27-.1,.4-.01,.05-.03,.09-.05,.14-.07,.19-.16,.37-.27,.54,0,0-.01,.02-.01,.02-1,1.36-2.41,2.36-4.02,2.84h0c-1.31,.46-2.69,.69-4.07,.7-1.3,0-2.6-.21-3.83-.62h-.01c-1.04-.34-2.02-.85-2.89-1.52-.89-.62-1.51-1.56-1.72-2.62h-.01s-.02,.01-.02,.01c-3.57,1.59-8.31,3.67-9.6,4.09-1.99,.49-3.4,2.27-3.4,4.33l-.44,3.03c13.02,9.85,31.05,9.7,43.9-.37l-.38-2.66c0-2.05-1.41-3.84-3.4-4.33"/><path id="Path_892" class="cls-5" d="M32.39,36.26s-1.18-3.13-4.03-3.24c-3.06-.12-3.55,1.92-3.55,1.92,.65,1.4,2.11,2.26,3.65,2.13,1.35-.05,2.68-.32,3.94-.81"/><path id="Path_893" class="cls-10" d="M27.18,34.17c-.21,.73,.2,1.49,.93,1.71,.73,.21,1.49-.2,1.71-.93,.21-.73-.2-1.49-.93-1.71,0,0,0,0,0,0-.73-.21-1.49,.2-1.7,.93,0,0,0,0,0,0"/><path id="Path_894" class="cls-5" d="M28.43,34.1c-.08,.26,.07,.53,.33,.61,.26,.08,.53-.07,.61-.33,.08-.26-.07-.53-.33-.61,0,0,0,0,0,0-.26-.08-.53,.07-.61,.33"/><path id="Path_895" class="cls-5" d="M27.75,34.07c-.04,.14,.03,.28,.17,.32,0,0,0,0,0,0,.14,.04,.29-.04,.33-.18,.04-.14-.04-.28-.18-.33-.14-.04-.29,.04-.33,.18,0,0,0,0,0,0"/><path id="Path_896" class="cls-11" d="M32.4,36.26s-1.74-4.53-7.62-1.44c.51-1.38,4.99-4.66,7.62,1.44"/><path id="Path_897" class="cls-5" d="M39.83,36.26s1.18-3.13,4.03-3.24c3.07-.12,3.55,1.92,3.55,1.92-.65,1.4-2.11,2.25-3.65,2.13-1.35-.05-2.68-.32-3.94-.81"/><path id="Path_898" class="cls-10" d="M45.05,34.17c.21,.73-.2,1.49-.93,1.71s-1.49-.2-1.71-.93,.2-1.49,.93-1.71c0,0,0,0,0,0,.73-.21,1.49,.2,1.7,.93"/><path id="Path_899" class="cls-5" d="M43.79,34.1c.08,.26-.07,.53-.33,.61s-.53-.07-.61-.33c-.08-.26,.07-.53,.33-.61,.26-.08,.53,.07,.61,.32,0,0,0,0,0,0"/><path id="Path_900" class="cls-5" d="M44.48,34.07c.04,.14-.03,.28-.17,.32,0,0,0,0,0,0-.14,.04-.29-.04-.33-.18s.04-.29,.18-.33,.29,.04,.33,.18c0,0,0,0,0,0"/><path id="Path_901" class="cls-11" d="M39.83,36.26s1.74-4.53,7.62-1.44c-.51-1.38-5-4.66-7.62,1.44"/><path id="Path_902" class="cls-8" d="M38.59,41.2c-.16-.2-.59-.19-.64-.19-.22,.01-.43,.08-.62,.2l-.06,.04c-.34,.22-.73,.34-1.13,.37-.4-.02-.79-.15-1.13-.37l-.07-.04c-.19-.12-.4-.18-.62-.2-.05,0-.48-.01-.64,.19-.06,.08-.07,.2-.01,.29,.1,.14,.27,.21,.44,.19,.26,0,.52-.04,.76-.13,.38,.23,.81,.36,1.25,.38h.03c.44-.02,.87-.15,1.25-.38,.24,.09,.5,.14,.75,.13,.17,.02,.35-.05,.45-.19,.06-.09,.05-.21-.01-.29"/><path id="Path_903" class="cls-3" d="M49.82,31.87v-.03s-.04-.07-.07-.08h-.01c-1.16-.54-5.99-.82-8.6-.48-2.63,.35-4.19,1.18-5.06,1.21-.87-.03-2.43-.84-5.07-1.18-2.61-.33-7.45,0-8.6,.53,0,0-.01,0-.02,0-.03,.02-.06,.05-.07,.08v.03c-.01,.18-.05,.98-.03,1.43v.06c.02,.13,.09,.23,.21,.29,0,0,.01,0,.01,0,.23,.1,.63,.54,1.05,2.7,.19,1.08,.42,3.35,2.28,4.03,.85,.3,4.92,.92,6.99-1.08,.56-.68,1-1.46,1.3-2.29,.23-.64,.85-2.49,.94-2.77,.06-.45,.44-.8,.9-.81h.2c.46,0,.84,.35,.9,.8,.1,.28,.73,2.13,.96,2.76,.31,.83,.76,1.6,1.32,2.29,2.09,1.99,6.16,1.34,7,1.03,1.85-.7,2.07-2.97,2.25-4.04,.4-2.16,.8-2.61,1.03-2.71h.01c.11-.06,.19-.17,.2-.29v-.07c.01-.45-.03-1.25-.04-1.43m-16.88,5.79c-.32,.93-1.03,1.68-1.95,2.05-1.39,.51-2.9,.62-4.35,.3-1.03-.21-1.84-1-2.08-2.02-.38-1.24-.51-2.55-.38-3.85,.14-.83,.68-1.53,1.45-1.87,1.84-.56,3.79-.64,5.67-.24,.78,.19,2.17,.38,2.48,1.54,.34,1.25-.3,3-.84,4.1m14.72,.24c-.23,1.02-1.03,1.81-2.06,2.04-1.45,.33-2.96,.24-4.35-.26-.92-.36-1.63-1.11-1.96-2.04-.55-1.1-1.21-2.84-.87-4.09,.31-1.16,1.69-1.36,2.47-1.56,1.88-.41,3.83-.34,5.67,.21,.77,.34,1.31,1.04,1.46,1.86,.13,1.29,.01,2.6-.36,3.85"/></g></g></g></svg>