<?xml version="1.0" encoding="UTF-8"?><svg id="Layer_13" xmlns="http://www.w3.org/2000/svg" xmlns:xlink="http://www.w3.org/1999/xlink" viewBox="0 0 72 72"><defs><style>.cls-1{fill:none;}.cls-2{clip-path:url(#clippath);}.cls-3{fill:#f2f1f1;}.cls-4{fill:#e8af47;}.cls-5{fill:#fff;}.cls-6{fill:#ef4861;}.cls-7{fill:#6c3a17;}.cls-8{fill:#b98939;}.cls-9{fill:#8e653f;}.cls-10{fill:#a9423a;}.cls-11{fill:#aa7949;}.cls-12{fill:#a57732;}.cls-13{fill:#d7c2af;}.cls-14{fill:#1f0b3a;}.cls-15{fill:#4a494a;}.cls-16{fill:#383c3d;}.cls-17{fill:#7a5332;}</style><clipPath id="clippath"><rect class="cls-1" width="72" height="72"/></clipPath></defs><g id="Group_480"><g class="cls-2"><g id="Group_479"><path id="Path_1734" class="cls-6" d="M72,36c0,19.88-16.12,36-36,36S0,55.88,0,36,16.12,0,36,0s36,16.12,36,36"/><path id="Path_1735" class="cls-15" d="M26.17,50.83l3.38-3.92h1.92c-.03-.07-.04-.15-.05-.22,0-.44,.33-.81,.75-.87,.3-1.03,.52-2.03,.66-2.82-.1-.09-.19-.17-.3-.26-2.39-1.67-3.71-3.86-4.66-6.81-.12,.07-.25,.11-.39,.12-.45,0-.82-.36-.82-.82,0-.19,.07-.37,.19-.51-.14-.2-.27-.41-.38-.63-.42-.81-.73-1.67-.95-2.55-1.87-2.31-2.65-6.35-1.8-10.66,.21-1.05,.52-2.08,.91-3.08-2.06,3.67-3.43,9.96-3.43,17.11s1.31,13.2,3.31,16.89l1.61-.9,.05-.05Z"/><path id="Path_1736" class="cls-15" d="M48.16,20.87c.74,3.72,.25,7.24-1.1,9.62-.18,1.26-.57,2.47-1.14,3.6-.09,.17-.18,.32-.27,.45,.23,.14,.38,.4,.38,.68,0,.46-.38,.83-.83,.82-.23,0-.45-.11-.61-.29-1.03,2.97-2.45,5.36-4.59,6.98-.03,.03-.05,.05-.08,.07,.14,1.01,.32,2.01,.56,3,.46,.03,.81,.42,.82,.88,0,.08-.02,.15-.04,.22h1.72l3.8,4.4,.13,.15,.67,.38c2.01-3.68,3.33-9.87,3.33-16.89,0-7.45-1.49-13.96-3.7-17.54,.24,.63,.43,1.28,.57,1.94,.14,.5,.27,1,.38,1.52"/><path id="Path_1737" class="cls-12" d="M31.69,47.32c-.1-.12-.18-.26-.21-.41h-1.92l.98,2.67c.48-.7,.86-1.46,1.15-2.26"/><path id="Path_1738" class="cls-12" d="M40.94,47.39c.25,.79,.59,1.54,1.04,2.23l1-2.71h-1.72c-.05,.19-.16,.36-.32,.48"/><path id="Path_1740" class="cls-9" d="M31.99,53.52l3.69,10-3.69-10Z"/><path id="Path_1741" class="cls-9" d="M33.3,51.46c-.27,.52-.57,1.03-.9,1.52,2.17,1.81,5.25,1.96,7.58,.36-.44-.59-.83-1.21-1.16-1.87h-5.52Z"/><path id="Path_1742" class="cls-9" d="M36.53,44.28c-.09,0-.17,0-.26,0-.23,0-.45,0-.68-.03-.18,.93-.38,1.82-.61,2.66h2.14c-.23-.83-.43-1.71-.6-2.64"/><path id="Path_1743" class="cls-9" d="M33.23,46.69c0,.08-.02,.15-.04,.22h.38c.06-.02,.12-.04,.19-.04,.06,0,.13,.02,.19,.04h1.04c.23-.84,.43-1.73,.61-2.66-1.03-.08-2-.52-2.75-1.25-.15,.78-.37,1.78-.66,2.82,.05-.01,.1-.02,.15-.03,.49,0,.89,.39,.9,.89,0,0,0,0,0,0"/><path id="Path_1744" class="cls-9" d="M31.23,51.46l.76,2.06-.59-1.6c.29,.39,.63,.75,1,1.06,.33-.49,.63-.99,.9-1.52h-2.07Z"/><path id="Path_1745" class="cls-9" d="M39.98,53.33c.33-.22,.64-.48,.92-.76l.41-1.11h-2.49c.33,.66,.72,1.29,1.16,1.87"/><path id="Path_1746" class="cls-9" d="M37.13,46.91h1.66c.06-.02,.12-.04,.19-.04,.06,0,.13,.02,.19,.04h.38c-.02-.07-.04-.15-.04-.22,0-.5,.4-.9,.89-.9,0,0,0,0,0,0,.03,0,.05,0,.08,.01-.24-.99-.42-1.99-.56-3-.88,.96-2.11,1.49-3.4,1.47,.18,.93,.38,1.81,.6,2.64"/><path id="Path_1747" class="cls-9" d="M35.42,47.52c.49,0,.88,.42,.87,.91s-.41,.89-.89,.89c-.47,0-.85-.39-.87-.86-.33,1.03-.74,2.04-1.22,3.01h5.52c-.38-.76-.72-1.55-1-2.36-.16,.14-.36,.21-.56,.22-.49,.01-.89-.38-.91-.87s.37-.91,.85-.93c.02,0,.04,0,.05,0,.02,0,.04,0,.06,0-.06-.2-.12-.41-.18-.61h-2.15c-.09,.34-.19,.66-.28,.98,.17-.23,.43-.37,.72-.38"/><path id="Path_1748" class="cls-9" d="M34.65,47.77c0,.1-.02,.19-.06,.28,.03-.06,.07-.11,.11-.16,.1-.32,.19-.65,.28-.98h-1.04c.41,.08,.7,.44,.71,.86"/><path id="Path_1749" class="cls-9" d="M33.3,51.46c.49-.97,.9-1.97,1.23-3v-.04c0-.1,.02-.19,.05-.28-.21,.46-.74,.67-1.19,.45-.31-.15-.52-.46-.53-.81,0-.42,.3-.79,.71-.86h-.38c-.1,.4-.45,.68-.85,.68-.24,0-.47-.1-.64-.27-.28,.8-.67,1.56-1.15,2.26l.69,1.88h2.07Z"/><path id="Path_1750" class="cls-9" d="M38.15,48.42c0,.27-.13,.52-.34,.69,.29,.81,.62,1.59,1.01,2.36h2.49l.68-1.84c-.45-.69-.8-1.44-1.04-2.23-.37,.31-.92,.25-1.22-.13-.08-.1-.14-.22-.17-.35h-.38c.41,.08,.71,.44,.71,.86-.01,.51-.43,.91-.92,.89-.47-.01-.86-.4-.87-.89,0-.42,.3-.79,.71-.86h-1.66c.06,.21,.12,.41,.18,.61,.47,.02,.83,.41,.84,.89"/><path id="Path_1751" class="cls-15" d="M32.92,11.08c.83,.17,1.59,.56,2.22,1.14,.61-.16,1.23-.24,1.86-.23,.58-.45,1.25-.76,1.96-.91,2.96-.58,6.07,1.87,7.91,5.84,.11,.16,.22,.33,.34,.5-2.37-6.28-9.27-9.4-15.42-6.98-.89,.35-1.73,.81-2.51,1.36,1.09-.68,2.38-.94,3.64-.72"/><path id="Path_1752" class="cls-15" d="M47.78,19.35c-.14-.66-.33-1.31-.57-1.94-.11-.17-.23-.34-.34-.5,.36,.79,.67,1.6,.91,2.44"/><path id="Path_1753" class="cls-15" d="M29.28,11.8c-2.15,1.43-3.78,3.53-4.65,6,.14-.26,.29-.5,.44-.72,.89-2.13,2.35-3.95,4.21-5.27"/><path id="Path_1754" class="cls-15" d="M25.53,31.54c-.17-.65-.26-1.32-.27-2-.06-.55,.09-1.1,.42-1.54-1.86-3.34-2.08-7.39-.6-10.92-.15,.23-.3,.47-.44,.72-.39,1-.7,2.03-.91,3.08-.85,4.32-.07,8.36,1.8,10.66"/><path id="Path_1755" class="cls-15" d="M25.07,17.07c1.11-1.69,2.39-2.66,3.75-2.66,.78,.02,1.52,.31,2.12,.82,.28-.94,1.17-1.82,2.91-2.58,.42-.18,.85-.33,1.29-.43-.63-.57-1.4-.96-2.22-1.14-1.26-.22-2.55,.04-3.64,.72-1.86,1.32-3.32,3.15-4.21,5.27"/><path id="Path_1756" class="cls-15" d="M26.2,27.83c-.35-4.87,1.94-8.47,5.16-10.27-.45-.68-.6-1.53-.41-2.34-.6-.51-1.35-.8-2.13-.82-1.36,0-2.64,.97-3.75,2.66-1.48,3.54-1.25,7.58,.61,10.92,.13-.14,.33-.2,.52-.16"/><path id="Path_1757" class="cls-15" d="M46.91,27.12c-.02,.28-.1,.56-.23,.81-.04-.02-.09-.05-.13-.07h0c.34,.17,.58,.71,.59,1.67,0,.32-.02,.64-.07,.95,1.35-2.38,1.83-5.89,1.1-9.62-.1-.52-.23-1.03-.38-1.52,.17,.84,.26,1.7,.26,2.57,0,1.8-.39,3.57-1.13,5.2"/><path id="Path_1758" class="cls-15" d="M42.3,14.69c.32-.12,.65-.18,.99-.18,1.29,0,2.5,.87,3.58,2.39-1.84-3.96-4.95-6.42-7.91-5.84-.71,.15-1.38,.46-1.96,.91,2.06,.12,3.98,1.1,5.3,2.71"/><path id="Path_1759" class="cls-15" d="M43.3,14.52c-.34,0-.67,.06-.99,.18,3.31,3.65,4.9,9.93,4.61,12.43,.74-1.63,1.13-3.4,1.13-5.2,0-.86-.09-1.72-.26-2.56-.24-.84-.54-1.66-.91-2.44-1.07-1.53-2.28-2.4-3.58-2.4"/><path id="Path_1760" class="cls-15" d="M46.34,27.82c.07,0,.14,.02,.2,.05h0c-.07-.04-.14-.08-.21-.11v.06"/><path id="Path_1761" class="cls-11" d="M45.56,32.35c-.17,.72-.35,1.42-.55,2.08,.06-.02,.13-.04,.2-.04,.16,0,.31,.06,.44,.15,.09-.13,.18-.28,.27-.46,.58-1.13,.97-2.34,1.15-3.6-.39,.71-.9,1.34-1.51,1.86"/><path id="Path_1762" class="cls-11" d="M46.54,27.87c-.08,.14-.16,.27-.24,.4-.04,.39-.08,.78-.15,1.18-.18,1.01-.38,1.97-.6,2.9,.61-.53,1.12-1.16,1.51-1.86,.04-.32,.07-.63,.07-.95,0-.96-.25-1.5-.59-1.66"/><path id="Path_1763" class="cls-11" d="M46.34,27.82c0,.15-.02,.3-.04,.45,.08-.13,.17-.26,.24-.4-.06-.03-.13-.05-.2-.05"/><path id="Path_1764" class="cls-11" d="M27.45,34.41c-.13-.49-.25-.99-.37-1.52-.59-.35-1.12-.81-1.55-1.36,.22,.89,.53,1.74,.95,2.55,.11,.22,.24,.43,.38,.63,.14-.18,.36-.3,.59-.31"/><path id="Path_1765" class="cls-11" d="M27.09,32.89c-.24-1.07-.46-2.21-.68-3.44-.03-.14-.03-.26-.05-.4-.24-.34-.46-.69-.67-1.06-.33,.44-.48,.99-.42,1.54,0,.68,.1,1.35,.27,2,.43,.55,.96,1.01,1.55,1.36"/><path id="Path_1766" class="cls-11" d="M26.2,27.84c-.19-.04-.38,.02-.52,.16,.2,.36,.43,.72,.67,1.06-.07-.41-.12-.82-.15-1.22"/><path id="Path_1767" class="cls-11" d="M36.06,41.28h0l-.03,.22h.06c0-.08-.02-.15-.03-.23"/><path id="Path_1768" class="cls-11" d="M33.51,39.04h-.03s.03,0,.03,0"/><path id="Path_1769" class="cls-11" d="M36.03,41.5l.03-.22c-.93,0-1.46-.38-2.61-2.27h-.02s0-.01,0-.01h0s1.11-1.48,2.08-1.5c.08,0,.16,0,.23,.01-.03-.6-.05-1.22-.06-1.84-.23-.07-.45-.16-.67-.27-.22,.08-.45,.12-.68,.12-.15,.02-.31-.04-.4-.17-.05-.08-.04-.19,.01-.26,.14-.18,.53-.17,.58-.17,.2,.01,.39,.08,.56,.18l.06,.04c.17,.09,.35,.17,.53,.24,0-.14,0-.28,0-.42,0-.26,0-.51,0-.76-1.54-.05-3.06-.4-4.47-1.05-.86,.36-1.81,.45-2.73,.29-.07-.01-.14-.04-.22-.06,.12,.25,.25,.5,.38,.75l-.1-.15c-.06,.32-.16,.63-.31,.91,.05,.11,.08,.22,.08,.34,0,.3-.17,.58-.44,.71,.95,2.95,2.27,5.14,4.66,6.81,.1,.1,.2,.18,.3,.27,.17-.9,.25-1.5,.25-1.5h2.94Z"/><path id="Path_1770" class="cls-11" d="M44.39,35.18c-.31-.33-.5-.75-.56-1.21-.03,.05-.07,.1-.1,.15,.17-.32,.32-.63,.47-.94-.26,.11-.53,.19-.81,.25-.86,.16-1.75,.08-2.57-.23-1.39,.61-2.88,.95-4.39,.99v1.24c.26-.07,.52-.17,.76-.3l.06-.04c.17-.1,.36-.16,.56-.18,.05,0,.44-.01,.58,.17,.06,.08,.06,.18,0,.26-.09,.13-.25,.2-.4,.18-.23,0-.47-.04-.68-.12-.28,.15-.58,.26-.89,.32,0,.64-.03,1.27-.06,1.89,.16-.1,.35-.16,.54-.15,.99-.02,2.16,1.4,2.16,1.4-.01,.01-.03,.02-.05,.03h0s.03-.01,.05-.02c-1.21,2.3-1.65,2.36-2.79,2.41-.08,0-.14,0-.21,0,0,.07,.02,.15,.03,.22h3.68s.04,.53,.16,1.32c.02-.02,.05-.04,.08-.07,2.15-1.62,3.56-4.01,4.59-6.98-.13-.14-.21-.34-.21-.53,0-.02,0-.03,0-.05"/><path id="Path_1771" class="cls-11" d="M36.21,37.72s.05-.02,.09-.07c.02-.02,.04-.04,.06-.05,.03-.62,.05-1.25,.06-1.89-.08,0-.16,.02-.24,.02h0s-.02,0-.02,0h0c-.16,0-.31-.03-.46-.07,0,.62,.03,1.24,.06,1.84,.14,0,.27,.06,.37,.16,.04,.04,.05,.06,.09,.06"/><path id="Path_1772" class="cls-11" d="M36.43,35.43v-.53c0-.24,0-.47,0-.7-.12,0-.23,.02-.35,.02s-.25-.02-.38-.02c0,.25,0,.5,0,.76,0,.14,0,.27,0,.42,.15,.06,.32,.09,.48,.09,.09,0,.17,0,.26-.02"/><path id="Path_1773" class="cls-11" d="M36.53,44.27c-.17-.89-.32-1.82-.44-2.78h-.06c-.12,.96-.27,1.87-.43,2.76,.22,.02,.45,.03,.68,.03,.09,0,.17,0,.26,0"/><path id="Path_1774" class="cls-11" d="M36.03,41.5h-2.94s-.08,.61-.25,1.51c.75,.72,1.72,1.16,2.75,1.25,.17-.88,.32-1.8,.44-2.75"/><path id="Path_1775" class="cls-11" d="M36.49,41.49h-.4c.12,.96,.27,1.89,.44,2.78,1.28,.02,2.52-.51,3.4-1.47-.11-.79-.16-1.31-.16-1.31h-3.28Z"/><path id="Path_1776" class="cls-11" d="M35.94,28.51c-1,2.06-2.67,3.69-4.72,4.64,1.41,.64,2.93,.99,4.47,1.04,.02-1.83,.14-3.67,.36-5.49-.04-.06-.07-.13-.11-.2"/><path id="Path_1777" class="cls-11" d="M36.09,28.78c.21,1.8,.32,3.61,.34,5.42,1.51-.04,3-.38,4.4-.99-2.03-.87-3.71-2.44-4.74-4.43"/><path id="Path_1778" class="cls-11" d="M36.43,34.19c-.02-1.81-.14-3.62-.34-5.42,0-.02-.02-.05-.03-.07-.22,1.82-.34,3.65-.36,5.49,.13,0,.25,.02,.38,.02s.23-.02,.35-.02"/><path id="Path_1779" class="cls-11" d="M26.79,29.67c.42,1.27,.91,2.5,1.49,3.7,.07,.02,.14,.05,.22,.06,.92,.17,1.86,.07,2.73-.28-1.72-.79-3.24-1.98-4.43-3.48"/><path id="Path_1780" class="cls-11" d="M29.4,28.95s.03,.08,.06,.11c-.04-.05-.06-.11-.07-.18h0s0,.05,0,.07"/><path id="Path_1782" class="cls-11" d="M29.5,28.67s-.05,.05-.07,.08c-.02,.04-.03,.08-.04,.12,.02-.08,.05-.15,.1-.21"/><path id="Path_1783" class="cls-11" d="M35.94,28.51c-.82-1.52-1.41-3.16-1.74-4.87-.22-1.1-.33-2.21-.34-3.33-.98-.76-1.83-1.69-2.5-2.75-3.22,1.79-5.51,5.4-5.16,10.27,.01,0,.03,0,.04,0,.06,.2,.23,.88,.55,1.83,1.19,1.5,2.71,2.69,4.43,3.48,2.05-.95,3.71-2.58,4.72-4.64m-6.42-2.43c1.13,0,4.45,.69,4.27,1.78-.04,.22-.74-.24-1.02-.4-.32-.19-3.2-1.71-5.04-.4,.43-.58,1.08-.94,1.79-.97m3.83,3.48c-.14-.06-.3-.09-.45-.1-.08,.06-.18,.1-.28,.11-.09,0-.18,.02-.26,.05-.43,.12-.87,.19-1.31,.21-.4,.04-.79-.04-1.15-.22-.25,.01-.46,.18-.55,.41,.01-.24,.18-.44,.41-.48-.02,0-.04-.03-.07-.04-.26,0-.49,.17-.57,.42,0-.27,.23-.49,.49-.48-.04-.03-.08-.07-.12-.11-.3-.01-.58,.18-.68,.47,0-.3,.25-.54,.54-.53,.03,0,.05,0,.08,0l-.02-.03-.02-.03s-.05-.06-.07-.1h0c-.32-.04-.61,.15-.72,.46,0-.3,.24-.54,.53-.53,.05,0,.11,0,.16,.03-.03-.05-.06-.1-.08-.15-.27-.06-.54,.06-.68,.3,.03-.11,.09-.21,.18-.29-.54-.02-.99-.4-1.11-.94,.31,.5,.86,.79,1.43,.76l.03-.07c-.71,.11-1.09-.55-1.15-1.22,.18,.62,.75,1.04,1.38,1.02,.03-.02,.07-.04,.09-.06-.6-.02-1.08-.54-1.06-1.16,0-.04,0-.08,0-.11,.1,.55,.51,.99,1.03,1.14-.51-.17-.84-.69-.78-1.24,.1,.53,.47,.96,.96,1.13-.37-.25-.58-.69-.55-1.15,.1,.51,.46,.94,.94,1.12h.03c-.39-.2-.61-.62-.57-1.05,.08,.43,.37,.79,.77,.96-.23-.2-.35-.51-.33-.82,.07,.32,.25,.59,.51,.77l.08-.03c-.12-.16-.18-.35-.17-.55,.04,.2,.14,.38,.29,.52,.04,0,.08-.02,.1-.02-.07-.14-.1-.29-.09-.44,.03,.16,.1,.3,.2,.43,.05,0,.09-.02,.14-.03-.05-.12-.08-.26-.07-.39,.03,.14,.08,.26,.16,.38h.15c-.02-.08-.03-.16-.03-.23,.02,.07,.04,.15,.08,.21h.11c-.02-.06-.02-.12-.02-.18,.02,.06,.04,.12,.07,.18h.11s0-.08,0-.13c.01,.04,.02,.09,.04,.13,.04,0,.09,0,.13,0h.02s0-.07,0-.11c0,.04,.02,.08,.03,.12,1,.15,1.83,.85,2.15,1.83,0,0-.04-.06-.12-.14-.06,.09-.25,.07-.34,0"/><path id="Path_1784" class="cls-11" d="M40.82,33.2c.82,.31,1.71,.39,2.57,.23,.28-.06,.55-.15,.81-.25,.63-1.33,1.16-2.7,1.59-4.1-1.26,1.81-2.98,3.24-4.97,4.13"/><path id="Path_1785" class="cls-11" d="M36.06,28.59c.02-.14,.04-.27,.05-.41l-.08,.16c0,.09,.02,.17,.03,.26"/><path id="Path_1786" class="cls-11" d="M36.03,28.34c-.03,.05-.06,.12-.09,.17,.04,.07,.07,.13,.11,.2,0-.04,0-.07,.01-.11,0-.09-.02-.17-.03-.26"/><path id="Path_1787" class="cls-11" d="M45.8,29.07c.2-.63,.31-1.08,.36-1.23,.06-.02,.12-.02,.18-.02v-.06c-.67-.34-1.42-.73-2.25-1.16-1.37-.13-2.75,.17-3.95,.86-.28,.16-.98,.62-1.02,.4-.17-1.02,2.69-1.69,4-1.77-1.7-.89-3.57-1.92-5.34-3.01-.03,.18-.06,.37-.09,.56-.31,1.58-.84,3.11-1.57,4.54-.02,.14-.04,.27-.05,.41,0,.06,.02,.12,.02,.18,1.03,1.99,2.7,3.56,4.74,4.43,1.99-.89,3.71-2.32,4.97-4.13m-1.49,.51c-.1-.31-.4-.5-.72-.46h0c-.03,.06-.07,.11-.11,.16,.29-.05,.56,.15,.61,.45,0,.03,0,.05,0,.08-.1-.29-.37-.48-.68-.47-.04,.04-.08,.08-.12,.11,.27,0,.49,.21,.5,.48-.09-.25-.31-.41-.57-.42l-.07,.04c.23,.04,.4,.24,.41,.48-.09-.24-.3-.4-.55-.41-.35,.18-.75,.26-1.15,.22-.44-.02-.88-.09-1.31-.21-.08-.03-.17-.05-.26-.05-.1,0-.2-.05-.28-.11-.16,0-.31,.03-.45,.1-.09,.08-.28,.09-.34,0-.08,.08-.12,.14-.12,.14,.32-.97,1.15-1.68,2.15-1.83,.02-.04,.03-.07,.04-.11,0,.04,0,.07,0,.11h.01s.09,0,.13,0c.01-.04,.03-.09,.04-.13,0,.04,0,.09,0,.13h.11c.03-.06,.05-.12,.07-.18,0,.06,0,.12-.02,.18h.11c.04-.07,.07-.14,.08-.22,0,.07-.01,.15-.03,.22h.15c.08-.1,.13-.23,.16-.36,0,.13-.02,.27-.07,.39,.04,.01,.09,.02,.14,.03,.1-.12,.17-.27,.2-.43,0,.16-.03,.31-.1,.45l.11,.02c.14-.14,.24-.32,.29-.52,0,.2-.05,.39-.17,.55l.08,.03c.26-.18,.45-.46,.51-.77,.02,.31-.1,.61-.33,.82,.4-.17,.69-.53,.77-.96,.04,.44-.19,.85-.57,1.04h.03c.48-.17,.84-.59,.94-1.11,.03,.46-.18,.9-.55,1.15,.5-.17,.86-.6,.96-1.13,.06,.55-.27,1.07-.78,1.24,.53-.15,.93-.59,1.03-1.14,.08,.61-.34,1.18-.94,1.26-.04,0-.08,0-.11,0,.03,.02,.07,.04,.09,.06,.63,.02,1.2-.4,1.39-1.02-.07,.66-.44,1.32-1.15,1.21l.03,.07c.58,.03,1.12-.26,1.44-.76-.12,.54-.57,.92-1.11,.94,.08,.08,.14,.18,.17,.28-.13-.24-.41-.37-.68-.3-.02,.05-.04,.11-.07,.15,.28-.09,.58,.07,.67,.36,.02,.05,.02,.1,.02,.15"/><path id="Path_1789" class="cls-11" d="M43.44,29.05s.04-.07,.06-.1c0-.02,0-.04,0-.06h0c0,.06-.03,.11-.06,.16"/><path id="Path_1790" class="cls-11" d="M43.47,28.75s-.04-.06-.06-.08c.05,.06,.08,.13,.1,.2,0-.04-.02-.08-.04-.12"/><path id="Path_1791" class="cls-11" d="M36.05,28.7s.02,.05,.04,.07c0-.06-.01-.12-.02-.18,0,.04,0,.07-.01,.11"/><path id="Path_1792" class="cls-11" d="M36.11,28.18c.23-1.85,.6-3.67,1.09-5.47-1-.63-1.97-1.31-2.9-2.04,.85,2.48,1.43,5.05,1.74,7.66,.03-.05,.05-.11,.08-.15"/><path id="Path_1793" class="cls-11" d="M34.3,20.67c-.16-.12-.29-.24-.44-.36,0,1.12,.12,2.23,.34,3.33,.33,1.7,.92,3.34,1.74,4.86,.04-.06,.06-.12,.09-.17-.3-2.61-.88-5.18-1.74-7.66"/><path id="Path_1794" class="cls-11" d="M37.69,23.64c.04-.19,.06-.38,.09-.56-.19-.12-.39-.24-.58-.37-.49,1.79-.85,3.62-1.09,5.47,.73-1.43,1.26-2.96,1.57-4.54"/><path id="Path_1795" class="cls-11" d="M43.74,34.12l.1-.15c.05,.45,.25,.87,.56,1.2,.02-.36,.28-.66,.62-.74,.2-.67,.38-1.36,.55-2.08-.4,.35-.86,.63-1.36,.83-.14,.31-.3,.63-.46,.94"/><path id="Path_1796" class="cls-11" d="M44.2,33.18c.49-.2,.95-.48,1.36-.83,.22-.93,.41-1.89,.6-2.9,.07-.4,.11-.79,.15-1.18-.16,.27-.33,.54-.51,.8-.43,1.41-.97,2.78-1.59,4.11"/><path id="Path_1797" class="cls-11" d="M46.16,27.84c-.05,.15-.17,.6-.36,1.23,.18-.26,.35-.52,.51-.8,.02-.15,.03-.3,.04-.45-.06,0-.12,0-.18,.02"/><path id="Path_1798" class="cls-11" d="M27.45,34.41s.03-.01,.05-.01c.32,0,.61,.19,.75,.49,.15-.29,.26-.59,.31-.91,.03,.05,.07,.1,.1,.15-.13-.25-.26-.5-.38-.75-.42-.1-.82-.27-1.2-.48,.12,.53,.24,1.02,.37,1.52"/><path id="Path_1799" class="cls-11" d="M26.34,29.05c.02,.14,.03,.26,.05,.4,.23,1.23,.45,2.37,.68,3.44,.38,.21,.78,.38,1.2,.48-.57-1.2-1.07-2.44-1.49-3.7-.16-.2-.3-.41-.45-.62"/><path id="Path_1800" class="cls-11" d="M26.24,27.84s-.03,0-.04,0c.03,.4,.08,.81,.15,1.22,.15,.21,.29,.42,.45,.62-.31-.95-.49-1.63-.55-1.83"/><path id="Path_1801" class="cls-15" d="M35.94,13.04c.31-.39,.67-.75,1.06-1.06-.63-.01-1.25,.06-1.86,.23,.29,.25,.56,.53,.8,.83"/><path id="Path_1802" class="cls-15" d="M32.53,17.01c.58-.23,1.18-.41,1.79-.53,.3-1.25,.86-2.41,1.62-3.43-.24-.3-.51-.58-.8-.83-.44,.11-.87,.25-1.29,.44-1.74,.76-2.63,1.64-2.91,2.58,.62,.5,1.15,1.1,1.59,1.78"/><path id="Path_1803" class="cls-15" d="M31.36,17.57c.38-.21,.77-.4,1.17-.56-.43-.68-.97-1.28-1.59-1.78-.19,.8-.04,1.65,.41,2.34"/><path id="Path_1804" class="cls-15" d="M46.68,27.93c.13-.25,.21-.53,.23-.81-.12,.25-.23,.5-.36,.74l.13,.07"/><path id="Path_1805" class="cls-15" d="M35.94,13.04c.75,.99,1.3,2.13,1.6,3.34,.74,.1,1.46,.29,2.16,.56,.62-1.01,1.53-1.79,2.6-2.24-1.33-1.61-3.24-2.59-5.3-2.71-.39,.31-.75,.66-1.06,1.06"/><path id="Path_1806" class="cls-15" d="M46.34,27.76c.07,.03,.14,.07,.21,.11,.13-.24,.24-.5,.36-.74,.29-2.5-1.29-8.78-4.61-12.43-1.08,.45-1.99,1.24-2.6,2.25,4.32,1.7,7.02,6.1,6.64,10.81"/><path id="Path_1807" class="cls-15" d="M37.54,16.38c-.31-1.21-.85-2.35-1.61-3.34-.76,1.02-1.32,2.19-1.62,3.44,.63-.13,1.28-.19,1.92-.2,.44,0,.87,.04,1.3,.1"/><path id="Path_1808" class="cls-15" d="M34.32,16.47c-.61,.12-1.21,.3-1.79,.53,.53,.81,.98,1.68,1.35,2.58,.03-1.05,.18-2.09,.44-3.11"/><path id="Path_1809" class="cls-15" d="M33.86,20.31c0-.25,0-.49,.02-.73-.37-.9-.82-1.76-1.35-2.58-.4,.16-.8,.35-1.17,.56,.67,1.06,1.52,1.99,2.5,2.75"/><path id="Path_1810" class="cls-15" d="M39.7,16.94c-.7-.27-1.42-.46-2.16-.56,.33,1.25,.5,2.53,.49,3.82,.43-1.15,.99-2.25,1.67-3.26"/><path id="Path_1811" class="cls-15" d="M37.78,23.08c1.77,1.09,3.64,2.12,5.34,3.01,.1,0,.19-.01,.27,0,.71,.03,1.37,.39,1.8,.97-.33-.23-.7-.38-1.09-.46,.83,.43,1.58,.82,2.25,1.16,.38-4.71-2.33-9.12-6.65-10.82-.68,1.02-1.24,2.11-1.67,3.26,0,.97-.09,1.93-.25,2.88"/><path id="Path_1812" class="cls-15" d="M34.3,20.68c.93,.73,1.9,1.41,2.9,2.04,.24-.85,.51-1.69,.83-2.51,0-1.29-.16-2.58-.49-3.82-.43-.06-.87-.1-1.3-.1-.64,0-1.29,.07-1.92,.2-.26,1.02-.41,2.06-.45,3.11,.15,.35,.29,.72,.42,1.09"/><path id="Path_1813" class="cls-15" d="M33.88,19.59c0,.24-.02,.48-.02,.73,.15,.12,.29,.24,.44,.36-.14-.38-.28-.74-.42-1.09"/><path id="Path_1814" class="cls-15" d="M38.03,20.2c-.32,.82-.6,1.66-.83,2.51,.19,.12,.38,.25,.58,.37,.16-.95,.25-1.91,.25-2.88"/><path id="Path_1815" class="cls-5" d="M44.75,35.3c-.05,.15-.1,.31-.15,.46,.3,.35,.81,.39,1.16,.08,.18-.16,.28-.38,.28-.62,0-.28-.15-.54-.38-.68-.34,.52-.64,.75-.9,.76"/><path id="Path_1816" class="cls-5" d="M45.01,34.44c-.08,.29-.17,.58-.27,.87,.26-.01,.56-.24,.9-.76-.13-.09-.28-.14-.44-.15-.07,0-.13,.02-.2,.04"/><path id="Path_1817" class="cls-5" d="M44.39,35.18s0,.03,0,.05c0,.2,.08,.39,.21,.53,.05-.15,.1-.3,.15-.46-.13,0-.26-.04-.35-.12"/><path id="Path_1818" class="cls-5" d="M44.39,35.18c.1,.08,.23,.13,.35,.12,.09-.28,.18-.57,.27-.87-.34,.08-.6,.38-.62,.74"/><path id="Path_1819" class="cls-5" d="M26.87,34.71c-.12,.14-.19,.32-.19,.51,0,.46,.38,.83,.83,.82,.14,0,.27-.04,.39-.11-.07-.2-.13-.42-.19-.63-.24,0-.52-.16-.83-.59"/><path id="Path_1820" class="cls-5" d="M27.7,35.3c-.08-.29-.17-.59-.25-.89-.23,.01-.44,.12-.59,.31,.31,.43,.59,.6,.83,.59"/><path id="Path_1821" class="cls-5" d="M28.32,35.22c0-.12-.03-.23-.08-.34-.1,.23-.31,.38-.55,.42,.06,.22,.13,.43,.19,.63,.26-.13,.43-.41,.44-.71"/><path id="Path_1822" class="cls-5" d="M27.5,34.39s-.03,.01-.05,.01c.08,.3,.16,.6,.25,.89,.24-.03,.45-.19,.55-.42-.13-.3-.42-.49-.75-.49"/><path id="Path_1823" class="cls-5" d="M32.18,45.82c-.43,.06-.75,.43-.75,.87,0,.08,.02,.15,.04,.22h.36c.12-.36,.24-.73,.35-1.09"/><path id="Path_1824" class="cls-5" d="M31.83,46.91h-.36c.04,.15,.11,.29,.21,.41,.05-.14,.1-.27,.15-.41"/><path id="Path_1825" class="cls-5" d="M33.18,46.91c.02-.07,.04-.15,.04-.22,.03-.47-.31-.87-.77-.9-.09,0-.19,0-.28,.03-.11,.36-.22,.73-.35,1.09h1.35Z"/><path id="Path_1826" class="cls-5" d="M32.33,47.59c.4,0,.75-.28,.85-.68h-1.35c-.05,.13-.1,.27-.15,.41,.17,.17,.4,.27,.64,.27"/><path id="Path_1827" class="cls-5" d="M33.75,46.87c-.06,0-.13,.02-.19,.04h.38c-.06-.02-.13-.04-.19-.04"/><path id="Path_1828" class="cls-5" d="M32.85,47.77c.01,.51,.43,.91,.92,.89,.34,0,.65-.22,.79-.54,.01-.02,.01-.05,.02-.08,.03-.09,.05-.18,.06-.28,0-.42-.3-.78-.71-.86h-.38c-.41,.08-.71,.44-.71,.86"/><path id="Path_1829" class="cls-5" d="M41.26,46.91c.03-.07,.04-.15,.05-.22,0-.47-.36-.85-.82-.88,.09,.37,.19,.74,.3,1.1h.47Z"/><path id="Path_1830" class="cls-5" d="M40.94,47.39c.16-.12,.27-.29,.32-.48h-.47c.05,.16,.1,.32,.15,.48"/><path id="Path_1831" class="cls-5" d="M39.51,46.69c0,.07,.02,.15,.04,.22h1.24c-.11-.37-.21-.74-.3-1.1-.03,0-.05-.01-.08-.01-.49,0-.89,.39-.9,.89,0,0,0,0,0,0"/><path id="Path_1832" class="cls-5" d="M40.41,47.59c.19,0,.38-.07,.53-.2-.05-.16-.1-.32-.15-.48h-1.24c.1,.4,.45,.68,.86,.68"/><path id="Path_1833" class="cls-5" d="M38.98,46.87c-.06,0-.13,.02-.19,.04h.37c-.06-.02-.12-.04-.19-.04"/><path id="Path_1834" class="cls-5" d="M38.08,47.77c0,.51,.4,.92,.9,.92s.9-.41,.9-.92c0-.43-.3-.79-.71-.86h-.37c-.41,.08-.71,.44-.71,.86"/><path id="Path_1835" class="cls-5" d="M35.42,49.32c.49,0,.88-.4,.88-.9s-.39-.9-.88-.9c-.29,0-.55,.14-.72,.38-.06,.19-.12,.38-.18,.56,.02,.49,.42,.86,.89,.86"/><path id="Path_1836" class="cls-5" d="M34.6,48.05s-.01,.05-.02,.08c-.03,.09-.05,.19-.05,.28v.04c.07-.18,.13-.37,.19-.56-.04,.05-.08,.1-.11,.16"/><path id="Path_1837" class="cls-5" d="M34.57,48.13s.02-.05,.02-.08c-.01,.03-.01,.05-.02,.08"/><path id="Path_1838" class="cls-5" d="M37.25,47.52c-.49,0-.89,.39-.89,.89s.38,.91,.87,.91c.21,0,.42-.07,.58-.22-.18-.5-.35-1.03-.51-1.58-.02,0-.04,0-.05,0"/><path id="Path_1839" class="cls-5" d="M38.15,48.42c0-.48-.38-.87-.84-.89,.16,.55,.33,1.08,.5,1.58,.21-.16,.34-.42,.34-.69"/><path id="Path_1840" class="cls-15" d="M39.12,27.86c.04,.22,.73-.24,1.02-.4,1.2-.69,2.58-.99,3.95-.86-.32-.16-.64-.33-.98-.5-1.31,.08-4.17,.75-4,1.77"/><path id="Path_1841" class="cls-15" d="M45.18,27.05c-.43-.58-1.09-.94-1.8-.97-.08,0-.17,0-.27,0,.33,.17,.66,.34,.98,.5,.39,.07,.76,.23,1.09,.46"/><path id="Path_1842" class="cls-5" d="M40.28,29.44c.53,.12,1.06,.21,1.6,.26,.6,.05,1.18-.19,1.57-.65,.03-.05,.06-.11,.06-.17h0c-.01-.09-.05-.16-.1-.22-.04-.03-.07-.06-.12-.09-.3-.14-.61-.23-.93-.28,.11,.16,.16,.35,.15,.54-.05,.47-.47,.82-.93,.76-.46-.04-.8-.44-.77-.91,0,0,0,0,0-.01,.01-.08,.03-.16,.07-.23-.64,.23-1.21,.62-1.67,1.12,.06,.09,.24,.07,.34,0,.14-.06,.3-.1,.45-.1h0c.1-.01,.2-.02,.27-.03"/><path id="Path_1843" class="cls-13" d="M42.78,29.65s.09-.05,.13-.07h0c.42-.27,.55-.49,.58-.64-.01,.04-.04,.07-.06,.11-.38,.49-.99,.74-1.59,.65-.54-.05-1.07-.14-1.6-.26-.07,0-.16,.01-.25,.02,.08,.06,.18,.1,.29,.11,.09,0,.18,.02,.26,.05,.43,.12,.87,.19,1.31,.21,.4,.04,.79-.04,1.15-.22-.08,0-.15,.01-.23,.04"/><path id="Path_1844" class="cls-13" d="M43.51,28.88h0s0-.06-.01-.1c0-.01-.01-.02-.02-.03,.02,.04,.03,.08,.04,.12h0"/><path id="Path_1845" class="cls-13" d="M41.85,29.7c.61,.09,1.21-.16,1.59-.65-.39,.46-.98,.7-1.57,.65-.54-.05-1.07-.14-1.6-.26-.07,0-.17,.01-.27,.02h0c.09,0,.18-.01,.25-.02,.53,.12,1.06,.21,1.6,.26"/><path id="Path_1847" class="cls-7" d="M40.89,28.44c-.04,.07-.06,.15-.07,.23-.04,.47,.29,.89,.75,.93,0,0,0,0,.01,0,.46,.05,.88-.29,.93-.76,.02-.19-.04-.39-.15-.55-.5-.07-1.01-.02-1.48,.15m.76,.48c-.14-.01-.25-.14-.24-.28,0,0,0,0,0,0,.02-.15,.15-.25,.29-.24,.14,.02,.24,.14,.23,.29-.01,.14-.14,.25-.27,.24,0,0,0,0-.01,0"/><path id="Path_1848" class="cls-14" d="M41.7,28.4c-.14-.02-.27,.08-.29,.23,0,0,0,0,0,0,0,.15,.11,.27,.25,.28,.13,0,.25-.09,.27-.23,.01-.14-.09-.27-.23-.28m-.14,.41s-.04-.03-.04-.05c0-.02,.03-.04,.05-.03,.02,0,.04,.02,.04,.04,0,0,0,0,0,0,0,.02-.02,.04-.05,.04,0,0,0,0,0,0m.14,.04s-.04-.02-.04-.04c0-.02,.02-.04,.05-.04,.02,0,.04,.02,.04,.05,0,.02-.02,.04-.04,.04m-.02-.15c-.06,0-.1-.06-.1-.12,0,0,0,0,0,0,0-.06,.06-.11,.12-.1,.06,0,.11,.06,.1,.12-.01,.06-.07,.11-.13,.1"/><path id="Path_1849" class="cls-3" d="M41.7,28.48c-.06,0-.11,.04-.12,.1,0,.06,.04,.12,.1,.12,.06,0,.12-.04,.13-.1,0-.06-.04-.12-.1-.12"/><path id="Path_1850" class="cls-3" d="M41.51,28.77s.02,.05,.04,.05c0,0,0,0,0,0,.02,0,.04-.01,.04-.04,0-.02-.01-.04-.03-.05,0,0,0,0,0,0-.02,0-.04,.01-.05,.03"/><path id="Path_1851" class="cls-3" d="M41.66,28.81s.01,.04,.04,.05c.02,0,.04-.01,.04-.04,0,0,0,0,0,0,0-.02-.01-.04-.04-.05-.02,0-.04,.01-.05,.04"/><path id="Path_1852" class="cls-16" d="M44.36,29.22c-.03-.11-.09-.21-.17-.28,.54-.02,.99-.4,1.11-.94-.31,.5-.86,.79-1.44,.76l-.03-.07c.7,.11,1.08-.55,1.15-1.22-.19,.62-.75,1.04-1.39,1.02-.03-.02-.06-.04-.09-.06,.6-.02,1.08-.53,1.06-1.15,0-.04,0-.08,0-.12-.11,.55-.51,.99-1.04,1.14,.52-.17,.84-.69,.78-1.24-.1,.53-.47,.96-.96,1.14,.37-.25,.58-.69,.55-1.15-.1,.52-.46,.94-.94,1.12h-.03c.39-.2,.61-.62,.57-1.05-.08,.43-.38,.79-.77,.96,.23-.21,.35-.51,.33-.82-.07,.32-.25,.59-.51,.77l-.08-.03c.12-.16,.18-.35,.17-.55-.04,.2-.14,.38-.29,.52l-.11-.02c.07-.14,.11-.29,.1-.44-.03,.16-.1,.3-.2,.43-.04,0-.09-.01-.14-.03,.05-.12,.08-.26,.08-.39-.03,.14-.09,.26-.17,.38h-.15c.02-.09,.03-.16,.03-.24-.02,.08-.05,.15-.09,.22h-.11c.01-.06,.02-.12,.02-.18-.01,.06-.03,.13-.06,.18h-.11s0-.08,0-.13c-.01,.04-.02,.09-.04,.13-.04,0-.09,0-.13,0h-.01s0-.07,0-.11c0,.04-.02,.08-.04,.12-.99,.15-1.82,.85-2.15,1.83,0,0,.04-.05,.12-.14-.03-.04-.02-.11,.05-.22,.43-.8,1.22-1.32,2.11-1.39,.12-.05,.25-.06,.37-.05,.12,.01,.23,.05,.33,.1,.51,.05,.98,.29,1.33,.66,.02,.02,.05,.05,.06,.08-.03-.06-.07-.11-.12-.16,0,0,.23,.06,.26,.24,.03,.19-.04,.38-.19,.5-.12,.11-.26,.2-.41,.28,.25,.01,.46,.17,.55,.41,0-.24-.18-.44-.41-.48l.07-.04c.26,0,.48,.17,.57,.42,0-.27-.23-.49-.5-.48,.04-.03,.09-.07,.12-.11,.3-.01,.57,.18,.68,.47-.05-.32-.27-.6-.62-.53,.04-.05,.08-.1,.11-.16h0c.32-.04,.62,.15,.72,.46,0-.3-.24-.54-.54-.53-.05,0-.1,0-.15,.03,.03-.05,.05-.1,.07-.16,.27-.06,.54,.06,.67,.3"/><path id="Path_1853" class="cls-16" d="M43.52,28.92s0-.02,0-.03c0,.02,0,.04,0,.06v-.03"/><path id="Path_1854" class="cls-16" d="M40.89,28.44c.09-.22,.26-.4,.49-.48-.89,.07-1.68,.59-2.11,1.39-.08,.11-.08,.17-.05,.22,.46-.5,1.04-.89,1.67-1.12"/><path id="Path_1855" class="cls-16" d="M42.37,28.29c.32,.05,.63,.15,.93,.28,.04,.03,.08,.06,.12,.09-.36-.37-.83-.61-1.33-.66,.12,.07,.22,.17,.29,.29"/><path id="Path_1856" class="cls-16" d="M43.61,28.83c-.03-.17-.26-.24-.26-.24,.05,.05,.09,.1,.12,.16,0,0,.02,.02,.02,.03,.01,.03,.02,.07,.01,.11,0,0,0,.02,0,.03v.03c-.04,.15-.16,.37-.59,.63h0s-.09,.05-.13,.08c.07-.03,.15-.04,.23-.04,.15-.08,.28-.17,.41-.28,.14-.12,.21-.31,.19-.5"/><path id="Path_1857" class="cls-16" d="M42.08,28.01c-.1-.05-.22-.09-.33-.1-.13,0-.25,0-.37,.05,.04,0,.07,0,.1,0,.2,0,.4,.02,.6,.05"/><path id="Path_1858" class="cls-16" d="M40.89,28.44c.48-.17,.98-.22,1.48-.15-.07-.12-.17-.22-.29-.29-.2-.03-.4-.05-.6-.05-.04,0-.07,0-.1,0-.22,.08-.4,.26-.49,.48"/><path id="Path_1859" class="cls-15" d="M32.77,27.46c.28,.16,.98,.62,1.02,.4,.18-1.09-3.13-1.78-4.27-1.78-.71,.04-1.37,.39-1.79,.97,1.84-1.31,4.72,.22,5.04,.4"/><path id="Path_1860" class="cls-5" d="M32.02,28.44c.04,.07,.06,.15,.07,.23,.04,.47-.3,.88-.76,.93,0,0,0,0,0,0-.46,.05-.88-.29-.93-.76-.01-.19,.04-.38,.14-.54-.32,.05-.63,.14-.93,.28-.04,.03-.08,.06-.12,.09-.05,.06-.09,.13-.1,.21h0c0,.07,.03,.13,.07,.18,.4,.46,.98,.69,1.57,.64,.54-.05,1.07-.14,1.6-.26,.07,0,.18,.01,.28,.02h0c.16,0,.31,.04,.45,.1,.09,.08,.28,.09,.34,0-.46-.5-1.04-.89-1.67-1.12"/><path id="Path_1861" class="cls-13" d="M29.42,29.25l-.02-.03,.02,.03"/><path id="Path_1862" class="cls-13" d="M29.4,28.89h0c0-.06,.02-.1,.04-.14,0,0-.02,.02-.02,.03-.01,.03-.02,.07-.02,.11"/><path id="Path_1863" class="cls-13" d="M31.06,29.7c-.61,.08-1.21-.16-1.59-.64-.03-.03-.05-.07-.06-.11,.03,.15,.15,.37,.58,.63h0s.09,.05,.14,.08c-.07-.03-.15-.04-.23-.04,.35,.18,.75,.26,1.15,.22,.44-.02,.89-.09,1.32-.21,.08-.03,.17-.05,.26-.05,.1,0,.2-.05,.28-.11-.09,0-.18-.02-.25-.02-.53,.12-1.06,.21-1.59,.26"/><path id="Path_1864" class="cls-13" d="M32.63,29.44c-.53,.12-1.06,.21-1.6,.26-.59,.05-1.18-.19-1.57-.64,.38,.49,.99,.73,1.59,.65,.54-.05,1.07-.14,1.59-.26,.07,0,.16,.01,.25,.02h0c-.1-.01-.2-.02-.28-.03"/><path id="Path_1866" class="cls-7" d="M30.54,28.3c-.25,.4-.12,.93,.27,1.18,.39,.25,.91,.13,1.16-.28,.1-.16,.14-.34,.12-.53-.01-.08-.04-.16-.07-.23-.48-.17-.98-.22-1.48-.15m.68,.11c.14-.02,.27,.09,.28,.23,0,0,0,0,0,0,.01,.14-.08,.27-.22,.28,0,0,0,0-.01,0-.14,.02-.27-.08-.29-.22,0,0,0,0,0,0,0-.14,.09-.27,.23-.28"/><path id="Path_1867" class="cls-14" d="M31.27,28.92c.14,0,.24-.13,.24-.27,0,0,0-.01,0-.02-.01-.15-.14-.25-.29-.24s-.25,.14-.24,.29h0c.01,.14,.14,.25,.28,.23,0,0,0,0,0,0m-.05-.06s-.04-.01-.04-.04c0-.02,.01-.04,.03-.05,0,0,0,0,0,0,.02,0,.04,.01,.05,.04,0,.02-.02,.04-.04,.04m.18-.09s-.01,.05-.04,.05c-.02,0-.04-.01-.04-.03,0,0,0,0,0,0,0-.02,.01-.04,.03-.05,0,0,0,0,0,0,.02,0,.04,.01,.04,.03m-.18-.28c.06,0,.11,.04,.12,.1s-.04,.12-.1,.12c-.06,0-.11-.04-.12-.1,0-.06,.04-.12,.1-.12,0,0,0,0,0,0"/><path id="Path_1868" class="cls-3" d="M31.23,28.7c.06,0,.11-.06,.1-.12s-.06-.11-.12-.1h0c-.06,0-.11,.06-.1,.12s.06,.11,.12,.1"/><path id="Path_1869" class="cls-3" d="M31.35,28.82s.04-.02,.04-.05c0-.02-.03-.04-.05-.03-.02,0-.04,.02-.04,.04,0,0,0,0,0,0,0,.02,.01,.04,.03,.04,0,0,0,0,0,0"/><path id="Path_1870" class="cls-3" d="M31.17,28.82s.02,.04,.05,.04c.02,0,.04-.02,.04-.05,0-.02-.02-.04-.04-.04-.02,0-.04,.02-.04,.05,0,0,0,0,0,0"/><path id="Path_1871" class="cls-16" d="M31.67,27.88s-.03-.08-.04-.12c0,.04,0,.07,0,.11h-.02s-.09,0-.13-.01c-.02-.04-.03-.08-.04-.13,0,.04,0,.08,0,.13h-.11c-.03-.06-.05-.12-.06-.18,0,.06,0,.12,.02,.18h-.11c-.04-.07-.07-.14-.08-.22,0,.07,0,.15,.03,.22h-.15c-.08-.1-.14-.23-.16-.36,0,.13,.02,.27,.07,.39-.04,.01-.09,.02-.14,.03-.1-.13-.17-.27-.2-.43,0,.15,.03,.31,.1,.44l-.1,.02c-.14-.14-.24-.32-.29-.52,0,.2,.05,.39,.17,.55l-.08,.03c-.26-.18-.45-.46-.51-.77-.02,.31,.1,.61,.34,.82-.4-.17-.69-.53-.77-.96-.04,.43,.19,.85,.57,1.04h-.03c-.48-.17-.84-.59-.94-1.11-.03,.46,.18,.9,.55,1.15-.5-.17-.86-.61-.96-1.13-.06,.55,.27,1.07,.78,1.24-.53-.15-.93-.59-1.03-1.14-.08,.61,.34,1.18,.94,1.26,.04,0,.08,0,.11,0-.03,.02-.06,.04-.09,.06-.63,.02-1.2-.4-1.39-1.02,.06,.66,.44,1.32,1.15,1.22l-.03,.07c-.58,.03-1.12-.26-1.44-.76,.12,.54,.58,.93,1.12,.94-.08,.08-.14,.17-.18,.28,.13-.24,.41-.37,.68-.3,.02,.06,.04,.11,.07,.16-.28-.09-.58,.07-.66,.35-.02,.05-.02,.11-.03,.16,.1-.31,.4-.5,.72-.46h0s.04,.07,.07,.1c-.08-.11-.11-.25-.09-.39,.02-.17,.25-.24,.25-.24-.05,.05-.09,.1-.12,.16,.02-.03,.04-.06,.07-.08,.35-.37,.83-.61,1.33-.66,.1-.05,.21-.09,.33-.1,.13,0,.26,0,.38,.05,.89,.07,1.68,.59,2.11,1.39,.08,.11,.08,.17,.05,.22,.08,.08,.12,.14,.12,.14-.32-.97-1.15-1.68-2.15-1.83h0Z"/><path id="Path_1872" class="cls-16" d="M29.4,28.89v.03s0,.03,0,.03c0-.02,0-.04,0-.06"/><path id="Path_1873" class="cls-16" d="M29.42,29.25l.02,.03c-.29-.05-.56,.15-.61,.44,0,.03,0,.05,0,.08,.1-.29,.37-.48,.67-.47,.04,.04,.08,.07,.12,.11-.27,0-.49,.21-.49,.48,.09-.25,.31-.41,.57-.41,.03,.01,.05,.03,.07,.04-.23,.04-.4,.24-.41,.48,.08-.24,.3-.4,.55-.41-.15-.08-.28-.17-.41-.28-.03-.03-.05-.06-.07-.09"/><path id="Path_1874" class="cls-16" d="M33.65,29.35c-.43-.8-1.22-1.32-2.11-1.39,.22,.08,.4,.26,.49,.48,.64,.23,1.21,.62,1.67,1.12,.03-.04,.02-.11-.05-.22"/><path id="Path_1875" class="cls-16" d="M30.54,28.29c.07-.12,.17-.22,.29-.29-.51,.05-.98,.29-1.34,.66,.04-.03,.07-.06,.11-.09,.3-.13,.61-.23,.93-.28"/><path id="Path_1876" class="cls-16" d="M30.12,29.65s-.09-.05-.14-.07h0c-.42-.27-.55-.49-.58-.64v-.03s-.01-.03-.01-.03c0-.04,0-.07,.02-.11,0-.01,0-.02,.02-.03,.03-.06,.08-.11,.13-.16,0,0-.23,.06-.26,.24-.02,.14,.01,.28,.09,.39l.02,.03s.05,.06,.07,.09c.13,.11,.26,.2,.41,.28,.08,0,.15,.01,.23,.04"/><path id="Path_1877" class="cls-16" d="M31.54,27.96c-.12-.05-.25-.06-.38-.05-.11,.01-.22,.05-.33,.1,.2-.03,.4-.05,.6-.06,.04,0,.07,0,.11,0"/><path id="Path_1878" class="cls-16" d="M30.54,28.3c.5-.07,1.01-.02,1.48,.15-.09-.22-.27-.4-.49-.48-.04,0-.07,0-.11,0-.2,0-.4,.02-.6,.05-.12,.07-.22,.17-.29,.29"/><path id="Path_1879" class="cls-17" d="M35.16,35.12l-.06-.04c-.17-.1-.36-.16-.56-.18-.04,0-.44-.01-.58,.17-.06,.08-.06,.18-.01,.26,.09,.13,.25,.2,.4,.17,.23,0,.46-.04,.68-.12,.21,.11,.44,.2,.67,.27v-.3c-.18-.07-.36-.15-.54-.24"/><path id="Path_1880" class="cls-17" d="M37.31,35.39c.22,.08,.45,.12,.68,.12,.15,.02,.31-.04,.4-.17,.05-.08,.05-.19,0-.26-.15-.18-.54-.17-.58-.17-.2,.02-.39,.08-.56,.18l-.06,.04c-.24,.14-.49,.24-.76,.31,0,.09,0,.19,0,.28,.31-.06,.61-.17,.89-.32"/><path id="Path_1881" class="cls-17" d="M36.16,35.74h.03c.08,0,.16-.02,.24-.03,0-.1,0-.19,0-.28-.08,.01-.17,.02-.26,.02-.16,0-.33-.03-.48-.09v.3c.15,.05,.31,.07,.46,.07h0Z"/><path id="Path_1882" class="cls-5" d="M35.68,63.52l.59,1.62,.61-1.66-1.2,.04Z"/><path id="Path_1883" class="cls-5" d="M39.98,53.33c-2.33,1.6-5.4,1.45-7.57-.36-.14,.19-.27,.37-.41,.54l3.69,10,1.2-.04,3.54-9.61c-.15-.17-.3-.34-.44-.53"/><path id="Path_1884" class="cls-5" d="M31.4,51.92l.59,1.6c.14-.17,.28-.35,.41-.54-.37-.31-.71-.67-1-1.06"/><path id="Path_1885" class="cls-5" d="M40.42,53.86l.48-1.29c-.28,.29-.59,.54-.92,.76,.15,.19,.29,.36,.44,.53"/><path id="Path_1886" class="cls-8" d="M18.64,67.54c2.14,1.18,4.38,2.14,6.7,2.86l-4.29-16.55-2.41,13.69Z"/><path id="Path_1887" class="cls-8" d="M46.65,70.4c2.32-.72,4.57-1.68,6.71-2.86l-2.42-13.69-4.29,16.55Z"/><path id="Path_1888" class="cls-4" d="M50.94,53.85l.03-.11-3.39-1.9c-.57,1.15-1.39,2.14-2.4,2.91l.15,.32-1.62,1.8c-.24,2.26,.4,4.53,1.78,6.31l-7.7,.26-1.52,1.69-1.43-1.59-6.91,.24c-.05-.91-1.28-5.83-1.39-9.35-.83-.75-1.51-1.65-2.02-2.65l-3.48,1.96,.03,.1,.02-.1,7.65,17.52c2.4,.49,4.83,.74,7.28,.74,2.44,0,4.88-.25,7.27-.74l7.65-17.52,.02,.11Z"/><path id="Path_1889" class="cls-4" d="M26.54,54.44c-.04-.77,.01-1.55,.17-2.31l-1.4-.3,.81-.95-1.6,.9c.51,1,1.19,1.9,2.02,2.65"/><path id="Path_1890" class="cls-4" d="M47.22,51.83l-2.25,.48c-.12,.32-.26,.7-.41,1.11l.61,1.33c1.01-.77,1.83-1.76,2.4-2.91l-.66-.38,.31,.36Z"/><path id="Path_1891" class="cls-4" d="M45.49,63.18c-1.38-1.78-2.02-4.05-1.78-6.31l-5.91,6.57,7.7-.26Z"/><path id="Path_1892" class="cls-4" d="M27.26,54.95c-.26-.15-.5-.32-.72-.51,.11,3.52,1.34,8.44,1.39,9.35l6.91-.24-7.63-8.48,.05-.13Z"/><path id="Path_1893" class="cls-4" d="M28.4,52.48l-1.69-.35c-.16,.76-.21,1.53-.17,2.31,.23,.19,.47,.36,.73,.51l1.13-2.46Z"/><path id="Path_1894" class="cls-4" d="M44.56,53.42c.15-.41,.29-.79,.41-1.11l-.84,.18,.43,.93Z"/><path id="Path_1895" class="cls-4" d="M21.06,53.85l4.29,16.55c1.1,.34,2.23,.63,3.38,.87l-7.65-17.52-.02,.1Z"/><path id="Path_1896" class="cls-4" d="M50.92,53.75l-7.65,17.52c1.14-.23,2.27-.53,3.38-.87l4.29-16.55-.02-.11Z"/><path id="Path_1897" class="cls-8" d="M36.88,63.48l-.61,1.66,.66-1.66h-.05Z"/><path id="Path_1898" class="cls-8" d="M46.91,51.47l-.13-.15-3.8-4.41v2.34l3.93,2.21Z"/><path id="Path_1899" class="cls-8" d="M42.28,50.01l.37-.94,.33,.18v-2.34h0l-1,2.71c.09,.14,.19,.27,.3,.39"/><path id="Path_1900" class="cls-8" d="M36.88,63.48h.05s3.72-9.37,3.72-9.37c-.08-.08-.15-.16-.23-.25l-3.54,9.62Z"/><path id="Path_1901" class="cls-8" d="M41.3,51.46l-.41,1.11-.48,1.29c.08,.08,.15,.17,.23,.25l1.05-2.65h-.4Z"/><path id="Path_1902" class="cls-8" d="M41.7,51.46l.57-1.45c-.1-.12-.2-.25-.3-.39l-.68,1.84h.4Z"/><path id="Path_1903" class="cls-8" d="M36.27,65.14l1.51-1.69-.86,.03-.65,1.66Z"/><path id="Path_1904" class="cls-8" d="M43.7,56.87l1.62-1.8-.15-.32c-.36,.25-.77,.44-1.2,.54-.13,.52-.22,1.05-.27,1.58"/><path id="Path_1905" class="cls-8" d="M42.98,50.61c.37,.22,.8,.29,1.21,.22,1.23-.22,1.18,.36,.78,1.48l2.25-.48-.31-.37-3.93-2.22v1.36Z"/><path id="Path_1906" class="cls-8" d="M43.98,55.29c.43-.1,.83-.29,1.2-.54l-.61-1.33c-.23,.61-.42,1.24-.58,1.87"/><path id="Path_1907" class="cls-8" d="M42.98,50.61v-1.36l-.33-.18-.37,.94c.2,.24,.44,.44,.7,.6"/><path id="Path_1908" class="cls-8" d="M43.3,55.38c-1.01-.05-1.96-.5-2.65-1.27l-3.72,9.37,.86-.03,5.92-6.57c.05-.53,.15-1.06,.28-1.59-.22,.06-.45,.08-.68,.09"/><path id="Path_1909" class="cls-8" d="M44.19,50.82c-.42,.08-.85,0-1.21-.22v.85h-1.28l-1.05,2.65c.68,.76,1.64,1.22,2.65,1.27,.23,0,.46-.03,.68-.09,.16-.64,.35-1.26,.58-1.87l-.43-.93,.84-.17c.4-1.13,.45-1.7-.78-1.48"/><path id="Path_1910" class="cls-8" d="M42.98,51.46v-.85c-.27-.16-.5-.36-.7-.6l-.57,1.45h1.28Z"/><path id="Path_1911" class="cls-8" d="M35.58,63.53l.69,1.61-.59-1.62h-.1Z"/><path id="Path_1912" class="cls-8" d="M29.56,49.55v-2.64l-3.39,3.92-.05,.05,3.23-1.81,.21,.48Z"/><path id="Path_1913" class="cls-8" d="M29.88,50.31c.25-.21,.47-.46,.65-.73l-.98-2.67v2.64l.33,.76Z"/><path id="Path_1914" class="cls-8" d="M31.5,54.07l4.07,9.45h.1s-3.69-10-3.69-10c-.16,.2-.32,.38-.49,.55"/><path id="Path_1915" class="cls-8" d="M31.23,51.46h-.85l1.12,2.61c.17-.17,.33-.36,.49-.55l-.76-2.06Z"/><path id="Path_1916" class="cls-8" d="M30.54,49.58c-.19,.27-.41,.51-.66,.73l.49,1.15h.85l-.69-1.88Z"/><path id="Path_1917" class="cls-8" d="M34.84,63.55l1.43,1.59-.69-1.61-.73,.03Z"/><path id="Path_1918" class="cls-8" d="M28.22,50.82c.46,.08,.94-.02,1.33-.28v-1l-.21-.48-3.22,1.82-.82,.95,1.4,.3c.23-.92,.69-1.45,1.52-1.31"/><path id="Path_1919" class="cls-8" d="M29.56,49.55v1c.11-.07,.22-.15,.33-.24l-.33-.76Z"/><path id="Path_1920" class="cls-8" d="M31.5,54.07c-.69,.78-1.65,1.25-2.68,1.31-.55,0-1.08-.15-1.56-.43l-.05,.13,7.63,8.47,.73-.02-4.07-9.45Z"/><path id="Path_1921" class="cls-8" d="M27.27,54.95c.47,.28,1.01,.43,1.56,.43,1.03-.05,1.99-.52,2.68-1.31l-1.13-2.61h-.82v-.92c-.4,.26-.87,.36-1.33,.28-.83-.15-1.29,.38-1.52,1.31l1.69,.35-1.13,2.46Z"/><path id="Path_1922" class="cls-8" d="M29.56,50.55v.92h.82l-.49-1.16c-.1,.09-.21,.17-.33,.24"/><path id="Path_1923" class="cls-5" d="M35.54,38.66c-.59,.27-1.22,.42-1.86,.45,.72,.16,1.45,.27,2.19,.3-.03-.27-.05-.54-.06-.82-.09,.01-.18,.04-.27,.07"/><path id="Path_1924" class="cls-5" d="M36.93,38.63c-.2-.06-.41-.09-.63-.08-.02,.3-.04,.6-.07,.89,.08,0,.14,0,.18,0,.38,0,2-.06,2.59-.54h0c-.37,.33-1.82-.19-2.08-.27"/><path id="Path_1925" class="cls-5" d="M35.81,38.59c.02,.27,.04,.55,.06,.82,.15,0,.27,.02,.37,.02,.03-.29,.05-.59,.07-.89h-.08c-.14,0-.28,.02-.42,.05"/><path id="Path_1926" class="cls-10" d="M36.06,41.25v.03s0,0,0,0v-.03"/><path id="Path_1927" class="cls-10" d="M35.98,40.52l-.16,.02-1.55-.71-.59-.73c-.06,0-.12-.03-.17-.06h-.02s-.03-.03-.03-.04c1.14,1.88,1.68,2.26,2.6,2.27v-.03c-.03-.24-.05-.48-.07-.72"/><path id="Path_1929" class="cls-10" d="M37.2,40.36l-1.06,.14c-.03,.25-.06,.5-.08,.74v.03c.07,0,.14,0,.21,0,1.14-.04,1.58-.11,2.79-2.41-.02,0-.03,.02-.05,.03l-.61,.85-1.2,.61Z"/><path id="Path_1930" class="cls-10" d="M35.98,40.52c.03,.24,.05,.49,.08,.72,.03-.24,.06-.5,.08-.74l-.16,.02Z"/><path id="Path_1931" class="cls-10" d="M33.68,39.11h0l.6,.73,1.55,.71,.16-.02c-.04-.37-.08-.74-.1-1.11-.74-.04-1.47-.14-2.19-.3"/><path id="Path_1932" class="cls-10" d="M36.24,39.43c-.03,.36-.06,.72-.1,1.07l1.06-.14,1.2-.61,.61-.85c-.59,.48-2.21,.53-2.59,.54-.03,0-.1,0-.18,0"/><path id="Path_1933" class="cls-10" d="M36.24,39.43c-.1,0-.23-.01-.37-.02,.03,.38,.07,.75,.1,1.11l.16-.02c.04-.36,.07-.71,.1-1.07"/><path id="Path_1934" class="cls-10" d="M33.43,39h.02s-.01,0-.01,0h0Z"/><path id="Path_1935" class="cls-10" d="M33.51,39.04c.05,.03,.11,.05,.17,.06l-.08-.09,1.91-.99,.26-.04c0-.16-.02-.32-.02-.48-.08-.01-.16-.02-.23-.01-.97,.02-2.04,1.46-2.08,1.5,.01,.02,.03,.03,.04,.04h.03"/><path id="Path_1936" class="cls-10" d="M36.99,37.8l1.96,1.05,.06,.03h0s.04,0,.05-.02c0,0-1.16-1.43-2.16-1.41-.19,0-.38,.04-.54,.15v.29s.63-.1,.63-.1Z"/><path id="Path_1937" class="cls-10" d="M36.35,37.9c0-.1,.01-.2,.02-.29-.02,.01-.04,.03-.06,.05-.04,.05-.05,.07-.09,.07s-.05-.02-.09-.07c-.1-.09-.23-.15-.37-.15,0,.16,.01,.32,.02,.48l.58-.09Z"/><path id="Path_1938" class="cls-10" d="M35.54,38.66c.09-.03,.18-.05,.27-.07-.01-.2-.03-.4-.04-.6l-.26,.04-1.91,.99,.08,.09h0c.64-.03,1.28-.18,1.86-.45"/><path id="Path_1939" class="cls-10" d="M38.96,38.85l-1.96-1.05-.64,.1c-.01,.22-.02,.43-.04,.64,.21,0,.42,.02,.63,.08,.26,.09,1.71,.6,2.08,.27h0s-.06-.04-.06-.04Z"/><path id="Path_1940" class="cls-10" d="M36.23,38.54h.08c.02-.22,.03-.43,.04-.64l-.58,.09c.01,.21,.03,.4,.04,.6,.14-.03,.28-.04,.42-.05"/><path id="Path_1941" class="cls-10" d="M33.44,38.99h0s.01,.02,.01,.02c0,0,.02,.01,.03,.02-.02-.01-.03-.03-.05-.04"/><path id="Path_1942" class="cls-10" d="M33.51,39.04c.05,.03,.11,.05,.17,.06-.06-.01-.12-.03-.17-.06"/></g></g></g></svg>