<?xml version="1.0" encoding="UTF-8"?><svg id="Layer_11" xmlns="http://www.w3.org/2000/svg" xmlns:xlink="http://www.w3.org/1999/xlink" viewBox="0 0 72 72"><defs><style>.cls-1{fill:none;}.cls-2{clip-path:url(#clippath);}.cls-3{fill:#fff;}.cls-4{fill:#ef4861;}.cls-5{fill:#fcd8b0;}.cls-6{fill:#b3d235;}.cls-7{fill:#323232;}.cls-8{fill:#cca884;}.cls-9{fill:#1f9b86;}.cls-10{fill:#4a494a;}.cls-11{fill:#828e38;}</style><clipPath id="clippath"><rect class="cls-1" width="72" height="72"/></clipPath></defs><g id="Group_468"><g class="cls-2"><g id="Group_467"><path id="Path_1480" class="cls-4" d="M72,36c0,19.88-16.12,36-36,36S0,55.88,0,36,16.12,0,36,0s36,16.12,36,36"/><path id="Path_1481" class="cls-11" d="M38.53,64.48l.05,.05c.26-.19,.48-.42,.65-.7h0c.05-.09,.09-.18,.13-.27l.02-.07c.02-.06,.04-.13,.05-.19,0-.02,0-.03,.01-.05h-1.99c.33,.43,.69,.84,1.07,1.22h0Z"/><path id="Path_1482" class="cls-11" d="M32.35,64.5s.06,.04,.09,.06c.03-.03,.05-.06,.08-.08h0c.37-.39,.72-.79,1.03-1.23h-2c.1,.5,.39,.95,.8,1.25"/><path id="Path_1483" class="cls-5" d="M36.52,58.65c.71-5.2,3.61-4.68,8.05-8.05h-.01c1.6-1,3.02-2.26,4.22-3.74-4.11,3.45-8.63,6.33-13.46,8.59-4.84-2.35-9.34-5.38-13.37-9,1.26,1.65,2.8,3.06,4.54,4.15h-.01c4.45,3.36,7.75,2.81,8.05,8.05,.13,2.26-.19,3.48-.98,4.61h3.91c-.85-1.13-1.25-2.35-.94-4.61"/><path id="Path_1484" class="cls-5" d="M48.78,46.86c1.64-2.01,2.8-4.39,3.38-6.95-.11-.25-.33-.65-.62-1.17-.18,.58-.32,1.18-.43,1.78-.23,1.3-.51,4.06-2.82,4.9-1.05,.37-6.14,1.14-8.73-1.28-.7-.82-1.25-1.76-1.64-2.78-.29-.78-1.07-3.01-1.19-3.36-.09-.56-.57-.98-1.12-.98h-.25c-.56,0-1.03,.41-1.13,.98-.12,.34-.9,2.58-1.19,3.36-.39,1.01-.94,1.95-1.64,2.78-2.59,2.42-7.68,1.66-8.73,1.28-2.31-.84-2.59-3.6-2.83-4.9-.13-1.05-.45-2.06-.96-2.98-.12-.02-.24-.05-.36-.08,.26,3.28,1.45,6.4,3.43,8.99,4.03,3.62,8.53,6.64,13.37,8.99,4.83-2.26,9.35-5.14,13.46-8.59m-15.31-2.41c.14-.18,.52-.17,.56-.17,.19,.01,.38,.07,.54,.17l.06,.03c.3,.19,.63,.3,.98,.32,.35-.02,.69-.13,.98-.32l.06-.03c.16-.1,.35-.16,.54-.17,.04,0,.42-.01,.56,.17,.06,.07,.06,.17,.01,.25-.09,.12-.24,.19-.39,.16-.23,0-.45-.04-.67-.12-.33,.2-.71,.32-1.09,.34h-.02c-.39-.02-.76-.14-1.1-.34-.21,.08-.44,.12-.66,.12-.15,.02-.3-.04-.39-.16-.05-.08-.05-.18,.01-.25m-1.14,4.9s1.3-2.49,2.45-2.49c.27-.03,.53,.09,.69,.31,.05,.07,.06,.12,.11,.12s.06-.04,.11-.12c.16-.23,.42-.35,.69-.31,1.14,0,2.45,2.49,2.45,2.49h0c-.35,1.51-1.67,2.56-3.17,2.53h0s-.05,0-.08,0-.05,0-.08,0h0c-1.5,.03-2.82-1.02-3.17-2.53h0"/><path id="Path_1485" class="cls-5" d="M35.58,48.69c-.28,0-.55,.06-.8,.17-.35,.19-.7,.37-1.07,.52,1.22,.37,2.52,.37,3.74,0-.37-.15-.72-.32-1.07-.52-.25-.11-.53-.17-.8-.17"/><path id="Path_1486" class="cls-5" d="M33.44,35.26c.66,.24,1.34,.4,2.04,.49,1.09-.03,3.04-1.03,6.32-1.44,2.38-.23,4.77-.23,7.15-.02-1.77-2.97-3.6-5.96-3.6-5.96-3.43,3.18-7.5,5.54-11.91,6.93"/><path id="Path_1487" class="cls-5" d="M48.56,35.44c-1.99-.76-5.09-.68-7.08-.27-.98,.23-2.7,.47-3.09,1.88-.42,1.52,.39,3.63,1.07,4.97,.43,1.15,1.32,2.05,2.44,2.48,1.75,.62,3.63,.73,5.43,.34,1.25-.24,2.26-1.2,2.58-2.46,.32-1.54,.78-3.13,.46-4.67-.19-1.02-.88-1.87-1.82-2.26m.15,2.65c-1.11,.76-2.38,1.22-3.71,1.35-1.31,.06-2.61-.22-3.8-.79-.58,.28-.95,.49-.95,.49,.24-.21,.49-.41,.75-.59,.45-.31,.92-.58,1.41-.8,.79-.37,1.63-.6,2.49-.67,.39-.03,.78-.02,1.17,.03,.98,.12,1.94,.42,2.83,.86,.31,.15,.6,.32,.89,.51,0,0-.43-.17-1.08-.38"/><path id="Path_1488" class="cls-5" d="M26.31,37.08c.86,.07,1.71,.3,2.49,.67,.49,.23,.96,.5,1.4,.8,.26,.18,.51,.38,.75,.59,0,0-.37-.21-.95-.49-1.18,.58-2.49,.85-3.8,.79-1.32-.13-2.6-.59-3.7-1.35-.65,.21-1.08,.38-1.08,.38,.28-.19,.58-.36,.88-.5,.44-.22,.89-.4,1.35-.54-1.17,.13-2.19,.19-3.03,.2,0,.03-.02,.05-.03,.08-.32,1.54,.14,3.12,.46,4.67,.32,1.26,1.33,2.22,2.58,2.46,1.81,.4,3.69,.28,5.43-.34,1.13-.42,2.02-1.33,2.44-2.48,.68-1.34,1.49-3.45,1.07-4.97-.16-.52-.52-.96-1-1.2-1.77,.51-3.57,.92-5.38,1.23,.03,0,.06,0,.1,0"/><path id="Path_1489" class="cls-5" d="M32.52,64.48s-.05,.05-.08,.08c.38,.29,.8,.51,1.25,.66h0c.57,.2,1.17,.3,1.78,.3,.64,0,1.28-.11,1.89-.33,.43-.16,.84-.38,1.21-.66l-.05-.05h0c-.38-.39-.74-.8-1.07-1.22h-3.91c-.31,.43-.65,.84-1.03,1.22h0Z"/><path id="Path_1490" class="cls-4" d="M33.49,49.22c.06,.06,.14,.12,.22,.15,.37-.15,.72-.32,1.07-.52,.51-.23,1.09-.23,1.6,0,.35,.19,.71,.36,1.07,.52,.08-.04,.15-.09,.21-.15,.45-.58,1.16,.13,1.16,.13h0s0,0,0,0c0,0-1.3-2.49-2.45-2.49-.27-.03-.53,.09-.69,.31-.05,.07-.06,.12-.11,.12s-.06-.05-.11-.12c-.16-.23-.42-.35-.69-.31-1.14,0-2.45,2.49-2.45,2.49h0s0,0,0,0c0,0,.7-.71,1.16-.13"/><path id="Path_1491" class="cls-4" d="M35.51,51.88h0s.08,0,.08,0h.08c1.5,.03,2.83-1.02,3.17-2.53-.2,.37-.8,.24-1.37,.02-1.22,.37-2.52,.37-3.74,0-.57,.22-1.17,.35-1.37-.02,.34,1.5,1.67,2.55,3.17,2.52"/><path id="Path_1492" class="cls-4" d="M37.67,49.22c-.06,.06-.13,.12-.21,.15,.57,.22,1.17,.35,1.37-.02h0s-.7-.71-1.16-.13"/><path id="Path_1493" class="cls-4" d="M33.71,49.38c-.08-.04-.15-.09-.22-.15-.45-.58-1.16,.13-1.16,.13h0c.2,.38,.8,.25,1.37,.03"/><path id="Path_1494" class="cls-6" d="M45.49,67.28c0-.98-.65-1.83-1.58-2.07-.6-.2-2.8-1.19-4.45-1.95h-.01s-.01,.04-.01,.05c-.01,.06-.03,.13-.05,.19,0,.02-.01,.04-.02,.07-.03,.09-.08,.18-.13,.26h0c-.17,.28-.4,.52-.65,.71-.37,.28-.78,.51-1.21,.66-.61,.22-1.25,.33-1.89,.33-.6,0-1.21-.1-1.78-.3h0c-.45-.15-.87-.38-1.25-.67-.03-.02-.06-.04-.09-.06-.41-.3-.7-.74-.8-1.25h-.01c-1.66,.76-3.86,1.76-4.45,1.96-.93,.23-1.58,1.09-1.58,2.07l-.43,3.03c2.81,.89,5.71,1.43,8.64,1.61,.76,.04,1.51,.08,2.28,.08,.41,0,.82-.02,1.23-.03,2.95-.1,5.88-.56,8.73-1.37l-.47-3.32Zm-6.04-4.02h0s0,0,0,0"/><path id="Path_1495" class="cls-10" d="M63.67,23.39c-.05-4.37-3.55-7.87-7.81-7.81-2.46,0-4.78,1.16-6.28,3.17-7.59-7.56-19.64-7.7-27.39-.31-1.5-1.82-3.71-2.87-6.04-2.86-4.26-.05-7.76,3.44-7.81,7.81,.05,4.18,3.26,7.59,7.33,7.79-.15,1.06-.23,2.13-.23,3.2,0,4.53,2.92,8.67,6.53,12.07-1.98-2.58-3.17-5.71-3.43-8.99,.12,.03,.24,.06,.36,.08-.08-.13-.2-.23-.33-.3h-.02s-.02-.03-.03-.03c-.12-.06-.21-.18-.23-.33v-.34c0-.55,.04-1.28,.05-1.47v-.04s.04-.07,.07-.09c0,0,0-.02,.01-.02l.03-.02s.07-.03,.1-.04c1.59-.62,7.43-.97,10.63-.57,1.45,.19,2.88,.51,4.28,.95,4.42-1.39,8.48-3.75,11.91-6.93,0,0,1.83,2.99,3.6,5.96,1.21,.05,2.42,.26,3.58,.62h.02s.07,.07,.08,.11v.04c.01,.22,.06,1.19,.05,1.73v.08c-.02,.09-.06,.18-.13,.24-.04,.04-.08,.08-.13,.11h-.02c-.21,.1-.52,.4-.86,1.51,.29,.52,.5,.92,.61,1.17-.58,2.56-1.74,4.94-3.38,6.95,3.96-3.47,7.25-7.77,7.25-12.48,0-1.06-.08-2.13-.22-3.18h.05c4.26,.06,7.76-3.44,7.81-7.81m-41.24,12.06c-.91,.38-1.58,1.2-1.79,2.18,.84-.01,1.86-.07,3.03-.2,.48-.15,.98-.26,1.48-.33,.36-.04,.72-.05,1.07-.03,1.82-.31,3.61-.72,5.38-1.23-.66-.32-1.37-.55-2.1-.67-1.99-.4-5.09-.48-7.08,.27"/><path id="Path_1496" class="cls-8" d="M33.85,44.87c.23,0,.45-.03,.66-.12,.33,.2,.71,.32,1.1,.34h.02c.39-.02,.76-.14,1.1-.34,.21,.09,.44,.13,.67,.12,.15,.02,.3-.04,.39-.16,.05-.08,.05-.18,0-.25-.14-.18-.52-.17-.56-.17-.19,.01-.38,.07-.54,.18l-.06,.03c-.3,.19-.63,.3-.98,.32-.35-.02-.69-.13-.98-.32l-.06-.03c-.16-.1-.35-.16-.54-.18-.04,0-.42-.01-.56,.17-.06,.07-.06,.17-.01,.25,.09,.12,.24,.19,.39,.16"/><path id="Path_1497" class="cls-3" d="M26.82,39.41c-.97-.06-1.74-.88-1.73-1.89-.88,.11-1.74,.3-2.58,.58,1.11,.76,2.38,1.22,3.7,1.35,1.31,.06,2.62-.22,3.8-.8-.36-.17-.8-.37-1.27-.54-.27,.83-1.06,1.37-1.91,1.3"/><path id="Path_1498" class="cls-9" d="M26.82,39.41c.85,.07,1.64-.47,1.91-1.3-.79-.32-1.63-.53-2.48-.62-.39-.02-.78-.01-1.17,.03,0,1,.76,1.83,1.73,1.88m.04-1.69c.31,.03,.54,.32,.51,.64s-.31,.55-.62,.52c-.31-.03-.53-.31-.51-.62,.03-.33,.31-.57,.63-.54"/><path id="Path_1499" class="cls-7" d="M21.43,38.47s.43-.17,1.08-.38c.84-.27,1.71-.47,2.58-.58,.39-.04,.78-.06,1.17-.03,.85,.09,1.68,.29,2.48,.61,.48,.18,.92,.38,1.27,.55,.58,.28,.95,.49,.95,.49-.24-.21-.49-.41-.75-.59-.44-.31-.91-.58-1.4-.8-.79-.37-1.63-.6-2.49-.67-.03,0-.06,0-.1,0-.9,.15-1.76,.27-2.55,.35-.46,.14-.91,.32-1.35,.54-.3,.15-.6,.32-.88,.51"/><path id="Path_1500" class="cls-7" d="M25.14,37.1c-.5,.06-1,.17-1.48,.33,.79-.09,1.65-.2,2.55-.35-.36-.02-.72,0-1.07,.03"/><path id="Path_1501" class="cls-7" d="M26.78,38.88c.32,.03,.6-.22,.63-.54,.02-.32-.22-.6-.54-.62,0,0,0,0,0,0-.32-.03-.6,.22-.63,.54-.02,.33,.22,.6,.54,.62,0,0,0,0,0,0m.12-.62c.1,0,.18,.1,.17,.21s-.1,.18-.2,.17c-.1,0-.17-.1-.17-.2,0-.11,.1-.18,.2-.18"/><path id="Path_1502" class="cls-3" d="M26.87,38.64c.1,0,.19-.08,.19-.18,0-.1-.07-.19-.18-.2-.1,0-.18,.07-.19,.17,0,.1,.07,.19,.17,.2,0,0,0,0,0,0"/><path id="Path_1503" class="cls-3" d="M44.39,39.41c-.85,.07-1.64-.47-1.91-1.3-.48,.18-.92,.37-1.27,.54,1.18,.58,2.49,.85,3.8,.8,1.32-.13,2.6-.59,3.7-1.35-.84-.27-1.71-.47-2.58-.58,0,1-.76,1.83-1.73,1.89"/><path id="Path_1504" class="cls-9" d="M44.39,39.41c.97-.06,1.74-.88,1.73-1.88-.39-.05-.78-.06-1.17-.03-.85,.09-1.68,.29-2.47,.62,.27,.83,1.06,1.37,1.91,1.3m-.03-1.69c.32-.02,.59,.22,.62,.54,.02,.32-.22,.6-.53,.62,0,0,0,0,0,0-.31,.03-.59-.2-.62-.53-.03-.32,.2-.61,.51-.64,.01,0,.02,0,.03,0"/><path id="Path_1505" class="cls-7" d="M46.07,37.1c-.39-.04-.78-.05-1.17-.03-.86,.07-1.71,.3-2.49,.67-.49,.23-.96,.49-1.41,.8-.26,.18-.51,.38-.75,.59,0,0,.37-.21,.95-.49,.36-.17,.8-.37,1.27-.55,.79-.32,1.63-.53,2.47-.61,.39-.02,.78-.01,1.17,.03,.88,.11,1.74,.3,2.58,.58,.65,.21,1.08,.38,1.08,.38-.28-.19-.58-.36-.89-.51-.89-.45-1.84-.74-2.83-.86"/><path id="Path_1506" class="cls-7" d="M44.43,38.88c.31-.03,.54-.32,.51-.64-.03-.32-.31-.55-.62-.52-.31,.03-.53,.31-.51,.62,.02,.32,.3,.57,.62,.54,0,0,0,0,0,0m-.12-.62c.1,0,.19,.07,.2,.18,.01,.11-.07,.2-.17,.21-.1,.01-.2-.07-.21-.18-.01-.11,.07-.2,.17-.21,0,0,0,0,0,0"/><path id="Path_1507" class="cls-3" d="M44.35,38.64c.1,0,.18-.1,.18-.2,0,0,0,0,0,0-.01-.1-.1-.18-.2-.17-.1,0-.18,.1-.17,.2,0,.1,.1,.18,.2,.17"/></g></g></g></svg>