<?xml version="1.0" encoding="UTF-8"?><svg id="Layer_25" xmlns="http://www.w3.org/2000/svg" xmlns:xlink="http://www.w3.org/1999/xlink" viewBox="0 0 72 72"><defs><style>.cls-1{fill:none;}.cls-2{clip-path:url(#clippath);}.cls-3{fill:#017d8d;}.cls-4{fill:#e9caab;}.cls-5{fill:#fff;}.cls-6{fill:#ef4861;}.cls-7{fill:#fcd8b0;}.cls-8{fill:#e66b5b;}.cls-9{fill:#929293;}.cls-10{fill:#8cc4c6;}.cls-11{fill:#cca884;}.cls-12{fill:#29bec8;}.cls-13{fill:#4a494a;}.cls-14{fill:#256b7c;}</style><clipPath id="clippath"><rect class="cls-1" width="72" height="72"/></clipPath></defs><g id="Group_444"><g class="cls-2"><g id="Group_443"><path id="Path_788" class="cls-6" d="M72,35.98c0,19.88-16.12,35.99-36,35.99S0,55.86,0,35.98,16.12,0,36,0s36,16.11,36,35.98"/><path id="Path_789" class="cls-14" d="M27.44,50.09h17.06s2.66,3.24,2.66,3.24l-9.46,6.58-10.71-2.26-.81-6.03,1.26-1.53Z"/><path id="Path_790" class="cls-13" d="M27.25,20.26c-.07,3.84-3.13,6.89-6.83,6.82-3.7,.07-6.75-2.98-6.83-6.82,.07-3.84,3.13-6.89,6.83-6.82,3.7-.07,6.75,2.98,6.83,6.82"/><path id="Path_791" class="cls-13" d="M59.68,20.26c-.15,3.92-3.33,6.96-7.1,6.81-3.56-.15-6.41-3.11-6.55-6.81,.15-3.92,3.33-6.96,7.1-6.81,3.56,.15,6.41,3.11,6.55,6.81"/><path id="Path_792" class="cls-13" d="M19.94,25.99c-.19-9.2,6.85-16.82,15.7-17.01,8.86-.19,16.19,7.11,16.38,16.31,0,.23,0,.47,0,.7,0,9.34-16.04,16.9-16.04,16.9,0,0-16.04-7.57-16.04-16.9"/><path id="Path_793" class="cls-9" d="M36.38,32.04c0,.23-.19,.42-.41,.42-.22,0-.4-.19-.4-.43,0-.23,.18-.42,.41-.42,.23,0,.41,.19,.41,.43"/><path id="Path_794" class="cls-9" d="M35.57,31.97c0,.23,.19,.42,.42,.41,.22,0,.4-.2,.39-.43,0-.23-.19-.41-.41-.41-.23,0-.41,.19-.41,.43,0,0,0,0,0,0"/><path id="Path_797" class="cls-4" d="M41.92,58.85l-11.8,.04-.08-17.31,11.8-.04,.08,17.31Z"/><path id="Path_798" class="cls-7" d="M35.35,12.86c7.82-.15,14.28,7.42,14.45,16.93,0,.8-.03,1.6-.1,2.39,.49-.18,.92,.3,1.05,1.56,.07,1.55-.18,3.1-.74,4.53-.78,2.01-1.53,1.39-1.92,.07-1.44,3.36-3.96,6.09-7.13,7.72-1.18,1.63-3.01,2.62-4.97,2.68h-.02c-1.96-.07-3.79-1.05-4.97-2.68-3.17-1.63-5.7-4.36-7.13-7.72-.38,1.32-1.14,1.94-1.92-.07-.56-1.44-.81-2.99-.74-4.53,.13-1.26,.56-1.73,1.05-1.56-.07-.8-.11-1.59-.1-2.39,.17-9.5,6.63-17.07,14.45-16.93"/><path id="Path_799" class="cls-12" d="M44.01,51.35v-.03s0,.03,0,.03"/><path id="Path_800" class="cls-12" d="M44.47,50.09s-.02,.09-.03,.13c.01-.04,.03-.08,.03-.13h0"/><path id="Path_801" class="cls-3" d="M44.01,51.35c-1,1.4-2.41,2.42-4.02,2.91h0c-1.31,.47-2.69,.71-4.07,.72-1.3,0-2.6-.22-3.83-.64h-.01c-1.04-.35-2.02-.87-2.89-1.56-.88-.64-1.5-1.6-1.72-2.7h-.01c.22,1.09,.84,2.06,1.73,2.7-4.1,4.46-6.71,10.17-7.46,16.28,9.12,3.91,19.36,3.91,28.49,0-.75-6.11-3.36-11.82-7.45-16.28,.5-.4,.93-.88,1.27-1.43"/><path id="Path_802" class="cls-10" d="M27.44,50.09h-.02c-3.56,1.64-8.31,3.79-9.6,4.22-2.15,.72-3.4,2.33-3.4,4.45l-.77,5.49c2.48,1.96,5.19,3.58,8.06,4.82,.75-6.12,3.36-11.82,7.46-16.28-.88-.64-1.5-1.6-1.73-2.69"/><path id="Path_803" class="cls-10" d="M54.1,54.31c-1.29-.43-6.03-2.58-9.6-4.21h-.02s-.02,.07-.03,.11c-.03,.14-.06,.28-.1,.41-.02,.05-.03,.09-.05,.14-.07,.19-.16,.38-.27,.56v.03c-.35,.55-.78,1.03-1.28,1.43,4.09,4.46,6.71,10.17,7.46,16.29,2.88-1.24,5.59-2.86,8.07-4.82l-.77-5.49c0-2.12-1.25-3.73-3.4-4.44"/><path id="Path_804" class="cls-11" d="M37.81,39.46c-.12-.15-.43-.14-.47-.14-.16,.01-.31,.06-.45,.14l-.05,.03c-.25,.16-.53,.25-.82,.27-.02,0-.03,0-.05,0-.27-.03-.53-.12-.76-.26l-.05-.03c-.14-.08-.29-.13-.45-.14-.04,0-.35-.02-.47,.14-.05,.06-.05,.15,0,.21,.08,.1,.2,.15,.32,.13,.19,0,.38-.03,.56-.1,.25,.15,.53,.24,.82,.27,.03,0,.06,0,.09,0h.02c.32-.02,.64-.11,.91-.28,.18,.07,.36,.1,.55,.1,.12,.02,.25-.03,.32-.13,.04-.06,.04-.15,0-.21"/><path id="Path_805" class="cls-8" d="M37.37,42.05c-.82,.19-.9,.48-1.32,.47-.54-.11-1.08-.27-1.59-.49-.24-.04-.61-.06-1-.09-.66-.05-1.36-.11-1.5-.36,.21,.37,.41,.71,.6,1,1.31,2.09,2.05,2.41,3.41,2.39,1.64-.02,2.28-.11,4.1-3.37-.81,.73-2.18,.34-2.7,.45"/><path id="Path_806" class="cls-5" d="M33.77,36.08s-.72-3.83-3.98-4.54c-3.49-.77-4.47,1.48-4.47,1.48,.49,1.77,1.99,3.05,3.76,3.19,1.56,.22,3.14,.17,4.69-.13"/><path id="Path_807" class="cls-14" d="M27.52,32.57c-.53,1.08-.11,2.4,.93,2.95,.03,.02,.06,.03,.09,.04,1.1,.55,2.42,.1,3-1.02,.53-1.08,.11-2.4-.93-2.95-.03-.02-.06-.03-.09-.04-1.1-.55-2.42-.1-3,1.01"/><path id="Path_808" class="cls-13" d="M28.2,32.63c-.38,.78-.08,1.72,.67,2.11,.02,.01,.04,.02,.06,.03,.79,.39,1.73,.07,2.14-.73,.38-.78,.08-1.72-.67-2.11-.02,0-.04-.02-.06-.03-.79-.39-1.73-.07-2.14,.72"/><path id="Path_809" class="cls-5" d="M29.65,32.79c-.14,.28-.02,.62,.25,.76,0,0,0,0,.01,0,.28,.14,.62,.03,.77-.26,.13-.28,.02-.62-.25-.76,0,0,0,0-.01,0-.28-.14-.62-.03-.77,.26"/><path id="Path_810" class="cls-5" d="M28.87,32.63c-.07,.15-.01,.33,.13,.41,0,0,0,0,0,0,.15,.07,.33,.01,.41-.14,.07-.15,.02-.33-.13-.41,0,0,0,0-.01,0-.15-.08-.33-.01-.41,.14"/><path id="Path_811" class="cls-13" d="M33.77,36.08s-1.08-5.55-8.46-3.2c.86-1.48,6.68-4.34,8.46,3.2"/><path id="Path_812" class="cls-5" d="M38.43,36.08s.72-3.83,3.98-4.54c3.49-.77,4.46,1.48,4.46,1.48-.49,1.77-1.99,3.05-3.76,3.19-1.56,.22-3.14,.17-4.68-.13"/><path id="Path_813" class="cls-14" d="M44.68,32.57c.53,1.08,.11,2.41-.93,2.96-.03,.01-.05,.03-.08,.04-1.1,.55-2.42,.1-3-1.02-.53-1.08-.11-2.4,.93-2.95,.03-.01,.06-.03,.09-.04,1.1-.55,2.42-.1,3,1.01"/><path id="Path_814" class="cls-13" d="M44,32.63c.38,.77,.08,1.72-.66,2.11-.02,.01-.04,.02-.06,.03-.79,.39-1.73,.07-2.14-.73-.38-.78-.07-1.72,.67-2.12,.02,0,.04-.02,.05-.03,.79-.39,1.73-.07,2.14,.72"/><path id="Path_815" class="cls-5" d="M42.54,32.79c.14,.28,.03,.62-.24,.76,0,0-.02,0-.02,.01-.28,.14-.62,.03-.77-.26-.13-.28-.02-.62,.25-.76,0,0,0,0,.01,0,.28-.14,.62-.03,.77,.26"/><path id="Path_816" class="cls-5" d="M43.32,32.63c.07,.15,.01,.33-.13,.41,0,0,0,0-.01,0-.15,.07-.33,.01-.41-.14-.07-.15-.02-.33,.13-.41,0,0,0,0,.01,0,.15-.08,.33-.01,.41,.14"/><path id="Path_817" class="cls-13" d="M38.43,36.08s1.08-5.55,8.46-3.2c-.87-1.49-6.68-4.34-8.46,3.2"/><path id="Path_818" class="cls-13" d="M35.21,12.66c7.89-.14,14.78,6.81,14.95,16.41,0,.82-.39,2.32-.46,3.11,.25-.08-5.64-7.3-5.64-7.3-7.83,7.83-22.09,7.21-21.83,7.29-.07-.79-.35-1.59-.35-2.41,.17-9.59,6.7-17.24,14.6-17.1"/></g></g></g></svg>