<?xml version="1.0" encoding="UTF-8"?><svg id="Layer_22" xmlns="http://www.w3.org/2000/svg" xmlns:xlink="http://www.w3.org/1999/xlink" viewBox="0 0 72 72"><defs><style>.cls-1{fill:none;}.cls-2{clip-path:url(#clippath);}.cls-3{fill:#f2f1f1;}.cls-4{fill:#e8e9e9;}.cls-5{fill:#fff;}.cls-6{fill:#fbb316;}.cls-7{fill:#9e6b41;}.cls-8{fill:#a9423a;}.cls-9{fill:#bc824d;}.cls-10{fill:#d4d4c6;}.cls-11{fill:#e1495c;}.cls-12{fill:#d7c2af;}.cls-13{fill:#1f0b3a;}.cls-14{fill:#452410;}.cls-15{fill:#4a494a;}.cls-16{fill:#383c3d;}.cls-17{fill:#7a5332;}</style><clipPath id="clippath"><rect class="cls-1" width="72" height="72"/></clipPath></defs><g id="Group_482"><g class="cls-2"><g id="Group_481"><path id="Path_1944" class="cls-10" d="M72,35.99c.08,19.96-15.97,36.2-35.85,36.28C16.27,72.35,.08,56.24,0,36.28-.08,16.33,15.97,.08,35.85,0c.05,0,.1,0,.15,0,19.84-.04,35.95,16.07,35.99,35.99"/><path id="Path_1945" class="cls-7" d="M35.46,64.66s19.61-11.71,19.4-12.4c-.43-1.47-2.15-3.23-5.41-3.13-4.53,.47-10.99-3-9.61-9.38l-3.92,.08-3.92-.08c1.38,6.39-5.07,9.85-9.6,9.38-3.26-.11-4.97,1.66-5.4,3.13-.2,.67,18.46,12.4,18.46,12.4"/><path id="Path_1946" class="cls-7" d="M19.61,49.8c-.06,0-.12,0-.18,0-1.74,.09-5.37,5.78-8.73,11.79,2.24,2.21,4.76,4.12,7.49,5.69,2.36-3.19,4.29-6.29,4.75-8.02,1.07-4.07-2.68-8.5-3.33-9.45"/><path id="Path_1947" class="cls-7" d="M52.44,49.8c-.05,0-.11,0-.17,0-.66,.95-4.31,5.36-3.33,9.45,.4,1.68,2.35,4.85,4.71,8.09,2.75-1.55,5.29-3.47,7.55-5.68-3.36-6.02-7.01-11.78-8.75-11.87"/><path id="Path_1948" class="cls-5" d="M51.29,49.27c-1.04-.19-2.1-.26-3.16-.23-3.91,8.8-7.73,12.44-12.19,14.54-4.42-2.1-8.97-5.69-12.19-14.55-1.06-.04-2.12,.04-3.16,.23,0,0,3.96,8.97,.32,14.08,.74,1.98,1.34,4.01,1.77,6.08,8.51,3.42,18,3.44,26.52,.05,.46-2.15,1.08-4.25,1.86-6.31-3.64-5.1,.24-13.9,.24-13.9"/><path id="Path_1949" class="cls-4" d="M60.97,21.41c.96,4.27-8.83,10.12-21.87,13.07-13.04,2.95-24.4,1.86-25.36-2.41s8.82-10.13,21.87-13.07c13.05-2.94,24.4-1.87,25.37,2.41"/><path id="Path_1950" class="cls-9" d="M47.73,24.82c.63-.16,1.15,.47,1.16,2.02-.08,1.89-.57,3.73-1.45,5.41-1.24,2.35-2.15,1.5-2.48-.13-.03,.06-.08,.12-.12,.18,1.22-2.38,2.18-4.89,2.88-7.48"/><path id="Path_1951" class="cls-9" d="M24.03,24.82c-.64-.16-1.16,.47-1.17,2.02,.08,1.89,.57,3.74,1.45,5.41,1.24,2.35,2.15,1.5,2.48-.13,.03,.06,.08,.12,.12,.18-1.22-2.39-2.18-4.89-2.88-7.48"/><path id="Path_1952" class="cls-9" d="M35.93,11.08c-6.91,0-13.47,6.06-11.71,15.67,1.42,7.72,2.69,12.58,7.32,15.81,1.12,1.25,2.75,1.92,4.42,1.84,1.68,.11,3.32-.57,4.44-1.84,4.17-3.14,6.04-8.72,7.32-15.81,1.66-9.2-4.88-15.67-11.79-15.67"/><path id="Path_1953" class="cls-15" d="M25.89,23.29c.7-.65,1.66-.95,2.6-.81,1.48,.28,5.66,2.03,5.14,3.42-.11,.28-.9-.5-1.24-.79-.37-.32-3.76-3.06-6.51-1.82"/><path id="Path_1954" class="cls-5" d="M27.61,26.12c-.07,.31,.54,1.33,1.97,1.51,.72,.07,1.44,.09,2.16,.06,.31,.06,.62,.17,.89,.34,.15,.19,.64,.26,.43-.2-.35-1.2-1.32-2.12-2.54-2.4-1.83-.34-2.84,.37-2.91,.69"/><path id="Path_1955" class="cls-12" d="M31.71,27.68c-.72,.03-1.44,0-2.16-.06-.88-.06-1.64-.63-1.96-1.46,.04-.16,.15-.3,.3-.39,0,0-.32,.03-.39,.25-.08,.24-.04,.51,.12,.71,.46,.61,1.15,1,1.91,1.07,.59,.08,1.18,.1,1.78,.06,.12-.02,.24-.02,.36,0,.14,0,.28-.02,.4-.08-.13-.05-.26-.08-.36-.1"/><path id="Path_1956" class="cls-14" d="M31.2,26.54c-.06,.63-.61,1.09-1.24,1.04-.63-.06-1.09-.61-1.03-1.24,.06-.63,.61-1.09,1.24-1.04,0,0,0,0,0,0,.63,.06,1.09,.61,1.03,1.24"/><path id="Path_1957" class="cls-13" d="M30.43,26.34c-.02,.19-.19,.34-.38,.32-.19-.02-.33-.19-.32-.38,.02-.19,.19-.34,.38-.32,0,0,0,0,0,0,.19,.01,.33,.18,.31,.37,0,0,0,0,0,.01"/><path id="Path_1958" class="cls-3" d="M30.23,26.22c0,.08-.08,.14-.17,.13s-.14-.08-.13-.17c.01-.08,.08-.14,.16-.14,.08,0,.15,.08,.14,.17,0,0,0,0,0,0"/><path id="Path_1959" class="cls-3" d="M30.25,26.48s-.04,.05-.07,.05c-.03,0-.05-.03-.05-.06,0-.03,.02-.05,.05-.05,0,0,0,0,0,0,.03,0,.06,.03,.06,.06,0,0,0,0,0,0"/><path id="Path_1960" class="cls-3" d="M30.06,26.5s-.02,.05-.05,.05c0,0,0,0-.01,0-.03,0-.05-.03-.05-.06,0-.03,.03-.05,.06-.05,0,0,0,0,0,0,.03,0,.05,.02,.05,.05,0,0,0,0,0,.01"/><path id="Path_1961" class="cls-16" d="M30.85,25.38c0-.05-.01-.11-.01-.16-.01,.05-.02,.09-.02,.14,0,0-.01,0-.02,0-.06-.02-.11-.03-.17-.04,0-.06-.02-.12-.02-.18-.01,.06-.02,.11-.02,.17-.05-.01-.1-.02-.15-.03-.02-.08-.04-.17-.04-.26-.02,.08-.02,.16-.02,.24-.05,0-.09-.02-.14-.02-.03-.1-.05-.2-.05-.3-.02,.1-.03,.2-.02,.29-.07,0-.13-.02-.2-.02-.07-.17-.11-.35-.12-.53-.04,.17-.04,.35,0,.53-.06,0-.12,0-.19,0-.1-.19-.15-.4-.16-.61-.05,.2-.04,.41,.02,.61-.03,0-.08,0-.15,0-.15-.22-.23-.49-.24-.76-.06,.26-.03,.53,.08,.77-.04,0-.07,0-.12,.01-.3-.31-.47-.72-.48-1.15-.11,.4-.02,.83,.23,1.17-.48-.33-.77-.87-.77-1.46-.17,.56,.02,1.16,.48,1.51-.01,0-.02,0-.04,0-.59-.36-.95-1.01-.95-1.71-.16,.59,0,1.22,.44,1.65-.61-.36-.98-1.02-.98-1.73-.22,.7,.07,1.46,.7,1.83-.65-.34-1.06-1.02-1.06-1.76-.27,.77,.14,1.62,.91,1.89,.05,.02,.1,.03,.15,.04-.04,.01-.09,.04-.14,.05-1.39-.14-1.56-1.69-1.56-1.69-.08,.89,.24,1.85,1.2,1.88l-.06,.09c-.77-.11-1.41-.63-1.69-1.36,.01,.72,.51,1.34,1.21,1.52-.13,.08-.23,.19-.3,.33,.23-.28,.63-.38,.96-.23,0,.08,.03,.15,.06,.22-.35-.19-.78-.05-.97,.3-.03,.06-.06,.13-.07,.2,.21-.37,.65-.55,1.06-.42h0c.03,.09,.07,.17,.11,.24-.38-.13-.79,.07-.92,.44-.01,.03-.02,.06-.03,.1,.2-.35,.61-.54,1-.45,.05,.06,.09,.12,.13,.17-.35-.07-.69,.15-.77,.5,0,0,0,0,0,0,.17-.3,.51-.46,.85-.4l.08,.07c-.32,0-.59,.21-.66,.52,.21-.38,.68-.53,1.07-.32,.02,0,.03,.02,.04,.03-.05-.05-.1-.09-.16-.12h-.01c-.74-.71-.61-1.09-.54-1.21,.09-.09,.2-.16,.32-.22,3.5-.83,5.22,2.56,5.22,2.56-.16-1.35-1.07-2.49-2.34-2.94"/><path id="Path_1962" class="cls-15" d="M46.39,23.29c-.7-.65-1.66-.95-2.61-.81-1.49,.28-5.66,2.03-5.15,3.42,.11,.28,.91-.5,1.24-.79,.37-.32,3.77-3.06,6.51-1.82"/><path id="Path_1963" class="cls-5" d="M44.67,26.12c.08,.31-.54,1.33-1.96,1.51-.72,.07-1.44,.09-2.17,.06-.32,.06-.62,.17-.9,.34-.15,.19-.64,.26-.43-.2,.35-1.2,1.32-2.12,2.54-2.4,1.83-.34,2.84,.37,2.91,.69"/><path id="Path_1964" class="cls-12" d="M40.57,27.68c.72,.03,1.44,0,2.16-.06,.88-.06,1.64-.63,1.95-1.46-.04-.17-.15-.31-.3-.39,0,0,.32,.03,.4,.25,.08,.24,.04,.51-.12,.71-.46,.61-1.15,1-1.91,1.07-.59,.08-1.18,.1-1.78,.06-.12-.02-.24-.02-.36,0-.14,0-.28-.02-.4-.08,.13-.05,.26-.08,.36-.1"/><path id="Path_1965" class="cls-14" d="M41.08,26.54c.06,.63,.61,1.1,1.24,1.04,.63-.06,1.09-.61,1.03-1.24s-.61-1.1-1.24-1.04c0,0,0,0,0,0-.63,.06-1.09,.62-1.03,1.24"/><path id="Path_1966" class="cls-13" d="M41.84,26.34c.02,.19,.19,.33,.38,.31,.19-.02,.33-.19,.31-.38-.02-.19-.19-.33-.38-.31-.19,.02-.33,.19-.31,.38"/><path id="Path_1967" class="cls-3" d="M42.05,26.22c0,.08,.08,.14,.17,.13s.14-.08,.13-.17c-.01-.08-.08-.14-.16-.14-.08,0-.15,.08-.14,.17,0,0,0,0,0,0"/><path id="Path_1968" class="cls-3" d="M42.03,26.48s.03,.06,.06,.05c.03,0,.05-.03,.05-.06,0-.03-.03-.05-.06-.05,0,0,0,0,0,0-.03,0-.05,.02-.05,.05,0,0,0,0,0,0"/><path id="Path_1969" class="cls-3" d="M42.22,26.5s.02,.05,.05,.05c0,0,0,0,0,0,.03,0,.05-.03,.05-.06,0,0,0,0,0,0,0-.03-.02-.05-.05-.05,0,0,0,0-.01,0-.03,0-.05,.03-.05,.06"/><path id="Path_1970" class="cls-16" d="M39.08,28.33s1.73-3.39,5.23-2.56c.12,.05,.23,.13,.32,.22,.07,.12,.2,.51-.54,1.2h0c-.06,.04-.12,.08-.17,.13,.37-.23,.86-.12,1.09,.25,0,.01,.02,.03,.02,.04-.07-.31-.35-.52-.67-.52,.03-.02,.05-.05,.08-.07,.34-.06,.68,.1,.86,.4-.08-.35-.42-.58-.77-.5,.05-.05,.09-.11,.13-.17,.4-.09,.8,.09,1,.45-.08-.39-.46-.65-.85-.57-.03,0-.07,.02-.1,.03,.05-.07,.09-.15,.11-.23h0c.41-.13,.85,.04,1.06,.42-.08-.39-.45-.64-.84-.57-.07,.01-.14,.04-.2,.07,.02-.07,.04-.15,.05-.22,.34-.15,.73-.06,.96,.23-.07-.13-.17-.25-.3-.33,.7-.17,1.2-.79,1.21-1.52-.27,.73-.92,1.25-1.69,1.36l-.06-.09c.96-.03,1.28-.99,1.2-1.88,0,0-.17,1.55-1.56,1.69-.05-.02-.09-.04-.14-.05,.79-.18,1.29-.98,1.11-1.78-.01-.05-.03-.1-.04-.16,0,.74-.41,1.43-1.07,1.77,.63-.37,.93-1.13,.71-1.83,0,.71-.37,1.37-.98,1.73,.43-.43,.6-1.06,.43-1.65,0,.7-.35,1.34-.94,1.71-.01,0-.03,0-.04,0,.46-.35,.65-.95,.49-1.51,0,.58-.29,1.13-.77,1.46,.25-.33,.33-.76,.23-1.17,0,.43-.18,.84-.48,1.15-.04,0-.08,0-.12-.01,.11-.24,.14-.51,.08-.77,0,.27-.09,.53-.24,.76-.06,0-.11,0-.15,0,.06-.2,.06-.41,.02-.61,0,.21-.06,.42-.15,.61-.06,0-.12,0-.19,0,.04-.17,.04-.35,0-.53,0,.18-.04,.36-.12,.53-.06,0-.13,.01-.19,.02,0-.1,0-.2-.02-.29,0,.1-.02,.21-.05,.3-.05,0-.1,.01-.15,.02,0-.08,0-.16-.02-.24,0,.09-.01,.17-.04,.26-.05,.01-.1,.02-.14,.03,0-.05-.02-.11-.02-.17,0,.06,0,.12-.02,.18-.06,.01-.11,.03-.17,.04,0,0,0,0-.01,0,0-.05-.01-.1-.02-.14,0,.05,0,.11-.01,.16-1.27,.46-2.18,1.6-2.35,2.95"/><path id="Path_1971" class="cls-17" d="M38.97,34.28c-.19-.21-.68-.2-.74-.2-.25,.02-.5,.09-.72,.22l-.07,.03c-.39,.23-.84,.37-1.29,.4-.46-.03-.9-.16-1.3-.4l-.08-.03c-.22-.13-.46-.2-.72-.22-.06,0-.56-.01-.74,.2-.08,.09-.08,.22-.01,.32,.12,.15,.31,.23,.51,.21,.3,0,.59-.05,.88-.15,.44,.24,.94,.38,1.44,.41h.03c.51-.03,1-.17,1.44-.41,.28,.1,.58,.15,.87,.15,.2,.03,.39-.05,.51-.21,.06-.1,.06-.22-.01-.32"/><path id="Path_1972" class="cls-11" d="M45.41,9.45v.02s.01-.02,.01-.02h-.01Z"/><path id="Path_1973" class="cls-11" d="M22.84,17.29s.04,.02,.06,.02c0-.02-.01-.03-.02-.05-.01,0-.03,.02-.04,.03"/><path id="Path_1974" class="cls-5" d="M50.8,17.37c-1.7-8.1-9.62-13.27-17.68-11.57-8.07,1.71-13.22,9.65-11.52,17.75,.02,.09,.04,.17,.06,.26,4.44-2.15,9.13-3.77,13.95-4.81,4.98-1.18,10.08-1.73,15.2-1.63"/><path id="Path_1975" class="cls-6" d="M21.3,21.36c.05,.83,.17,1.64,.35,2.45,4.44-2.15,9.13-3.77,13.95-4.81,4.98-1.18,10.08-1.73,15.2-1.63-.19-.87-.45-1.73-.79-2.55-4.88,.18-9.72,.82-14.48,1.92-4.88,1.07-9.64,2.62-14.22,4.63"/><path id="Path_1976" class="cls-5" d="M60.97,21.41c-.55-2.43-4.48-3.84-10.17-4.04-5.11-.1-10.22,.45-15.2,1.63-4.83,1.04-9.51,2.66-13.95,4.81-5.34,2.69-8.49,5.74-7.91,8.26,.05,.25,.14,.48,.27,.7,.97-2.15,4.02-4.51,8.39-6.61,4.23-1.96,8.65-3.45,13.21-4.44,5.08-1.2,10.3-1.75,15.52-1.61,4.95,.22,8.51,1.36,9.58,3.32,.31-.62,.41-1.33,.27-2.01"/><path id="Path_1977" class="cls-6" d="M22.57,22.76c-2.33-.18-4.51,1.14-5.45,3.28,2.43,1.19,5.45-3.28,5.45-3.28"/><path id="Path_1978" class="cls-6" d="M22.88,23.09s-3.73-5.91-9.74-4.73c1.39,4.68,9.74,4.72,9.74,4.72"/><path id="Path_1979" class="cls-8" d="M36.9,36.29c-.26-.02-.51,.09-.66,.3-.05,.07-.06,.11-.1,.11-.04,0-.06-.04-.1-.11-.15-.21-.4-.33-.66-.3-1.1,0-2.34,2.39-2.34,2.39,.34,.67,2.05-.32,2.34-.47,.49-.22,1.05-.22,1.53,0,.3,.16,2,1.14,2.35,.47,0,0-1.25-2.39-2.35-2.39"/><path id="Path_1980" class="cls-8" d="M39.24,38.68s-.67-.68-1.11-.12-3.56,.55-4,0-1.11,.12-1.11,.12c.32,1.42,1.58,2.43,3.03,2.42h0s.05,0,.07,0,.05,0,.08,0h0c1.45,0,2.72-1,3.03-2.43"/></g></g></g></svg>