<?xml version="1.0" encoding="UTF-8"?><svg id="Layer_6" xmlns="http://www.w3.org/2000/svg" xmlns:xlink="http://www.w3.org/1999/xlink" viewBox="0 0 72 72"><defs><style>.cls-1{fill:none;}.cls-2{clip-path:url(#clippath);}.cls-3{fill:#046168;}.cls-4{fill:#017d8d;}.cls-5{fill:#fff;}.cls-6{fill:#fbb316;}.cls-7{fill:#fcd8b0;}.cls-8{fill:#e66b5b;}.cls-9{fill:#323232;}.cls-10{fill:#8cc4c6;}.cls-11{fill:#cca884;}.cls-12{fill:#4a494a;}</style><clipPath id="clippath"><rect class="cls-1" width="72" height="72"/></clipPath></defs><g id="Group_491"><g class="cls-2"><g id="Group_90"><path id="Path_46" class="cls-10" d="M71.96,35.93c0,19.87-16.2,35.98-36.18,35.98S-.4,55.8-.4,35.93,15.8-.05,35.78-.05s36.18,16.11,36.18,35.98"/><path id="Path_47" class="cls-3" d="M32.74,62.86h0c.38-.38,.72-.79,1.04-1.23h-1.98c.2,.49,.5,.93,.88,1.29,.02-.02,.04-.04,.06-.06"/><path id="Path_48" class="cls-3" d="M38.78,62.86s.03,.03,.05,.05c.2-.28,.89-1.23,.9-1.27h-2.02c.33,.43,.69,.84,1.07,1.22h0Z"/><path id="Path_49" class="cls-3" d="M39.76,61.63h0s0,0,0,0Z"/><path id="Path_50" class="cls-7" d="M49.85,40.61c-.38-1.71-1.05-3.33-2-4.79-2.32-3.7-6.77-5.23-10.21-7.07-.64-.34-1.26-.71-1.86-1.12-.6,.41-1.23,.78-1.87,1.12-3.43,1.83-7.89,3.37-10.21,7.07-1.05,1.59-1.75,3.39-2.06,5.28-.01,.12-.03,.24-.04,.35-.03,1.12,.13,2.24,.46,3.31,1.28,1.68,2.84,3.1,4.62,4.21h-.02c4.47,3.36,7.79,2.81,8.1,8.05,.13,2.26-.19,3.48-.98,4.61-.31,.43-.66,.84-1.04,1.22h0s-.04,.04-.06,.06c.03,.04,.06,.06,.06,.06v1.31h6.03v-1.3s.03-.03,.06-.08c-.02-.02-.03-.03-.05-.05h0c-.38-.39-.74-.8-1.07-1.23-.85-1.13-1.26-2.35-.95-4.61,.72-5.19,3.63-4.68,8.09-8.05h-.01c1.8-1.12,3.38-2.56,4.66-4.27,.32-1.05,.47-2.15,.44-3.24-.02-.29-.05-.57-.1-.85m-16.21,2.74c.14-.18,.52-.17,.56-.17,.19,0,.38,.07,.55,.17l.06,.03c.59,.43,1.38,.43,1.98,0l.06-.03c.17-.1,.35-.16,.55-.17,.04,0,.42-.02,.56,.17,.06,.07,.06,.18,.01,.25-.09,.12-.24,.18-.39,.16-.23,0-.45-.03-.67-.12-.33,.2-.71,.31-1.1,.34h-.02c-.39-.02-.76-.14-1.1-.34-.21,.08-.44,.12-.67,.12-.15,.02-.3-.04-.39-.16-.05-.08-.05-.18,.01-.25m-5.12-4.72c-1.34,.01-2.66-.32-3.84-.95-.63,.27-1.04,.49-1.04,.49,.26-.22,.54-.42,.82-.6,.84-.54,1.77-.93,2.74-1.15,.38-.08,.78-.13,1.17-.15,.87-.02,1.74,.12,2.56,.41,.51,.18,1.01,.4,1.49,.66,.28,.15,.55,.32,.81,.51,0,0-.4-.18-1-.39-1.13,.7-2.4,1.11-3.72,1.19m10.2,9.1c-.31,1.36-1.52,2.31-2.88,2.28h-.14c-1.37,.03-2.57-.92-2.89-2.28h0c.2-.37,.43-.73,.68-1.07,.43-.59,1.01-1.19,1.55-1.19,.24-.03,.48,.08,.63,.28,.05,.07,.06,.1,.1,.11s.05-.04,.1-.11c.14-.2,.38-.31,.63-.28,.52,0,1.08,.56,1.51,1.13,.27,.36,.51,.74,.72,1.13h0m9.05-10.05c-1.18,.64-2.5,.96-3.84,.95-1.31-.08-2.59-.49-3.72-1.19-.61,.21-1,.39-1,.39,.26-.19,.53-.36,.81-.51,.48-.26,.97-.48,1.49-.66,.82-.29,1.69-.42,2.56-.41,.39,.02,.78,.07,1.17,.15,.97,.23,1.9,.62,2.74,1.16,.29,.18,.57,.38,.83,.6,0,0-.41-.22-1.04-.49m-12,9.45c-.25,0-.5,.05-.73,.16-.32,.17-.64,.33-.98,.47,1.11,.34,2.3,.34,3.41,0-.33-.14-.66-.29-.98-.47-.23-.1-.48-.16-.73-.16"/><path id="Path_51" class="cls-8" d="M38,46.6c-.43-.56-.99-1.13-1.51-1.13-.24-.03-.49,.08-.63,.28-.05,.07-.06,.1-.1,.11s-.05-.04-.1-.11c-.15-.2-.39-.31-.63-.28-.54,0-1.12,.6-1.55,1.19-.25,.34-.48,.7-.68,1.07h0c.31,1.37,1.52,2.32,2.89,2.29h.14c1.37,.03,2.57-.92,2.88-2.28h0c-.21-.4-.46-.78-.72-1.14m-3.94,1.15c.33-.14,.66-.29,.97-.47,.47-.21,.99-.21,1.46,0,.32,.18,.64,.33,.98,.47-1.11,.34-2.3,.34-3.41,0"/><path id="Path_52" class="cls-11" d="M37.38,43.18c-.19,0-.38,.07-.55,.17l-.06,.03c-.3,.19-.64,.3-.99,.32-.35-.02-.69-.13-.99-.32l-.06-.03c-.16-.1-.35-.16-.54-.17-.04,0-.42-.02-.56,.17-.06,.07-.06,.18-.01,.25,.09,.12,.24,.18,.39,.16,.23,0,.45-.03,.67-.12,.33,.2,.71,.31,1.1,.34h.03c.39-.02,.76-.14,1.1-.34,.21,.08,.44,.12,.67,.12,.15,.02,.3-.04,.39-.16,.05-.08,.05-.18,0-.25-.14-.18-.52-.17-.56-.17"/><path id="Path_53" class="cls-5" d="M43.31,38.53c-.86-.02-1.59-.64-1.77-1.5-.5,.13-.95,.28-1.33,.41,1.12,.7,2.4,1.11,3.71,1.19,1.34,0,2.66-.32,3.84-.95-.81-.36-1.66-.64-2.52-.84-.1,1-.95,1.74-1.93,1.69"/><path id="Path_54" class="cls-4" d="M43.31,38.53c.98,.05,1.83-.7,1.93-1.69-.38-.08-.77-.14-1.17-.16-.86,0-1.71,.12-2.54,.35,.18,.86,.91,1.48,1.77,1.5m.14-1.69c.32,0,.57,.26,.57,.58,0,.32-.26,.58-.57,.58-.01,0-.03,0-.04,0-.32,0-.57-.27-.57-.6,.02-.33,.29-.58,.61-.56"/><path id="Path_55" class="cls-9" d="M44.06,36.26c-.87-.02-1.74,.12-2.56,.4-.51,.18-1.01,.4-1.49,.66-.28,.15-.55,.32-.81,.5,0,0,.4-.17,1-.39,.38-.13,.84-.28,1.33-.41,.83-.23,1.68-.35,2.54-.35,.39,.02,.78,.07,1.17,.16,.86,.2,1.71,.48,2.52,.84,.63,.27,1.04,.49,1.04,.49-.26-.22-.54-.42-.83-.6-.84-.54-1.77-.93-2.74-1.16-.38-.08-.77-.13-1.17-.15"/><path id="Path_56" class="cls-9" d="M43.41,38.01c.32,0,.57-.26,.57-.58,0-.32-.25-.59-.57-.59-.31,0-.57,.25-.57,.57,0,.33,.25,.59,.57,.6m-.05-.62c.1,0,.18,.09,.18,.19,0,0,0,0,0,0,0,.11-.08,.2-.19,.2-.11,0-.19-.09-.19-.19,0-.11,.08-.2,.19-.2,0,0,0,0,0,0"/><path id="Path_57" class="cls-5" d="M43.34,37.76c.1,0,.19-.08,.2-.18,0-.1-.08-.19-.18-.19,0,0,0,0,0,0-.1,0-.19,.08-.19,.18s.08,.19,.18,.2"/><path id="Path_58" class="cls-5" d="M29.13,38.53c-.98,.05-1.83-.7-1.93-1.69-.86,.2-1.71,.48-2.52,.84,1.19,.64,2.51,.96,3.84,.95,1.31-.08,2.59-.49,3.72-1.19-.38-.13-.84-.28-1.33-.41-.18,.86-.91,1.48-1.77,1.5"/><path id="Path_59" class="cls-4" d="M29.13,38.53c.86-.02,1.59-.64,1.77-1.5-.83-.23-1.68-.35-2.54-.35-.39,.02-.78,.07-1.16,.16,.11,1,.95,1.74,1.93,1.69m-.14-1.69c.32,0,.57,.26,.58,.58,0,.32-.25,.59-.57,.59-.31,0-.57-.25-.58-.56,0-.33,.25-.6,.57-.6"/><path id="Path_60" class="cls-9" d="M30.94,36.67c-.82-.29-1.69-.42-2.56-.4-.39,.01-.78,.06-1.17,.15-.97,.23-1.89,.62-2.74,1.16-.29,.18-.57,.38-.83,.6,0,0,.41-.22,1.04-.49,.81-.36,1.66-.64,2.52-.84,.38-.09,.77-.14,1.16-.16,.86,0,1.71,.12,2.54,.35,.5,.13,.95,.28,1.33,.41,.61,.21,1,.39,1,.39-.26-.19-.53-.36-.81-.51-.48-.26-.97-.48-1.49-.66"/><path id="Path_61" class="cls-9" d="M29.03,38.01c.32,0,.57-.27,.57-.6,0,0,0,0,0,0,0-.33-.26-.6-.59-.6-.32,0-.59,.27-.59,.6s.26,.6,.59,.6c0,0,.01,0,.02,0m.05-.62c.1,0,.19,.08,.19,.18,0,.1-.08,.19-.18,.2h0c-.1,0-.19-.08-.2-.18,0-.1,.08-.19,.18-.19,0,0,0,0,0,0"/><path id="Path_62" class="cls-5" d="M29.1,37.76c.1,0,.18-.09,.18-.2,0-.1-.09-.19-.19-.18-.1,0-.18,.09-.18,.19,0,0,0,0,0,0,0,.11,.09,.19,.2,.18"/><path id="Path_63" class="cls-8" d="M53.97,17.86c-2.69-3.74-5.17-5.91-7.4-7-8.16-5.47-18.98-4.18-25.69,3.07-1.2,1.22-2.3,2.53-3.3,3.93-2.45,3.43-7.37,16.34,2.1,28.31,1.88,2.26,3.87,4.41,5.96,6.47-1.24-2.01-2.27-4.15-3.09-6.38-.17-.48-.34-.98-.49-1.5-.34-1.07-.49-2.19-.46-3.31,0-.11,.02-.23,.04-.35,.31-1.89,1.02-3.69,2.07-5.28,2.31-3.7,6.77-5.23,10.2-7.07,.64-.34,1.26-.71,1.87-1.12,.6,.41,1.22,.78,1.86,1.12,3.43,1.83,7.89,3.37,10.21,7.07,.95,1.46,1.62,3.08,2,4.79,.05,.28,.09,.56,.1,.85,.03,1.1-.12,2.2-.44,3.25-.16,.53-.33,1.06-.51,1.56-.81,2.23-1.85,4.36-3.09,6.38,2.09-2.05,4.08-4.21,5.96-6.47,9.47-11.98,4.55-24.89,2.1-28.31"/><path id="Path_64" class="cls-6" d="M25.41,67.82v.11s0-.11,0-.11Z"/><rect id="Rectangle_111" class="cls-6" x="32.74" y="67.82" width="6.03" height="3.55"/><path id="Path_65" class="cls-12" d="M32.74,71.37v.4c1.01,.08,2.02,.14,3.04,.14s2-.05,2.99-.13v-.41h-6.03Z"/><path id="Path_66" class="cls-12" d="M25.85,64.91v-.03s0,.03,0,.03"/><path id="Path_67" class="cls-12" d="M25.72,65.65l-.31,2.17,.31-2.17Z"/><path id="Path_68" class="cls-12" d="M45.77,65.22s0,.03,.01,.05c0-.02,0-.03-.01-.05"/><path id="Path_69" class="cls-12" d="M25.75,65.27s.01-.04,.01-.06c0,.02-.01,.04-.01,.06"/><path id="Path_70" class="cls-12" d="M45.68,64.89v.02s0-.02,0-.02"/><rect id="Rectangle_112" class="cls-12" x="32.74" y="64.29" width="6.03" height="3.53"/><path id="Path_73" class="cls-4" d="M31.8,61.64h0s0-.01,0-.01h0c-1.66,.76-3.87,1.76-4.48,1.96-.42,.13-.79,.37-1.09,.7-.08,.09-.15,.19-.21,.29h0c-.06,.1-.11,.2-.15,.31v.03c-.05,.1-.07,.2-.09,.3,0,.02-.01,.04-.01,.06-.02,.12-.03,.25-.03,.38l-.32,2.17v.11s-.35,2.38-.35,2.38c1.48,.45,2.98,.81,4.5,1.07,1.05,.18,2.11,.31,3.18,.4v-8.8s-.02-.02-.06-.06c-.38-.36-.68-.8-.88-1.28m14.01,4.02c0-.13-.01-.25-.03-.38,0-.02,0-.03-.01-.05-.02-.11-.05-.21-.08-.31v-.02c-.06-.13-.12-.25-.2-.37-.03-.05-.06-.09-.1-.14-.03-.03-.05-.07-.07-.1h-.01c-.29-.33-.66-.57-1.07-.7-.57-.19-4.1-1.78-4.45-1.94h-.02s-.02-.01-.02-.01c-.02,.04-.7,.99-.9,1.27-.04,.05-.06,.08-.06,.08v8.79c1.1-.09,2.17-.23,3.23-.41,1.51-.26,3-.61,4.47-1.06l-.66-4.66Zm-6.08-4.02h0s0,0,0,0Z"/></g></g></g></svg>