<?xml version="1.0" encoding="UTF-8"?><svg id="Layer_26" xmlns="http://www.w3.org/2000/svg" xmlns:xlink="http://www.w3.org/1999/xlink" viewBox="0 0 72 72"><defs><style>.cls-1{fill:none;}.cls-2{clip-path:url(#clippath);}.cls-3{fill:#fff;}.cls-4{fill:#e66b5b;}.cls-5{fill:#8cc4c6;}.cls-6{fill:#c2544c;}.cls-7{fill:#1e1e1e;}.cls-8{fill:#422c1c;}.cls-9{fill:#42b5e8;}.cls-10{fill:#3f3d3d;}.cls-11{fill:#3f4ba0;}.cls-12{fill:#6d4a30;}.cls-13{fill:#29bec8;}.cls-14{fill:#754f32;}</style><clipPath id="clippath"><rect class="cls-1" width="72" height="72"/></clipPath></defs><g id="Group_464"><g class="cls-2"><g id="Group_463"><path id="Path_1418" class="cls-5" d="M72,35.98c0,19.87-16.12,35.99-36,35.99S0,55.86,0,35.98,16.12,0,36,0s36,16.11,36,35.98"/><path id="Path_1419" class="cls-6" d="M27.44,50.09h17.05s2.66,3.24,2.66,3.24l-9.45,6.58-10.71-2.26-.81-6.03,1.26-1.53Z"/><path id="Path_1420" class="cls-9" d="M35.97,32.64v-.02s0,.01,0,.02"/><path id="Path_1421" class="cls-11" d="M35.97,31.33h0s0-.01,0-.02v.02"/><path id="Path_1422" class="cls-12" d="M41.92,58.85l-11.8,.04-.09-17.31,11.8-.04,.09,17.31Z"/><path id="Path_1423" class="cls-13" d="M44.01,51.35l.02-.03-.02,.03"/><path id="Path_1424" class="cls-13" d="M44.47,50.09s-.02,.08-.03,.13c0-.04,.03-.08,.03-.12h0"/><path id="Path_1425" class="cls-4" d="M57.5,58.76c0-2.11-1.4-3.94-3.4-4.45-1.29-.43-6.03-2.57-9.6-4.21,0,0-.01,0-.02,0,0,.04-.02,.08-.03,.12-.02,.14-.06,.28-.1,.41-.02,.05-.03,.09-.05,.14-.08,.19-.17,.38-.27,.56l-.02,.02c-.99,1.39-2.41,2.42-4.02,2.91h0c-2.55,.93-5.34,.96-7.9,.08h0c-1.04-.35-2.02-.88-2.89-1.56-.89-.64-1.51-1.61-1.73-2.7h0s-.02,.01-.02,.01c-3.56,1.63-8.3,3.77-9.6,4.21-2,.51-3.4,2.34-3.4,4.45l-.77,5.49c2.47,1.96,5.18,3.58,8.06,4.82,9.11,3.91,19.38,3.91,28.49,0,2.88-1.24,5.6-2.87,8.07-4.83l-.78-5.49Z"/><path id="Path_1426" class="cls-7" d="M51.59,22.09c.04,1.54-1.16,2.82-2.67,2.86s-2.76-1.19-2.8-2.73c-.04-1.54,1.16-2.82,2.67-2.86,.02,0,.04,0,.06,0,1.49-.02,2.71,1.21,2.73,2.73"/><path id="Path_1427" class="cls-7" d="M51.48,25.99c.03,1.54-1.16,2.82-2.67,2.86-1.51,.03-2.76-1.19-2.8-2.73s1.16-2.82,2.67-2.86c.02,0,.04,0,.06,0,1.49-.02,2.72,1.21,2.73,2.73,0,0,0,0,0,0"/><path id="Path_1428" class="cls-7" d="M50.82,29.66c.03,1.54-1.16,2.82-2.67,2.86-1.51,.03-2.76-1.19-2.79-2.73s1.16-2.82,2.67-2.86c.02,0,.04,0,.07,0,1.49-.02,2.72,1.21,2.73,2.73"/><path id="Path_1429" class="cls-7" d="M43.68,10.18c.03,1.54-1.16,2.82-2.67,2.85-1.51,.03-2.76-1.19-2.79-2.73-.03-1.54,1.16-2.82,2.67-2.85,.02,0,.04,0,.06,0,1.49-.02,2.72,1.21,2.73,2.73"/><path id="Path_1430" class="cls-7" d="M47.36,12.1c.03,1.54-1.16,2.82-2.67,2.86s-2.76-1.19-2.8-2.73,1.16-2.82,2.67-2.86c.02,0,.04,0,.06,0,1.49-.02,2.72,1.2,2.73,2.73,0,0,0,0,0,0"/><path id="Path_1431" class="cls-7" d="M49.61,15.17c.04,1.54-1.16,2.82-2.67,2.86-1.51,.04-2.76-1.18-2.8-2.73s1.16-2.82,2.67-2.86c.02,0,.04,0,.07,0,1.49-.02,2.71,1.21,2.73,2.73"/><path id="Path_1432" class="cls-7" d="M50.98,18.3c.03,1.54-1.16,2.82-2.67,2.86-1.51,.03-2.76-1.19-2.8-2.73-.03-1.54,1.16-2.82,2.67-2.86,.02,0,.04,0,.06,0,1.49-.02,2.72,1.21,2.73,2.73"/><path id="Path_1433" class="cls-7" d="M20.4,22.09c-.04,1.54,1.16,2.82,2.67,2.86,1.51,.04,2.76-1.19,2.8-2.73,.04-1.54-1.16-2.82-2.67-2.86-.02,0-.04,0-.06,0-1.49-.02-2.71,1.21-2.73,2.73"/><path id="Path_1434" class="cls-7" d="M20.51,25.99c-.03,1.54,1.16,2.82,2.67,2.86,1.51,.03,2.76-1.19,2.8-2.73s-1.16-2.82-2.67-2.86c-.02,0-.04,0-.06,0-1.49-.02-2.72,1.2-2.74,2.73,0,0,0,0,0,0"/><path id="Path_1435" class="cls-7" d="M21.17,29.66c-.03,1.54,1.16,2.82,2.67,2.86,1.51,.03,2.76-1.19,2.79-2.73s-1.16-2.82-2.67-2.86c-.02,0-.04,0-.06,0-1.49-.02-2.72,1.21-2.73,2.73"/><path id="Path_1436" class="cls-7" d="M28.31,10.18c.04,1.54,1.29,2.76,2.8,2.73,1.46-.04,2.63-1.24,2.67-2.73-.04-1.54-1.29-2.76-2.8-2.73-1.46,.04-2.63,1.24-2.67,2.73"/><path id="Path_1437" class="cls-7" d="M24.63,12.1c-.03,1.54,1.16,2.82,2.67,2.86s2.76-1.19,2.8-2.73-1.16-2.82-2.67-2.86c-.02,0-.04,0-.06,0-1.49-.02-2.72,1.2-2.73,2.73,0,0,0,0,0,0"/><path id="Path_1438" class="cls-7" d="M22.38,15.17c-.04,1.54,1.16,2.82,2.67,2.86,1.51,.04,2.76-1.18,2.8-2.73,.04-1.54-1.16-2.82-2.67-2.86-.02,0-.05,0-.07,0-1.49-.02-2.71,1.21-2.73,2.73"/><path id="Path_1439" class="cls-7" d="M21,18.3c-.03,1.54,1.16,2.82,2.67,2.86,1.51,.03,2.76-1.19,2.8-2.73s-1.16-2.82-2.67-2.86c-.02,0-.04,0-.06,0-1.49-.02-2.72,1.21-2.74,2.73h0"/><path id="Path_1440" class="cls-7" d="M50.39,25.6c0,9.49-6.39,17.18-14.26,17.18s-14.26-7.69-14.26-17.18,3.69-17.18,14.26-17.18c11.17,0,14.26,7.69,14.26,17.18"/><path id="Path_1441" class="cls-14" d="M47.86,28.61c0,9.23-2.61,19.89-11.73,19.89s-11.73-10.67-11.73-19.89,5.25-16.7,11.74-16.7,11.73,7.48,11.73,16.7"/><path id="Path_1442" class="cls-8" d="M39.59,36.46c-.21-.29-.81-.26-.87-.26-.3,.02-.59,.12-.85,.28l-.09,.05c-.46,.3-.98,.48-1.53,.52-.55-.03-1.08-.21-1.54-.5l-.09-.05c-.26-.16-.55-.25-.84-.27-.07,0-.66-.02-.87,.27-.09,.12-.1,.28-.02,.41,.14,.2,.37,.29,.6,.26,.35,0,.7-.06,1.03-.19,.52,.32,1.11,.5,1.71,.52h0s.02,0,.02,0h.02c.6-.04,1.19-.22,1.7-.55,.33,.13,.68,.19,1.04,.18,.23,.04,.47-.06,.6-.26,.08-.13,.07-.29-.02-.41"/><path id="Path_1443" class="cls-7" d="M25.14,22.59c.62-1.78,1.55-3.56,3.37-3.56,2.15,0,3.28,1.39,7.57,1.39s5.42-1.39,7.57-1.39c1.83,0,2.93,1.73,3.44,3.66,.49,1.84,.84-5.17,.84-5.17,0-4.68-9.57-6.48-11.91-6.48,0,0-11.81,1.79-11.81,6.48,0,0,.29,6.87,.91,5.07"/><path id="Path_1444" class="cls-7" d="M33.35,27.54c.26-.26,0-.7-.61-.9-1.56-.51-3.21-.69-4.84-.52-.63,.07-.98,.44-.78,.75s2.25-.28,4.97,.84c.42,.17,.89,.1,1.26-.17"/><path id="Path_1445" class="cls-7" d="M38.74,27.54c-.25-.26,0-.7,.61-.9,1.56-.51,3.21-.69,4.84-.52,.64,.07,.98,.44,.78,.75s-2.25-.28-4.97,.84c-.42,.17-.89,.1-1.26-.17"/><path id="Path_1446" class="cls-14" d="M26.86,32.08c.02,2.59-.99,4.7-2.25,4.71s-2.28-2.09-2.3-4.68,.99-4.7,2.25-4.71c1.26,0,2.29,2.09,2.3,4.68"/><path id="Path_1447" class="cls-14" d="M49.94,32.08c.02,2.59-.99,4.7-2.25,4.71s-2.29-2.09-2.3-4.68,.99-4.7,2.25-4.71c1.26,0,2.29,2.09,2.3,4.68"/><path id="Path_1448" class="cls-6" d="M39.7,41.11h0c-.86-.35-1.75-.65-2.65-.9-.35-.01-.7,.08-1,.26-.27-.18-.6-.28-.92-.26-.9,.24-1.78,.54-2.65,.9h0c1.46,.23,5.48,.75,7.21,0"/><path id="Path_1449" class="cls-4" d="M32.49,41.12c.6,1.22,1.86,1.96,3.2,1.88,.15,.02,.31-.03,.42-.13,.12,.1,.27,.15,.42,.13,1.32,.04,2.55-.69,3.17-1.88-1.73,.75-5.75,.23-7.21,0"/><path id="Path_1450" class="cls-7" d="M37.25,9.09c-.04,1.54-1.29,2.76-2.8,2.73-1.46-.04-2.63-1.24-2.67-2.73,.04-1.54,1.29-2.76,2.8-2.73,1.46,.04,2.63,1.24,2.67,2.73"/><path id="Path_1451" class="cls-7" d="M40.55,9.09c-.04,1.54-1.29,2.76-2.8,2.73-1.46-.04-2.63-1.24-2.67-2.73,.04-1.54,1.29-2.76,2.8-2.73,1.46,.04,2.63,1.24,2.67,2.73"/><path id="Path_1452" class="cls-3" d="M41.95,31.1c1.19-.11,2.3-.65,3.12-1.53-.82-.88-1.93-1.43-3.12-1.53-1.19,.11-2.3,.65-3.12,1.53,.83,.88,1.94,1.43,3.12,1.53"/><path id="Path_1453" class="cls-10" d="M40.72,29.62c-.02,.7,.53,1.29,1.22,1.3,.69,.02,1.26-.54,1.27-1.25,.02-.7-.53-1.29-1.22-1.3,0,0-.01,0-.02,0-.68-.01-1.24,.54-1.25,1.24,0,0,0,0,0,0"/><path id="Path_1454" class="cls-7" d="M38.83,29.56c.82-.88,1.93-1.43,3.12-1.53,1.19,.11,2.3,.65,3.12,1.53-.94-.59-2.02-.91-3.12-.95-1.1,.03-2.18,.36-3.12,.95"/><path id="Path_1455" class="cls-7" d="M42.3,29.62c0,.19-.15,.35-.33,.35-.19,0-.34-.15-.34-.34,0-.19,.15-.35,.33-.35,0,0,0,0,0,0,.18,0,.33,.15,.33,.34"/><path id="Path_1456" class="cls-3" d="M30.34,31.1c-1.19-.11-2.3-.65-3.12-1.53,.83-.88,1.94-1.43,3.12-1.53,1.19,.11,2.3,.65,3.12,1.53-.83,.88-1.94,1.42-3.12,1.53"/><path id="Path_1457" class="cls-10" d="M31.57,29.62c.01,.7-.53,1.28-1.22,1.3-.69,.01-1.26-.54-1.27-1.25-.01-.7,.53-1.28,1.22-1.3,0,0,.02,0,.02,0,.68,0,1.24,.55,1.25,1.25,0,0,0,0,0,0"/><path id="Path_1458" class="cls-7" d="M33.46,29.56c-.82-.88-1.93-1.42-3.12-1.53-1.19,.11-2.3,.65-3.12,1.53,.94-.59,2.02-.92,3.12-.95,1.1,.03,2.18,.36,3.12,.95"/><path id="Path_1459" class="cls-7" d="M29.99,29.62c0,.19,.15,.34,.33,.34,.18,0,.33-.15,.33-.34,0-.19-.15-.34-.33-.34-.18,0-.33,.15-.33,.34"/></g></g></g></svg>