<?xml version="1.0" encoding="UTF-8"?><svg id="Layer_20" xmlns="http://www.w3.org/2000/svg" xmlns:xlink="http://www.w3.org/1999/xlink" viewBox="0 0 72 72"><defs><style>.cls-1{fill:none;}.cls-2{clip-path:url(#clippath);}.cls-3{fill:#f8e0cd;}.cls-4{fill:#034d4f;}.cls-5{fill:#017d8d;}.cls-6{fill:#035960;}.cls-7{fill:#e8af47;}.cls-8{fill:#fff;}.cls-9{fill:#fcd8b0;}.cls-10{fill:#e66b5b;}.cls-11{fill:#7f2a28;}.cls-12{fill:#b28967;}.cls-13{fill:#c2544c;}.cls-14{fill:#4a494a;}.cls-15{fill:#383c3d;}</style><clipPath id="clippath"><rect class="cls-1" width="72" height="72"/></clipPath></defs><g id="Group_452"><g class="cls-2"><g id="Group_451"><path id="Path_943" class="cls-14" d="M72,36.18c0,19.79-16.14,35.83-36.05,35.83S-.1,55.96-.1,36.18,16.05,.35,35.95,.35s36.05,16.04,36.05,35.82"/><path id="Path_944" class="cls-4" d="M30.77,49.76v-1.45h-2.4l.35,1.45h2.05Z"/><path id="Path_945" class="cls-4" d="M43.17,49.76v-.03s.35-1.43,.35-1.43h-2.36v1.45h2.02Z"/><path id="Path_946" class="cls-11" d="M43.17,49.76h-2.02v2.04c.85-.47,1.55-1.18,2.02-2.04"/><path id="Path_947" class="cls-11" d="M30.77,51.85v-2.09h-2.06l.03,.12c.48,.83,1.19,1.52,2.03,1.97"/><path id="Path_948" class="cls-6" d="M14.58,56.88l-.97,7.39c1.37,1.08,2.82,2.06,4.33,2.93l-2.08-11.05-1.28,.73Z"/><path id="Path_949" class="cls-6" d="M56.05,56.16l-2.08,11.05c1.51-.87,2.96-1.85,4.34-2.93l-.97-7.39-1.28-.73Z"/><path id="Path_950" class="cls-9" d="M41.16,45.28c-.16,.07-.32,.13-.49,.2-3.06,1.01-6.36,1.01-9.42,0-.16-.06-.31-.13-.47-.19v3.03h10.38v-3.04Z"/><rect id="Rectangle_366" class="cls-9" x="30.77" y="48.31" width="10.38" height="1.45"/><path id="Path_951" class="cls-9" d="M35.92,53.14c1.83,.03,3.64-.43,5.23-1.33v-2.04h-10.38v2.09c1.58,.87,3.35,1.31,5.15,1.28"/><path id="Path_952" class="cls-7" d="M23.98,25.03c-.04-.3-.07-.59-.1-.89-.07,.36-.13,.72-.21,1.08,.13-.07,.28-.11,.42-.13,.04-.7,.09-1.39,.18-2.06-.22,.64-.32,1.32-.3,2"/><path id="Path_953" class="cls-7" d="M47.53,22.34c.02,.12,.02,.21,.02,.21l-.02-.21c-.19-1.46-.59-2.88-1.17-4.22,.86,2.23,1.35,4.59,1.46,6.98,.15,.02,.3,.08,.43,.15-.38-1.83-.61-3.58-.98-5.16l.27,2.26Z"/><path id="Path_954" class="cls-7" d="M23.66,25.22c-.25-1.2-.37-2.43-.37-3.66,0-8.38,5.67-15.18,12.67-15.18s12.67,6.8,12.67,15.18c0,1.24-.13,2.47-.38,3.68,.8,.6,1.33,1.5,1.48,2.49,.46-1.66,.7-3.38,.7-5.11,0-9.22-6.47-16.69-14.47-16.69s-14.47,7.47-14.47,16.69c0,1.72,.23,3.42,.69,5.07,.14-.99,.68-1.89,1.49-2.47"/><path id="Path_955" class="cls-3" d="M25.01,34.3l.02,.07v-.09l-.02,.02"/><path id="Path_956" class="cls-3" d="M46.56,33.95c-1.24,1.56-2.78,2.86-4.53,3.8,.5,.34,1.08,.54,1.68,.57,1.58,0,2.77-2.35,3.1-4.13-.09-.07-.17-.16-.25-.24"/><path id="Path_957" class="cls-3" d="M46.87,34.61c.03-.1,.06-.2,.09-.29-.03-.02-.06-.04-.09-.07v.36"/><path id="Path_958" class="cls-3" d="M25.37,33.97c-.08,.09-.17,.17-.26,.24,.33,1.78,1.52,4.1,3.09,4.1,.6-.03,1.18-.22,1.68-.57-1.74-.94-3.27-2.23-4.51-3.78"/><path id="Path_959" class="cls-3" d="M46.56,33.95c-.85-1.2-1.27-2.65-1.2-4.13-.01-2.62,1-4.74,2.28-4.75,.06,0,.12,0,.18,.02-.11-2.39-.6-4.75-1.46-6.97-.48-1.15-1.22-2.16-2.16-2.97-6.18-3.24-11.36,2.7-14.21,4.74,.61-.92,4.23-6.2,4.23-6.2-2.2,.99-6.72,5.94-6.72,5.94l.05-2.52c-1.39,1.79-2.49,3.79-3.28,5.93-.09,.67-.15,1.36-.19,2.06,.04,0,.08-.01,.13-.01,1.28,0,2.32,2.11,2.34,4.72,.09,1.49-.33,2.96-1.18,4.18,1.24,1.55,2.77,2.84,4.51,3.78,1.41-.87,2.9-2.44,6.07-2.44s4.66,1.57,6.07,2.45c1.75-.95,3.29-2.24,4.53-3.8m-16.35-6.54s-.06,0-.08,0c-.04,0-.08,0-.12-.01-.75,.03-1.48-.23-2.04-.74-.13-.09-.25-.19-.36-.3-.17-.28-.17-.64,0-.92,.67-.68,1.6-1.03,2.55-.95,1.1,.12,2.03,.9,2.35,1.98-.01,.15-.07,.3-.17,.41-.06,.24-1.06,.53-2.14,.53m1.68-3.84c-.39-.16-3.86-1.41-5.83,.21,.44-.68,1.16-1.14,1.96-1.26,1.3-.15,5.18,.16,5.08,1.35-.03,.24-.87-.16-1.21-.3m6.6,10.39c-.1,.15-.27,.23-.45,.2-.27,0-.53-.04-.78-.14-.39,.24-.82,.38-1.28,.4h-.03c-.45-.02-.89-.16-1.28-.39-.25,.1-.51,.15-.77,.14-.17,.03-.35-.05-.45-.19-.06-.09-.06-.22,.01-.3,.16-.21,.6-.2,.65-.2,.22,.02,.44,.08,.63,.2l.07,.04c.35,.22,.74,.35,1.15,.37,.41-.03,.8-.16,1.14-.39l.07-.04c.19-.12,.41-.2,.63-.21,.05,0,.5-.02,.66,.19,.07,.09,.07,.21,.01,.3m.09-10.09c-.09-1.19,3.78-1.49,5.08-1.35,.8,.12,1.51,.58,1.96,1.26-1.97-1.62-5.44-.37-5.83-.21-.34,.14-1.18,.53-1.21,.3m5.49,2.49c-.11,.11-.23,.22-.36,.3-.56,.51-1.29,.78-2.04,.74-.04,0-.08,.01-.12,.01-.03,0-.06,0-.09,0-1.08,0-2.09-.29-2.14-.53-.1-.12-.16-.26-.17-.41,.32-1.08,1.25-1.86,2.35-1.98,.95-.07,1.88,.27,2.55,.95,.18,.28,.18,.63,.01,.92"/><path id="Path_960" class="cls-3" d="M22.17,27.7c-.16,.7-.24,1.41-.23,2.13,.01,2.62,1.06,4.73,2.34,4.72,.26,0,.52-.09,.73-.25-.11-.38-.2-.77-.28-1.16-1.15-1.65-2.02-3.49-2.55-5.43"/><path id="Path_961" class="cls-3" d="M24.05,26.3c0-.4,.02-.81,.04-1.21-.15,.02-.29,.06-.42,.13v.03s0-.03,0-.03c-.81,.59-1.34,1.48-1.49,2.48,.53,1.95,1.4,3.79,2.55,5.43-.47-2.25-.7-4.54-.67-6.83"/><path id="Path_962" class="cls-3" d="M25.37,33.97c-.12-.15-.24-.29-.35-.45v.02c.02,.23,.05,.45,.09,.67,.09-.07,.18-.16,.26-.24"/><path id="Path_963" class="cls-3" d="M25.02,33.55v-.02c-.1-.13-.2-.25-.3-.39,.09,.39,.18,.79,.28,1.17l.02-.02c0-.27,0-.53,0-.73"/><path id="Path_964" class="cls-3" d="M25.02,33.52c.11,.15,.23,.3,.35,.45,.86-1.21,1.27-2.69,1.18-4.18-.01-2.61-1.06-4.73-2.33-4.72-.04,0-.08,0-.13,.02-.02,.4-.04,.8-.04,1.21-.02,2.3,.2,4.59,.67,6.83,.1,.14,.2,.26,.3,.39,0-.08-.01-.16-.01-.23,0-.53,0-.32,.01,.23"/><path id="Path_965" class="cls-3" d="M46.97,34.31c.21,.15,.46,.23,.72,.23,1.28,0,2.3-2.13,2.28-4.75,0-.7-.09-1.39-.25-2.06-.52,1.88-1.35,3.67-2.46,5.27-.09,.44-.19,.88-.3,1.31"/><path id="Path_966" class="cls-3" d="M48.24,25.24h0c-.13-.08-.28-.13-.43-.15,.02,.4,.04,.8,.04,1.21,.02,2.25-.18,4.5-.6,6.71,1.1-1.61,1.93-3.39,2.46-5.27-.15-.99-.68-1.89-1.48-2.49"/><path id="Path_967" class="cls-3" d="M46.89,33.52v.02c0,.2,0,.44,0,.7,.03,.02,.06,.05,.09,.07,.11-.42,.21-.87,.3-1.31-.12,.18-.25,.35-.38,.52"/><path id="Path_968" class="cls-3" d="M46.89,33.52c-.11,.14-.22,.29-.33,.42,.08,.09,.16,.17,.25,.24,.04-.21,.07-.43,.08-.65v-.02"/><path id="Path_969" class="cls-3" d="M45.35,29.82c-.07,1.47,.35,2.93,1.2,4.13,.11-.14,.22-.28,.33-.42,0-.54,0-.76,0-.23,0,.07,0,.15,0,.23,.13-.17,.26-.34,.38-.52,.42-2.21,.61-4.46,.59-6.71,0-.4-.02-.81-.04-1.21-.06-.01-.12-.02-.18-.02-1.28,0-2.3,2.13-2.28,4.75"/><path id="Path_970" class="cls-12" d="M37.8,33.46c-.23,.02-.44,.09-.63,.21l-.07,.04c-.34,.23-.74,.36-1.14,.39-.41-.03-.8-.15-1.15-.37l-.07-.04c-.19-.12-.41-.19-.63-.2-.05,0-.5-.01-.65,.2-.07,.09-.07,.21-.01,.3,.1,.14,.28,.22,.45,.19,.26,0,.53-.04,.77-.14,.39,.23,.83,.37,1.28,.39h.03c.45-.03,.89-.17,1.28-.4,.25,.1,.51,.14,.78,.14,.18,.03,.35-.05,.45-.2,.06-.09,.05-.21-.02-.3-.16-.21-.61-.2-.66-.19"/><path id="Path_971" class="cls-7" d="M30.88,42.07c-2.98-1.42-4.84-4.17-5.85-7.7,.01,1.44,.03,3.49,.03,3.49,0,4.13,2.13,5.95,5.71,7.43v-3.21h.1Z"/><path id="Path_972" class="cls-7" d="M41.15,42.09v3.19c3.57-1.47,5.69-3.29,5.69-7.42,0,0,.01-1.83,.03-3.25-.97,3.43-2.76,6.09-5.72,7.48"/><path id="Path_973" class="cls-7" d="M40.67,45.47c.17-.07,.33-.13,.49-.2v-3.19c-1.64,.73-3.41,1.1-5.2,1.06-1.75,.03-3.49-.34-5.08-1.08h-.1v3.21c.16,.06,.31,.13,.47,.19,3.06,1.01,6.36,1.01,9.42,0"/><path id="Path_974" class="cls-7" d="M30.88,42.07h10.28c2.96-1.37,4.75-4.04,5.72-7.46,0-.12,0-.24,0-.36-.03-.02-.05-.04-.08-.06-.33,1.78-1.52,4.13-3.09,4.13-.6-.03-1.18-.22-1.68-.57-1.11,.6-2.31,1.03-3.54,1.28-.8,.93-1.43,.73-2.52,.84-1-.07-1.64,0-2.4-.82-1.28-.25-2.53-.69-3.68-1.31-.5,.35-1.08,.55-1.68,.57-1.57,0-2.76-2.33-3.09-4.1-.03,.02-.05,.04-.08,.06v.09c1.01,3.54,2.87,6.29,5.85,7.7"/><path id="Path_975" class="cls-7" d="M30.88,42.07c1.59,.74,3.33,1.11,5.08,1.08,1.79,.03,3.56-.33,5.2-1.06h0s-10.28-.01-10.28-.01Z"/><path id="Path_976" class="cls-7" d="M29.88,37.75c1.15,.62,2.4,1.06,3.68,1.31-.42-.49-.78-1.03-1.07-1.6,0,.02,1.42,.26,2.04,.38,.48,.2,.98,.33,1.5,.4,.4,0,.48-.18,1.24-.38,.5-.11,2.21-.34,2.2-.38-.27,.55-.6,1.08-.99,1.55,1.23-.25,2.42-.69,3.54-1.28-1.41-.88-2.9-2.45-6.07-2.45s-4.66,1.57-6.07,2.44"/><path id="Path_977" class="cls-7" d="M25.03,34.28s.05-.04,.08-.06c-.04-.22-.07-.45-.09-.67,0,.21,0,.46,0,.73"/><path id="Path_979" class="cls-7" d="M25.01,33.3c0,.07,0,.15,.01,.23,0-.54-.01-.76-.01-.23"/><path id="Path_981" class="cls-7" d="M46.8,34.19s.05,.04,.08,.06c0-.26,0-.51,0-.7-.01,.22-.04,.43-.08,.65"/><path id="Path_982" class="cls-7" d="M46.89,33.52h0c0-.08,0-.16,0-.23,0-.53,0-.32,0,.23"/><path id="Path_983" class="cls-7" d="M26.56,13.35l.38-.11c1.01-1.73,2.55-3.24,4.88-3.28,.45,0,.89-.02,1.33-.02,.9-.32,1.85-.48,2.81-.49,1.29,0,2.57,.3,3.74,.86,1.37,.42,2.64,1.11,3.74,2.02l.61,1.16,2.71,2.42,.49,4.17c.37,1.58,.6,3.34,.98,5.16h0c.25-1.21,.38-2.45,.38-3.68,0-8.38-5.67-15.18-12.67-15.18s-12.67,6.8-12.67,15.18c0,1.23,.12,2.46,.37,3.66h0c.07-.36,.14-.72,.21-1.08-.25-3.79,.69-7.57,2.68-10.79"/><path id="Path_984" class="cls-7" d="M39.19,10.21c.17,.02,.33,.06,.5,.1-1.17-.56-2.45-.85-3.74-.86-.96,0-1.9,.17-2.8,.49,2.02-.07,4.04,.03,6.04,.27"/><path id="Path_985" class="cls-7" d="M23.66,25.25v-.03s0,0,0,0v.03"/><path id="Path_987" class="cls-7" d="M39.37,13.17c-1.13-.15-2.27-.22-3.41-.21-1.88-.04-3.77,.18-5.59,.66-.16,.17-1.42,1.59-2.8,3.48l-.06,2.52s4.52-4.95,6.72-5.94c0,0-3.62,5.28-4.23,6.2,2.84-2.03,8.02-7.97,14.2-4.73-.71-.58-1.57-.95-2.48-1.06-1.44-.18-2.12-.52-2.35-.91"/><path id="Path_988" class="cls-7" d="M33.15,9.94c-.44,0-.88,.01-1.33,.02-2.33,.04-3.87,1.55-4.88,3.28l2.08-.62c1.15-1.2,2.56-2.12,4.13-2.68"/><path id="Path_989" class="cls-7" d="M41.07,10.83l2.99,2.66-.62-1.16c-1.11-.91-2.38-1.6-3.74-2.02,.4,.19,.79,.41,1.17,.65,.13-.08,.21-.13,.21-.13"/><path id="Path_990" class="cls-7" d="M29.02,12.62l4.46-1.33-3.09,2.31-.03,.03c1.83-.48,3.71-.7,5.59-.66,1.14,0,2.28,.06,3.41,.21-.49-.82,.95-1.86,1.49-2.21-.37-.24-.76-.46-1.17-.65-.17-.04-.33-.07-.5-.1-2-.25-4.02-.34-6.04-.27-1.56,.56-2.97,1.47-4.13,2.68"/><path id="Path_991" class="cls-7" d="M25.18,18.37s0-.04,.02-.12c-.61,1.92-1.05,3.89-1.32,5.89,.03,.3,.05,.59,.1,.89-.02-.68,.08-1.36,.3-2,.23-1.69,.66-3.34,1.28-4.93l-.37,.27Z"/><path id="Path_992" class="cls-7" d="M25.56,18.1c-.62,1.59-1.05,3.24-1.28,4.93,.79-2.13,1.89-4.13,3.28-5.93v-.48s-2,1.47-2,1.47Z"/><path id="Path_993" class="cls-7" d="M26.94,13.24l-.38,.11c-1.99,3.22-2.93,7-2.68,10.79,.27-2,.72-3.97,1.32-5.89,.29-1.76,.88-3.46,1.74-5.01"/><path id="Path_994" class="cls-7" d="M25.18,18.37l.37-.27c.31-.8,.68-1.57,1.1-2.31-.63,.72-1.13,1.55-1.45,2.46-.01,.08-.02,.12-.02,.12"/><path id="Path_995" class="cls-7" d="M26.66,15.79c-.42,.74-.78,1.51-1.1,2.31l2.01-1.48v.48c1.37-1.89,2.64-3.31,2.79-3.48-1.41,.36-2.69,1.11-3.7,2.17"/><path id="Path_996" class="cls-7" d="M26.66,15.79c.65-1.16,1.44-2.23,2.37-3.18l-2.08,.62c-.86,1.56-1.45,3.26-1.74,5.02,.33-.91,.82-1.74,1.45-2.46"/><path id="Path_997" class="cls-7" d="M33.48,11.28l-4.46,1.33c-.92,.95-1.72,2.02-2.37,3.17,1.01-1.06,2.29-1.81,3.7-2.17l.03-.03,3.09-2.31Z"/><path id="Path_998" class="cls-15" d="M41.49,24.49c-1.11,.12-2.03,.9-2.35,1.98,.01,.15,.07,.3,.17,.41,0-.02-.01-.04,0-.05,.19-.72,.63-1.36,1.23-1.79h0s.1-.04,.14-.06c.09-.05,.18-.09,.28-.12,.18-.05,.36-.08,.54-.08,.22,0,.45,0,.67,.04h.04c1.18,.19,1.88,.93,1.81,1.24-.05,.23-.16,.44-.32,.62,.13-.09,.25-.19,.36-.3,.17-.28,.16-.64-.01-.92-.67-.68-1.6-1.02-2.55-.95"/><path id="Path_999" class="cls-7" d="M45.59,23.78c-.44-.68-1.15-1.14-1.95-1.26-1.3-.15-5.17,.16-5.08,1.35,.03,.24,.87-.16,1.21-.3,.39-.16,3.86-1.41,5.83,.21"/><path id="Path_1000" class="cls-8" d="M41.66,27.4c.75,.03,1.48-.23,2.04-.74-.4,.25-.85,.41-1.32,.46-.21,.16-.46,.26-.72,.29"/><path id="Path_1001" class="cls-8" d="M39.36,26.95s-.04-.05-.05-.07c.05,.24,1.06,.53,2.14,.53-.27-.01-.53-.1-.75-.26-.45-.04-.9-.1-1.34-.19"/><path id="Path_1002" class="cls-8" d="M42.2,24.82c.66,.35,.91,1.18,.56,1.84-.09,.18-.23,.34-.39,.46,.47-.05,.92-.21,1.32-.46,.15-.17,.26-.39,.32-.62,.07-.3-.62-1.04-1.81-1.23"/><path id="Path_1003" class="cls-8" d="M40.7,27.15c-.61-.43-.76-1.28-.34-1.9,.05-.08,.11-.15,.18-.21-.61,.44-1.04,1.07-1.24,1.79,0,.02,0,.04,0,.05,.01,.03,.03,.05,.05,.07,.44,.09,.89,.16,1.34,.19"/><path id="Path_1004" class="cls-8" d="M41.5,24.77c.22,0,.45,0,.67,.04-.22-.03-.44-.05-.67-.04"/><path id="Path_1005" class="cls-8" d="M40.68,24.97c.09-.05,.18-.09,.28-.12-.1,.03-.19,.07-.28,.12"/><path id="Path_1006" class="cls-5" d="M41.53,27.42s.08,0,.12-.01c-.07,0-.14,0-.21,0,.03,0,.06,0,.08,0"/><path id="Path_1007" class="cls-5" d="M42.2,24.81h-.03s.02,0,.04,0h0"/><path id="Path_1008" class="cls-5" d="M40.54,25.03h0s.1-.04,.15-.06c-.05,.02-.1,.04-.14,.06"/><path id="Path_1009" class="cls-5" d="M40.96,24.85c.17-.05,.35-.08,.54-.08-.18,0-.36,.03-.54,.08"/><path id="Path_1010" class="cls-5" d="M40.7,27.15c.22,.16,.48,.25,.75,.26,.07,0,.14,0,.21,0,.26-.02,.51-.12,.72-.29-.56,.07-1.12,.08-1.68,.03"/><path id="Path_1011" class="cls-5" d="M40.7,27.15c.56,.05,1.12,.04,1.68-.03,.6-.45,.72-1.31,.28-1.91-.12-.16-.27-.3-.45-.39-.01,0-.02,0-.04,0-.22-.03-.44-.05-.67-.04-.18,0-.36,.03-.54,.08-.1,.03-.19,.07-.28,.12-.05,.02-.1,.04-.15,.06-.54,.52-.56,1.38-.05,1.93,.06,.07,.13,.13,.21,.18m.83-1.55c.23,0,.43,.18,.43,.41,0,0,0,0,0,.01,0,.24-.18,.44-.42,.45-.24,0-.44-.18-.44-.42,0-.24,.18-.44,.42-.45,0,0,0,0,.01,0"/><path id="Path_1012" class="cls-15" d="M41.54,26.46c.23,0,.42-.2,.42-.43,0-.23-.19-.42-.42-.42,0,0,0,0-.01,0-.24,0-.43,.19-.43,.43h0c0,.24,.2,.43,.44,.42m-.03-.73c.1,0,.18,.08,.18,.18s-.08,.18-.18,.18c-.1,0-.18-.08-.18-.18,0-.1,.08-.18,.18-.18,0,0,0,0,0,0"/><path id="Path_1013" class="cls-8" d="M41.51,26.09c.1,0,.18-.09,.18-.19,0-.1-.09-.18-.19-.18-.1,0-.18,.08-.18,.18,0,.1,.09,.18,.19,.18"/><path id="Path_1014" class="cls-15" d="M30.16,24.49c-.95-.07-1.88,.28-2.55,.95-.18,.28-.18,.63-.01,.92,.11,.12,.23,.22,.36,.3-.16-.18-.27-.39-.32-.62-.07-.3,.62-1.04,1.81-1.23h0s.03,0,.03,0c.22-.03,.44-.05,.67-.04,.18,0,.36,.03,.53,.08,.1,.03,.19,.07,.28,.12,.05,.02,.1,.04,.14,.06h0c.6,.44,1.04,1.07,1.23,1.8,0,.02,0,.04,0,.05,.1-.12,.16-.26,.17-.41-.32-1.08-1.25-1.86-2.35-1.98"/><path id="Path_1015" class="cls-7" d="M28.01,22.52c-.8,.12-1.51,.58-1.96,1.26,1.97-1.62,5.44-.37,5.83-.21,.34,.14,1.19,.54,1.21,.3,.1-1.19-3.78-1.49-5.08-1.35"/><path id="Path_1016" class="cls-8" d="M27.95,26.66c.56,.51,1.29,.78,2.04,.74-.26-.02-.51-.12-.72-.29-.47-.05-.92-.21-1.32-.45"/><path id="Path_1017" class="cls-8" d="M30.95,27.15c-.22,.16-.48,.25-.75,.26,1.08,0,2.08-.29,2.14-.53-.02,.03-.03,.05-.05,.07-.44,.09-.89,.16-1.34,.19"/><path id="Path_1018" class="cls-8" d="M31.11,25.04c.54,.52,.56,1.39,.04,1.94-.06,.07-.13,.12-.2,.18,.45-.04,.89-.1,1.34-.19,.02-.02,.04-.05,.05-.07,0-.02,.01-.04,0-.05-.19-.72-.63-1.36-1.23-1.79"/><path id="Path_1019" class="cls-8" d="M29.48,24.81c.22-.03,.44-.05,.67-.04-.22,0-.45,0-.67,.04"/><path id="Path_1020" class="cls-8" d="M28.73,26.01c0-.5,.28-.95,.72-1.19-1.18,.19-1.88,.93-1.81,1.23,.05,.23,.16,.44,.32,.62,.4,.25,.85,.4,1.32,.45-.35-.26-.55-.67-.54-1.11"/><path id="Path_1021" class="cls-8" d="M30.68,24.85c.1,.03,.19,.07,.28,.12-.09-.05-.18-.09-.28-.12"/><path id="Path_1022" class="cls-5" d="M30.11,27.42s.06,0,.08,0c-.07,0-.14,0-.21,0,.04,0,.08,.01,.12,.01"/><path id="Path_1023" class="cls-5" d="M31.11,25.03s-.1-.04-.14-.06c.05,.02,.1,.04,.15,.06h0"/><path id="Path_1024" class="cls-5" d="M30.15,24.77c.18,0,.36,.03,.53,.08-.17-.05-.35-.08-.53-.08"/><path id="Path_1025" class="cls-5" d="M29.45,24.81h0s.02,0,.04,0h-.03Z"/><path id="Path_1026" class="cls-5" d="M29.27,27.11c.21,.16,.46,.26,.72,.29,.07,0,.14,0,.21,0,.27-.01,.53-.1,.75-.26-.56,.05-1.12,.04-1.68-.03"/><path id="Path_1027" class="cls-5" d="M28.73,26.01c0,.44,.2,.85,.54,1.11,.56,.07,1.12,.08,1.68,.03,.36-.25,.57-.67,.58-1.11,0-.38-.15-.74-.42-1-.05-.02-.1-.05-.15-.06-.09-.05-.18-.09-.28-.12-.17-.05-.35-.08-.53-.08-.22,0-.45,0-.67,.04-.01,0-.03,0-.04,0-.43,.24-.7,.69-.71,1.19m1.39-.41c.23,0,.42,.19,.42,.43h0c-.01,.24-.21,.42-.45,.41-.22-.01-.4-.19-.41-.42,0-.24,.2-.43,.43-.42,0,0,0,0,0,0"/><path id="Path_1028" class="cls-15" d="M30.11,26.46c.24,0,.43-.19,.44-.42,0-.24-.21-.43-.44-.42-.22,0-.4,.19-.42,.41,0,.24,.19,.43,.42,.43m.03-.73c.1,0,.18,.08,.18,.18h0c0,.1-.08,.19-.18,.19s-.19-.08-.19-.18,.08-.19,.18-.19c0,0,0,0,0,0"/><path id="Path_1029" class="cls-8" d="M30.13,26.09c.1,0,.18-.09,.18-.19,0-.1-.08-.18-.18-.18-.1,0-.18,.08-.18,.18,0,.1,.08,.18,.18,.18,0,0,0,0,0,0"/><path id="Path_1030" class="cls-7" d="M47.53,22.34l.02,.21s0-.09-.02-.21"/><path id="Path_1031" class="cls-7" d="M47.26,20.08c-.29-1.58-.98-3.06-2-4.3h-.02c.43,.74,.8,1.52,1.12,2.33,.59,1.35,.98,2.77,1.17,4.22l-.27-2.26Z"/><path id="Path_1032" class="cls-7" d="M44.2,15.15c.94,.8,1.68,1.82,2.16,2.97-.32-.81-.69-1.59-1.12-2.35-.33-.23-.68-.44-1.04-.62"/><path id="Path_1033" class="cls-7" d="M45.26,15.78c1.02,1.23,1.71,2.71,2,4.3l-.49-4.17-2.72-2.42,1.22,2.3h0"/><path id="Path_1034" class="cls-7" d="M45.24,15.77h.02s-.02,0-.04-.02v.02"/><path id="Path_1035" class="cls-7" d="M45.23,15.75c-1.18-1.28-2.98-2.19-5.86-2.58,.23,.39,.91,.73,2.35,.91,.91,.11,1.77,.48,2.48,1.06,.36,.19,.71,.39,1.04,.62v-.02"/><path id="Path_1036" class="cls-7" d="M40.86,10.96c1.82,1.22,3.31,2.86,4.37,4.79,.01,.01,.02,.02,.04,.03h0s-1.21-2.29-1.21-2.29l-2.99-2.66s-.08,.05-.21,.13"/><path id="Path_1037" class="cls-7" d="M40.86,10.96c-.55,.35-1.98,1.4-1.49,2.21,2.88,.38,4.68,1.29,5.86,2.58-1.05-1.93-2.55-3.57-4.37-4.79"/><path id="Path_1038" class="cls-10" d="M33.56,39.06c.76,.83,1.4,.75,2.4,.82,1.09-.11,1.72,.08,2.52-.84-.83,.17-1.68,.27-2.53,.27-.8,0-1.6-.09-2.39-.24"/><path id="Path_1039" class="cls-10" d="M35.98,38.75c-1.29,.08-3.51-1.24-3.49-1.29,.29,.58,.65,1.12,1.07,1.6,.79,.16,1.59,.24,2.39,.24,.85,0,1.7-.1,2.53-.27,.39-.48,.72-1,.99-1.55,.02,.05-2.24,1.35-3.49,1.27"/><path id="Path_1040" class="cls-13" d="M39.47,37.48s-1.71,.26-2.2,.38c-.77,.2-.84,.38-1.24,.38-.51-.06-1.02-.2-1.5-.39-.62-.12-2.05-.36-2.04-.39,2.13,1.35,4.84,1.36,6.98,.03"/><path id="Path_1041" class="cls-13" d="M35.98,38.75c1.25,.09,3.51-1.21,3.49-1.27-2.14,1.33-4.85,1.32-6.98-.02-.02,.05,2.21,1.38,3.49,1.29"/><path id="Path_1042" class="cls-13" d="M43.18,49.74v.03s0,0,0,0v-.03Z"/><path id="Path_1043" class="cls-13" d="M35.92,56.1c1.66,.01,3.31-.32,4.84-.98h-9.68c1.53,.66,3.18,1,4.84,.98"/><path id="Path_1044" class="cls-13" d="M41.15,51.81v1.52h-10.38v-1.48c-.84-.45-1.55-1.14-2.03-1.97l.6,2.54,.48,2.01c.4,.27,.82,.5,1.26,.69h9.68c.46-.2,.91-.45,1.33-.74l.55-2.29,.54-2.33h-.02c-.46,.86-1.16,1.57-2.01,2.04"/><path id="Path_1045" class="cls-13" d="M41.16,53.33v-1.52c-1.6,.91-3.4,1.37-5.23,1.33-1.8,.03-3.57-.41-5.15-1.28v1.47h10.38Z"/><path id="Path_1046" class="cls-10" d="M30.33,56.57l3.64,15.37c.66,.03,1.32,.06,1.98,.06s1.27-.02,1.91-.05l3.7-15.38h-11.23Z"/><path id="Path_1047" class="cls-10" d="M40.76,55.12c-1.53,.66-3.18,1-4.84,.98-1.66,.01-3.31-.32-4.84-.98h-1.1l.35,1.45h11.23l.35-1.45h-1.15Z"/><path id="Path_1048" class="cls-10" d="M29.98,55.12h1.1c-.44-.2-.86-.43-1.26-.69l.16,.69Z"/><path id="Path_1049" class="cls-10" d="M40.76,55.12h1.14l.18-.74c-.42,.29-.86,.53-1.33,.74"/><path id="Path_1050" class="cls-5" d="M25.53,55.94l.5-.62-2.36-1,1.64-2.1-9.46,3.92v.03l.05-.03,3.28,11.76c4,2.09,8.34,3.41,12.82,3.89l-.16-1.02-6.31-14.83Z"/><path id="Path_1051" class="cls-5" d="M15.86,56.15l2.08,11.05c.41,.23,.82,.46,1.24,.68l-3.28-11.76-.05,.03Z"/><path id="Path_1052" class="cls-5" d="M32,71.78c.1,0,.2,.03,.29,.04l-.45-1.05,.16,1.02Z"/><path id="Path_1053" class="cls-5" d="M56.05,56.16v-.03s-9.47-3.92-9.47-3.92l1.65,2.1-2.36,1,.5,.62-6.51,15.64-.03,.21c4.5-.48,8.87-1.8,12.88-3.9l3.28-11.76,.05,.03Z"/><path id="Path_1054" class="cls-5" d="M56.01,56.13l-3.28,11.76c.42-.22,.83-.45,1.24-.68l2.08-11.05-.05-.03Z"/><path id="Path_1055" class="cls-5" d="M39.78,71.8s.04,0,.06,0l.03-.21-.09,.22Z"/><path id="Path_1056" class="cls-6" d="M28.37,49.76v-1.45l-3.06,3.9,3.06-1.26v-1.19Z"/><path id="Path_1057" class="cls-6" d="M28.65,49.76v-.03s0,.02,.02,.03h.05l-.35-1.45v1.45h.28Z"/><path id="Path_1058" class="cls-6" d="M28.75,51.96l.2-.24-.3-1.96h-.28v1.19l.11-.04,.27,1.06Z"/><path id="Path_1059" class="cls-6" d="M28.72,49.76h-.05s.05,.08,.08,.12l-.03-.12Z"/><path id="Path_1060" class="cls-6" d="M28.65,49.73v.03h.02s-.01-.02-.02-.03"/><path id="Path_1061" class="cls-6" d="M29.13,51.5l.22,.92-.6-2.54s-.06-.08-.08-.12h-.01l.3,1.96,.18-.22Z"/><path id="Path_1062" class="cls-6" d="M26.03,55.32l2.34-2.89v-1.48l-3.06,1.26-1.65,2.1,2.36,1.01Z"/><path id="Path_1063" class="cls-6" d="M28.48,50.91l-.11,.04v1.48l.38-.47-.27-1.06Z"/><path id="Path_1064" class="cls-6" d="M29.31,54.06l-.19-1.26-.02-.14-.14,.13,.39,1.52-.04-.25Z"/><path id="Path_1065" class="cls-6" d="M29.11,52.79l.2,1.27c.16,.13,.33,.26,.51,.37l-.48-2.01-.25,.23,.02,.14Z"/><path id="Path_1066" class="cls-6" d="M29.92,56.57l3.9,15.36c.05,0,.1,0,.15,.01l-3.64-15.37h-.41Z"/><path id="Path_1067" class="cls-6" d="M29.55,55.13l.37,1.45h.41l-.34-1.45h-.43Z"/><path id="Path_1068" class="cls-6" d="M29.31,54.06l.04,.24,.21,.83h.43l-.17-.69c-.18-.12-.35-.24-.51-.37"/><path id="Path_1069" class="cls-6" d="M28.37,55.12v-1.8l-2.23,2.05-.12-.05-.5,.62,6.32,14.83-.41-2.7-.58-3.82-.19-1.27-.77-5.09-.2-1.31h-1.32v-1.45Z"/><path id="Path_1070" class="cls-6" d="M28.37,55.13v1.45h1.32l-.22-1.45h-1.1Z"/><path id="Path_1071" class="cls-6" d="M28.96,52.78l-.59,.54v1.8h1.1l-.12-.82-.39-1.52Z"/><path id="Path_1072" class="cls-6" d="M29.69,56.57l.2,1.31,.77,5.09,.19,1.27,.58,3.82,.41,2.7,.45,1.05c.51,.05,1.02,.08,1.53,.11l-3.9-15.36h-.24Z"/><path id="Path_1073" class="cls-6" d="M29.47,55.13l.22,1.45h.23l-.37-1.45h-.08Z"/><path id="Path_1074" class="cls-6" d="M29.47,55.12h.09l-.21-.82,.12,.82Z"/><path id="Path_1075" class="cls-6" d="M28.95,51.72l-.2,.24,.21,.82,.14-.13-.14-.93Z"/><path id="Path_1076" class="cls-6" d="M29.34,52.42l-.22-.92-.17,.22,.14,.93,.25-.23Z"/><path id="Path_1077" class="cls-6" d="M28.37,53.32v-.88l-2.34,2.88,.12,.05,2.23-2.05Z"/><path id="Path_1078" class="cls-6" d="M28.96,52.78l-.21-.82-.38,.47v.89l.59-.54Z"/><path id="Path_1079" class="cls-6" d="M43.52,50.95l3.07,1.27-3.07-3.9v2.63Z"/><path id="Path_1080" class="cls-6" d="M43.19,49.73v.04s.32,0,.32,0v-1.45l-.33,1.43h0"/><path id="Path_1081" class="cls-6" d="M43.15,51.96l.27-1.06,.09,.04v-1.18h-.33l-.29,1.89,.26,.31Z"/><path id="Path_1082" class="cls-6" d="M43.19,49.76v-.04s0,.01,0,.01v.03s0,0,0,0Z"/><path id="Path_1083" class="cls-6" d="M42.64,52.09l.14-.58,.12,.15,.29-1.89h0l-.54,2.33Z"/><path id="Path_1084" class="cls-6" d="M43.52,52.41l2.36,2.91,2.36-1-1.65-2.1-3.07-1.27v1.47Z"/><path id="Path_1085" class="cls-6" d="M43.15,51.97l.36,.45v-1.47l-.09-.04-.27,1.06Z"/><path id="Path_1086" class="cls-6" d="M42.73,52.79l-.19,1.26-.13,.87,.55-2.15-.19-.18-.03,.19Z"/><path id="Path_1087" class="cls-6" d="M42.73,52.79l.03-.19-.2-.18,.08-.33-.55,2.29c.15-.11,.31-.21,.45-.32l.19-1.26Z"/><path id="Path_1088" class="cls-6" d="M41.56,56.57l-3.7,15.38c.08,0,.15-.01,.23-.02l3.9-15.36h-.43Z"/><path id="Path_1089" class="cls-6" d="M41.91,55.13l-.35,1.45h.43l.37-1.45h-.44Z"/><path id="Path_1090" class="cls-6" d="M42.53,54.06c-.14,.11-.3,.22-.45,.32l-.18,.74h.44l.05-.19,.14-.87Z"/><path id="Path_1091" class="cls-6" d="M43.52,53.3v3.27h-1.36l-.2,1.31-.77,5.09-.19,1.27-.58,3.83-.54,3.51,6.51-15.64-.5-.62-.11,.05-2.25-2.07Z"/><path id="Path_1092" class="cls-6" d="M43.52,55.13h-1.14l-.22,1.45h1.36v-1.45Z"/><path id="Path_1093" class="cls-6" d="M42.4,54.93l-.03,.19h1.14v-1.82l-.57-.52-.55,2.15Z"/><path id="Path_1094" class="cls-6" d="M40.4,68.07l.58-3.82,.19-1.27,.77-5.09,.2-1.31h-.17l-3.9,15.36c.57-.03,1.13-.08,1.69-.14l.09-.22,.54-3.51Z"/><path id="Path_1095" class="cls-6" d="M42.35,55.13l-.37,1.45h.17l.22-1.45h-.02Z"/><path id="Path_1096" class="cls-6" d="M42.35,55.12h.02l.03-.19-.05,.19Z"/><path id="Path_1097" class="cls-6" d="M42.95,52.78l.21-.82-.25-.31-.14,.95,.19,.18Z"/><path id="Path_1098" class="cls-6" d="M42.76,52.6l.14-.95-.13-.14-.14,.58-.08,.33,.2,.18Z"/><path id="Path_1099" class="cls-6" d="M43.52,53.3l2.25,2.07,.11-.05-2.36-2.9v.89Z"/><path id="Path_1100" class="cls-6" d="M42.95,52.78l.57,.52v-.89l-.36-.45-.21,.82Z"/></g></g></g></svg>