<?xml version="1.0" encoding="UTF-8"?><svg id="Layer_4" xmlns="http://www.w3.org/2000/svg" xmlns:xlink="http://www.w3.org/1999/xlink" viewBox="0 0 72 72"><defs><style>.cls-1{fill:none;}.cls-2{clip-path:url(#clippath);}.cls-3{fill:#f8e3d2;}.cls-4{fill:#f8dec5;}.cls-5{fill:#f1a91e;}.cls-6{fill:#ec625b;}.cls-7{fill:#e9caab;}.cls-8{fill:#fff;}.cls-9{fill:#e66b5b;}.cls-10{fill:#cca884;}.cls-11{fill:#d4d4c6;}.cls-12{fill:#da9328;}.cls-13{fill:#130d0a;}.cls-14{fill:#110e0d;}.cls-15{fill:#454342;}.cls-16{fill:#2c2c2c;}.cls-17{fill:#76aa65;}</style><clipPath id="clippath"><rect class="cls-1" width="72" height="72"/></clipPath></defs><g id="Group_434"><g class="cls-2"><g id="Group_433"><path id="Path_480" class="cls-11" d="M72,36c0,19.88-16.12,36-36,36S0,55.88,0,36,16.11,0,36,0s36,16.12,36,36"/><path id="Path_481" class="cls-6" d="M60.12,22.87c.98,4.35-8.97,10.3-22.24,13.29-13.26,2.99-24.8,1.9-25.79-2.44s8.98-10.29,22.24-13.29c13.26-3,24.81-1.9,25.79,2.45"/><path id="Path_482" class="cls-12" d="M51.8,34.04c0,10.78-7.26,22.34-16.39,22.34s-16.25-11.25-16.25-22.03c0-2.29,3.03-2.48,3.64-4.53,2.28-7.57,5.26-15.3,12.46-15.3,9.14,0,16.55,8.74,16.55,19.51"/><path id="Path_483" class="cls-16" d="M27.75,53.05h17.05s2.66,3.15,2.66,3.15l-9.46,6.41-10.71-2.2-.8-5.87,1.26-1.49Z"/><path id="Path_484" class="cls-7" d="M42.02,59.48l-11.8,.04-.08-16.84,11.8-.04,.09,16.85Z"/><path id="Path_485" class="cls-15" d="M54.4,57.16c-1.29-.42-6.03-2.51-9.6-4.1,0,0-.01,0-.02-.01-.01,.05-.03,.09-.03,.13-.03,.13-.06,.27-.1,.4-.02,.05-.03,.09-.05,.14-.08,.19-.17,.37-.27,.54l-.02,.03c-1,1.37-2.42,2.36-4.02,2.84h0c-1.31,.46-2.69,.69-4.07,.7-1.3,0-2.6-.21-3.83-.62h0c-1.04-.34-2.02-.85-2.89-1.52-.88-.62-1.5-1.56-1.72-2.63h-.03c-3.57,1.59-8.31,3.68-9.6,4.1-2.15,.7-3.4,2.27-3.4,4.33l-.44,3.03c6.28,4.75,13.9,7.3,21.71,7.29,8.02,.02,15.82-2.67,22.19-7.66l-.38-2.65c0-2.06-1.26-3.63-3.4-4.33"/><path id="Path_486" class="cls-4" d="M45.42,31.39c-.26,2.18,.45,4.03,1.59,4.15s2.28-1.55,2.54-3.73-.45-4.03-1.59-4.15-2.27,1.55-2.53,3.72"/><path id="Path_487" class="cls-3" d="M23.09,31.79c.23,2.18,1.34,3.86,2.49,3.75,1.14-.1,1.88-1.95,1.64-4.13s-1.34-3.86-2.49-3.75-1.88,1.95-1.64,4.13"/><path id="Path_488" class="cls-3" d="M25.05,31.45c0,7.72,7.01,15.7,11.24,15.7,4.76,0,11.29-7.97,11.29-15.7s-2.91-16.55-11.27-16.55c-9.1,0-11.27,8.83-11.27,16.55"/><path id="Path_489" class="cls-8" d="M38.85,31.78s1.56-2.85,4.32-2.57c2.97,.3,3.16,2.33,3.16,2.33-.83,1.27-2.34,1.89-3.8,1.56-1.29-.23-2.53-.68-3.68-1.32"/><path id="Path_490" class="cls-17" d="M44.7,30.61c.14,1.02-.55,1.96-1.54,2.11-.01,0-.02,0-.03,0-1,.13-1.91-.59-2.04-1.61-.13-1.02,.58-1.95,1.58-2.08,.99-.13,1.9,.58,2.04,1.59"/><path id="Path_491" class="cls-13" d="M44.15,30.48c.1,.73-.4,1.4-1.11,1.5,0,0,0,0-.01,0-.72,.11-1.4-.39-1.51-1.12-.1-.73,.4-1.41,1.12-1.51,0,0,0,0,0,0,.72-.11,1.4,.39,1.51,1.13"/><path id="Path_492" class="cls-8" d="M42.95,30.24c.03,.26-.15,.5-.4,.54-.26,.04-.5-.14-.55-.4-.04-.27,.15-.51,.41-.55,.26-.04,.5,.15,.54,.42h0"/><path id="Path_493" class="cls-8" d="M43.61,30.3c.01,.14-.09,.27-.24,.28-.13,.01-.25-.08-.27-.21-.02-.14,.08-.27,.22-.29,0,0,0,0,0,0,.14-.02,.27,.08,.29,.22"/><path id="Path_494" class="cls-14" d="M38.85,31.78s2.29-4.12,7.53-.35c-.3-1.4-4.17-5.16-7.53,.35"/><path id="Path_495" class="cls-8" d="M34.2,31.86s-1.31-2.97-4.08-2.93c-2.98,.04-3.34,2.05-3.34,2.05,.72,1.34,2.17,2.09,3.65,1.88,1.3-.12,2.58-.46,3.78-1"/><path id="Path_496" class="cls-17" d="M28.46,30.2c-.23,1,.38,2,1.36,2.23,0,0,.02,0,.03,0,.99,.24,1.99-.38,2.24-1.39,.23-1-.38-2-1.36-2.23-.01,0-.02,0-.04,0-.99-.24-1.99,.38-2.24,1.39"/><path id="Path_497" class="cls-13" d="M29.03,30.12c-.16,.72,.29,1.44,.99,1.6,0,0,0,0,0,0,.71,.17,1.42-.27,1.6-.99,.16-.72-.28-1.44-.99-1.6,0,0,0,0,0,0-.71-.18-1.43,.27-1.61,1"/><path id="Path_498" class="cls-8" d="M30.24,29.98c-.06,.25,.09,.51,.34,.57,0,0,0,0,.01,0,.25,.06,.51-.1,.57-.35,.06-.25-.09-.51-.34-.57,0,0,0,0-.01,0-.25-.07-.51,.09-.57,.35,0,0,0,0,0,0"/><path id="Path_499" class="cls-8" d="M29.57,29.99c-.03,.13,.05,.27,.18,.3,0,0,0,0,.01,0,.13,.03,.27-.05,.3-.18,0,0,0,0,0,0,.03-.13-.04-.27-.17-.3,0,0-.01,0-.02,0-.14-.04-.28,.05-.31,.19,0,0,0,0,0,0"/><path id="Path_500" class="cls-14" d="M34.2,31.86s-1.93-4.3-7.47-.99c.43-1.37,4.6-4.79,7.47,.99"/><path id="Path_501" class="cls-10" d="M34.78,37.5c.12-.15,.44-.14,.48-.14,.16,.01,.32,.06,.46,.15l.05,.03c.25,.16,.54,.25,.83,.27,.29-.02,.58-.11,.83-.27l.05-.03c.14-.09,.3-.14,.46-.15,.04,0,.36-.01,.47,.14,.05,.06,.05,.15,.01,.21-.07,.11-.2,.16-.33,.14-.19,0-.38-.03-.56-.1-.28,.17-.6,.27-.93,.29h-.02c-.33-.02-.64-.12-.93-.29-.18,.07-.37,.11-.56,.1-.13,.02-.25-.03-.33-.14-.04-.07-.04-.15,.01-.21"/><path id="Path_502" class="cls-9" d="M37.74,39.77c-.45,.19-.91,.33-1.39,.42-.37,0-.44-.24-1.16-.41-.45-.1-1.64,.24-2.36-.39,1.59,2.86,2.15,2.93,3.58,2.95,1.36,.02,2.01-.35,3.51-2.97-.19,.33-1.62,.29-2.19,.39"/><path id="Path_503" class="cls-5" d="M34.68,20.8s1.03,6.99,5.45,7.83c-1.86-2.28-1.91-4.78-1.43-8.76,.3-2.14,.36-4.3,.17-6.45l-3.77,.9-.43,6.47Z"/><path id="Path_504" class="cls-5" d="M30.38,21.92s2.62,6.57,7.1,6.37c-2.33-1.79-2.96-4.22-3.4-8.2-.2-2.15-.64-4.28-1.31-6.33l-3.45,1.75,1.06,6.4Z"/><path id="Path_505" class="cls-5" d="M33.05,9c.66-.18,1.32-.31,2-.38,1.51-.16,3.03-.05,4.49,.34,.06,.02,.12,.03,.18,.05,.15,.04,.31,.08,.46,.14,.2,.06,.39,.13,.59,.2l.21,.09c.14,.06,.28,.12,.42,.17,.07,.03,.14,.06,.21,.09,.17,.08,.34,.17,.51,.25,.03,.02,.06,.03,.09,.04,.19,.1,.38,.21,.57,.32,.06,.03,.13,.08,.19,.12,.13,.08,.27,.17,.4,.25,.07,.05,.13,.09,.19,.12,.17,.12,.33,.23,.49,.36,.03,.01,.05,.03,.07,.05,.18,.14,.36,.28,.53,.43,.06,.05,.12,.1,.17,.15,.13,.11,.25,.22,.37,.33,.06,.05,.12,.11,.18,.16,.15,.14,.3,.29,.45,.44,.02,.02,.05,.04,.06,.06,.17,.17,.32,.35,.49,.53,.05,.06,.1,.12,.16,.18,.11,.14,.22,.27,.33,.4,.05,.07,.11,.13,.16,.2,.14,.17,.27,.35,.4,.53,.02,.03,.04,.05,.06,.08,.15,.2,.29,.41,.43,.62,.05,.07,.09,.15,.14,.22,.1,.15,.19,.31,.29,.47,.04,.08,.09,.16,.14,.23,.12,.2,.23,.4,.34,.61,.02,.03,.04,.07,.05,.1,.13,.23,.24,.47,.36,.72,.04,.09,.08,.17,.12,.25,.02,.05,.05,.09,.06,.14h0s5.65,12.27,6.06,13.85c0,.03,0,.05,0,.08,.21,.68,.37,1.37,.48,2.07,.53,3.64-.28,5.78-1.31,8.7-.51,1.29-1.01,3.25,1.22,4.05,.69,.14,1.4-.03,1.96-.46,.42-.32,.63-.15,.17,.2-1.18,.93-2.87,.73-3.81-.46-.69-.89-.59-1.66-.29-2.83,.83-3.04,.55-4.13-.57-7.06-.39-1.02-.93-1.97-1.61-2.82-.9-1.11-1.92-2.12-3.03-3.01-2.32-1.91-4.75-3.56-7-5.57-.65-.59-1.3-1.21-1.91-1.87-3.39-3.34-5.83-10.88-6.71-13.94"/><path id="Path_506" class="cls-5" d="M46.84,24.43l1.53-.16s2.41,5.83,3.14,7.65c1.29,2.93,1.46,6.25,.48,9.3-.48,1.32-1.16,2.55-2.01,3.65-1.09,1.59-2.52,2.91-4.18,3.86-.29,.1-.6,.09-.89-.01-.32-.13-.59-.38-.73-.71-.14-.33-.14-.71,0-1.04,.11-.28,.32-.5,.59-.61,.27-.11,.57-.11,.85-.01,.33,.12,.56,.45,.56,.81v.02s0,0,0,0c-.04,.11-.11,.2-.19,.27,0-.15-.03-.29-.09-.42l-.05-.11c-.07-.14-.19-.25-.33-.3-.2-.09-.43-.09-.64,0-.2,.08-.37,.25-.45,.46-.1,.25-.1,.53,0,.78,.32,.54,1,.71,1.53,.39,.06-.04,.11-.08,.16-.12,2.31-1.75,2.84-3.88,3.16-6.35,.15-2.07-.23-4.14-1.11-6.01h0c-.09,2.25-.66,4.45-1.68,6.44-1.84,3.53-3.91,4.89-6.67,6.81-1.26,.81-2.94,2.22-1.49,4.33,.52,.56,1.26,.86,2.02,.83,.56,0,1.08-.25,1.46-.67,.38-.4,.58-.95,.55-1.5-.04-.91-.79-1.63-1.69-1.59-.34,.02-.67,.17-.9,.42-.24,.24-.36,.58-.34,.92,0,.19,.07,.36,.18,.51,.23,.12,.53,.68,.3,.62-.07-.02-.14-.05-.19-.1h0c-.06-.03-.12-.08-.18-.12-.25-.23-.4-.55-.42-.89-.01-.42,.14-.83,.42-1.13,.29-.31,.68-.49,1.1-.5,1.06-.04,1.95,.78,2.03,1.86,0,.63-.23,1.24-.64,1.71-.44,.46-1.04,.73-1.67,.75-1.6,.09-2.97-1.15-3.06-2.78,0,0,0-.02,0-.03-.04-1.22,.54-1.84,1.54-2.67,2.26-1.82,2.92-2.92,3.6-5.22,2.81-3.04,5.18-7.61,5.18-12.09,.02-2.43-.23-4.85-.77-7.21"/><path id="Path_507" class="cls-5" d="M38.91,8.77c-.67-.11-1.35-.16-2.03-.16-1.51,0-3.01,.27-4.43,.81-.06,.02-.12,.05-.18,.07-.15,.06-.29,.12-.44,.18-.19,.09-.38,.18-.56,.27l-.2,.11c-.13,.07-.26,.14-.4,.22-.07,.04-.13,.08-.2,.12-.17,.1-.33,.2-.49,.31l-.08,.05c-.18,.12-.36,.25-.53,.38-.06,.05-.12,.09-.18,.14-.12,.09-.25,.19-.37,.29-.06,.05-.12,.1-.18,.15-.16,.13-.3,.26-.45,.4-.02,.02-.04,.04-.06,.06-.16,.16-.32,.31-.49,.48-.05,.06-.1,.11-.16,.16-.11,.12-.22,.24-.33,.37-.05,.06-.11,.12-.16,.18-.14,.16-.27,.32-.4,.48-.02,.03-.04,.05-.06,.07-.14,.19-.28,.38-.42,.58-.05,.07-.09,.14-.14,.2-.1,.15-.19,.29-.29,.44-.05,.07-.09,.14-.14,.21-.11,.19-.23,.38-.34,.57-.02,.03-.04,.06-.05,.08-.12,.22-.24,.44-.36,.67-.04,.08-.08,.15-.12,.23-.08,.17-.16,.33-.24,.5-.04,.09-.08,.16-.11,.25-.1,.21-.18,.42-.27,.64l-.04,.11c-.1,.25-.19,.5-.29,.75-.03,.09-.06,.18-.09,.26-.02,.05-.04,.1-.05,.14,0,0-4.32,12.8-4.55,14.41,0,.03,0,.06,0,.09-.14,.7-.23,1.4-.26,2.11-.14,3.67,.89,5.71,2.23,8.51,.65,1.23,1.35,3.12-.78,4.16-.67,.21-1.4,.12-2-.26-.88-.53-1.17-1.7-.65-2.6,.01-.02,.02-.04,.04-.06,.45-.71,1.37-.94,2.08-.5,.27,.17,.46,.44,.53,.75,.08,.31,.02,.63-.15,.89-.09,.15-.22,.26-.37,.33-.23-.01-.74,.3-.53,.36,.07,.02,.13,.02,.2,0h0c.07,0,.13,0,.2-.01,.31-.07,.58-.26,.75-.53,.2-.33,.26-.72,.17-1.1-.09-.38-.33-.71-.65-.91-.84-.51-1.93-.26-2.48,.57-.29,.5-.38,1.1-.27,1.66,.14,.57,.5,1.07,1,1.37,1.27,.81,2.93,.43,3.74-.86,.59-.96,.41-1.72-.01-2.85-1.15-2.94-.98-4.05-.19-7.08,.28-1.05,.72-2.06,1.3-2.97,.77-1.21,1.68-2.32,2.7-3.32,2.1-2.15,4.34-4.04,6.37-6.28,.59-.66,1.17-1.34,1.7-2.07,3.01-3.68,4.64-11.44,5.19-14.58"/><path id="Path_508" class="cls-8" d="M60.12,22.88c-.55-2.48-4.55-3.89-10.34-4.1-5.2-.1-10.38,.46-15.45,1.65-4.9,1.06-9.66,2.7-14.18,4.89-5.43,2.73-8.64,5.84-8.06,8.4,.06,.25,.15,.49,.28,.71,.99-2.19,4.09-4.58,8.53-6.71,4.3-2,8.8-3.52,13.43-4.52,5.17-1.23,10.47-1.78,15.77-1.65,5.03,.22,8.65,1.38,9.73,3.37,.32-.63,.42-1.35,.28-2.05"/><path id="Path_509" class="cls-8" d="M50.86,18.78c-1.63-7.26-7.98-12.39-15.27-12.34-8.53-.1-15.52,6.89-15.62,15.62,0,1.17,.13,2.33,.39,3.46,4.66-2.26,9.56-3.95,14.6-5.04,5.21-1.23,10.55-1.8,15.9-1.71"/><path id="Path_510" class="cls-6" d="M20,22.96c.05,.86,.17,1.72,.37,2.56,4.66-2.26,9.56-3.95,14.6-5.04,5.21-1.23,10.55-1.8,15.9-1.7-.19-.91-.47-1.81-.83-2.67-5.1,.18-10.17,.85-15.15,2-5.1,1.12-10.09,2.74-14.89,4.84"/></g></g></g></svg>