<?xml version="1.0" encoding="UTF-8"?><svg id="Layer_31" xmlns="http://www.w3.org/2000/svg" xmlns:xlink="http://www.w3.org/1999/xlink" viewBox="0 0 72 72"><defs><style>.cls-1{fill:none;}.cls-2{clip-path:url(#clippath);}.cls-3{fill:#e9caab;}.cls-4{fill:#fbb316;}.cls-5{fill:#fcd8b0;}.cls-6{fill:#68652e;}.cls-7{fill:#40403f;}.cls-8{fill:#a39f4a;}.cls-9{fill:#4a494a;}.cls-10{fill:#262626;}.cls-11{fill:#515251;}</style><clipPath id="clippath"><rect class="cls-1" width="72" height="72"/></clipPath></defs><g id="Group_430"><g class="cls-2"><g id="Group_429"><path id="Path_373" class="cls-4" d="M72,36c0,19.88-16.12,36-36,36S0,55.88,0,36,16.12,0,36,0s36,16.12,36,36"/><path id="Path_374" class="cls-7" d="M20.53,43.87c.07,.13,.13,.26,.21,.39-.06-.15-.1-.3-.16-.44-.02,.02-.03,.03-.05,.05"/><path id="Path_375" class="cls-7" d="M51.44,43.84s-.03,.08-.04,.13l.37,.49c-.41,1.28-.82,2.47-1.23,3.58,.95-1.22,1.77-2.53,2.46-3.92-.18,.1-.38,.15-.58,.15-.37-.01-.72-.16-.98-.42"/><path id="Path_376" class="cls-7" d="M18.44,34.8c-.14-.6-.22-1.21-.23-1.83,.22-12.1,8.12-21.79,17.8-22.05-.3-.01-.61-.02-.92,0h1.6c-.23,0-.45,0-.68,0,9.6,.36,17.79,9.14,17.99,21.14-.06,.93-.19,1.86-.39,2.78,.85,1.2,1.29,2.66,1.25,4.15,.46-1.94,.7-3.93,.7-5.93,0-12.38-8.75-22.42-19.55-22.42s-19.56,10.04-19.56,22.42c0,2,.23,3.99,.7,5.93-.05-1.51,.41-2.98,1.29-4.19"/><path id="Path_377" class="cls-7" d="M20.34,44.02c-.22,.16-.49,.24-.76,.25-.2,0-.4-.05-.58-.15,.73,1.49,1.63,2.89,2.67,4.18-.49-1.26-.97-2.6-1.44-4.02l.11-.26Z"/><path id="Path_378" class="cls-6" d="M20.7,67.23s.03,.03,.04,.04c-.14-.23-.29-.45-.41-.68,.12,.22,.24,.43,.37,.64"/><path id="Path_379" class="cls-6" d="M47.24,61.76c-1.32-.55-2.71-.92-4.13-1.1l.03,6.69c1.88-1.41,3.3-3.35,4.09-5.59"/><path id="Path_380" class="cls-6" d="M28.91,67.4l-.04-6.66c-1.4,.2-2.79,.51-4.14,.93,.79,2.3,2.25,4.3,4.18,5.73"/><path id="Path_381" class="cls-3" d="M29.93,60.09c-.37-.16-.72-.36-1.06-.59v1.24c.49-.07,.98-.14,1.48-.2-.15-.15-.29-.3-.43-.46"/><path id="Path_382" class="cls-3" d="M41.7,60.48c.48,.05,.96,.11,1.42,.18v-1.12c-.34,.21-.69,.39-1.05,.55-.12,.14-.25,.27-.37,.4"/><path id="Path_383" class="cls-3" d="M36,69.75c2.57,0,5.07-.84,7.14-2.39l-.03-6.7c-.46-.07-.93-.13-1.42-.17-2.93,3.22-7.86,3.39-11,.4-.12-.11-.23-.22-.34-.34-.51,.06-1,.12-1.48,.19l.03,6.66c2.06,1.53,4.54,2.36,7.09,2.35"/><path id="Path_384" class="cls-5" d="M54.86,39.23c0-.08,0-.16,0-.25-.42,1.78-1.04,3.49-1.85,5.13,1.06-.54,1.85-2.51,1.85-4.88"/><path id="Path_385" class="cls-5" d="M53.5,35.44c0,.09,0,.17,0,.25v.08c-.01,.05-.03,.11-.06,.15,0,.03-.01,.07-.01,.1s0,.04,0,.04c0-.01,0-.03,0-.04l-.02-.04c-.04,.05-.09,.09-.15,.12-.32,2.64-.93,5.23-1.81,7.73,.26,.26,.61,.41,.98,.43,.2,0,.4-.05,.58-.15,.81-1.63,1.43-3.35,1.85-5.13,.04-1.49-.4-2.95-1.25-4.15-.04,.21-.07,.41-.1,.61"/><path id="Path_386" class="cls-5" d="M17.15,39.23c0,2.36,.79,4.34,1.85,4.88-.81-1.63-1.43-3.35-1.85-5.13,0,.08,0,.16,0,.25"/><path id="Path_387" class="cls-5" d="M20.34,44.01l.12-.28s.05,.09,.07,.14l.05-.05c-.88-2.49-1.5-5.08-1.82-7.71-.02-.01-.04-.03-.06-.05-.04,0-.06,0-.05,0,0-.02,0-.04,0-.06-.06-.07-.1-.15-.12-.24,0-.03,0-.05,0-.08,0-.15,0-.32,0-.51-.02-.13-.05-.25-.07-.38-.88,1.21-1.33,2.68-1.29,4.19,.42,1.77,1.04,3.49,1.85,5.12,.18,.1,.38,.15,.58,.15,.27,0,.53-.09,.76-.25"/><path id="Path_388" class="cls-5" d="M33.36,33.97c.86,.31,1.75,.53,2.65,.67,1.1-.03,3.08-1.05,6.42-1.47,3.03-.28,6.09-.21,9.1,.19-2.11-2.78-5.25-6.69-5.25-6.69-3.65,3.72-8.39,5.95-12.92,7.31"/><path id="Path_389" class="cls-5" d="M28.31,52.68c.18-.19,.36-.37,.52-.53v-.56h.58c.1-.09,.18-.17,.23-.22,3.92-3.93,8.61-3.93,12.53,0,.04,.04,.1,.1,.17,.17h.73v.83c.12,.14,.24,.29,.35,.44,3.06-1.25,6.18-5.66,7.9-8.94l.08,.1,.04-.13c-.25-.24-.47-.53-.63-.84-.42,.68-1.05,1.19-1.79,1.46-1.07,.38-6.24,1.15-8.87-1.31-.71-.84-1.27-1.79-1.67-2.83-.3-.79-1.09-3.07-1.21-3.41-.09-.57-.57-.99-1.14-.99h-.26c-.57,0-1.05,.42-1.15,.99-.12,.35-.91,2.62-1.2,3.41-.39,1.03-.96,1.98-1.66,2.82-2.64,2.46-7.81,1.68-8.87,1.31-.74-.27-1.37-.79-1.79-1.46-.16,.31-.37,.58-.62,.82,.05,.15,.1,.29,.16,.44,1.73,3.24,4.75,7.23,7.58,8.42"/><path id="Path_390" class="cls-5" d="M35.22,55.45c.52,.09,1.04,.09,1.56,0-.26,0-.52,.02-.78,.02s-.52-.01-.78-.02"/><path id="Path_391" class="cls-5" d="M36,51.68c-1.66,.11-3.23,.79-4.46,1.92,1.04,.94,2.31,1.58,3.68,1.86,.26,0,.52,.02,.78,.02s.52-.01,.78-.02c1.37-.27,2.64-.91,3.68-1.86-1.23-1.13-2.81-1.81-4.46-1.92"/><path id="Path_392" class="cls-5" d="M28.83,51.59v.56c.23-.22,.43-.42,.58-.57h-.58Z"/><path id="Path_393" class="cls-5" d="M43.07,51.54h-.73c.19,.19,.45,.49,.73,.83v-.83Z"/><path id="Path_394" class="cls-5" d="M53.21,36.14c-.29,.13-.8,.68-1.32,3.34-.13,1.24-.5,2.43-1.08,3.52,.16,.31,.38,.6,.63,.84,.88-2.5,1.49-5.09,1.81-7.73,0,0-.01,.01-.02,.02h-.02"/><path id="Path_395" class="cls-5" d="M21.19,43c-.59-1.09-.96-2.28-1.09-3.52-.52-2.66-1.02-3.21-1.31-3.34h-.02s-.01-.02-.02-.03c.33,2.63,.94,5.22,1.82,7.71,.25-.24,.46-.52,.62-.82"/><path id="Path_396" class="cls-10" d="M53.49,35.78v-.08c0-.08,0-.16,0-.25-.03,.18-.05,.34-.07,.49,.03-.05,.05-.1,.06-.16"/><path id="Path_397" class="cls-10" d="M53.25,36.11c.06-.03,.11-.07,.15-.12-.03-.08-.07-.15-.11-.22-.01,.11-.02,.22-.03,.34"/><path id="Path_398" class="cls-10" d="M18.69,36.06s.04,.04,.06,.05v-.05s-.04,0-.06,0"/><path id="Path_399" class="cls-10" d="M18.51,35.69s0,.05,0,.08c.01,.09,.05,.17,.12,.24-.02-.28-.07-.56-.12-.84,0,.19,0,.36,0,.51"/><path id="Path_400" class="cls-10" d="M52.19,34.23c-.21-.28-.43-.57-.66-.88-3.02-.41-6.07-.47-9.1-.19-3.34,.42-5.32,1.44-6.42,1.47-.9-.14-1.79-.36-2.65-.67-3.89,1.13-7.89,1.8-11.93,2.01,.4,1.04,.6,2.15,.59,3.26,.03,1.3-.25,2.59-.82,3.76,.42,.68,1.05,1.19,1.79,1.46,1.07,.38,6.24,1.16,8.87-1.31,.71-.84,1.27-1.79,1.66-2.82,.3-.79,1.09-3.07,1.2-3.41,.1-.57,.58-.99,1.14-.99h.26c.57,0,1.05,.42,1.14,.99,.12,.35,.91,2.62,1.21,3.41,.39,1.03,.95,1.99,1.66,2.82,2.64,2.46,7.81,1.69,8.88,1.31,.74-.27,1.37-.78,1.79-1.46-.57-1.17-.85-2.46-.82-3.76,0-2.61,.97-4.76,2.2-5"/><path id="Path_401" class="cls-10" d="M52.19,34.23c-1.24,.24-2.2,2.39-2.2,5-.03,1.3,.25,2.59,.82,3.76,.59-1.09,.96-2.28,1.08-3.52,.52-2.66,1.02-3.21,1.32-3.34h.02s.01-.02,.02-.03l.04-.34c-.2-.32-.59-.86-1.1-1.54"/><path id="Path_402" class="cls-10" d="M18.79,36.14c.29,.13,.79,.68,1.31,3.34,.13,1.24,.5,2.43,1.09,3.52,.57-1.17,.85-2.46,.82-3.76,.02-1.12-.18-2.22-.59-3.26-1.42,.08-2.38,.08-2.68,.08v.05s.02,.02,.02,.02h.02"/><path id="Path_403" class="cls-7" d="M35.08,10.91c.31,0,.62,0,.92,0,.23,0,.45-.01,.68,0h-1.6Z"/><path id="Path_404" class="cls-7" d="M18.56,33.93v-.04s.03-.04,.05-.06c0-.02,0-.05,0-.08,0-8.2,5.49-21.37,16.86-21.37h1.16c11.37,0,16.76,13.17,16.76,21.37v.08s.05,.03,.05,.06v.04c.01,.12,.03,.43,.04,.78,.04,.04,.08,.08,.12,.12,.2-.91,.33-1.84,.39-2.78-.2-11.99-8.39-20.78-17.99-21.14-9.68,.26-17.58,9.95-17.8,22.05,.02,.62,.09,1.23,.23,1.83,.03-.03,.06-.06,.08-.08,.01-.35,.03-.67,.04-.78"/><path id="Path_405" class="cls-7" d="M53.42,36.03s0,.03,0,.04c.01,0,.01-.02,0-.04"/><path id="Path_406" class="cls-7" d="M53.48,34.71c.01,.24,.02,.5,.02,.73,.03-.19,.06-.4,.1-.61-.04-.04-.08-.08-.12-.12"/><path id="Path_407" class="cls-7" d="M53.4,35.99l.02,.04s0-.07,.01-.1c0,.02-.02,.04-.03,.06"/><path id="Path_408" class="cls-7" d="M18.64,36.07s.01,0,.05,0c-.02-.02-.04-.03-.06-.05,0,.02,0,.04,0,.06"/><path id="Path_409" class="cls-7" d="M18.44,34.8c.03,.13,.05,.26,.07,.38v-.47s-.05,.06-.07,.08"/><path id="Path_410" class="cls-7" d="M18.66,33.78c1.46-.66,7.6-1.03,10.91-.62,1.28,.16,2.54,.43,3.78,.8,4.53-1.35,9.28-3.59,12.92-7.3,0,0,3.13,3.91,5.25,6.69,.62,.07,1.22,.21,1.81,.42h.02s.02,.04,.03,.05v-.07c0-8.2-5.39-21.37-16.76-21.37h-1.16c-11.37,0-16.86,13.17-16.86,21.37,0,.02,0,.05,0,.08,.01-.01,.02-.04,.03-.04h.02"/><path id="Path_411" class="cls-7" d="M53.48,34.71c-.01-.35-.03-.67-.04-.78,0-.01,0-.02,0-.04,0-.03-.03-.04-.05-.06,0,.25,0,.51-.02,.77,.04,.03,.08,.07,.11,.11"/><path id="Path_412" class="cls-7" d="M18.56,33.89v.04c-.01,.12-.03,.43-.04,.78,.04-.04,.07-.08,.11-.11-.01-.26-.02-.52-.02-.77-.02,.02-.04,.03-.05,.06"/><path id="Path_413" class="cls-7" d="M53.37,34.6c-.02,.38-.05,.77-.09,1.17,.04,.07,.08,.14,.12,.22,.01-.02,.02-.04,.03-.06,.02-.15,.04-.31,.07-.49,0-.23,0-.49-.01-.73-.03-.04-.07-.07-.11-.11"/><path id="Path_414" class="cls-7" d="M18.63,34.61s-.07,.07-.11,.11v.47c.04,.28,.09,.56,.11,.83,.02,.02,.04,.03,.06,.05,.02,0,.04,0,.06,0-.06-.51-.1-.99-.12-1.45"/><path id="Path_415" class="cls-7" d="M29.58,33.16c-3.31-.42-9.45-.04-10.91,.62-.01,0-.01,0-.02,.01s-.02,.03-.04,.04c0,.25,0,.51,.02,.77,.26-.25,.6-.39,.95-.4,.74,0,1.4,.69,1.85,1.77,4.04-.21,8.04-.88,11.92-2.01-1.24-.37-2.5-.64-3.78-.8"/><path id="Path_416" class="cls-7" d="M53.36,33.79h-.02c-.59-.22-1.19-.37-1.81-.43,.23,.31,.46,.6,.66,.88,.08-.02,.16-.03,.23-.03,.35,.01,.69,.15,.95,.4,.01-.27,.02-.52,.02-.77-.01-.01-.02-.04-.03-.04h0Z"/><path id="Path_417" class="cls-7" d="M52.19,34.23c.51,.68,.9,1.23,1.1,1.54,.04-.4,.07-.8,.09-1.17-.26-.25-.6-.39-.95-.4-.08,0-.16,0-.23,.03"/><path id="Path_418" class="cls-7" d="M19.58,34.21c-.35,.01-.69,.15-.95,.4,.02,.46,.06,.95,.12,1.45,.3,0,1.26,0,2.68-.09-.45-1.08-1.11-1.77-1.85-1.77"/><path id="Path_419" class="cls-9" d="M21.15,67.95c-.1-.14-.19-.29-.28-.44-.06-.09-.12-.18-.18-.27-.23-.26-.4-.56-.53-.89-.04-.08-.08-.17-.12-.25-.17-.32-.32-.65-.47-.98-.06-.15-.14-.3-.2-.46-.2-.49-.39-.98-.55-1.49l-4.77,1.2v.18c2.47,1.91,5.17,3.48,8.04,4.68-.02-.02-.03-.05-.05-.07-.31-.39-.61-.79-.89-1.2"/><path id="Path_420" class="cls-9" d="M20.17,66.35c.12,.33,.3,.63,.53,.89-.13-.21-.25-.42-.37-.64-.05-.08-.1-.16-.15-.25"/><path id="Path_421" class="cls-9" d="M53.16,63.2c-.12,.39-.26,.78-.41,1.16-.04,.1-.08,.2-.12,.29-.14,.33-.28,.66-.43,.98-.02,.05-.04,.09-.07,.14-.18,.38-.39,.74-.6,1.11-.03,.05-.06,.1-.09,.15-.2,.34-.41,.66-.63,.98-.02,.03-.04,.06-.06,.09-.27,.38-.55,.76-.85,1.12,2.86-1.2,5.57-2.77,8.04-4.68v-.18l-4.78-1.16Z"/><path id="Path_422" class="cls-8" d="M20.73,67.28c.05,.08,.09,.15,.14,.23,.09,.15,.18,.3,.28,.44,.28,.41,.58,.82,.89,1.2l.06,.07c2.2,.92,4.48,1.62,6.82,2.08v-.7c-3.92-.66-6.92-1.86-8.19-3.32"/><path id="Path_423" class="cls-8" d="M19.58,65.11c.15,.33,.3,.66,.47,.98,.03,.06,.06,.11,.09,.16-.05-.18-.08-.37-.08-.56,0-1.01,1.82-1.47,3.22-2.28,.74-.43,.41-1.4,1.45-1.74l-5.9,1.49c.16,.51,.34,1,.54,1.49,.06,.15,.14,.3,.2,.46"/><path id="Path_424" class="cls-8" d="M50.81,68.01c.22-.32,.43-.65,.63-.98,.03-.05,.06-.1,.09-.15,.21-.36,.41-.73,.6-1.11,.03-.05,.05-.09,.07-.14,.16-.32,.3-.65,.44-.98,.04-.1,.08-.19,.12-.29,.15-.38,.29-.77,.41-1.16l-5.92-1.44c2.49,1.12,4.53,2.46,4.53,3.94,0,2.11-3.5,3.95-8.6,4.85v.74c2.3-.47,4.56-1.16,6.73-2.06,.3-.36,.59-.74,.85-1.12,.02-.03,.04-.06,.06-.09"/><path id="Path_425" class="cls-8" d="M43.14,67.35l.02,3.2c5.11-.91,8.6-2.74,8.6-4.85,0-1.48-2.03-2.82-4.53-3.94-.79,2.24-2.22,4.18-4.09,5.59"/><path id="Path_426" class="cls-8" d="M23.28,63.42c-1.4,.82-3.22,1.27-3.22,2.28,0,.19,.03,.38,.08,.56,.06,.11,.12,.23,.18,.34,.13,.23,.27,.46,.41,.68,1.28,1.46,4.28,2.66,8.19,3.32v-3.2c-1.94-1.43-3.4-3.43-4.19-5.73-1.04,.34-.71,1.31-1.45,1.74"/><path id="Path_427" class="cls-8" d="M35.91,71.16c-2.34,0-4.68-.18-6.99-.56v.7c2.33,.46,4.7,.7,7.08,.7,2.4,0,4.8-.24,7.16-.71v-.74c-2.4,.41-4.82,.61-7.25,.61"/><path id="Path_428" class="cls-8" d="M36,69.75c-2.55,0-5.03-.82-7.09-2.35l.02,3.2c2.31,.38,4.65,.57,6.99,.56,2.43,0,4.85-.19,7.25-.6l-.02-3.2c-2.07,1.56-4.57,2.4-7.14,2.39"/><path id="Path_429" class="cls-8" d="M20.05,66.09c.04,.08,.08,.17,.12,.25-.01-.03-.02-.06-.03-.09-.03-.05-.06-.11-.09-.16"/><path id="Path_430" class="cls-8" d="M20.87,67.51c.09,.15,.18,.3,.28,.44-.1-.14-.19-.29-.28-.44"/><path id="Path_431" class="cls-8" d="M22.1,69.22h.01s-.04-.04-.06-.07c.01,.02,.03,.05,.05,.07"/><path id="Path_432" class="cls-8" d="M19.58,65.11c-.06-.15-.14-.3-.2-.46,.06,.15,.14,.3,.2,.46"/><path id="Path_433" class="cls-8" d="M20.14,66.26s.02,.06,.03,.09c.05,.08,.1,.16,.15,.25-.06-.11-.12-.22-.18-.34"/><path id="Path_434" class="cls-8" d="M52.12,65.77c-.18,.38-.38,.74-.6,1.11,.21-.36,.41-.73,.6-1.11"/><path id="Path_435" class="cls-8" d="M51.44,67.02c-.2,.34-.41,.66-.63,.98,.22-.32,.43-.65,.63-.98"/><path id="Path_436" class="cls-8" d="M49.89,69.22h0c.3-.36,.58-.74,.85-1.12-.27,.39-.56,.76-.85,1.12"/><path id="Path_437" class="cls-8" d="M53.16,63.2c-.12,.39-.26,.78-.41,1.16,.15-.38,.29-.77,.41-1.16"/><path id="Path_438" class="cls-8" d="M52.63,64.65c-.14,.33-.28,.66-.44,.98,.16-.32,.3-.65,.44-.98"/><path id="Path_439" class="cls-11" d="M23.6,50.38c-.69-.65-1.34-1.35-1.93-2.09,2.15,5.52,4.53,9.45,7.2,11.21v-2.9c-2.13-1.72-3.91-3.83-5.27-6.21"/><path id="Path_440" class="cls-11" d="M48.52,50.27c-1.38,2.48-3.23,4.67-5.43,6.43v2.84c2.72-1.65,5.1-5.14,7.45-11.51-.62,.8-1.3,1.54-2.03,2.24"/><path id="Path_441" class="cls-11" d="M23.6,50.38c-1.14-1.94-2.1-3.99-2.87-6.12-.07-.13-.14-.26-.21-.39-.06,.05-.12,.1-.19,.14l-.11,.26c.47,1.42,.95,2.76,1.44,4.02,.6,.74,1.24,1.44,1.93,2.09"/><path id="Path_442" class="cls-11" d="M51.4,43.97c-.76,2.19-1.72,4.3-2.88,6.3,.73-.7,1.4-1.44,2.03-2.24,.41-1.11,.82-2.29,1.23-3.58l-.37-.49Z"/><path id="Path_443" class="cls-11" d="M30.36,60.54c1.85-.2,3.7-.3,5.56-.3,2.04,0,3.99,.06,5.79,.24,.12-.13,.25-.26,.37-.4,.36-.16,.71-.34,1.04-.55l-.02-2.83c-2.02,1.61-4.48,2.52-7.04,2.6h0c-2.62-.08-5.15-1.02-7.19-2.7v2.9c.35,.23,.7,.42,1.07,.59,.14,.16,.28,.31,.43,.46"/><path id="Path_444" class="cls-11" d="M30.36,60.55c2.96,3.19,7.89,3.31,11.01,.28,.11-.11,.22-.23,.33-.34-1.79-.18-3.74-.24-5.79-.24-1.86,0-3.71,.1-5.56,.3"/><path id="Path_445" class="cls-11" d="M20.34,44.01c.06-.04,.13-.09,.19-.14-.02-.05-.05-.09-.07-.14l-.12,.28Z"/><path id="Path_446" class="cls-11" d="M23.6,50.38c1.36,2.39,3.14,4.49,5.26,6.21l-.02-2.68c-1.93-.87-3.7-2.07-5.24-3.53"/><path id="Path_447" class="cls-11" d="M48.52,50.27c-1.59,1.54-3.43,2.78-5.44,3.68v2.75c2.21-1.76,4.06-3.95,5.44-6.43"/><path id="Path_448" class="cls-11" d="M28.83,52.15c-.17,.17-.34,.34-.52,.53-2.83-1.19-5.85-5.18-7.58-8.42,.76,2.13,1.72,4.18,2.87,6.12,1.55,1.47,3.32,2.66,5.24,3.53v-1.77Z"/><path id="Path_449" class="cls-11" d="M43.42,52.81c-.12-.15-.23-.3-.35-.44v1.59c2.01-.9,3.85-2.15,5.45-3.68,1.16-2,2.12-4.11,2.88-6.3l-.08-.1c-1.72,3.28-4.84,7.69-7.9,8.94"/><path id="Path_450" class="cls-11" d="M42.18,51.37c-3.92-3.93-8.61-3.93-12.53,0-.05,.05-.13,.12-.23,.22l12.93-.05c-.06-.07-.12-.13-.16-.17"/><path id="Path_451" class="cls-11" d="M36.78,55.45c-.52,.09-1.04,.09-1.56,0-2.2-.1-4.37-.62-6.38-1.54v2.68c2.06,1.67,4.59,2.62,7.21,2.7h0c2.56-.07,5.03-.98,7.04-2.6l-.02-2.75c-1.99,.89-4.13,1.4-6.3,1.5"/><path id="Path_452" class="cls-11" d="M42.34,51.54l-12.93,.05c-.15,.15-.36,.34-.58,.57v1.76c2.02,.91,4.19,1.43,6.39,1.53-1.37-.27-2.64-.91-3.68-1.86,1.23-1.13,2.81-1.81,4.46-1.92,1.66,.11,3.23,.79,4.46,1.92-1.04,.94-2.32,1.58-3.69,1.86,2.17-.1,4.31-.61,6.3-1.5v-1.59c-.29-.34-.56-.63-.74-.83"/></g></g></g></svg>