<?xml version="1.0" encoding="UTF-8"?><svg id="Layer_15" xmlns="http://www.w3.org/2000/svg" xmlns:xlink="http://www.w3.org/1999/xlink" viewBox="0 0 72 72"><defs><style>.cls-1{fill:none;}.cls-2{clip-path:url(#clippath);}.cls-3{fill:#f3d2b3;}.cls-4{fill:#f2f1f1;}.cls-5{fill:#f8dec5;}.cls-6{fill:#017d8d;}.cls-7{fill:#fff;}.cls-8{fill:#e66b5b;}.cls-9{fill:#cca884;}.cls-10{fill:#d4d4c6;}.cls-11{fill:#dfc5ad;}.cls-12{fill:#d7c2af;}.cls-13{fill:#1f0b3a;}.cls-14{fill:#41b5b7;}.cls-15{fill:#2c2c2c;}.cls-16{fill:#4a494a;}.cls-17{fill:#383c3d;}</style><clipPath id="clippath"><rect class="cls-1" width="72" height="72"/></clipPath></defs><g id="Group_450"><g class="cls-2"><g id="Group_449"><path id="Path_904" class="cls-10" d="M72,36c0,19.88-16.12,36-36,36S0,55.88,0,36,16.12,0,36,0s36,16.12,36,36"/><rect id="Rectangle_363" class="cls-16" x="29.84" y="53.41" width="13.55" height="4.56"/><path id="Path_905" class="cls-11" d="M29.26,61.91c.93-5.35,2.8-10.61,2.8-16.04h9.1c0,5.43,1.87,10.7,2.8,16.04-4.86,.85-9.83,.85-14.7,0"/><rect id="Rectangle_364" class="cls-14" x="15.72" y="62.7" width="40.52" height="0"/><path id="Path_906" class="cls-14" d="M33.63,56.85h-12.54l-.03,.02h12.62s-.04-.01-.06-.02"/><path id="Path_907" class="cls-14" d="M20.68,68.55h30.63s-30.65,0-30.65,0h.02"/><path id="Path_908" class="cls-14" d="M39.59,56.85s-.04,.01-.06,.02h11.83l-.03-.02h-11.74Z"/><path id="Path_909" class="cls-7" d="M43.38,53.41c-.17,.87-.67,1.65-1.39,2.17-.7,.55-1.48,.97-2.33,1.25-.02,0-.05,.01-.07,.02h11.74c-2.83-1.61-6.21-2.64-7.96-3.44"/><path id="Path_910" class="cls-7" d="M33.56,56.83c-.84-.28-1.63-.7-2.33-1.25-.71-.53-1.21-1.29-1.41-2.16-1.99,.91-5.9,1.94-8.73,3.43h12.54l-.07-.02"/><path id="Path_911" class="cls-16" d="M36.61,57.35c-1,0-1.98-.17-2.93-.48h-12.62c-1.12,.51-2.09,1.29-2.84,2.27l-2.5,3.57H56.24l-.66-1.82c-.76-1.66-2.37-2.96-4.22-4.01h-11.83c-.94,.31-1.93,.48-2.92,.48"/><path id="Path_912" class="cls-7" d="M14.31,64.73c1.27,.95,2.6,1.82,3.98,2.61,.1,.06,.2,.11,.3,.15,.32,.18,.64,.34,.96,.51,.37,.19,.74,.37,1.12,.55h30.65c.29-.14,.59-.27,.89-.42,.1-.05,.2-.09,.29-.14,.8-.41,1.58-.85,2.34-1.32,.79-.49,1.55-.99,2.29-1.54l-.88-2.43H15.72l-1.41,2.02Z"/><path id="Path_913" class="cls-16" d="M20.92,68.67c.31,.14,.61,.28,.92,.41,.54,.23,1.08,.44,1.64,.65,.18,.06,.35,.14,.53,.2,3.85,1.37,7.9,2.07,11.99,2.07,3.85,0,7.67-.62,11.32-1.84,.09-.03,.18-.06,.27-.1,.67-.23,1.32-.48,1.96-.73,.18-.07,.36-.15,.55-.22,.4-.17,.8-.38,1.19-.56H20.68c.08,.04,.15,.08,.24,.12"/><path id="Path_914" class="cls-15" d="M39.68,30.68c-1.48,1.36-3.19,3.57-2.46,6.48,.37,1.25,.99,2.41,1.83,3.41,1,1.32,2.12,2.46,3.16,3.73,.92,1.02,1.59,2.24,1.96,3.57,.38,1.64,.45,2.23-.15,3.69-.27,.46-.28,1.02-.03,1.48,.33,.7,1.16,1.02,1.88,.71,.26-.13,.45-.37,.52-.65,.06-.3,.02-.61-.12-.89-.23-.46-.77-.66-1.24-.47-.17,.09-.29,.24-.34,.43-.05,.2-.02,.41,.08,.59,.08,.15,.21,.27,.37,.33,.03,.01,.07,.02,.1,.03h0s.07,0,.1,0c.11-.02-.14-.22-.26-.23-.08-.05-.14-.11-.19-.2-.09-.14-.11-.32-.07-.48,.04-.15,.14-.28,.28-.36,.4-.16,.86,.02,1.04,.41,.13,.24,.18,.51,.11,.78-.05,.25-.22,.46-.44,.57-.32,.15-.69,.15-1.01,0-1.07-.69-.7-1.63-.36-2.23,.8-1.29,1.22-2.78,1.19-4.29-.12-2.11-.93-4.12-2.31-5.72-1.28-1.58-3.07-3.23-3.56-5.46-.26-1.02-.29-2.08-.1-3.11,.22-.83,1.09-3.09,.03-2.12"/><path id="Path_915" class="cls-15" d="M53.61,41.19c-1.65-.86-3.24-1.84-4.76-2.92l-9.48-4.92c.11,1.03,3.82,4.69,4.44,5.69,.97,1.45,2.27,2.64,3.78,3.49,1.85,1.19,3.8,2.08,5.69,3.18,1.63,.85,3.02,2.11,4.02,3.66,1.11,1.93,1.87,3.72,1.17,6.19-.1,.53-.61,.88-1.14,.78-.07-.01-.14-.03-.21-.06-.21-.12-.36-.32-.42-.55-.06-.19-.03-.39,.07-.56,.1-.17,.26-.29,.45-.34,.13-.04,.28-.02,.4,.04,.02,.01,.09,.05,.09,.05,.11,.06,.21,.15,.29,.25,.03-.1,.02-.2,0-.3h0v-.02c-.21-.26-.54-.36-.84-.27-.25,.08-.46,.24-.6,.46h0c-.13,.23-.16,.5-.09,.75,.08,.31,.29,.57,.56,.73,.27,.16,.59,.2,.9,.11,.26-.08,.49-.24,.64-.47,.66-1.57,.97-3.27,.89-4.97,.01-1.24-.17-2.48-.53-3.66-.94-2.69-2.83-4.95-5.32-6.33"/><path id="Path_916" class="cls-15" d="M40.12,24.29c-2.39,3.21-4.97,8.09-2.84,13.02,1.01,2.06,2.49,3.87,4.31,5.27,2.21,1.9,4.59,3.42,6.87,5.21,1.99,1.4,3.58,3.3,4.6,5.51,1.14,2.8,1.44,3.83,.7,6.78-.26,1.13-.34,1.88,.34,2.72,.91,1.11,2.55,1.28,3.66,.37,0,0,.01-.01,.02-.02,.44-.35,.72-.87,.78-1.43,.04-.56-.12-1.11-.46-1.56-.62-.72-1.7-.82-2.44-.23-.29,.23-.48,.58-.51,.95-.04,.37,.07,.74,.31,1.03,.2,.23,.48,.38,.78,.41,.07,0,.13,0,.2,0h0c.06,0,.13-.02,.19-.04,.2-.09-.32-.32-.55-.28-.16-.04-.3-.14-.4-.26-.2-.23-.29-.53-.26-.83,.03-.31,.18-.59,.41-.79,.63-.5,1.55-.4,2.05,.22,.32,.38,.47,.87,.42,1.36-.04,.49-.28,.95-.67,1.26-.53,.43-1.21,.61-1.88,.49-2.16-.72-1.73-2.62-1.27-3.87,.93-2.84,1.66-4.92,1.07-8.4-.74-3.7-2.81-6.99-5.83-9.26-2.8-2.23-6.56-4.33-8.07-8.15-.76-1.77-1.1-3.69-1.01-5.61,.25-1.55,.79-3.03,1.59-4.38,1.07-1.97,2.32-3.82,3.75-5.55-2.21,1.75-4.18,3.79-5.85,6.06"/><path id="Path_917" class="cls-16" d="M52.05,22.92c0,8.69-7.04,15.73-15.73,15.73s-15.73-7.04-15.73-15.73c0-8.69,7.04-15.73,15.73-15.73,0,0,0,0,0,0,8.69,0,15.73,7.04,15.73,15.73"/><path id="Path_918" class="cls-5" d="M25.82,31.59c.3,2.54-.53,4.71-1.86,4.85s-2.66-1.81-2.97-4.35,.52-4.71,1.86-4.85,2.66,1.81,2.97,4.35"/><path id="Path_919" class="cls-5" d="M51.94,32.05c-.27,2.54-1.58,4.51-2.91,4.39s-2.19-2.28-1.92-4.83,1.58-4.51,2.91-4.39,2.19,2.28,1.92,4.83"/><path id="Path_920" class="cls-3" d="M49.64,31.66c0,9.03-8.2,18.36-13.15,18.36-5.57,0-13.2-9.33-13.2-18.36s3.4-19.36,13.18-19.36c10.64,0,13.18,10.33,13.18,19.36"/><path id="Path_921" class="cls-16" d="M45.95,13.49s.24,6.61-19.78,14.63c-3.65,1.94-5.68,8.99-.24,13.49-5.91-2.13-12.31-24.37,5.91-33.6,4.02-1.42,14.1,5.48,14.1,5.48"/><path id="Path_922" class="cls-16" d="M39.66,18.23s7.02,9.71,9.79,9.06,1.88-4.57,1.88-4.57l-4-8.57-3.1-1.22-4.57,5.31Z"/><path id="Path_923" class="cls-9" d="M38.42,39.92c-.12-.16-.44-.14-.48-.14-.16,0-.32,.06-.46,.15l-.05,.03c-.25,.16-.54,.25-.83,.27-.3-.02-.59-.11-.84-.27l-.05-.03c-.14-.09-.3-.14-.46-.15-.04,0-.36-.02-.48,.14-.05,.06-.05,.15-.01,.22,.08,.1,.2,.16,.33,.14,.19,0,.39-.03,.57-.1,.28,.17,.6,.27,.93,.28h.02c.33-.02,.65-.11,.94-.28,.18,.07,.37,.1,.56,.1,.13,.02,.25-.04,.33-.14,.04-.07,.04-.15,0-.22"/><path id="Path_924" class="cls-8" d="M35.08,42.11c.49,.21,1,.37,1.53,.47,.41,.01,.49-.26,1.28-.44,.5-.11,1.81,.26,2.59-.44-1.75,3.15-2.37,3.23-3.94,3.25-1.5,.02-2.21-.38-3.86-3.27,.21,.38,1.78,.33,2.41,.43"/><path id="Path_925" class="cls-17" d="M48.99,29.42c-.76-.87-1.87-1.36-3.03-1.32-1.83,.14-7.08,1.71-6.64,3.45,.1,.35,1.15-.48,1.59-.79,.49-.34,4.94-3.19,8.08-1.34"/><path id="Path_926" class="cls-7" d="M46.55,32.6c.05,.39-.82,1.53-2.57,1.57-.87-.01-1.74-.08-2.61-.21-.39,.03-.77,.13-1.12,.29-.21,.2-.81,.22-.5-.31,.58-1.4,1.87-2.38,3.38-2.56,2.25-.17,3.37,.82,3.41,1.21"/><path id="Path_927" class="cls-12" d="M41.41,33.94c.86,.13,1.74,.2,2.61,.21,1.07,.04,2.06-.55,2.55-1.5-.03-.2-.15-.39-.32-.5,0,0,.39,.07,.45,.35,.07,.3-.02,.62-.23,.84-.63,.67-1.52,1.05-2.44,1.03-.72,.03-1.44-.03-2.15-.16-.14-.04-.28-.05-.43-.05-.17,0-.34-.05-.48-.14,.16-.03,.33-.06,.44-.07"/><path id="Path_928" class="cls-6" d="M42.17,32.64c0,.76,.6,1.39,1.36,1.4,.76,0,1.39-.6,1.4-1.36,0-.76-.6-1.39-1.36-1.4,0,0,0,0,0,0-.76,0-1.39,.6-1.4,1.36,0,0,0,0,0,0"/><path id="Path_929" class="cls-13" d="M43.12,32.5c0,.23,.19,.43,.42,.43s.43-.19,.43-.42c0-.23-.18-.42-.41-.43,0,0,0,0,0,0-.23,0-.43,.18-.43,.42,0,0,0,0,0,0"/><path id="Path_930" class="cls-4" d="M43.38,32.38c0,.1,.08,.18,.18,.18,.1,0,.18-.08,.18-.18h0c0-.1-.08-.18-.18-.19-.1,0-.18,.08-.18,.18,0,0,0,0,0,0"/><path id="Path_931" class="cls-4" d="M43.32,32.69s.03,.07,.07,.07c.04,0,.07-.03,.07-.07h0s-.03-.07-.07-.07c-.04,0-.07,.03-.07,.07"/><path id="Path_932" class="cls-4" d="M43.55,32.74s.03,.07,.07,.07,.07-.03,.07-.07c0-.04-.03-.07-.07-.07-.04,0-.07,.03-.07,.07,0,0,0,0,0,0"/><path id="Path_933" class="cls-17" d="M39.53,34.53s2.52-3.86,6.63-2.4c.14,.07,.26,.18,.35,.31,.07,.15,.18,.63-.81,1.37h-.01c-.07,.05-.14,.09-.21,.14,.47-.23,1.05-.03,1.28,.44,0,.02,.02,.04,.03,.06-.05-.38-.35-.67-.73-.71,.03-.02,.07-.05,.1-.08,.42-.03,.81,.21,.98,.6-.04-.43-.43-.75-.86-.7,0,0,0,0,0,0,.06-.06,.13-.13,.18-.19,.49-.05,.96,.22,1.15,.67-.12-.51-.52-.93-1.06-.77,.06-.08,.12-.17,.16-.26h0c.51-.11,1.02,.16,1.22,.64-.12-.55-.57-.99-1.18-.73,.04-.09,.07-.17,.1-.27,.42-.14,.89,.03,1.13,.4-.07-.17-.18-.32-.32-.43,.87-.11,1.55-.8,1.66-1.67-.42,.84-1.27,1.38-2.21,1.42l-.05-.1c1.16,.08,1.67-1.03,1.69-2.11,0,0-.4,1.84-2.1,1.83-.05-.03-.11-.06-.17-.08,1.14-.07,1.64-1.13,1.53-2.19-.09,.89-.67,1.66-1.5,1.98,.81-.36,1.26-1.24,1.09-2.11-.09,.85-.63,1.6-1.41,1.95,.58-.46,.86-1.2,.73-1.93-.09,.84-.6,1.57-1.36,1.94-.02,0-.03-.01-.05-.02,.6-.37,.91-1.07,.78-1.76-.08,.7-.5,1.32-1.12,1.65,.34-.37,.5-.87,.43-1.37-.06,.51-.32,.98-.72,1.31-.05,0-.1-.02-.14-.03,.17-.27,.24-.59,.2-.91-.04,.33-.18,.63-.39,.88-.08-.01-.13-.02-.17-.03,.1-.23,.13-.48,.1-.73-.03,.26-.12,.5-.26,.72-.08,0-.15-.02-.23-.02,.07-.21,.09-.42,.06-.64-.03,.22-.1,.44-.21,.63-.08,0-.16,0-.24,0,.02-.12,.03-.24,.02-.36-.02,.12-.05,.25-.1,.36-.06,0-.12,0-.18,0,.01-.1,.02-.2,0-.3-.01,.1-.04,.21-.08,.3-.06,0-.12,.01-.18,.02,0-.07,0-.14,0-.21,0,.07-.02,.14-.05,.21-.07,0-.14,.02-.21,.03h-.03c0-.06,0-.12,0-.18,0,.06-.02,.13-.04,.19-1.59,.39-2.83,1.65-3.2,3.24m7.32-1.98h0Z"/><path id="Path_934" class="cls-17" d="M23.97,29.42c.76-.87,1.87-1.36,3.03-1.32,1.83,.14,7.08,1.71,6.64,3.45-.1,.35-1.15-.48-1.59-.79-.49-.34-4.94-3.19-8.08-1.34"/><path id="Path_935" class="cls-7" d="M26.41,32.6c-.05,.39,.82,1.53,2.57,1.57,.87-.01,1.75-.08,2.61-.21,.39,.03,.77,.13,1.12,.29,.21,.2,.8,.22,.49-.31-.58-1.4-1.87-2.38-3.38-2.56-2.25-.17-3.37,.82-3.41,1.21"/><path id="Path_936" class="cls-12" d="M31.56,33.94c-.86,.13-1.74,.2-2.61,.21-1.07,.04-2.06-.55-2.55-1.5,.03-.2,.14-.39,.32-.5,0,0-.38,.07-.45,.35-.07,.3,.02,.62,.24,.84,.63,.67,1.52,1.05,2.44,1.03,.72,.03,1.44-.03,2.15-.16,.14-.04,.29-.05,.43-.05,.17,0,.34-.05,.48-.14-.16-.03-.32-.06-.44-.07"/><path id="Path_937" class="cls-6" d="M30.79,32.64c0,.76-.6,1.39-1.36,1.4-.76,0-1.39-.6-1.4-1.36,0-.76,.6-1.39,1.36-1.4,.76,0,1.39,.6,1.4,1.36"/><path id="Path_938" class="cls-13" d="M29.84,32.5c0,.23-.19,.43-.42,.43s-.43-.19-.43-.42c0-.23,.18-.43,.42-.43,.23,0,.43,.19,.43,.42"/><path id="Path_939" class="cls-4" d="M29.58,32.38c0,.1-.08,.18-.18,.18-.1,0-.18-.08-.18-.18h0c0-.1,.08-.18,.18-.19,0,0,0,0,0,0,.1,0,.18,.08,.18,.18,0,0,0,0,0,0"/><path id="Path_940" class="cls-4" d="M29.64,32.69s-.03,.07-.07,.07-.07-.03-.07-.07c0-.04,.03-.07,.07-.07,.04,0,.07,.03,.07,.07"/><path id="Path_941" class="cls-4" d="M29.41,32.74s-.03,.07-.07,.07h0s-.07-.03-.07-.07c0-.04,.03-.07,.06-.07,0,0,0,0,0,0,.04,0,.07,.03,.07,.06,0,0,0,0,0,0"/><path id="Path_942" class="cls-17" d="M30.22,31.29c-.02-.06-.03-.12-.04-.19,0,.06-.01,.12,0,.18h-.02c-.07-.01-.14-.03-.21-.03-.02-.07-.04-.14-.05-.21,0,.07,0,.14,0,.21-.06,0-.12-.01-.18-.02-.04-.1-.06-.2-.08-.3,0,.1,0,.2,0,.3-.06,0-.12,0-.17,0-.05-.12-.09-.24-.1-.36-.01,.12,0,.24,.02,.36-.08,0-.16,0-.24,0-.11-.19-.18-.41-.21-.63-.03,.22,0,.43,.06,.64-.08,0-.15,.02-.23,.02-.14-.22-.23-.46-.26-.72-.03,.25,0,.5,.1,.73-.04,0-.1,.01-.17,.03-.21-.25-.35-.55-.39-.88-.04,.32,.03,.64,.2,.91-.04,0-.09,.02-.14,.03-.4-.33-.66-.8-.72-1.31-.07,.5,.08,1,.43,1.37-.63-.33-1.05-.95-1.12-1.65-.13,.69,.18,1.39,.78,1.76-.02,0-.03,0-.05,.02-.76-.37-1.27-1.1-1.36-1.94-.12,.73,.16,1.47,.73,1.93-.78-.36-1.31-1.1-1.4-1.95-.17,.87,.28,1.74,1.09,2.11-.84-.32-1.42-1.09-1.51-1.98-.11,1.06,.39,2.12,1.53,2.19-.06,.03-.11,.05-.16,.08-1.69,.01-2.09-1.83-2.09-1.83,.01,1.08,.53,2.19,1.69,2.11l-.06,.1c-.94-.04-1.79-.58-2.21-1.42,.11,.87,.79,1.56,1.66,1.67-.14,.11-.25,.26-.32,.43,.24-.37,.71-.54,1.13-.4,.02,.09,.05,.18,.09,.27-.61-.26-1.06,.18-1.18,.73,.2-.48,.71-.75,1.22-.65h0c.05,.1,.1,.19,.17,.27-.47-.1-.94,.19-1.04,.66,0,.04-.01,.07-.02,.11,.19-.45,.66-.72,1.15-.67,.06,.07,.12,.13,.18,.2-.43-.05-.82,.27-.86,.7,0,0,0,0,0,0,.17-.39,.56-.62,.98-.6,.04,.03,.07,.06,.1,.08-.38,.04-.68,.33-.73,.71,.2-.49,.76-.72,1.25-.52,.02,0,.04,.02,.06,.03-.07-.05-.14-.09-.21-.13h-.01c-.98-.74-.88-1.23-.81-1.38,.09-.13,.21-.23,.35-.31,4.11-1.46,6.62,2.4,6.62,2.4-.37-1.6-1.61-2.86-3.21-3.24m-4.12,1.26h0Z"/></g></g></g></svg>