<?xml version="1.0" encoding="UTF-8"?><svg id="Layer_23" xmlns="http://www.w3.org/2000/svg" xmlns:xlink="http://www.w3.org/1999/xlink" viewBox="0 0 72 72"><defs><style>.cls-1{fill:none;}.cls-2{clip-path:url(#clippath);}.cls-3{fill:#f2f1f1;}.cls-4{fill:#fff;}.cls-5{fill:#fbb316;}.cls-6{fill:#fcd8b0;}.cls-7{fill:#e66b5b;}.cls-8{fill:#b6463c;}.cls-9{fill:#8cc4c6;}.cls-10{fill:#a5c674;}.cls-11{fill:#cca884;}.cls-12{fill:#d7c2af;}.cls-13{fill:#1f0b3a;}.cls-14{fill:#111;}.cls-15{fill:#4a494a;}.cls-16{fill:#383c3d;}</style><clipPath id="clippath"><rect class="cls-1" width="72" height="72"/></clipPath></defs><g id="Group_486"><g class="cls-2"><g id="Group_485"><path id="Path_2013" class="cls-9" d="M72,36c0,19.88-16.12,36-36,36S0,55.88,0,36,16.12,0,36,0s36,16.12,36,36"/><path id="Path_2014" class="cls-8" d="M56.7,29.22c.17,1.33,.25,2.67,.25,4.02-.03,2.25-.52,4.46-1.44,6.49-.63,3-1.89,5.81-3.7,8.24,9.9-3.55,17.34-8.05,20.18-12.23,0-.82-.04-1.64-.1-2.45-2.31-2.36-7.37-3.75-14.07-4.05-.36-.02-.75-.02-1.12-.03"/><path id="Path_2015" class="cls-8" d="M3.99,39.99c-.27,.22-.53,.44-.77,.66,.25-.22,.5-.44,.77-.66"/><path id="Path_2016" class="cls-8" d="M71.2,28.43h0s-.09-.08-.14-.11c.05,.04,.1,.07,.14,.11"/><path id="Path_2017" class="cls-8" d="M2.39,41.44c.2-.2,.41-.4,.63-.6-.22,.2-.43,.4-.63,.6"/><path id="Path_2018" class="cls-8" d="M4.14,39.87c.46-.37,.95-.74,1.47-1.11h0c-.51,.37-1,.74-1.46,1.11"/><path id="Path_2019" class="cls-8" d="M57.35,24.98c1.65,.06,3.2,.19,4.65,.37-1.44-.19-3-.31-4.65-.37"/><path id="Path_2020" class="cls-8" d="M62,25.35c.46,.06,.91,.13,1.34,.2-.44-.07-.89-.14-1.34-.2"/><path id="Path_2021" class="cls-8" d="M2.19,41.65c-.2,.2-.39,.41-.56,.62,.18-.21,.36-.41,.56-.62"/><path id="Path_2022" class="cls-8" d="M70.27,27.8c.18,.11,.37,.22,.54,.34-.17-.12-.35-.23-.54-.34"/><path id="Path_2023" class="cls-8" d="M67.23,26.47c.32,.1,.62,.21,.91,.32-.29-.11-.6-.22-.91-.32"/><path id="Path_2024" class="cls-8" d="M68.26,26.83c.62,.24,1.22,.52,1.8,.84-.58-.32-1.18-.61-1.8-.84"/><path id="Path_2025" class="cls-8" d="M66.11,26.14c.31,.08,.6,.17,.9,.26-.29-.09-.59-.18-.9-.26"/><path id="Path_2026" class="cls-8" d="M1.47,42.43c-.22,.26-.42,.52-.61,.77,.18-.25,.39-.51,.61-.77"/><path id="Path_2027" class="cls-8" d="M64.88,25.85c.33,.07,.65,.15,.96,.23-.31-.08-.63-.15-.96-.23"/><path id="Path_2028" class="cls-8" d="M24.38,53.94c-.27-.19-.54-.38-.82-.59h.02c-4.44-2.75-7.72-7.12-9.18-12.26-.42-.82-.78-1.66-1.08-2.53-.09,.04-.19,.08-.27,.13-5.2,2.5-9.19,5.22-11.47,7.87,.58,1.89,1.32,3.73,2.2,5.5,4.39,1.93,11.77,2.62,20.6,1.88"/><path id="Path_2029" class="cls-8" d="M.76,43.37H.76c.04-.05,.07-.11,.11-.16-.04,.05-.07,.11-.11,.16"/><path id="Path_2030" class="cls-8" d="M63.54,25.59c.37,.06,.74,.13,1.09,.21-.35-.07-.72-.14-1.09-.21"/><path id="Path_2031" class="cls-15" d="M13.32,38.57c.3,.87,.66,1.71,1.08,2.52-.25-.9-.44-1.83-.58-2.76-.17,.08-.34,.15-.5,.23"/><path id="Path_2032" class="cls-15" d="M54.84,29.18c.77,1.97,1.15,4.08,1.12,6.21,0,1.45-.15,2.9-.45,4.33,.92-2.03,1.41-4.25,1.44-6.49,0-1.34-.08-2.68-.25-4.01-.61-.02-1.22-.03-1.86-.03"/><path id="Path_2033" class="cls-14" d="M31.06,70.58c.47-.47,.9-.98,1.28-1.52h-2.49c.13,.63,.48,1.18,.99,1.55,.03,.03,.07,.05,.11,.07,.03-.03,.07-.07,.1-.1h0Z"/><path id="Path_2034" class="cls-14" d="M38.51,70.58s.04,.04,.06,.06c.32-.24,.59-.53,.81-.86h0c.06-.12,.12-.22,.16-.34,.01-.03,.02-.05,.03-.08,.03-.08,.04-.16,.06-.24,0-.02,.01-.04,.02-.06h-2.47c.41,.53,.86,1.04,1.33,1.51h0Z"/><path id="Path_2035" class="cls-6" d="M49.26,39.79c.05-.08,.09-.16,.11-.25,0-.05,.01-.1,0-.15h0c0,.14-.05,.28-.12,.41m-29.62-.49h0Zm-.35-.3l.08-.15c-1.13,.06-2.13-.77-2.3-1.92-.27,.11-.53,.22-.8,.34,.65,1.08,1.79,1.74,3.02,1.74m.88-.99c-.75-.28-1.3-.93-1.48-1.73-.11,.04-.22,.08-.33,.13,.35,.78,1.01,1.36,1.81,1.6m29.65,1.3h0Zm5.02-10.11c-7.14,.09-14.24,.96-21.21,2.58-2.8,.64-5.51,1.36-8.09,2.14,2.76,.95,5.45,2.39,5.06,3.93-.14,.5-1.68-.7-2.31-1.14-1.42-.94-2.95-1.68-4.55-2.21-1.09,.35-2.16,.72-3.19,1.09,.18,.9,.75,1.65,1.56,2.04-.5-.53-.73-1.27-.62-1.99,.09,.76,.47,1.44,1.05,1.91l.2-.04c-.25-.39-.35-.87-.29-1.33,.06,.47,.26,.92,.57,1.28l.25-.04c-.14-.34-.19-.7-.15-1.07,.05,.38,.18,.73,.38,1.05,.11-.02,.22-.03,.33-.04-.1-.3-.13-.62-.09-.93,.04,.32,.15,.64,.31,.92,.12,0,.23,0,.35,0-.04-.17-.05-.35-.03-.52,.02,.18,.08,.36,.15,.52,.08,0,.17,0,.26,.01-.02-.14-.02-.29,0-.43,.02,.15,.06,.3,.11,.44,.09,0,.18,.02,.27,.03,0-.1,0-.2,0-.3,.01,.11,.04,.21,.07,.31,.1,.01,.2,.03,.3,.05,.01,0,.02,0,.03,0,0-.09,0-.17,0-.26,.01,.09,.03,.18,.06,.27,2.3,.53,4.11,2.35,4.67,4.72,0,0-.09-.14-.26-.35-.15,.19-.59,.12-.79-.07-.32-.18-.68-.29-1.04-.33-.21,.13-.45,.2-.69,.2-.21,0-.42,.02-.63,.07-1.03,.2-2.08,.28-3.12,.24-.94,0-1.87-.26-2.67-.76-.57,0-1.1,.33-1.35,.87,.08-.56,.52-.99,1.07-1.04-.04-.04-.1-.07-.15-.12-.6-.05-1.17,.3-1.43,.87,.08-.64,.64-1.1,1.26-1.02-.09-.09-.18-.18-.26-.28-.7-.09-1.38,.3-1.67,.97,.08-.72,.7-1.23,1.39-1.15,.05,0,.11,.02,.16,.03-.03-.03-.04-.07-.07-.1,0,0-.01-.02-.02-.03-.06-.08-.11-.17-.16-.26,0,0,0,0,0-.01-.73-.15-1.47,.24-1.77,.95,.07-.71,.68-1.22,1.36-1.15,.12,.01,.24,.04,.35,.09-.06-.12-.11-.25-.14-.39-.61-.2-1.28,.03-1.64,.58,.1-.25,.26-.47,.47-.63-1.12-.11-2.05-.94-2.31-2.07-.8,.34-1.59,.69-2.35,1.04,.13,.93,.32,1.85,.58,2.76,1.46,5.14,4.73,9.52,9.18,12.27h-.02c.28,.21,.55,.4,.82,.59,5.1,3.53,8.82,3.23,9.17,9.39,.16,2.8-.23,4.32-1.21,5.72-.39,.54-.82,1.05-1.28,1.52h0s-.07,.07-.1,.1c.47,.36,1,.64,1.55,.83h0c.71,.24,1.46,.37,2.21,.37,.8,0,1.59-.14,2.34-.41h0c.54-.19,1.05-.47,1.51-.82-.02-.02-.04-.04-.06-.06h0c-.47-.48-.92-.99-1.33-1.52-1.05-1.4-1.55-2.92-1.17-5.72,.88-6.44,4.48-5.81,9.99-9.98h-.02c2.25-1.4,4.22-3.23,5.82-5.39,2.68-3.61,4.14-8.03,4.14-12.57,.03-2.13-.35-4.24-1.12-6.21m-6.32,3.64c1.67-.06,3.28,.64,4.41,1.92-4.57-2.7-11.04,1.45-11.75,1.95-.64,.44-2.17,1.64-2.31,1.14-.64-2.52,7-4.81,9.66-5.01m-16.28,14.57c.17-.22,.64-.21,.69-.21,.24,.02,.47,.09,.67,.22l.07,.04c.37,.23,.79,.37,1.22,.4,.43-.03,.85-.16,1.22-.4l.07-.04c.2-.13,.44-.2,.67-.22,.05,0,.52-.02,.7,.21,.07,.09,.08,.22,.01,.32-.11,.15-.3,.23-.48,.2-.28,0-.56-.04-.82-.14-.41,.25-.88,.39-1.36,.42h-.03c-.48-.02-.95-.17-1.36-.42-.26,.1-.54,.15-.82,.14-.18,.03-.37-.05-.48-.2-.06-.1-.06-.23,.02-.32m7.44,4.12c-1.91,3.09-2.85,3.18-4.86,3.21-1.36,.14-2.69-.47-3.52-1.59-.79-.99-1.49-2.05-2.09-3.16,.3,.55,2.59,.48,3.5,.63,1.14,.31,1.56,.67,2.22,.68,.59,.02,.7-.39,1.86-.65,.72-.17,2.63,.38,3.78-.63-.32,.57-.61,1.08-.89,1.52m11.3-12.15c.21,.16,.37,.38,.47,.63-.37-.55-1.04-.78-1.65-.58-.03,.13-.08,.26-.14,.39,.63-.27,1.36,.04,1.63,.7,.05,.12,.08,.24,.09,.36-.31-.7-1.04-1.1-1.77-.95,0,0,0,0,0,.01-.05,.09-.1,.18-.16,.26l-.02,.03s-.04,.07-.06,.1c.67-.17,1.36,.25,1.52,.95,.01,.06,.02,.11,.03,.17-.29-.67-.97-1.06-1.67-.97-.08,.1-.17,.19-.26,.28,.62-.07,1.18,.38,1.26,1.02-.25-.57-.82-.91-1.42-.87-.05,.05-.11,.08-.15,.12,.55,.05,.99,.48,1.06,1.04-.25-.54-.77-.88-1.35-.87-.81,.5-1.73,.76-2.67,.76-1.05,.04-2.09-.04-3.12-.24-.2-.05-.42-.08-.63-.07-.24,0-.48-.07-.69-.2-.36,.04-.72,.15-1.04,.33-.2,.19-.64,.26-.79,.07-.16,.21-.26,.35-.26,.35,.56-2.36,2.37-4.19,4.67-4.72,.03-.09,.05-.18,.06-.27,0,.09,.01,.17,0,.26,.01,0,.02,0,.03,0,.1-.02,.2-.03,.3-.05,.03-.1,.05-.21,.07-.31,.01,.1,.01,.2,0,.3,.09,0,.17-.02,.26-.03,.05-.14,.09-.29,.11-.44,.02,.14,.01,.29,0,.43,.09,0,.17,0,.26-.01,.07-.17,.12-.34,.15-.52,.02,.17,0,.35-.03,.52,.12,0,.23,0,.35,0,.16-.28,.27-.59,.31-.92,.04,.31,0,.63-.09,.93,.11,0,.22,.02,.33,.04,.2-.31,.33-.67,.38-1.05,.04,.36,0,.73-.14,1.07l.25,.04c.31-.36,.51-.8,.57-1.28,.06,.46-.04,.94-.29,1.33,.07,.01,.13,.03,.2,.04,.58-.47,.96-1.16,1.05-1.91,.11,.73-.12,1.47-.62,1.99,.9-.47,1.51-1.37,1.63-2.4,.18,1.02-.28,2.04-1.14,2.56,.02,0,.05,.01,.07,.02,1.1-.51,1.85-1.59,1.98-2.83,.17,1.07-.24,2.15-1.07,2.81,1.82-.64,2.04-2.84,2.04-2.84,.24,1.28-.42,2.56-1.58,3.06,1.97-.56,2.2-2.89,2.2-2.89,.16,1.55-.58,3.09-2.23,3.19,.08,.04,.16,.08,.24,.12,2.46,.02,3.05-2.66,3.05-2.66-.02,1.57-.78,3.19-2.46,3.07l.08,.15c2.1,.13,3.22-2.07,3.22-2.07-.17,1.28-1.17,2.28-2.42,2.43m-31.01-.93c.08-.04,.16-.08,.24-.12-1.01-.05-1.87-.78-2.1-1.8-.26,.1-.52,.2-.77,.3,.51,1.01,1.53,1.64,2.63,1.62m29.31,.65c-.05-.07-.11-.14-.18-.19,.13,.12,.22,.28,.28,.45-.02-.09-.05-.18-.1-.26m-28.64-1.31c-.59-.43-.97-1.1-1.05-1.84-.21,.08-.42,.16-.63,.24,.32,.75,.93,1.33,1.68,1.6m.91,0s.05-.01,.07-.02c-.75-.43-1.2-1.27-1.16-2.16-.22,.08-.45,.17-.67,.25,.28,.88,.92,1.59,1.76,1.93m-1.46,1.59c0,.05,0,.11,0,.16,.03,.09,.07,.18,.12,.26-.08-.13-.12-.27-.12-.42h0m.1-.28c-.05,.08-.08,.17-.1,.26,.05-.18,.15-.34,.28-.46-.07,.06-.13,.12-.18,.19"/><path id="Path_2036" class="cls-15" d="M39.66,69.07s0,0-.01,0h0s-.01,.05-.02,.07c-.01,.08-.03,.16-.06,.24,0,.03-.02,.05-.03,.08-.04,.11-.1,.22-.16,.32h0c-.22,.35-.49,.64-.81,.88-.46,.35-.97,.63-1.51,.82h0c-.75,.27-1.55,.41-2.34,.41-.75,0-1.5-.12-2.21-.37h0c-.56-.19-1.08-.47-1.55-.83-.03-.03-.08-.05-.11-.07-.51-.37-.87-.92-.99-1.55h-.02c-1.13,.52-2.45,1.12-3.55,1.6,.99,.27,2,.51,3.02,.71,.3,.06,.61,.11,.92,.16,1.91,.31,3.84,.47,5.77,.47,1.19,0,2.37-.06,3.53-.17,.15-.01,.29-.03,.44-.05,1.4-.16,2.79-.39,4.16-.71-1.19-.51-3-1.32-4.47-2"/><path id="Path_2037" class="cls-11" d="M32.7,47.91c.28,0,.56-.04,.82-.14,.41,.25,.88,.39,1.36,.42h.03c.48-.03,.94-.17,1.36-.42,.26,.1,.54,.15,.82,.14,.18,.03,.37-.05,.48-.2,.06-.1,.06-.23-.01-.32-.17-.22-.64-.21-.7-.21-.24,.02-.47,.09-.67,.22l-.07,.04c-.37,.23-.79,.37-1.22,.4-.43-.03-.85-.16-1.22-.4l-.07-.04c-.2-.13-.43-.2-.67-.22-.05,0-.52-.02-.69,.21-.07,.09-.08,.22-.02,.32,.11,.15,.3,.23,.48,.2"/><path id="Path_2038" class="cls-7" d="M34.81,54.72c2.01-.03,2.95-.12,4.86-3.21-.2,.05-.39,.09-.59,.14-2.65,.6-5.26,1.09-7.79,1.48,.83,1.13,2.16,1.73,3.52,1.59"/><path id="Path_2039" class="cls-7" d="M39.67,51.51c.28-.44,.57-.95,.89-1.52-1.14,1.02-3.05,.47-3.78,.63-1.15,.26-1.26,.66-1.86,.65-.67,0-1.08-.36-2.22-.68-.91-.16-3.2-.08-3.5-.63,.61,1.12,1.31,2.17,2.09,3.16,2.53-.39,5.14-.88,7.79-1.48,.2-.05,.39-.09,.59-.14"/><path id="Path_2040" class="cls-16" d="M41.17,36.7c.71-.5,7.18-4.65,11.75-1.95-1.12-1.28-2.74-1.98-4.41-1.92-2.66,.21-10.3,2.49-9.66,5.01,.14,.5,1.68-.7,2.31-1.14"/><path id="Path_2041" class="cls-4" d="M41.89,41.32c.52-.08,1.24,.36,3.8,.31,1.4,0,2.73-.68,3.57-1.84,.07-.13,.11-.27,.12-.41,0,0,0-.02,0-.03-.05-.17-.15-.33-.28-.45-.09-.07-.19-.14-.29-.2-.71-.26-1.45-.41-2.21-.46,.28,.35,.42,.79,.42,1.25-.05,1.15-.99,2.04-2.1,1.98-1.06-.05-1.9-.94-1.92-2.04,0-.19,.04-.37,.09-.55-1.43,.67-2.69,1.68-3.67,2.95,.15,.19,.59,.12,.79-.07,.32-.18,.68-.29,1.04-.33h0c.24-.05,.48-.09,.65-.11"/><path id="Path_2042" class="cls-12" d="M49.37,39.36c0-.08-.03-.15-.06-.22-.01-.02-.03-.04-.05-.05,.05,.08,.08,.17,.1,.26h0"/><path id="Path_2043" class="cls-12" d="M49.43,40.18l-.02,.03,.02-.03"/><path id="Path_2045" class="cls-12" d="M48.13,41.14s0,0,.02-.01c.94-.7,1.19-1.24,1.23-1.6-.02,.09-.06,.18-.11,.25-.81,1.23-2.18,1.94-3.62,1.86-2.55,.05-3.27-.39-3.8-.31-.16,.02-.37,.06-.59,.1,.21,.13,.44,.2,.69,.2,.21,0,.42,.02,.63,.07,1.03,.2,2.07,.28,3.12,.24,.94,0,1.87-.26,2.67-.76-.19,.02-.37,.06-.55,.15,.1-.07,.2-.13,.31-.19"/><path id="Path_2046" class="cls-12" d="M45.64,41.64c1.44,.08,2.81-.63,3.62-1.86-.84,1.16-2.17,1.84-3.57,1.84-2.55,.06-3.27-.39-3.8-.31-.17,.02-.41,.06-.65,.11h0c.22-.03,.43-.07,.59-.09,.52-.08,1.24,.36,3.8,.31"/><path id="Path_2047" class="cls-12" d="M49.38,39.37h0s0-.02,0-.02c0,0,0,.02,0,.03"/><path id="Path_2048" class="cls-10" d="M43.09,38.88c-.06,.18-.09,.36-.09,.55,.03,1.15,.95,2.06,2.06,2.03,1.05-.03,1.9-.89,1.96-1.98,0-.45-.15-.89-.42-1.24-1.2-.08-2.4,.15-3.5,.65m1.9,.96c-.33-.02-.58-.31-.57-.65,.02-.34,.3-.6,.62-.59,.32,.02,.57,.29,.57,.62,0,.35-.29,.62-.62,.61,0,0,0,0,0,0"/><path id="Path_2049" class="cls-13" d="M45.01,38.61c-.33,0-.59,.29-.58,.63,0,.34,.28,.61,.61,.6,.32,0,.58-.28,.58-.61,0-.35-.27-.62-.61-.62,0,0,0,0,0,0m-.24,.99c-.05,0-.1-.04-.1-.1,0,0,0,0,0,0,0-.06,.05-.1,.11-.09,.05,0,.09,.04,.09,.09,0,.05-.04,.1-.1,.1,0,0,0,0,0,0m.34,.07c-.05,0-.1-.04-.1-.1s.04-.1,.1-.1c.05,0,.1,.04,.1,.1,0,0,0,0,0,0,0,.05-.04,.1-.1,.1,0,0,0,0,0,0m-.08-.36c-.14,0-.25-.12-.25-.27,0-.15,.12-.26,.26-.26h0c.14,0,.25,.12,.25,.27,0,.15-.12,.26-.26,.26"/><path id="Path_2050" class="cls-3" d="M45.04,38.79c-.14,0-.26,.11-.26,.26s.11,.27,.25,.27,.26-.11,.26-.26-.11-.27-.25-.27"/><path id="Path_2051" class="cls-3" d="M44.77,39.4c-.05,0-.1,.04-.1,.1,0,.06,.04,.1,.1,.11,.06,0,.1-.04,.1-.1,0-.06-.04-.1-.1-.1"/><path id="Path_2052" class="cls-3" d="M45.11,39.48c-.05,0-.1,.04-.1,.1s.04,.1,.1,.1,.1-.04,.1-.1-.04-.1-.1-.1h0"/><path id="Path_2053" class="cls-16" d="M50.17,39l-.08-.15c1.68,.12,2.44-1.5,2.46-3.07,0,0-.59,2.68-3.05,2.66-.08-.04-.16-.08-.24-.12,1.65-.11,2.38-1.64,2.23-3.19,0,0-.23,2.33-2.2,2.89,1.17-.5,1.83-1.79,1.58-3.07,0,0-.22,2.2-2.04,2.84,.83-.66,1.24-1.74,1.07-2.81-.13,1.23-.89,2.31-1.98,2.82-.02,0-.05-.01-.07-.02,.86-.52,1.32-1.54,1.14-2.56-.11,1.04-.73,1.94-1.63,2.4,.5-.53,.73-1.26,.62-1.99-.09,.76-.47,1.44-1.05,1.92-.07-.01-.14-.03-.2-.04,.25-.39,.35-.87,.28-1.33-.06,.48-.26,.92-.57,1.28-.11-.01-.19-.03-.25-.04,.14-.34,.19-.7,.14-1.07-.05,.38-.18,.73-.38,1.05-.11-.02-.22-.03-.33-.04,.1-.3,.13-.62,.09-.93-.04,.32-.15,.64-.31,.92-.11,0-.23,0-.35,0,.03-.17,.04-.35,.03-.52-.03,.18-.08,.36-.15,.52-.08,0-.17,0-.26,.01,.02-.14,.03-.29,0-.43-.02,.15-.06,.3-.11,.44-.09,0-.18,.02-.26,.03,0-.1,0-.2,0-.3-.01,.11-.04,.21-.07,.31-.1,.01-.2,.03-.3,.05h-.03c0-.08,0-.17,0-.25-.01,.09-.03,.18-.06,.27-2.3,.53-4.11,2.35-4.67,4.72,0,0,.09-.14,.26-.35-.07-.1-.08-.26,.07-.51,.44-.74,1.59-3.33,4.68-3.69,.53-.25,1.13-.26,1.66-.02,1.2,.02,2.35,.47,3.26,1.28,.07,.06,.13,.12,.18,.19-.09-.14-.21-.27-.34-.37,0,0,.56,.1,.65,.51,.08,.32,.03,.67-.15,.95,.06-.08,.11-.17,.16-.26,0,0,0,0,0-.01,.73-.15,1.47,.24,1.77,.95-.07-.71-.68-1.22-1.36-1.15-.12,.01-.24,.04-.35,.09,.06-.12,.11-.25,.14-.39,.61-.2,1.28,.03,1.65,.58-.1-.25-.26-.47-.47-.63,1.25-.14,2.24-1.14,2.41-2.43,0,0-1.12,2.2-3.22,2.07m-.35,.3h0"/><path id="Path_2054" class="cls-16" d="M49.37,39.53s.02-.05,.03-.08c0-.02-.01-.05-.02-.07,0,.05,0,.1,0,.15"/><path id="Path_2055" class="cls-16" d="M48.37,41.18c.57,0,1.1,.33,1.35,.87-.08-.56-.52-.99-1.06-1.04,.04-.03,.09-.07,.15-.12,.6-.05,1.17,.3,1.43,.87-.08-.64-.64-1.1-1.26-1.02,.09-.09,.18-.18,.26-.28,.7-.09,1.38,.3,1.67,.97-.08-.71-.7-1.23-1.39-1.15-.05,0-.11,.02-.16,.03,.02-.03,.04-.07,.06-.1-.05,.08-.11,.17-.17,.24-.26,.29-.55,.53-.88,.73"/><path id="Path_2056" class="cls-16" d="M43.1,38.88c.17-.56,.56-1.01,1.08-1.25-3.09,.35-4.24,2.94-4.68,3.68-.15,.26-.15,.42-.07,.51,.98-1.27,2.24-2.28,3.67-2.95"/><path id="Path_2057" class="cls-16" d="M46.6,38.23c.75,.05,1.5,.21,2.21,.46,.1,.06,.2,.12,.29,.2-.91-.81-2.06-1.26-3.26-1.28,.3,.14,.56,.35,.77,.61"/><path id="Path_2058" class="cls-16" d="M49.58,39.23c-.08-.41-.65-.51-.65-.51,.13,.1,.25,.23,.34,.37,.02,.02,.03,.03,.05,.05,.03,.07,.05,.15,.06,.22h0v.02s.01,.05,.02,.07c0,.03-.01,.06-.03,.08-.03,.35-.29,.89-1.23,1.6,0,0-.01,0-.02,.01-.11,.05-.21,.11-.31,.19,.17-.08,.36-.13,.55-.15,.32-.2,.62-.45,.88-.73,.06-.08,.12-.16,.17-.24,0,0,.01-.02,.02-.03,.17-.28,.23-.62,.15-.95"/><path id="Path_2060" class="cls-16" d="M45.83,37.62c-.53-.24-1.14-.23-1.66,.02,.08,0,.15-.03,.24-.03,.47-.03,.95-.03,1.42,.01"/><path id="Path_2061" class="cls-16" d="M43.1,38.88c1.1-.5,2.3-.73,3.5-.65-.2-.27-.46-.48-.76-.61-.47-.04-.95-.05-1.43-.01-.08,0-.16,.02-.24,.03-.52,.23-.91,.69-1.08,1.25"/><path id="Path_2062" class="cls-16" d="M28.29,36.7c.64,.44,2.17,1.65,2.31,1.14,.39-1.54-2.29-2.98-5.06-3.93-.61,.19-1.21,.38-1.81,.58,1.6,.53,3.13,1.28,4.55,2.21"/><path id="Path_2063" class="cls-4" d="M26.36,38.88c.06,.18,.09,.36,.09,.55-.03,1.15-.95,2.06-2.06,2.03-1.05-.03-1.9-.89-1.96-1.98,0-.45,.15-.89,.42-1.24-.75,.05-1.5,.21-2.21,.46-.1,.06-.2,.12-.29,.2-.13,.12-.23,.28-.28,.46v.02c0,.15,.04,.3,.11,.42,.84,1.16,2.17,1.84,3.57,1.84,2.55,.06,3.27-.39,3.8-.31,.17,.02,.4,.06,.65,.11h0c.36,.04,.72,.15,1.04,.33,.2,.19,.65,.27,.79,.07-.98-1.27-2.25-2.28-3.68-2.95"/><path id="Path_2064" class="cls-12" d="M20.04,40.21l-.02-.03s.01,.02,.02,.03"/><path id="Path_2066" class="cls-12" d="M23.82,41.64c-1.44,.08-2.81-.62-3.62-1.85-.05-.08-.09-.16-.12-.26,.04,.35,.29,.89,1.23,1.6,0,0,.01,0,.02,.01,.11,.05,.21,.12,.31,.19-.17-.08-.36-.13-.55-.15,.81,.5,1.73,.76,2.67,.76,1.05,.04,2.09-.04,3.12-.24,.2-.05,.42-.08,.63-.07,.24,0,.48-.07,.69-.2-.22-.04-.43-.07-.59-.1-.52-.08-1.24,.36-3.79,.31"/><path id="Path_2067" class="cls-12" d="M20.08,39.36h0c.02-.1,.05-.19,.1-.27-.01,.02-.03,.03-.05,.05-.03,.07-.05,.15-.06,.23"/><path id="Path_2068" class="cls-12" d="M27.57,41.32c-.52-.08-1.24,.36-3.8,.31-1.4,0-2.72-.68-3.57-1.84,.81,1.23,2.18,1.93,3.62,1.85,2.55,.05,3.28-.39,3.79-.31,.16,.02,.37,.06,.59,.1h0c-.24-.05-.48-.09-.65-.11"/><path id="Path_2069" class="cls-12" d="M20.08,39.36h0v-.02s0,.01,0,.01h0Z"/><path id="Path_2070" class="cls-10" d="M22.86,38.23c-.28,.35-.43,.79-.42,1.25,.05,1.15,.99,2.04,2.1,1.98,1.06-.05,1.9-.94,1.92-2.04,0-.19-.04-.37-.09-.55-1.1-.5-2.3-.72-3.5-.65m1.59,.38c.33,0,.59,.29,.58,.63,0,.34-.28,.61-.61,.6-.32,0-.58-.28-.58-.61,0-.35,.28-.62,.61-.62"/><path id="Path_2071" class="cls-13" d="M24.46,39.84c.33-.02,.58-.31,.57-.65-.02-.34-.3-.6-.62-.59-.32,.02-.57,.29-.57,.62,0,.35,.29,.62,.62,.61,0,0,0,0,0,0m-.11-.17c-.05,0-.1-.04-.1-.1,0,0,0,0,0,0,0-.05,.04-.1,.09-.1,0,0,0,0,0,0,.05,0,.1,.04,.1,.1s-.04,.1-.1,.1m.44-.18c0,.06-.04,.1-.1,.1,0,0,0,0,0,0-.05,0-.1-.04-.1-.09,0,0,0,0,0,0,0-.06,.04-.1,.1-.1,.05,0,.1,.04,.1,.1m-.37-.71c.14,0,.25,.12,.25,.27s-.12,.26-.26,.26c-.14,0-.25-.12-.25-.26,0-.15,.12-.27,.26-.27"/><path id="Path_2072" class="cls-3" d="M24.43,39.32c.14,0,.25-.12,.25-.27,0-.15-.12-.26-.26-.26h0c-.14,0-.25,.12-.25,.27,0,.15,.12,.26,.26,.26"/><path id="Path_2073" class="cls-3" d="M24.59,39.5c0,.05,.04,.1,.1,.1,0,0,0,0,0,0,.05,0,.1-.04,.1-.1,0,0,0,0,0,0,0-.06-.05-.1-.1-.1-.05,0-.1,.05-.1,.1"/><path id="Path_2074" class="cls-3" d="M24.35,39.48c-.05,0-.1,.04-.1,.09,0,0,0,0,0,0,0,.05,.04,.1,.1,.1,0,0,0,0,0,0,.05,0,.1-.04,.1-.1s-.04-.1-.1-.1"/><path id="Path_2075" class="cls-16" d="M20.08,39.37s-.02,.05-.02,.07c0,.03,.01,.06,.02,.08,0-.05,0-.11,0-.16"/><path id="Path_2076" class="cls-16" d="M21.61,37.76s-.05,.01-.07,.02c-.84-.34-1.48-1.05-1.76-1.93-.07,.03-.13,.05-.2,.08,.08,.74,.46,1.41,1.05,1.85-.75-.27-1.36-.85-1.68-1.6l-.26,.1c.18,.8,.73,1.45,1.48,1.73-.8-.24-1.46-.82-1.81-1.6-.09,.03-.18,.07-.27,.1,.24,1.02,1.09,1.75,2.1,1.8-.08,.04-.16,.08-.24,.12-1.1,.02-2.12-.61-2.63-1.62-.09,.04-.17,.07-.26,.11,.18,1.16,1.17,1.99,2.3,1.92l-.08,.15c-1.23,0-2.37-.66-3.02-1.74-.03,.01-.06,.03-.1,.04,.27,1.13,1.19,1.96,2.31,2.07-.21,.16-.37,.38-.47,.63,.36-.55,1.03-.78,1.64-.58,.03,.13,.08,.26,.14,.39-.63-.27-1.36,.04-1.63,.69-.05,.12-.08,.24-.09,.36,.31-.7,1.04-1.1,1.77-.95,0,0,0,0,0,.01,.05,.09,.1,.17,.16,.26-.17-.28-.22-.62-.15-.95,.09-.41,.65-.51,.65-.51-.13,.1-.25,.23-.34,.37,.05-.07,.11-.14,.18-.19,.91-.81,2.06-1.26,3.26-1.28,.25-.11,.52-.17,.8-.18,.3,0,.59,.06,.87,.19,3.09,.35,4.24,2.94,4.68,3.69,.15,.26,.15,.42,.07,.51,.16,.21,.25,.35,.25,.35-.56-2.36-2.37-4.19-4.67-4.72-.03-.09-.05-.18-.06-.27-.01,.09-.01,.17-.01,.26-.01,0-.02,0-.03,0-.1-.02-.2-.03-.3-.05-.03-.1-.06-.21-.07-.31,0,.1-.01,.2,0,.3-.09,0-.18-.02-.27-.03-.05-.14-.09-.29-.11-.45-.02,.14-.01,.29,0,.43-.09,0-.17,0-.26-.01-.07-.17-.12-.34-.15-.52-.02,.17,0,.35,.03,.52-.12,0-.23,0-.35,0-.16-.28-.27-.59-.31-.92-.04,.31,0,.63,.09,.93-.11,0-.22,.02-.33,.04-.2-.31-.33-.67-.38-1.05-.04,.36,0,.73,.14,1.06-.06,0-.14,.02-.25,.04-.31-.36-.51-.8-.57-1.28-.06,.47,.04,.94,.29,1.33-.06,.01-.13,.03-.2,.04-.58-.47-.95-1.16-1.04-1.92-.11,.73,.12,1.47,.62,1.99-.8-.38-1.38-1.14-1.56-2.04-.03,.01-.06,.02-.09,.03-.04,.89,.41,1.72,1.16,2.16m-1.97,1.53h0Z"/><path id="Path_2077" class="cls-16" d="M20.22,40.45c-.06-.08-.12-.16-.17-.24,.02,.03,.04,.07,.06,.1-.68-.17-1.36,.26-1.52,.95-.01,.05-.02,.11-.03,.17,.29-.67,.97-1.06,1.67-.97,.08,.1,.17,.19,.26,.28-.62-.07-1.18,.38-1.26,1.02,.25-.57,.82-.91,1.43-.87,.05,.05,.11,.08,.15,.12-.55,.05-.99,.48-1.06,1.04,.25-.54,.77-.88,1.35-.87-.33-.2-.62-.45-.88-.73"/><path id="Path_2078" class="cls-16" d="M22.86,38.23c.2-.27,.47-.48,.77-.61-1.2,.02-2.35,.47-3.26,1.28,.09-.07,.19-.14,.29-.2,.71-.26,1.46-.41,2.21-.46"/><path id="Path_2079" class="cls-16" d="M29.96,41.32c-.44-.74-1.59-3.33-4.68-3.68,.52,.23,.91,.69,1.07,1.24,1.43,.67,2.7,1.68,3.68,2.95,.08-.1,.08-.26-.07-.51"/><path id="Path_2080" class="cls-16" d="M21.33,41.14s-.01,0-.02-.01c-.94-.7-1.19-1.24-1.23-1.6-.01-.03-.02-.05-.02-.08,0-.03,.02-.05,.02-.07h0c0-.09,.03-.16,.06-.24,.01-.02,.03-.03,.05-.05,.09-.14,.21-.27,.34-.37,0,0-.56,.1-.65,.51-.07,.32-.02,.67,.15,.95l.02,.03c.05,.08,.11,.17,.17,.24,.26,.29,.55,.53,.88,.73,.19,.01,.37,.06,.55,.15-.1-.07-.2-.13-.31-.19"/><path id="Path_2082" class="cls-16" d="M25.05,37.6c.08,0,.16,.02,.24,.03-.53-.25-1.13-.26-1.66-.01,.47-.04,.95-.05,1.43-.02"/><path id="Path_2083" class="cls-16" d="M22.86,38.23c1.2-.08,2.4,.14,3.5,.65-.17-.55-.56-1.01-1.07-1.24-.08,0-.15-.03-.24-.03-.47-.03-.95-.03-1.43,.01-.3,.14-.56,.35-.77,.61"/><path id="Path_2084" class="cls-7" d="M11.52,31.12c.31-.14,.64-.28,.96-.41,.65-.28,1.32-.56,1.99-.84,6.19-2.48,12.55-4.45,19.04-5.89,4.47-1.01,8.98-1.78,13.52-2.31,2.57-.3,5.06-.5,7.44-.61,.54-.02,1.08-.05,1.6-.07-3.74-8.82-12.2-14.48-21.5-14.4-12.85,0-23.26,10.42-23.26,23.26,0,.37,.01,.73,.03,1.09l.18,.18m59.68-2.69s-.09-.08-.14-.11c-.08-.06-.16-.12-.24-.18-.17-.12-.35-.23-.54-.34-.07-.04-.13-.08-.21-.12-.58-.33-1.19-.61-1.81-.84-.04-.02-.08-.03-.12-.04-.29-.11-.6-.22-.91-.32-.07-.02-.15-.05-.23-.07-.29-.09-.59-.18-.9-.26-.09-.02-.18-.05-.27-.07-.31-.08-.63-.15-.96-.23-.08-.02-.17-.04-.26-.05-.35-.07-.72-.14-1.09-.21-.07-.01-.13-.02-.19-.03-.44-.07-.89-.14-1.34-.2h0c-1.44-.19-3-.31-4.65-.37h-.09c-.46-.02-.95-.02-1.42-.02-1.2-.02-2.42,0-3.7,.04h-.07s-.09,0-.14,0c-.85,.03-1.73,.08-2.62,.15l-.3,.02c-.9,.07-1.81,.15-2.74,.25-.04,0-.08,0-.11,.01-.92,.1-1.85,.21-2.79,.34l-.24,.03c-.92,.12-1.85,.27-2.79,.42-.17,.03-.33,.05-.5,.08-.92,.16-1.85,.32-2.79,.51-.15,.03-.3,.06-.46,.09-.98,.19-1.97,.4-2.97,.62-.94,.22-1.87,.44-2.79,.67l-.52,.13c-.89,.23-1.77,.46-2.64,.71l-.43,.12c-.89,.26-1.77,.52-2.63,.79h-.03c-.88,.29-1.75,.57-2.6,.87-.11,.04-.23,.08-.35,.12-.84,.29-1.66,.59-2.47,.9l-.18,.07c-1.67,.64-3.26,1.31-4.76,1.99l-.16,.08c-.15,.07-.28,.14-.43,.2-.41,.19-.8,.38-1.19,.57-.1,.05-.2,.1-.3,.14-1.48,1.75-4.12,4.33-6.56,3.87-.52,.37-1.01,.74-1.47,1.11l-.14,.12c-.27,.22-.53,.44-.77,.66-.07,.06-.14,.13-.21,.19-.22,.2-.43,.4-.63,.6-.07,.07-.13,.14-.2,.2-.2,.21-.39,.41-.56,.62-.05,.06-.1,.11-.15,.17-.22,.26-.42,.52-.61,.77H.86c-.04,.05-.07,.11-.11,.17,.23,1.08,.5,2.14,.82,3.19,2.28-2.65,6.27-5.37,11.47-7.86,.09-.04,.18-.08,.27-.13,.16-.08,.34-.15,.5-.23,.76-.35,1.54-.7,2.35-1.04,.03-.01,.07-.03,.1-.04,.27-.11,.53-.23,.8-.34,.09-.04,.17-.07,.26-.11,.25-.1,.51-.2,.77-.3,.09-.04,.18-.07,.27-.1,.11-.04,.22-.08,.33-.13l.26-.11c.21-.08,.42-.17,.63-.24,.07-.03,.13-.05,.2-.08,.22-.08,.45-.17,.67-.25l.09-.03c1.04-.38,2.1-.74,3.19-1.09,.6-.19,1.2-.39,1.81-.58,2.58-.79,5.28-1.51,8.09-2.14,6.96-1.62,14.07-2.49,21.21-2.58,.63,0,1.25,.01,1.86,.03,.37,.01,.76,.01,1.12,.03,6.7,.3,11.77,1.68,14.07,4.05-.12-1.63-.35-3.26-.69-4.86"/><path id="Path_2085" class="cls-5" d="M56.79,22.98c-.03-.1-.07-.2-.11-.31-.18-.55-.37-1.09-.59-1.62,0-.01-.01-.03-.02-.05h0c-.52,.01-1.06,.04-1.6,.07-2.38,.11-4.87,.31-7.44,.61-4.54,.53-9.05,1.3-13.52,2.31-6.49,1.44-12.85,3.41-19.04,5.89-.68,.28-1.34,.56-1.99,.84-.32,.14-.65,.28-.96,.41-.06-.06-.12-.12-.18-.18-2.13-2.1-5.56-4.57-10-4.66-.31,1.1-.57,2.23-.77,3.38,2.63,2.56,7,3.57,10,3.97-2.56,.59-4.69,2.4-5.74,4.88,.25,.12,.51,.2,.77,.25h0c2.43,.46,5.08-2.13,6.56-3.87,.1-.05,.2-.1,.3-.14,.39-.19,.79-.38,1.19-.57,.15-.07,.28-.14,.43-.2l.16-.08c1.5-.69,3.09-1.35,4.76-1.99l.18-.07c.81-.31,1.63-.61,2.47-.9,.12-.04,.23-.08,.35-.12,.85-.29,1.71-.58,2.6-.86h.03c.86-.28,1.73-.54,2.62-.79l.43-.12c.87-.25,1.75-.48,2.64-.71,.17-.04,.34-.09,.52-.13,.92-.23,1.85-.46,2.79-.67,1-.22,1.99-.43,2.96-.62,.15-.03,.31-.06,.46-.09,.94-.18,1.87-.35,2.79-.51,.17-.03,.33-.05,.5-.08,.94-.15,1.87-.29,2.78-.42l.24-.03c.94-.13,1.87-.24,2.79-.34,.04,0,.08,0,.12-.01,.93-.1,1.84-.18,2.74-.25l.3-.02c.89-.06,1.76-.11,2.62-.15,.05,0,.1,0,.14,0h.07c1.28-.05,2.5-.05,3.7-.04,.48,0,.96,0,1.42,.02h.05c-.15-.68-.32-1.35-.53-2"/></g></g></g></svg>