<?xml version="1.0" encoding="UTF-8"?><svg id="Layer_7" xmlns="http://www.w3.org/2000/svg" xmlns:xlink="http://www.w3.org/1999/xlink" viewBox="0 0 72 72"><defs><style>.cls-1{fill:none;}.cls-2{clip-path:url(#clippath);}.cls-3{fill:#fff;}.cls-4{fill:#fbb316;}.cls-5{fill:#cda988;}.cls-6{fill:#a9423a;}.cls-7{fill:#d59529;}.cls-8{fill:#af8f75;}.cls-9{fill:#1e1e1e;}.cls-10{fill:#42b5e8;}.cls-11{fill:#3f4ba0;}.cls-12{fill:#a39f4a;}.cls-13{fill:#29bec8;}.cls-14{fill:#383c3d;}.cls-15{fill:#7a5332;}</style><clipPath id="clippath"><rect class="cls-1" width="72" height="72"/></clipPath></defs><g id="Group_488"><g class="cls-2"><g id="Group_487"><path id="Path_2086" class="cls-12" d="M72,35.98c0,19.87-16.12,35.98-36,35.98S0,55.85,0,35.98,16.12,0,36,0s36,16.11,36,35.98"/><path id="Path_2087" class="cls-7" d="M27.44,50.09h17.05s2.67,3.24,2.67,3.24l-9.46,6.58-10.71-2.27-.8-6.03,1.26-1.53Z"/><path id="Path_2088" class="cls-10" d="M35.98,32.64s0,.03,0,.04v-.06s0,.01,0,.02"/><path id="Path_2089" class="cls-11" d="M35.97,31.33h0s0-.01,0-.03v.03"/><rect id="Rectangle_390" class="cls-8" x="30.08" y="41.56" width="11.8" height="17.31" transform="translate(-.19 .14) rotate(-.22)"/><path id="Path_2090" class="cls-13" d="M44.01,51.35s0-.02,.01-.03c0,0,0,.02-.01,.03"/><path id="Path_2091" class="cls-13" d="M44.47,50.08s-.02,.09-.03,.13c.02-.04,.03-.08,.04-.13,0,0,0,0,0,0"/><path id="Path_2092" class="cls-4" d="M57.5,58.75c0-2.12-1.26-3.73-3.41-4.45-1.29-.43-6.03-2.57-9.6-4.21,0,0-.01,0-.02,0,0,.04-.02,.09-.04,.13-.02,.14-.06,.27-.1,.4-.01,.05-.03,.1-.04,.15-.08,.19-.17,.38-.27,.56,0,0,0,.02-.01,.03-1,1.39-2.41,2.42-4.02,2.91h0c-2.56,.93-5.33,.96-7.91,.09h-.01c-1.04-.35-2.02-.88-2.89-1.56-.89-.64-1.51-1.61-1.73-2.7h-.01s-.01,.01-.02,.01c-3.57,1.64-8.3,3.78-9.6,4.21-2.14,.72-3.4,2.33-3.4,4.45l-.77,5.5c2.48,1.96,5.18,3.57,8.06,4.82,9.12,3.91,19.38,3.91,28.49,0,2.88-1.24,5.6-2.87,8.07-4.84l-.77-5.49Z"/><path id="Path_2093" class="cls-3" d="M38.49,42.24l-2.48-1.33-1.87,.29-2.41,1.26,.85,1.03,1.96,.89,1.74-.23,1.51-.76,.79-1.1-.08-.05Z"/><path id="Path_2094" class="cls-9" d="M54.61,23.51c.01,10.56-8.29,19.12-18.53,19.14-10.25,.01-18.56-8.54-18.58-19.09-.01-10.56,8.29-19.12,18.53-19.14,0,0,.02,0,.03,0,10.24,0,18.54,8.54,18.55,19.09"/><path id="Path_2095" class="cls-5" d="M48.66,26.98c.68-.17,1.25,.51,1.26,2.18-.08,2.05-.62,4.05-1.57,5.86-1.34,2.54-2.33,1.62-2.68-.15-.04,.07-.09,.13-.13,.2,1.32-2.57,2.36-5.29,3.12-8.09"/><path id="Path_2096" class="cls-5" d="M23,26.98c-.69-.17-1.26,.51-1.26,2.18,.08,2.05,.62,4.05,1.57,5.86,1.34,2.54,2.33,1.62,2.68-.15,.04,.07,.08,.13,.13,.2-1.32-2.57-2.36-5.29-3.12-8.09"/><path id="Path_2097" class="cls-5" d="M35.89,12.09c-7.49,0-14.59,6.56-12.68,16.97,1.54,8.36,2.92,13.62,7.92,17.11,1.24,1.36,2.99,2.09,4.79,2,1.82,.12,3.59-.62,4.82-2,4.51-3.39,6.54-9.45,7.92-17.11,1.8-9.95-5.28-16.97-12.77-16.97"/><path id="Path_2098" class="cls-15" d="M38.18,37.74c-.14-.18-.52-.16-.56-.16-.19,.01-.38,.07-.55,.18l-.06,.03c-.6,.42-1.39,.42-1.98,0l-.06-.03c-.17-.11-.35-.17-.55-.18-.04,0-.43-.01-.56,.16-.06,.07-.07,.18-.01,.26,.09,.12,.24,.19,.39,.16,.23,0,.45-.03,.67-.11,.34,.19,.72,.31,1.1,.34h.03c.39-.03,.76-.14,1.1-.34,.21,.08,.44,.12,.67,.11,.15,.02,.3-.04,.39-.16,.05-.08,.04-.19-.01-.26"/><path id="Path_2099" class="cls-9" d="M34.83,4.77c10.03-.18,18.78,8.49,19,20.47,.01,1.03-.5,2.89-.59,3.88,.31-.11-7.17-12.32-7.17-12.32-9.95,9.76-28.19,10.32-28.18,9.3,.21-11.98,8.5-21.52,18.54-21.33"/><path id="Path_2100" class="cls-6" d="M34.58,40.65c.47,.2,.96,.35,1.46,.44,.39,.01,.46-.25,1.23-.42,.47-.11,1.73,.25,2.48-.42-1.67,3.02-2.27,3.1-3.77,3.11-1.44,.02-2.12-.37-3.7-3.13,.2,.36,1.7,.31,2.3,.41"/><path id="Path_2101" class="cls-9" d="M31.95,29.81c.15-.13,.25-.32,.26-.52-.44-1.21-1.54-2.03-2.79-2.1-1.1-.09-2.19,.27-3.02,1.01-.21,.29-.21,.68,0,.98,1.44,1.48,5.56,.63,5.56,.63"/><path id="Path_2102" class="cls-9" d="M24.53,25.73c.7-.64,1.62-.97,2.56-.92,1.55,.11,5.99,1.2,5.62,2.42-.09,.24-.98-.34-1.35-.55-.41-.24-4.17-2.24-6.83-.94"/><path id="Path_2103" class="cls-3" d="M26.44,28.85c.57,2.24,5.82,1.34,5.58,.83-.32-1.24-1.37-2.12-2.6-2.2-1.91-.06-3.08,.98-2.98,1.37"/><path id="Path_2104" class="cls-9" d="M27.73,28.8c.05,.88,.79,1.55,1.64,1.5,.85,.07,1.6-.59,1.68-1.47,0-.42-.19-.81-.5-1.08-.36-.18-.74-.28-1.14-.29-.28,0-.55,.01-.82,.05-.5,.22-.83,.72-.86,1.27"/><path id="Path_2105" class="cls-14" d="M28.87,28.82c.03,.29,.29,.5,.57,.47,.23-.03,.42-.21,.45-.46-.01-.27-.24-.48-.5-.46,0,0,0,0,0,0-.26-.02-.49,.18-.52,.45"/><path id="Path_2106" class="cls-3" d="M29.19,28.7c0,.12,.1,.2,.21,.2,0,0,0,0,0,0,.11,0,.21-.08,.22-.19-.02-.13-.13-.21-.25-.19-.1,.01-.17,.09-.19,.19"/><path id="Path_2107" class="cls-9" d="M27.13,27.71c-.05,.35-.37,.42-.77,.46-.41,.06-.81-.2-.94-.6-.06,.43,.23,.84,.65,.9,.1,.01,.2,0,.3-.02,.48-.04,.77-.7,.76-.74"/><path id="Path_2108" class="cls-9" d="M26.71,28.18s-.01-.06-.02-.09c-.08,.38-.4,.66-.78,.67-.41,.06-.8-.19-.94-.6,0,.06,0,.12,0,.18,.09,.46,.51,.77,.96,.7,.44,0,.79-.38,.78-.84,0,0,0-.01,0-.02"/><path id="Path_2109" class="cls-9" d="M28.14,27.64c-.34,0-.67,.05-1,.14-.41,.1-.83-.1-1.02-.49,0,.06,.01,.12,.03,.18,.15,.44,.61,.69,1.05,.58,.46-.09,1.05,0,.94-.41"/><path id="Path_2110" class="cls-9" d="M28.88,27.42c-.34,.01-.67,.06-1,.14-.41,.1-.83-.1-1.02-.48,0,.06,0,.12,.03,.18,.16,.44,.61,.69,1.05,.58,.47-.1,1.05,0,.94-.42"/><path id="Path_2111" class="cls-9" d="M29.46,27.38c-.34-.02-.67,0-1.01,.04-.41,.07-.81-.17-.96-.58-.01,.06-.01,.12,0,.18,.1,.46,.53,.75,.98,.67,.48-.05,1.04,.11,.98-.32"/><path id="Path_2112" class="cls-9" d="M30.03,27.66c-.33-.08-.66-.12-1-.13-.41,0-.76-.32-.81-.74-.02,.06-.03,.12-.04,.18,0,.46,.36,.83,.81,.83,0,0,0,0,0,0,.48,.03,1,.29,1.04-.14"/><path id="Path_2113" class="cls-9" d="M32.04,29.46c-.33-1.38-1.57-2.31-2.95-2.21-.51,.05-2.3,.14-2.67,1.29,0,0-.29,.34,.28,.84-.29-.39,.48-1.41,2.39-1.3,.69,.03,1.36,.24,1.95,.63,.24,.2,.47,.41,.68,.63,.11,.13,.2,.26,.27,.41l.13-.18-.09-.12Z"/><path id="Path_2114" class="cls-9" d="M39.82,29.81c-.15-.13-.25-.32-.26-.52,.44-1.21,1.53-2.03,2.78-2.1,1.1-.09,2.19,.27,3.03,1.01,.2,.29,.21,.68,.01,.98-1.45,1.48-5.56,.63-5.56,.63"/><path id="Path_2115" class="cls-9" d="M47.24,25.73c-.7-.64-1.62-.97-2.56-.92-1.55,.11-5.99,1.2-5.62,2.42,.08,.24,.97-.34,1.35-.55,.41-.24,4.17-2.24,6.83-.94"/><path id="Path_2116" class="cls-3" d="M45.34,28.85c-.58,2.24-5.82,1.34-5.58,.83,.32-1.24,1.37-2.12,2.6-2.2,1.91-.06,3.08,.98,2.98,1.37"/><path id="Path_2117" class="cls-9" d="M44.04,28.8c-.12,.95-.97,1.61-1.88,1.48-.74-.1-1.32-.69-1.44-1.45,0-.42,.18-.81,.5-1.08,.36-.18,.74-.28,1.14-.29,.28,0,.55,.01,.83,.05,.5,.22,.83,.72,.86,1.27"/><path id="Path_2118" class="cls-14" d="M42.9,28.82c-.02,.27-.24,.47-.5,.46-.26,.02-.49-.18-.52-.45,.03-.29,.29-.5,.57-.47,.23,.03,.42,.21,.45,.46"/><path id="Path_2119" class="cls-3" d="M42.58,28.7c0,.11-.1,.2-.21,.2,0,0,0,0,0,0-.11,0-.21-.08-.22-.19,0-.12,.1-.2,.22-.2,0,0,0,0,0,0,.11-.01,.21,.07,.22,.18,0,0,0,0,0,0"/><path id="Path_2120" class="cls-9" d="M44.65,27.71c.05,.35,.36,.42,.78,.46,.41,.06,.8-.2,.94-.6,0,.06,0,.12,0,.18-.09,.46-.51,.77-.96,.7-.48-.04-.76-.7-.76-.74"/><path id="Path_2121" class="cls-9" d="M45.06,28.18s0-.06,.01-.09c.08,.38,.4,.65,.78,.67,.41,.06,.81-.19,.94-.6,0,.06,0,.12,0,.18-.09,.46-.51,.77-.95,.7-.44,0-.79-.38-.78-.83,0,0,0-.01,0-.02"/><path id="Path_2122" class="cls-9" d="M43.64,27.64c.34,0,.67,.05,1,.14,.41,.1,.83-.1,1.02-.49,0,.06,0,.12-.02,.18-.16,.44-.61,.69-1.05,.58-.47-.09-1.05,0-.94-.41"/><path id="Path_2123" class="cls-9" d="M42.9,27.42c.34,.01,.67,.06,1,.14,.41,.1,.83-.1,1.02-.48,0,.06,0,.12-.02,.18-.16,.44-.61,.69-1.05,.58-.47-.1-1.05,0-.94-.42"/><path id="Path_2124" class="cls-9" d="M42.32,27.38c.34-.02,.67,0,1.01,.04,.41,.06,.81-.18,.95-.58,0,.06,0,.12,0,.18-.1,.46-.53,.75-.98,.67-.48-.05-1.04,.11-.98-.32"/><path id="Path_2125" class="cls-9" d="M41.75,27.66c.33-.08,.66-.12,1-.13,.41,0,.76-.32,.8-.74,.02,.06,.04,.12,.04,.18,0,.45-.34,.82-.78,.83,0,0-.02,0-.02,0-.49,.03-1.01,.29-1.04-.14"/><path id="Path_2126" class="cls-9" d="M39.74,29.46c.33-1.38,1.57-2.31,2.95-2.21,.51,.05,2.3,.14,2.67,1.29,0,0,.29,.34-.28,.84,.29-.39-.48-1.41-2.39-1.3-.69,.03-1.36,.24-1.95,.63-.24,.2-.47,.41-.68,.63-.1,.13-.2,.27-.28,.41l-.12-.18,.09-.12Z"/></g></g></g></svg>