<?xml version="1.0" encoding="UTF-8"?><svg id="Layer_16" xmlns="http://www.w3.org/2000/svg" xmlns:xlink="http://www.w3.org/1999/xlink" viewBox="0 0 72 72"><defs><style>.cls-1{fill:none;}.cls-2{clip-path:url(#clippath);}.cls-3{fill:#e9caab;}.cls-4{fill:#fff;}.cls-5{fill:#fbb316;}.cls-6{fill:#fcd8b0;}.cls-7{fill:#e66b5b;}.cls-8{fill:#9a4422;}.cls-9{fill:#323232;}.cls-10{fill:#cca884;}.cls-11{fill:#2c2c2c;}.cls-12{fill:#29bec8;}.cls-13{fill:#4a494a;}</style><clipPath id="clippath"><rect class="cls-1" width="72" height="72"/></clipPath></defs><g id="Group_460"><g class="cls-2"><g id="Group_459"><path id="Path_1239" class="cls-5" d="M72,35.98c0,19.87-16.12,35.98-36,35.98S0,55.85,0,35.98,16.12,0,36,0s36,16.11,36,35.98"/><path id="Path_1240" class="cls-11" d="M27.45,50.09h17.05s2.66,3.24,2.66,3.24l-9.46,6.59-10.71-2.26-.81-6.03,1.26-1.53Z"/><path id="Path_1243" class="cls-3" d="M41.92,58.85l-11.8,.04-.08-17.31,11.8-.04,.09,17.31Z"/><path id="Path_1244" class="cls-12" d="M44.01,51.35v-.03s0,.03,0,.03"/><path id="Path_1245" class="cls-12" d="M44.47,50.09s-.02,.09-.03,.13c0-.04,.03-.09,.03-.13h0Z"/><path id="Path_1246" class="cls-13" d="M27.55,52.56c-.47,0-.85-.39-.85-.87s.38-.87,.85-.87h0s.07,.01,.1,.02c-.1-.24-.18-.49-.22-.75-1.01,.46-2.12,.97-3.22,1.46,.01,.04,.02,.09,.03,.14-.01,.49-.41,.88-.89,.86-.25,0-.48-.12-.64-.32-.56,.25-1.1,.49-1.61,.71,.06-.02,.12-.03,.19-.04,.47,.01,.84,.41,.83,.9s-.4,.86-.87,.85c-.46-.01-.83-.4-.83-.87,0-.29,.15-.55,.39-.71-1.35,.59-2.45,1.05-2.97,1.22-.02,0-.03,.02-.05,.02-.16,.21-.41,.33-.67,.33-.03,0-.06-.01-.08-.02-.45,.22-.86,.51-1.23,.86,.06,.12,.1,.25,.1,.38,0,.49-.39,.88-.87,.87,0,0,0,0,0,0-.04,0-.09-.01-.13-.03-.31,.63-.47,1.33-.46,2.04l-.1,.7c.16-.23,.42-.37,.69-.37,.23,0,.45,.08,.62,.25,.17,.16,.26,.38,.26,.62v.1c0,.49-.41,.88-.89,.87-.36,0-.68-.25-.8-.6l-.55,3.92c.84,.67,1.71,1.28,2.61,1.86,.05-.43,.41-.76,.84-.76,.23,0,.45,.09,.63,.25,.16,.16,.25,.38,.25,.61,0,.3-.16,.58-.42,.73,.38,.23,.78,.44,1.17,.65,.14-.1,.3-.15,.47-.16,.47,0,.86,.38,.87,.86,.54,.26,1.08,.53,1.64,.77,.95,.41,1.93,.78,2.93,1.11,.12-.47,.59-.75,1.05-.63,.37,.1,.64,.45,.64,.85,0,.1-.02,.19-.05,.28,1.67,.47,3.37,.81,5.09,1.03,.3-.16,.66-.11,.91,.11,.97,.1,1.96,.15,2.95,.17,.16-.23,.42-.37,.69-.38h.06s.05,0,.05,0c.23,0,.45,.09,.62,.26,.03,.04,.05,.08,.08,.12,.99-.02,1.97-.07,2.94-.17,.15-.13,.35-.2,.55-.21,.13,0,.25,.03,.37,.09,1.72-.22,3.41-.57,5.08-1.03-.04-.09-.06-.18-.06-.28,0-.49,.4-.88,.87-.87,.23,0,.45,.09,.62,.26,.11,.11,.18,.25,.22,.39,.99-.33,1.97-.69,2.92-1.09,.56-.25,1.11-.51,1.66-.78,0-.48,.39-.86,.86-.86,.17,0,.33,.06,.47,.16,.39-.21,.79-.42,1.17-.65-.26-.15-.42-.43-.42-.73,0-.49,.39-.88,.86-.88,.44,0,.8,.34,.85,.78,.9-.59,1.77-1.2,2.61-1.87l-.56-3.93c-.15,.47-.64,.72-1.09,.57-.13-.04-.25-.12-.34-.21-.17-.16-.26-.38-.26-.62v-.1c.02-.49,.42-.88,.89-.86,.27,0,.53,.15,.68,.38l-.1-.71c0-.71-.15-1.41-.46-2.04-.05,0-.09,.03-.13,.03-.48,0-.87-.38-.88-.87,0,0,0,0,0,0,0-.13,.04-.27,.1-.38-.37-.34-.78-.63-1.23-.85-.03,0-.05,.02-.08,.02-.26,0-.5-.12-.66-.32-.02,0-.04-.02-.06-.03-.53-.17-1.62-.64-2.97-1.23,.26,.13,.41,.41,.39,.71,.01,.49-.37,.9-.85,.91-.48,.01-.88-.38-.89-.88-.01-.49,.37-.9,.85-.91,0,0,.01,0,.02,0,.06,0,.12,.02,.18,.04-.51-.22-1.05-.46-1.61-.71-.3,.38-.84,.44-1.21,.14-.2-.16-.32-.41-.32-.68,0-.05,.01-.09,.03-.14-1.1-.5-2.21-1.01-3.23-1.47l-.03,.13c-.02,.14-.06,.28-.1,.41l-.04,.13s-.03,.06-.04,.09c.04-.01,.08-.02,.12-.03,.47,0,.84,.4,.83,.88,0,.48-.39,.86-.86,.85-.36,0-.68-.25-.79-.6-.32,.37-.68,.7-1.08,.99,.39,.08,.67,.43,.67,.83-.01,.49-.42,.88-.9,.86-.46-.01-.83-.39-.84-.86,0-.06,.02-.12,.04-.18-.47,.26-.96,.48-1.46,.66-1.31,.47-2.69,.71-4.07,.71-1.31,0-2.61-.22-3.85-.64-.55-.19-1.08-.42-1.59-.7,.01,.05,.02,.1,.03,.15,0,.49-.39,.89-.87,.89s-.87-.4-.87-.89c0-.4,.28-.74,.65-.83-.08-.06-.16-.11-.24-.17-.3-.25-.57-.52-.82-.82-.12,.36-.45,.6-.82,.6m-12.53,12.44c-.47,0-.85-.39-.85-.87s.38-.87,.85-.87c.23,0,.45,.09,.62,.26,.17,.16,.26,.38,.26,.61,0,.49-.4,.88-.87,.88m2.96-2.86c-.01,.49-.42,.88-.9,.86-.46-.01-.83-.39-.84-.86v-.09c0-.48,.38-.88,.86-.88,0,0,0,0,0,0,.23,0,.46,.09,.63,.25,.16,.17,.25,.39,.25,.63v.09m-.88-3.3c-.47,0-.85-.39-.85-.87s.38-.87,.85-.87h0c.23,0,.46,.09,.63,.26,.16,.16,.25,.38,.25,.61,0,.49-.4,.88-.88,.88m2.1,6.16c-.47-.01-.84-.41-.83-.89,.01-.48,.4-.87,.87-.85,.46,.01,.83,.4,.83,.87,0,.49-.4,.88-.87,.88m.87-4.96c-.01,.49-.42,.88-.9,.87-.46-.01-.83-.39-.85-.87v-.1c.03-.49,.44-.87,.92-.85,.45,.02,.8,.39,.83,.85v.1m-.87-3.3c-.47-.01-.84-.41-.83-.89,.01-.48,.4-.86,.87-.85,.46,.01,.82,.4,.83,.87,0,.49-.39,.88-.87,.87,0,0,0,0,0,0m2.08,10.34c-.47-.02-.83-.42-.82-.9,.01-.48,.41-.86,.87-.84,.45,.01,.82,.39,.82,.86,0,.49-.39,.88-.87,.88,0,0,0,0,0,0m.87-4.95c-.02,.49-.43,.88-.91,.86-.45-.02-.82-.39-.84-.86,0-.02,0-.03,0-.05,0-.01,0-.03,0-.05,0-.49,.39-.9,.87-.9s.87,.4,.87,.9v.09m-.87-3.3c-.47-.01-.84-.41-.83-.9s.4-.86,.87-.85c.46,.01,.83,.4,.83,.87-.01,.49-.4,.88-.87,.88m2.08,10.33c-.47-.02-.83-.42-.82-.9,.02-.48,.41-.85,.88-.84,.46,.02,.82,.4,.82,.87,0,.48-.39,.87-.87,.87,0,0,0,0-.01,0m0-4.17c-.47-.01-.84-.41-.83-.9s.4-.86,.88-.85c.46,.01,.83,.4,.83,.87,0,.49-.4,.88-.88,.88m.88-4.96c0,.49-.39,.88-.87,.88,0,0,0,0,0,0-.23,0-.45-.1-.61-.26-.16-.16-.25-.39-.25-.62v-.1c.02-.49,.43-.88,.91-.85,.45,.02,.81,.39,.83,.85v.1m-.88-3.3c-.47-.02-.84-.42-.82-.9,.02-.48,.41-.86,.88-.84,.46,.02,.82,.4,.82,.87,0,.49-.39,.88-.86,.87,0,0,0,0-.01,0m33.54,6.51c.47,.01,.84,.41,.83,.9-.01,.48-.4,.86-.88,.85-.46-.01-.83-.4-.83-.88,0-.49,.4-.88,.88-.87m-2.09-6.16c.47,0,.85,.39,.85,.87s-.38,.87-.85,.87c-.47,0-.85-.39-.85-.87,0-.48,.38-.87,.85-.87h0m-.87,4.96c0-.49,.39-.89,.87-.89,.48,0,.87,.4,.87,.89v.09c-.02,.49-.43,.87-.9,.85-.45-.02-.81-.39-.83-.85v-.09m-1.22-7.04c.47,0,.84,.41,.83,.89s-.4,.86-.86,.85c-.46,0-.83-.4-.83-.87,0-.48,.39-.87,.86-.87m-.86,4.95c.01-.49,.42-.88,.9-.86,.46,.01,.83,.39,.84,.86v.1c-.01,.49-.42,.88-.9,.86-.46-.01-.83-.39-.84-.86v-.1m.86,3.3c.47,0,.85,.4,.84,.89,0,.48-.39,.87-.86,.86-.47,0-.84-.4-.84-.87,0-.49,.39-.88,.86-.87m-2.08-6.16c.23,0,.45,.09,.61,.26,.16,.16,.26,.38,.26,.61-.01,.49-.42,.88-.9,.87-.46-.01-.83-.39-.85-.87,0-.49,.39-.88,.87-.87,0,0,0,0,0,0m-.87,4.96c0-.49,.39-.88,.87-.88,0,0,0,0,0,0,.23,0,.45,.09,.61,.25,.16,.16,.26,.39,.26,.63v.09c-.01,.49-.42,.88-.9,.87-.46-.01-.83-.39-.85-.87v-.09m.87,3.3c.23,0,.45,.09,.61,.25,.16,.16,.25,.38,.26,.61,.02,.49-.36,.91-.84,.93-.48,.02-.89-.37-.91-.86-.02-.49,.36-.91,.84-.93,.01,0,.02,0,.04,0m-2.1-10.34c.23,0,.45,.09,.62,.26,.35,.35,.35,.91,.01,1.27s-.89,.36-1.24,.01c-.35-.35-.35-.91-.01-1.27,.16-.17,.38-.27,.62-.27m-.86,4.95c0-.48,.39-.87,.86-.86,.23,0,.45,.09,.62,.25,.16,.16,.25,.39,.25,.62,0,.02,0,.03,0,.05,0,.01,0,.03,0,.05-.01,.49-.42,.88-.9,.86-.46-.01-.83-.39-.84-.86v-.1m.86,3.3c.23,0,.46,.09,.62,.26,.16,.16,.25,.38,.25,.61,0,.49-.37,.9-.85,.91s-.88-.38-.89-.87c0-.49,.37-.9,.85-.91,0,0,0,0,.01,0m0,4.18c.23,0,.46,.09,.62,.26,.16,.16,.25,.38,.25,.61,.01,.49-.37,.9-.85,.91-.48,.01-.88-.38-.89-.87-.01-.49,.37-.9,.85-.91,0,0,.01,0,.02,0m-2.09-14.52c.23,0,.45,.09,.62,.26,.17,.16,.26,.38,.26,.62,.01,.49-.37,.9-.85,.91-.48,.01-.88-.38-.89-.88-.01-.49,.37-.9,.85-.91,0,0,.01,0,.02,0m0,4.18c.23,0,.45,.09,.62,.26,.17,.16,.26,.38,.26,.61,.01,.49-.37,.9-.85,.92s-.88-.38-.89-.87c-.01-.49,.37-.9,.85-.92,0,0,.01,0,.02,0m-.87,4.96c0-.49,.39-.88,.87-.88,0,0,0,0,0,0,.23,0,.45,.09,.62,.25,.17,.16,.26,.39,.26,.63v.09c-.01,.49-.42,.88-.9,.87-.46-.01-.83-.39-.85-.87v-.09m.87,3.3c.23,0,.45,.09,.62,.25,.16,.16,.26,.38,.26,.61,.02,.49-.36,.91-.84,.93-.48,.02-.89-.37-.91-.86-.02-.49,.36-.91,.84-.93,.01,0,.02,0,.03,0m-2.08-10.35c.47,.01,.84,.42,.82,.9s-.4,.86-.87,.84c-.46-.01-.82-.4-.82-.87,0-.49,.4-.87,.87-.87m-.87,4.95c.01-.49,.42-.88,.9-.86,.46,.01,.83,.39,.84,.86v.1c0,.49-.39,.88-.86,.88-.23,0-.45-.09-.62-.26-.16-.16-.25-.38-.25-.62v-.1m.87,3.3c.47,.01,.84,.41,.83,.9s-.4,.86-.87,.85c-.46-.01-.83-.4-.83-.87,0-.49,.39-.88,.87-.87,0,0,0,0,0,0m0,4.18c.47,.02,.83,.42,.82,.9-.01,.48-.41,.86-.87,.84-.46-.01-.82-.4-.82-.87,0-.48,.39-.87,.86-.87,0,0,0,0,0,0m-2.09-10.34c.47,0,.85,.41,.84,.89,0,.48-.4,.87-.87,.86-.47,0-.84-.4-.84-.87,0-.49,.39-.88,.87-.87m-.87,4.96c.01-.49,.42-.88,.9-.86,.46,.01,.83,.39,.84,.86v.09c0,.49-.4,.87-.87,.87-.23,0-.45-.09-.62-.25-.16-.16-.25-.39-.25-.62v-.09m.87,3.3c.47,.01,.84,.41,.82,.89-.01,.48-.4,.86-.87,.85-.46-.01-.83-.4-.82-.87,0-.48,.4-.87,.87-.86m0,4.17c.47,0,.85,.41,.84,.89,0,.48-.4,.87-.87,.86-.47,0-.84-.4-.84-.87,0-.49,.39-.87,.87-.87m-2.09-14.51c.47,.01,.84,.41,.83,.89-.01,.48-.4,.86-.87,.85-.46-.01-.83-.4-.83-.87,0-.49,.4-.87,.87-.87,0,0,0,0,0,0m-.87,4.95c.02-.49,.43-.87,.9-.85,.45,.02,.81,.39,.83,.85v.1c0,.49-.4,.88-.88,.88-.22,0-.44-.1-.6-.26-.17-.16-.26-.38-.26-.62v-.1m.87,3.3c.47,.01,.84,.41,.83,.89-.01,.48-.4,.87-.87,.85-.46-.01-.83-.4-.83-.87,0-.49,.39-.88,.87-.87,0,0,0,0,0,0m0,4.18c.47,.01,.84,.41,.82,.89-.01,.48-.4,.86-.87,.84-.46-.01-.82-.4-.82-.87,0-.48,.39-.87,.86-.87,0,0,0,0,0,0m-2.09-10.34c.47,0,.85,.4,.84,.88s-.39,.87-.86,.87c-.47,0-.84-.4-.84-.87,0-.48,.39-.87,.86-.87m-.86,4.96c0-.49,.39-.89,.87-.89,.48,0,.87,.4,.87,.89v.09c-.02,.49-.43,.87-.9,.85-.45-.02-.81-.39-.83-.85v-.09m.86,3.3c.47,0,.84,.4,.83,.88,0,.48-.39,.86-.86,.85-.46,0-.83-.4-.83-.87,0-.48,.39-.86,.86-.86m0,4.17c.47,0,.85,.4,.84,.88,0,.48-.39,.87-.86,.87-.47,0-.84-.4-.84-.87,0-.48,.39-.87,.86-.87m-2.2-14.51s.04,0,.06,0c.02,0,.04,0,.05,0,.47,0,.85,.39,.85,.87,0,.48-.38,.87-.85,.87h-.11c-.47,0-.85-.39-.85-.87,0-.48,.38-.87,.85-.87h0m-.88,4.95c.01-.48,.4-.87,.87-.86h.11c.47,0,.86,.38,.87,.86v.1c0,.49-.4,.88-.87,.88h-.05s-.06,0-.06,0c-.48,0-.87-.39-.87-.88v-.1m.87,3.3h.11c.47,0,.86,.39,.87,.87,0,.49-.4,.88-.87,.88h-.05s-.06,0-.06,0c-.47,0-.85-.39-.85-.87s.38-.87,.85-.87m0,4.18h.11c.23,0,.45,.09,.62,.26,.16,.16,.26,.38,.26,.61,0,.49-.4,.87-.87,.87h-.11c-.47,.02-.86-.35-.88-.83-.02-.48,.34-.88,.81-.9,.02,0,.05,0,.07,0m-2.09-10.34c.23,0,.46,.09,.63,.26,.16,.16,.25,.38,.25,.61,0,.49-.37,.9-.85,.91-.48,0-.88-.38-.88-.87,0-.49,.37-.9,.85-.91,0,0,0,0,.01,0m-.86,4.96c0-.48,.38-.88,.86-.88,0,0,0,0,0,0,.23,0,.46,.09,.63,.25,.16,.17,.25,.39,.25,.63v.09c-.02,.49-.43,.87-.9,.85-.45-.02-.81-.39-.83-.85v-.09m.86,3.3c.23,0,.45,.09,.63,.25,.16,.17,.24,.38,.25,.61,.02,.49-.36,.9-.84,.92-.48,.02-.88-.37-.9-.86-.02-.49,.36-.9,.84-.92,0,0,.02,0,.03,0m0,4.17c.23,0,.46,.09,.63,.26,.16,.16,.25,.38,.25,.61,0,.49-.37,.9-.85,.91s-.88-.38-.88-.87,.37-.9,.85-.91c0,0,0,0,.01,0m-2.1-14.51c.23,0,.45,.09,.62,.26,.16,.16,.26,.38,.26,.61,.02,.49-.36,.91-.84,.93s-.89-.37-.9-.87c-.02-.49,.36-.91,.84-.93,0,0,.02,0,.03,0m-.87,4.95c.01-.48,.4-.87,.87-.86,.23,0,.45,.08,.62,.25,.17,.16,.26,.38,.26,.62v.1c0,.49-.39,.9-.87,.9s-.87-.4-.87-.9v-.1m.87,3.3c.23,0,.45,.09,.62,.26,.17,.16,.26,.38,.26,.61,.01,.49-.37,.91-.85,.92-.48,.01-.88-.38-.9-.87-.01-.49,.37-.91,.85-.92,0,0,.01,0,.02,0m0,4.18c.23,0,.45,.09,.62,.26,.17,.16,.26,.38,.26,.61,.02,.49-.36,.91-.85,.92-.48,.02-.89-.37-.9-.87-.02-.49,.36-.91,.85-.92,0,0,.02,0,.03,0m-2.09-10.34c.23,0,.45,.09,.62,.26,.16,.16,.25,.38,.25,.61,0,.49-.37,.9-.85,.91-.48,0-.88-.38-.88-.87s.37-.9,.85-.91c0,0,.01,0,.02,0m-.87,4.96c0-.49,.39-.88,.87-.88,0,0,0,0,0,0,.23,0,.45,.09,.62,.25,.16,.17,.25,.39,.25,.63v.09c-.02,.49-.43,.87-.9,.85-.45-.02-.81-.39-.83-.85v-.09m.87,3.3c.23,0,.45,.09,.62,.25,.36,.34,.37,.92,.04,1.28s-.89,.38-1.25,.04-.37-.92-.04-1.28c.16-.18,.39-.28,.63-.29m0,4.17c.23,0,.45,.09,.62,.26,.16,.16,.25,.38,.25,.61,0,.49-.37,.9-.85,.91-.48,0-.88-.38-.88-.87,0-.49,.37-.9,.85-.91,0,0,.01,0,.02,0m-4.18-2.43c-.47-.01-.84-.41-.83-.89,.01-.48,.4-.86,.86-.85,.46,.01,.82,.39,.83,.86,0,.49-.39,.88-.86,.88m.86-4.95c0,.48-.39,.87-.86,.87,0,0,0,0,0,0-.23,0-.45-.09-.61-.25-.17-.16-.26-.38-.26-.62v-.09c.01-.49,.42-.88,.9-.86,.46,.01,.83,.39,.84,.86v.09m-.86-3.3c-.47,0-.85-.4-.84-.89,0-.48,.39-.87,.86-.86,.47,0,.84,.4,.84,.87,0,.49-.39,.88-.86,.88m0-4.18c-.47,0-.85-.4-.84-.89,0-.48,.39-.87,.86-.86,.47,0,.84,.4,.84,.87,0,.49-.39,.88-.86,.87m2.09,14.51c-.47-.01-.84-.41-.82-.89,.01-.48,.4-.86,.87-.84,.46,.01,.82,.4,.82,.87,0,.48-.39,.87-.87,.87,0,0,0,0,0,0m0-4.17c-.47-.01-.84-.41-.83-.89,.01-.48,.4-.87,.87-.85,.46,.01,.83,.4,.83,.87,0,.49-.4,.88-.87,.88m.87-4.96c0,.49-.39,.88-.87,.88,0,0,0,0,0,0-.23,0-.45-.09-.62-.26-.16-.16-.25-.39-.25-.62v-.1c.02-.49,.43-.87,.9-.85,.45,.02,.81,.39,.83,.85v.1m-.87-3.3c-.47-.01-.84-.41-.83-.89,.01-.48,.4-.86,.87-.85,.46,.01,.82,.4,.83,.87,0,.49-.39,.88-.86,.87,0,0,0,0,0,0"/><path id="Path_1247" class="cls-4" d="M17.78,54.33c-.26,.09-.51,.19-.76,.31,.03,0,.05,.02,.08,.02,.26,0,.51-.12,.67-.33"/><path id="Path_1248" class="cls-4" d="M17.1,57.09c-.47,.01-.84,.42-.83,.9,.01,.48,.41,.86,.88,.85,.46-.01,.83-.4,.83-.87,0-.23-.09-.45-.25-.61-.17-.17-.39-.26-.63-.26"/><path id="Path_1249" class="cls-4" d="M17.1,62.9c-.45,0-.83-.35-.86-.81v.05c.01,.49,.42,.88,.9,.86,.46-.01,.83-.39,.84-.86v-.04c-.04,.47-.42,.82-.88,.81"/><path id="Path_1250" class="cls-4" d="M15.89,55.87c0-.13-.04-.26-.1-.38-.37,.35-.68,.76-.9,1.23,.04,.01,.09,.02,.13,.02,.48,0,.87-.38,.87-.87,0,0,0,0,0,0"/><path id="Path_1251" class="cls-4" d="M19.2,55c-.47,.01-.84,.41-.83,.89s.4,.86,.87,.85c.46-.01,.83-.4,.83-.88-.01-.48-.4-.87-.87-.86"/><path id="Path_1252" class="cls-4" d="M15.02,60.92c.48,0,.87-.38,.88-.87v-.05c-.04,.49-.46,.86-.93,.82-.33-.03-.62-.25-.74-.57v.07c.11,.36,.44,.6,.81,.6"/><path id="Path_1253" class="cls-4" d="M19.2,60.82c-.46,0-.84-.36-.87-.82v.05c.01,.49,.42,.88,.9,.87,.46-.01,.83-.39,.85-.87v-.05c-.04,.47-.42,.83-.87,.82"/><path id="Path_1254" class="cls-4" d="M20.41,53.79c-.01,.49,.37,.9,.85,.92s.88-.38,.89-.87c.01-.49-.37-.9-.85-.92,0,0-.01,0-.02,0-.06,0-.13,.02-.19,.04-.1,.05-.2,.09-.3,.13-.24,.15-.39,.42-.39,.7"/><path id="Path_1255" class="cls-4" d="M25.46,52.91c-.47,0-.85,.4-.84,.89s.39,.87,.86,.86c.47,0,.84-.4,.84-.87,0-.49-.39-.88-.86-.87"/><path id="Path_1256" class="cls-4" d="M28.77,53.79c.01,.49,.42,.88,.9,.86,.46-.01,.83-.39,.84-.86,0-.05-.01-.1-.03-.14-.37-.2-.72-.43-1.06-.68-.38,.09-.65,.43-.65,.83"/><path id="Path_1257" class="cls-4" d="M21.29,57.09c-.47,.01-.84,.41-.83,.89s.4,.87,.87,.85c.46-.01,.83-.4,.83-.87,0-.49-.4-.88-.87-.87"/><path id="Path_1258" class="cls-4" d="M25.46,57.09c-.47,0-.85,.4-.84,.89s.39,.87,.86,.86c.47,0,.84-.4,.84-.87,0-.49-.39-.88-.86-.87"/><path id="Path_1259" class="cls-4" d="M29.64,58.84c.47,0,.86-.39,.86-.87,0-.23-.09-.45-.25-.62-.33-.35-.87-.37-1.22-.03-.35,.34-.36,.89-.03,1.25,.17,.18,.4,.28,.64,.28"/><path id="Path_1260" class="cls-4" d="M33.81,58.84c.47,0,.86-.39,.87-.87,0-.23-.09-.45-.25-.62-.17-.17-.39-.26-.62-.26-.47,0-.85,.39-.85,.87s.38,.87,.85,.87h0"/><path id="Path_1261" class="cls-4" d="M21.29,62.9c-.45,0-.83-.35-.87-.81,0,.01,0,.03,0,.05,.01,.49,.42,.88,.9,.87,.46-.01,.83-.39,.85-.87v-.05c-.04,.46-.42,.82-.87,.81"/><path id="Path_1262" class="cls-4" d="M25.46,62.9c-.45,0-.83-.35-.87-.81v.05c0,.23,.09,.46,.26,.62,.16,.16,.38,.25,.61,.25,.47,0,.86-.38,.86-.86,0,0,0,0,0,0v-.05c-.03,.46-.41,.82-.86,.81"/><path id="Path_1263" class="cls-4" d="M29.64,63c.47,0,.86-.38,.86-.86v-.05c-.04,.49-.46,.86-.94,.81-.42-.04-.76-.38-.79-.81v.05c0,.49,.4,.87,.87,.86"/><path id="Path_1264" class="cls-4" d="M33.81,63c.47,0,.86-.38,.87-.86,0,0,0,0,0,0v-.05c-.04,.49-.46,.86-.94,.81-.42-.04-.76-.38-.79-.81v.05c0,.48,.39,.87,.86,.86,0,0,0,0,0,0"/><path id="Path_1265" class="cls-4" d="M23.37,52.56c.47,.01,.86-.37,.87-.86,0,0,0,0,0,0,0-.05-.01-.09-.03-.14-.51,.23-1.01,.46-1.51,.68,.16,.2,.41,.32,.66,.32"/><path id="Path_1266" class="cls-4" d="M26.68,51.7c0,.49,.38,.88,.86,.88,.38,0,.71-.25,.82-.62-.29-.33-.53-.71-.71-1.12-.03,0-.07-.02-.1-.02-.47,0-.86,.38-.86,.87,0,0,0,0,0,0"/><path id="Path_1267" class="cls-4" d="M23.37,55c-.47,.01-.84,.42-.82,.9s.4,.86,.87,.84c.46-.01,.83-.4,.82-.88,0-.49-.4-.87-.87-.86"/><path id="Path_1268" class="cls-4" d="M27.55,55c-.47,.01-.84,.41-.82,.89,.01,.48,.4,.86,.87,.85,.46-.01,.83-.4,.82-.88,0-.48-.4-.87-.87-.86"/><path id="Path_1269" class="cls-4" d="M31.73,56.74c.48,0,.87-.38,.87-.87,0,0,0,0,0,0,0-.23-.09-.45-.26-.61-.16-.17-.38-.26-.62-.26-.47,0-.85,.39-.85,.87,0,.48,.38,.87,.85,.87h0"/><path id="Path_1270" class="cls-4" d="M35.91,56.74h.06c-.47-.02-.83-.43-.81-.9,.02-.45,.37-.81,.81-.83-.02,0-.04,0-.06,0-.47,0-.85,.39-.85,.87,0,.48,.38,.87,.85,.87h0"/><path id="Path_1271" class="cls-4" d="M23.37,60.82c-.23,0-.45-.09-.61-.26-.15-.15-.24-.35-.25-.56v.05c0,.23,.09,.45,.25,.62,.16,.16,.38,.26,.61,.26,.48,0,.87-.38,.87-.87,0,0,0,0,0,0v-.05c-.03,.47-.42,.83-.87,.82"/><path id="Path_1272" class="cls-4" d="M27.55,60.82c-.23,0-.45-.09-.62-.26-.15-.15-.24-.35-.25-.56v.05c0,.23,.09,.45,.25,.62,.16,.17,.38,.26,.62,.26,.48,0,.87-.39,.87-.87,0,0,0,0,0,0v-.05c-.03,.47-.41,.83-.87,.82"/><path id="Path_1273" class="cls-4" d="M31.73,60.92c.48,0,.87-.39,.87-.87v-.05c-.04,.49-.46,.86-.94,.82-.43-.03-.77-.38-.8-.82v.05c0,.49,.4,.88,.87,.87"/><path id="Path_1274" class="cls-4" d="M35.91,60.92h.06c-.22-.02-.42-.11-.57-.27-.21-.15-.34-.39-.36-.65v.05c0,.49,.4,.88,.87,.87"/><path id="Path_1275" class="cls-4" d="M15.02,60.82c.46,0,.84-.36,.87-.82v-.05c0-.23-.09-.46-.26-.62-.17-.16-.39-.25-.62-.25-.28,0-.53,.14-.69,.37l-.11,.8c.13,.34,.45,.57,.81,.57"/><path id="Path_1276" class="cls-4" d="M17.73,61.42c-.17-.16-.39-.25-.63-.25-.47,0-.86,.38-.86,.87,0,0,0,0,0,0v.05c.05,.49,.47,.85,.95,.81,.42-.04,.75-.38,.79-.81v-.05c0-.23-.09-.46-.25-.62"/><path id="Path_1277" class="cls-4" d="M17.98,66.21c0-.23-.09-.45-.25-.61-.17-.16-.39-.25-.63-.25-.43,0-.79,.32-.84,.76,.43,.28,.86,.57,1.3,.83,.26-.15,.42-.43,.42-.73"/><path id="Path_1278" class="cls-4" d="M19.2,59.09c-.47,0-.86,.38-.87,.86v.05c.04,.49,.46,.86,.94,.82,.43-.03,.77-.38,.8-.82v-.05c-.01-.48-.4-.87-.87-.86"/><path id="Path_1279" class="cls-4" d="M15.02,63.25c-.47,.01-.84,.41-.83,.9,.01,.48,.4,.86,.87,.85,.46-.01,.83-.4,.83-.87,0-.23-.09-.46-.26-.61-.16-.17-.38-.26-.62-.26"/><path id="Path_1280" class="cls-4" d="M19.2,63.25c-.47,.01-.84,.41-.83,.89s.4,.87,.87,.85c.46-.01,.83-.4,.83-.87,0-.49-.4-.88-.87-.87"/><path id="Path_1281" class="cls-4" d="M19.2,67.43c-.17,0-.33,.06-.47,.16,.44,.24,.89,.48,1.34,.7-.01-.48-.4-.86-.87-.86"/><path id="Path_1282" class="cls-4" d="M23.37,59.09c-.47,0-.86,.38-.86,.86v.05c.01,.21,.1,.41,.25,.56,.34,.35,.9,.35,1.24,0,.14-.15,.23-.35,.25-.55v-.05c0-.48-.4-.87-.87-.86,0,0,0,0,0,0"/><path id="Path_1283" class="cls-4" d="M27.55,59.09c-.47,0-.86,.38-.86,.86v.05c.01,.21,.1,.41,.25,.56,.16,.17,.38,.26,.62,.26,.46,0,.84-.35,.87-.82v-.05c0-.48-.4-.87-.87-.86,0,0,0,0,0,0"/><path id="Path_1284" class="cls-4" d="M31.73,60.82c.46,0,.84-.36,.87-.82v-.05c0-.23-.09-.46-.26-.62-.17-.16-.39-.25-.62-.25-.47,0-.86,.38-.87,.86v.05c.04,.47,.42,.82,.87,.82"/><path id="Path_1285" class="cls-4" d="M21.29,61.17c-.48,0-.87,.38-.87,.87,0,0,0,0,0,0,0,.02,0,.03,0,.05,.04,.49,.47,.86,.95,.81,.42-.04,.75-.38,.79-.81v-.05c0-.49-.39-.88-.87-.87,0,0,0,0,0,0"/><path id="Path_1286" class="cls-4" d="M25.46,61.17c-.48,0-.87,.38-.87,.87,0,0,0,0,0,0v.05c.04,.49,.46,.86,.94,.81,.42-.04,.76-.38,.79-.81v-.05c0-.48-.39-.88-.86-.87,0,0,0,0,0,0"/><path id="Path_1287" class="cls-4" d="M29.64,62.91c.45,0,.83-.35,.86-.81v-.05c0-.23-.09-.46-.25-.63-.17-.16-.39-.25-.62-.25-.48,0-.87,.38-.87,.87,0,0,0,0,0,0v.05c.04,.46,.42,.82,.87,.81"/><path id="Path_1288" class="cls-4" d="M33.81,62.91c.45,0,.84-.35,.87-.81v-.05c0-.23-.09-.46-.25-.63-.17-.16-.39-.25-.62-.25-.47,0-.86,.38-.86,.87,0,0,0,0,0,0v.05c.03,.46,.41,.82,.86,.81"/><path id="Path_1289" class="cls-4" d="M21.29,65.35c-.47,.01-.84,.41-.82,.89s.4,.86,.87,.84c.46-.01,.83-.4,.82-.88-.01-.48-.4-.87-.87-.86"/><path id="Path_1290" class="cls-4" d="M25.46,65.35c-.47,.01-.84,.41-.83,.89s.4,.86,.86,.85c.46-.01,.83-.4,.83-.87,0-.48-.39-.87-.86-.86"/><path id="Path_1291" class="cls-4" d="M29.64,67.08c.47,0,.86-.39,.86-.87,0-.23-.09-.45-.25-.62-.17-.16-.39-.25-.62-.25-.47-.02-.86,.35-.88,.83-.02,.48,.34,.88,.81,.9,.02,0,.05,0,.07,0"/><path id="Path_1292" class="cls-4" d="M33.81,67.08c.48,0,.87-.38,.87-.87,0,0,0,0,0,0,0-.23-.09-.45-.25-.62-.17-.16-.39-.25-.62-.25-.47,0-.85,.39-.85,.87,0,.48,.38,.87,.85,.87h0"/><path id="Path_1293" class="cls-4" d="M25.47,69.52c-.39,0-.73,.27-.83,.65,.54,.18,1.09,.34,1.64,.5,.03-.09,.05-.18,.05-.28,0-.49-.39-.88-.86-.88"/><path id="Path_1294" class="cls-4" d="M29.64,71.26c.47,0,.86-.39,.86-.87,0-.23-.09-.45-.25-.62-.17-.16-.39-.26-.62-.26-.47,0-.85,.39-.85,.87s.38,.87,.85,.87"/><path id="Path_1295" class="cls-4" d="M33.81,71.26c.47,0,.86-.38,.87-.87,0-.23-.09-.45-.25-.62-.17-.16-.39-.26-.62-.26-.47,0-.85,.39-.85,.87s.38,.87,.85,.87"/><path id="Path_1296" class="cls-4" d="M35.15,60.05v-.1c.01-.46,.37-.84,.82-.86h-.06c-.47,0-.86,.38-.87,.86v.05c.02,.26,.15,.5,.36,.65-.16-.16-.24-.38-.24-.61"/><path id="Path_1297" class="cls-4" d="M23.37,63.25c-.47,.01-.84,.41-.83,.9,.01,.48,.4,.86,.87,.85,.46-.01,.83-.4,.83-.87,0-.49-.39-.88-.87-.87,0,0,0,0,0,0"/><path id="Path_1298" class="cls-4" d="M27.55,63.25c-.47,.01-.84,.41-.83,.89,.01,.48,.4,.86,.87,.85,.46-.01,.83-.4,.83-.87,0-.49-.39-.88-.87-.87,0,0,0,0,0,0"/><path id="Path_1299" class="cls-4" d="M31.73,65c.47,0,.86-.39,.87-.87,0-.23-.09-.46-.26-.62-.16-.17-.38-.26-.62-.26-.47,0-.85,.39-.85,.87s.38,.87,.85,.87h0"/><path id="Path_1300" class="cls-4" d="M35.91,65h.06c-.47-.02-.84-.42-.82-.9,.01-.46,.37-.83,.82-.85h-.06c-.47,0-.85,.39-.85,.87s.38,.87,.85,.87h0"/><path id="Path_1301" class="cls-4" d="M23.37,67.43c-.47,.02-.83,.42-.82,.9,.01,.48,.41,.86,.87,.84,.46-.01,.82-.4,.82-.87,0-.48-.39-.87-.86-.87,0,0,0,0,0,0"/><path id="Path_1302" class="cls-4" d="M27.55,67.43c-.47,.01-.84,.41-.82,.89,.01,.48,.4,.86,.87,.84,.46-.01,.82-.4,.82-.87,0-.48-.39-.87-.86-.87,0,0,0,0,0,0"/><path id="Path_1303" class="cls-4" d="M31.73,69.17c.47,0,.86-.38,.87-.86,0-.23-.09-.45-.26-.61-.16-.17-.38-.26-.62-.26-.47-.02-.86,.35-.88,.83-.02,.48,.34,.88,.81,.9,.02,0,.05,0,.07,0"/><path id="Path_1304" class="cls-4" d="M35.91,69.17h.06c-.47-.02-.83-.43-.81-.9,.02-.45,.37-.81,.81-.83h-.06c-.47-.02-.86,.35-.88,.83-.02,.48,.34,.88,.81,.9,.02,0,.05,0,.07,0"/><path id="Path_1305" class="cls-4" d="M31.36,71.7c.3,.04,.6,.08,.91,.11-.15-.13-.34-.21-.54-.21-.13,0-.25,.03-.37,.09"/><path id="Path_1306" class="cls-4" d="M35.96,71.61h-.06c-.28,0-.54,.14-.7,.37,.04,0,.07,0,.11,0,.15-.22,.39-.36,.65-.38"/><path id="Path_1307" class="cls-4" d="M42.29,54.66c.48,0,.86-.39,.87-.87,0-.4-.29-.75-.67-.83-.33,.24-.67,.46-1.03,.65-.02,.06-.03,.12-.03,.18,0,.49,.39,.88,.86,.87"/><path id="Path_1308" class="cls-4" d="M46.47,54.66c.48,0,.86-.39,.87-.87,0-.23-.09-.46-.26-.62-.16-.16-.39-.26-.62-.26-.47,0-.85,.39-.85,.87s.38,.87,.85,.87h0"/><path id="Path_1309" class="cls-4" d="M49.76,53.79c0,.49,.39,.9,.87,.9s.87-.4,.87-.9c0-.23-.1-.45-.26-.61-.04-.03-.09-.06-.13-.09-.1-.04-.19-.09-.29-.13-.06-.02-.12-.03-.19-.04-.48,0-.87,.38-.87,.87,0,0,0,0,0,0"/><path id="Path_1310" class="cls-4" d="M38.11,58.84c.47,0,.85-.4,.84-.89,0-.48-.39-.87-.86-.86-.47,0-.84,.4-.84,.87,0,.48,.39,.87,.86,.87"/><path id="Path_1311" class="cls-4" d="M42.29,58.84c.47,0,.85-.4,.84-.89,0-.48-.39-.87-.86-.86-.47,0-.84,.4-.84,.87,0,.49,.39,.88,.86,.87"/><path id="Path_1312" class="cls-4" d="M46.47,58.84c.47,0,.86-.39,.87-.87,0-.23-.09-.46-.26-.62-.16-.17-.38-.26-.62-.26-.47,0-.85,.39-.85,.87s.38,.87,.85,.87h0"/><path id="Path_1313" class="cls-4" d="M50.64,58.84c.47,0,.86-.39,.87-.87,0-.23-.09-.46-.26-.62-.16-.17-.38-.26-.62-.26-.47,0-.85,.39-.85,.87s.38,.87,.85,.87h0"/><path id="Path_1314" class="cls-4" d="M38.11,63c.47,0,.86-.38,.87-.86,0,0,0,0,0,0v-.05c-.04,.49-.46,.86-.94,.81-.42-.04-.76-.38-.79-.81v.05c0,.48,.39,.87,.86,.86,0,0,0,0,0,0"/><path id="Path_1315" class="cls-4" d="M41.67,62.75c.17,.16,.39,.25,.62,.25,.47,0,.86-.37,.87-.86,0,0,0,0,0,0v-.05c-.05,.49-.47,.85-.95,.81-.42-.04-.75-.38-.79-.81v.05c0,.23,.09,.45,.25,.61"/><path id="Path_1316" class="cls-4" d="M46.47,63c.47,0,.86-.38,.87-.86v-.05c-.05,.49-.47,.85-.95,.81-.42-.04-.75-.38-.79-.81v.05c0,.48,.4,.87,.87,.86"/><path id="Path_1317" class="cls-4" d="M50.64,63c.47,0,.86-.38,.87-.86v-.05c-.04,.49-.47,.86-.95,.81-.42-.04-.76-.38-.79-.81v.05c0,.49,.4,.87,.87,.86"/><path id="Path_1318" class="cls-4" d="M44.38,52.56c.47,0,.85-.39,.85-.87s-.38-.87-.85-.87c-.04,0-.08,.01-.12,.03-.07,.17-.15,.34-.25,.5-.14,.22-.29,.42-.45,.61,.12,.36,.45,.61,.82,.6"/><path id="Path_1319" class="cls-4" d="M48.55,52.56c.26,0,.5-.12,.67-.33-.49-.22-1-.45-1.51-.68-.01,.05-.02,.09-.03,.14,0,.48,.39,.87,.86,.86"/><path id="Path_1320" class="cls-4" d="M35.15,55.87c0,.47,.36,.85,.82,.87h.06c.47,.01,.86-.36,.87-.84s-.35-.88-.82-.9c-.02,0-.03,0-.05,0-.02,0-.04,0-.06,0-.45,.02-.81,.4-.82,.86"/><path id="Path_1321" class="cls-4" d="M40.2,56.74c.47-.01,.84-.41,.83-.89s-.4-.86-.87-.85c-.46,.01-.82,.4-.83,.87,0,.48,.39,.88,.86,.87,0,0,0,0,.01,0"/><path id="Path_1322" class="cls-4" d="M44.38,56.74c.47-.01,.84-.42,.82-.9-.01-.48-.4-.86-.87-.84-.46,.01-.82,.4-.82,.87,0,.49,.39,.88,.86,.87,0,0,0,0,.01,0"/><path id="Path_1323" class="cls-4" d="M48.55,56.74c.47,.02,.86-.36,.87-.84,0-.24-.08-.48-.25-.65-.17-.17-.39-.26-.62-.26-.47,0-.85,.39-.85,.87,0,.48,.38,.87,.85,.87h0"/><path id="Path_1324" class="cls-4" d="M52.73,56.74c.47,0,.84-.41,.83-.89,0-.48-.4-.86-.86-.85-.46,0-.83,.39-.83,.87,0,.49,.39,.88,.86,.87"/><path id="Path_1325" class="cls-4" d="M36.02,60.82c-.46,0-.84-.36-.87-.82v.05c0,.23,.09,.45,.24,.61,.15,.16,.36,.25,.57,.26h.06c.48,0,.87-.38,.87-.87v-.05c-.04,.47-.42,.82-.87,.82"/><path id="Path_1326" class="cls-4" d="M39.58,60.66c.16,.17,.38,.26,.62,.26,.47,0,.86-.39,.86-.87v-.05c-.03,.46-.41,.82-.86,.82-.23,0-.45-.09-.62-.26-.15-.15-.25-.35-.26-.56v.05c0,.23,.09,.46,.26,.61"/><path id="Path_1327" class="cls-4" d="M43.75,60.66c.17,.17,.39,.26,.62,.26,.47,0,.86-.39,.86-.87v-.05c-.03,.47-.41,.83-.86,.82-.23,0-.46-.09-.62-.26-.15-.15-.24-.35-.25-.56v.05c0,.23,.09,.45,.25,.61"/><path id="Path_1328" class="cls-4" d="M48.55,60.92c.48,0,.87-.38,.87-.87,0,0,0,0,0,0,0-.02,0-.03,0-.05-.04,.49-.45,.86-.93,.82-.43-.03-.77-.38-.8-.82v.05c0,.49,.39,.88,.86,.87"/><path id="Path_1329" class="cls-4" d="M52.73,60.92c.48,0,.87-.38,.87-.87,0,0,0,0,0,0v-.05c-.04,.49-.45,.86-.93,.82-.43-.03-.77-.38-.8-.82v.05c0,.49,.39,.88,.86,.87"/><path id="Path_1330" class="cls-4" d="M54.82,54.66s.05-.02,.08-.02c-.24-.12-.49-.22-.75-.3,.16,.2,.41,.32,.66,.32"/><path id="Path_1331" class="cls-4" d="M54.82,58.84c.47-.01,.84-.41,.83-.89-.01-.48-.4-.87-.87-.85-.46,.01-.83,.4-.83,.87,0,.49,.39,.88,.87,.87,0,0,0,0,0,0"/><path id="Path_1332" class="cls-4" d="M54.82,63c.47,0,.86-.38,.86-.86,0,0,0,0,0,0v-.05c-.04,.49-.46,.86-.94,.81-.42-.04-.76-.38-.79-.81v.05c0,.48,.4,.87,.87,.86,0,0,0,0,0,0"/><path id="Path_1333" class="cls-4" d="M56.91,56.74s.09-.01,.13-.03c-.23-.46-.53-.88-.91-1.23-.06,.12-.1,.25-.1,.38,0,.49,.4,.88,.88,.87,0,0,0,0,0,0"/><path id="Path_1334" class="cls-4" d="M56.91,60.82c-.23,0-.45-.09-.62-.26-.15-.15-.25-.35-.26-.56v.05c0,.23,.09,.46,.26,.62,.16,.17,.39,.26,.62,.26,.37,0,.7-.25,.82-.61v-.07c-.13,.35-.46,.58-.82,.58"/><path id="Path_1335" class="cls-4" d="M35.15,59.95v.05c.04,.49,.47,.86,.95,.81,.42-.04,.76-.38,.79-.81v-.05c-.01-.48-.4-.87-.87-.86h-.06c-.45,.02-.81,.4-.82,.86"/><path id="Path_1336" class="cls-4" d="M40.2,60.82c.46,0,.83-.36,.86-.82v-.05c-.02-.49-.43-.87-.9-.85-.45,.02-.81,.39-.83,.85v.05c.01,.21,.1,.42,.26,.56,.16,.17,.38,.26,.62,.26"/><path id="Path_1337" class="cls-4" d="M44.38,60.82c.45,0,.83-.36,.86-.82v-.05c-.01-.49-.42-.88-.9-.86-.46,.01-.83,.39-.84,.86v.05c.01,.21,.1,.41,.25,.56,.17,.17,.39,.26,.62,.26"/><path id="Path_1338" class="cls-4" d="M48.55,60.82c.46,0,.84-.36,.87-.82,0-.02,0-.03,0-.05,0-.23-.09-.45-.25-.62-.17-.16-.39-.25-.62-.25-.47,0-.86,.38-.86,.86v.05c.03,.47,.41,.83,.86,.82"/><path id="Path_1339" class="cls-4" d="M38.11,62.91c.45,0,.84-.35,.87-.81v-.05c0-.49-.39-.89-.87-.89s-.87,.4-.87,.89h0v.05c.03,.46,.41,.82,.86,.81"/><path id="Path_1340" class="cls-4" d="M42.29,62.91c.45,0,.84-.35,.87-.81v-.05c0-.49-.39-.89-.87-.89-.48,0-.87,.4-.87,.89v.05c.03,.46,.41,.82,.86,.81"/><path id="Path_1341" class="cls-4" d="M46.47,62.91c.45,0,.84-.35,.87-.81v-.05c0-.24-.09-.46-.26-.63-.17-.16-.39-.25-.62-.25-.48,0-.87,.38-.87,.87,0,0,0,0,0,0v.05c.04,.47,.42,.82,.87,.81"/><path id="Path_1342" class="cls-4" d="M50.64,62.91c.45,0,.84-.35,.87-.81v-.05c0-.49-.39-.88-.87-.88,0,0,0,0,0,0-.48,0-.87,.38-.87,.87,0,0,0,0,0,0v.05c.04,.46,.42,.82,.87,.81"/><path id="Path_1343" class="cls-4" d="M38.11,67.08c.47-.01,.84-.41,.83-.89s-.4-.86-.86-.85c-.46,.01-.82,.39-.83,.86,0,.49,.39,.88,.86,.87"/><path id="Path_1344" class="cls-4" d="M42.29,67.08c.47-.01,.84-.41,.83-.89s-.4-.86-.86-.85c-.46,.01-.82,.39-.83,.86,0,.48,.39,.88,.86,.87,0,0,0,0,0,0"/><path id="Path_1345" class="cls-4" d="M46.47,67.08c.48,0,.87-.38,.87-.87,0,0,0,0,0,0,0-.23-.1-.46-.26-.62-.17-.16-.39-.25-.62-.25-.47-.02-.86,.35-.88,.83-.02,.48,.34,.88,.81,.9,.02,0,.05,0,.07,0"/><path id="Path_1346" class="cls-4" d="M50.64,67.08c.48,0,.87-.38,.87-.87,0,0,0,0,0,0,0-.48-.39-.87-.86-.86,0,0,0,0-.01,0-.47-.02-.86,.35-.88,.83-.02,.48,.34,.88,.81,.9,.02,0,.05,0,.07,0"/><path id="Path_1347" class="cls-4" d="M38.11,71.26c.47,0,.85-.4,.84-.89s-.39-.87-.86-.86c-.47,0-.84,.4-.84,.88,0,.48,.39,.87,.86,.87"/><path id="Path_1348" class="cls-4" d="M42.29,71.26c.47,0,.85-.4,.84-.89s-.39-.87-.86-.86c-.47,0-.84,.4-.84,.88,0,.49,.39,.88,.86,.87"/><path id="Path_1349" class="cls-4" d="M46.47,69.52c-.48,0-.87,.39-.87,.88,0,.1,.02,.19,.06,.28,.55-.15,1.1-.32,1.64-.5-.03-.15-.11-.29-.22-.39-.16-.16-.39-.26-.62-.26"/><path id="Path_1350" class="cls-4" d="M52.73,60.82c.46,0,.84-.36,.87-.82v-.05c-.01-.49-.42-.88-.9-.86-.46,.01-.83,.39-.84,.86v.05c.03,.46,.41,.82,.86,.82"/><path id="Path_1351" class="cls-4" d="M35.15,64.13c0,.47,.36,.85,.82,.87h.06c.47,0,.86-.38,.87-.87,0-.23-.1-.45-.26-.61-.16-.17-.38-.26-.62-.26h-.06c-.45,.03-.81,.41-.82,.87"/><path id="Path_1352" class="cls-4" d="M40.2,65c.47-.01,.84-.41,.83-.89,0-.48-.4-.87-.87-.86-.47,.01-.84,.4-.83,.88,0,.49,.4,.88,.87,.87"/><path id="Path_1353" class="cls-4" d="M44.38,65c.47-.01,.84-.41,.83-.9-.01-.48-.4-.86-.87-.85-.46,.01-.83,.4-.83,.87,0,.49,.4,.88,.87,.87"/><path id="Path_1354" class="cls-4" d="M48.55,65c.48,0,.87-.39,.87-.87,0-.23-.09-.45-.25-.62-.17-.17-.39-.26-.62-.26-.47,0-.85,.39-.85,.87s.38,.87,.85,.87h0"/><path id="Path_1355" class="cls-4" d="M52.73,65c.47,0,.85-.4,.84-.89,0-.48-.39-.87-.86-.86-.47,0-.84,.4-.84,.87,0,.48,.39,.87,.86,.87"/><path id="Path_1356" class="cls-4" d="M35.15,68.3c0,.46,.37,.84,.82,.86h.06c.47,0,.86-.38,.87-.86,0-.23-.1-.45-.26-.61-.16-.17-.38-.26-.62-.26h-.06c-.45,.02-.81,.4-.82,.87"/><path id="Path_1357" class="cls-4" d="M40.2,69.17c.47-.01,.84-.41,.82-.89-.01-.48-.4-.86-.87-.84-.46,.01-.83,.4-.82,.87,0,.48,.39,.87,.86,.86,0,0,0,0,0,0"/><path id="Path_1358" class="cls-4" d="M44.38,69.17c.47-.02,.83-.42,.82-.9-.01-.48-.41-.86-.87-.84-.46,.01-.82,.4-.82,.87,0,.48,.39,.87,.87,.86,0,0,0,0,0,0"/><path id="Path_1359" class="cls-4" d="M48.55,69.17c.47,.01,.86-.37,.87-.86,0,0,0,0,0,0,0-.23-.09-.45-.25-.61-.17-.17-.39-.26-.62-.26-.47,0-.85,.39-.85,.87s.38,.87,.85,.87"/><path id="Path_1360" class="cls-4" d="M51.86,68.29c.45-.22,.9-.46,1.34-.7-.14-.1-.31-.16-.48-.16-.47,0-.85,.38-.86,.86"/><path id="Path_1361" class="cls-4" d="M36.02,71.61h-.06c-.26,.03-.5,.16-.65,.38,.22,0,.43,.01,.65,.01,.25,0,.5-.01,.75-.02-.02-.04-.05-.08-.08-.12-.16-.17-.38-.26-.62-.26"/><path id="Path_1362" class="cls-4" d="M39.65,71.81c.31-.03,.61-.08,.91-.11-.3-.16-.66-.11-.91,.11"/><path id="Path_1363" class="cls-4" d="M56.91,59.09c-.47,0-.87,.37-.88,.86v.05c.02,.21,.11,.42,.26,.56,.16,.17,.39,.26,.62,.26,.36,0,.68-.23,.81-.58l-.11-.78c-.16-.23-.42-.37-.7-.38"/><path id="Path_1364" class="cls-4" d="M54.82,62.91c.45,0,.83-.35,.86-.81v-.05c0-.49-.39-.89-.87-.89s-.87,.4-.87,.89h0v.05c.04,.46,.42,.82,.87,.81"/><path id="Path_1365" class="cls-4" d="M54.82,65.35c-.47,0-.86,.38-.87,.86,0,0,0,0,0,0,0,.3,.16,.58,.42,.73,.44-.26,.86-.55,1.3-.83-.05-.44-.42-.77-.85-.76"/><path id="Path_1366" class="cls-4" d="M56.91,65c.47-.01,.84-.42,.83-.9-.01-.48-.41-.86-.88-.85-.46,.01-.83,.4-.83,.88,0,.49,.4,.88,.88,.87"/><path id="Path_1367" class="cls-13" d="M51.73,25.55c0,11.71-7.17,21.19-16.03,21.19s-16.03-9.49-16.03-21.19S26.85,4.35,35.71,4.35s16.03,9.49,16.03,21.2"/><path id="Path_1368" class="cls-6" d="M49.03,27.01c0,10.37-2.93,20.35-13.19,20.35s-13.19-9.99-13.19-20.35,5.91-18.78,13.19-18.78,13.19,8.4,13.19,18.78"/><path id="Path_1369" class="cls-6" d="M25.42,29.71c.01,2.25-1.12,4.09-2.53,4.1s-2.57-1.82-2.58-4.07,1.12-4.09,2.53-4.1,2.57,1.81,2.58,4.07"/><path id="Path_1370" class="cls-6" d="M51.36,29.68c.01,2.25-1.12,4.09-2.53,4.1s-2.57-1.82-2.58-4.07,1.12-4.09,2.53-4.1,2.57,1.82,2.58,4.07"/><path id="Path_1371" class="cls-13" d="M35.84,12.15c12.8,0,12.09,6.33,13.62,13.69,.28-1.35,.42-2.73,.42-4.11,0-9.35-6.28-16.92-14.03-16.92s-14.04,7.57-14.04,16.92c0,1.38,.14,2.76,.42,4.11,1.52-7.36,.86-13.69,13.62-13.69"/><path id="Path_1372" class="cls-10" d="M38.41,37.44c-.17-.22-.63-.2-.68-.2-.23,.01-.46,.09-.66,.21l-.07,.04c-.36,.23-.77,.36-1.19,.39-.42-.03-.83-.16-1.19-.39l-.07-.04c-.2-.13-.42-.2-.65-.21-.05,0-.51-.01-.68,.2-.07,.09-.08,.21-.01,.31,.11,.15,.29,.22,.47,.19,.27,.01,.55-.04,.8-.14,.4,.24,.86,.38,1.32,.41h.03c.47-.02,.92-.16,1.32-.41,.25,.1,.53,.15,.8,.14,.18,.03,.36-.04,.47-.19,.06-.1,.06-.22-.01-.31"/><path id="Path_1373" class="cls-4" d="M29.06,29.45c-.97-.05-1.72-.87-1.72-1.87-.87,.11-1.73,.29-2.56,.56,1.1,.75,2.36,1.21,3.67,1.34,1.3,.06,2.59-.21,3.77-.79-.36-.17-.79-.36-1.26-.54-.27,.82-1.05,1.36-1.89,1.29"/><path id="Path_1374" class="cls-8" d="M27.34,27.58c0,.99,.75,1.81,1.72,1.87,.85,.07,1.62-.47,1.89-1.29-.79-.32-1.61-.52-2.46-.61-.39-.02-.77-.01-1.16,.03"/><path id="Path_1375" class="cls-9" d="M32.41,28.6c-.44-.31-.91-.57-1.39-.8-.78-.37-1.62-.6-2.47-.67-.39-.03-.78-.02-1.16,.03-.98,.12-1.92,.41-2.81,.86-.3,.15-.59,.32-.88,.51,0,0,.43-.17,1.07-.38,.84-.27,1.7-.46,2.57-.56,.38-.05,.77-.06,1.15-.03,.84,.08,1.67,.29,2.46,.61,.47,.18,.91,.37,1.26,.54,.57,.27,.94,.49,.94,.49-.23-.21-.48-.41-.74-.59"/><path id="Path_1376" class="cls-9" d="M29.63,28.39c-.03,.32-.3,.56-.62,.54-.31-.02-.55-.29-.54-.61,0,0,0,0,0,0,.02-.33,.3-.58,.62-.55s.56,.3,.54,.63h0"/><path id="Path_1377" class="cls-4" d="M29.3,28.51c-.01,.1-.1,.18-.2,.17-.1,0-.18-.1-.17-.2,.01-.1,.1-.18,.2-.17,.1,0,.18,.1,.17,.2"/><path id="Path_1378" class="cls-4" d="M42.5,29.45c.97-.05,1.72-.87,1.72-1.87,.87,.11,1.73,.29,2.57,.56-1.1,.75-2.36,1.21-3.67,1.34-1.3,.06-2.59-.21-3.77-.79,.36-.17,.79-.36,1.27-.54,.27,.83,1.05,1.36,1.89,1.29"/><path id="Path_1379" class="cls-8" d="M44.22,27.58c0,.99-.75,1.81-1.72,1.87-.85,.06-1.63-.47-1.89-1.29,.79-.32,1.61-.52,2.45-.61,.39-.03,.77-.01,1.16,.03"/><path id="Path_1380" class="cls-9" d="M39.14,28.6c.44-.31,.91-.57,1.39-.8,.78-.37,1.61-.6,2.47-.67,.39-.03,.78-.02,1.16,.03,.98,.12,1.92,.41,2.81,.86,.3,.15,.6,.32,.88,.51,0,0-.43-.17-1.07-.38-.84-.27-1.69-.46-2.56-.56-.38-.05-.77-.06-1.16-.03-.84,.08-1.67,.29-2.45,.61-.47,.18-.91,.37-1.26,.54-.57,.27-.94,.49-.94,.49,.24-.21,.48-.41,.74-.59"/><path id="Path_1381" class="cls-9" d="M41.93,28.39c.03,.32,.31,.56,.62,.54,.31-.03,.54-.32,.5-.64-.03-.32-.31-.55-.62-.52-.3,.03-.52,.3-.5,.61"/><path id="Path_1382" class="cls-4" d="M42.26,28.51c0,.1,.1,.18,.2,.17,.1,0,.18-.1,.18-.2-.01-.1-.1-.18-.2-.17-.1,0-.18,.1-.17,.2"/><path id="Path_1383" class="cls-7" d="M39.21,40.45s-1.03-.29-1.22-.39c-.39-.21-.8-.36-1.23-.44-.34,0-.66,.27-.88,.27h-.02c-.22,0-.54-.27-.88-.27-.43,.07-.85,.22-1.23,.44-.19,.1-1.22,.39-1.22,.39,.03,.25,1.22,.92,1.33,1.04,.4,.49,1.01,.75,1.63,.7,.14,.02,.28-.03,.39-.12,.11,.1,.25,.14,.39,.12,.62,.06,1.23-.21,1.63-.7,.12-.13,1.21-.78,1.28-.92h.01s-.01,0-.01,0c.02-.04,.03-.08,.04-.12"/><path id="Path_1384" class="cls-13" d="M45.46,9.07c-2.03-1.05-4.11-1.79-6.17-2.74-1.63-.76-4.95,.68-4.22,1.51-8.89-1.54-14.33,11.52-13.54,12.05,2.57,1.6,5.61,2.19,8.57,1.68,2.87-.4,6.22-1.43,9.24-.23,1.42,.52,2.7,1.37,3.75,2.47,.73,.99,1.25,2.12,1.55,3.32,.49,1.69,.82,3.43,.96,5.19,.29-2.22,.27-4.47-.04-6.69-.36-2.57-1.26-5.82-3.79-7.71,.21,.12,.41,.26,.61,.4,1.23,.86,2.25,2,2.99,3.32,.47,1.13,.72,2.34,.74,3.57,.1,1.75,.03,3.5-.21,5.24,.26-.71,2.75-5.77,3.61-7.77,1.25-2.88-2.51-12.81-4.05-13.61"/></g></g></g></svg>