<?xml version="1.0" encoding="UTF-8"?><svg id="Layer_27" xmlns="http://www.w3.org/2000/svg" xmlns:xlink="http://www.w3.org/1999/xlink" viewBox="0 0 72 72"><defs><style>.cls-1{fill:none;}.cls-2{clip-path:url(#clippath);}.cls-3{fill:#f3d2b3;}.cls-4{fill:#f8dec5;}.cls-5{fill:#ec625b;}.cls-6{fill:#fff;}.cls-7{fill:#fbb316;}.cls-8{fill:#e66b5b;}.cls-9{fill:#cca884;}.cls-10{fill:#d59529;}.cls-11{fill:#dfc5ad;}.cls-12{fill:#130d0a;}.cls-13{fill:#41b5b7;}.cls-14{fill:#110e0d;}.cls-15{fill:#9b6743;}.cls-16{fill:#308584;}</style><clipPath id="clippath"><rect class="cls-1" width="72" height="72"/></clipPath></defs><g id="Group_476"><g class="cls-2"><g id="Group_475"><path id="Path_1683" class="cls-8" d="M72,36c0,19.88-16.12,36-36,36S0,55.88,0,36,16.12,0,36,0s36,16.12,36,36"/><path id="Path_1684" class="cls-10" d="M53.45,43.87c0,9.39-7.61,17-17,17-9.39,0-17-7.61-17-17,0-9.39,7.61-17,17-17h0c9.39,0,17,7.61,17,17"/><rect id="Rectangle_381" class="cls-16" x="29.84" y="53.41" width="13.55" height="4.56"/><path id="Path_1685" class="cls-11" d="M29.26,61.91c.93-5.35,2.8-10.61,2.8-16.04h9.1c0,5.43,1.87,10.7,2.8,16.04-4.86,.85-9.84,.85-14.7,0"/><path id="Path_1686" class="cls-13" d="M51.11,56.81c-1.04-.35-4.85-2.07-7.71-3.38h-.02s0,0,0,0c-.17,.87-.66,1.64-1.38,2.17-.7,.55-1.48,.97-2.33,1.25h0c-1.98,.69-4.13,.69-6.1,0h0c-.84-.28-1.63-.7-2.32-1.26-.72-.52-1.21-1.29-1.39-2.17h-.02c-2.87,1.32-6.68,3.04-7.71,3.39-1.62,.43-2.75,1.9-2.74,3.57,0,0-.58,3.43-1.09,6.96,5.4,3.06,11.5,4.67,17.71,4.67,6.65,0,13.17-1.83,18.83-5.32-.48-3.28-.99-6.3-.99-6.3,0-1.68-1.12-3.15-2.74-3.57"/><path id="Path_1687" class="cls-13" d="M48.57,57.61c-2.84,1.03-4.3,4.17-3.27,7.01,0,0,0,0,0,0l2.02,5.55c3.51-1.17,6.81-2.86,9.8-5.03l-1.55-4.26c-1.03-2.84-4.17-4.3-7.01-3.27"/><path id="Path_1688" class="cls-13" d="M25.84,57.79c-2.47-1.73-5.88-1.13-7.61,1.34,0,0,0,0,0,0l-3.92,5.6c2.95,2.23,6.22,3.98,9.7,5.21l3.18-4.54c1.73-2.47,1.13-5.88-1.34-7.61,0,0,0,0,0,0"/><path id="Path_1689" class="cls-7" d="M52.05,22.92c0,8.69-7.04,15.73-15.73,15.74-8.69,0-15.73-7.04-15.74-15.73,0-8.69,7.04-15.73,15.73-15.74,0,0,0,0,0,0,8.69,0,15.73,7.04,15.73,15.73"/><path id="Path_1690" class="cls-4" d="M25.82,31.59c.3,2.54-.53,4.71-1.86,4.85s-2.66-1.81-2.97-4.36,.53-4.71,1.86-4.85,2.66,1.81,2.96,4.36"/><path id="Path_1691" class="cls-4" d="M51.94,32.05c-.27,2.54-1.58,4.51-2.91,4.39s-2.2-2.28-1.92-4.83,1.57-4.51,2.91-4.38,2.2,2.28,1.92,4.82"/><path id="Path_1692" class="cls-3" d="M49.64,31.66c0,9.03-8.2,18.36-13.15,18.36-5.56,0-13.2-9.33-13.2-18.36s3.41-19.36,13.18-19.36c10.64,0,13.17,10.33,13.17,19.36"/><path id="Path_1693" class="cls-6" d="M33.61,32.9s-.64-3.4-3.54-4.04c-3.1-.68-3.96,1.32-3.96,1.32,.41,1.55,1.74,2.68,3.34,2.83,1.38,.19,2.79,.15,4.16-.12"/><path id="Path_1694" class="cls-15" d="M28.06,29.78c-.49,.98-.08,2.18,.9,2.66,.98,.49,2.18,.08,2.66-.9,.49-.98,.08-2.18-.9-2.66,0,0,0,0,0,0-.98-.49-2.18-.08-2.66,.9"/><path id="Path_1695" class="cls-12" d="M28.66,29.84c-.35,.7-.06,1.56,.64,1.9,.7,.35,1.56,.06,1.9-.64,.35-.7,.06-1.56-.64-1.9-.7-.35-1.56-.06-1.91,.64"/><path id="Path_1696" class="cls-6" d="M29.96,29.98c-.13,.25-.02,.55,.23,.68,0,0,0,0,0,0,.25,.12,.56,.02,.68-.23,.12-.25,.02-.56-.23-.68-.25-.12-.55-.02-.68,.23"/><path id="Path_1697" class="cls-6" d="M29.26,29.83c-.07,.13-.02,.29,.11,.36,0,0,0,0,0,0,.13,.07,.3,.02,.37-.11,.07-.13,.02-.3-.11-.37,0,0-.01,0-.02,0-.13-.07-.3-.01-.36,.12,0,0,0,0,0,0"/><path id="Path_1698" class="cls-14" d="M33.61,32.9s-.96-4.94-7.52-2.85c.77-1.32,5.93-3.86,7.52,2.85"/><path id="Path_1699" class="cls-6" d="M38.97,32.9s.64-3.4,3.53-4.04c3.1-.68,3.97,1.32,3.97,1.32-.41,1.55-1.74,2.68-3.34,2.83-1.38,.19-2.79,.15-4.16-.12"/><path id="Path_1700" class="cls-15" d="M44.51,29.78c.49,.98,.08,2.17-.9,2.66-.98,.49-2.17,.08-2.66-.9-.49-.98-.08-2.17,.9-2.66,0,0,0,0,0,0,.98-.49,2.17-.09,2.66,.9,0,0,0,0,0,0"/><path id="Path_1701" class="cls-12" d="M43.91,29.84c.35,.7,.06,1.56-.65,1.9s-1.56,.06-1.9-.65c-.35-.7-.06-1.55,.64-1.9,.7-.35,1.56-.06,1.91,.64"/><path id="Path_1702" class="cls-6" d="M42.62,29.98c.12,.25,.02,.56-.23,.68-.25,.12-.56,.02-.68-.23-.12-.25-.02-.56,.23-.68,.25-.12,.56-.02,.68,.23"/><path id="Path_1703" class="cls-6" d="M43.32,29.83c.06,.14,0,.3-.14,.36-.13,.06-.28,0-.35-.12-.06-.14,0-.3,.14-.36,.13-.06,.28,0,.35,.12"/><path id="Path_1704" class="cls-14" d="M38.97,32.9s.96-4.94,7.51-2.85c-.77-1.32-5.93-3.86-7.51,2.85"/><path id="Path_1705" class="cls-9" d="M38.58,40.5c-.14-.18-.51-.17-.56-.16-.19,.01-.37,.07-.53,.17l-.06,.03c-.29,.19-.63,.3-.97,.32-.34-.02-.68-.13-.97-.32l-.06-.03c-.16-.1-.35-.16-.54-.17-.04,0-.42-.02-.55,.16-.06,.07-.07,.17-.02,.25,.09,.12,.24,.18,.38,.16,.23,0,.45-.03,.66-.12,.33,.2,.7,.31,1.08,.33h.02c.38-.02,.76-.14,1.08-.33,.21,.08,.43,.12,.65,.12,.15,.02,.29-.04,.38-.16,.05-.08,.05-.18,0-.25"/><path id="Path_1706" class="cls-7" d="M45.95,13.5s.24,6.61-19.78,14.63c-3.65,1.94-5.68,8.99-.24,13.49-5.91-2.13-12.3-24.37,5.92-33.6,4.03-1.42,14.1,5.48,14.1,5.48"/><path id="Path_1707" class="cls-7" d="M39.66,18.24s7.02,9.71,9.79,9.06,1.88-4.57,1.88-4.57l-4-8.57-3.1-1.22-4.57,5.31Z"/><path id="Path_1708" class="cls-5" d="M34.81,42.74c.52,.22,1.06,.39,1.62,.5,.44,0,.51-.29,1.35-.48,.53-.12,1.93,.28,2.76-.46-1.86,3.34-2.52,3.43-4.19,3.46-1.59,.02-2.34-.41-4.1-3.48,.22,.4,1.89,.35,2.56,.46"/></g></g></g></svg>