<?xml version="1.0" encoding="UTF-8"?><svg id="Layer_19" xmlns="http://www.w3.org/2000/svg" xmlns:xlink="http://www.w3.org/1999/xlink" viewBox="0 0 72 72"><defs><style>.cls-1{fill:none;}.cls-2{clip-path:url(#clippath);}.cls-3{fill:#f8dec5;}.cls-4{fill:#ebc19c;}.cls-5{fill:#fff;}.cls-6{fill:#e66b5b;}.cls-7{fill:#323232;}.cls-8{fill:#cca884;}.cls-9{fill:#dfc5ad;}.cls-10{fill:#a39f4a;}.cls-11{fill:#4a494a;}</style><clipPath id="clippath"><rect class="cls-1" width="72" height="72"/></clipPath></defs><g id="Group_470"><g class="cls-2"><g id="Group_469"><path id="Path_1508" class="cls-10" d="M72,35.99c0,19.88-16.12,35.99-36,35.99S0,55.86,0,35.99,16.12,0,36,0s36,16.11,36,35.99"/><path id="Path_1509" class="cls-5" d="M55.26,21.34c0,9.85-8.49,17.83-18.96,17.83s-18.96-7.98-18.96-17.83S25.83,3.51,36.3,3.51s18.96,7.98,18.96,17.83"/><path id="Path_1510" class="cls-4" d="M35.46,64.66s19.61-11.71,19.4-12.4c-.43-1.46-2.15-3.23-5.41-3.13-4.53,.47-10.99-2.99-9.61-9.37l-3.92,.08-3.92-.08c1.38,6.38-5.07,9.84-9.6,9.37-3.25-.1-4.97,1.66-5.41,3.13-.2,.67,18.46,12.4,18.46,12.4"/><path id="Path_1511" class="cls-4" d="M19.61,49.8h-.18c-1.74,.08-5.37,5.77-8.73,11.78,2.25,2.22,4.77,4.13,7.49,5.69,2.36-3.18,4.29-6.28,4.74-8.02,1.08-4.07-2.68-8.51-3.33-9.45"/><path id="Path_1512" class="cls-4" d="M52.44,49.8h-.18c-.66,.95-4.31,5.36-3.33,9.45,.4,1.68,2.36,4.85,4.71,8.09,2.75-1.55,5.29-3.46,7.55-5.69-3.36-6.02-7.01-11.78-8.75-11.86"/><path id="Path_1513" class="cls-11" d="M51.29,49.27c-1.04-.19-2.1-.26-3.16-.23-3.91,8.81-21.16,8.85-24.38,0-1.06-.03-2.12,.05-3.16,.23,0,0,3.96,8.97,.32,14.07,.75,1.98,1.34,4.01,1.78,6.08,8.52,3.42,17.98,3.44,26.51,.05,.46-2.15,1.08-4.26,1.86-6.31-3.64-5.1,.23-13.9,.23-13.9"/><path id="Path_1514" class="cls-5" d="M40.26,7.2s22.59,9.18,12.05,23.71c-5.72,8.54-5.81,12.8-1.91,13.98-4.45,.64-15.69-12.89-8.54-18.05,6.54-4.71,5.99-12.82-2.27-17.55-3.47-1.98,.67-2.09,.67-2.09"/><path id="Path_1515" class="cls-5" d="M31.25,7.61s-21.43,8.76-10.89,23.29c5.72,8.54,5.81,12.8,1.91,13.98,4.45,.64,15.69-12.89,8.54-18.05-6.54-4.71-5.99-12.82,2.27-17.55,3.47-1.98-1.82-1.68-1.82-1.68"/><path id="Path_1516" class="cls-9" d="M26.85,28.76c.66,2.2,.4,4.22-.57,4.51s-2.3-1.25-2.97-3.45-.4-4.22,.58-4.51,2.3,1.25,2.96,3.45"/><path id="Path_1517" class="cls-9" d="M46.68,28.76c-.66,2.2-.4,4.22,.58,4.51s2.3-1.25,2.96-3.45,.4-4.22-.58-4.51-2.3,1.25-2.97,3.45"/><path id="Path_1518" class="cls-3" d="M48.06,26.19c0,9.06-7.37,17.02-11.84,17.02s-11.89-7.96-11.89-17.02,5.04-16.41,11.87-16.41,11.86,7.35,11.86,16.41"/><path id="Path_1519" class="cls-8" d="M38.27,34.44c-.13-.16-.48-.16-.52-.16-.18,.01-.35,.07-.51,.17l-.05,.03c-.28,.18-.59,.28-.91,.3-.32-.02-.64-.12-.91-.3l-.06-.03c-.15-.1-.33-.15-.5-.17-.04,0-.39,0-.52,.16-.06,.07-.06,.17-.01,.24,.08,.11,.22,.17,.36,.15,.21,0,.42-.03,.62-.11,.31,.19,.66,.29,1.02,.31h.02c.36-.02,.71-.13,1.02-.31,.2,.08,.41,.11,.62,.11,.14,.02,.28-.04,.36-.15,.05-.07,.05-.17,0-.24"/><path id="Path_1520" class="cls-6" d="M34.64,36.84c.54,.23,1.09,.4,1.67,.51,.45,.01,.53-.29,1.39-.49,.54-.12,1.97,.29,2.83-.47-1.91,3.43-2.58,3.52-4.3,3.54-1.63,.02-2.4-.42-4.21-3.56,.22,.41,1.94,.36,2.62,.47"/><path id="Path_1521" class="cls-5" d="M30.53,28.41c-.91-.05-1.62-.82-1.61-1.75-.82,.1-1.62,.28-2.41,.53,1.03,.7,2.21,1.13,3.44,1.25,1.22,.05,2.44-.2,3.54-.74-.34-.16-.74-.34-1.19-.51-.25,.77-.98,1.27-1.78,1.21"/><path id="Path_1522" class="cls-7" d="M33.68,27.62c-.41-.29-.85-.54-1.3-.75-.73-.35-1.51-.56-2.32-.62-.36-.02-.73-.02-1.09,.03-.92,.11-1.81,.38-2.64,.8-.28,.14-.56,.3-.82,.47,0,0,.4-.16,1-.35,.78-.25,1.59-.43,2.41-.53,.36-.04,.72-.05,1.08-.03,.79,.08,1.56,.27,2.3,.57,.44,.17,.85,.35,1.19,.51,.54,.26,.88,.46,.88,.46-.22-.2-.45-.38-.7-.55"/><path id="Path_1523" class="cls-7" d="M31.07,27.42c-.01,.31-.27,.54-.57,.53s-.53-.27-.52-.58,.27-.54,.57-.53c0,0,0,0,.01,0,.3,.02,.52,.28,.51,.58,0,0,0,0,0,0"/><path id="Path_1524" class="cls-5" d="M30.76,27.53c-.01,.1-.1,.17-.2,.16-.09-.01-.15-.09-.15-.18,.01-.1,.1-.17,.19-.16,.09,0,.17,.09,.16,.19"/><path id="Path_1525" class="cls-5" d="M41.43,28.32c.91-.05,1.62-.82,1.61-1.75,.82,.1,1.62,.28,2.4,.53-1.03,.71-2.21,1.14-3.44,1.25-1.22,.05-2.43-.2-3.54-.74,.33-.16,.74-.34,1.19-.51,.25,.77,.98,1.27,1.78,1.21"/><path id="Path_1526" class="cls-7" d="M38.28,27.53c.41-.29,.85-.54,1.31-.75,.73-.35,1.52-.56,2.32-.62,.36-.02,.73-.02,1.09,.03,.92,.11,1.81,.38,2.63,.8,.28,.14,.56,.3,.82,.47,0,0-.4-.16-1-.35-.78-.25-1.59-.43-2.4-.53-.36-.04-.72-.05-1.09-.03-.79,.08-1.56,.27-2.3,.57-.45,.17-.86,.35-1.19,.51-.54,.26-.89,.46-.89,.46,.22-.2,.45-.38,.7-.55"/><path id="Path_1527" class="cls-7" d="M40.89,27.33c.03,.3,.28,.53,.58,.5,.29-.01,.52-.27,.5-.57,0,0,0,0,0-.01-.02-.31-.28-.54-.58-.52-.3,.02-.52,.29-.5,.59h0"/><path id="Path_1528" class="cls-5" d="M41.2,27.45c0,.1,.09,.17,.19,.16,.09,0,.17-.09,.16-.18,0,0,0,0,0,0,0-.1-.09-.17-.19-.16-.09,0-.17,.09-.16,.18,0,0,0,0,0,0"/><path id="Path_1529" class="cls-5" d="M37.12,9.59c-7.78-1.29-12.89,9.94-12.2,10.4,2.39,1.45,5.19,2.03,7.95,1.63,2.5-.37,5.39-1.21,8.07-.26,6.43,2.28,6.18,8.83,6.32,10.33,6.48-23.18-10.71-22.77-10.14-22.1"/></g></g></g></svg>