<?xml version="1.0" encoding="UTF-8"?><svg id="Layer_9" xmlns="http://www.w3.org/2000/svg" xmlns:xlink="http://www.w3.org/1999/xlink" viewBox="0 0 72 72"><defs><style>.cls-1{fill:none;}.cls-2{clip-path:url(#clippath);}.cls-3{fill:#fff;}.cls-4{fill:#fbb316;}.cls-5{fill:#fcd8b0;}.cls-6{fill:#e66b5b;}.cls-7{fill:#323232;}.cls-8{fill:#8cc4c6;}.cls-9{fill:#c0882c;}.cls-10{fill:#cca884;}.cls-11{fill:#1f9b86;}.cls-12{fill:#4a494a;}</style><clipPath id="clippath"><rect class="cls-1" width="72" height="72"/></clipPath></defs><g id="Group_478"><g class="cls-2"><g id="Group_477"><path id="Path_1709" class="cls-11" d="M24.15,36.86c0,1.21,.92,2.22,2.1,2.29,1.04,.08,1.99-.57,2.32-1.58-.96-.39-1.97-.64-3.01-.75-.47-.03-.95-.01-1.42,.04"/><path id="Path_1710" class="cls-11" d="M26.3,37.1c.38,.04,.66,.38,.63,.77s-.37,.68-.75,.64c-.38-.03-.66-.37-.63-.76,.03-.39,.37-.69,.75-.66,0,0,0,0,0,0"/><path id="Path_1711" class="cls-11" d="M46.39,36.82c-1.03,.11-2.04,.36-3.01,.75,.32,1.01,1.28,1.66,2.32,1.58,1.18-.07,2.11-1.08,2.11-2.29-.47-.05-.94-.07-1.42-.04"/><path id="Path_1712" class="cls-11" d="M45.76,38.51c-.38,.02-.71-.28-.73-.67s.28-.72,.66-.74c.38-.02,.7,.27,.73,.66,.02,.39-.27,.73-.66,.76"/><path id="Path_1713" class="cls-8" d="M36,0C16.12,0,0,16.12,0,36c.02,11.13,5.13,21.61,13.81,28.34-1.28-5.98-1.91-12.08-1.87-18.2,0-9.23,1.31-17.62,3.46-23.85C17.71,10.67,28.8,3.18,40.16,5.55c8.04,1.68,14.39,7.99,16.25,16.16,2.26,6.28,3.66,14.91,3.66,24.42,.04,6.12-.59,12.22-1.88,18.2,8.68-6.72,13.79-17.2,13.81-28.33C72,16.12,55.88,0,36,0"/><path id="Path_1714" class="cls-9" d="M39.57,69.71s.04,.04,.06,.06c.31-.23,.58-.52,.79-.84,.06-.11,.12-.22,.16-.33l.03-.08c.02-.08,.04-.15,.05-.23,.04,.02,.09,.04,.13,.06l-.1-.12h-2.43c.4,.52,.84,1.01,1.3,1.48h0Z"/><path id="Path_1715" class="cls-9" d="M32.28,69.71c.45-.46,.87-.96,1.25-1.48h-2.45c.14,.62,.49,1.15,.98,1.52,.03,.03,.08,.05,.11,.07,.03-.03,.06-.07,.1-.1h0Z"/><path id="Path_1716" class="cls-5" d="M56.63,35.28c0-.61-.03-1.21-.08-1.81-1,3.51-2.21,7.63-2.36,8.39-.03-1.29-.13-2.59-.29-3.9-.16-1.31-.39-2.6-.67-3.89-.33-1.81-1-3.54-1.97-5.1-1.41-1.77-3.2-3.2-5.22-4.17-.33-.17-.66-.32-1-.45,4.19,2.18,6.32,6.76,7.47,10.46,.39,1.26,.71,2.53,.96,3.82,.41,1.99,.66,4.01,.73,6.05-.42-1.65-.95-3.27-1.57-4.85-.26-.67-.55-1.34-.86-2.01-.22-.08-.5-.18-.83-.28-1.34,.92-2.89,1.48-4.49,1.64-1.59,.07-3.18-.26-4.62-.96-.7,.34-1.15,.6-1.15,.6,.29-.26,.59-.5,.91-.71,.54-.38,1.11-.7,1.71-.97,.95-.45,1.98-.73,3.02-.82,.47-.03,.95-.02,1.42,.03,1.2,.15,2.36,.51,3.44,1.05,.21,.1,.37,.19,.52,.28-.06-.14-.12-.28-.19-.42-.73-1.7-1.78-3.23-3.09-4.51-1.5-1.35-4.06-2.28-6.13-2.74-2.06-.4-4.18-.33-6.21,.21-.05,.01-.1,.03-.15,.04-2.52,.61-4.95,1.63-7.22,2.34-4.15,1.31-8.87,1.53-13.05-.39-.01,0-.02-.02-.03-.03-.08-.07-.12-.17-.14-.28-1.37,8.32,2.39,16.64,9.47,20.97h-.02c5.4,4.08,9.41,3.41,9.78,9.77,.16,2.74-.23,4.22-1.18,5.59-.38,.53-.8,1.02-1.25,1.48h0s-.06,.07-.1,.1c.45,.34,.95,.61,1.48,.79,.02,0,.03,.01,.04,.02,.18,.06,.37,.12,.56,.17,.52,.13,1.06,.19,1.59,.19,.56,0,1.11-.07,1.65-.21,.22-.05,.44-.12,.65-.19,.05-.02,.1-.05,.15-.06,.47-.18,.92-.43,1.32-.74-.02-.02-.04-.04-.06-.06h0c-.46-.47-.9-.97-1.3-1.49-1.03-1.37-1.52-2.86-1.14-5.6,.87-6.31,4.38-5.69,9.77-9.77h-.02c6.03-3.72,9.72-10.38,9.74-17.58m-23.21,11.74c.17-.22,.63-.2,.68-.2,.2,.01,.4,.07,.57,.17,.03,.02,.06,.03,.09,.04l.07,.04c.36,.23,.77,.36,1.19,.39,.42-.03,.83-.16,1.19-.39l.07-.04,.04-.02c.19-.12,.4-.18,.63-.2,.05,0,.51-.02,.68,.2,.07,.09,.07,.21,.01,.31-.11,.15-.29,.22-.47,.2-.27,0-.55-.04-.8-.14-.02,0-.03,.02-.05,.02-.39,.23-.83,.36-1.28,.39h-.03c-.47-.03-.93-.17-1.33-.41h0c-.26,.1-.53,.15-.8,.14-.18,.03-.36-.05-.47-.2-.06-.1-.05-.22,.02-.31m-12.65-9.62c1.08-.54,2.24-.9,3.43-1.05,.47-.05,.95-.06,1.42-.03,1.05,.09,2.07,.36,3.02,.82,.6,.28,1.17,.6,1.71,.98,.32,.22,.62,.46,.91,.71,0,0-.45-.26-1.15-.6-1.44,.7-3.02,1.03-4.61,.96-1.61-.16-3.15-.72-4.5-1.64-.78,.25-1.3,.46-1.3,.46,.34-.23,.7-.44,1.07-.62m16.21,16.74c-.31,.03-.65,.04-1.04,.05-.31,0-.63,0-.94-.05-1.54-.2-2.58-1.15-4.55-4.61,.3,.53,2.53,.46,3.43,.61,.3,.08,.6,.18,.89,.3,.4,.2,.84,.33,1.29,.36,.44,.01,.61-.21,1.17-.44,.21-.08,.42-.15,.64-.2,.71-.16,2.58,.38,3.7-.62-2.07,3.72-3.03,4.43-4.58,4.58"/><path id="Path_1717" class="cls-4" d="M42.57,70.1c0-.31,.09-.61,.24-.88-.68-.29-1.38-.6-2.02-.87-.04-.02-.09-.04-.13-.06-.01,.08-.03,.15-.06,.23l-.03,.08c-.05,.11-.1,.22-.16,.33-.21,.33-.48,.61-.79,.84-.4,.31-.85,.56-1.32,.74-.05,.02-.1,.05-.15,.06-.21,.08-.43,.14-.65,.19-.39,.92-1.43,1.34-2.33,.94-.41-.18-.73-.51-.91-.92-.19-.05-.38-.1-.56-.17-.02,0-.03-.01-.04-.02-.53-.18-1.03-.45-1.48-.8-.04-.02-.08-.04-.11-.07-.5-.36-.85-.9-.98-1.5h0c-.67,.3-1.42,.64-2.14,.97,.41,.65,.32,1.51-.2,2.06,.65,.14,1.31,.25,1.98,.34,.06,.01,.13,.02,.19,.02,.75,.11,1.5,.19,2.26,.24,.93,.07,1.87,.12,2.82,.12s1.89-.05,2.82-.12c.28-.02,.56-.04,.84-.06,.43-.04,.85-.1,1.28-.16,.71-.1,1.42-.21,2.12-.35-.31-.32-.48-.76-.48-1.21"/><path id="Path_1718" class="cls-6" d="M28.94,69.2c-1.3,.59-2.52,1.12-3.1,1.33,.95,.28,1.91,.53,2.9,.73,.52-.56,.61-1.41,.2-2.06"/><path id="Path_1719" class="cls-6" d="M34.26,70.78c.4,.91,1.44,1.33,2.34,.92,.41-.18,.73-.52,.91-.93-.54,.14-1.1,.21-1.65,.21-.54,0-1.07-.07-1.59-.19"/><path id="Path_1720" class="cls-6" d="M42.58,70.1c0,.45,.17,.88,.48,1.21,1.01-.2,2-.45,2.97-.73-.54-.19-1.82-.75-3.21-1.36-.16,.27-.24,.57-.24,.88"/><path id="Path_1721" class="cls-10" d="M37.37,47.39c.26,.1,.53,.15,.81,.14,.18,.03,.36-.05,.47-.2,.06-.09,.06-.22-.01-.31-.17-.22-.63-.2-.68-.2-.22,.01-.44,.08-.63,.2,0,.13,0,.26,0,.39,.02,0,.03-.01,.05-.02"/><path id="Path_1722" class="cls-10" d="M34.11,46.82c-.05,0-.51-.02-.68,.2-.07,.09-.08,.21-.02,.31,.11,.15,.29,.22,.47,.2,.27,0,.55-.04,.8-.14,0-.13,0-.26,0-.4-.18-.1-.37-.16-.57-.17"/><path id="Path_1723" class="cls-10" d="M37.22,47.07c-.36,.23-.77,.36-1.19,.39-.42-.03-.83-.16-1.19-.39l-.07-.04s-.06-.03-.09-.04c0,.13,0,.27,0,.4h0c.41,.24,.86,.38,1.33,.41h.03c.45-.02,.89-.15,1.28-.39,0-.13,0-.26,0-.39-.01,0-.02,.01-.03,.02l-.07,.04Z"/><path id="Path_1724" class="cls-6" d="M37.87,50.18c-.22,.05-.43,.11-.64,.2-.56,.22-.73,.45-1.17,.44-.45-.04-.88-.16-1.29-.36-.29-.12-.59-.22-.89-.3-.9-.15-3.13-.08-3.43-.61,1.98,3.45,3.01,4.4,4.55,4.61,.31,.04,.63,.05,.94,.05,.38,0,.72-.02,1.04-.05,1.55-.15,2.51-.86,4.58-4.58-1.12,1-2.99,.46-3.7,.62"/><path id="Path_1725" class="cls-3" d="M26.25,39.15c-1.18-.07-2.11-1.08-2.1-2.29-1.06,.13-2.12,.37-3.14,.7,1.34,.92,2.89,1.48,4.5,1.64,1.59,.07,3.17-.26,4.61-.96-.44-.21-.97-.44-1.55-.66-.32,1.01-1.28,1.66-2.32,1.58"/><path id="Path_1726" class="cls-7" d="M28.65,37.14c-.95-.45-1.97-.73-3.02-.82-.47-.03-.95-.02-1.42,.03-1.2,.15-2.36,.51-3.44,1.05-.37,.18-.73,.38-1.07,.61,0,0,.52-.21,1.31-.46,1.02-.33,2.07-.56,3.14-.7,.47-.05,.95-.07,1.42-.04,1.03,.11,2.04,.36,3,.75,.58,.22,1.11,.45,1.55,.66,.7,.34,1.15,.6,1.15,.6-.29-.26-.59-.49-.91-.71-.54-.38-1.11-.7-1.71-.98"/><path id="Path_1727" class="cls-7" d="M26.2,38.51c.38,.02,.71-.28,.73-.67,.02-.39-.28-.72-.66-.74-.38-.02-.7,.27-.73,.66-.02,.39,.27,.73,.66,.76m.14-.75c.12,0,.22,.12,.21,.24,0,0,0,0,0,0-.01,.13-.12,.22-.24,.21-.12,0-.22-.11-.22-.24,0-.13,.11-.23,.23-.22,0,0,.01,0,.02,0"/><path id="Path_1728" class="cls-3" d="M26.3,38.22c.12,0,.23-.09,.24-.21,.01-.13-.08-.24-.21-.25-.13-.01-.24,.08-.25,.21-.01,.13,.08,.24,.21,.25,0,0,0,0,0,0"/><path id="Path_1729" class="cls-3" d="M45.71,39.15c-1.04,.08-1.99-.57-2.32-1.58-.58,.22-1.11,.45-1.55,.66,1.44,.7,3.02,1.03,4.62,.96,1.61-.16,3.15-.72,4.49-1.64-1.02-.33-2.07-.56-3.14-.7,0,1.21-.92,2.22-2.1,2.29"/><path id="Path_1730" class="cls-7" d="M47.74,36.35c-.47-.05-.95-.06-1.42-.03-1.05,.08-2.07,.36-3.02,.81-.6,.28-1.17,.6-1.71,.98-.32,.22-.62,.46-.91,.71,0,0,.45-.26,1.15-.6,.44-.21,.97-.44,1.55-.66,.96-.39,1.98-.64,3.01-.75,.47-.03,.95-.01,1.42,.04,1.06,.13,2.12,.36,3.14,.7,.33,.1,.61,.2,.83,.28-.02-.05-.05-.1-.07-.16-.15-.09-.32-.18-.52-.28-1.08-.55-2.24-.9-3.44-1.05"/><path id="Path_1731" class="cls-7" d="M45.76,38.51c.38-.04,.66-.38,.63-.77-.04-.39-.37-.68-.76-.64-.37,.04-.65,.37-.63,.75,.03,.39,.36,.69,.75,.66,0,0,0,0,0,0m-.14-.75c.12,0,.23,.09,.24,.22,0,.13-.09,.24-.21,.24-.12,0-.23-.09-.24-.21,0-.13,.08-.24,.21-.25,0,0,0,0,0,0"/><path id="Path_1732" class="cls-3" d="M45.65,38.22c.12,0,.22-.12,.21-.24,0,0,0,0,0,0,0-.13-.11-.23-.24-.22-.13,0-.22,.12-.22,.24s.11,.23,.24,.22c0,0,0,0,0,0"/><path id="Path_1733" class="cls-12" d="M56.41,21.71c-2.63-11.54-13.92-18.72-25.21-16.03-7.99,1.9-14.17,8.39-15.81,16.61-2.14,6.23-3.46,14.61-3.46,23.85-.04,6.12,.59,12.22,1.87,18.2,3.6,2.82,7.68,4.92,12.03,6.2,.58-.21,1.79-.75,3.1-1.33,.72-.33,1.47-.67,2.14-.98h0s0,0,0,0h2.44c.96-1.37,1.34-2.85,1.18-5.59-.36-6.36-4.38-5.68-9.78-9.77h.02c-6.03-3.72-9.73-10.38-9.75-17.58,0-1.14,.09-2.27,.28-3.4,.01,.11,.06,.21,.14,.28,0,0,.02,.02,.03,.03,4.18,1.92,8.9,1.7,13.05,.39,2.27-.71,4.7-1.73,7.22-2.33,.05-.01,.1-.03,.15-.04,2.03-.54,4.15-.61,6.21-.21,2.07,.45,4.63,1.39,6.13,2.74,1.31,1.28,2.36,2.81,3.09,4.51,.07,.14,.13,.28,.19,.42,.02,.05,.05,.1,.07,.16,.31,.67,.59,1.33,.86,2.01,.62,1.58,1.15,3.2,1.57,4.85-.07-2.03-.32-4.06-.73-6.05-.25-1.29-.57-2.56-.96-3.82-1.15-3.71-3.29-8.29-7.47-10.47,.34,.13,.67,.28,1,.45,2.02,.97,3.81,2.4,5.22,4.17,.97,1.55,1.64,3.28,1.97,5.09,.29,1.28,.51,2.58,.67,3.89,.16,1.31,.26,2.61,.29,3.9,.15-.76,1.36-4.88,2.36-8.39,.05,.6,.08,1.2,.08,1.81-.02,7.2-3.72,13.86-9.75,17.58h.02c-5.39,4.09-8.91,3.46-9.77,9.77-.37,2.74,.11,4.23,1.14,5.6h2.43l.1,.12c.65,.27,1.34,.57,2.02,.87,1.39,.6,2.67,1.16,3.21,1.36,4.4-1.27,8.53-3.39,12.16-6.24,1.28-5.98,1.91-12.08,1.88-18.2,0-9.52-1.4-18.14-3.66-24.43"/></g></g></g></svg>