<?xml version="1.0" encoding="UTF-8"?><svg id="Layer_24" xmlns="http://www.w3.org/2000/svg" xmlns:xlink="http://www.w3.org/1999/xlink" viewBox="0 0 72 72"><defs><style>.cls-1{fill:none;}.cls-2{clip-path:url(#clippath);}.cls-3{fill:#f2f1f1;}.cls-4{fill:#fff;}.cls-5{fill:#e66b5b;}.cls-6{fill:#6c3a17;}.cls-7{fill:#93653a;}.cls-8{fill:#b6473f;}.cls-9{fill:#a9423a;}.cls-10{fill:#aa7949;}.cls-11{fill:#d4d4c6;}.cls-12{fill:#d7c2af;}.cls-13{fill:#1f0b3a;}.cls-14{fill:#42b5e8;}.cls-15{fill:#3f4ba0;}.cls-16{fill:#29bec8;}.cls-17{fill:#4a494a;}.cls-18{fill:#383c3d;}.cls-19{fill:#7a5332;}</style><clipPath id="clippath"><rect class="cls-1" width="72" height="72"/></clipPath></defs><g id="Group_472"><g class="cls-2"><g id="Group_471"><path id="Path_1530" class="cls-11" d="M72,36c0,19.88-16.12,36-36,36S0,55.88,0,36,16.12,0,36,0s36,16.12,36,36"/><path id="Path_1531" class="cls-17" d="M56.1,63.61l-41.09,.09S7.27,8.38,35.89,8.38s20.21,55.23,20.21,55.23"/><path id="Path_1532" class="cls-8" d="M27.45,50.12h17.05s2.66,3.24,2.66,3.24l-9.45,6.59-10.71-2.26-.8-6.04,1.26-1.53Z"/><path id="Path_1533" class="cls-14" d="M35.98,32.66v-.02s0,.01,0,.02"/><path id="Path_1534" class="cls-15" d="M35.97,31.35h0s0-.02,0-.03v.03"/><path id="Path_1535" class="cls-7" d="M41.92,58.88l-11.8,.04-.08-17.32,11.8-.04,.09,17.32Z"/><path id="Path_1536" class="cls-16" d="M44.01,51.38v-.02s0,.02,0,.02"/><path id="Path_1537" class="cls-16" d="M44.48,50.11s-.02,.08-.03,.13c0-.04,.03-.08,.03-.12h0"/><path id="Path_1538" class="cls-4" d="M44.01,51.38c-.99,1.4-2.41,2.42-4.02,2.92h0c-1.31,.47-2.68,.72-4.07,.72-1.3,0-2.6-.22-3.83-.64h0c-1.04-.35-2.02-.88-2.89-1.57-.89-.64-1.51-1.61-1.73-2.7h0c.22,1.1,.83,2.06,1.72,2.7-4.11,4.49-6.72,10.19-7.46,16.29,4.51,1.95,9.35,2.95,14.25,2.94,4.89,0,9.74-.99,14.24-2.94-.74-6.1-3.35-11.8-7.46-16.29,.5-.4,.93-.88,1.26-1.43"/><path id="Path_1539" class="cls-5" d="M27.45,50.11h-.02c-3.56,1.64-8.31,3.78-9.6,4.22-2,.51-3.4,2.34-3.4,4.45l-.77,5.5c2.47,1.96,5.18,3.58,8.06,4.82,.74-6.1,3.35-11.8,7.46-16.29-.89-.64-1.5-1.6-1.72-2.69"/><path id="Path_1540" class="cls-5" d="M54.1,54.33c-1.29-.43-6.03-2.58-9.59-4.21h-.02s-.02,.07-.03,.11c-.03,.14-.06,.28-.1,.41-.02,.05-.03,.09-.05,.14-.07,.2-.17,.39-.27,.56v.02c-.35,.55-.78,1.04-1.28,1.43,4.11,4.49,6.72,10.19,7.46,16.29,2.88-1.24,5.6-2.87,8.07-4.83l-.77-5.49c0-2.11-1.4-3.94-3.41-4.45"/><path id="Path_1541" class="cls-10" d="M34.99,10.29c8.24-.15,15.06,7.62,15.23,17.37,.01,.84-.04,1.66-.1,2.46,.51-.18,.97,.32,1.1,1.6,.07,1.59-.19,3.18-.78,4.65-.83,2.07-1.62,1.43-2.02,.08-1.65,3.57-4.3,8.48-7.52,10.01-1.25,1.68-3.18,2.69-5.24,2.75h-.01c-2.06-.06-3.99-1.07-5.24-2.75-3.22-1.53-5.87-6.44-7.52-10.01-.4,1.35-1.2,1.99-2.02-.08-.59-1.47-.86-3.06-.78-4.65,.13-1.28,.59-1.78,1.1-1.6-.07-.8-.12-1.62-.11-2.46,.18-9.75,7-17.52,15.24-17.37"/><path id="Path_1542" class="cls-17" d="M48.68,28.53c-.73-.99-1.85-1.6-3.06-1.66-1.93,0-7.59,1.17-7.28,3.03,.07,.37,1.25-.4,1.74-.68,.55-.32,5.47-2.91,8.6-.69"/><path id="Path_1543" class="cls-4" d="M45.84,31.64c.02,.41-1,1.54-2.83,1.42-.92-.09-1.83-.24-2.73-.45-.41,0-.81,.07-1.2,.2-.24,.19-.86,.16-.49-.36,.75-1.43,2.19-2.34,3.77-2.38,2.37,.03,3.46,1.16,3.47,1.57"/><path id="Path_1544" class="cls-12" d="M40.32,32.61c.9,.21,1.81,.36,2.72,.45,1.68,.11,2.79-1.04,2.8-1.35-.01-.22-.12-.42-.29-.56,0,0,.4,.11,.44,.41,.04,.32-.08,.64-.32,.86-.73,.65-1.69,.97-2.66,.86-.76-.03-1.51-.16-2.24-.36-.14-.05-.29-.08-.44-.09-.18-.02-.35-.08-.49-.18,.17-.02,.35-.03,.47-.04"/><path id="Path_1545" class="cls-6" d="M41.24,31.3c-.07,.8,.51,1.51,1.29,1.59,0,0,.01,0,.02,0,.78,.06,1.47-.54,1.53-1.34,.06-.8-.53-1.5-1.31-1.57-.78-.06-1.46,.52-1.53,1.31"/><path id="Path_1546" class="cls-13" d="M42.25,31.24c-.02,.25,.15,.46,.39,.49,0,0,0,0,0,0,.24,.02,.46-.16,.49-.4,.02-.25-.16-.47-.4-.49,0,0,0,0,0,0-.24-.03-.46,.15-.49,.4"/><path id="Path_1547" class="cls-3" d="M42.53,31.14c-.01,.1,.06,.2,.16,.21,0,0,0,0,0,0,.1,.01,.2-.06,.21-.17,.01-.11-.06-.2-.17-.21,0,0,0,0,0,0-.1-.01-.2,.06-.21,.16,0,0,0,0,0,0"/><path id="Path_1548" class="cls-3" d="M42.44,31.46s.02,.08,.06,.08c.04,0,.08-.02,.08-.06,0,0,0,0,0,0,0-.04-.03-.07-.06-.08-.04,0-.07,.02-.08,.06"/><path id="Path_1549" class="cls-3" d="M42.68,31.54s.02,.08,.06,.08c.03,0,.07-.01,.08-.05,0,0,0-.01,0-.02,0-.03-.01-.07-.04-.08,0,0-.01,0-.02,0-.04,0-.07,.02-.08,.06,0,0,0,0,0,0"/><path id="Path_1550" class="cls-18" d="M38.3,33.06s2.99-3.83,7.17-1.93c.14,.09,.26,.21,.34,.35,.06,.16,.13,.69-.97,1.37h-.01c-.08,.04-.16,.08-.23,.13,.51-.21,1.09,.05,1.3,.57,0,.02,.02,.04,.02,.07-.02-.41-.31-.75-.7-.82,.03-.03,.08-.05,.12-.08,.44,0,.83,.29,.98,.72-.01-.46-.38-.83-.84-.82,0,0,0,0,0,0,.06-.05,.14-.12,.21-.19,.51-.02,.98,.3,1.15,.8,0-.52-.43-.93-.93-.92-.04,0-.08,0-.12,.01,.08-.08,.14-.16,.2-.26h0c.54-.07,1.05,.26,1.23,.78,0-.51-.4-.91-.9-.91-.09,0-.19,.02-.27,.05,.05-.09,.09-.18,.12-.27,.45-.11,.92,.11,1.15,.52-.06-.19-.16-.35-.3-.49,.91-.03,1.69-.69,1.89-1.6-.53,.85-1.46,1.35-2.45,1.3l-.05-.12c1.21,.19,1.84-.93,1.96-2.06,0,0-.59,1.89-2.37,1.73-.05-.04-.11-.07-.16-.11,1.2,.03,1.82-1.04,1.8-2.16-.18,.94-.86,1.69-1.76,1.95,.88-.3,1.43-1.18,1.33-2.12-.17,.9-.8,1.63-1.64,1.93,.64-.43,1-1.18,.94-1.96-.17,.88-.78,1.61-1.6,1.91-.01,0-.03-.01-.05-.02,.65-.33,1.04-1.03,.98-1.78-.15,.74-.64,1.35-1.32,1.63,.39-.35,.6-.87,.57-1.4-.11,.54-.43,1.01-.87,1.31-.05-.01-.1-.03-.14-.04,.2-.27,.3-.6,.29-.94-.07,.34-.25,.64-.49,.88-.06-.02-.12-.03-.18-.04,.12-.23,.18-.5,.17-.76-.06,.27-.17,.52-.34,.73-.08-.02-.16-.03-.23-.05,.09-.21,.13-.44,.13-.66-.05,.23-.15,.45-.28,.65-.08-.01-.17-.02-.25-.03,.04-.12,.05-.25,.05-.38-.03,.13-.08,.26-.14,.37-.06,0-.12,0-.19,0,.02-.1,.03-.21,.03-.31-.02,.11-.06,.21-.1,.31h-.19c0-.07,.01-.14,0-.22-.02,.08-.04,.15-.06,.22-.08,0-.15,.01-.22,.01h-.02c0-.05,.01-.12,.01-.18-.02,.07-.04,.13-.06,.19-1.7,.25-3.11,1.46-3.66,3.12h0Z"/><path id="Path_1551" class="cls-17" d="M22.58,28.53c.73-.99,1.85-1.6,3.06-1.66,1.93,0,7.59,1.17,7.28,3.03-.07,.37-1.25-.4-1.74-.68-.55-.32-5.46-2.91-8.6-.69"/><path id="Path_1552" class="cls-4" d="M25.42,31.64c-.01,.41,1,1.54,2.83,1.42,.92-.09,1.82-.24,2.72-.45,.41,0,.81,.07,1.2,.2,.24,.19,.87,.16,.49-.36-.75-1.43-2.19-2.34-3.77-2.38-2.37,.03-3.45,1.17-3.47,1.57"/><path id="Path_1553" class="cls-12" d="M30.94,32.61c-.9,.21-1.81,.36-2.72,.45-1.68,.11-2.79-1.04-2.8-1.35,.01-.22,.12-.42,.29-.56,0,0-.4,.11-.44,.41-.04,.32,.08,.65,.32,.86,.73,.66,1.69,.97,2.66,.86,.76-.03,1.51-.16,2.24-.36,.15-.05,.3-.08,.45-.09,.18-.02,.35-.08,.49-.18-.18-.02-.35-.03-.48-.04"/><path id="Path_1554" class="cls-6" d="M30.03,31.3c.07,.8-.51,1.51-1.29,1.59,0,0-.01,0-.02,0-.78,.06-1.47-.54-1.53-1.34-.06-.8,.53-1.5,1.31-1.57,.78-.06,1.46,.52,1.53,1.31"/><path id="Path_1555" class="cls-13" d="M29.02,31.24c.02,.25-.16,.47-.4,.49h0c-.24,.02-.46-.16-.49-.4-.02-.25,.16-.47,.4-.5,.25-.02,.46,.16,.49,.41h0"/><path id="Path_1556" class="cls-3" d="M28.73,31.14c0,.11-.07,.2-.17,.21-.1,.01-.2-.07-.21-.17s.07-.2,.17-.21c.1-.01,.2,.06,.21,.17"/><path id="Path_1557" class="cls-3" d="M28.83,31.46s-.03,.08-.06,.08c-.04,0-.07-.02-.07-.06,0,0,0,0,0-.01,0-.04,.02-.07,.06-.08,0,0,0,0,0,0,.04,0,.07,.03,.08,.06"/><path id="Path_1558" class="cls-3" d="M28.59,31.54s-.02,.07-.05,.08c0,0,0,0-.01,0-.04,0-.07-.02-.08-.05,0,0,0,0,0,0,0-.04,.02-.07,.06-.08,0,0,0,0,.01,0,.04,0,.07,.02,.07,.06,0,0,0,0,0,0"/><path id="Path_1559" class="cls-18" d="M29.3,29.94c-.02-.06-.04-.13-.06-.19,0,.06,0,.13,0,.19h-.02c-.07,0-.15-.02-.22-.02-.03-.07-.05-.15-.07-.22,0,.07,0,.15,.01,.22h-.19c-.05-.1-.08-.2-.1-.31,0,.1,0,.21,.03,.31-.06,0-.12,0-.18,0-.06-.12-.11-.24-.14-.37,0,.13,.01,.26,.05,.38-.08,0-.17,.01-.25,.03-.13-.19-.23-.41-.28-.65,0,.23,.04,.46,.13,.66-.08,.02-.16,.03-.23,.05-.17-.21-.28-.46-.35-.73,0,.26,.05,.53,.17,.76-.06,0-.12,.02-.18,.04-.24-.24-.42-.54-.49-.88-.01,.34,.09,.67,.29,.94-.04,.01-.09,.03-.14,.04-.45-.31-.76-.78-.88-1.31-.03,.53,.18,1.05,.57,1.4-.68-.28-1.17-.9-1.32-1.63-.07,.74,.32,1.45,.98,1.78-.02,0-.04,0-.05,.02-.82-.31-1.43-1.03-1.6-1.91-.06,.78,.3,1.53,.95,1.96-.85-.3-1.48-1.03-1.65-1.93-.1,.94,.45,1.82,1.33,2.12-.9-.26-1.58-1.01-1.76-1.95-.02,1.13,.6,2.19,1.8,2.16-.05,.03-.11,.07-.16,.11-1.77,.16-2.36-1.73-2.36-1.73,.11,1.13,.76,2.25,1.96,2.06l-.05,.12c-.99,.05-1.93-.44-2.45-1.3,.2,.91,.98,1.57,1.89,1.6-.14,.13-.24,.3-.3,.49,.23-.42,.7-.63,1.15-.52,.03,.09,.07,.19,.12,.27-.47-.16-.98,.1-1.13,.58-.03,.09-.04,.19-.04,.28,.17-.52,.68-.85,1.22-.79h0c.06,.1,.12,.19,.2,.27-.5-.08-.97,.27-1.04,.78,0,.04-.01,.09-.01,.13,.17-.5,.63-.82,1.15-.8,.07,.07,.14,.13,.21,.19-.45-.01-.82,.35-.84,.81,0,0,0,0,0,0,.14-.43,.53-.71,.97-.72,.04,.03,.08,.05,.12,.08-.39,.07-.68,.41-.7,.82,.17-.54,.74-.84,1.26-.66,.02,0,.04,.01,.06,.02-.07-.05-.15-.09-.23-.12h-.01c-1.1-.69-1.03-1.21-.97-1.37,.09-.14,.2-.26,.34-.35,4.18-1.9,7.17,1.93,7.17,1.93-.54-1.66-1.96-2.87-3.66-3.12m-4.2,1.69h0Z"/><path id="Path_1560" class="cls-19" d="M37.95,38.21c-.16-.21-.61-.2-.66-.19-.23,.01-.44,.08-.63,.2l-.07,.04c-.35,.22-.74,.35-1.15,.38-.41-.03-.8-.16-1.15-.38l-.07-.04c-.19-.12-.41-.19-.63-.2-.05,0-.5-.02-.66,.19-.07,.09-.07,.21-.01,.3,.1,.14,.28,.22,.45,.19,.26,.01,.53-.03,.78-.13,.39,.23,.83,.37,1.28,.39h0s.03,0,.03,0h0c.45-.03,.89-.16,1.28-.4,.25,.1,.51,.14,.78,.13,.17,.03,.35-.05,.45-.19,.06-.09,.05-.21-.01-.3"/><path id="Path_1561" class="cls-17" d="M50.78,24.6l-.43-.23c-.51-6.57-3.41-14.7-14.59-14.8-7.99-.07-11.6,4.75-13.18,9.94-1.03,2.23-1.67,4.62-1.88,7.08l-.64,.45-1.41,7.27s.33,11.28,.33,11.61,11.56,5.53,8.3-1.84c-2.89-6.54-4.56-10.87-2.8-13.21s9.6-3.78,14.75-9.79c2.06,1.91,5.86,4.92,6.72,6.96s2.42,5.75-.86,13.72c-3.54,8.59,5.81,6.89,5.81,6.89l2.32-9.48,.29-10.07-2.72-4.51Z"/><path id="Path_1562" class="cls-4" d="M33.03,42.68l1.81-.86,1.37,.04,1.74,.67,.52,.67-1.11,.7-2.52,.33-1.41-.3-.41-1.26Z"/><path id="Path_1563" class="cls-9" d="M36.44,40.16c-.3-.03-.59,.1-.76,.35-.05,.08-.07,.12-.12,.13s-.06-.05-.12-.13c-.17-.25-.47-.38-.76-.35-1.27,0-2.71,2.76-2.71,2.76,.39,.78,2.37-.36,2.71-.55,.57-.25,1.21-.25,1.77,0,.34,.18,2.32,1.32,2.72,.55,0,0-1.44-2.76-2.72-2.76"/><path id="Path_1564" class="cls-9" d="M39.15,42.93s-.78-.78-1.28-.14-4.13,.64-4.63,0-1.28,.14-1.28,.14c.38,1.66,1.84,2.83,3.52,2.8h0s.06,0,.09,0,.05,0,.09,0h0c1.67,.03,3.13-1.14,3.51-2.8"/></g></g></g></svg>