<?xml version="1.0" encoding="UTF-8"?><svg id="Layer_30" xmlns="http://www.w3.org/2000/svg" xmlns:xlink="http://www.w3.org/1999/xlink" viewBox="0 0 72 72"><defs><style>.cls-1{fill:none;}.cls-2{clip-path:url(#clippath);}.cls-3{fill:#fff;}.cls-4{fill:#e5e5e5;}.cls-5{fill:#e66b5b;}.cls-6{fill:#916440;}.cls-7{fill:#aa7549;}.cls-8{fill:#c2544c;}.cls-9{fill:#3f3d3d;}.cls-10{fill:#a39f4a;}.cls-11{fill:#4a494a;}.cls-12{fill:#383c3d;}.cls-13{fill:#7a5332;}</style><clipPath id="clippath"><rect class="cls-1" width="72" height="72"/></clipPath></defs><g id="Group_458"><g class="cls-2"><g id="Group_457"><path id="Path_1161" class="cls-10" d="M72,36c0,19.89-16.12,36-36,36S0,55.88,0,36,16.12,0,36,0s36,16.12,36,36"/><path id="Path_1162" class="cls-6" d="M42.95,63.93v-.36c-.15,.07-.29,.15-.44,.22-3.64,1.63-8.99,1.33-12.75,0-.23-.08-.47-.18-.69-.28v.43l6.34,8.05c.2,0,.39,.01,.59,.01,.17,0,.34,0,.52-.01l6.43-8.06h0Z"/><path id="Path_1163" class="cls-4" d="M42.95,63.93v7.39c.86-.17,1.71-.37,2.55-.6l.63-2.7-3.18-4.09Z"/><path id="Path_1164" class="cls-4" d="M42.95,63.93l-6.43,8.06c2.16-.03,4.31-.25,6.43-.67v-7.39h0Z"/><path id="Path_1165" class="cls-4" d="M29.06,63.93l-3.2,4.11,.63,2.69c.85,.23,1.71,.43,2.57,.6v-7.39h0Z"/><path id="Path_1166" class="cls-4" d="M29.07,71.33c2.09,.41,4.21,.63,6.34,.66l-6.34-8.05v7.39Z"/><path id="Path_1167" class="cls-9" d="M25.86,68.01l-1.58,2.02h.02s1.56-2,1.56-2v-.02Z"/><path id="Path_1168" class="cls-9" d="M24.3,70.04c.72,.25,1.45,.48,2.2,.68l-.63-2.69-1.56,2.01Z"/><path id="Path_1169" class="cls-9" d="M46.14,68.02l1.57,2.02h0l-1.58-2.03h0Z"/><path id="Path_1170" class="cls-9" d="M45.5,70.72c.75-.2,1.48-.43,2.21-.68l-1.57-2.02-.63,2.7Z"/><path id="Path_1171" class="cls-9" d="M19.69,33.32c.12-2.52,.54-5.01,1.25-7.41-.09,.23-.18,.47-.26,.7-.87,2.5-1.27-7.07-1.27-7.07,0-6.53,16.46-9.03,16.46-9.03,3.26,0,16.6,2.5,16.6,9.03,0,0-.46,9.14-1.11,7.42,.53,2.08,.85,4.22,.95,6.37,1.26,.21,2.32,1.93,2.74,4.29,.55-2.23,.82-4.52,.82-6.82,0-13.23-4.31-23.96-19.87-23.96-14.72,0-19.87,10.73-19.87,23.96,0,2.28,.27,4.56,.81,6.77,.42-2.37,1.48-4.08,2.75-4.25"/><path id="Path_1172" class="cls-7" d="M22.5,48.36c.55,.98,1.37,1.76,2.35,2.26-.84-.69-1.62-1.44-2.35-2.26"/><path id="Path_1173" class="cls-7" d="M47.15,50.62c.98-.49,1.8-1.28,2.35-2.25-.73,.81-1.51,1.57-2.35,2.25"/><path id="Path_1174" class="cls-7" d="M23.09,39.83c.02,2.81-.82,5.19-2.02,6.14,.42,.77,.9,1.62,1.43,2.4,.73,.81,1.51,1.57,2.35,2.26,.16,.06,.33,.09,.5,.09,3.02,0,4.61-3.03,10.65-3.03s7.63,3.03,10.65,3.03c.17,0,.34-.03,.5-.09,.84-.69,1.62-1.44,2.35-2.25,.53-.79,1.02-1.66,1.44-2.43-1.18-.96-2.02-3.31-2.03-6.07-.02-3.62,1.38-6.55,3.13-6.57,.09,0,.18,.01,.26,.03-.1-2.15-.42-4.29-.95-6.37-.03-.07-.05-.14-.07-.21-.72-2.7-2.26-5.11-4.8-5.11-2.99,0-4.57,1.93-10.56,1.93s-7.56-1.93-10.56-1.93c-2.3,0-3.58,2.04-4.45,4.27-.71,2.41-1.13,4.9-1.24,7.41,.06-.01,.12-.02,.19-.02,1.75-.01,3.19,2.91,3.21,6.53m5.08-2.37s-.08,0-.12,0c-.06,0-.12-.01-.18-.02-1.09,.04-2.15-.36-2.96-1.12-.19-.13-.37-.28-.52-.45-.24-.42-.23-.94,.03-1.34,1-.99,2.36-1.49,3.74-1.36,1.6,.18,2.93,1.34,3.4,2.94-.01,.23-.1,.45-.26,.62-.11,.34-1.57,.75-3.13,.73m19.1-1.58c-.15,.17-.33,.32-.52,.45-.81,.76-1.87,1.16-2.96,1.12-.06,.01-.12,.02-.18,.02-.04,0-.08,0-.12,0-1.56,.01-3.01-.39-3.13-.73-.15-.17-.24-.38-.26-.61,.46-1.6,1.8-2.76,3.4-2.94,1.38-.12,2.74,.37,3.74,1.36,.26,.41,.27,.93,.03,1.34m-6.78-4.75c2.18-.72,4.47-.96,6.75-.72,.89,.09,1.36,.61,1.09,1.05s-3.13-.4-6.93,1.17c-.59,.23-1.25,.14-1.75-.24-.35-.37,0-.97,.85-1.26m-7.76,14.48c.42,.03,.82,.16,1.18,.38l.13,.07c.65,.41,1.38,.66,2.14,.7,.76-.06,1.49-.31,2.13-.73l.13-.07c.36-.23,.76-.37,1.18-.4,.09,0,.92-.03,1.22,.36,.13,.16,.14,.39,.03,.57-.19,.28-.52,.42-.84,.36-.49,.02-.98-.06-1.44-.25-.72,.45-1.53,.71-2.37,.76h-.05c-.84-.04-1.66-.29-2.38-.73-.46,.19-.95,.28-1.44,.27-.32,.05-.65-.08-.84-.36-.11-.17-.1-.4,.02-.57,.29-.4,1.12-.38,1.22-.37m-8.18-15.21c2.27-.24,4.57,0,6.75,.72,.85,.28,1.2,.89,.85,1.26-.51,.38-1.17,.47-1.75,.24-3.8-1.57-6.67-.73-6.93-1.17s.21-.96,1.09-1.05"/><path id="Path_1175" class="cls-13" d="M31.48,46.56c.19,.27,.52,.41,.84,.36,.49,.01,.98-.08,1.44-.27,.73,.44,1.54,.69,2.38,.74h.05c.84-.05,1.65-.31,2.37-.76,.46,.18,.95,.27,1.44,.25,.32,.05,.65-.09,.84-.36,.11-.18,.1-.41-.03-.57-.3-.4-1.13-.37-1.22-.36-.42,.03-.82,.17-1.18,.4l-.13,.07c-.64,.42-1.37,.67-2.13,.73-.76-.05-1.49-.29-2.14-.7l-.13-.08c-.36-.22-.76-.35-1.18-.38-.09,0-.92-.03-1.22,.37-.13,.16-.13,.39-.02,.57"/><path id="Path_1176" class="cls-9" d="M42.95,59.62v3.95c7.88-3.82,9.15-12.17,9.35-17.21-.06,.01-.13,.02-.19,.02-.3,0-.6-.09-.87-.24-.08,.11-.16,.22-.24,.34-1.98,7.05-6.43,11.8-15.01,11.8s-12.71-4.65-14.84-11.56c-.14-.18-.27-.37-.4-.56-.25,.14-.52,.22-.81,.22-.05,0-.11,0-.16-.02,.51,5.23,2.55,14.22,9.28,17.13v-3.88h13.88Z"/><path id="Path_1177" class="cls-9" d="M42.51,63.79c.15-.07,.29-.14,.44-.21v-3.95h-13.88v3.89c.23,.1,.46,.19,.69,.28,3.76,1.33,9.11,1.63,12.75,0"/><path id="Path_1178" class="cls-9" d="M51.01,46.48c.08-.11,.16-.22,.24-.33-.04-.03-.08-.05-.12-.08-.04,.14-.08,.28-.12,.41"/><path id="Path_1179" class="cls-9" d="M20.76,46.17c.13,.19,.27,.37,.4,.56-.07-.22-.14-.45-.2-.68-.06,.05-.13,.09-.2,.13"/><path id="Path_1180" class="cls-9" d="M47.15,50.62c-2.53,2.11-5.56,3.47-8.78,3.95-.55,.33-1.18,.5-1.82,.47-.21,.02-.42-.04-.59-.18-.17,.14-.38,.2-.59,.18-.64,.03-1.28-.14-1.83-.48-3.18-.49-6.19-1.85-8.7-3.94-.98-.49-1.8-1.28-2.35-2.26-.47-.52-.91-1.07-1.33-1.64,2.12,6.91,6.67,11.56,14.84,11.56,8.58,0,13.03-4.76,15.01-11.8-.47,.66-.97,1.29-1.51,1.89-.55,.98-1.37,1.76-2.35,2.25"/><path id="Path_1181" class="cls-9" d="M36,47.68c-6.03,0-7.63,3.03-10.65,3.03-.17,0-.34-.03-.5-.09,2.51,2.09,5.52,3.45,8.7,3.94-.23-.16-.44-.34-.62-.56-.17-.2-1.95-1.2-2-1.57h0s1.55-.43,1.83-.59c.58-.32,1.21-.54,1.86-.66,.51,0,.99,.41,1.32,.41h.03c.33,0,.82-.41,1.33-.41,.65,.11,1.28,.33,1.86,.66,.28,.15,1.83,.59,1.83,.59h0c-.02,.08-1.8,1.38-1.97,1.58-.18,.22-.4,.41-.63,.57,3.21-.48,6.24-1.84,8.78-3.95-.16,.06-.33,.09-.5,.09-3.02,0-4.62-3.03-10.65-3.03"/><path id="Path_1182" class="cls-9" d="M21.07,45.96s-.07,.06-.11,.08c.06,.23,.13,.46,.2,.68,.42,.57,.86,1.12,1.33,1.64-.52-.78-1.01-1.63-1.43-2.4"/><path id="Path_1183" class="cls-9" d="M50.94,45.93c-.42,.78-.91,1.65-1.44,2.43,.54-.6,1.04-1.23,1.51-1.89,.04-.14,.08-.27,.12-.41-.06-.04-.13-.09-.18-.14"/><path id="Path_1184" class="cls-9" d="M36,11.7c7.05,0,13.06,6.35,15.35,15.26,.65,1.72,1.11-7.42,1.11-7.42,0-6.53-13.34-9.04-16.6-9.03,0,0-16.46,2.5-16.46,9.03,0,0,.4,9.58,1.27,7.07,.08-.24,.17-.47,.26-.7,2.49-8.35,8.29-14.2,15.06-14.2"/><path id="Path_1185" class="cls-9" d="M25.38,21.64c3,0,4.58,1.93,10.56,1.93s7.57-1.93,10.56-1.93c2.54,0,4.08,2.41,4.8,5.11,.02,.07,.04,.14,.07,.21-2.3-8.9-8.31-15.26-15.35-15.26s-12.58,5.86-15.07,14.2c.86-2.23,2.14-4.26,4.44-4.26"/><path id="Path_1186" class="cls-12" d="M27.1,33.64h.01s.07-.02,.1-.02c.06,0,.12,0,.19-.02,.24-.03,.49-.03,.73-.02,.14,0,.28,.02,.42,.04,.04,0,.08,.02,.11,.03,.08,.02,.17,.03,.25,.06,.11,.03,.21,.07,.32,.12h0c1.43,.62,1.84,2.23,2.07,2.81,.01,.03,0,.06-.01,.09,.15-.17,.24-.39,.26-.62-.46-1.6-1.8-2.76-3.4-2.94-1.37-.12-2.73,.37-3.73,1.36-.26,.4-.27,.93-.03,1.34,.15,.17,.33,.32,.52,.45-.22-.26-.38-.57-.46-.91-.1-.45,.92-1.51,2.65-1.77"/><path id="Path_1187" class="cls-3" d="M24.9,36.33c.81,.76,1.87,1.16,2.96,1.11-.38-.04-.74-.19-1.04-.42-.68-.08-1.33-.32-1.92-.69"/><path id="Path_1188" class="cls-3" d="M31.22,36.82c-.64,.13-1.3,.22-1.95,.26-.33,.23-.71,.36-1.1,.38,1.56,.01,3.01-.39,3.13-.73-.03,.03-.05,.06-.08,.09"/><path id="Path_1189" class="cls-3" d="M29.23,33.83c.1,.04,.2,.09,.3,.15,.77,.75,.8,2,.08,2.8-.1,.11-.22,.22-.34,.3,.65-.04,1.31-.13,1.95-.26,.03-.04,.05-.06,.07-.09,0-.03,.03-.06,.01-.09-.23-.58-.64-2.19-2.07-2.81"/><path id="Path_1190" class="cls-3" d="M26.04,35.38c.02-.73,.43-1.4,1.05-1.74-1.73,.26-2.74,1.33-2.65,1.77,.08,.34,.23,.65,.46,.91,.58,.37,1.24,.61,1.92,.69-.5-.38-.79-.99-.78-1.64"/><path id="Path_1191" class="cls-3" d="M28.91,33.71c.11,.03,.21,.07,.32,.12-.1-.05-.21-.09-.32-.12"/><path id="Path_1192" class="cls-3" d="M27.21,33.62c.06,0,.12-.01,.19-.02-.06,0-.12,.01-.19,.02"/><path id="Path_1193" class="cls-3" d="M28.55,33.62s.08,.02,.11,.03c-.04,0-.07-.02-.11-.03"/><path id="Path_1194" class="cls-11" d="M28.04,37.46s.08,0,.12,0c-.1,0-.2,0-.3-.01,.06,.01,.12,.02,.18,.02"/><path id="Path_1195" class="cls-11" d="M27.11,33.63h-.01s.07,0,.11-.01c-.03,0-.07,0-.1,.01"/><path id="Path_1196" class="cls-11" d="M27.4,33.6c.24-.02,.49-.03,.73-.02-.25-.01-.49,0-.73,.02"/><path id="Path_1197" class="cls-11" d="M28.66,33.65c.08,.02,.17,.03,.25,.06-.08-.02-.16-.04-.25-.06"/><path id="Path_1199" class="cls-11" d="M28.13,33.58c.14,0,.28,.02,.41,.04-.14-.02-.28-.03-.41-.04"/><path id="Path_1200" class="cls-11" d="M26.82,37.02c.3,.24,.66,.39,1.04,.43,.1,0,.2,0,.3,.01,.4-.01,.78-.14,1.1-.38-.81,.07-1.63,.05-2.45-.06"/><path id="Path_1201" class="cls-11" d="M30.13,35.47c.01-.56-.21-1.1-.6-1.49-.1-.06-.2-.11-.3-.15h0c-.1-.05-.21-.09-.32-.12-.08-.02-.16-.04-.25-.06-.04,0-.08-.02-.11-.03-.14-.02-.28-.04-.41-.04-.25,0-.49,0-.73,.02-.06,0-.13,.01-.19,.02-.04,0-.07,.02-.11,.02-.63,.34-1.03,1-1.05,1.74,0,.65,.28,1.26,.78,1.64,.81,.11,1.63,.13,2.45,.06,.52-.36,.84-.96,.86-1.61m-2.07,.58c-.33-.02-.58-.32-.56-.67,.02-.35,.31-.61,.64-.59,.32,.02,.57,.3,.57,.64-.01,.35-.3,.63-.64,.61,0,0,0,0,0,0"/><path id="Path_1202" class="cls-12" d="M28.08,34.79c-.33,0-.6,.29-.59,.64,0,.35,.28,.62,.61,.62,.32,0,.59-.28,.59-.62,0-.35-.27-.64-.61-.64m.01,.72c-.14,0-.26-.11-.27-.26,0-.15,.11-.27,.25-.28,0,0,.02,0,.03,0,.14,0,.26,.11,.27,.26,0,.15-.11,.27-.25,.28,0,0-.02,0-.03,0"/><path id="Path_1203" class="cls-3" d="M28.11,34.98c-.14,0-.27,.11-.27,.26,0,0,0,0,0,0,0,.15,.11,.27,.25,.27,0,0,0,0,0,0,.15,0,.27-.11,.28-.26,0-.15-.12-.27-.27-.28"/><path id="Path_1204" class="cls-12" d="M43.5,33.17c-1.6,.18-2.94,1.34-3.4,2.94,.01,.23,.1,.45,.26,.62,0-.03-.03-.06-.01-.09,.23-.58,.64-2.18,2.07-2.81h.03c.09-.05,.19-.09,.29-.12,.09-.03,.18-.05,.27-.06,.03,0,.06-.02,.09-.02,.14-.02,.28-.04,.42-.04,.24-.01,.49,0,.73,.02,.06,0,.13,.01,.19,.02,.03,0,.06,0,.09,.01h.02c1.72,.27,2.74,1.34,2.65,1.79-.07,.34-.23,.65-.45,.91,.19-.13,.37-.28,.52-.45,.24-.42,.23-.94-.03-1.34-1-.99-2.36-1.49-3.74-1.36"/><path id="Path_1205" class="cls-3" d="M43.78,37.44c1.09,.04,2.15-.36,2.96-1.12-.58,.37-1.24,.61-1.92,.69-.3,.24-.67,.39-1.05,.43"/><path id="Path_1206" class="cls-3" d="M40.43,36.82s-.05-.06-.08-.1c.11,.34,1.57,.75,3.13,.73-.39-.01-.78-.14-1.1-.38-.65-.04-1.31-.13-1.95-.26"/><path id="Path_1207" class="cls-3" d="M42.45,33.81c.1-.04,.19-.08,.29-.11-.1,.03-.2,.06-.29,.11"/><path id="Path_1208" class="cls-3" d="M43.01,33.64s.06-.02,.09-.02c-.03,0-.06,.02-.09,.02"/><path id="Path_1209" class="cls-3" d="M44.55,33.64c.94,.49,1.32,1.68,.85,2.66-.14,.28-.33,.53-.58,.71,.68-.08,1.33-.32,1.92-.69,.23-.26,.38-.57,.46-.91,.1-.45-.92-1.52-2.65-1.77"/><path id="Path_1210" class="cls-3" d="M44.25,33.6c.06,0,.13,.01,.19,.02-.06,0-.13-.01-.19-.02"/><path id="Path_1211" class="cls-3" d="M42.38,37.08c-.52-.36-.84-.96-.86-1.61-.01-.56,.21-1.1,.6-1.49,.09-.06,.19-.11,.3-.15-1.43,.62-1.84,2.23-2.07,2.81-.01,.03,0,.06,.01,.08,.03,.03,.05,.06,.08,.1,.64,.13,1.3,.22,1.95,.26"/><path id="Path_1212" class="cls-11" d="M43.6,37.46c.06,0,.12-.01,.18-.02-.1,0-.2,.01-.3,.01,.04,0,.08,0,.12,0"/><path id="Path_1213" class="cls-11" d="M43.52,33.58c.24-.01,.49,0,.73,.02-.24-.03-.49-.03-.73-.02"/><path id="Path_1214" class="cls-11" d="M43.1,33.63c.14-.02,.28-.04,.42-.04-.14,0-.28,.02-.42,.04"/><path id="Path_1215" class="cls-11" d="M42.74,33.71c.09-.03,.18-.05,.27-.06-.09,.02-.18,.04-.27,.06"/><path id="Path_1216" class="cls-11" d="M42.42,33.83s.02-.01,.03-.01c-.01,0-.02,0-.03,.01"/><path id="Path_1217" class="cls-11" d="M44.53,33.63s-.06,0-.09-.01c.04,0,.07,.02,.11,.02h-.01"/><path id="Path_1218" class="cls-11" d="M42.38,37.08c.33,.23,.71,.36,1.1,.38,.1,0,.2,0,.3-.01,.38-.04,.74-.19,1.05-.43-.81,.11-1.63,.13-2.45,.06"/><path id="Path_1219" class="cls-11" d="M41.52,35.47c.02,.65,.34,1.25,.86,1.61,.81,.07,1.63,.05,2.44-.06,.85-.65,1.03-1.89,.41-2.77-.18-.26-.41-.46-.69-.6-.04,0-.07-.02-.11-.02-.06,0-.13-.01-.19-.02-.24-.02-.49-.03-.73-.02-.14,0-.28,.02-.41,.04-.03,0-.06,.02-.09,.02-.09,.02-.18,.04-.27,.06-.1,.03-.2,.07-.29,.11-.01,0-.02,0-.03,.01-.1,.04-.2,.09-.3,.15-.39,.39-.61,.93-.6,1.49m2.04-.67c.33,0,.6,.29,.59,.64s-.28,.62-.61,.62c-.33,0-.59-.28-.59-.62,0-.35,.27-.64,.61-.64"/><path id="Path_1220" class="cls-12" d="M43.59,36.05c.33-.02,.58-.32,.56-.67-.02-.35-.31-.61-.64-.59-.32,.02-.57,.3-.57,.64,.01,.35,.3,.63,.63,.61,0,0,0,0,0,0m-.05-1.07c.15,0,.27,.11,.27,.26,0,0,0,0,0,0,0,.15-.11,.27-.25,.27,0,0,0,0,0,0-.14,.01-.27-.1-.28-.25,0-.15,.1-.28,.24-.29,0,0,.02,0,.03,0"/><path id="Path_1221" class="cls-3" d="M43.55,35.52c.14,0,.26-.11,.27-.26,0-.15-.11-.27-.25-.28,0,0-.02,0-.03,0-.14,0-.26,.11-.27,.26,0,.15,.11,.27,.25,.28,0,0,.02,0,.03,0"/><path id="Path_1222" class="cls-9" d="M30.37,32.62c.59,.23,1.25,.14,1.75-.24,.35-.37,0-.97-.85-1.26-2.18-.72-4.47-.96-6.75-.72-.89,.09-1.36,.61-1.09,1.05s3.14-.4,6.93,1.17"/><path id="Path_1223" class="cls-9" d="M41.39,32.62c3.8-1.57,6.66-.73,6.93-1.17s-.21-.96-1.09-1.05c-2.27-.24-4.57,0-6.75,.72-.85,.28-1.2,.89-.85,1.26,.51,.38,1.17,.47,1.75,.24"/><path id="Path_1224" class="cls-7" d="M16.94,37.57c-.13,.76-.2,1.53-.19,2.3,.02,3.5,1.37,6.35,3.05,6.51-.07-.73-.11-1.39-.13-1.94-1.23-2.14-2.14-4.45-2.73-6.87"/><path id="Path_1225" class="cls-7" d="M19.65,43.68c.19-.02,.6,.76,1.16,1.81-.82-3.43-1.22-6.96-1.17-10.5,0-.56,.02-1.12,.05-1.67-1.28,.16-2.34,1.88-2.75,4.25,.59,2.41,1.5,4.73,2.73,6.87,0-.27-.01-.53-.01-.75"/><path id="Path_1226" class="cls-7" d="M23.09,39.83c-.02-3.62-1.46-6.54-3.21-6.53-.06,0-.13,0-.19,.02-.03,.55-.05,1.11-.05,1.67-.05,3.54,.35,7.07,1.17,10.5,.08,.15,.17,.31,.25,.47,1.2-.94,2.04-3.33,2.02-6.14"/><path id="Path_1227" class="cls-7" d="M20.76,46.17c-.39-.56-.75-1.14-1.1-1.74,.02,.56,.06,1.22,.13,1.94,.05,0,.11,.01,.16,.02,.28,0,.56-.08,.8-.22"/><path id="Path_1228" class="cls-7" d="M20.82,45.49c-.56-1.05-.98-1.83-1.16-1.81,0,.22,0,.47,.01,.75,.34,.59,.71,1.18,1.1,1.73,.07-.04,.13-.08,.2-.13-.05-.18-.1-.36-.15-.55"/><path id="Path_1229" class="cls-7" d="M21.07,45.96c-.09-.16-.17-.32-.25-.47,.05,.19,.09,.37,.15,.55,.04-.02,.07-.05,.11-.08"/><path id="Path_1230" class="cls-7" d="M52.31,46.37c1.66-.21,2.96-3.06,2.94-6.54,0-.74-.07-1.48-.2-2.21-.58,2.39-1.49,4.68-2.7,6.79,0,.57-.01,1.23-.04,1.96"/><path id="Path_1231" class="cls-7" d="M52.31,33.32c.03,.55,.05,1.1,.05,1.67,.05,3.43-.29,6.85-1.01,10.2,.48-.89,.83-1.53,1-1.5v.73c1.21-2.12,2.12-4.41,2.7-6.79-.42-2.36-1.48-4.09-2.74-4.29"/><path id="Path_1232" class="cls-7" d="M48.91,39.86c.01,2.76,.86,5.11,2.03,6.07,.14-.26,.28-.51,.4-.74,.72-3.35,1.06-6.77,1.01-10.2,0-.56-.02-1.11-.05-1.66-.09-.02-.18-.03-.26-.03-1.75,.01-3.15,2.95-3.13,6.57"/><path id="Path_1233" class="cls-7" d="M51.25,46.15c.26,.16,.56,.24,.87,.24,.06,0,.13,0,.19-.02,.03-.73,.04-1.39,.04-1.96-.34,.6-.71,1.18-1.09,1.74"/><path id="Path_1234" class="cls-7" d="M52.35,43.68c-.17-.02-.52,.61-1,1.5-.07,.3-.14,.59-.22,.88,.04,.03,.08,.05,.12,.08,.39-.56,.75-1.14,1.09-1.74v-.73"/><path id="Path_1235" class="cls-7" d="M51.13,46.07c.08-.29,.15-.58,.22-.88-.13,.24-.26,.48-.4,.74,.06,.05,.12,.1,.18,.14"/><path id="Path_1236" class="cls-8" d="M40.98,52.43h0s-1.55-.43-1.83-.59c-.58-.32-1.21-.54-1.86-.66-.51,0-.99,.41-1.33,.41h-.03c-.33,0-.81-.41-1.32-.41-.65,.11-1.28,.33-1.86,.66-.28,.16-1.83,.59-1.83,.59h0c2.04,.31,7.64,1.04,10.05,0"/><path id="Path_1237" class="cls-5" d="M33.55,54.56c.55,.34,1.19,.51,1.83,.48,.21,.02,.42-.04,.59-.18,.16,.14,.38,.2,.59,.18,.64,.03,1.27-.14,1.82-.47-.79,.11-1.58,.17-2.38,.18-.82,0-1.64-.07-2.45-.19"/><path id="Path_1238" class="cls-5" d="M39.01,54c.17-.2,1.95-1.5,1.97-1.58-2.41,1.04-8.01,.31-10.05,0,.05,.37,1.83,1.37,2,1.57,.18,.22,.39,.4,.62,.56,.81,.12,1.63,.18,2.45,.19,.8,0,1.59-.06,2.38-.18,.24-.16,.45-.35,.63-.57"/></g></g></g></svg>