<?xml version="1.0" encoding="UTF-8"?><svg id="Layer_18" xmlns="http://www.w3.org/2000/svg" xmlns:xlink="http://www.w3.org/1999/xlink" viewBox="0 0 72 72"><defs><style>.cls-1{fill:none;}.cls-2{clip-path:url(#clippath);}.cls-3{fill:#fbb316;}.cls-4{fill:#e66b5b;}.cls-5{fill:#a9423a;}.cls-6{fill:#725035;}.cls-7{fill:#966a44;}.cls-8{fill:#298291;}.cls-9{fill:#4a494a;}.cls-10{fill:#262626;}.cls-11{fill:#256b7c;}.cls-12{fill:#7a5332;}</style><clipPath id="clippath"><rect class="cls-1" width="72" height="72"/></clipPath></defs><g id="Group_438"><g class="cls-2"><g id="Group_437"><path id="Path_540" class="cls-4" d="M72,36c0,19.89-16.12,36-36,36S0,55.88,0,36,16.12,0,36,0s36,16.12,36,36"/><path id="Path_541" class="cls-11" d="M45.39,51.79c2.07,.93,3.75,2.04,3.75,3.27,0,2.5-5.88,4.52-13.14,4.52s-13.14-2.02-13.14-4.52c0-.85,1.5-1.22,2.67-1.89,.61-.36,.52-1.1,1.39-1.38,2.95-.88,6.01-1.3,9.08-1.25,3.7,0,7.08,.22,9.39,1.26"/><path id="Path_542" class="cls-6" d="M41.94,60.7l-11.8,.04-.09-17.32,11.8-.04,.09,17.32Z"/><path id="Path_543" class="cls-8" d="M36,63.5c6.49,.02,12.24-4.21,14.22-10.45l-4.91-1.19c-1.85,5.2-7.52,7.9-12.66,6.03-2.81-1.02-5.01-3.27-5.99-6.11l-4.89,1.24c1.97,6.26,7.73,10.51,14.23,10.49"/><path id="Path_544" class="cls-9" d="M26.81,60.32c-.63-.5-1.22-1.04-1.76-1.63v1.63h1.76Z"/><path id="Path_545" class="cls-3" d="M25.05,58.69c-1.5-1.62-2.62-3.56-3.28-5.67l-3.95,1v6.3h7.23v-1.63Z"/><path id="Path_546" class="cls-3" d="M25.05,66.69h7.28v-3.65c-2-.51-3.88-1.44-5.51-2.72h-1.76v6.37Z"/><path id="Path_547" class="cls-9" d="M39.6,66.69v-3.64c-1.18,.3-2.39,.45-3.6,.45-1.24,0-2.47-.16-3.67-.46v3.65h7.27Z"/><path id="Path_548" class="cls-3" d="M46.87,66.69v-6.37h-1.69c-1.65,1.3-3.55,2.23-5.59,2.73v3.64h7.27Z"/><rect id="Rectangle_348" class="cls-9" x="46.87" y="60.32" width="7.31" height="6.37"/><rect id="Rectangle_349" class="cls-9" x="17.82" y="60.32" width="7.23" height="6.37"/><path id="Path_549" class="cls-9" d="M46.87,58.77c-.52,.56-1.09,1.08-1.69,1.55h1.69v-1.55Z"/><path id="Path_550" class="cls-3" d="M50.22,53.05c-.67,2.14-1.82,4.1-3.35,5.72v1.55h7.3v-6.31l-3.96-.96Z"/><path id="Path_551" class="cls-9" d="M25.05,66.69v3.61c2.37,.76,4.81,1.26,7.28,1.52v-5.12h-7.28Z"/><path id="Path_552" class="cls-3" d="M17.82,66.69v.37c2.28,1.35,4.71,2.43,7.23,3.23v-3.61h-7.23Z"/><path id="Path_553" class="cls-3" d="M46.87,66.69v3.63c2.55-.81,5-1.9,7.31-3.26v-.37h-7.31Z"/><path id="Path_554" class="cls-3" d="M32.33,66.69v5.12c1.22,.12,2.45,.19,3.67,.19,1.21,0,2.41-.06,3.6-.18v-5.13h-7.27Z"/><path id="Path_555" class="cls-9" d="M39.6,66.69v5.13c2.47-.25,4.91-.75,7.27-1.5v-3.63h-7.27Z"/><path id="Path_556" class="cls-9" d="M26.64,35.06c.02,1.49-1.16,2.71-2.63,2.73-1.47,.02-2.68-1.17-2.7-2.66-.02-1.49,1.16-2.71,2.63-2.73,.01,0,.02,0,.03,0,1.46-.01,2.65,1.17,2.66,2.65,0,0,0,0,0,0"/><path id="Path_557" class="cls-9" d="M25.99,31.32c.02,1.81-1.41,3.28-3.2,3.3-1.79,.02-3.25-1.43-3.27-3.23-.02-1.81,1.41-3.28,3.2-3.3,.01,0,.02,0,.03,0,1.77-.01,3.22,1.43,3.23,3.23,0,0,0,0,0,0"/><path id="Path_558" class="cls-9" d="M24.61,27.16c.02,1.8-1.41,3.29-3.19,3.31-1.78,.02-3.25-1.42-3.27-3.23-.02-1.8,1.41-3.29,3.19-3.31,.01,0,.03,0,.04,0,1.77,0,3.22,1.43,3.23,3.23"/><path id="Path_559" class="cls-9" d="M24.93,22.44c.02,1.81-1.42,3.28-3.2,3.3-1.79,.02-3.25-1.43-3.26-3.24-.02-1.81,1.42-3.28,3.2-3.3,.01,0,.02,0,.03,0,1.78,0,3.22,1.44,3.23,3.24"/><path id="Path_560" class="cls-9" d="M25.54,18.57c.02,1.81-1.41,3.29-3.2,3.3-1.79,.02-3.25-1.43-3.27-3.23-.02-1.81,1.41-3.29,3.2-3.3,.01,0,.02,0,.03,0,1.78-.01,3.22,1.43,3.24,3.23,0,0,0,0,0,0"/><path id="Path_561" class="cls-9" d="M27.34,15.09c.02,1.81-1.41,3.29-3.19,3.31-1.79,.02-3.25-1.42-3.27-3.23-.02-1.81,1.41-3.29,3.19-3.31,.01,0,.03,0,.04,0,1.77,0,3.22,1.44,3.23,3.23"/><path id="Path_562" class="cls-9" d="M30.33,11.96c.02,1.81-1.41,3.29-3.19,3.31s-3.25-1.42-3.27-3.23c-.02-1.81,1.41-3.29,3.19-3.31,.01,0,.02,0,.04,0,1.77,0,3.22,1.44,3.24,3.23"/><path id="Path_563" class="cls-9" d="M33.72,10.56c.02,1.81-1.41,3.28-3.2,3.3-1.79,.02-3.25-1.43-3.27-3.23-.02-1.81,1.41-3.28,3.2-3.3,.01,0,.02,0,.03,0,1.77-.01,3.22,1.43,3.24,3.23,0,0,0,0,0,0"/><path id="Path_564" class="cls-9" d="M37.71,10.15c.02,1.8-1.41,3.28-3.2,3.3-1.78,.02-3.25-1.43-3.27-3.23-.02-1.8,1.41-3.28,3.2-3.3,.01,0,.02,0,.03,0,1.77-.01,3.22,1.43,3.23,3.23,0,0,0,0,0,0"/><path id="Path_565" class="cls-9" d="M41.54,10.31c.02,1.81-1.41,3.28-3.2,3.3s-3.25-1.43-3.27-3.23c-.02-1.81,1.41-3.28,3.2-3.3,.01,0,.02,0,.03,0,1.77-.01,3.22,1.43,3.23,3.23,0,0,0,0,0,0"/><path id="Path_566" class="cls-9" d="M44.63,11.12c.02,1.8-1.41,3.28-3.2,3.3-1.78,.02-3.25-1.43-3.27-3.23-.02-1.8,1.41-3.28,3.2-3.3,.01,0,.02,0,.04,0,1.77,0,3.22,1.44,3.23,3.23h0"/><path id="Path_567" class="cls-9" d="M47.64,12.51c.02,1.8-1.41,3.28-3.19,3.31s-3.25-1.42-3.27-3.23c-.02-1.8,1.41-3.28,3.19-3.31,.01,0,.02,0,.03,0,1.78-.01,3.22,1.43,3.24,3.23"/><path id="Path_568" class="cls-9" d="M49.92,15.12c.02,1.8-1.42,3.28-3.2,3.3-1.78,.02-3.25-1.43-3.26-3.24-.02-1.8,1.42-3.28,3.2-3.3,0,0,.02,0,.03,0,1.77-.01,3.22,1.43,3.23,3.23,0,0,0,0,0,0"/><path id="Path_569" class="cls-9" d="M52.2,17.56c.02,1.8-1.41,3.28-3.2,3.3-1.78,.02-3.25-1.43-3.27-3.23-.02-1.8,1.41-3.28,3.2-3.3,.01,0,.02,0,.03,0,1.77-.01,3.22,1.43,3.23,3.22,0,0,0,0,0,0"/><path id="Path_570" class="cls-9" d="M53.42,21.38c.02,1.81-1.41,3.28-3.2,3.3-1.79,.02-3.25-1.43-3.27-3.23-.02-1.81,1.41-3.28,3.2-3.3,.01,0,.02,0,.04,0,1.78,0,3.22,1.44,3.23,3.23"/><path id="Path_571" class="cls-9" d="M53.67,25.13c.02,1.8-1.41,3.28-3.2,3.3-1.78,.02-3.25-1.43-3.27-3.23s1.41-3.28,3.2-3.3c.01,0,.02,0,.03,0,1.77-.01,3.22,1.44,3.23,3.23,0,0,0,0,0,0"/><path id="Path_572" class="cls-9" d="M53.1,28.87c.02,1.8-1.41,3.29-3.19,3.31-1.78,.02-3.25-1.42-3.27-3.23s1.41-3.29,3.19-3.31c.01,0,.03,0,.04,0,1.77,0,3.22,1.44,3.23,3.23"/><path id="Path_573" class="cls-9" d="M52.12,33.35c.02,1.8-1.41,3.28-3.19,3.31s-3.25-1.42-3.27-3.23c-.02-1.8,1.41-3.28,3.19-3.31,.01,0,.02,0,.03,0,1.77,0,3.22,1.44,3.24,3.23"/><path id="Path_574" class="cls-9" d="M49.92,34.98c.02,1.8-1.41,3.28-3.2,3.3-1.78,.02-3.25-1.43-3.27-3.23-.02-1.8,1.41-3.28,3.2-3.3,.01,0,.02,0,.03,0,1.77-.01,3.22,1.43,3.23,3.22,0,0,0,0,0,.01"/><path id="Path_575" class="cls-9" d="M52.84,24.93c-.05,9.34-7.57,16.87-16.81,16.82-9.23-.05-16.68-7.66-16.63-16.99,.05-9.3,7.52-16.82,16.72-16.82,9.26,.02,16.74,7.63,16.72,16.99"/><path id="Path_576" class="cls-7" d="M48.46,29.89c.67-.17,1.22,.5,1.22,2.13-.08,1.99-.6,3.94-1.52,5.7-1.3,2.47-2.27,1.58-2.61-.14-.04,.06-.09,.12-.12,.19,1.28-2.51,2.3-5.15,3.03-7.88"/><path id="Path_577" class="cls-7" d="M23.51,29.89c-.67-.17-1.22,.5-1.23,2.13,.08,1.99,.61,3.94,1.53,5.7,1.31,2.47,2.26,1.58,2.61-.14,.04,.06,.08,.12,.13,.19-1.29-2.51-2.3-5.15-3.03-7.88"/><path id="Path_578" class="cls-7" d="M36.04,15.41c-7.28,0-14.19,6.38-12.33,16.5,1.49,8.14,.1,11.3,4.97,14.7,1.58,1.53,5.57,3.5,7.4,3.5s5.91-1.95,7.42-3.5c4.39-3.31,3.62-7.24,4.96-14.7,1.75-9.69-5.14-16.5-12.42-16.5"/><path id="Path_579" class="cls-12" d="M39.55,39.24c-.23-.29-.86-.28-.93-.27-.32,.02-.63,.12-.9,.29l-.1,.05c-.49,.32-1.05,.5-1.63,.54-.58-.04-1.14-.22-1.63-.54l-.1-.05c-.27-.17-.58-.27-.9-.29-.07,0-.7-.02-.93,.27-.1,.12-.11,.29-.02,.42,.15,.2,.4,.31,.64,.27,.37,.01,.75-.05,1.1-.19,.55,.33,1.17,.52,1.82,.56h.04c.64-.04,1.26-.23,1.82-.56,.35,.14,.72,.2,1.1,.19,.25,.04,.49-.07,.64-.27,.08-.13,.07-.3-.02-.42"/><path id="Path_580" class="cls-9" d="M34.51,13.74c.02,1.81-1.41,3.28-3.2,3.3s-3.25-1.43-3.27-3.23c-.02-1.81,1.41-3.28,3.2-3.3,.01,0,.02,0,.03,0,1.78-.01,3.22,1.44,3.23,3.23h0"/><path id="Path_581" class="cls-9" d="M39.17,13.74c.02,1.81-1.41,3.28-3.2,3.3-1.79,.02-3.25-1.43-3.27-3.23-.02-1.81,1.41-3.28,3.2-3.3,.01,0,.02,0,.03,0,1.78-.01,3.22,1.44,3.24,3.23h0"/><path id="Path_582" class="cls-9" d="M43.21,14.37c.02,1.8-1.41,3.28-3.2,3.3-1.78,.02-3.25-1.43-3.27-3.23s1.41-3.28,3.2-3.3c.01,0,.02,0,.03,0,1.77-.01,3.22,1.44,3.23,3.23h0"/><path id="Path_583" class="cls-9" d="M48.38,16.39c.02,1.81-1.41,3.29-3.2,3.31s-3.25-1.43-3.27-3.23c-.02-1.81,1.41-3.29,3.2-3.31,.01,0,.03,0,.04,0,1.78,0,3.22,1.44,3.23,3.23"/><path id="Path_584" class="cls-9" d="M51.78,19.79c.02,1.81-1.41,3.28-3.2,3.3-1.79,.02-3.25-1.43-3.27-3.23-.02-1.81,1.41-3.28,3.2-3.3,.01,0,.02,0,.04,0,1.78,0,3.22,1.44,3.23,3.23,0,0,0,0,0,0"/><path id="Path_585" class="cls-9" d="M52.79,24.97c.02,1.81-1.42,3.28-3.2,3.3-1.79,.02-3.25-1.43-3.26-3.24-.02-1.81,1.42-3.28,3.2-3.3,.01,0,.02,0,.03,0,1.78-.01,3.22,1.44,3.23,3.23,0,0,0,0,0,0"/><path id="Path_586" class="cls-9" d="M53.42,26.73c.02,1.81-1.41,3.28-3.2,3.3-1.79,.02-3.25-1.43-3.27-3.23-.02-1.81,1.41-3.28,3.2-3.3,.01,0,.02,0,.04,0,1.77-.01,3.22,1.43,3.23,3.23,0,0,0,0,0,0"/><path id="Path_587" class="cls-9" d="M26.19,22.44c.02,1.81-1.41,3.29-3.2,3.31s-3.25-1.43-3.27-3.23c-.02-1.81,1.41-3.29,3.2-3.31,.01,0,.02,0,.03,0,1.78,0,3.22,1.44,3.24,3.23"/><path id="Path_588" class="cls-9" d="M27.95,18.4c.02,1.8-1.41,3.28-3.2,3.3-1.78,.02-3.25-1.43-3.27-3.23-.02-1.8,1.41-3.28,3.2-3.3,.01,0,.02,0,.03,0,1.78,0,3.22,1.44,3.24,3.23"/><path id="Path_589" class="cls-9" d="M30.09,16.39c.02,1.81-1.41,3.29-3.2,3.31-1.79,.02-3.25-1.43-3.27-3.23-.02-1.81,1.41-3.29,3.2-3.31,.01,0,.03,0,.04,0,1.78,0,3.22,1.44,3.23,3.23"/><path id="Path_590" class="cls-10" d="M50.74,27.97v-.03s-.03-.07-.07-.09h-.02c-1.24-.59-6.43-.91-9.23-.52-2.82,.38-4.49,1.3-5.43,1.33-.93-.03-2.61-.93-5.44-1.3-2.8-.36-7.99-.01-9.22,.58h-.02s-.06,.06-.07,.1v.03c-.01,.2-.05,1.08-.03,1.58v.07c.02,.14,.1,.25,.22,.31h.02c.25,.12,.68,.61,1.12,2.99,.2,1.19,.46,3.7,2.44,4.45,.91,.34,5.28,1.02,7.5-1.19,.6-.76,1.07-1.61,1.4-2.53,.25-.71,.91-2.75,1.01-3.06,.15-.55,.46-.88,.97-.88h.22c.51,0,.82,.33,.97,.88,.11,.31,.78,2.34,1.03,3.05,.33,.91,.8,1.76,1.41,2.52,2.24,2.19,6.61,1.48,7.5,1.14,1.99-.77,2.22-3.28,2.41-4.46,.43-2.38,.86-2.87,1.11-2.99h.02c.12-.07,.21-.19,.22-.33v-.07c.01-.5-.03-1.38-.05-1.58"/><path id="Path_591" class="cls-5" d="M36.8,42.1c-.27-.03-.54,.09-.7,.32-.05,.07-.07,.11-.11,.12-.05,0-.06-.05-.11-.12-.16-.23-.42-.35-.7-.32-1.16,0-2.47,2.51-2.47,2.51,.36,.7,2.16-.33,2.47-.49,.51-.23,1.1-.23,1.61,0,.31,.17,2.11,1.2,2.47,.49,0,0-1.32-2.51-2.47-2.51"/><path id="Path_592" class="cls-5" d="M39.27,44.61s-.71-.71-1.17-.13-3.75,.59-4.21,0-1.17,.13-1.17,.13c.34,1.5,1.67,2.57,3.2,2.55h0s.05,0,.08,0c.03,0,.05,0,.08,0h0c1.52,.01,2.85-1.05,3.19-2.55"/></g></g></g></svg>