<?xml version="1.0" encoding="UTF-8"?><svg id="Layer_10" xmlns="http://www.w3.org/2000/svg" xmlns:xlink="http://www.w3.org/1999/xlink" viewBox="0 0 72 72"><defs><style>.cls-1{fill:none;}.cls-2{clip-path:url(#clippath);}.cls-3{fill:#f8dec5;}.cls-4{fill:#ec625b;}.cls-5{fill:#e9caab;}.cls-6{fill:#fff;}.cls-7{fill:#e66b5b;}.cls-8{fill:#8cc4c6;}.cls-9{fill:#cca884;}.cls-10{fill:#cc5d54;}.cls-11{fill:#dfc5ad;}.cls-12{fill:#130d0a;}.cls-13{fill:#110e0d;}.cls-14{fill:#42b5e8;}.cls-15{fill:#09536d;}.cls-16{fill:#3f4ba0;}.cls-17{fill:#a39f4a;}.cls-18{fill:#29bec8;}.cls-19{fill:#256b7c;}.cls-20{fill:#74b3bb;}</style><clipPath id="clippath"><rect class="cls-1" width="72" height="72"/></clipPath></defs><g id="Group_454"><g class="cls-2"><g id="Group_453"><path id="Path_1101" class="cls-17" d="M72,35.98c0,19.87-16.12,35.98-36,35.98S0,55.86,0,35.98,16.12,0,36,0s36,16.11,36,35.98"/><path id="Path_1102" class="cls-19" d="M27.45,50.09h17.06s2.67,3.24,2.67,3.24l-9.46,6.58-10.71-2.26-.81-6.03,1.26-1.53Z"/><path id="Path_1103" class="cls-14" d="M35.98,32.64v-.02s0,.01,0,.02"/><path id="Path_1104" class="cls-16" d="M35.97,31.33h0s0-.01,0-.02v.03"/><path id="Path_1105" class="cls-5" d="M41.92,58.85l-11.8,.04-.08-17.31,11.8-.04,.08,17.31Z"/><path id="Path_1106" class="cls-18" d="M44.01,51.35v-.03s0,.03,0,.03"/><path id="Path_1107" class="cls-18" d="M44.47,50.09s-.02,.09-.03,.13c0-.04,.03-.08,.03-.13h0"/><path id="Path_1108" class="cls-8" d="M57.5,58.75c0-2.12-1.26-3.73-3.41-4.45-1.29-.43-6.03-2.58-9.6-4.21h-.02s-.03,.07-.03,.11c-.03,.14-.06,.27-.1,.41-.02,.05-.03,.1-.05,.14-.08,.19-.17,.38-.27,.56v.03c-1.01,1.4-2.43,2.42-4.04,2.91h0c-1.31,.47-2.69,.71-4.07,.71-1.3,0-2.6-.22-3.83-.64h0c-1.04-.34-2.02-.87-2.89-1.56-.88-.64-1.5-1.6-1.72-2.69h-.03c-3.56,1.64-8.31,3.78-9.6,4.22-2.14,.72-3.4,2.33-3.4,4.45l-.77,5.49c2.48,1.96,5.19,3.58,8.06,4.82,9.12,3.91,19.37,3.91,28.49,0,2.88-1.24,5.59-2.86,8.07-4.82l-.77-5.49Z"/><path id="Path_1109" class="cls-11" d="M46.69,33.52c-.75,2.49-.46,4.78,.65,5.11s2.61-1.42,3.35-3.91,.46-4.77-.65-5.11-2.61,1.42-3.36,3.9"/><path id="Path_1110" class="cls-15" d="M49.89,38.37c.03,.92-.66,1.7-1.55,1.74-.89,.04-1.64-.68-1.67-1.61-.03-.92,.66-1.7,1.55-1.74,.02,0,.04,0,.06,0,.87-.02,1.59,.7,1.61,1.61"/><path id="Path_1111" class="cls-11" d="M25.03,33.52c.75,2.49,.45,4.78-.65,5.11s-2.61-1.42-3.36-3.91-.46-4.77,.65-5.11,2.61,1.42,3.36,3.9"/><path id="Path_1112" class="cls-15" d="M24.56,38.37c.03,.92-.66,1.7-1.55,1.73-.89,.04-1.64-.68-1.67-1.61-.03-.92,.66-1.7,1.55-1.73,.02,0,.04,0,.06,0,.87-.02,1.59,.7,1.61,1.61"/><path id="Path_1113" class="cls-4" d="M50.91,24.01c0,8.28-6.71,14.98-14.99,14.98s-14.99-6.71-14.99-14.98,6.71-14.99,14.99-14.99,14.99,6.71,14.99,14.99"/><path id="Path_1114" class="cls-3" d="M49.15,30.61c0,10.25-8.35,19.26-13.4,19.26s-13.46-9.01-13.46-19.26,5.71-18.56,13.43-18.56,13.43,8.31,13.43,18.56"/><path id="Path_1115" class="cls-6" d="M33.2,35.03s-.74-3.96-4.12-4.7c-3.61-.79-4.62,1.53-4.62,1.53,.5,1.84,2.05,3.15,3.89,3.3,1.61,.22,3.25,.18,4.85-.14"/><path id="Path_1116" class="cls-20" d="M26.73,31.4c-.55,1.12-.11,2.49,.97,3.06,.03,.02,.06,.03,.09,.04,1.14,.57,2.51,.11,3.11-1.05,.54-1.12,.11-2.49-.97-3.06-.03-.01-.06-.03-.09-.04-1.14-.57-2.5-.11-3.1,1.05"/><path id="Path_1117" class="cls-12" d="M27.44,31.46c-.39,.8-.09,1.78,.68,2.19,.02,.01,.04,.02,.07,.03,.81,.41,1.79,.08,2.22-.75,.39-.81,.07-1.79-.7-2.19-.02,0-.03-.02-.05-.03-.81-.41-1.79-.08-2.22,.75"/><path id="Path_1118" class="cls-6" d="M28.95,31.63c-.14,.28-.03,.63,.24,.78,0,0,.02,0,.03,.01,.29,.15,.64,.03,.79-.27,.14-.29,.03-.64-.25-.78,0,0-.01,0-.02-.01-.29-.15-.64-.03-.79,.27"/><path id="Path_1119" class="cls-6" d="M28.13,31.46c-.08,.15-.02,.34,.12,.42,0,0,.01,0,.02,0,.16,.08,.34,.02,.42-.14,.08-.15,.02-.34-.13-.42,0,0,0,0-.01,0-.16-.08-.34-.02-.42,.14"/><path id="Path_1120" class="cls-13" d="M33.2,35.03s-1.11-5.74-8.76-3.31c.9-1.53,6.92-4.49,8.76,3.31"/><path id="Path_1121" class="cls-6" d="M38.02,35.03s.74-3.96,4.11-4.7c3.62-.79,4.62,1.53,4.62,1.53-.5,1.84-2.06,3.15-3.89,3.3-1.61,.22-3.25,.18-4.85-.14"/><path id="Path_1122" class="cls-20" d="M44.49,31.4c.55,1.12,.12,2.49-.96,3.06-.03,.01-.06,.03-.09,.04-1.14,.57-2.51,.11-3.11-1.05-.54-1.12-.11-2.49,.97-3.06,.03-.01,.05-.03,.08-.04,1.14-.57,2.5-.11,3.1,1.05"/><path id="Path_1123" class="cls-12" d="M43.79,31.46c.39,.8,.08,1.79-.7,2.19-.02,.01-.04,.02-.06,.03-.81,.41-1.79,.08-2.22-.75-.39-.8-.08-1.78,.7-2.19,.02,0,.04-.02,.06-.03,.81-.41,1.79-.08,2.22,.75"/><path id="Path_1124" class="cls-6" d="M42.28,31.63c.14,.29,.03,.64-.25,.78,0,0-.01,0-.02,.01-.29,.15-.64,.03-.79-.27-.14-.29-.03-.64,.25-.78,0,0,.01,0,.02,0,.29-.15,.64-.03,.79,.27"/><path id="Path_1125" class="cls-6" d="M43.09,31.46c.08,.15,.02,.34-.12,.41,0,0-.01,0-.02,.01-.15,.08-.34,.02-.42-.14,0,0,0,0,0,0-.08-.15-.02-.34,.12-.42,0,0,.01,0,.02-.01,.16-.08,.34-.02,.42,.14"/><path id="Path_1126" class="cls-13" d="M38.02,35.03s1.12-5.74,8.75-3.31c-.89-1.53-6.91-4.49-8.75,3.31"/><path id="Path_1127" class="cls-9" d="M37.46,41.02c-.12-.16-.44-.15-.48-.14-.17,0-.33,.06-.47,.15l-.05,.03c-.26,.16-.55,.26-.85,.28-.3-.02-.59-.11-.85-.28l-.05-.03c-.14-.09-.3-.14-.47-.15-.04,0-.37-.01-.49,.14-.05,.06-.05,.15,0,.22,.08,.11,.21,.16,.33,.14,.2,0,.39-.03,.57-.1,.29,.17,.61,.28,.95,.29h.02c.33-.02,.66-.12,.95-.29,.18,.07,.38,.11,.57,.1,.13,.02,.26-.03,.34-.14,.05-.07,.04-.16,0-.22"/><path id="Path_1128" class="cls-10" d="M38.64,43.49c-.38-.09-.77,.04-1.04,.33-1.22,1.29-2.63,1.32-3.8,0-.26-.3-.66-.43-1.04-.33,.05,.19,.3,2.88,2.87,3.06h.15c2.57-.18,2.84-2.89,2.86-3.06"/><path id="Path_1129" class="cls-7" d="M38.65,43.49s-2.03-1.07-2.94,.23c-1.16-1.3-2.95-.21-2.95-.23,.92,.49,1.91,.81,2.94,.97,1.03-.15,2.02-.48,2.95-.97"/><path id="Path_1130" class="cls-4" d="M42.1,10.92c-4.54,.52-9.78-.41-12.58,1.22-2.58,1.51-4.24,4.77-5.63,6.57-3.2,4.13-2.28,8.94-1.79,9.11,2.57,1.05,5.44,.98,7.97-.2,2.77-1.18,5.85-3.12,9.22-2.73,1.56,.14,3.08,.64,4.43,1.47,1,.79,1.83,1.77,2.46,2.9,.95,1.56,1.75,3.22,2.38,4.95-.31-2.32-.94-4.57-1.86-6.71-1.05-2.48-2.85-5.5-5.89-6.71,.24,.07,.48,.15,.72,.24,1.46,.53,2.8,1.39,3.9,2.52,.78,1,1.36,2.15,1.71,3.39,.57,1.72,.98,3.5,1.21,5.31,.06-.78,1.19-6.53,1.52-8.78,.47-3.23-5.97-12.77-7.76-12.57"/></g></g></g></svg>