<?xml version="1.0" encoding="UTF-8"?><svg id="Layer_17" xmlns="http://www.w3.org/2000/svg" xmlns:xlink="http://www.w3.org/1999/xlink" viewBox="0 0 72 72"><defs><style>.cls-1{fill:none;}.cls-2{clip-path:url(#clippath);}.cls-3{fill:#fff;}.cls-4{fill:#ef4861;}.cls-5{fill:#9a4422;}.cls-6{fill:#323232;}.cls-7{fill:#a9423a;}.cls-8{fill:#bc824d;}.cls-9{fill:#d69560;}.cls-10{fill:#110e0d;}.cls-11{fill:#29bec8;}.cls-12{fill:#4a494a;}.cls-13{fill:#7a5332;}</style><clipPath id="clippath"><rect class="cls-1" width="72" height="72"/></clipPath></defs><g id="Group_436"><g class="cls-2"><g id="Group_435"><path id="Path_511" class="cls-4" d="M72,35.99c0,19.87-16.12,35.98-36,35.98S0,55.86,0,35.99,16.12,0,36,0s36,16.11,36,35.98"/><path id="Path_512" class="cls-10" d="M27.45,50.09h17.06s2.66,3.24,2.66,3.24l-9.45,6.59-10.71-2.27-.81-6.03,1.26-1.53Z"/><path id="Path_515" class="cls-8" d="M41.92,58.86l-11.8,.04-.08-17.31,11.8-.04,.09,17.31Z"/><path id="Path_516" class="cls-11" d="M44.01,51.35v-.03s0,.03,0,.03"/><path id="Path_517" class="cls-11" d="M44.47,50.09s-.02,.08-.03,.13c0-.04,.03-.08,.03-.12h0"/><path id="Path_518" class="cls-10" d="M44.01,51.35c-1,1.4-2.41,2.42-4.02,2.91h0c-2.55,.93-5.33,.95-7.9,.08h0c-1.04-.35-2.02-.87-2.89-1.56-.89-.64-1.5-1.6-1.72-2.7h-.01c.22,1.1,.84,2.06,1.72,2.7-4.1,4.47-6.71,10.17-7.46,16.28,4.51,1.94,9.35,2.94,14.24,2.94,4.89,0,9.73-.99,14.24-2.93-.75-6.11-3.36-11.81-7.45-16.28,.5-.4,.93-.88,1.26-1.43"/><path id="Path_519" class="cls-12" d="M27.45,50.09h-.01c-3.57,1.64-8.31,3.78-9.6,4.21-2.15,.72-3.4,2.33-3.4,4.45l-.77,5.49c2.48,1.96,5.18,3.58,8.06,4.82,.75-6.11,3.36-11.81,7.46-16.28-.88-.64-1.5-1.6-1.72-2.69"/><path id="Path_520" class="cls-12" d="M54.1,54.31c-1.29-.43-6.03-2.58-9.59-4.21h-.02s-.02,.07-.03,.11c-.03,.14-.06,.28-.11,.41-.01,.05-.03,.09-.05,.14-.07,.2-.16,.38-.27,.56v.03c-.35,.55-.78,1.03-1.28,1.43,4.1,4.47,6.71,10.18,7.46,16.29,2.88-1.24,5.59-2.86,8.07-4.82l-.77-5.49c0-2.12-1.26-3.73-3.41-4.45"/><path id="Path_521" class="cls-12" d="M52.8,23.12c-.09,9.51-7.61,17.15-16.81,17.07-9.2,.08-16.73-7.56-16.81-17.07,.09-9.51,7.61-17.15,16.81-17.07,9.2-.08,16.73,7.56,16.81,17.07"/><path id="Path_522" class="cls-9" d="M48.39,28.1c.67-.17,1.22,.5,1.23,2.14-.08,2.01-.6,3.97-1.53,5.73-1.31,2.49-2.28,1.59-2.62-.14-.04,.07-.08,.13-.12,.19,1.29-2.52,2.31-5.17,3.05-7.92"/><path id="Path_523" class="cls-9" d="M23.3,28.1c-.68-.17-1.22,.5-1.23,2.14,.08,2.01,.61,3.97,1.54,5.73,1.31,2.49,2.28,1.59,2.62-.14,.04,.07,.08,.13,.13,.19-1.29-2.52-2.31-5.17-3.05-7.92"/><path id="Path_524" class="cls-9" d="M35.9,13.54c-7.32,0-14.26,6.41-12.4,16.58,1.5,8.17,1.28,11.35,6.17,14.77,1.59,1.54,4.42,3.13,6.26,3.13s4.76-1.57,6.28-3.13c4.42-3.32,4.82-7.27,6.17-14.77,1.76-9.74-5.17-16.58-12.49-16.58"/><path id="Path_525" class="cls-13" d="M38.06,39.02c-.15-.18-.54-.18-.59-.17-.2,.01-.39,.08-.57,.18l-.06,.03c-.31,.19-.66,.31-1.02,.33-.36-.02-.71-.14-1.03-.33l-.06-.03c-.17-.11-.37-.17-.57-.18-.04,0-.44,0-.58,.17-.06,.08-.07,.18-.01,.27,.1,.13,.25,.19,.4,.17,.23,0,.47-.04,.69-.12,.35,.21,.74,.33,1.14,.35h.02c.4-.02,.79-.14,1.14-.35,.22,.08,.45,.13,.69,.12,.15,.02,.31-.04,.41-.17,.05-.08,.05-.19-.01-.27"/><path id="Path_526" class="cls-12" d="M44.75,10.03c-2.16-.7-4.32-1.09-6.49-1.69-1.73-.49-6.6-1.12-6.1-.32,.6,.94,1.34,1.78,2.2,2.48-8.96-.07-12.18,13.61-11.32,14,2.77,1.15,5.84,1.24,8.67,.26,2.74-.86,5.86-2.41,9.02-1.71,1.47,.28,2.86,.9,4.07,1.82,.87,.85,1.57,1.86,2.05,2.99,.76,1.58,1.36,3.23,1.79,4.93-.08-2.23-.46-4.43-1.13-6.55-.76-2.46-2.18-5.5-4.96-6.94,.23,.08,.45,.18,.67,.29,1.34,.64,2.53,1.59,3.47,2.78,.65,1.03,1.09,2.18,1.31,3.38,.38,1.69,.6,3.42,.64,5.16,.14-.73,1.76-6.09,2.28-8.19,.76-3.02-4.53-12.15-6.17-12.68"/><path id="Path_527" class="cls-12" d="M40.88,43.35c-.34-.35-.74-.65-.85-.78-3.02-3.37-5.07-3.47-8.51,0-.1,.1-.51,.38-.91,.71-2.02-.68-5.48-4.54-5.48-4.54,1.17,4.25,4.04,7.66,6.58,8.53,2.37,2.11,5.87,2.11,8.24,0,2.47-.84,4.66-3.2,6.59-8.42,0,0-3.59,3.83-5.67,4.5m-4.89,1.22c-1.38,0-2.5-.43-2.5-.96s1.12-.97,2.5-.97,2.5,.43,2.5,.97-1.12,.96-2.5,.96"/><path id="Path_528" class="cls-7" d="M36.47,41.68c-.23-.02-.45,.05-.63,.2-.04,.05-.06,.07-.1,.08s-.05-.03-.1-.08c-.18-.15-.4-.22-.63-.2-1.03,0-2.22,1.56-2.22,1.56,.32,.44,1.94-.2,2.22-.31,.47-.14,.98-.14,1.45,0,.28,.11,1.9,.75,2.22,.31,0,0-1.18-1.56-2.22-1.56"/><path id="Path_529" class="cls-7" d="M38.68,43.24s-.64-.44-1.05-.08-3.37,.36-3.78,0-1.05,.08-1.05,.08c0,0,.41,1.53,2.87,1.58h.14c2.47-.06,2.87-1.58,2.87-1.58"/><path id="Path_530" class="cls-3" d="M29.77,33.02c-.95-.05-1.7-.86-1.7-1.85-.86,.11-1.71,.3-2.54,.57,1.09,.74,2.34,1.2,3.64,1.33,1.29,.05,2.57-.21,3.74-.78-.35-.17-.79-.36-1.25-.54-.27,.82-1.04,1.35-1.88,1.28"/><path id="Path_531" class="cls-5" d="M28.07,31.17c0,.99,.75,1.8,1.7,1.85,.84,.07,1.61-.46,1.88-1.28-.78-.31-1.6-.52-2.43-.6-.38-.02-.76-.01-1.14,.03"/><path id="Path_532" class="cls-6" d="M33.1,32.18c-.44-.31-.9-.57-1.38-.79-.77-.37-1.6-.59-2.44-.66-.38-.03-.77-.02-1.15,.03-.97,.12-1.91,.41-2.78,.85-.3,.15-.59,.31-.87,.5,0,0,.42-.17,1.06-.37,.83-.27,1.68-.46,2.54-.57,.38-.04,.76-.05,1.14-.03,.83,.09,1.65,.29,2.43,.6,.47,.18,.9,.37,1.25,.54,.57,.27,.93,.49,.93,.49-.23-.21-.48-.4-.73-.58"/><path id="Path_533" class="cls-6" d="M30.34,31.97c-.03,.32-.3,.56-.61,.53-.3-.03-.53-.31-.5-.63,.03-.32,.3-.54,.61-.51,.3,.03,.52,.3,.5,.61"/><path id="Path_534" class="cls-3" d="M30.01,32.1c0,.1-.1,.18-.2,.17-.1,0-.18-.09-.17-.19,0,0,0,0,0,0,0-.11,.1-.19,.2-.18s.18,.1,.17,.21"/><path id="Path_535" class="cls-3" d="M41.8,33.02c.95-.05,1.7-.86,1.7-1.85,.86,.11,1.71,.3,2.54,.57-1.09,.74-2.34,1.2-3.64,1.33-1.29,.05-2.57-.21-3.73-.78,.35-.17,.78-.36,1.25-.54,.27,.82,1.04,1.35,1.88,1.28"/><path id="Path_536" class="cls-5" d="M43.5,31.17c0,.99-.75,1.8-1.7,1.85-.84,.07-1.61-.46-1.88-1.28,.78-.31,1.6-.52,2.43-.6,.38-.02,.77-.01,1.15,.03"/><path id="Path_537" class="cls-6" d="M38.48,32.18c.43-.31,.89-.57,1.38-.79,.77-.37,1.6-.59,2.45-.66,.38-.03,.77-.02,1.15,.03,.97,.12,1.91,.41,2.78,.85,.3,.15,.59,.31,.87,.5,0,0-.42-.17-1.06-.37-.83-.27-1.68-.46-2.54-.57-.38-.04-.76-.05-1.15-.03-.83,.09-1.65,.29-2.43,.6-.47,.18-.9,.37-1.25,.54-.57,.27-.94,.49-.94,.49,.23-.21,.48-.4,.74-.58"/><path id="Path_538" class="cls-6" d="M41.23,31.97c.03,.32,.3,.56,.62,.53,.31-.02,.55-.29,.53-.61,0,0,0,0,0,0-.03-.33-.31-.56-.63-.53-.3,.03-.53,.3-.52,.61"/><path id="Path_539" class="cls-3" d="M41.56,32.1c0,.11,.1,.18,.2,.18s.18-.1,.17-.2c0-.1-.09-.18-.2-.18s-.18,.1-.17,.2"/></g></g></g></svg>