<?xml version="1.0" encoding="UTF-8"?><svg id="Layer_12" xmlns="http://www.w3.org/2000/svg" xmlns:xlink="http://www.w3.org/1999/xlink" viewBox="0 0 72 72"><defs><style>.cls-1{fill:none;}.cls-2{clip-path:url(#clippath);}.cls-3{fill:#f7d5b7;}.cls-4{fill:#fff;}.cls-5{fill:#e66b5b;}.cls-6{fill:#b78e65;}.cls-7{fill:#b28967;}.cls-8{fill:#ddbfa4;}.cls-9{fill:#d3d3d3;}.cls-10{fill:#d4d4c6;}.cls-11{fill:#1f2013;}.cls-12{fill:#1e1e1e;}.cls-13{fill:#41b5b7;}.cls-14{fill:#454342;}.cls-15{fill:#2c2c2c;}.cls-16{fill:#653011;}.cls-17{fill:#262211;}.cls-18{fill:#51524f;}</style><clipPath id="clippath"><rect class="cls-1" width="72" height="72"/></clipPath></defs><g id="Group_484"><g class="cls-2"><g id="Group_483"><path id="Path_1981" class="cls-10" d="M72,36c0,19.88-16.12,36-36,36S0,55.88,0,36,16.12,0,36,0s36,16.12,36,36"/><path id="Path_1982" class="cls-14" d="M36,72c9.88,.04,19.36-4.06,26.25-11.38l-7.94-6.24H17.8l-7.27,7.04c6.84,6.81,15.98,10.61,25.48,10.57"/><rect id="Rectangle_386" class="cls-9" x="26.62" y="46.05" width="18.77" height="3.51"/><path id="Path_1983" class="cls-8" d="M41.71,57.27l-11.8,.04-.08-17.32,11.8-.04,.08,17.32Z"/><rect id="Rectangle_387" class="cls-4" x="25.32" y="53.74" width="23.54" height="12.38"/><path id="Path_1984" class="cls-6" d="M38.15,35.71s-.08,0-.12,0c.03,0,.07-.01,.1-.02,.1,0,.19,0,.28,.03-.09,0-.18,0-.27,0"/><path id="Path_1985" class="cls-14" d="M48.54,52.39l4.49,4.03-3.01,3.19,4.22,3.02-17.12,9.34c6.04-.17,11.95-1.88,17.2-4.98v-12.61l-5.77-1.99Z"/><path id="Path_1986" class="cls-14" d="M18.9,56.46l4.45-3.99-5.55,1.92v8.21l4.12-2.95-3.01-3.19Z"/><path id="Path_1987" class="cls-14" d="M17.8,67.06c5.05,2.96,10.7,4.64,16.5,4.9l-16.5-9.22v4.32Z"/><path id="Path_1988" class="cls-13" d="M37.9,58.43h.93l2.39-4.54h-10.4l2.39,4.54h1.03l-.75,7.78c.69,1.89,1.37,3.83,1.99,5.77,.17,0,.34,.01,.52,.01l2.6-6.97-.68-6.6Z"/><path id="Path_1989" class="cls-5" d="M33.47,66.27v.08s1.97,5.63,1.97,5.63h.02c-.62-1.94-1.29-3.89-1.99-5.77v.06Z"/><path id="Path_1990" class="cls-15" d="M17.69,62.67l.11,.06v-.14l-.11,.08Z"/><path id="Path_1991" class="cls-15" d="M27.33,48.9l-3.99,3.57-4.45,3.99,3.01,3.19-4.12,2.95v.14l16.5,9.22c.3,.01,.61,.02,.93,.03h.21l-8.1-23.08Zm22.68,10.71l3.01-3.19-4.49-4.03-3.95-3.54-6.01,16.18-2.6,6.97h.2c.31,0,.62-.01,.93-.03l17.12-9.34-4.22-3.02Z"/><path id="Path_1992" class="cls-4" d="M26.62,46.05l9.38,7.84-11,4.75,1.61-12.6Z"/><path id="Path_1993" class="cls-4" d="M45.4,46.05l-9.39,7.84,11.31,4.92-1.92-12.76Z"/><path id="Path_1994" class="cls-12" d="M49.98,22.44c0,9.65-6.53,17.47-14.58,17.47s-14.58-7.82-14.58-17.47S27.35,4.97,35.4,4.97s14.58,7.82,14.58,17.47"/><path id="Path_1995" class="cls-3" d="M46.43,26.49c0,8.7-2.46,18.76-11.06,18.76s-11.07-10.06-11.07-18.76,4.95-15.76,11.07-15.76,11.06,7.05,11.06,15.76"/><path id="Path_1996" class="cls-3" d="M26.64,29.77c.01,2.44-.94,4.43-2.12,4.44s-2.16-1.97-2.17-4.42,.93-4.43,2.12-4.44,2.16,1.97,2.17,4.42"/><path id="Path_1997" class="cls-3" d="M48.39,29.77c.01,2.44-.94,4.43-2.12,4.44s-2.16-1.97-2.17-4.42,.94-4.43,2.12-4.44,2.15,1.97,2.17,4.42"/><path id="Path_1998" class="cls-12" d="M35.37,14.03c10.73,0,10.14,5.32,11.42,11.48,.23-1.13,.35-2.29,.35-3.45,0-7.84-5.27-14.19-11.77-14.19s-11.77,6.35-11.77,14.19c0,1.14,.12,2.27,.35,3.38,1.28-6.17,.72-11.41,11.41-11.41"/><path id="Path_1999" class="cls-7" d="M37.33,35.8c-.13-.17-.48-.16-.52-.15-.18,.01-.35,.07-.51,.17l-.05,.03c-.28,.18-.59,.29-.92,.31-.33-.02-.64-.12-.92-.3l-.06-.03c-.15-.1-.33-.15-.51-.16-.04,0-.4-.01-.52,.16-.06,.07-.06,.17-.01,.25,.08,.12,.22,.17,.36,.15,.21,0,.42-.03,.62-.11,.31,.19,.66,.3,1.02,.32h.02c.36-.02,.71-.14,1.02-.33,.2,.08,.41,.12,.62,.11,.14,.02,.28-.04,.36-.15,.05-.08,.04-.18-.01-.25"/><path id="Path_2000" class="cls-5" d="M34.15,38.52c.4,.16,.81,.27,1.22,.34,.33,0,.38-.22,1.01-.38,.39-.1,1.45,.18,2.06-.4-1.33,2.54-1.82,2.62-3.08,2.67-1.19,.05-1.77-.26-3.14-2.53,.17,.29,1.42,.23,1.92,.3"/><path id="Path_2001" class="cls-18" d="M47.14,24.44v-.03s-.03-.05-.06-.06h-.02c-1.02-.42-5.32-.63-7.64-.35s-3.71,.93-4.49,.95c-.77-.02-2.16-.65-4.5-.9-2.32-.25-6.61,0-7.63,.43h-.01s-.05,.04-.06,.07v.03c0,.14-.04,.76-.03,1.11v.05c.02,.1,.09,.19,.18,.22h.01c.21,.09,.56,.43,.94,2.11,.17,.84,.38,2.61,2.03,3.14,.75,.24,4.37,.71,6.21-.86,.48-.52,.87-1.13,1.15-1.79,.2-.5,.75-1.94,.83-2.16,.09-.38,.42-.64,.8-.63h.18c.38-.02,.72,.24,.81,.62,.09,.22,.65,1.65,.86,2.15,.29,.66,.68,1.26,1.17,1.78,1.86,1.55,5.47,1.03,6.22,.79,1.64-.55,1.83-2.32,1.99-3.16,.35-1.69,.7-2.03,.91-2.11h.02c.09-.04,.16-.13,.18-.23v-.05c.01-.35-.03-.97-.04-1.11m-14.99,4.56c-.33,.76-.96,1.35-1.73,1.6-1.25,.41-2.58,.49-3.86,.24-.85-.12-1.57-.73-1.84-1.57-.34-.96-.46-1.98-.35-3,.16-.68,.64-1.23,1.28-1.46,1.64-.44,3.36-.51,5.03-.2,.69,.14,1.92,.29,2.21,1.19,.31,.97-.26,2.34-.74,3.2m13.07,.15c-.26,.85-.97,1.47-1.83,1.59-1.28,.26-2.61,.19-3.86-.19-.77-.25-1.41-.82-1.74-1.58-.49-.86-1.07-2.21-.78-3.19,.27-.91,1.5-1.07,2.19-1.22,1.67-.33,3.39-.28,5.04,.14,.64,.22,1.13,.77,1.3,1.45,.12,1.01,.02,2.04-.31,3"/><path id="Path_2002" class="cls-12" d="M39.94,9.25c-13.78,1.57-16.56,12.8-15.86,13.04,2.25,.69,4.67,.51,6.81-.48,2.08-.89,4.4-2.35,6.93-2.05,1.18,.1,2.32,.48,3.33,1.1,.75,.59,1.38,1.34,1.84,2.18,.72,1.18,1.32,2.43,1.79,3.73-.24-1.74-.71-3.44-1.4-5.04-.79-1.87-2.14-4.14-4.43-5.05,.18,.05,.36,.11,.55,.18,1.1,.4,2.1,1.05,2.93,1.9,.58,.76,1.02,1.62,1.28,2.55,.43,1.3,.73,2.64,.91,4,.05-.59,.9-4.92,1.14-6.6,.35-2.43-4.49-9.61-5.83-9.45"/><path id="Path_2003" class="cls-4" d="M31.96,27.37c-1.19,.23-2.4,.34-3.62,.34-2.81,0-3.61-1.62-3.61-1.62,1.14-.5,2.37-.76,3.61-.77,2,0,3.62,2.04,3.62,2.04"/><path id="Path_2004" class="cls-16" d="M28.66,27.71c.63-.28,.92-1.03,.64-1.68-.14-.32-.39-.57-.71-.69-.08,0-.16-.01-.24-.01-.27,0-.54,.01-.79,.04-.63,.28-.92,1.03-.65,1.68,.11,.26,.29,.47,.53,.61,.3,.04,.6,.06,.91,.06h.31"/><path id="Path_2005" class="cls-17" d="M28.5,26.49c0,.24-.17,.44-.41,.45-.23,0-.43-.18-.43-.42,0-.24,.17-.44,.41-.45,0,0,0,0,.01,0,.23,0,.42,.18,.42,.42,0,0,0,0,0,0"/><path id="Path_2006" class="cls-11" d="M31.88,27.39c.06-.01,.09-.02,.09-.02,0,0-1.62-2.04-3.62-2.04-1.24,.01-2.47,.28-3.61,.77,.08,.15,.19,.29,.31,.41,1.14-.49,2.37-.76,3.61-.77,1.24,.11,2.39,.7,3.23,1.65"/><path id="Path_2007" class="cls-11" d="M28.35,27.52c-2.28,0-3.24-1.07-3.52-1.47-.06,.03-.1,.04-.1,.04,0,0,.81,1.62,3.62,1.62,1.21,0,2.42-.12,3.62-.35,0,0-1.97,.15-3.62,.15"/><path id="Path_2008" class="cls-4" d="M38.37,27.37c1.19,.23,2.4,.35,3.62,.35,2.81,0,3.62-1.62,3.62-1.62-1.14-.5-2.37-.76-3.62-.77-2,0-3.62,2.04-3.62,2.04"/><path id="Path_2009" class="cls-16" d="M41.68,27.71c-.63-.28-.91-1.04-.64-1.68,.14-.32,.39-.57,.71-.69,.08,0,.16-.01,.24-.01,.27,0,.54,.01,.79,.04,.63,.28,.92,1.03,.65,1.68-.11,.26-.29,.47-.53,.61-.3,.04-.6,.06-.91,.06h-.31"/><path id="Path_2010" class="cls-17" d="M41.84,26.49c0,.24,.17,.44,.41,.45,.23,0,.43-.18,.43-.42,0-.24-.17-.44-.41-.45,0,0,0,0-.01,0-.23,0-.42,.18-.42,.42,0,0,0,0,0,0"/><path id="Path_2011" class="cls-11" d="M38.46,27.39c-.06-.01-.09-.02-.09-.02,0,0,1.62-2.04,3.62-2.04,1.24,.01,2.47,.28,3.62,.77-.08,.15-.19,.29-.31,.41-1.14-.49-2.37-.76-3.61-.77-1.24,.11-2.39,.7-3.23,1.65"/><path id="Path_2012" class="cls-11" d="M41.99,27.52c2.28,0,3.24-1.07,3.52-1.47,.06,.03,.09,.04,.09,.04,0,0-.81,1.62-3.62,1.62-1.21,0-2.42-.12-3.62-.35,0,0,1.97,.15,3.62,.15"/></g></g></g></svg>