<?xml version="1.0" encoding="UTF-8"?><svg id="Layer_14" xmlns="http://www.w3.org/2000/svg" xmlns:xlink="http://www.w3.org/1999/xlink" viewBox="0 0 72 72"><defs><style>.cls-1{fill:none;}.cls-2{clip-path:url(#clippath);}.cls-3{fill:#f2f1f1;}.cls-4{fill:#017d8d;}.cls-5{fill:#fff;}.cls-6{fill:#fcd8b0;}.cls-7{fill:#e66b5b;}.cls-8{fill:#9a4422;}.cls-9{fill:#cca884;}.cls-10{fill:#d7c2af;}.cls-11{fill:#1f0b3a;}.cls-12{fill:#383c3d;}</style><clipPath id="clippath"><rect class="cls-1" width="72" height="72"/></clipPath></defs><g id="Group_474"><g class="cls-2"><g id="Group_473"><path id="Path_1565" class="cls-7" d="M72,36c0,19.88-16.12,36-36,36S0,55.88,0,36,16.12,0,36,0s36,16.12,36,36"/><path id="Path_1566" class="cls-8" d="M47.24,64.19c-.02-.74-.11-1.47-.28-2.18-1.13-.82-2.26-1.66-3.37-2.52-.41,.24-.81,.46-1.19,.67,.05,.06,.1,.12,.15,.18,1.26,1.38,2.18,3.07,2.69,4.91,.52,2.25,.63,3.07-.21,5.07-.08,.19-.15,.39-.2,.59,.15-.04,.29-.08,.44-.12,.09-.24,.2-.47,.33-.7,.96-1.89,1.7-3.25,1.64-5.91"/><path id="Path_1567" class="cls-8" d="M58.23,56.06c-1.88-1.11-4.06-2.19-5.99-3.61-.2,.18-.4,.36-.6,.53-.53,.66-1.1,1.28-1.71,1.86,1.02,.76,2.02,1.49,2.95,2.22,1.87,1.47,3.52,3.22,4.9,5.21h0c.55,.33,1.1,.68,1.64,1.05,1.21-1.04,2.36-2.16,3.43-3.36-1.33-1.56-2.9-2.88-4.64-3.9"/><path id="Path_1568" class="cls-8" d="M49.96,57.9c-.67-.42-1.35-.88-2-1.37-.48,.36-.98,.72-1.5,1.04h.02c-.35,.27-.7,.51-1.04,.74,.68,1.14,1.2,2.38,1.52,3.69,1.41,1.02,2.82,2.04,4.2,3.12,.88,.69,1.73,1.43,2.55,2.21,1.78-1,3.47-2.16,5.06-3.46-.31-.55-.64-1.09-.99-1.61-2.61-1.51-5.28-2.73-7.82-4.37"/><path id="Path_1569" class="cls-8" d="M46.96,62.01c-.32-1.31-.83-2.55-1.52-3.69-.65,.44-1.27,.83-1.85,1.17,1.11,.87,2.23,1.7,3.37,2.53"/><path id="Path_1570" class="cls-8" d="M49.96,57.9c2.54,1.64,5.22,2.86,7.82,4.37-1.38-1.98-3.03-3.74-4.9-5.21-.93-.74-1.93-1.47-2.95-2.22-.62,.6-1.28,1.17-1.97,1.69,.65,.5,1.32,.95,2,1.37"/><path id="Path_1571" class="cls-8" d="M14.19,41.22c.24-13.82,9.6-24.88,21.08-25.16-.37-.01-.74-.02-1.11-.01h1.9c-.27,0-.53,0-.79,.01,11.36,.42,21.06,10.46,21.31,24.15,.01,1.19-.57,3.35-.68,4.52,0,.03,0,.05,0,.06,0-.02,0-.04,0-.06-.03-.1-.06-.19-.11-.28-.66,2.89-1.91,5.59-3.66,7.91,.04,.03,.08,.05,.11,.08,4.58-4.16,8.29-9.24,8.29-14.78,0-14.54-11.14-26.32-24.89-26.32S10.74,23.14,10.74,37.68c0,5.55,3.58,10.64,8,14.81-2.42-3.15-3.88-6.99-4.2-11.03-.22-.06-.35-.14-.35-.23"/><path id="Path_1572" class="cls-8" d="M51.64,52.98c.2-.18,.4-.35,.6-.53-.04-.03-.08-.05-.11-.08-.16,.21-.32,.41-.49,.61"/><path id="Path_1573" class="cls-6" d="M36.61,67.44c.63-4.6,2.66-5.56,5.79-7.28-.1-.12-.2-.23-.3-.35-2.26,1.36-4.58,2.6-6.97,3.7,0,0-9.28-4.32-16.4-11.03,1.56,2.03,3.44,3.76,5.57,5.09h-.02c5.45,4.12,9.51,3.45,9.87,9.87,.17,1.52-.01,3.05-.54,4.48,.78,.05,1.57,.08,2.37,.08,.36,0,.71-.01,1.07-.02-.61-1.42-.77-3.01-.46-4.54"/><path id="Path_1574" class="cls-6" d="M42.1,59.8c.1,.12,.2,.23,.3,.35,.38-.21,.78-.43,1.19-.67-.14-.11-.27-.22-.41-.33-.37,.23-.72,.44-1.08,.65"/><path id="Path_1575" class="cls-6" d="M49.93,54.84c.6-.58,1.18-1.2,1.71-1.86-.65,.57-1.32,1.12-1.99,1.66,.09,.07,.19,.14,.28,.21"/><path id="Path_1576" class="cls-6" d="M45.17,57.87c.09,.15,.18,.29,.27,.44,.34-.23,.69-.48,1.04-.74h-.02c.52-.33,1.01-.68,1.5-1.04-.13-.1-.26-.21-.39-.31-.8,.58-1.61,1.13-2.39,1.66"/><path id="Path_1577" class="cls-6" d="M43.18,59.15c.14,.11,.27,.23,.41,.33,.59-.34,1.21-.72,1.85-1.17-.09-.15-.17-.3-.27-.44-.68,.45-1.35,.88-2,1.28"/><path id="Path_1578" class="cls-6" d="M47.57,56.22c.13,.1,.26,.21,.39,.31,.69-.52,1.35-1.08,1.97-1.69-.09-.07-.19-.14-.28-.21-.69,.55-1.39,1.08-2.08,1.58"/><path id="Path_1579" class="cls-6" d="M22.85,42c-.22-.21-.38-.48-.48-.78-.16,.02-.3,.04-.45,.06,.25,.32,.56,.57,.93,.72"/><path id="Path_1581" class="cls-6" d="M49.71,43.47c-.05-.07-.11-.14-.18-.19,.13,.12,.22,.27,.27,.44-.02-.09-.05-.17-.09-.25"/><path id="Path_1582" class="cls-6" d="M20.87,43.91c.03,.09,.06,.17,.11,.25-.07-.13-.11-.27-.12-.42h0c0,.05,0,.11,0,.17"/><path id="Path_1583" class="cls-6" d="M20.73,41.42c-.14,.02-.27,.03-.4,.04,.3,.32,.67,.56,1.07,.71-.27-.19-.5-.45-.67-.74"/><path id="Path_1584" class="cls-6" d="M41.7,41.1c-.26,.18-.68,.5-1.1,.77,.13,.66,.29,1.32,.48,1.96,.84-1.02,1.99-1.72,3.25-1.97,.03-.09,.05-.18,.06-.27,.01,.09,.02,.17,0,.26h.03s.3-.06,.3-.06c.03-.1,.05-.2,.07-.3,.01,.1,.01,.2,0,.3,.09-.01,.17-.02,.26-.03,.05-.14,.09-.28,.11-.43,.02,.14,.01,.28,0,.42,.09,0,.17,0,.25-.01,.07-.16,.12-.34,.15-.52,.02,.17,0,.35-.02,.52,.12,0,.23,0,.34,0,.16-.28,.26-.59,.3-.91,.04,.31,0,.62-.09,.92,.11,0,.22,.02,.33,.04,.2-.31,.33-.66,.38-1.03,.04,.36,0,.72-.15,1.05,.06,0,.15,.02,.25,.04,.3-.35,.5-.79,.56-1.26,.06,.46-.04,.93-.29,1.31,.06,.01,.13,.03,.2,.04,.57-.46,.94-1.14,1.04-1.89,.1,.72-.12,1.45-.61,1.97,.88-.45,1.49-1.34,1.61-2.37,.17,1.01-.28,2.02-1.12,2.52,.02,0,.05,.01,.07,.02,1.07-.49,1.82-1.55,1.96-2.78,.17,1.06-.24,2.14-1.05,2.78,1.1-.48,1.88-1.55,2.02-2.81,.23,1.28-.42,2.55-1.57,3.03,1.94-.56,2.17-2.86,2.17-2.86,.16,1.53-.57,3.05-2.2,3.15,.08,.04,.16,.08,.24,.12,2.43,.02,3.01-2.62,3.01-2.62-.02,1.55-.77,3.15-2.43,3.03l.08,.16c2.07,.13,3.18-2.04,3.18-2.04-.19,1.28-1.17,2.27-2.39,2.4,.2,.16,.36,.38,.46,.63-.37-.55-1.02-.78-1.63-.58-.03,.13-.08,.26-.13,.38,.63-.28,1.35,.04,1.61,.7,.04,.11,.07,.23,.09,.35-.31-.7-1.04-1.09-1.75-.94h0c-.05,.1-.1,.18-.16,.27l-.02,.03s-.04,.07-.06,.1c.67-.18,1.34,.25,1.51,.95,.01,.05,.02,.1,.03,.15-.3-.67-.96-1.05-1.65-.96-.08,.1-.18,.2-.26,.28,.6-.08,1.16,.37,1.24,1.01-.26-.57-.82-.91-1.41-.86-.05,.05-.1,.08-.15,.12,.53,.04,.97,.47,1.05,1.03-.25-.53-.77-.87-1.33-.86-.8,.49-1.71,.75-2.64,.75-1.03,.04-2.07-.04-3.09-.23-.2-.05-.41-.08-.62-.07-.24,0-.47-.07-.68-.2h-.02s.01,.05,.02,.07c.19,.48,.41,.94,.66,1.39l9.23,4.8c.15,.12,.3,.21,.45,.32,1.75-2.32,3-5.02,3.66-7.91-.38-.84-1.71-3.13-3.2-5.65-4.45-1.88-10.22,1.82-10.89,2.29"/><path id="Path_1586" class="cls-6" d="M23.28,41.93c.07-.02,.14-.03,.2-.04-.15-.23-.25-.51-.28-.79-.19,.03-.38,.06-.57,.08,.16,.3,.38,.55,.65,.74"/><path id="Path_1587" class="cls-6" d="M20.94,42.39c-.45-.16-.84-.47-1.1-.89-.08,0-.15,.02-.22,.02,.35,.42,.81,.72,1.32,.86"/><path id="Path_1588" class="cls-6" d="M52.24,38.22c-2.29-3.85-4.8-7.96-4.8-7.96-1.89,1.83-3.97,3.41-6.22,4.71-.41,1.01-.69,2.08-.82,3.17-.08,.73-.08,1.47,0,2.2,2.04-1.65,6.64-2.91,8.57-3.06,1.16-.08,2.31,.26,3.27,.95"/><path id="Path_1589" class="cls-6" d="M24.01,41.8c-.1-.25-.15-.53-.14-.8-.19,.03-.36,.06-.55,.08,.1,.28,.24,.54,.44,.75,.11-.01,.19-.03,.25-.04"/><path id="Path_1590" class="cls-6" d="M22.3,42.18s.05-.02,.07-.02c-.35-.18-.64-.47-.82-.83-.12,.01-.24,.02-.37,.04,.3,.37,.69,.64,1.12,.81"/><path id="Path_1591" class="cls-6" d="M42.1,59.8c-.86-1.01-1.73-1.99-2.59-3-1.44,2.01-2.37,2.08-4.09,2.11-2.15,.03-3.18-.55-5.55-4.7,.3,.54,2.56,.47,3.46,.62,1.13,.31,1.54,.67,2.2,.67,.59,.02,.7-.38,1.84-.64,.19-.03,.38-.04,.57-.03-.61-.8-1.14-1.66-1.6-2.56-.26,.11-.54,.17-.83,.18h-.03c-.47-.03-.93-.17-1.34-.41-.26,.1-.54,.15-.81,.14-.18,.03-.36-.05-.47-.2-.06-.09-.06-.22,.01-.31,.17-.22,.64-.21,.69-.21,.23,.02,.46,.09,.67,.21l.07,.04c.37,.23,.78,.37,1.21,.39,.24,0,.48-.06,.7-.15-.21-.46-.38-.94-.5-1.44-.01-.05-.01-.08-.03-.13-1.91-4.72-.72-9.38,1.29-13.25-2.43,1.07-4.93,1.95-7.48,2.63,1.22,.74,2.01,1.58,1.79,2.46-.14,.5-1.66-.69-2.29-1.13-.45-.31-.92-.59-1.4-.84-1.06,.25-2.09,.46-3.08,.63,.05,.3,.15,.59,.3,.85,.11,0,.23,0,.34,0-.04-.17-.05-.34-.03-.52,.02,.18,.08,.35,.15,.52,.08,0,.17,0,.25,.01-.02-.14-.02-.28,0-.42,.02,.15,.06,.29,.11,.43,.09,0,.17,.02,.26,.03,0-.1,0-.2,0-.3,.01,.1,.04,.2,.07,.3,.1,.02,.2,.04,.3,.05h.03c0-.08,0-.16,0-.25,.01,.09,.03,.18,.06,.27,2.25,.5,4.04,2.31,4.62,4.67,0,0-.09-.14-.25-.34-.15,.19-.58,.12-.78-.07-.32-.17-.67-.28-1.03-.32-.21,.13-.44,.2-.68,.2-.21,0-.42,.01-.62,.07-1.02,.2-2.05,.27-3.08,.23-.93,0-1.84-.26-2.64-.75-.56,0-1.08,.33-1.33,.86,.08-.56,.52-.99,1.05-1.03-.04-.03-.1-.07-.15-.12-.59-.05-1.15,.29-1.41,.86,.08-.64,.64-1.09,1.24-1.01-.09-.09-.18-.18-.26-.28-.69-.09-1.36,.3-1.65,.96,.09-.72,.71-1.23,1.39-1.13,.05,0,.09,.02,.14,.03-.02-.03-.04-.07-.06-.1l-.02-.03c-.06-.08-.11-.16-.16-.25h0c-.72-.17-1.44,.22-1.75,.92,.08-.71,.7-1.22,1.37-1.13,.11,.01,.21,.04,.31,.09-.06-.12-.1-.25-.14-.38-.6-.2-1.26,.03-1.63,.58,.1-.25,.26-.46,.46-.63-1.11-.11-2.03-.94-2.29-2.09-.82,.04-1.64-.03-2.44-.2,.32,4.04,1.79,7.88,4.2,11.03,7.11,6.71,16.39,11.03,16.39,11.03,2.38-1.11,4.71-2.34,6.97-3.7"/><path id="Path_1592" class="cls-6" d="M21.14,43.28c-.07,.05-.13,.12-.18,.2-.05,.08-.08,.16-.1,.25,.05-.17,.14-.33,.27-.45"/><path id="Path_1593" class="cls-6" d="M20.73,42.82c.08-.04,.16-.08,.23-.12-.75-.02-1.43-.45-1.81-1.13-.26,.02-.52,.04-.76,.05,.54,.78,1.42,1.24,2.34,1.2"/><path id="Path_1594" class="cls-6" d="M20.07,43.38l.08-.16c-.99,.08-1.9-.58-2.17-1.6-.31,.01-.62,.02-.9,.03,.65,1.08,1.78,1.73,2.99,1.72"/><path id="Path_1595" class="cls-6" d="M24.57,41.75c-.09-.28-.12-.57-.09-.86-.19,.03-.38,.07-.57,.1,.06,.28,.18,.55,.33,.79,.11-.01,.21-.02,.32-.03"/><path id="Path_1596" class="cls-6" d="M49.69,44.16c.05-.08,.09-.16,.11-.25,0-.05,0-.1,0-.16h0c0,.14-.04,.28-.12,.41"/><path id="Path_1597" class="cls-6" d="M41.71,57.97c-.63-.54-1.24-1.09-1.85-1.68-.12,.18-.23,.35-.35,.51,.85,1.01,1.73,1.99,2.59,3,.35-.21,.71-.43,1.08-.65-.49-.39-.98-.77-1.46-1.18"/><path id="Path_1598" class="cls-6" d="M35.79,50.72c-.05-.11-.08-.22-.12-.32,.01,.04,.01,.08,.02,.13,.13,.49,.29,.98,.5,1.44,.05-.03,.11-.05,.17-.07-.21-.38-.4-.77-.57-1.17"/><path id="Path_1599" class="cls-6" d="M36.54,52.19c-.07,.03-.13,.06-.2,.08,.46,.9,.99,1.76,1.6,2.56,.17,0,.35,.01,.55,.02-.73-.82-1.38-1.71-1.94-2.67"/><path id="Path_1600" class="cls-6" d="M51.67,52.05l-9.23-4.8c1.68,3.12,4.47,5.36,7.21,7.39,.67-.54,1.34-1.09,1.99-1.66,.17-.21,.33-.4,.49-.61-.15-.11-.3-.21-.45-.32"/><path id="Path_1601" class="cls-6" d="M41.09,43.83c-.19-.64-.35-1.3-.48-1.96-.29,.21-.61,.37-.94,.46-.17,.73-.5,1.67-.63,2.19-.07,.29-.12,.58-.15,.87l1.01,.52c.28-.77,.68-1.48,1.2-2.09"/><path id="Path_1602" class="cls-6" d="M39.07,41.61c.13-.14,.29-.24,.47-.31,.22-.38,.51-.71,.85-.96-.08-.73-.08-1.47,0-2.2,.14-1.09,.42-2.15,.83-3.17-1.38,.81-2.8,1.54-4.26,2.18-2.01,3.87-3.19,8.53-1.29,13.26-.93-3.95,1.39-6.94,3.41-8.79"/><path id="Path_1603" class="cls-6" d="M44.76,53.1c-.76-1.23-4.93-5.4-5.9-7.27-.01,1,.09,2,.31,2.98,.67,3.07,3.13,5.34,4.89,7.51,.4,.49,.77,1.01,1.12,1.56,.78-.52,1.59-1.08,2.39-1.66-1.1-.86-2.05-1.91-2.81-3.12"/><path id="Path_1604" class="cls-6" d="M41.76,45.79c-.35,.04-.69,.15-1,.32-.07,.06-.15,.11-.24,.14l1.93,1c-.25-.45-.47-.91-.66-1.39,0-.02-.02-.04-.02-.07"/><path id="Path_1605" class="cls-6" d="M36.36,51.89c.11-.05,.22-.11,.34-.17l.07-.04c.2-.12,.43-.2,.66-.22,.05,0,.52-.01,.69,.21,.07,.09,.07,.22,.01,.31-.11,.15-.29,.23-.47,.2-.28,0-.55-.04-.81-.14-.09,.05-.2,.1-.31,.15,.56,.95,1.21,1.85,1.94,2.67,.91,.14,1.84-.08,2.61-.62-.46,.83-.86,1.5-1.23,2.06,.61,.58,1.23,1.14,1.85,1.68,.48,.41,.97,.79,1.46,1.18,.65-.4,1.32-.83,2-1.28-.34-.54-.72-1.06-1.12-1.55-1.76-2.17-4.22-4.44-4.89-7.51-.22-.98-.32-1.98-.31-2.98-.1-.17-.17-.36-.2-.55l.23,.12c.02-.29,.07-.59,.14-.87,.14-.53,.47-1.46,.64-2.19-.13,.02-.22,0-.25-.1-.08-.32-.03-.65,.12-.93-.18,.07-.34,.18-.47,.31-2.01,1.85-4.33,4.85-3.41,8.79,.04,.11,.08,.22,.12,.32,.17,.4,.36,.79,.57,1.17"/><path id="Path_1606" class="cls-6" d="M39.97,46.18c-.16,.21-.25,.34-.25,.34,.04-.2,.1-.41,.17-.6l-1.01-.52c-.01,.14-.02,.29-.02,.43,.96,1.87,5.14,6.04,5.89,7.27,.75,1.21,1.7,2.26,2.81,3.12,.7-.5,1.4-1.03,2.09-1.58-2.73-2.03-5.53-4.27-7.21-7.39l-1.93-1c-.21,.07-.44,.07-.54-.07"/><path id="Path_1607" class="cls-6" d="M38.66,45.28c.04,.2,.11,.38,.21,.55,0-.15,.01-.29,.03-.43l-.23-.12Z"/><path id="Path_1608" class="cls-9" d="M35.49,52.12c-.43-.03-.84-.16-1.21-.39l-.07-.04c-.2-.12-.43-.2-.67-.21-.05,0-.52-.02-.69,.21-.07,.09-.08,.21-.01,.31,.11,.15,.29,.23,.47,.2,.28,0,.55-.04,.81-.14,.41,.25,.87,.39,1.34,.41h.03c.28,0,.57-.07,.83-.18-.05-.11-.1-.21-.15-.31-.22,.09-.46,.15-.7,.15"/><path id="Path_1609" class="cls-9" d="M36.36,51.89c-.05,.03-.11,.05-.17,.07,.05,.1,.1,.21,.15,.31,.07-.02,.14-.05,.2-.08-.06-.1-.12-.2-.18-.3"/><path id="Path_1610" class="cls-9" d="M37.66,52.18c.18,.03,.36-.05,.47-.2,.06-.09,.06-.22-.01-.31-.17-.22-.63-.21-.69-.21-.23,.02-.46,.09-.66,.21l-.07,.04c-.12,.06-.22,.12-.34,.17,.06,.11,.12,.2,.18,.3,.11-.05,.21-.1,.31-.15,.26,.1,.54,.15,.81,.14"/><path id="Path_1611" class="cls-7" d="M37.93,54.84c-.19-.01-.38,0-.57,.03-1.14,.26-1.25,.65-1.83,.64-.66,0-1.07-.36-2.2-.67-.9-.16-3.16-.08-3.46-.62,2.38,4.15,3.4,4.73,5.55,4.7,1.72-.02,2.65-.1,4.09-2.11-.44-.52-.88-1.05-1.31-1.6-.09-.12-.18-.25-.27-.37"/><path id="Path_1612" class="cls-7" d="M38.48,54.86c-.2,0-.38-.02-.55-.02,.09,.12,.18,.25,.27,.37,.42,.55,.86,1.08,1.31,1.6,.11-.16,.23-.33,.35-.51-.48-.46-.94-.94-1.38-1.44"/><path id="Path_1613" class="cls-7" d="M38.48,54.86c.44,.5,.91,.98,1.38,1.44,.37-.56,.77-1.23,1.23-2.06-.77,.54-1.7,.76-2.61,.62"/><path id="Path_1614" class="cls-12" d="M41.7,41.1c.67-.47,6.44-4.17,10.89-2.29-.12-.2-.23-.39-.35-.59-.96-.69-2.11-1.02-3.28-.95-1.93,.15-6.53,1.41-8.57,3.06,.05,.51,.12,1.02,.22,1.53,.41-.27,.83-.58,1.1-.77"/><path id="Path_1615" class="cls-12" d="M40.39,40.33c-.34,.26-.63,.59-.85,.96,.3-.07,.28,.4,.13,1.03,.34-.1,.66-.25,.94-.46-.1-.51-.17-1.02-.22-1.53"/><path id="Path_1616" class="cls-12" d="M39.54,41.3c-.16,.28-.2,.62-.13,.93,.03,.11,.13,.12,.25,.1,.15-.63,.18-1.11-.12-1.03"/><path id="Path_1617" class="cls-5" d="M42.41,45.67c.52-.08,1.23,.36,3.75,.3,1.38,0,2.68-.66,3.53-1.82,.07-.12,.11-.27,.12-.41v-.03c-.05-.17-.15-.32-.27-.44-.09-.08-.18-.14-.28-.2-.7-.25-1.44-.41-2.18-.46,.27,.35,.42,.78,.42,1.23-.07,1.16-1.02,2.04-2.12,1.96-1.01-.07-1.81-.94-1.86-2.01,0-.19,.04-.37,.09-.54-.81,.37-1.56,.86-2.23,1.45,.13,.37,.25,.74,.39,1.08h.02c.23-.05,.47-.08,.64-.11"/><path id="Path_1618" class="cls-5" d="M40.09,46.02l.42,.22c.09-.03,.17-.08,.24-.14,.31-.17,.65-.28,1-.32-.14-.34-.26-.71-.39-1.08-.46,.4-.89,.84-1.27,1.31"/><path id="Path_1619" class="cls-5" d="M39.97,46.18c.1,.13,.33,.14,.54,.07l-.42-.22c-.05,.06-.08,.11-.12,.15"/><path id="Path_1620" class="cls-10" d="M48.57,45.49h.02c.93-.71,1.18-1.24,1.21-1.59-.02,.09-.06,.18-.11,.25-.81,1.22-2.16,1.91-3.58,1.83-2.52,.05-3.24-.38-3.75-.3-.16,.03-.37,.06-.58,.1,.21,.13,.44,.2,.68,.2,.21,0,.42,.01,.62,.07,1.02,.2,2.05,.28,3.09,.23,.93,0,1.84-.26,2.64-.76-.19,.01-.37,.06-.54,.15,.1-.07,.2-.14,.3-.19"/><path id="Path_1621" class="cls-10" d="M49.87,44.54s-.01,.02-.02,.03l.02-.03"/><path id="Path_1622" class="cls-10" d="M49.81,43.73c0-.08-.03-.15-.05-.22-.01-.01-.03-.03-.04-.04,.04,.08,.08,.16,.09,.25v.02"/><path id="Path_1624" class="cls-10" d="M46.12,45.99c1.41,.08,2.76-.61,3.58-1.83-.84,1.16-2.15,1.83-3.53,1.82-2.52,.06-3.23-.38-3.75-.3-.17,.02-.4,.06-.64,.1h0c.22-.03,.43-.07,.58-.09,.51-.08,1.23,.36,3.75,.3"/><path id="Path_1625" class="cls-10" d="M49.81,43.74h0s0-.02,0-.02v.03"/><path id="Path_1626" class="cls-4" d="M43.6,43.26c-.06,.18-.09,.36-.09,.54,.05,1.16,.98,2.06,2.07,2.01,1.01-.05,1.83-.89,1.9-1.96,0-.45-.14-.88-.42-1.23-1.18-.08-2.37,.14-3.46,.64m1.88,.96c-.32-.02-.56-.32-.54-.65,.02-.34,.3-.59,.62-.57,.3,.02,.54,.29,.54,.62-.01,.35-.29,.62-.61,.6,0,0,0,0,0,0"/><path id="Path_1627" class="cls-11" d="M45.5,42.99c-.32,.01-.57,.3-.55,.64,.01,.34,.28,.6,.6,.58,.31-.01,.55-.28,.55-.6,0-.35-.28-.62-.6-.62m-.23,.98c-.05,0-.1-.04-.1-.1,0,0,0,0,0,0,0-.06,.05-.1,.1-.09,.05,0,.1,.04,.1,.1,0,0,0,0,0,0,0,.06-.05,.1-.1,.1m.33,.08c-.05,0-.1-.05-.1-.1,0-.06,.05-.1,.1-.1,0,0,0,0,0,0,.05,0,.09,.04,.09,.09,0,0,0,0,0,0,0,.06-.04,.1-.1,.1m-.08-.35c-.14,0-.25-.11-.26-.25,0,0,0,0,0-.01,0-.15,.12-.26,.26-.26,0,0,0,0,0,0,.14,0,.25,.11,.26,.25,0,.14-.1,.27-.24,.27,0,0-.02,0-.03,0"/><path id="Path_1628" class="cls-3" d="M45.52,43.17c-.14,0-.26,.11-.26,.25,0,0,0,0,0,0,0,.14,.11,.26,.24,.27,0,0,0,0,.01,0,.14,0,.26-.1,.26-.24,0-.14-.09-.27-.23-.28,0,0-.02,0-.03,0"/><path id="Path_1629" class="cls-3" d="M45.27,43.78c-.05,0-.1,.04-.1,.1,0,.06,.04,.1,.1,.1,0,0,0,0,0,0,.05,0,.1-.03,.1-.09,0-.05-.03-.1-.08-.11,0,0-.01,0-.02,0"/><path id="Path_1630" class="cls-3" d="M45.6,43.85c-.05,0-.1,.04-.1,.09,0,0,0,0,0,0,0,.06,.04,.1,.1,.1,.05,0,.1-.04,.1-.1,0-.05-.04-.1-.09-.1,0,0,0,0,0,0"/><path id="Path_1631" class="cls-12" d="M48.81,45.54c.56,0,1.08,.32,1.33,.86-.08-.56-.52-.99-1.05-1.03,.04-.03,.1-.07,.15-.12,.59-.05,1.15,.29,1.41,.86-.08-.64-.63-1.09-1.24-1.01,.09-.09,.18-.18,.26-.28,.69-.09,1.36,.29,1.65,.96-.09-.72-.71-1.23-1.39-1.13-.05,0-.1,.02-.15,.03,.02-.03,.04-.07,.06-.11-.05,.08-.11,.17-.17,.24-.26,.28-.55,.53-.87,.73"/><path id="Path_1632" class="cls-12" d="M49.8,43.9s.02-.05,.02-.08c0-.03-.01-.05-.02-.07,0,.05,0,.1,0,.16"/><path id="Path_1633" class="cls-12" d="M44.67,42.03c.52-.25,1.12-.25,1.64-.01,1.18,.02,2.32,.46,3.23,1.26,.07,.05,.13,.12,.18,.19-.09-.14-.2-.27-.34-.37,0,0,.55,.11,.64,.51,.07,.32,.02,.66-.15,.94,.06-.08,.11-.16,.16-.25h0c.72-.17,1.44,.22,1.75,.92-.08-.71-.7-1.22-1.37-1.13-.11,.01-.22,.04-.32,.09,.06-.12,.1-.25,.13-.38,.6-.2,1.26,.03,1.63,.58-.1-.25-.26-.46-.46-.63,1.22-.13,2.2-1.12,2.39-2.4,0,0-1.11,2.17-3.18,2.04l-.08-.15c1.66,.12,2.4-1.48,2.43-3.03,0,0-.58,2.64-3.01,2.62-.08-.04-.16-.08-.24-.12,1.63-.11,2.36-1.62,2.2-3.16,0,0-.23,2.3-2.17,2.86,1.14-.48,1.8-1.76,1.57-3.03-.14,1.25-.91,2.33-2.02,2.81,.82-.64,1.23-1.72,1.06-2.78-.14,1.23-.88,2.29-1.96,2.79-.03,0-.05-.02-.07-.02,.85-.5,1.3-1.52,1.12-2.52-.12,1.03-.72,1.93-1.61,2.37,.49-.52,.72-1.25,.61-1.97-.09,.75-.47,1.43-1.04,1.89-.07-.02-.14-.03-.2-.04,.24-.39,.35-.85,.29-1.31-.06,.47-.26,.91-.57,1.26l-.25-.04c.14-.33,.19-.69,.14-1.05-.05,.37-.18,.73-.38,1.03-.11-.01-.22-.03-.33-.03,.1-.3,.13-.61,.09-.92-.04,.32-.15,.63-.3,.91-.12,0-.23,0-.34,0,.03-.17,.04-.35,.02-.52-.02,.18-.07,.35-.15,.52-.08,0-.17,0-.26,.01,.02-.14,.03-.28,0-.42-.02,.15-.05,.29-.11,.43-.09,0-.18,.01-.26,.03,0-.1,0-.2,0-.3-.01,.1-.04,.2-.07,.3l-.3,.05h-.03c0-.08,0-.16,0-.25,0,.09-.03,.18-.06,.27-1.26,.26-2.4,.95-3.25,1.97,.01,.05,.03,.1,.04,.15,.89-1.11,2.16-1.81,3.54-1.95m5.58,1.64h0Z"/><path id="Path_1634" class="cls-12" d="M39.93,45.94c.02-.1,.06-.19,.11-.27,.31-.6,.68-1.16,1.09-1.69-.02-.05-.03-.1-.04-.15-.51,.62-.92,1.32-1.19,2.09l.04,.02Z"/><path id="Path_1635" class="cls-12" d="M39.93,45.94l-.04-.02c-.07,.19-.13,.4-.17,.6,0,0,.09-.14,.25-.34-.05-.07-.07-.16-.04-.24"/><path id="Path_1636" class="cls-12" d="M43.6,43.26c.17-.55,.56-1,1.06-1.23-1.37,.14-2.64,.84-3.53,1.95,.08,.25,.16,.5,.23,.73,.68-.59,1.43-1.08,2.24-1.45"/><path id="Path_1637" class="cls-12" d="M47.07,42.62c.74,.05,1.48,.2,2.18,.46,.1,.06,.2,.12,.28,.2-.9-.8-2.04-1.25-3.22-1.26,.3,.13,.56,.34,.76,.61"/><path id="Path_1638" class="cls-12" d="M41.37,44.71c-.08-.24-.16-.48-.23-.73-.41,.53-.77,1.09-1.09,1.69-.05,.08-.09,.17-.11,.27l.16,.08c.39-.47,.82-.91,1.27-1.31"/><path id="Path_1639" class="cls-12" d="M39.93,45.94c-.03,.08-.01,.17,.04,.24,.04-.05,.07-.09,.12-.15l-.16-.09Z"/><path id="Path_1640" class="cls-12" d="M50.01,43.6c-.09-.4-.64-.5-.64-.5,.13,.1,.25,.23,.34,.37,0,.02,.03,.03,.04,.04,.03,.07,.05,.15,.05,.22h0s.02,.05,.02,.08c0,.03-.01,.06-.02,.08-.03,.35-.28,.88-1.21,1.57h-.02c-.11,.06-.21,.13-.3,.2,.17-.08,.35-.13,.54-.15,.32-.19,.61-.44,.87-.72,.06-.07,.12-.15,.17-.24,0,0,.01-.02,.02-.03,.17-.28,.22-.62,.15-.94"/><path id="Path_1642" class="cls-12" d="M46.31,42.01c-.25-.11-.51-.17-.78-.17-.3,0-.59,.06-.86,.19,.08,0,.16-.03,.23-.03,.47-.03,.94-.03,1.41,.01"/><path id="Path_1643" class="cls-12" d="M43.6,43.26c1.09-.5,2.28-.72,3.46-.64-.2-.26-.46-.47-.76-.61-.47-.04-.94-.05-1.41-.01-.08,0-.16,.02-.23,.03-.51,.23-.89,.68-1.06,1.23"/><path id="Path_1644" class="cls-12" d="M28.97,41.1c.63,.44,2.15,1.63,2.29,1.13,.22-.87-.56-1.72-1.79-2.45-.64,.17-1.28,.34-1.9,.48,.48,.26,.95,.54,1.4,.84"/><path id="Path_1645" class="cls-5" d="M27.07,43.26c.05,.18,.09,.36,.09,.54-.05,1.16-.98,2.06-2.07,2.01-1.01-.05-1.83-.89-1.9-1.96,0-.45,.15-.88,.42-1.23-.74,.05-1.48,.21-2.18,.46-.1,.06-.2,.12-.28,.2-.13,.12-.22,.27-.27,.45v.02c0,.15,.04,.29,.11,.42,.85,1.15,2.15,1.82,3.53,1.82,2.53,.06,3.23-.38,3.75-.3,.17,.03,.4,.06,.64,.11h0c.36,.04,.71,.15,1.02,.33,.2,.19,.64,.26,.78,.07-.98-1.26-2.22-2.26-3.63-2.92"/><path id="Path_1646" class="cls-10" d="M20.86,43.73h0c.02-.1,.05-.18,.09-.26-.02,.01-.03,.03-.04,.04-.03,.07-.05,.15-.05,.22"/><path id="Path_1647" class="cls-10" d="M24.55,45.99c-1.41,.08-2.76-.61-3.58-1.83-.05-.08-.09-.16-.11-.25,.04,.35,.29,.88,1.21,1.57h.02c.11,.06,.21,.13,.3,.2-.17-.08-.35-.13-.54-.15,.8,.49,1.71,.75,2.64,.75,1.03,.04,2.07-.04,3.09-.24,.2-.05,.41-.07,.62-.07,.24,0,.48-.07,.68-.2-.22-.04-.43-.07-.59-.1-.51-.08-1.22,.36-3.75,.3"/><path id="Path_1649" class="cls-10" d="M20.82,44.57s-.01-.02-.02-.03l.02,.03"/><path id="Path_1650" class="cls-10" d="M20.86,43.74h0v-.02s0,0,0,0h0"/><path id="Path_1651" class="cls-10" d="M28.26,45.67c-.52-.08-1.23,.36-3.75,.3-1.38,0-2.68-.67-3.53-1.82,.82,1.22,2.17,1.91,3.58,1.83,2.52,.05,3.23-.38,3.75-.3,.16,.02,.37,.06,.59,.1h0c-.23-.05-.47-.08-.64-.11"/><path id="Path_1652" class="cls-4" d="M23.6,42.62c-.27,.35-.42,.78-.42,1.23,.07,1.16,1.02,2.04,2.12,1.96,1.01-.07,1.81-.94,1.86-2.01,0-.19-.04-.37-.09-.54-1.09-.5-2.28-.71-3.46-.64m1.57,.37c.32,.02,.57,.3,.55,.64-.01,.34-.28,.6-.6,.58-.31-.01-.55-.28-.55-.6,0-.35,.28-.62,.6-.62"/><path id="Path_1653" class="cls-11" d="M25.19,44.21c.32-.02,.56-.31,.54-.65-.02-.34-.3-.59-.62-.57-.31,.02-.54,.29-.54,.62,.01,.35,.29,.62,.62,.6m-.11-.17c-.05,0-.1-.04-.1-.1,0-.06,.04-.1,.09-.1,0,0,0,0,0,0,.05,0,.1,.04,.1,.1,0,0,0,0,0,0,0,.06-.05,.1-.1,.1m.43-.18c0,.06-.04,.1-.09,.1,0,0,0,0,0,0-.05,0-.1-.04-.1-.09,0,0,0,0,0,0,0-.05,.04-.1,.09-.1,0,0,0,0,0,0,.05,0,.1,.04,.1,.1m-.36-.7c.14,0,.26,.11,.27,.26,0,.15-.11,.27-.25,.27,0,0,0,0,0,0-.14,0-.26-.1-.26-.24s.09-.27,.23-.28c0,0,.02,0,.03,0"/><path id="Path_1654" class="cls-3" d="M25.15,43.69c.14,0,.26-.11,.26-.26,0,0,0,0,0,0,0-.15-.11-.28-.25-.29-.14,0-.27,.11-.27,.27,0,.15,.11,.28,.25,.29,0,0,0,0,.01,0"/><path id="Path_1655" class="cls-3" d="M25.31,43.88c0,.06,.05,.1,.1,.1s.1-.05,.09-.11c0-.05-.05-.1-.1-.09-.05,0-.1,.04-.1,.1,0,0,0,0,0,0"/><path id="Path_1656" class="cls-3" d="M25.07,43.85c-.05,0-.1,.04-.1,.1,0,0,0,0,0,0,0,.06,.05,.1,.1,.1,.05,0,.1-.04,.1-.1,0-.06-.05-.1-.1-.1,0,0,0,0,0,0"/><path id="Path_1657" class="cls-12" d="M24.57,41.75c-.11,0-.22,.02-.32,.03-.16-.24-.27-.51-.33-.79-.01,0-.03,0-.04,0,0,.28,.04,.55,.14,.8l-.25,.04c-.19-.22-.34-.47-.44-.76-.04,0-.08,0-.11,.02,.03,.28,.13,.55,.28,.79-.06,.01-.13,.03-.2,.04-.27-.19-.49-.45-.65-.74-.09,.01-.17,.02-.26,.03,.09,.3,.26,.57,.48,.78-.36-.15-.68-.4-.93-.72-.12,.02-.26,.04-.38,.05,.19,.36,.47,.65,.82,.83-.02,0-.05,.01-.07,.02-.43-.16-.82-.44-1.12-.81-.15,.02-.3,.04-.45,.05,.17,.3,.4,.55,.67,.74-.41-.14-.78-.38-1.07-.7-.16,.02-.33,.03-.48,.04,.26,.42,.65,.73,1.1,.89-.51-.14-.97-.44-1.32-.86-.16,.01-.31,.02-.46,.03,.38,.68,1.06,1.11,1.81,1.13-.08,.04-.16,.08-.23,.12-.92,.03-1.79-.42-2.34-1.2-.14,0-.28,.01-.41,.02,.27,1.01,1.18,1.68,2.17,1.6l-.08,.15c-1.21,0-2.34-.64-2.99-1.72h-.1c.27,1.14,1.19,1.98,2.3,2.08-.2,.16-.36,.38-.46,.63,.37-.55,1.02-.78,1.63-.58,.03,.13,.08,.26,.14,.38-.63-.28-1.35,.03-1.61,.7-.04,.11-.07,.23-.09,.35,.31-.7,1.03-1.09,1.75-.94h0c.05,.1,.1,.19,.16,.27-.17-.28-.22-.62-.15-.94,.08-.4,.64-.5,.64-.5-.13,.1-.25,.23-.34,.37,.05-.07,.11-.14,.18-.2,.9-.8,2.04-1.25,3.22-1.26,.53-.24,1.12-.23,1.64,.01,3.05,.35,4.19,2.91,4.62,3.64,.15,.26,.15,.41,.07,.51,.16,.21,.25,.34,.25,.34-.57-2.36-2.36-4.17-4.62-4.67-.03-.09-.04-.18-.06-.27-.01,.09-.01,.17,0,.26h-.03c-.1-.02-.2-.04-.3-.06-.03-.1-.05-.2-.07-.3-.01,.1-.01,.2,0,.3-.09-.01-.17-.02-.26-.03-.05-.14-.09-.29-.11-.43-.02,.14-.01,.28,0,.42-.09,0-.17,0-.25-.01-.07-.16-.12-.34-.15-.52-.02,.17,0,.35,.03,.52-.12,0-.23,0-.34,0-.15-.26-.25-.55-.3-.85h0c-.03,.29,0,.58,.09,.86m-4.15,1.93h0Z"/><path id="Path_1658" class="cls-12" d="M20.99,44.81c-.06-.07-.12-.15-.17-.24,.02,.03,.04,.07,.06,.1-.67-.18-1.34,.25-1.51,.95-.01,.05-.02,.1-.03,.15,.3-.66,.96-1.05,1.65-.96,.08,.1,.17,.19,.26,.28-.61-.08-1.16,.37-1.24,1.01,.26-.57,.82-.91,1.41-.86,.05,.05,.1,.08,.15,.12-.53,.04-.97,.47-1.05,1.03,.25-.53,.77-.87,1.33-.86-.32-.2-.61-.44-.87-.73"/><path id="Path_1659" class="cls-12" d="M20.86,43.74s-.02,.05-.02,.08c0,.03,.01,.06,.02,.08,0-.05,0-.11,0-.17"/><path id="Path_1660" class="cls-12" d="M30.63,45.67c-.44-.73-1.57-3.29-4.62-3.64,.51,.23,.89,.68,1.06,1.23,1.41,.66,2.65,1.66,3.63,2.92,.08-.09,.08-.25-.07-.51"/><path id="Path_1661" class="cls-12" d="M23.6,42.62c.2-.26,.46-.47,.76-.61-1.18,.02-2.32,.46-3.22,1.26,.09-.08,.18-.14,.28-.2,.7-.25,1.44-.41,2.18-.46"/><path id="Path_1662" class="cls-12" d="M22.09,45.49h-.02c-.93-.71-1.17-1.24-1.21-1.59-.01-.03-.02-.05-.02-.08,0-.03,.01-.06,.02-.08h0c0-.08,.03-.16,.06-.23,0-.01,.03-.03,.04-.04,.09-.15,.2-.27,.34-.37,0,0-.56,.1-.64,.5-.07,.32-.02,.66,.15,.94,0,.01,.01,.02,.02,.03,.05,.08,.11,.16,.17,.23,.26,.28,.55,.53,.87,.73,.19,.01,.37,.06,.54,.15-.09-.07-.2-.14-.3-.19"/><path id="Path_1664" class="cls-12" d="M25.77,42c.08,0,.16,.02,.23,.03-.27-.13-.56-.19-.86-.19-.27,0-.54,.06-.78,.17,.47-.04,.94-.05,1.41-.01"/><path id="Path_1665" class="cls-12" d="M23.6,42.62c1.19-.08,2.37,.14,3.46,.64-.17-.56-.56-1.01-1.07-1.23-.08,0-.15-.03-.23-.03-.47-.03-.94-.03-1.41,.01-.3,.13-.56,.34-.76,.61"/><path id="Path_1666" class="cls-8" d="M55.89,44.74s0,.04,0,.06c.01,0,.01-.03,0-.06"/><path id="Path_1667" class="cls-8" d="M35.37,18.88h.03c11.55,.02,20.91,9.39,20.91,20.94,0,1.57-.18,3.13-.53,4.65,.04,.09,.08,.18,.11,.28,.11-1.17,.69-3.33,.68-4.52-.26-13.69-9.95-23.74-21.31-24.15-11.48,.28-20.83,11.34-21.08,25.16,0,.09,.13,.17,.35,.23-.04-.54-.07-1.09-.07-1.64,0-11.55,9.36-20.92,20.91-20.94"/><path id="Path_1668" class="cls-8" d="M34.15,16.05c.37,0,.74,0,1.11,.01,.26,0,.52-.01,.79-.01h-1.9Z"/><path id="Path_1669" class="cls-8" d="M47.73,24.48c-1.95,2.36-3.68,4.92-5.16,7.63-.51,.92-.96,1.88-1.36,2.86,2.24-1.3,4.33-2.88,6.22-4.71,0,0,2.51,4.11,4.81,7.96,.4,.27,.76,.59,1.08,.95-.24-.13-.48-.25-.73-.36,1.49,2.52,2.81,4.81,3.19,5.65,.35-1.52,.53-3.08,.53-4.65,0-11.55-9.36-20.92-20.91-20.94h-.03c-11.55,.01-20.91,9.38-20.91,20.94,0,.55,.03,1.1,.07,1.64,.8,.17,1.63,.24,2.44,.2-.03-.1-.07-.21-.09-.32,.06,.11,.12,.22,.19,.32,.28,0,.58-.01,.9-.02-.16-.46-.25-.95-.26-1.44,.13,.51,.36,1,.67,1.42,.25,0,.5-.03,.77-.05-.33-.61-.47-1.32-.39-2.03,.1,.74,.39,1.43,.85,1.99,.07,0,.15-.02,.22-.02-.39-.64-.55-1.4-.46-2.15,.1,.79,.43,1.52,.94,2.11l.4-.04c-.34-.61-.47-1.33-.39-2.03,.1,.73,.39,1.41,.84,1.98,.12-.01,.24-.02,.37-.04-.27-.52-.37-1.11-.3-1.7,.09,.6,.32,1.17,.68,1.65,.15-.02,.3-.04,.45-.06-.13-.38-.18-.78-.13-1.19,.06,.41,.19,.8,.39,1.15,.19-.02,.38-.06,.57-.08-.02-.17-.03-.35,0-.53,.02,.17,.06,.35,.12,.51l.55-.08c0-.08,0-.17,0-.25,.01,.08,.03,.16,.05,.24,.19-.03,.38-.07,.57-.1v-.06s0,.04,0,.06c.99-.17,2.02-.38,3.08-.63-2.28-1.24-6.78-3.11-10.21-1.09,1.12-1.27,2.71-1.96,4.35-1.9,2.71,.34,5.34,1.19,7.76,2.5,2.55-.68,5.05-1.56,7.48-2.63,.8-1.52,1.71-2.97,2.73-4.33,2.32-3.15,5.03-5.95,8.05-8.34"/><path id="Path_1670" class="cls-8" d="M42.58,32.11c1.48-2.72,3.21-5.27,5.16-7.63-3.02,2.39-5.73,5.19-8.05,8.34-1.02,1.36-1.94,2.81-2.73,4.33,1.46-.64,2.88-1.37,4.26-2.18,.4-.98,.86-1.94,1.36-2.86"/><path id="Path_1671" class="cls-8" d="M53.32,39.17c-.32-.36-.69-.68-1.08-.95,.12,.2,.23,.4,.35,.59,.25,.1,.49,.22,.73,.36"/><path id="Path_1672" class="cls-8" d="M17.35,39.17c3.43-2.02,7.93-.15,10.21,1.09,.63-.15,1.26-.31,1.9-.48-2.43-1.31-5.06-2.16-7.76-2.5-1.64-.07-3.23,.63-4.35,1.9"/><path id="Path_1673" class="cls-8" d="M23.86,40.75c0,.08,0,.17,0,.25,.01,0,.03,0,.04,0-.02-.08-.04-.16-.05-.24"/><path id="Path_1674" class="cls-8" d="M23.19,40.57c-.02,.18-.01,.35,0,.53,.04,0,.08-.01,.11-.02-.06-.16-.1-.33-.12-.51"/><path id="Path_1675" class="cls-8" d="M22.24,40.04c-.04,.4,0,.81,.13,1.18,.09-.01,.17-.02,.26-.03-.2-.35-.33-.74-.39-1.15"/><path id="Path_1676" class="cls-8" d="M21.24,39.63c-.07,.59,.04,1.18,.31,1.7,.12-.02,.25-.04,.38-.05-.36-.48-.59-1.05-.68-1.65"/><path id="Path_1677" class="cls-8" d="M24.48,40.88h0s0-.04,0-.06v.06"/><path id="Path_1678" class="cls-8" d="M19.38,39.36c-.09,.75,.07,1.51,.46,2.15,.16-.01,.32-.03,.49-.04-.51-.58-.84-1.32-.94-2.11"/><path id="Path_1679" class="cls-8" d="M17.72,40.19c0,.49,.09,.98,.26,1.44,.13,0,.27,0,.41-.02-.31-.42-.54-.9-.67-1.42"/><path id="Path_1680" class="cls-8" d="M18.77,39.54c-.08,.7,.05,1.41,.39,2.03,.16,0,.3-.02,.46-.03-.45-.57-.75-1.26-.85-1.99"/><path id="Path_1681" class="cls-8" d="M20.34,39.39c-.08,.7,.05,1.42,.39,2.03,.15-.02,.3-.03,.45-.05-.45-.57-.74-1.25-.84-1.99"/><path id="Path_1682" class="cls-8" d="M16.89,41.33c.02,.11,.06,.22,.09,.32h.1c-.07-.1-.13-.21-.19-.32"/></g></g></g></svg>