<?xml version="1.0" encoding="UTF-8"?><svg id="Layer_8" xmlns="http://www.w3.org/2000/svg" xmlns:xlink="http://www.w3.org/1999/xlink" viewBox="0 0 72 72"><defs><style>.cls-1{fill:none;}.cls-2{clip-path:url(#clippath);}.cls-3{fill:#017d8d;}.cls-4{fill:#e9caab;}.cls-5{fill:#fff;}.cls-6{fill:#efcaa5;}.cls-7{fill:#e66b5b;}.cls-8{fill:#b78e65;}.cls-9{fill:#b28967;}.cls-10{fill:#c2544c;}.cls-11{fill:#d3d3d3;}.cls-12{fill:#d4d4c6;}.cls-13{fill:#1e1e1e;}.cls-14{fill:#454342;}.cls-15{fill:#2c2c2c;}.cls-16{fill:#653011;}</style><clipPath id="clippath"><rect class="cls-1" width="72" height="72"/></clipPath></defs><g id="Group_440"><g class="cls-2"><g id="Group_439"><path id="Path_593" class="cls-12" d="M72,36c0,19.88-16.12,36-36,36S0,55.88,0,36,16.12,0,36,0s36,16.12,36,36"/><path id="Path_594" class="cls-14" d="M36,72c9.95,.01,19.46-4.11,26.25-11.37l-7.94-6.24H17.79l-7.28,7.04c6.74,6.78,15.92,10.58,25.48,10.57"/><rect id="Rectangle_351" class="cls-11" x="26.62" y="46.05" width="18.77" height="3.51"/><path id="Path_595" class="cls-4" d="M41.71,57.27l-11.8,.04-.08-17.32,11.8-.04,.08,17.32Z"/><rect id="Rectangle_352" class="cls-5" x="25.32" y="53.74" width="23.53" height="12.38"/><path id="Path_596" class="cls-8" d="M38.15,35.71s-.08,0-.12,0c.03,0,.07-.01,.1-.02,.1,0,.19,0,.29,.03-.09,0-.18,0-.27,0"/><path id="Path_597" class="cls-14" d="M48.54,52.39l4.49,4.03-3.01,3.19,4.22,3.02-17.13,9.34c6.06-.18,11.98-1.89,17.2-4.98v-12.61l-5.77-1.99Z"/><path id="Path_598" class="cls-14" d="M18.89,56.46l4.45-3.99-5.56,1.92v8.21l4.12-2.95-3.01-3.19Z"/><path id="Path_599" class="cls-14" d="M17.79,67.06c5.02,2.95,10.68,4.64,16.5,4.9l-16.5-9.22v4.32Z"/><path id="Path_600" class="cls-7" d="M37.9,58.43h.92l2.39-4.55h-10.41l2.39,4.55h1.03l-.75,7.78c.7,1.89,1.37,3.83,1.99,5.77,.17,0,.34,.01,.52,.01l2.6-6.98-.67-6.59Z"/><path id="Path_601" class="cls-7" d="M33.47,66.27v.08s1.97,5.63,1.97,5.63h.02c-.62-1.94-1.29-3.89-1.99-5.78v.06Z"/><path id="Path_602" class="cls-15" d="M17.69,62.67l.11,.06v-.14l-.11,.08Z"/><path id="Path_603" class="cls-15" d="M27.34,48.9l-3.99,3.57-4.45,3.99,3.01,3.19-4.11,2.95v.14l16.5,9.22c.31,.02,.62,.02,.92,.02,.07,0,.14,0,.21,0l-8.1-23.09Zm22.68,10.71l3.01-3.19-4.49-4.02-3.95-3.54-6.02,16.17-2.6,6.98h.21c.31,0,.62-.02,.93-.02l17.13-9.34-4.22-3.02Z"/><path id="Path_604" class="cls-5" d="M26.62,46.05l9.38,7.84-10.99,4.76,1.61-12.6Z"/><path id="Path_605" class="cls-5" d="M45.4,46.05l-9.39,7.84,11.32,4.92-1.93-12.76Z"/><path id="Path_606" class="cls-16" d="M51.69,21.68c0,10.21-6.87,18.49-15.34,18.49s-15.34-8.27-15.34-18.49S27.89,3.19,36.36,3.19s15.34,8.28,15.34,18.49"/><path id="Path_607" class="cls-6" d="M48.98,24.92c0,9.93-2.81,17.98-12.62,17.98s-12.63-8.05-12.63-17.98S29.39,6.94,36.36,6.94s12.62,8.05,12.62,17.98"/><path id="Path_608" class="cls-6" d="M26.39,28.66c.02,2.79-1.06,5.06-2.42,5.07s-2.46-2.25-2.48-5.04,1.07-5.06,2.42-5.07,2.46,2.25,2.48,5.04"/><path id="Path_609" class="cls-6" d="M51.22,28.66c.01,2.79-1.07,5.06-2.42,5.07s-2.46-2.25-2.47-5.04,1.07-5.06,2.42-5.07,2.46,2.25,2.48,5.04"/><path id="Path_610" class="cls-9" d="M39.01,32.11c-.17-.23-.64-.21-.69-.2-.24,.02-.47,.09-.67,.22l-.07,.04c-.36,.24-.78,.38-1.21,.41-.43-.02-.86-.16-1.22-.4l-.08-.04c-.2-.13-.43-.2-.67-.22-.06,0-.52-.01-.69,.21-.07,.1-.08,.23-.01,.33,.11,.15,.29,.23,.48,.2,.28,0,.56-.05,.82-.15,.41,.25,.88,.39,1.36,.42h.03c.48-.03,.94-.18,1.35-.43,.26,.1,.54,.15,.82,.14,.19,.03,.37-.05,.48-.21,.06-.1,.06-.23-.02-.32"/><path id="Path_611" class="cls-16" d="M48.98,24.34c-.43-.05-1.01,6.19-1.01,8.04,.04,1.83-1.42,3.35-3.25,3.39-.04,0-.09,0-.13,0-2.33,0-3.56-2.34-8.22-2.34s-5.89,2.34-8.22,2.34c-1.83,.04-3.35-1.42-3.39-3.25,0-.04,0-.09,0-.13,0-1.86-.58-8.1-1.01-8.04,0,3.11-.25,12.91-.25,12.91-.07,4.45,2.63,8.48,6.77,10.11,2.88,1.08,3.56-.33,6.1-.34s3.22,1.41,6.1,.34c4.14-1.63,6.84-5.66,6.78-10.11,0,0-.25-9.81-.25-12.91"/><path id="Path_612" class="cls-16" d="M36.36,10.69c12.25,0,11.57,6.06,13.03,13.1,.27-1.29,.4-2.61,.4-3.93,0-8.94-6.01-16.19-13.43-16.19s-13.43,7.25-13.43,16.19c0,1.32,.13,2.64,.4,3.93,1.46-7.04,.83-13.1,13.03-13.1"/><path id="Path_613" class="cls-3" d="M49.53,22.34v-.03s-.03-.06-.07-.08h-.02c-1.11-.5-5.75-.75-8.25-.42-2.52,.33-4.01,1.11-4.84,1.14-.83-.02-2.34-.78-4.86-1.08-2.51-.3-7.15,0-8.24,.52h-.02s-.06,.05-.06,.08v.03c0,.17-.04,.91-.03,1.33v.06c.01,.12,.09,.22,.2,.27h.02c.22,.1,.61,.52,1.01,2.52,.18,1,.42,3.12,2.19,3.75,.81,.28,4.72,.85,6.7-1.02,.53-.64,.96-1.36,1.24-2.14,.22-.6,.81-2.32,.9-2.58,.06-.43,.43-.75,.86-.75h.2c.43,0,.8,.32,.86,.75,.09,.26,.7,1.98,.93,2.57,.3,.78,.73,1.49,1.27,2.12,2,1.85,5.91,1.24,6.72,.95,1.77-.65,1.97-2.77,2.15-3.78,.38-2.01,.76-2.43,.98-2.53h.01c.11-.05,.18-.15,.2-.27v-.07c.01-.42-.03-1.16-.04-1.33m-16.19,5.44c-.31,.88-.99,1.58-1.86,1.91-1.34,.48-2.78,.58-4.17,.28-.97-.19-1.75-.92-2-1.88-.37-1.16-.5-2.38-.38-3.58,.14-.78,.66-1.43,1.39-1.74,1.77-.52,3.63-.61,5.44-.24,.75,.17,2.08,.35,2.39,1.43,.33,1.16-.29,2.79-.8,3.82m14.13,.19c-.24,.96-1,1.7-1.97,1.9-1.39,.31-2.83,.23-4.18-.24-.88-.32-1.57-1.01-1.89-1.89-.53-1.02-1.16-2.65-.85-3.82,.29-1.08,1.62-1.27,2.37-1.46,1.8-.39,3.67-.32,5.44,.18,.73,.3,1.26,.95,1.41,1.73,.13,1.21,.02,2.43-.33,3.59"/><path id="Path_614" class="cls-7" d="M32.4,37.11c1.58,2.4,2.35,2.03,3.94,2.1,1.68-.13,2.35,.5,3.97-2.08-1.28,.32-2.59,.48-3.9,.47-1.35,0-2.7-.16-4.01-.5"/><path id="Path_615" class="cls-10" d="M37.8,37c-.86,.14-.94,.35-1.39,.34-.57-.07-1.13-.19-1.68-.34-.78-.02-1.56,.02-2.33,.11,1.28,.42,2.61,.69,3.96,.81,1.34-.12,2.67-.39,3.95-.79-.83-.12-1.67-.17-2.51-.14"/><path id="Path_616" class="cls-5" d="M43.53,26.19c-1.05-.1-2.03-.58-2.75-1.35,.72-.77,1.7-1.25,2.75-1.35,1.05,.1,2.03,.58,2.75,1.35-.72,.77-1.7,1.25-2.75,1.35"/><path id="Path_617" class="cls-16" d="M44.61,24.89c0,.61-.49,1.1-1.1,1.1s-1.1-.49-1.1-1.1c0-.61,.49-1.1,1.1-1.1,0,0,0,0,0,0,.6,0,1.09,.49,1.09,1.1"/><path id="Path_618" class="cls-5" d="M43.22,24.89c0,.16,.14,.29,.3,.29,.16,0,.29-.14,.29-.3,0-.16-.13-.29-.3-.29-.16,0-.3,.13-.3,.3h0"/><path id="Path_619" class="cls-13" d="M46.28,24.84c-.72-.77-1.7-1.25-2.75-1.35-1.05,.1-2.03,.57-2.74,1.35,.83-.52,1.77-.8,2.74-.83,.97,.03,1.92,.32,2.75,.83"/><path id="Path_620" class="cls-5" d="M29.47,26.19c-1.05-.1-2.03-.58-2.75-1.35,.72-.77,1.7-1.25,2.75-1.35,1.05,.1,2.03,.58,2.75,1.35-.72,.77-1.7,1.25-2.75,1.35"/><path id="Path_621" class="cls-16" d="M30.55,24.89c0,.61-.49,1.1-1.1,1.1-.61,0-1.1-.49-1.1-1.1,0-.6,.49-1.09,1.1-1.1,.61,0,1.1,.49,1.1,1.1"/><path id="Path_622" class="cls-13" d="M32.21,24.84c-.72-.77-1.7-1.25-2.75-1.35-1.05,.1-2.02,.58-2.74,1.35,.83-.51,1.77-.8,2.74-.83,.97,.03,1.92,.32,2.75,.83"/><path id="Path_623" class="cls-5" d="M29.15,24.89c0,.16,.13,.3,.3,.3s.3-.13,.3-.3h0c0-.16-.13-.3-.3-.3s-.3,.13-.3,.3"/><path id="Path_624" class="cls-16" d="M46.3,13.63c-7.05-4.88-12.65,.42-14.48,2.14,.65-.97,2.76-4.38,2.76-4.38-.97-2.03-5.23,3.25-5.23,3.25l.91-3.22-5.25,4.97s1.2-8.88,7.04-8.98c2.61-.12,5.23-.03,7.82,.27,2.21,.31,4.5,2.26,4.5,2.26l1.94,3.69Z"/><path id="Path_625" class="cls-16" d="M30.53,11.28s-7.12,7.87-6.8,12.21c-.53-4.34,.44-8.74,2.74-12.46l7.33-2.21-3.28,2.46Z"/></g></g></g></svg>