<?xml version="1.0" encoding="UTF-8"?><svg id="Layer_29" xmlns="http://www.w3.org/2000/svg" xmlns:xlink="http://www.w3.org/1999/xlink" viewBox="0 0 72 72"><defs><style>.cls-1{fill:none;}.cls-2{clip-path:url(#clippath);}.cls-3{fill:#f8dec5;}.cls-4{fill:#fff;}.cls-5{fill:#e66b5b;}.cls-6{fill:#cca884;}.cls-7{fill:#dfc5ad;}.cls-8{fill:#41b5b7;}.cls-9{fill:#262626;}.cls-10{fill:#308584;}</style><clipPath id="clippath"><rect class="cls-1" width="72" height="72"/></clipPath></defs><g id="Group_446"><g class="cls-2"><g id="Group_445"><path id="Path_819" class="cls-9" d="M72,36c0,19.88-16.12,36-36,36S0,55.88,0,36,16.12,0,36,0s36,16.12,36,36"/><rect id="Rectangle_360" class="cls-10" x="29.84" y="53.41" width="13.55" height="4.57"/><path id="Path_820" class="cls-7" d="M29.26,61.91c.93-5.35,2.8-10.61,2.8-16.04h9.09c0,5.43,1.87,10.7,2.8,16.04-4.86,.85-9.83,.85-14.7,0"/><path id="Path_821" class="cls-8" d="M51.11,56.81c-1.04-.35-4.85-2.07-7.71-3.38,0,0-.01,0-.02,0h0c-.17,.87-.67,1.65-1.39,2.16-.7,.55-1.48,.98-2.32,1.25h0c-1.98,.69-4.12,.69-6.1,0h0c-.84-.28-1.62-.7-2.32-1.25-.72-.51-1.21-1.29-1.39-2.17h0s-.01,.01-.01,.01c-2.86,1.31-6.67,3.03-7.71,3.38-1.61,.41-2.73,1.88-2.73,3.57,0,0-.58,3.44-1.09,6.96,11.43,6.44,25.35,6.19,36.55-.66-.48-3.28-.99-6.3-.99-6.3,0-1.69-1.13-3.17-2.74-3.57"/><path id="Path_822" class="cls-8" d="M48.57,57.61c-2.78,.98-4.26,4.07-3.3,6.91,.01,.03,.02,.06,.03,.1l2.02,5.55c3.5-1.16,6.81-2.85,9.8-5.03l-1.55-4.26c-1.08-2.86-4.19-4.31-7.01-3.27"/><path id="Path_823" class="cls-8" d="M25.84,57.79c-2.47-1.73-5.85-1.14-7.61,1.34l-3.92,5.6c2.96,2.23,6.23,3.99,9.7,5.22l3.18-4.54c1.7-2.42,1.15-5.79-1.22-7.52-.04-.03-.09-.06-.13-.09"/><path id="Path_824" class="cls-4" d="M32.57,60.93c-7.61-5.49-6.98-14.94,2.65-20.44,4.04-2.31-2.33-4.34-2.33-4.34,0,0-24.75,12.59-12.48,29.51,.92,1.36,1.71,2.63,2.38,3.82,3.52,1.39,7.24,2.22,11.01,2.44,1.98-4.08,2.33-8.43-1.23-10.99"/><path id="Path_825" class="cls-7" d="M25.73,30.08c.77,2.56,.47,4.91-.67,5.26-1.14,.34-2.68-1.46-3.45-4.02s-.47-4.91,.67-5.25,2.68,1.46,3.45,4.02"/><path id="Path_826" class="cls-7" d="M47.42,30.08c-.77,2.56-.47,4.91,.67,5.26,1.14,.34,2.69-1.46,3.45-4.02s.47-4.91-.67-5.25-2.68,1.46-3.45,4.02"/><path id="Path_827" class="cls-8" d="M25.59,35.31c.02,1.09-.82,2-1.89,2.03-1.07,.03-1.96-.84-1.98-1.94s.82-2,1.89-2.03c.01,0,.03,0,.04,0,1.06-.01,1.93,.85,1.94,1.94"/><path id="Path_828" class="cls-8" d="M51.43,35.31c.03,1.09-.82,2-1.89,2.03s-1.96-.84-1.98-1.94,.82-2,1.89-2.03c.02,0,.03,0,.05,0,1.06-.01,1.92,.86,1.94,1.94"/><path id="Path_829" class="cls-4" d="M51.2,22.2c.09,8.49-6.57,15.45-14.88,15.55-8.31-.09-14.97-7.05-14.88-15.55-.09-8.49,6.57-15.45,14.88-15.55,8.31,.09,14.97,7.05,14.88,15.55"/><path id="Path_830" class="cls-3" d="M50.42,27.09c0,10.55-8.58,21.34-13.78,21.34s-13.84-10.79-13.84-21.34S28.67,7.99,36.61,7.99s13.81,8.55,13.81,19.1"/><path id="Path_831" class="cls-6" d="M38.52,38.68c-.12-.16-.46-.15-.5-.15-.17,0-.34,.06-.48,.15l-.05,.03c-.26,.17-.56,.27-.87,.29-.31-.02-.61-.12-.87-.29l-.05-.03c-.15-.09-.31-.15-.48-.15-.04,0-.38-.01-.5,.15-.05,.06-.06,.16-.01,.23,.08,.11,.21,.17,.34,.15,.2,0,.4-.03,.59-.1,.3,.18,.63,.28,.97,.3h.02c.34-.02,.68-.12,.97-.3,.19,.07,.39,.11,.59,.1,.13,.02,.27-.04,.35-.15,.04-.07,.04-.16-.01-.23"/><path id="Path_832" class="cls-5" d="M34.95,41.42c.54,.23,1.11,.41,1.69,.52,.45,.01,.54-.3,1.41-.49,.55-.13,2,.29,2.87-.48-1.94,3.48-2.62,3.57-4.36,3.59-1.66,.02-2.44-.43-4.27-3.61,.23,.41,1.97,.36,2.66,.48"/><path id="Path_833" class="cls-4" d="M37.68,7.76c-9.06-1.5-15.01,11.58-14.2,12.12,2.78,1.69,6.05,2.36,9.25,1.9,2.92-.43,6.28-1.41,9.4-.3,7.49,2.65,7.19,10.28,7.36,12.03,7.54-27-12.47-26.51-11.81-25.75"/><path id="Path_834" class="cls-9" d="M50.28,28.02v-.03s-.03-.07-.06-.08h-.02c-1.15-.56-5.99-.85-8.6-.49-2.63,.36-4.19,1.21-5.06,1.24-.87-.03-2.44-.86-5.07-1.21-2.61-.34-7.45,0-8.6,.54,0,0-.01,0-.02,.01h0s-.06,.05-.06,.09v.03c-.01,.19-.05,1-.03,1.47v.07c.01,.13,.09,.24,.21,.29h.02c.23,.11,.63,.57,1.05,2.78,.19,1.11,.42,3.44,2.28,4.15,.84,.31,4.92,.94,6.99-1.11,.56-.7,1-1.5,1.3-2.36,.23-.66,.85-2.56,.94-2.85,.14-.51,.43-.83,.9-.83h.2c.47,0,.76,.31,.9,.82,.1,.29,.73,2.19,.96,2.84,.31,.85,.75,1.65,1.32,2.35,2.08,2.04,6.16,1.38,6.99,1.06,1.85-.72,2.07-3.05,2.25-4.16,.4-2.22,.8-2.68,1.03-2.78h.02c.11-.06,.19-.17,.21-.3v-.07c.01-.46-.03-1.28-.04-1.47"/></g></g></g></svg>