<?xml version="1.0" encoding="UTF-8"?><svg id="Layer_3" xmlns="http://www.w3.org/2000/svg" xmlns:xlink="http://www.w3.org/1999/xlink" viewBox="0 0 72 72"><defs><style>.cls-1{fill:none;}.cls-2{clip-path:url(#clippath);}.cls-3{fill:#f8dec5;}.cls-4{fill:#046168;}.cls-5{fill:#017d8d;}.cls-6{fill:#e9caab;}.cls-7{fill:#fff;}.cls-8{fill:#fbb316;}.cls-9{fill:#e66b5b;}.cls-10{fill:#cca884;}.cls-11{fill:#cc5d54;}.cls-12{fill:#ae4c45;}.cls-13{fill:#130d0a;}.cls-14{fill:#110e0d;}.cls-15{fill:#a39f4a;}.cls-16{fill:#29bec8;}</style><clipPath id="clippath"><rect class="cls-1" width="72" height="72"/></clipPath></defs><g id="Group_432"><g class="cls-2"><g id="Group_431"><path id="Path_453" class="cls-15" d="M72,35.98c0,19.87-16.12,35.98-36,35.98S0,55.85,0,35.98,16.12,0,36,0s36,16.11,36,35.98"/><path id="Path_454" class="cls-4" d="M27.45,50.09h17.05s2.66,3.24,2.66,3.24l-9.46,6.59-10.72-2.27-.8-6.03,1.26-1.53Z"/><path id="Path_457" class="cls-6" d="M41.92,58.85l-11.8,.04-.09-17.31,11.8-.04,.09,17.31Z"/><path id="Path_458" class="cls-16" d="M44.01,51.35l.02-.03v.03"/><path id="Path_459" class="cls-16" d="M44.47,50.08s-.01,.09-.03,.13c0-.04,.03-.09,.03-.13h0"/><path id="Path_460" class="cls-8" d="M44.01,51.35c-1,1.4-2.41,2.43-4.02,2.92h0c-1.31,.47-2.69,.71-4.07,.71-1.3,0-2.59-.22-3.83-.64h0c-1.04-.35-2.02-.87-2.89-1.56-.89-.63-1.5-1.6-1.72-2.7h-.01c.22,1.1,.84,2.06,1.72,2.7-4.09,4.45-6.71,10.16-7.46,16.28,4.52,1.94,9.36,2.94,14.25,2.94,4.89,0,9.72-.99,14.24-2.93-.76-6.12-3.37-11.83-7.46-16.29,.5-.39,.93-.88,1.26-1.43"/><path id="Path_461" class="cls-5" d="M27.45,50.09h-.02c-3.56,1.64-8.31,3.78-9.6,4.21-2.14,.72-3.4,2.33-3.4,4.45l-.77,5.49c2.48,1.96,5.18,3.58,8.06,4.82,.75-6.12,3.37-11.83,7.46-16.28-.88-.63-1.5-1.6-1.73-2.69"/><path id="Path_462" class="cls-5" d="M54.1,54.31c-1.29-.43-6.03-2.57-9.6-4.2h-.02s-.03,.07-.03,.11c-.03,.14-.06,.28-.11,.41-.01,.05-.03,.09-.04,.14-.07,.2-.16,.38-.27,.56v.03c-.35,.55-.78,1.04-1.28,1.43,4.09,4.45,6.71,10.16,7.46,16.29,2.88-1.24,5.59-2.87,8.07-4.83l-.77-5.49c0-2.12-1.26-3.73-3.4-4.45"/><path id="Path_463" class="cls-12" d="M49.47,37.11c-3.15,4.36-8.06,6.95-13.3,7.02-5.49-.08-10.61-2.92-13.74-7.63-2.44-3.51,4-26.95,13.74-26.95s16,23.96,13.3,27.56"/><path id="Path_464" class="cls-3" d="M49.1,27.47c0,9.89-8.05,20.01-12.93,20.01s-12.99-10.12-12.99-20.01,5.51-17.91,12.96-17.91,12.96,8.02,12.96,17.91"/><path id="Path_465" class="cls-7" d="M34.16,31.45s-1.37-3.64-4.7-3.78c-3.57-.14-4.14,2.23-4.14,2.23,.79,1.66,2.48,2.65,4.25,2.48,1.57-.06,3.11-.37,4.58-.94"/><path id="Path_466" class="cls-13" d="M28.09,29.02c-.23,.84,.23,1.73,1.04,1.97,.02,0,.03,0,.05,.01,.83,.26,1.71-.22,1.98-1.08,.23-.84-.23-1.73-1.04-1.97-.02,0-.03,0-.05-.01-.83-.26-1.71,.22-1.98,1.08"/><path id="Path_467" class="cls-7" d="M29.55,28.93c-.08,.31,.09,.62,.38,.71,0,0,0,0,0,0,.3,.09,.61-.08,.71-.39,.08-.3-.08-.62-.38-.71,0,0,0,0-.01,0-.3-.09-.61,.08-.71,.39"/><path id="Path_468" class="cls-7" d="M28.75,28.9c-.05,.16,.04,.33,.2,.38,0,0,0,0,.01,0,.16,.05,.33-.04,.38-.21,.05-.16-.04-.33-.19-.38,0,0,0,0-.01,0-.16-.05-.33,.04-.38,.21"/><path id="Path_469" class="cls-14" d="M34.16,31.45s-2.02-5.27-8.88-1.68c.6-1.61,5.82-5.43,8.88,1.68"/><path id="Path_470" class="cls-7" d="M38.13,31.45s1.37-3.64,4.7-3.78c3.57-.14,4.14,2.23,4.14,2.23-.79,1.66-2.48,2.65-4.25,2.48-1.57-.06-3.11-.37-4.58-.94"/><path id="Path_471" class="cls-13" d="M44.2,29.02c.23,.84-.23,1.73-1.04,1.97-.01,0-.03,0-.04,.01-.83,.26-1.71-.22-1.98-1.08-.23-.84,.23-1.72,1.04-1.97,.02,0,.03-.01,.05-.01,.83-.26,1.71,.22,1.98,1.08"/><path id="Path_472" class="cls-7" d="M42.74,28.93c.08,.3-.09,.62-.38,.71,0,0,0,0-.01,0-.3,.09-.61-.08-.71-.39-.08-.3,.09-.62,.38-.71,0,0,0,0,.01,0,.3-.09,.61,.08,.71,.39"/><path id="Path_473" class="cls-7" d="M43.54,28.9c.05,.16-.04,.33-.19,.38,0,0-.01,0-.02,0-.16,.05-.32-.05-.38-.21-.05-.16,.04-.33,.2-.38,0,0,0,0,0,0,.16-.05,.33,.04,.38,.21"/><path id="Path_474" class="cls-14" d="M38.13,31.45s2.02-5.27,8.88-1.68c-.59-1.61-5.82-5.43-8.88,1.68"/><path id="Path_475" class="cls-10" d="M38.6,38.75c-.16-.2-.59-.19-.64-.19-.22,.01-.43,.08-.62,.2l-.07,.04c-.34,.21-.73,.34-1.13,.36-.4-.02-.78-.15-1.12-.36l-.07-.04c-.19-.12-.4-.18-.62-.2-.05,0-.48-.01-.64,.19-.07,.08-.07,.2-.02,.29,.1,.14,.27,.21,.44,.19,.26,0,.52-.04,.76-.13,.38,.23,.81,.36,1.25,.38h0s.02,0,.02,0h0c.44-.03,.87-.16,1.25-.38,.24,.1,.5,.14,.76,.13,.17,.03,.34-.04,.45-.19,.06-.09,.05-.21-.01-.29"/><path id="Path_476" class="cls-7" d="M38.75,41.34h-4.73c.36,.92,1.19,1.54,2.13,1.62,1.5,0,2.6-1.62,2.6-1.62"/><path id="Path_477" class="cls-11" d="M39.48,40.98c-.42-.09-.85,.05-1.15,.37-1.35,1.44-2.92,1.47-4.21,0-.29-.33-.73-.48-1.15-.38,.05,.22,.33,3.2,3.17,3.4h0s.06,0,.08,0,.05,0,.08,0h0c2.85-.21,3.15-3.22,3.17-3.4"/><path id="Path_478" class="cls-9" d="M39.49,40.98s-2.26-1.18-3.26,.26c-1.28-1.44-3.27-.23-3.27-.26,.02,.03,2.32,1.14,3.26,1.08,.93,.06,3.25-1.05,3.27-1.08"/><path id="Path_479" class="cls-9" d="M36.39,5.66c-14.5,0-23.04,21.52-14.58,32.27,1.68,2.03,3.45,3.96,5.32,5.8-1.1-1.8-2.03-3.72-2.76-5.72-.56-1.36-.85-2.83-.85-4.31,.07-1.62,.54-4,1.88-5.06,4.31-3.5,7.96-7.8,10.78-12.68,0,0,5.45,8.09,10.78,12.68,1.29,1.11,1.8,3.44,1.88,5.06,0,1.48-.29,2.95-.85,4.31-.73,2-1.65,3.92-2.75,5.72,1.86-1.84,3.64-3.78,5.32-5.8,8.45-10.75-.09-32.27-14.16-32.27"/></g></g></g></svg>