<?xml version="1.0" encoding="UTF-8"?><svg id="Layer_4" xmlns="http://www.w3.org/2000/svg" viewBox="0 0 498.01 51.6"><defs><style>.cls-1{fill:#231f20;}</style></defs><path class="cls-1" d="M1.99,7.19H7.94v24.92h15.9v5.49H1.99V7.19Z"/><path class="cls-1" d="M27.24,7.98c0-2.14,1.53-3.72,3.67-3.72s3.67,1.58,3.67,3.72-1.53,3.67-3.67,3.67-3.67-1.53-3.67-3.67Zm.88,6.65h5.53v22.97h-5.53V14.63Z"/><path class="cls-1" d="M39,28.76V6.49h5.53V14.63h11.86v5.02h-11.86v9.11c0,3.07,1.58,4.28,3.86,4.28s3.86-1.16,3.86-4.28v-.6h5.53v.6c0,6.37-3.81,9.44-9.39,9.44s-9.39-3.07-9.39-9.44Z"/><path class="cls-1" d="M61.32,28.76V6.49h5.53V14.63h11.86v5.02h-11.86v9.11c0,3.07,1.58,4.28,3.86,4.28s3.86-1.16,3.86-4.28v-.6h5.53v.6c0,6.37-3.81,9.44-9.39,9.44s-9.39-3.07-9.39-9.44Z"/><path class="cls-1" d="M84.43,4.59h5.53V37.6h-5.53V4.59Z"/><path class="cls-1" d="M94.38,26.11c0-6.97,5.11-12.09,12.37-12.09s12.27,5.11,12.27,12.09v1.95h-18.83c.74,3.35,3.3,5.11,6.56,5.11,2.46,0,4.28-.7,5.44-2.19h5.9c-1.72,4.37-5.9,7.21-11.34,7.21-7.25,0-12.37-5.11-12.37-12.09Zm18.78-2.46c-.88-3.07-3.39-4.6-6.42-4.6s-5.53,1.58-6.42,4.6h12.83Z"/><path class="cls-1" d="M135.86,7.19h5.95v24.92h15.9v5.49h-21.85V7.19Z"/><path class="cls-1" d="M161.11,7.98c0-2.14,1.53-3.72,3.67-3.72s3.67,1.58,3.67,3.72-1.53,3.67-3.67,3.67-3.67-1.53-3.67-3.67Zm.88,6.65h5.53v22.97h-5.53V14.63Z"/><path class="cls-1" d="M172.87,25.93V4.59h5.53v13.39c1.63-2.56,4.37-3.95,7.67-3.95,5.58,0,11.44,4,11.44,11.86,0,7.3-5.11,12.32-12.41,12.32s-12.23-4.83-12.23-12.27Zm19.06,.19c0-4.04-2.74-6.93-6.79-6.93s-6.74,2.88-6.74,6.93,2.7,6.93,6.74,6.93,6.79-2.88,6.79-6.93Z"/><path class="cls-1" d="M201.14,24.25c0-6.93,4.09-10.23,10.09-10.23s10.04,3.3,10.04,10.32v.14h-5.49v-.23c0-3.72-1.86-5.07-4.56-5.07s-4.56,1.35-4.56,5.07v13.34h-5.53v-13.34Z"/><path class="cls-1" d="M223.32,26.35c0-7.3,5.11-12.32,12.41-12.32s12.23,4.88,12.23,12.27v11.3h-5.07v-4.51c-1.39,3.39-4.51,5.11-8.14,5.11-5.58,0-11.44-4-11.44-11.86Zm19.11-.23c0-4.04-2.7-6.93-6.74-6.93s-6.79,2.88-6.79,6.93,2.74,6.93,6.79,6.93,6.74-2.88,6.74-6.93Z"/><path class="cls-1" d="M252.53,24.25c0-6.93,4.09-10.23,10.09-10.23s10.04,3.3,10.04,10.32v.14h-5.49v-.23c0-3.72-1.86-5.07-4.56-5.07s-4.56,1.35-4.56,5.07v13.34h-5.53v-13.34Z"/><path class="cls-1" d="M275.82,40.11h5.53c.93,2.14,2.74,3.12,5.53,3.12,3.77,0,5.9-1.81,5.9-6.28v-2.88c-1.39,2.51-3.81,3.86-6.83,3.86-5.3,0-10.32-3.44-10.32-11.62V14.63h5.53v11.67c0,4.37,2.32,6.46,5.81,6.46s5.81-2.19,5.81-6.46V14.63h5.53v22.18c0,8-5.07,11.2-11.44,11.2-5.35,0-9.76-2.46-11.07-7.9Z"/><path class="cls-1" d="M316.83,7.19h5.95v24.92h15.9v5.49h-21.85V7.19Z"/><path class="cls-1" d="M341.2,26.11c0-6.97,5.11-12.09,12.37-12.09s12.37,5.11,12.37,12.09-5.11,12.09-12.37,12.09-12.37-5.11-12.37-12.09Zm19.11,0c0-4.04-2.7-6.93-6.74-6.93s-6.79,2.88-6.79,6.93,2.74,6.93,6.79,6.93,6.74-2.88,6.74-6.93Z"/><path class="cls-1" d="M368.64,26.11c0-6.97,5.11-12.09,12.37-12.09,6.23,0,10.79,3.77,11.9,9.21h-5.58c-.98-2.46-3.3-4.04-6.32-4.04-4.04,0-6.79,2.88-6.79,6.93s2.74,6.93,6.79,6.93c3.02,0,5.35-1.58,6.32-4.04h5.58c-1.12,5.44-5.67,9.21-11.9,9.21-7.25,0-12.37-5.11-12.37-12.09Z"/><path class="cls-1" d="M395.6,26.35c0-7.3,5.11-12.32,12.41-12.32s12.23,4.88,12.23,12.27v11.3h-5.07v-4.51c-1.39,3.39-4.51,5.11-8.14,5.11-5.58,0-11.44-4-11.44-11.86Zm19.11-.23c0-4.04-2.7-6.93-6.74-6.93s-6.79,2.88-6.79,6.93,2.74,6.93,6.79,6.93,6.74-2.88,6.74-6.93Z"/><path class="cls-1" d="M424.81,28.76V6.49h5.53V14.63h11.86v5.02h-11.86v9.11c0,3.07,1.58,4.28,3.86,4.28s3.86-1.16,3.86-4.28v-.6h5.53v.6c0,6.37-3.81,9.44-9.39,9.44s-9.39-3.07-9.39-9.44Z"/><path class="cls-1" d="M446.2,26.11c0-6.97,5.11-12.09,12.37-12.09s12.37,5.11,12.37,12.09-5.11,12.09-12.37,12.09-12.37-5.11-12.37-12.09Zm19.11,0c0-4.04-2.7-6.93-6.74-6.93s-6.79,2.88-6.79,6.93,2.74,6.93,6.79,6.93,6.74-2.88,6.74-6.93Z"/><path class="cls-1" d="M474.56,24.25c0-6.93,4.09-10.23,10.09-10.23s10.04,3.3,10.04,10.32v.14h-5.49v-.23c0-3.72-1.86-5.07-4.56-5.07s-4.56,1.35-4.56,5.07v13.34h-5.53v-13.34Z"/></svg>