<?xml version="1.0" encoding="UTF-8"?><svg id="Layer_5" xmlns="http://www.w3.org/2000/svg" viewBox="0 0 663.1 67.4"><defs><style>.cls-1{fill:#231f20;}</style></defs><path class="cls-1" d="M1.78,9.27h7.94V42.5H30.92v7.32H1.78V9.27Z"/><path class="cls-1" d="M35.45,10.32c0-2.85,2.05-4.96,4.9-4.96s4.9,2.11,4.9,4.96-2.05,4.9-4.9,4.9-4.9-2.05-4.9-4.9Zm1.18,8.87h7.38v30.63h-7.38V19.19Z"/><path class="cls-1" d="M51.13,38.03V8.34h7.38v10.85h15.81v6.7h-15.81v12.15c0,4.09,2.11,5.7,5.15,5.7s5.15-1.55,5.15-5.7v-.81h7.38v.81c0,8.49-5.08,12.58-12.52,12.58s-12.52-4.09-12.52-12.58Z"/><path class="cls-1" d="M80.89,38.03V8.34h7.38v10.85h15.81v6.7h-15.81v12.15c0,4.09,2.11,5.7,5.15,5.7s5.15-1.55,5.15-5.7v-.81h7.38v.81c0,8.49-5.08,12.58-12.52,12.58s-12.52-4.09-12.52-12.58Z"/><path class="cls-1" d="M111.71,5.8h7.38V49.81h-7.38V5.8Z"/><path class="cls-1" d="M124.98,34.5c0-9.3,6.82-16.12,16.49-16.12s16.37,6.82,16.37,16.12v2.6h-25.11c.99,4.46,4.4,6.82,8.74,6.82,3.29,0,5.7-.93,7.25-2.91h7.87c-2.29,5.83-7.87,9.61-15.13,9.61-9.67,0-16.49-6.82-16.49-16.12Zm25.05-3.29c-1.18-4.09-4.53-6.14-8.56-6.14s-7.38,2.11-8.56,6.14h17.11Z"/><path class="cls-1" d="M180.28,9.27h7.94V42.5h21.2v7.32h-29.14V9.27Z"/><path class="cls-1" d="M213.94,10.32c0-2.85,2.05-4.96,4.9-4.96s4.9,2.11,4.9,4.96-2.05,4.9-4.9,4.9-4.9-2.05-4.9-4.9Zm1.18,8.87h7.38v30.63h-7.38V19.19Z"/><path class="cls-1" d="M229.63,34.25V5.8h7.38V23.65c2.17-3.41,5.83-5.27,10.23-5.27,7.44,0,15.25,5.33,15.25,15.81,0,9.73-6.82,16.43-16.55,16.43s-16.3-6.45-16.3-16.37Zm25.42,.25c0-5.39-3.66-9.24-9.05-9.24s-8.99,3.84-8.99,9.24,3.6,9.24,8.99,9.24,9.05-3.84,9.05-9.24Z"/><path class="cls-1" d="M267.32,32.02c0-9.24,5.46-13.64,13.45-13.64s13.39,4.4,13.39,13.76v.19h-7.32v-.31c0-4.96-2.48-6.76-6.08-6.76s-6.08,1.8-6.08,6.76v17.79h-7.38v-17.79Z"/><path class="cls-1" d="M296.9,34.81c0-9.73,6.82-16.43,16.55-16.43s16.31,6.51,16.31,16.37v15.07h-6.76v-6.01c-1.86,4.53-6.01,6.82-10.85,6.82-7.44,0-15.25-5.33-15.25-15.81Zm25.48-.31c0-5.39-3.6-9.24-8.99-9.24s-9.05,3.84-9.05,9.24,3.66,9.24,9.05,9.24,8.99-3.84,8.99-9.24Z"/><path class="cls-1" d="M335.83,32.02c0-9.24,5.46-13.64,13.45-13.64s13.39,4.4,13.39,13.76v.19h-7.32v-.31c0-4.96-2.48-6.76-6.08-6.76s-6.08,1.8-6.08,6.76v17.79h-7.38v-17.79Z"/><path class="cls-1" d="M366.89,53.16h7.38c1.24,2.85,3.66,4.15,7.38,4.15,5.02,0,7.87-2.42,7.87-8.37v-3.84c-1.86,3.35-5.08,5.15-9.11,5.15-7.07,0-13.76-4.59-13.76-15.5v-15.56h7.38v15.56c0,5.83,3.1,8.62,7.75,8.62s7.75-2.91,7.75-8.62v-15.56h7.38v29.57c0,10.66-6.76,14.94-15.25,14.94-7.13,0-13.02-3.29-14.75-10.54Z"/><path class="cls-1" d="M421.58,9.27h7.94V42.5h21.2v7.32h-29.14V9.27Z"/><path class="cls-1" d="M454.07,34.5c0-9.3,6.82-16.12,16.49-16.12s16.49,6.82,16.49,16.12-6.82,16.12-16.49,16.12-16.49-6.82-16.49-16.12Zm25.48,0c0-5.39-3.6-9.24-8.99-9.24s-9.05,3.84-9.05,9.24,3.66,9.24,9.05,9.24,8.99-3.84,8.99-9.24Z"/><path class="cls-1" d="M490.64,34.5c0-9.3,6.82-16.12,16.49-16.12,8.31,0,14.38,5.02,15.87,12.28h-7.44c-1.3-3.29-4.4-5.39-8.43-5.39-5.39,0-9.05,3.84-9.05,9.24s3.66,9.24,9.05,9.24c4.03,0,7.13-2.11,8.43-5.39h7.44c-1.49,7.25-7.56,12.28-15.87,12.28-9.67,0-16.49-6.82-16.49-16.12Z"/><path class="cls-1" d="M526.6,34.81c0-9.73,6.82-16.43,16.55-16.43s16.31,6.51,16.31,16.37v15.07h-6.76v-6.01c-1.86,4.53-6.01,6.82-10.85,6.82-7.44,0-15.25-5.33-15.25-15.81Zm25.48-.31c0-5.39-3.6-9.24-8.99-9.24s-9.05,3.84-9.05,9.24,3.66,9.24,9.05,9.24,8.99-3.84,8.99-9.24Z"/><path class="cls-1" d="M565.54,38.03V8.34h7.38v10.85h15.81v6.7h-15.81v12.15c0,4.09,2.11,5.7,5.15,5.7s5.15-1.55,5.15-5.7v-.81h7.38v.81c0,8.49-5.08,12.58-12.52,12.58s-12.52-4.09-12.52-12.58Z"/><path class="cls-1" d="M594.06,34.5c0-9.3,6.82-16.12,16.49-16.12s16.49,6.82,16.49,16.12-6.82,16.12-16.49,16.12-16.49-6.82-16.49-16.12Zm25.48,0c0-5.39-3.6-9.24-8.99-9.24s-9.05,3.84-9.05,9.24,3.66,9.24,9.05,9.24,8.99-3.84,8.99-9.24Z"/><path class="cls-1" d="M631.88,32.02c0-9.24,5.46-13.64,13.45-13.64s13.39,4.4,13.39,13.76v.19h-7.32v-.31c0-4.96-2.48-6.76-6.08-6.76s-6.08,1.8-6.08,6.76v17.79h-7.38v-17.79Z"/></svg>