<?xml version="1.0" encoding="UTF-8"?><svg id="Layer_18" xmlns="http://www.w3.org/2000/svg" viewBox="0 0 793.87 77.21"><defs><style>.cls-1{fill:#231f20;}</style></defs><path class="cls-1" d="M4.01,9.24H13.48V48.9h25.31v8.73H4.01V9.24Z"/><path class="cls-1" d="M44.19,10.5c0-3.4,2.44-5.92,5.85-5.92s5.85,2.52,5.85,5.92-2.44,5.85-5.85,5.85-5.85-2.44-5.85-5.85Zm1.41,10.58h8.81V57.64h-8.81V21.08Z"/><path class="cls-1" d="M62.91,43.58V8.13h8.81v12.95h18.87v7.99h-18.87v14.51c0,4.88,2.52,6.81,6.14,6.81s6.14-1.85,6.14-6.81v-.96h8.81v.96c0,10.14-6.07,15.02-14.95,15.02s-14.95-4.88-14.95-15.02Z"/><path class="cls-1" d="M98.43,43.58V8.13h8.81v12.95h18.87v7.99h-18.87v14.51c0,4.88,2.52,6.81,6.14,6.81s6.14-1.85,6.14-6.81v-.96h8.81v.96c0,10.14-6.07,15.02-14.95,15.02s-14.95-4.88-14.95-15.02Z"/><path class="cls-1" d="M135.21,5.09h8.81V57.64h-8.81V5.09Z"/><path class="cls-1" d="M151.05,39.36c0-11.1,8.14-19.24,19.69-19.24s19.54,8.14,19.54,19.24v3.11h-29.97c1.18,5.33,5.25,8.14,10.43,8.14,3.92,0,6.81-1.11,8.66-3.48h9.4c-2.74,6.96-9.4,11.47-18.06,11.47-11.54,0-19.69-8.14-19.69-19.24Zm29.9-3.92c-1.41-4.88-5.4-7.33-10.21-7.33s-8.81,2.52-10.21,7.33h20.43Z"/><path class="cls-1" d="M217.05,9.24h9.47V48.9h25.31v8.73h-34.78V9.24Z"/><path class="cls-1" d="M257.23,10.5c0-3.4,2.44-5.92,5.85-5.92s5.85,2.52,5.85,5.92-2.44,5.85-5.85,5.85-5.85-2.44-5.85-5.85Zm1.41,10.58h8.81V57.64h-8.81V21.08Z"/><path class="cls-1" d="M275.96,39.06V5.09h8.81V26.41c2.59-4.07,6.96-6.29,12.21-6.29,8.88,0,18.21,6.36,18.21,18.87,0,11.62-8.14,19.61-19.76,19.61s-19.46-7.7-19.46-19.54Zm30.34,.3c0-6.44-4.37-11.03-10.8-11.03s-10.73,4.59-10.73,11.03,4.29,11.03,10.73,11.03,10.8-4.59,10.8-11.03Z"/><path class="cls-1" d="M320.95,36.4c0-11.03,6.51-16.28,16.06-16.28s15.99,5.25,15.99,16.43v.22h-8.73v-.37c0-5.92-2.96-8.07-7.25-8.07s-7.25,2.15-7.25,8.07v21.24h-8.81v-21.24Z"/><path class="cls-1" d="M356.25,39.73c0-11.62,8.14-19.61,19.76-19.61s19.46,7.77,19.46,19.54v17.98h-8.07v-7.18c-2.22,5.4-7.18,8.14-12.95,8.14-8.88,0-18.21-6.36-18.21-18.87Zm30.42-.37c0-6.44-4.29-11.03-10.73-11.03s-10.8,4.59-10.8,11.03,4.37,11.03,10.8,11.03,10.73-4.59,10.73-11.03Z"/><path class="cls-1" d="M402.72,36.4c0-11.03,6.51-16.28,16.06-16.28s15.99,5.25,15.99,16.43v.22h-8.73v-.37c0-5.92-2.96-8.07-7.25-8.07s-7.25,2.15-7.25,8.07v21.24h-8.81v-21.24Z"/><path class="cls-1" d="M439.79,61.63h8.81c1.48,3.4,4.37,4.96,8.81,4.96,6,0,9.4-2.89,9.4-9.99v-4.59c-2.22,4-6.07,6.14-10.88,6.14-8.44,0-16.43-5.48-16.43-18.5V21.08h8.81v18.58c0,6.96,3.7,10.29,9.25,10.29s9.25-3.48,9.25-10.29V21.08h8.81V56.38c0,12.73-8.07,17.83-18.21,17.83-8.51,0-15.54-3.92-17.61-12.58Z"/><path class="cls-1" d="M505.06,9.24h9.47V48.9h25.31v8.73h-34.78V9.24Z"/><path class="cls-1" d="M543.83,39.36c0-11.1,8.14-19.24,19.68-19.24s19.69,8.14,19.69,19.24-8.14,19.24-19.69,19.24-19.68-8.14-19.68-19.24Zm30.42,0c0-6.44-4.29-11.03-10.73-11.03s-10.8,4.59-10.8,11.03,4.37,11.03,10.8,11.03,10.73-4.59,10.73-11.03Z"/><path class="cls-1" d="M587.49,39.36c0-11.1,8.14-19.24,19.68-19.24,9.92,0,17.17,5.99,18.95,14.65h-8.88c-1.55-3.92-5.25-6.44-10.07-6.44-6.44,0-10.8,4.59-10.8,11.03s4.37,11.03,10.8,11.03c4.81,0,8.51-2.52,10.07-6.44h8.88c-1.78,8.66-9.03,14.65-18.95,14.65-11.54,0-19.68-8.14-19.68-19.24Z"/><path class="cls-1" d="M630.41,39.73c0-11.62,8.14-19.61,19.76-19.61s19.46,7.77,19.46,19.54v17.98h-8.07v-7.18c-2.22,5.4-7.18,8.14-12.95,8.14-8.88,0-18.21-6.36-18.21-18.87Zm30.42-.37c0-6.44-4.29-11.03-10.73-11.03s-10.8,4.59-10.8,11.03,4.37,11.03,10.8,11.03,10.73-4.59,10.73-11.03Z"/><path class="cls-1" d="M676.88,43.58V8.13h8.81v12.95h18.87v7.99h-18.87v14.51c0,4.88,2.52,6.81,6.14,6.81s6.14-1.85,6.14-6.81v-.96h8.81v.96c0,10.14-6.07,15.02-14.95,15.02s-14.95-4.88-14.95-15.02Z"/><path class="cls-1" d="M710.92,39.36c0-11.1,8.14-19.24,19.68-19.24s19.69,8.14,19.69,19.24-8.14,19.24-19.69,19.24-19.68-8.14-19.68-19.24Zm30.42,0c0-6.44-4.29-11.03-10.73-11.03s-10.8,4.59-10.8,11.03,4.37,11.03,10.8,11.03,10.73-4.59,10.73-11.03Z"/><path class="cls-1" d="M756.06,36.4c0-11.03,6.51-16.28,16.06-16.28s15.99,5.25,15.99,16.43v.22h-8.73v-.37c0-5.92-2.96-8.07-7.25-8.07s-7.25,2.15-7.25,8.07v21.24h-8.81v-21.24Z"/></svg>