<?xml version="1.0" encoding="UTF-8"?><svg id="Layer_3" xmlns="http://www.w3.org/2000/svg" viewBox="0 0 373.41 35.44"><defs><style>.cls-1{fill:#231f20;}</style></defs><path class="cls-1" d="M1.99,3.16H6.45V21.86h11.93v4.12H1.99V3.16Z"/><path class="cls-1" d="M20.93,3.76c0-1.6,1.15-2.79,2.76-2.79s2.75,1.19,2.75,2.79-1.15,2.76-2.75,2.76-2.76-1.15-2.76-2.76Zm.66,4.99h4.15V25.98h-4.15V8.74Z"/><path class="cls-1" d="M29.75,19.35V2.64h4.15v6.1h8.89v3.77h-8.89v6.84c0,2.3,1.19,3.21,2.89,3.21s2.9-.87,2.9-3.21v-.45h4.15v.45c0,4.78-2.86,7.08-7.05,7.08s-7.05-2.3-7.05-7.08Z"/><path class="cls-1" d="M46.49,19.35V2.64h4.15v6.1h8.89v3.77h-8.89v6.84c0,2.3,1.19,3.21,2.89,3.21s2.9-.87,2.9-3.21v-.45h4.15v.45c0,4.78-2.86,7.08-7.05,7.08s-7.05-2.3-7.05-7.08Z"/><path class="cls-1" d="M63.82,1.21h4.15V25.98h-4.15V1.21Z"/><path class="cls-1" d="M71.28,17.36c0-5.23,3.84-9.07,9.28-9.07s9.21,3.84,9.21,9.07v1.47h-14.13c.56,2.51,2.48,3.84,4.92,3.84,1.85,0,3.21-.52,4.08-1.64h4.43c-1.29,3.28-4.43,5.41-8.51,5.41-5.44,0-9.28-3.84-9.28-9.07Zm14.09-1.85c-.66-2.3-2.55-3.45-4.81-3.45s-4.15,1.19-4.81,3.45h9.63Z"/><path class="cls-1" d="M102.39,3.16h4.46V21.86h11.93v4.12h-16.39V3.16Z"/><path class="cls-1" d="M121.33,3.76c0-1.6,1.15-2.79,2.76-2.79s2.75,1.19,2.75,2.79-1.15,2.76-2.75,2.76-2.76-1.15-2.76-2.76Zm.66,4.99h4.15V25.98h-4.15V8.74Z"/><path class="cls-1" d="M130.15,17.22V1.21h4.15V11.26c1.22-1.92,3.28-2.96,5.75-2.96,4.19,0,8.58,3,8.58,8.89,0,5.48-3.84,9.24-9.31,9.24s-9.17-3.63-9.17-9.21Zm14.3,.14c0-3.03-2.06-5.2-5.09-5.2s-5.06,2.16-5.06,5.2,2.02,5.2,5.06,5.2,5.09-2.16,5.09-5.2Z"/><path class="cls-1" d="M151.36,15.97c0-5.2,3.07-7.67,7.57-7.67s7.53,2.48,7.53,7.74v.1h-4.12v-.17c0-2.79-1.4-3.8-3.42-3.8s-3.42,1.01-3.42,3.8v10.01h-4.15V15.97Z"/><path class="cls-1" d="M167.99,17.53c0-5.48,3.84-9.24,9.31-9.24s9.17,3.66,9.17,9.21v8.48h-3.8v-3.38c-1.05,2.55-3.38,3.84-6.1,3.84-4.19,0-8.58-3-8.58-8.89Zm14.34-.17c0-3.03-2.02-5.2-5.06-5.2s-5.09,2.16-5.09,5.2,2.06,5.2,5.09,5.2,5.06-2.16,5.06-5.2Z"/><path class="cls-1" d="M189.89,15.97c0-5.2,3.07-7.67,7.57-7.67s7.53,2.48,7.53,7.74v.1h-4.12v-.17c0-2.79-1.4-3.8-3.42-3.8s-3.42,1.01-3.42,3.8v10.01h-4.15V15.97Z"/><path class="cls-1" d="M207.36,27.86h4.15c.7,1.6,2.06,2.34,4.15,2.34,2.83,0,4.43-1.36,4.43-4.71v-2.16c-1.05,1.88-2.86,2.9-5.13,2.9-3.98,0-7.74-2.58-7.74-8.72V8.74h4.15v8.75c0,3.28,1.74,4.85,4.36,4.85s4.36-1.64,4.36-4.85V8.74h4.15V25.38c0,6-3.8,8.41-8.58,8.41-4.01,0-7.33-1.85-8.3-5.93Z"/><path class="cls-1" d="M238.12,3.16h4.46V21.86h11.93v4.12h-16.39V3.16Z"/><path class="cls-1" d="M256.4,17.36c0-5.23,3.84-9.07,9.28-9.07s9.28,3.84,9.28,9.07-3.84,9.07-9.28,9.07-9.28-3.84-9.28-9.07Zm14.34,0c0-3.03-2.02-5.2-5.06-5.2s-5.09,2.16-5.09,5.2,2.06,5.2,5.09,5.2,5.06-2.16,5.06-5.2Z"/><path class="cls-1" d="M276.97,17.36c0-5.23,3.84-9.07,9.28-9.07,4.67,0,8.09,2.83,8.93,6.91h-4.19c-.73-1.85-2.48-3.04-4.74-3.04-3.03,0-5.09,2.16-5.09,5.2s2.06,5.2,5.09,5.2c2.27,0,4.01-1.19,4.74-3.04h4.19c-.84,4.08-4.26,6.91-8.93,6.91-5.44,0-9.28-3.84-9.28-9.07Z"/><path class="cls-1" d="M297.2,17.53c0-5.48,3.84-9.24,9.31-9.24s9.17,3.66,9.17,9.21v8.48h-3.8v-3.38c-1.05,2.55-3.38,3.84-6.1,3.84-4.19,0-8.58-3-8.58-8.89Zm14.34-.17c0-3.03-2.02-5.2-5.06-5.2s-5.09,2.16-5.09,5.2,2.06,5.2,5.09,5.2,5.06-2.16,5.06-5.2Z"/><path class="cls-1" d="M319.1,19.35V2.64h4.15v6.1h8.89v3.77h-8.89v6.84c0,2.3,1.19,3.21,2.89,3.21s2.9-.87,2.9-3.21v-.45h4.15v.45c0,4.78-2.86,7.08-7.05,7.08s-7.05-2.3-7.05-7.08Z"/><path class="cls-1" d="M335.14,17.36c0-5.23,3.84-9.07,9.28-9.07s9.28,3.84,9.28,9.07-3.84,9.07-9.28,9.07-9.28-3.84-9.28-9.07Zm14.34,0c0-3.03-2.02-5.2-5.06-5.2s-5.09,2.16-5.09,5.2,2.06,5.2,5.09,5.2,5.06-2.16,5.06-5.2Z"/><path class="cls-1" d="M356.42,15.97c0-5.2,3.07-7.67,7.57-7.67s7.53,2.48,7.53,7.74v.1h-4.12v-.17c0-2.79-1.4-3.8-3.42-3.8s-3.42,1.01-3.42,3.8v10.01h-4.15V15.97Z"/></svg>