<?xml version="1.0" encoding="UTF-8"?><svg id="Layer_2" xmlns="http://www.w3.org/2000/svg" viewBox="0 0 283.92 27.26"><defs><style>.cls-1{fill:#cdccc0;}</style></defs><path class="cls-1" d="M3.68,2.67h3.35v14.02H15.97v3.09H3.68V2.67Z"/><path class="cls-1" d="M17.88,3.11c0-1.2,.86-2.09,2.07-2.09s2.07,.89,2.07,2.09-.86,2.07-2.07,2.07-2.07-.86-2.07-2.07Zm.5,3.74h3.11v12.92h-3.11V6.85Z"/><path class="cls-1" d="M24.5,14.8V2.27h3.11V6.85h6.67v2.82h-6.67v5.13c0,1.73,.89,2.41,2.17,2.41s2.17-.65,2.17-2.41v-.34h3.11v.34c0,3.58-2.14,5.31-5.28,5.31s-5.28-1.73-5.28-5.31Z"/><path class="cls-1" d="M37.06,14.8V2.27h3.11V6.85h6.67v2.82h-6.67v5.13c0,1.73,.89,2.41,2.17,2.41s2.17-.65,2.17-2.41v-.34h3.11v.34c0,3.58-2.14,5.31-5.28,5.31s-5.28-1.73-5.28-5.31Z"/><path class="cls-1" d="M50.06,1.2h3.11V19.77h-3.11V1.2Z"/><path class="cls-1" d="M55.65,13.31c0-3.92,2.88-6.8,6.96-6.8s6.9,2.88,6.9,6.8v1.1h-10.59c.42,1.88,1.86,2.88,3.69,2.88,1.39,0,2.41-.39,3.06-1.23h3.32c-.97,2.46-3.32,4.05-6.38,4.05-4.08,0-6.96-2.88-6.96-6.8Zm10.57-1.39c-.5-1.73-1.91-2.59-3.61-2.59s-3.11,.89-3.61,2.59h7.22Z"/><path class="cls-1" d="M78.98,2.67h3.35v14.02h8.94v3.09h-12.29V2.67Z"/><path class="cls-1" d="M93.19,3.11c0-1.2,.86-2.09,2.07-2.09s2.07,.89,2.07,2.09-.86,2.07-2.07,2.07-2.07-.86-2.07-2.07Zm.5,3.74h3.11v12.92h-3.11V6.85Z"/><path class="cls-1" d="M99.8,13.21V1.2h3.11v7.53c.92-1.44,2.46-2.22,4.31-2.22,3.14,0,6.43,2.25,6.43,6.67,0,4.11-2.88,6.93-6.98,6.93s-6.88-2.72-6.88-6.9Zm10.72,.1c0-2.28-1.54-3.9-3.82-3.9s-3.79,1.62-3.79,3.9,1.52,3.9,3.79,3.9,3.82-1.62,3.82-3.9Z"/><path class="cls-1" d="M115.71,12.27c0-3.9,2.3-5.75,5.68-5.75s5.65,1.86,5.65,5.81v.08h-3.09v-.13c0-2.09-1.05-2.85-2.56-2.85s-2.56,.76-2.56,2.85v7.51h-3.11v-7.51Z"/><path class="cls-1" d="M128.18,13.44c0-4.11,2.88-6.93,6.98-6.93s6.88,2.75,6.88,6.9v6.36h-2.85v-2.54c-.78,1.91-2.54,2.88-4.58,2.88-3.14,0-6.43-2.25-6.43-6.67Zm10.75-.13c0-2.28-1.52-3.9-3.79-3.9s-3.82,1.62-3.82,3.9,1.54,3.9,3.82,3.9,3.79-1.62,3.79-3.9Z"/><path class="cls-1" d="M144.61,12.27c0-3.9,2.3-5.75,5.68-5.75s5.65,1.86,5.65,5.81v.08h-3.09v-.13c0-2.09-1.05-2.85-2.56-2.85s-2.56,.76-2.56,2.85v7.51h-3.11v-7.51Z"/><path class="cls-1" d="M157.71,21.18h3.11c.52,1.2,1.54,1.75,3.11,1.75,2.12,0,3.32-1.02,3.32-3.53v-1.62c-.78,1.41-2.14,2.17-3.84,2.17-2.98,0-5.81-1.93-5.81-6.54V6.85h3.11v6.56c0,2.46,1.31,3.64,3.27,3.64s3.27-1.23,3.27-3.64V6.85h3.11v12.48c0,4.5-2.85,6.3-6.43,6.3-3.01,0-5.49-1.39-6.22-4.45Z"/><path class="cls-1" d="M180.78,2.67h3.35v14.02h8.94v3.09h-12.29V2.67Z"/><path class="cls-1" d="M194.49,13.31c0-3.92,2.88-6.8,6.96-6.8s6.96,2.88,6.96,6.8-2.88,6.8-6.96,6.8-6.96-2.88-6.96-6.8Zm10.75,0c0-2.28-1.52-3.9-3.79-3.9s-3.82,1.62-3.82,3.9,1.54,3.9,3.82,3.9,3.79-1.62,3.79-3.9Z"/><path class="cls-1" d="M209.92,13.31c0-3.92,2.88-6.8,6.96-6.8,3.5,0,6.07,2.12,6.7,5.18h-3.14c-.55-1.39-1.86-2.28-3.56-2.28-2.28,0-3.82,1.62-3.82,3.9s1.54,3.9,3.82,3.9c1.7,0,3.01-.89,3.56-2.28h3.14c-.63,3.06-3.19,5.18-6.7,5.18-4.08,0-6.96-2.88-6.96-6.8Z"/><path class="cls-1" d="M225.09,13.44c0-4.11,2.88-6.93,6.98-6.93s6.88,2.75,6.88,6.9v6.36h-2.85v-2.54c-.78,1.91-2.54,2.88-4.58,2.88-3.14,0-6.43-2.25-6.43-6.67Zm10.75-.13c0-2.28-1.52-3.9-3.79-3.9s-3.82,1.62-3.82,3.9,1.54,3.9,3.82,3.9,3.79-1.62,3.79-3.9Z"/><path class="cls-1" d="M241.52,14.8V2.27h3.11V6.85h6.67v2.82h-6.67v5.13c0,1.73,.89,2.41,2.17,2.41s2.17-.65,2.17-2.41v-.34h3.11v.34c0,3.58-2.14,5.31-5.28,5.31s-5.28-1.73-5.28-5.31Z"/><path class="cls-1" d="M253.55,13.31c0-3.92,2.88-6.8,6.96-6.8s6.96,2.88,6.96,6.8-2.88,6.8-6.96,6.8-6.96-2.88-6.96-6.8Zm10.75,0c0-2.28-1.52-3.9-3.79-3.9s-3.82,1.62-3.82,3.9,1.54,3.9,3.82,3.9,3.79-1.62,3.79-3.9Z"/><path class="cls-1" d="M269.5,12.27c0-3.9,2.3-5.75,5.68-5.75s5.65,1.86,5.65,5.81v.08h-3.09v-.13c0-2.09-1.05-2.85-2.56-2.85s-2.56,.76-2.56,2.85v7.51h-3.11v-7.51Z"/></svg>