<?xml version="1.0" encoding="utf-8"?>
<!-- Generator: Adobe Illustrator 27.0.0, SVG Export Plug-In . SVG Version: 6.00 Build 0)  -->
<svg version="1.1" id="Layer_2_00000143583425434593254230000000133128651610929315_"
	 xmlns="http://www.w3.org/2000/svg" xmlns:xlink="http://www.w3.org/1999/xlink" x="0px" y="0px" viewBox="0 0 283.9 27.3"
	 style="enable-background:new 0 0 283.9 27.3;" xml:space="preserve">
<style type="text/css">
	.st0{fill:#835A4E;}
</style>
<path class="st0" d="M3.7,2.7H7v14H16v3.1H3.7V2.7z"/>
<path class="st0" d="M17.9,3.1c0-1.2,0.9-2.1,2.1-2.1S22,1.9,22,3.1s-0.9,2.1-2.1,2.1S17.9,4.3,17.9,3.1z M18.4,6.8h3.1v12.9h-3.1
	V6.8z"/>
<path class="st0" d="M24.5,14.8V2.3h3.1v4.6h6.7v2.8h-6.7v5.1c0,1.7,0.9,2.4,2.2,2.4s2.2-0.6,2.2-2.4v-0.3h3.1v0.3
	c0,3.6-2.1,5.3-5.3,5.3S24.5,18.4,24.5,14.8z"/>
<path class="st0" d="M37.1,14.8V2.3h3.1v4.6h6.7v2.8h-6.7v5.1c0,1.7,0.9,2.4,2.2,2.4s2.2-0.6,2.2-2.4v-0.3h3.1v0.3
	c0,3.6-2.1,5.3-5.3,5.3S37.1,18.4,37.1,14.8z"/>
<path class="st0" d="M50.1,1.2h3.1v18.6h-3.1V1.2z"/>
<path class="st0" d="M55.7,13.3c0-3.9,2.9-6.8,7-6.8s6.9,2.9,6.9,6.8v1.1H58.9c0.4,1.9,1.9,2.9,3.7,2.9c1.4,0,2.4-0.4,3.1-1.2H69
	c-1,2.5-3.3,4-6.4,4C58.5,20.1,55.6,17.2,55.7,13.3z M66.2,11.9c-0.5-1.7-1.9-2.6-3.6-2.6s-3.1,0.9-3.6,2.6H66.2z"/>
<path class="st0" d="M79,2.7h3.3v14h8.9v3.1H79V2.7z"/>
<path class="st0" d="M93.2,3.1c0-1.2,0.9-2.1,2.1-2.1s2.1,0.9,2.1,2.1s-0.9,2.1-2.1,2.1S93.2,4.3,93.2,3.1z M93.7,6.8h3.1v12.9h-3.1
	V6.8z"/>
<path class="st0" d="M99.8,13.2v-12h3.1v7.5c0.9-1.4,2.5-2.2,4.3-2.2c3.1,0,6.4,2.2,6.4,6.7c0,4.1-2.9,6.9-7,6.9
	S99.8,17.4,99.8,13.2L99.8,13.2z M110.5,13.3c0-2.3-1.5-3.9-3.8-3.9s-3.8,1.6-3.8,3.9s1.5,3.9,3.8,3.9S110.5,15.6,110.5,13.3z"/>
<path class="st0" d="M115.7,12.3c0-3.9,2.3-5.8,5.7-5.8s5.7,1.9,5.7,5.8v0.1H124v-0.1c0-2.1-1.1-2.8-2.6-2.8s-2.6,0.8-2.6,2.9v7.5
	h-3.1L115.7,12.3L115.7,12.3z"/>
<path class="st0" d="M128.2,13.4c0-4.1,2.9-6.9,7-6.9s6.9,2.8,6.9,6.9v6.4h-2.9v-2.5c-0.8,1.9-2.5,2.9-4.6,2.9
	C131.5,20.1,128.2,17.9,128.2,13.4z M138.9,13.3c0-2.3-1.5-3.9-3.8-3.9s-3.8,1.6-3.8,3.9s1.5,3.9,3.8,3.9S138.9,15.6,138.9,13.3z"/>
<path class="st0" d="M144.6,12.3c0-3.9,2.3-5.8,5.7-5.8s5.6,1.9,5.6,5.8v0.1h-3.1v-0.1c0-2.1-1.1-2.8-2.6-2.8s-2.6,0.8-2.6,2.9v7.5
	h-3.1L144.6,12.3L144.6,12.3z"/>
<path class="st0" d="M157.7,21.2h3.1c0.5,1.2,1.5,1.8,3.1,1.8c2.1,0,3.3-1,3.3-3.5v-1.6c-0.8,1.4-2.1,2.2-3.8,2.2
	c-3,0-5.8-1.9-5.8-6.5V6.8h3.1v6.6c0,2.5,1.3,3.6,3.3,3.6s3.3-1.2,3.3-3.6V6.8h3.1v12.5c0,4.5-2.9,6.3-6.4,6.3
	C160.9,25.6,158.4,24.2,157.7,21.2L157.7,21.2z"/>
<path class="st0" d="M180.8,2.7h3.4v14h8.9v3.1h-12.3L180.8,2.7L180.8,2.7z"/>
<path class="st0" d="M194.5,13.3c0-3.9,2.9-6.8,7-6.8s7,2.9,7,6.8s-2.9,6.8-7,6.8S194.5,17.2,194.5,13.3z M205.2,13.3
	c0-2.3-1.5-3.9-3.8-3.9s-3.8,1.6-3.8,3.9s1.5,3.9,3.8,3.9S205.2,15.6,205.2,13.3z"/>
<path class="st0" d="M209.9,13.3c0-3.9,2.9-6.8,7-6.8c3.5,0,6.1,2.1,6.7,5.2h-3.1c-0.6-1.4-1.9-2.3-3.6-2.3c-2.3,0-3.8,1.6-3.8,3.9
	s1.5,3.9,3.8,3.9c1.7,0,3-0.9,3.6-2.3h3.1c-0.6,3.1-3.2,5.2-6.7,5.2C212.8,20.1,209.9,17.2,209.9,13.3z"/>
<path class="st0" d="M225.1,13.4c0-4.1,2.9-6.9,7-6.9s6.9,2.8,6.9,6.9v6.4h-2.9v-2.5c-0.8,1.9-2.5,2.9-4.6,2.9
	C228.4,20.1,225.1,17.9,225.1,13.4z M235.8,13.3c0-2.3-1.5-3.9-3.8-3.9s-3.8,1.6-3.8,3.9s1.5,3.9,3.8,3.9S235.8,15.6,235.8,13.3z"/>
<path class="st0" d="M241.5,14.8V2.3h3.1v4.6h6.7v2.8h-6.7v5.1c0,1.7,0.9,2.4,2.2,2.4s2.2-0.6,2.2-2.4v-0.3h3.1v0.3
	c0,3.6-2.1,5.3-5.3,5.3S241.5,18.4,241.5,14.8z"/>
<path class="st0" d="M253.6,13.3c0-3.9,2.9-6.8,7-6.8s7,2.9,7,6.8s-2.9,6.8-7,6.8S253.6,17.2,253.6,13.3z M264.3,13.3
	c0-2.3-1.5-3.9-3.8-3.9s-3.8,1.6-3.8,3.9s1.5,3.9,3.8,3.9S264.3,15.6,264.3,13.3z"/>
<path class="st0" d="M269.5,12.3c0-3.9,2.3-5.8,5.7-5.8s5.6,1.9,5.6,5.8v0.1h-3.1v-0.1c0-2.1-1-2.8-2.6-2.8s-2.6,0.8-2.6,2.9v7.5
	h-3.1L269.5,12.3L269.5,12.3z"/>
</svg>
