<?xml version="1.0" encoding="UTF-8"?><svg id="Layer_19" xmlns="http://www.w3.org/2000/svg" viewBox="0 0 187.97 245.3"><defs><style>.cls-1{fill:#010101;}.cls-2{fill:#fff;}.cls-3{fill:#93a5ab;}.cls-4{fill:#231f20;}.cls-5{fill:#50573f;}</style></defs><g><g><rect class="cls-5" x="6.3" y="120.01" width="175.32" height="83.07"/><path class="cls-1" d="M184.62,206.07H3.3V117.01H184.62v89.07Zm-175.32-6H178.62V123.01H9.3v77.07Z"/></g><g><rect class="cls-3" x="6.37" y="33.51" width="175.3" height="85.34"/><path class="cls-1" d="M184.67,121.85H3.37V30.51H184.67V121.85ZM9.37,115.85H178.67V36.51H9.37V115.85Z"/></g><g><rect class="cls-2" x="24.78" y="46.44" width="75.86" height="138.78"/><rect class="cls-2" x="120" y="44.39" width="35.34" height="138.51" transform="translate(-25.82 41.95) rotate(-15.86)"/><path d="M103.95,75.43c0,.87,0,1.75,0,2.62,0,34.88,0,69.76-.02,104.64,0,.74,.04,1.49-.05,2.22-.21,1.69-1.23,2.63-2.95,2.77-.6,.05-1.21,.02-1.82,.02-32.53,0-41.61,0-74.14,0-.67,0-1.35,.03-2.02-.03-1.68-.16-2.67-1.19-2.81-2.89-.04-.54-.01-1.08-.01-1.62,0-38.18-.02-76.37-.02-114.55,0-7.62,0-15.25,.05-22.87,0-.9,.17-1.95,.67-2.65,.44-.62,1.41-.93,2.21-1.19,.55-.18,1.2-.05,1.81-.05,32.6,0,41.75,0,74.35,0,.27,0,.54,0,.81,0,2.81,.03,3.77,.93,3.94,3.69,.02,.33,.04,.66,.07,1.17,.59-.1,1.1-.14,1.58-.27,14.01-3.74,16.98-4.73,30.98-8.47,.46-.12,.91-.26,1.37-.34,1.88-.35,3.15,.36,3.7,2.23,.81,2.71,1.51,5.46,2.25,8.19,9.29,34.63,18.58,69.26,27.87,103.89,1.94,7.23,3.86,14.46,5.78,21.69,.16,.59,.34,1.18,.39,1.77,.12,1.6-.81,2.69-2.74,3.22-3.77,1.03,3.48-.73-.3,.28-11.98,3.21-23.97,6.42-35.96,9.61-.58,.16-1.18,.31-1.78,.34-1.28,.07-2.21-.55-2.74-1.7-.25-.54-.37-1.15-.53-1.74-9.68-36.06-19.37-72.12-29.05-108.17-.17-.63-.36-1.26-.54-1.89-.12,.03-.23,.06-.35,.09Zm-77.64-4.29v87.24h30.44V71.14H26.31Zm71.45,87.25V71.3c-2.34-.41-33.19-.33-34.68,.07v87.02h34.68Zm35.47,1.4c14.45-3.87,17.64-4.93,32.02-8.78-7.56-28.22-15.06-56.18-22.62-84.41-14.39,3.85-17.57,4.9-32.02,8.77,7.57,28.23,15.07,56.25,22.62,84.42Zm-107.02,21.74c3.04,.46,29.19,.31,30.55-.12v-16.67c-3.1-.42-29.13-.27-30.55,.16v16.63Zm36.86-16.92v17.01h34.59c.41-2.34,.32-15.52-.12-17.01H63.08Zm45.94-95.07c14.49-3.88,17.68-4.94,32.07-8.79-1.51-5.63-2.97-11.06-4.46-16.61-14.45,3.87-17.64,4.93-32.05,8.79,1.49,5.58,2.93,10.95,4.44,16.61Zm62.27,103.91c-1.5-5.6-2.96-11.01-4.4-16.38-2.94,.32-30.79,8.12-32.03,8.92,1.44,5.35,2.89,10.72,4.37,16.25,14.44-3.87,17.62-4.92,32.05-8.78ZM56.68,64.93c.43-2.58,.32-15.58-.11-16.93H26.36c-.41,2.67-.3,15.56,.12,16.93h30.2Zm41.14-16.91H63.09v16.82c2.49,.4,33.16,.3,34.73-.11v-16.7Z"/></g></g><g><path class="cls-4" d="M3.56,210.22h6.04v25.73H25.72v5.66H3.56v-31.39Z"/><path class="cls-4" d="M28.27,229.76c0-7.2,5.19-12.48,12.54-12.48s12.54,5.28,12.54,12.48-5.19,12.48-12.54,12.48-12.54-5.28-12.54-12.48Zm19.38,0c0-4.18-2.74-7.15-6.84-7.15s-6.88,2.98-6.88,7.15,2.78,7.15,6.88,7.15,6.84-2.98,6.84-7.15Z"/><path class="cls-4" d="M56.09,229.76c0-7.2,5.19-12.48,12.54-12.48,6.32,0,10.94,3.89,12.07,9.5h-5.66c-.99-2.54-3.35-4.18-6.41-4.18-4.1,0-6.88,2.98-6.88,7.15s2.78,7.15,6.88,7.15c3.06,0,5.42-1.63,6.41-4.18h5.66c-1.13,5.62-5.75,9.5-12.07,9.5-7.36,0-12.54-5.28-12.54-12.48Z"/><path class="cls-4" d="M83.44,230c0-7.54,5.19-12.72,12.59-12.72s12.4,5.04,12.4,12.67v11.67h-5.14v-4.66c-1.42,3.5-4.57,5.28-8.25,5.28-5.66,0-11.6-4.13-11.6-12.24Zm19.38-.24c0-4.18-2.73-7.15-6.84-7.15s-6.88,2.98-6.88,7.15,2.78,7.15,6.88,7.15,6.84-2.98,6.84-7.15Z"/><path class="cls-4" d="M113.05,232.49v-22.99h5.61v8.4h12.02v5.18h-12.02v9.41c0,3.17,1.6,4.42,3.91,4.42s3.91-1.2,3.91-4.42v-.62h5.61v.62c0,6.58-3.87,9.74-9.52,9.74s-9.52-3.17-9.52-9.74Z"/><path class="cls-4" d="M134.75,229.76c0-7.2,5.19-12.48,12.54-12.48s12.54,5.28,12.54,12.48-5.19,12.48-12.54,12.48-12.54-5.28-12.54-12.48Zm19.38,0c0-4.18-2.74-7.15-6.84-7.15s-6.88,2.98-6.88,7.15,2.78,7.15,6.88,7.15,6.84-2.98,6.84-7.15Z"/><path class="cls-4" d="M163.51,227.84c0-7.15,4.15-10.56,10.23-10.56s10.18,3.41,10.18,10.66v.14h-5.56v-.24c0-3.84-1.88-5.23-4.62-5.23s-4.62,1.39-4.62,5.23v13.78h-5.61v-13.78Z"/></g><g><path class="cls-4" d="M4.54,4.07h3.52v14.74h9.4v3.24H4.54V4.07Z"/><path class="cls-4" d="M19.48,4.53c0-1.26,.91-2.2,2.17-2.2s2.17,.94,2.17,2.2-.91,2.17-2.17,2.17-2.17-.91-2.17-2.17Zm.52,3.93h3.27v13.58h-3.27V8.46Z"/><path class="cls-4" d="M26.44,16.82V3.65h3.27v4.81h7.01v2.97h-7.01v5.39c0,1.81,.94,2.53,2.28,2.53s2.28-.69,2.28-2.53v-.36h3.27v.36c0,3.77-2.25,5.58-5.55,5.58s-5.55-1.81-5.55-5.58Z"/><path class="cls-4" d="M39.63,16.82V3.65h3.27v4.81h7.01v2.97h-7.01v5.39c0,1.81,.94,2.53,2.28,2.53s2.28-.69,2.28-2.53v-.36h3.27v.36c0,3.77-2.25,5.58-5.55,5.58s-5.55-1.81-5.55-5.58Z"/><path class="cls-4" d="M53.3,2.53h3.27V22.05h-3.27V2.53Z"/><path class="cls-4" d="M59.19,15.26c0-4.12,3.02-7.15,7.31-7.15s7.26,3.02,7.26,7.15v1.15h-11.14c.44,1.98,1.95,3.02,3.88,3.02,1.46,0,2.53-.41,3.22-1.29h3.49c-1.02,2.58-3.49,4.26-6.71,4.26-4.29,0-7.31-3.02-7.31-7.15Zm11.11-1.46c-.52-1.81-2.01-2.72-3.79-2.72s-3.27,.94-3.79,2.72h7.59Z"/></g><g><path class="cls-4" d="M87.64,4.06h3.52v14.74h9.4v3.24h-12.92V4.06Z"/><path class="cls-4" d="M102.57,4.53c0-1.26,.91-2.2,2.17-2.2s2.17,.94,2.17,2.2-.91,2.17-2.17,2.17-2.17-.91-2.17-2.17Zm.52,3.93h3.27v13.58h-3.27V8.46Z"/><path class="cls-4" d="M109.53,15.15V2.52h3.27v7.92c.96-1.51,2.58-2.34,4.54-2.34,3.3,0,6.76,2.36,6.76,7.01,0,4.32-3.02,7.29-7.34,7.29s-7.23-2.86-7.23-7.26Zm11.27,.11c0-2.39-1.62-4.1-4.01-4.1s-3.99,1.71-3.99,4.1,1.59,4.1,3.99,4.1,4.01-1.7,4.01-4.1Z"/><path class="cls-4" d="M126.25,14.16c0-4.1,2.42-6.05,5.97-6.05s5.94,1.95,5.94,6.1v.08h-3.24v-.14c0-2.2-1.1-3-2.69-3s-2.7,.8-2.7,3v7.89h-3.27v-7.89Z"/><path class="cls-4" d="M139.37,15.39c0-4.32,3.02-7.29,7.34-7.29s7.23,2.89,7.23,7.26v6.68h-3v-2.67c-.82,2.01-2.67,3.02-4.81,3.02-3.3,0-6.76-2.36-6.76-7.01Zm11.3-.14c0-2.39-1.59-4.1-3.99-4.1s-4.01,1.71-4.01,4.1,1.62,4.1,4.01,4.1,3.99-1.7,3.99-4.1Z"/><path class="cls-4" d="M156.64,14.16c0-4.1,2.42-6.05,5.97-6.05s5.94,1.95,5.94,6.1v.08h-3.24v-.14c0-2.2-1.1-3-2.69-3s-2.7,.8-2.7,3v7.89h-3.27v-7.89Z"/><path class="cls-4" d="M170.41,23.53h3.27c.55,1.26,1.62,1.84,3.27,1.84,2.23,0,3.49-1.07,3.49-3.71v-1.71c-.82,1.48-2.25,2.28-4.04,2.28-3.13,0-6.1-2.03-6.1-6.87v-6.9h3.27v6.9c0,2.58,1.38,3.82,3.44,3.82s3.44-1.29,3.44-3.82v-6.9h3.27v13.12c0,4.73-3,6.63-6.76,6.63-3.16,0-5.77-1.46-6.54-4.67Z"/></g></svg>