<?xml version="1.0" encoding="UTF-8"?><svg id="Layer_16" xmlns="http://www.w3.org/2000/svg" viewBox="0 0 246.27 323.77"><defs><style>.cls-1{fill:#010101;}.cls-2{fill:#fff;}.cls-3{fill:#93a5ab;}.cls-4{fill:#231f20;}.cls-5{fill:#50573f;}</style></defs><g><path class="cls-4" d="M5,276.03h7.94v33.23h21.2v7.32H5v-40.55Z"/><path class="cls-4" d="M37.49,301.27c0-9.3,6.82-16.12,16.49-16.12s16.49,6.82,16.49,16.12-6.82,16.12-16.49,16.12-16.49-6.82-16.49-16.12Zm25.48,0c0-5.39-3.6-9.24-8.99-9.24s-9.05,3.84-9.05,9.24,3.66,9.24,9.05,9.24,8.99-3.84,8.99-9.24Z"/><path class="cls-4" d="M74.07,301.27c0-9.3,6.82-16.12,16.49-16.12,8.31,0,14.38,5.02,15.87,12.28h-7.44c-1.3-3.29-4.4-5.39-8.43-5.39-5.39,0-9.05,3.84-9.05,9.24s3.66,9.24,9.05,9.24c4.03,0,7.13-2.11,8.43-5.39h7.44c-1.49,7.25-7.56,12.28-15.87,12.28-9.67,0-16.49-6.82-16.49-16.12Z"/><path class="cls-4" d="M110.03,301.58c0-9.73,6.82-16.43,16.55-16.43s16.31,6.51,16.31,16.37v15.06h-6.76v-6.01c-1.86,4.53-6.01,6.82-10.85,6.82-7.44,0-15.25-5.33-15.25-15.81Zm25.48-.31c0-5.39-3.6-9.24-8.99-9.24s-9.05,3.84-9.05,9.24,3.66,9.24,9.05,9.24,8.99-3.84,8.99-9.24Z"/><path class="cls-4" d="M148.96,304.8v-29.7h7.38v10.85h15.81v6.7h-15.81v12.15c0,4.09,2.11,5.7,5.15,5.7s5.15-1.55,5.15-5.7v-.81h7.38v.81c0,8.49-5.08,12.59-12.52,12.59s-12.52-4.09-12.52-12.59Z"/><path class="cls-4" d="M177.48,301.27c0-9.3,6.82-16.12,16.49-16.12s16.49,6.82,16.49,16.12-6.82,16.12-16.49,16.12-16.49-6.82-16.49-16.12Zm25.48,0c0-5.39-3.6-9.24-8.99-9.24s-9.05,3.84-9.05,9.24,3.66,9.24,9.05,9.24,8.99-3.84,8.99-9.24Z"/><path class="cls-4" d="M215.3,298.79c0-9.24,5.46-13.64,13.45-13.64s13.39,4.4,13.39,13.76v.19h-7.32v-.31c0-4.96-2.48-6.76-6.08-6.76s-6.08,1.8-6.08,6.76v17.79h-7.38v-17.79Z"/></g><g><path class="cls-4" d="M4.96,4.96h4.74V24.8h12.65v4.37H4.96V4.96Z"/><path class="cls-4" d="M25.05,5.59c0-1.7,1.22-2.96,2.92-2.96s2.92,1.26,2.92,2.96-1.22,2.92-2.92,2.92-2.92-1.22-2.92-2.92Zm.7,5.29h4.4V29.16h-4.4V10.88Z"/><path class="cls-4" d="M34.41,22.13V4.41h4.4v6.48h9.44v4h-9.44v7.25c0,2.44,1.26,3.4,3.07,3.4s3.07-.92,3.07-3.4v-.48h4.4v.48c0,5.07-3.03,7.51-7.47,7.51s-7.47-2.44-7.47-7.51Z"/><path class="cls-4" d="M52.17,22.13V4.41h4.4v6.48h9.44v4h-9.44v7.25c0,2.44,1.26,3.4,3.07,3.4s3.07-.92,3.07-3.4v-.48h4.4v.48c0,5.07-3.03,7.51-7.47,7.51s-7.47-2.44-7.47-7.51Z"/><path class="cls-4" d="M70.56,2.89h4.4V29.16h-4.4V2.89Z"/><path class="cls-4" d="M78.48,20.02c0-5.55,4.07-9.62,9.84-9.62s9.77,4.07,9.77,9.62v1.55h-14.99c.59,2.66,2.63,4.07,5.22,4.07,1.96,0,3.4-.56,4.33-1.74h4.7c-1.37,3.48-4.7,5.74-9.03,5.74-5.77,0-9.84-4.07-9.84-9.62Zm14.95-1.96c-.7-2.44-2.7-3.66-5.11-3.66s-4.4,1.26-5.11,3.66h10.21Z"/></g><g><path class="cls-4" d="M112.48,4.96h4.74V24.8h12.65v4.37h-17.39V4.96Z"/><path class="cls-4" d="M132.57,5.59c0-1.7,1.22-2.96,2.92-2.96s2.92,1.26,2.92,2.96-1.22,2.92-2.92,2.92-2.92-1.22-2.92-2.92Zm.7,5.29h4.4V29.16h-4.4V10.88Z"/><path class="cls-4" d="M141.94,19.87V2.89h4.4V13.55c1.29-2.04,3.48-3.15,6.11-3.15,4.44,0,9.1,3.18,9.1,9.44,0,5.81-4.07,9.81-9.88,9.81s-9.73-3.85-9.73-9.77Zm15.17,.15c0-3.22-2.18-5.51-5.4-5.51s-5.37,2.29-5.37,5.51,2.15,5.51,5.37,5.51,5.4-2.29,5.4-5.51Z"/><path class="cls-4" d="M164.43,18.54c0-5.51,3.26-8.14,8.03-8.14s7.99,2.63,7.99,8.21v.11h-4.37v-.19c0-2.96-1.48-4.03-3.63-4.03s-3.63,1.07-3.63,4.03v10.62h-4.4v-10.62Z"/><path class="cls-4" d="M182.08,20.21c0-5.81,4.07-9.81,9.88-9.81s9.73,3.89,9.73,9.77v8.99h-4.03v-3.59c-1.11,2.7-3.59,4.07-6.48,4.07-4.44,0-9.1-3.18-9.1-9.44Zm15.21-.19c0-3.22-2.15-5.51-5.37-5.51s-5.4,2.29-5.4,5.51,2.18,5.51,5.4,5.51,5.37-2.29,5.37-5.51Z"/><path class="cls-4" d="M205.32,18.54c0-5.51,3.26-8.14,8.03-8.14s7.99,2.63,7.99,8.21v.11h-4.37v-.19c0-2.96-1.48-4.03-3.63-4.03s-3.63,1.07-3.63,4.03v10.62h-4.4v-10.62Z"/><path class="cls-4" d="M223.85,31.16h4.4c.74,1.7,2.18,2.48,4.4,2.48,3,0,4.7-1.44,4.7-5v-2.29c-1.11,2-3.03,3.07-5.44,3.07-4.22,0-8.21-2.74-8.21-9.25V10.88h4.4v9.29c0,3.48,1.85,5.14,4.62,5.14s4.62-1.74,4.62-5.14V10.88h4.4V28.53c0,6.36-4.03,8.92-9.1,8.92-4.25,0-7.77-1.96-8.81-6.29Z"/></g><g><g><rect class="cls-5" x="6.49" y="158.16" width="233.75" height="110.76"/><path class="cls-1" d="M243.24,271.92H3.49v-116.76H243.24v116.76Zm-233.75-6H237.24v-104.76H9.49v104.76Z"/></g><g><rect class="cls-3" x="6.58" y="42.83" width="233.73" height="113.79"/><path class="cls-1" d="M243.31,159.62H3.58V39.83H243.31v119.79Zm-233.73-6H237.31V45.83H9.58v107.79Z"/></g><g><rect class="cls-2" x="31.12" y="60.07" width="101.14" height="185.05"/><rect class="cls-2" x="158.08" y="57.34" width="47.12" height="184.68" transform="translate(-33.99 55.34) rotate(-15.86)"/><path d="M136.68,98.73c0,1.16,0,2.33,0,3.49,0,46.51-.01,93.01-.02,139.52,0,.99,.05,1.99-.07,2.96-.28,2.26-1.64,3.51-3.93,3.69-.81,.06-1.62,.03-2.43,.03-43.37,0-55.49,0-98.86,0-.9,0-1.81,.04-2.7-.05-2.24-.22-3.56-1.59-3.74-3.86-.06-.72-.02-1.44-.02-2.16-.01-50.91-.02-101.83-.03-152.74,0-10.16,0-20.33,.07-30.49,0-1.2,.23-2.6,.89-3.53,.59-.82,1.88-1.24,2.94-1.59,.73-.24,1.6-.06,2.41-.06,43.46,0,55.67,0,99.13,0,.36,0,.72,0,1.08,0,3.75,.04,5.03,1.23,5.25,4.92,.03,.44,.06,.88,.1,1.55,.79-.13,1.46-.19,2.1-.36,18.68-4.99,22.64-6.3,41.31-11.3,.61-.16,1.21-.34,1.83-.46,2.51-.46,4.2,.48,4.94,2.97,1.07,3.62,2.02,7.27,2.99,10.92,12.39,46.17,24.78,92.35,37.16,138.53,2.58,9.63,5.14,19.28,7.71,28.92,.21,.78,.46,1.57,.52,2.36,.16,2.13-1.08,3.58-3.66,4.29-5.03,1.38,4.64-.97-.39,.38-15.98,4.28-31.96,8.55-47.94,12.82-.78,.21-1.58,.41-2.37,.45-1.71,.09-2.95-.73-3.65-2.26-.33-.73-.49-1.54-.7-2.32-12.91-48.08-25.82-96.15-38.74-144.23-.23-.84-.48-1.68-.72-2.52-.15,.04-.31,.08-.46,.12Zm-103.52-5.73v116.32h40.59V93H33.16Zm95.27,116.34V93.22c-3.12-.55-44.26-.44-46.23,.09v116.03h46.23Zm47.29,1.86c19.27-5.17,23.52-6.57,42.69-11.71-10.08-37.62-20.08-74.91-30.16-112.54-19.18,5.14-23.43,6.53-42.69,11.69,10.09,37.64,20.1,75,30.16,112.56Zm-142.69,28.98c4.05,.61,38.92,.41,40.74-.16v-22.22c-4.14-.56-38.84-.36-40.74,.21v22.17Zm49.15-22.56v22.68h46.11c.55-3.12,.43-20.7-.16-22.68h-45.96Zm61.25-126.76c19.32-5.18,23.57-6.58,42.75-11.72-2.02-7.51-3.96-14.74-5.95-22.15-19.27,5.16-23.52,6.57-42.73,11.72,1.99,7.44,3.91,14.61,5.92,22.15Zm83.03,138.55c-2-7.46-3.94-14.68-5.86-21.84-3.92,.42-41.06,10.82-42.71,11.89,1.92,7.13,3.85,14.3,5.83,21.67,19.25-5.16,23.49-6.56,42.74-11.71ZM73.65,84.72c.57-3.44,.43-20.77-.15-22.58H33.23c-.55,3.56-.4,20.75,.16,22.58h40.26Zm54.85-22.55h-46.3v22.42c3.32,.54,44.21,.4,46.3-.15v-22.27Z"/></g></g></svg>