<?xml version="1.0" encoding="UTF-8"?><svg id="Layer_7" xmlns="http://www.w3.org/2000/svg" viewBox="0 0 254.72 141.23"><defs><style>.cls-1{fill:#010101;}.cls-2{fill:#fff;}.cls-3{fill:#93a5ab;}.cls-4{fill:#231f20;}.cls-5{fill:#50573f;}</style></defs><g><path class="cls-4" d="M146.67,116.69h3.51v14.7h9.38v3.24h-12.89v-17.93Z"/><path class="cls-4" d="M161.04,127.85c0-4.11,3.02-7.13,7.29-7.13s7.29,3.02,7.29,7.13-3.02,7.13-7.29,7.13-7.29-3.02-7.29-7.13Zm11.27,0c0-2.39-1.59-4.09-3.98-4.09s-4,1.7-4,4.09,1.62,4.09,4,4.09,3.98-1.7,3.98-4.09Z"/><path class="cls-4" d="M177.22,127.85c0-4.11,3.02-7.13,7.29-7.13,3.67,0,6.36,2.22,7.02,5.43h-3.29c-.58-1.45-1.95-2.39-3.73-2.39-2.39,0-4,1.7-4,4.09s1.62,4.09,4,4.09c1.78,0,3.15-.93,3.73-2.39h3.29c-.66,3.21-3.34,5.43-7.02,5.43-4.28,0-7.29-3.02-7.29-7.13Z"/><path class="cls-4" d="M193.13,127.99c0-4.3,3.02-7.27,7.32-7.27s7.21,2.88,7.21,7.24v6.66h-2.99v-2.66c-.82,2-2.66,3.02-4.8,3.02-3.29,0-6.75-2.36-6.75-6.99Zm11.27-.14c0-2.39-1.59-4.09-3.98-4.09s-4,1.7-4,4.09,1.62,4.09,4,4.09,3.98-1.7,3.98-4.09Z"/><path class="cls-4" d="M210.35,129.41v-13.13h3.26v4.8h6.99v2.96h-6.99v5.37c0,1.81,.93,2.52,2.28,2.52s2.28-.69,2.28-2.52v-.36h3.26v.36c0,3.76-2.25,5.57-5.54,5.57s-5.54-1.81-5.54-5.57Z"/><path class="cls-4" d="M222.96,127.85c0-4.11,3.02-7.13,7.29-7.13s7.29,3.02,7.29,7.13-3.02,7.13-7.29,7.13-7.29-3.02-7.29-7.13Zm11.27,0c0-2.39-1.59-4.09-3.98-4.09s-4,1.7-4,4.09,1.62,4.09,4,4.09,3.98-1.7,3.98-4.09Z"/><path class="cls-4" d="M239.69,126.75c0-4.09,2.41-6.03,5.95-6.03s5.92,1.95,5.92,6.09v.08h-3.24v-.14c0-2.19-1.1-2.99-2.69-2.99s-2.69,.8-2.69,2.99v7.87h-3.26v-7.87Z"/></g><g><path class="cls-4" d="M146.67,62.1h3.51v14.7h9.38v3.24h-12.89v-17.93Z"/><path class="cls-4" d="M161.56,62.56c0-1.26,.9-2.19,2.17-2.19s2.17,.93,2.17,2.19-.91,2.17-2.17,2.17-2.17-.9-2.17-2.17Zm.52,3.92h3.26v13.55h-3.26v-13.55Z"/><path class="cls-4" d="M168.5,74.82v-13.13h3.26v4.8h6.99v2.96h-6.99v5.37c0,1.81,.93,2.52,2.28,2.52s2.28-.69,2.28-2.52v-.36h3.26v.36c0,3.76-2.25,5.57-5.54,5.57s-5.54-1.81-5.54-5.57Z"/><path class="cls-4" d="M181.66,74.82v-13.13h3.26v4.8h6.99v2.96h-6.99v5.37c0,1.81,.93,2.52,2.28,2.52s2.28-.69,2.28-2.52v-.36h3.26v.36c0,3.76-2.25,5.57-5.54,5.57s-5.54-1.81-5.54-5.57Z"/><path class="cls-4" d="M195.29,60.56h3.26v19.47h-3.26v-19.47Z"/><path class="cls-4" d="M201.16,73.26c0-4.11,3.02-7.13,7.29-7.13s7.24,3.02,7.24,7.13v1.15h-11.11c.44,1.97,1.95,3.02,3.87,3.02,1.45,0,2.52-.41,3.21-1.29h3.48c-1.01,2.58-3.48,4.25-6.69,4.25-4.28,0-7.29-3.02-7.29-7.13Zm11.08-1.45c-.52-1.81-2-2.71-3.78-2.71s-3.26,.93-3.78,2.71h7.57Z"/></g><g><path class="cls-4" d="M146.68,90.01h3.51v14.7h9.38v3.24h-12.89v-17.93Z"/><path class="cls-4" d="M161.57,90.48c0-1.26,.9-2.19,2.17-2.19s2.17,.93,2.17,2.19-.91,2.17-2.17,2.17-2.17-.9-2.17-2.17Zm.52,3.92h3.26v13.55h-3.26v-13.55Z"/><path class="cls-4" d="M168.5,101.06v-12.59h3.26v7.9c.96-1.51,2.58-2.33,4.52-2.33,3.29,0,6.75,2.36,6.75,6.99,0,4.3-3.02,7.27-7.32,7.27s-7.21-2.85-7.21-7.24Zm11.24,.11c0-2.39-1.62-4.09-4-4.09s-3.98,1.7-3.98,4.09,1.59,4.09,3.98,4.09,4-1.7,4-4.09Z"/><path class="cls-4" d="M185.18,100.08c0-4.09,2.41-6.03,5.95-6.03s5.92,1.95,5.92,6.09v.08h-3.24v-.14c0-2.19-1.1-2.99-2.69-2.99s-2.69,.8-2.69,2.99v7.87h-3.26v-7.87Z"/><path class="cls-4" d="M198.25,101.31c0-4.3,3.02-7.27,7.32-7.27s7.21,2.88,7.21,7.24v6.66h-2.99v-2.66c-.82,2-2.66,3.02-4.8,3.02-3.29,0-6.75-2.36-6.75-6.99Zm11.27-.14c0-2.39-1.59-4.09-3.98-4.09s-4,1.7-4,4.09,1.62,4.09,4,4.09,3.98-1.7,3.98-4.09Z"/><path class="cls-4" d="M215.48,100.08c0-4.09,2.41-6.03,5.95-6.03s5.92,1.95,5.92,6.09v.08h-3.24v-.14c0-2.19-1.1-2.99-2.69-2.99s-2.69,.8-2.69,2.99v7.87h-3.26v-7.87Z"/><path class="cls-4" d="M229.21,109.43h3.26c.55,1.26,1.62,1.84,3.26,1.84,2.22,0,3.48-1.07,3.48-3.7v-1.7c-.82,1.48-2.25,2.28-4.03,2.28-3.13,0-6.09-2.03-6.09-6.85v-6.88h3.26v6.88c0,2.58,1.37,3.81,3.43,3.81s3.43-1.29,3.43-3.81v-6.88h3.26v13.08c0,4.72-2.99,6.61-6.75,6.61-3.15,0-5.76-1.45-6.53-4.66Z"/></g><g><g><rect class="cls-5" x="6.58" y="71.62" width="131.49" height="62.3"/><path class="cls-1" d="M140.56,136.42H4.08V69.12H140.56v67.3Zm-131.49-5h126.49v-57.3H9.08v57.3Z"/></g><g><rect class="cls-3" x="6.63" y="6.75" width="131.47" height="64"/><path class="cls-1" d="M140.6,73.26H4.13V4.25H140.6V73.26ZM9.13,68.26h126.47V9.25H9.13v59Z"/></g><g><rect class="cls-2" x="20.44" y="16.45" width="56.89" height="104.09"/><rect class="cls-2" x="91.85" y="14.91" width="26.51" height="103.88" transform="translate(-14.27 31.27) rotate(-15.86)"/><path d="M79.81,38.19c0,.65,0,1.31,0,1.96,0,26.16,0,52.32-.01,78.48,0,.56,.03,1.12-.04,1.67-.16,1.27-.92,1.97-2.21,2.07-.45,.04-.91,.02-1.37,.02-24.4,0-31.21,0-55.61,0-.51,0-1.02,.02-1.52-.03-1.26-.12-2-.89-2.1-2.17-.03-.4-.01-.81-.01-1.21,0-28.64-.01-57.28-.02-85.92,0-5.72,0-11.44,.04-17.15,0-.67,.13-1.46,.5-1.99,.33-.46,1.06-.7,1.65-.9,.41-.14,.9-.04,1.36-.04,24.45,0,31.31,0,55.76,0,.2,0,.4,0,.61,0,2.11,.02,2.83,.69,2.96,2.77,.02,.25,.03,.49,.06,.87,.44-.07,.82-.11,1.18-.2,10.5-2.8,12.73-3.55,23.24-6.36,.34-.09,.68-.19,1.03-.26,1.41-.26,2.36,.27,2.78,1.67,.6,2.03,1.13,4.09,1.68,6.14,6.97,25.97,13.94,51.95,20.9,77.92,1.45,5.42,2.89,10.84,4.34,16.27,.12,.44,.26,.88,.29,1.33,.09,1.2-.61,2.02-2.06,2.41-2.83,.77,2.61-.54-.22,.21-8.99,2.41-17.98,4.81-26.97,7.21-.44,.12-.89,.23-1.33,.26-.96,.05-1.66-.41-2.05-1.27-.19-.41-.28-.86-.4-1.3-7.26-27.04-14.53-54.09-21.79-81.13-.13-.47-.27-.94-.41-1.42-.09,.02-.17,.04-.26,.07Zm-58.23-3.22V100.4h22.83V34.97H21.58Zm53.59,65.44V35.09c-1.75-.31-24.9-.25-26.01,.05V100.41h26.01Zm26.6,1.05c10.84-2.91,13.23-3.7,24.02-6.59-5.67-21.16-11.29-42.14-16.97-63.31-10.79,2.89-13.18,3.68-24.02,6.58,5.67,21.18,11.3,42.19,16.97,63.32ZM21.51,117.76c2.28,.34,21.89,.23,22.92-.09v-12.5c-2.33-.32-21.85-.2-22.92,.12v12.47Zm27.65-12.69v12.76h25.94c.31-1.76,.24-11.64-.09-12.76h-25.85ZM83.61,33.78c10.87-2.91,13.26-3.7,24.05-6.59-1.13-4.22-2.23-8.29-3.35-12.46-10.84,2.9-13.23,3.69-24.04,6.59,1.12,4.18,2.2,8.22,3.33,12.46Zm46.7,77.94c-1.13-4.2-2.22-8.26-3.3-12.29-2.21,.24-23.09,6.09-24.02,6.69,1.08,4.01,2.16,8.04,3.28,12.19,10.83-2.9,13.21-3.69,24.04-6.59ZM44.36,30.31c.32-1.93,.24-11.68-.08-12.7H21.62c-.31,2-.23,11.67,.09,12.7h22.65Zm30.85-12.68h-26.04v12.61c1.87,.3,24.87,.23,26.04-.09v-12.53Z"/></g></g></svg>