<?xml version="1.0" encoding="UTF-8"?><svg id="Layer_11" xmlns="http://www.w3.org/2000/svg" viewBox="0 0 187.97 181.01"><defs><style>.cls-1{fill:#010101;}.cls-2{fill:#fff;}.cls-3{fill:#93a5ab;}.cls-4{fill:#50573f;}</style></defs><g><rect class="cls-4" x="6.12" y="92.48" width="175.32" height="83.07"/><path class="cls-1" d="M184.44,178.54H3.12V89.48H184.44v89.07Zm-175.32-6H178.44V95.48H9.12v77.07Z"/></g><g><rect class="cls-3" x="6.19" y="5.98" width="175.3" height="85.34"/><path class="cls-1" d="M184.48,94.32H3.19V2.98H184.48V94.32ZM9.19,88.32H178.48V8.98H9.19V88.32Z"/></g><g><rect class="cls-2" x="24.6" y="18.91" width="75.86" height="138.78"/><rect class="cls-2" x="119.82" y="16.86" width="35.34" height="138.51" transform="translate(-18.3 40.85) rotate(-15.86)"/><path d="M103.76,47.9c0,.87,0,1.75,0,2.62,0,34.88,0,69.76-.02,104.64,0,.74,.04,1.49-.05,2.22-.21,1.69-1.23,2.63-2.95,2.77-.6,.05-1.21,.02-1.82,.02-32.53,0-41.61,0-74.14,0-.67,0-1.35,.03-2.02-.03-1.68-.16-2.67-1.19-2.81-2.89-.04-.54-.01-1.08-.01-1.62,0-38.18-.02-76.37-.02-114.55,0-7.62,0-15.25,.05-22.87,0-.9,.17-1.95,.67-2.65,.44-.62,1.41-.93,2.21-1.19,.55-.18,1.2-.05,1.81-.05,32.6,0,41.75,0,74.35,0,.27,0,.54,0,.81,0,2.81,.03,3.77,.93,3.94,3.69,.02,.33,.04,.66,.07,1.17,.59-.1,1.1-.14,1.58-.27,14.01-3.74,16.98-4.73,30.98-8.47,.46-.12,.91-.26,1.37-.34,1.88-.35,3.15,.36,3.7,2.23,.81,2.71,1.51,5.46,2.25,8.19,9.29,34.63,18.58,69.26,27.87,103.89,1.94,7.23,3.86,14.46,5.78,21.69,.16,.59,.34,1.18,.39,1.77,.12,1.6-.81,2.69-2.74,3.22-3.77,1.03,3.48-.73-.3,.28-11.98,3.21-23.97,6.42-35.96,9.61-.58,.16-1.18,.31-1.78,.34-1.28,.07-2.21-.55-2.74-1.7-.25-.54-.37-1.15-.53-1.74-9.68-36.06-19.37-72.12-29.05-108.17-.17-.63-.36-1.26-.54-1.89-.12,.03-.23,.06-.35,.09Zm-77.64-4.29v87.24h30.44V43.61H26.12Zm71.45,87.25V43.77c-2.34-.41-33.19-.33-34.68,.07v87.02h34.68Zm35.47,1.4c14.45-3.87,17.64-4.93,32.02-8.78-7.56-28.22-15.06-56.18-22.62-84.41-14.39,3.85-17.57,4.9-32.02,8.77,7.57,28.23,15.07,56.25,22.62,84.42Zm-107.02,21.74c3.04,.46,29.19,.31,30.55-.12v-16.67c-3.1-.42-29.13-.27-30.55,.16v16.63Zm36.86-16.92v17.01h34.59c.41-2.34,.32-15.52-.12-17.01H62.89ZM108.83,42.01c14.49-3.88,17.68-4.94,32.07-8.79-1.51-5.63-2.97-11.06-4.46-16.61-14.45,3.87-17.64,4.93-32.05,8.79,1.49,5.58,2.93,10.95,4.44,16.61Zm62.27,103.91c-1.5-5.6-2.96-11.01-4.4-16.38-2.94,.32-30.79,8.12-32.03,8.92,1.44,5.35,2.89,10.72,4.37,16.25,14.44-3.87,17.62-4.92,32.05-8.78ZM56.5,37.4c.43-2.58,.32-15.58-.11-16.93H26.18c-.41,2.67-.3,15.56,.12,16.93h30.2Zm41.14-16.91H62.91v16.82c2.49,.4,33.16,.3,34.73-.11V20.49Z"/></g></svg>