<?xml version="1.0" encoding="UTF-8"?><svg id="Layer_12" xmlns="http://www.w3.org/2000/svg" viewBox="0 0 141.84 138.51"><defs><style>.cls-1{fill:#010101;}.cls-2{fill:#fff;}.cls-3{fill:#93a5ab;}.cls-4{fill:#50573f;}</style></defs><g><rect class="cls-4" x="5.16" y="70.54" width="131.49" height="62.3"/><path class="cls-1" d="M139.14,135.34H2.66V68.04H139.14v67.3ZM7.66,130.34h126.49v-57.3H7.66v57.3Z"/></g><g><rect class="cls-3" x="5.21" y="5.67" width="131.47" height="64"/><path class="cls-1" d="M139.18,72.17H2.71V3.17H139.18V72.17ZM7.71,67.17h126.47V8.17H7.71v59Z"/></g><g><rect class="cls-2" x="19.02" y="15.37" width="56.89" height="104.09"/><rect class="cls-2" x="90.43" y="13.83" width="26.51" height="103.88" transform="translate(-14.03 30.84) rotate(-15.86)"/><path d="M78.39,37.11c0,.65,0,1.31,0,1.96,0,26.16,0,52.32-.01,78.48,0,.56,.03,1.12-.04,1.67-.16,1.27-.92,1.97-2.21,2.07-.45,.04-.91,.02-1.37,.02-24.4,0-31.21,0-55.61,0-.51,0-1.02,.02-1.52-.03-1.26-.12-2-.89-2.1-2.17-.03-.4-.01-.81-.01-1.21,0-28.64-.01-57.28-.02-85.92,0-5.72,0-11.44,.04-17.15,0-.67,.13-1.46,.5-1.99,.33-.46,1.06-.7,1.65-.9,.41-.14,.9-.04,1.36-.04,24.45,0,31.31,0,55.76,0,.2,0,.4,0,.61,0,2.11,.02,2.83,.69,2.96,2.77,.02,.25,.03,.49,.06,.87,.44-.07,.82-.11,1.18-.2,10.5-2.8,12.73-3.55,23.24-6.36,.34-.09,.68-.19,1.03-.26,1.41-.26,2.36,.27,2.78,1.67,.6,2.03,1.13,4.09,1.68,6.14,6.97,25.97,13.94,51.95,20.9,77.92,1.45,5.42,2.89,10.84,4.34,16.27,.12,.44,.26,.88,.29,1.33,.09,1.2-.61,2.02-2.06,2.41-2.83,.77,2.61-.54-.22,.21-8.99,2.41-17.98,4.81-26.97,7.21-.44,.12-.89,.23-1.33,.26-.96,.05-1.66-.41-2.05-1.27-.19-.41-.28-.86-.4-1.3-7.26-27.04-14.53-54.09-21.79-81.13-.13-.47-.27-.94-.41-1.42-.09,.02-.17,.04-.26,.07Zm-58.23-3.22V99.32h22.83V33.89H20.16Zm53.59,65.44V34.01c-1.75-.31-24.9-.25-26.01,.05V99.33h26.01Zm26.6,1.05c10.84-2.91,13.23-3.7,24.02-6.59-5.67-21.16-11.29-42.14-16.97-63.31-10.79,2.89-13.18,3.68-24.02,6.58,5.67,21.18,11.3,42.19,16.97,63.32ZM20.09,116.68c2.28,.34,21.89,.23,22.92-.09v-12.5c-2.33-.32-21.85-.2-22.92,.12v12.47Zm27.65-12.69v12.76h25.94c.31-1.76,.24-11.64-.09-12.76h-25.85ZM82.19,32.69c10.87-2.91,13.26-3.7,24.05-6.59-1.13-4.22-2.23-8.29-3.35-12.46-10.84,2.9-13.23,3.69-24.04,6.59,1.12,4.18,2.2,8.22,3.33,12.46Zm46.7,77.94c-1.13-4.2-2.22-8.26-3.3-12.29-2.21,.24-23.09,6.09-24.02,6.69,1.08,4.01,2.16,8.04,3.28,12.19,10.83-2.9,13.21-3.69,24.04-6.59ZM42.94,29.23c.32-1.93,.24-11.68-.08-12.7H20.2c-.31,2-.23,11.67,.09,12.7h22.65Zm30.85-12.68h-26.04v12.61c1.87,.3,24.87,.23,26.04-.09v-12.53Z"/></g></svg>