<?xml version="1.0" encoding="UTF-8"?><svg id="Layer_10" xmlns="http://www.w3.org/2000/svg" viewBox="0 0 244.91 237.13"><defs><style>.cls-1{fill:#010101;}.cls-2{fill:#fff;}.cls-3{fill:#93a5ab;}.cls-4{fill:#50573f;}</style></defs><g><rect class="cls-4" x="5.5" y="120.84" width="233.75" height="110.76"/><path class="cls-1" d="M242.25,234.59H2.5V117.84H242.25v116.76Zm-233.75-6H236.25V123.84H8.5v104.76Z"/></g><g><rect class="cls-3" x="5.59" y="5.51" width="233.73" height="113.79"/><path class="cls-1" d="M242.32,122.29H2.59V2.51H242.32V122.29ZM8.59,116.29H236.32V8.51H8.59V116.29Z"/></g><g><rect class="cls-2" x="30.14" y="22.75" width="101.14" height="185.05"/><rect class="cls-2" x="157.09" y="20.02" width="47.12" height="184.68" transform="translate(-23.83 53.65) rotate(-15.86)"/><path d="M135.69,61.41c0,1.16,0,2.33,0,3.49,0,46.51-.01,93.01-.02,139.52,0,.99,.05,1.99-.07,2.96-.28,2.26-1.64,3.51-3.93,3.69-.81,.06-1.62,.03-2.43,.03-43.37,0-55.49,0-98.86,0-.9,0-1.81,.04-2.7-.05-2.24-.22-3.56-1.59-3.74-3.86-.06-.72-.02-1.44-.02-2.16-.01-50.91-.02-101.83-.03-152.74,0-10.16,0-20.33,.07-30.49,0-1.2,.23-2.6,.89-3.53,.59-.82,1.88-1.24,2.94-1.59,.73-.24,1.6-.06,2.41-.06,43.46,0,55.67,0,99.13,0,.36,0,.72,0,1.08,0,3.75,.04,5.03,1.23,5.25,4.92,.03,.44,.06,.88,.1,1.55,.79-.13,1.46-.19,2.1-.36,18.68-4.99,22.64-6.3,41.31-11.3,.61-.16,1.21-.34,1.83-.46,2.51-.46,4.2,.48,4.94,2.97,1.07,3.62,2.02,7.27,2.99,10.92,12.39,46.17,24.78,92.35,37.16,138.53,2.58,9.63,5.14,19.28,7.71,28.92,.21,.78,.46,1.57,.52,2.36,.16,2.13-1.08,3.58-3.66,4.29-5.03,1.38,4.64-.97-.39,.38-15.98,4.28-31.96,8.55-47.94,12.82-.78,.21-1.58,.41-2.37,.45-1.71,.09-2.95-.73-3.65-2.26-.33-.73-.49-1.54-.7-2.32-12.91-48.08-25.82-96.15-38.74-144.23-.23-.84-.48-1.68-.72-2.52-.15,.04-.31,.08-.46,.12Zm-103.52-5.73v116.32h40.59V55.68H32.17Zm95.27,116.34V55.89c-3.12-.55-44.26-.44-46.23,.09v116.03h46.23Zm47.29,1.86c19.27-5.17,23.52-6.57,42.69-11.71-10.08-37.62-20.08-74.91-30.16-112.54-19.18,5.14-23.43,6.53-42.69,11.69,10.09,37.64,20.1,75,30.16,112.56Zm-142.69,28.98c4.05,.61,38.92,.41,40.74-.16v-22.22c-4.14-.56-38.84-.36-40.74,.21v22.17Zm49.15-22.56v22.68h46.11c.55-3.12,.43-20.7-.16-22.68h-45.96Zm61.25-126.76c19.32-5.18,23.57-6.58,42.75-11.72-2.02-7.51-3.96-14.74-5.95-22.15-19.27,5.16-23.52,6.57-42.73,11.72,1.99,7.44,3.91,14.61,5.92,22.15Zm83.03,138.55c-2-7.46-3.94-14.68-5.86-21.84-3.92,.42-41.06,10.82-42.71,11.89,1.92,7.13,3.85,14.3,5.83,21.67,19.25-5.16,23.49-6.56,42.74-11.71ZM72.67,47.4c.57-3.44,.43-20.77-.15-22.58H32.25c-.55,3.56-.4,20.75,.16,22.58h40.26Zm54.85-22.55h-46.3v22.42c3.32,.54,44.21,.4,46.3-.15V24.85Z"/></g></svg>