<?xml version="1.0" encoding="UTF-8"?><svg id="Layer_13" xmlns="http://www.w3.org/2000/svg" viewBox="0 0 108.69 141.23"><defs><style>.cls-1{fill:#010101;}.cls-2{fill:#fff;}.cls-3{fill:#93a5ab;}.cls-4{fill:#231f20;}.cls-5{fill:#50573f;}</style></defs><g><g><rect class="cls-5" x="4.88" y="68.84" width="98.61" height="46.73"/><path class="cls-1" d="M105.49,117.57H2.88v-50.73H105.49v50.73ZM6.88,113.57H101.49v-42.73H6.88v42.73Z"/></g><g><rect class="cls-3" x="4.92" y="20.19" width="98.6" height="48"/><path class="cls-1" d="M105.52,70.19H2.91V18.19H105.52v52ZM6.91,66.19H101.52V22.19H6.91v44Z"/></g><g><rect class="cls-2" x="15.27" y="27.46" width="42.67" height="78.07"/><rect class="cls-2" x="68.83" y="26.31" width="19.88" height="77.91" transform="translate(-14.84 24.01) rotate(-15.86)"/><path d="M59.8,43.77c0,.49,0,.98,0,1.47,0,19.62,0,39.24,0,58.86,0,.42,.02,.84-.03,1.25-.12,.95-.69,1.48-1.66,1.56-.34,.03-.68,.01-1.02,.01-18.3,0-23.41,0-41.71,0-.38,0-.76,.02-1.14-.02-.95-.09-1.5-.67-1.58-1.63-.02-.3,0-.61,0-.91,0-21.48-.01-42.96-.01-64.44,0-4.29,0-8.58,.03-12.86,0-.51,.1-1.1,.38-1.49,.25-.35,.79-.52,1.24-.67,.31-.1,.68-.03,1.02-.03,18.34,0,23.48,0,41.82,0,.15,0,.3,0,.46,0,1.58,.02,2.12,.52,2.22,2.08,.01,.19,.02,.37,.04,.66,.33-.06,.62-.08,.89-.15,7.88-2.1,9.55-2.66,17.43-4.77,.26-.07,.51-.14,.77-.19,1.06-.19,1.77,.2,2.08,1.25,.45,1.53,.85,3.07,1.26,4.61,5.23,19.48,10.45,38.96,15.68,58.44,1.09,4.06,2.17,8.13,3.25,12.2,.09,.33,.19,.66,.22,1,.07,.9-.46,1.51-1.54,1.81-2.12,.58,1.96-.41-.17,.16-6.74,1.8-13.48,3.61-20.22,5.41-.33,.09-.66,.17-1,.19-.72,.04-1.24-.31-1.54-.95-.14-.31-.21-.65-.3-.98-5.45-20.28-10.89-40.57-16.34-60.85-.1-.36-.2-.71-.31-1.06-.07,.02-.13,.03-.2,.05Zm-43.67-2.42v49.07h17.12V41.35H16.13Zm40.19,49.08V41.44c-1.31-.23-18.67-.19-19.51,.04v48.95h19.51Zm19.95,.78c8.13-2.18,9.92-2.77,18.01-4.94-4.25-15.87-8.47-31.6-12.72-47.48-8.09,2.17-9.88,2.76-18.01,4.93,4.26,15.88,8.48,31.64,12.72,47.49Zm-60.2,12.23c1.71,.26,16.42,.17,17.19-.07v-9.37c-1.75-.24-16.39-.15-17.19,.09v9.35Zm20.74-9.52v9.57h19.45c.23-1.32,.18-8.73-.07-9.57h-19.39Zm25.84-53.48c8.15-2.18,9.94-2.78,18.04-4.95-.85-3.17-1.67-6.22-2.51-9.34-8.13,2.18-9.92,2.77-18.03,4.94,.84,3.14,1.65,6.16,2.5,9.35Zm35.03,58.45c-.85-3.15-1.66-6.19-2.47-9.22-1.66,.18-17.32,4.57-18.02,5.02,.81,3.01,1.62,6.03,2.46,9.14,8.12-2.18,9.91-2.77,18.03-4.94ZM33.21,37.86c.24-1.45,.18-8.76-.06-9.53H16.16c-.23,1.5-.17,8.76,.07,9.53h16.99Zm23.14-9.51h-19.53v9.46c1.4,.23,18.65,.17,19.53-.06v-9.4Z"/></g></g><g><path class="cls-4" d="M2.95,3.28h1.98V11.59h5.3v1.83H2.95V3.28Z"/><path class="cls-4" d="M11.36,3.54c0-.71,.51-1.24,1.22-1.24s1.22,.53,1.22,1.24-.51,1.22-1.22,1.22-1.22-.51-1.22-1.22Zm.29,2.22h1.84v7.66h-1.84V5.76Z"/><path class="cls-4" d="M15.28,10.47V3.05h1.84v2.71h3.95v1.67h-3.95v3.04c0,1.02,.53,1.43,1.29,1.43s1.29-.39,1.29-1.43v-.2h1.84v.2c0,2.12-1.27,3.15-3.13,3.15s-3.13-1.02-3.13-3.15Z"/><path class="cls-4" d="M22.72,10.47V3.05h1.84v2.71h3.95v1.67h-3.95v3.04c0,1.02,.53,1.43,1.29,1.43s1.29-.39,1.29-1.43v-.2h1.84v.2c0,2.12-1.27,3.15-3.13,3.15s-3.13-1.02-3.13-3.15Z"/><path class="cls-4" d="M30.43,2.41h1.84V13.42h-1.84V2.41Z"/><path class="cls-4" d="M33.74,9.59c0-2.33,1.71-4.03,4.12-4.03s4.09,1.71,4.09,4.03v.65h-6.28c.25,1.12,1.1,1.71,2.19,1.71,.82,0,1.43-.23,1.81-.73h1.97c-.57,1.46-1.97,2.4-3.78,2.4-2.42,0-4.12-1.71-4.12-4.03Zm6.26-.82c-.29-1.02-1.13-1.53-2.14-1.53s-1.84,.53-2.14,1.53h4.28Z"/></g><g><path class="cls-4" d="M50.81,3.28h1.98V11.59h5.3v1.83h-7.29V3.28Z"/><path class="cls-4" d="M59.22,3.54c0-.71,.51-1.24,1.22-1.24s1.22,.53,1.22,1.24-.51,1.22-1.22,1.22-1.22-.51-1.22-1.22Zm.29,2.22h1.84v7.66h-1.84V5.76Z"/><path class="cls-4" d="M63.14,9.53V2.41h1.84V6.88c.54-.85,1.46-1.32,2.56-1.32,1.86,0,3.81,1.33,3.81,3.95,0,2.43-1.71,4.11-4.14,4.11s-4.08-1.61-4.08-4.09Zm6.36,.06c0-1.35-.92-2.31-2.26-2.31s-2.25,.96-2.25,2.31,.9,2.31,2.25,2.31,2.26-.96,2.26-2.31Z"/><path class="cls-4" d="M72.57,8.97c0-2.31,1.36-3.41,3.36-3.41s3.35,1.1,3.35,3.44v.05h-1.83v-.08c0-1.24-.62-1.69-1.52-1.69s-1.52,.45-1.52,1.69v4.45h-1.84v-4.45Z"/><path class="cls-4" d="M79.96,9.67c0-2.43,1.71-4.11,4.14-4.11s4.08,1.63,4.08,4.09v3.77h-1.69v-1.5c-.46,1.13-1.5,1.71-2.71,1.71-1.86,0-3.81-1.33-3.81-3.95Zm6.37-.08c0-1.35-.9-2.31-2.25-2.31s-2.26,.96-2.26,2.31,.92,2.31,2.26,2.31,2.25-.96,2.25-2.31Z"/><path class="cls-4" d="M89.7,8.97c0-2.31,1.36-3.41,3.36-3.41s3.35,1.1,3.35,3.44v.05h-1.83v-.08c0-1.24-.62-1.69-1.52-1.69s-1.52,.45-1.52,1.69v4.45h-1.84v-4.45Z"/><path class="cls-4" d="M97.46,14.26h1.84c.31,.71,.92,1.04,1.85,1.04,1.26,0,1.97-.6,1.97-2.09v-.96c-.46,.84-1.27,1.29-2.28,1.29-1.77,0-3.44-1.15-3.44-3.88v-3.89h1.84v3.89c0,1.46,.78,2.15,1.94,2.15s1.94-.73,1.94-2.15v-3.89h1.84v7.4c0,2.67-1.69,3.74-3.81,3.74-1.78,0-3.26-.82-3.69-2.64Z"/></g><g><path class="cls-4" d="M3.3,120.52h3.4v14.21H15.8v3.13H3.3v-17.33Z"/><path class="cls-4" d="M17.24,131.31c0-3.98,2.93-6.89,7.07-6.89s7.07,2.92,7.07,6.89-2.92,6.89-7.07,6.89-7.07-2.92-7.07-6.89Zm10.93,0c0-2.31-1.54-3.95-3.86-3.95s-3.88,1.64-3.88,3.95,1.57,3.95,3.88,3.95,3.86-1.64,3.86-3.95Z"/><path class="cls-4" d="M32.93,131.31c0-3.98,2.93-6.89,7.07-6.89,3.56,0,6.17,2.15,6.81,5.25h-3.19c-.56-1.4-1.89-2.31-3.62-2.31-2.31,0-3.88,1.64-3.88,3.95s1.57,3.95,3.88,3.95c1.73,0,3.06-.9,3.62-2.31h3.19c-.64,3.1-3.24,5.25-6.81,5.25-4.15,0-7.07-2.92-7.07-6.89Z"/><path class="cls-4" d="M48.35,131.44c0-4.16,2.93-7.02,7.1-7.02s7,2.78,7,7v6.44h-2.9v-2.57c-.8,1.93-2.58,2.92-4.65,2.92-3.19,0-6.54-2.28-6.54-6.76Zm10.93-.13c0-2.31-1.54-3.95-3.86-3.95s-3.88,1.64-3.88,3.95,1.57,3.95,3.88,3.95,3.86-1.64,3.86-3.95Z"/><path class="cls-4" d="M65.05,132.82v-12.7h3.17v4.64h6.78v2.86h-6.78v5.2c0,1.75,.9,2.44,2.21,2.44s2.21-.66,2.21-2.44v-.34h3.17v.34c0,3.63-2.18,5.38-5.37,5.38s-5.37-1.75-5.37-5.38Z"/><path class="cls-4" d="M77.28,131.31c0-3.98,2.93-6.89,7.07-6.89s7.07,2.92,7.07,6.89-2.92,6.89-7.07,6.89-7.07-2.92-7.07-6.89Zm10.93,0c0-2.31-1.54-3.95-3.86-3.95s-3.88,1.64-3.88,3.95,1.57,3.95,3.88,3.95,3.86-1.64,3.86-3.95Z"/><path class="cls-4" d="M93.5,130.25c0-3.95,2.34-5.83,5.77-5.83s5.75,1.88,5.75,5.88v.08h-3.14v-.13c0-2.12-1.06-2.89-2.61-2.89s-2.61,.77-2.61,2.89v7.61h-3.17v-7.61Z"/></g></svg>