<?xml version="1.0" encoding="UTF-8"?><svg id="Layer_14" xmlns="http://www.w3.org/2000/svg" viewBox="0 0 109.69 105.82"><defs><style>.cls-1{fill:#010101;}.cls-2{fill:#fff;}.cls-3{fill:#93a5ab;}.cls-4{fill:#50573f;}</style></defs><g><rect class="cls-4" x="5.8" y="53.87" width="98.61" height="46.73"/><path class="cls-1" d="M106.41,102.6H3.8V51.87H106.41v50.73ZM7.8,98.6H102.41V55.87H7.8v42.73Z"/></g><g><rect class="cls-3" x="5.84" y="5.22" width="98.6" height="48"/><path class="cls-1" d="M106.44,55.22H3.84V3.22H106.44V55.22ZM7.84,51.22H102.44V7.22H7.84V51.22Z"/></g><g><rect class="cls-2" x="16.19" y="12.49" width="42.67" height="78.07"/><rect class="cls-2" x="69.75" y="11.34" width="19.88" height="77.91" transform="translate(-10.71 23.69) rotate(-15.86)"/><path d="M60.72,28.8c0,.49,0,.98,0,1.47,0,19.62,0,39.24,0,58.86,0,.42,.02,.84-.03,1.25-.12,.95-.69,1.48-1.66,1.56-.34,.03-.68,.01-1.02,.01-18.3,0-23.41,0-41.71,0-.38,0-.76,.02-1.14-.02-.95-.09-1.5-.67-1.58-1.63-.02-.3,0-.61,0-.91,0-21.48-.01-42.96-.01-64.44,0-4.29,0-8.58,.03-12.86,0-.51,.1-1.1,.38-1.49,.25-.35,.79-.52,1.24-.67,.31-.1,.68-.03,1.02-.03,18.34,0,23.48,0,41.82,0,.15,0,.3,0,.46,0,1.58,.02,2.12,.52,2.22,2.08,.01,.19,.02,.37,.04,.66,.33-.06,.62-.08,.89-.15,7.88-2.1,9.55-2.66,17.43-4.77,.26-.07,.51-.14,.77-.19,1.06-.19,1.77,.2,2.08,1.25,.45,1.53,.85,3.07,1.26,4.61,5.23,19.48,10.45,38.96,15.68,58.44,1.09,4.06,2.17,8.13,3.25,12.2,.09,.33,.19,.66,.22,1,.07,.9-.46,1.51-1.54,1.81-2.12,.58,1.96-.41-.17,.16-6.74,1.8-13.48,3.61-20.22,5.41-.33,.09-.66,.17-1,.19-.72,.04-1.24-.31-1.54-.95-.14-.31-.21-.65-.3-.98-5.45-20.28-10.89-40.57-16.34-60.85-.1-.36-.2-.71-.31-1.06-.07,.02-.13,.03-.2,.05Zm-43.67-2.42v49.07h17.12V26.38H17.05Zm40.19,49.08V26.47c-1.31-.23-18.67-.19-19.51,.04v48.95h19.51Zm19.95,.78c8.13-2.18,9.92-2.77,18.01-4.94-4.25-15.87-8.47-31.6-12.72-47.48-8.09,2.17-9.88,2.76-18.01,4.93,4.26,15.88,8.48,31.64,12.72,47.49Zm-60.2,12.23c1.71,.26,16.42,.17,17.19-.07v-9.37c-1.75-.24-16.39-.15-17.19,.09v9.35Zm20.74-9.52v9.57h19.45c.23-1.32,.18-8.73-.07-9.57h-19.39ZM63.57,25.49c8.15-2.18,9.94-2.78,18.04-4.95-.85-3.17-1.67-6.22-2.51-9.34-8.13,2.18-9.92,2.77-18.03,4.94,.84,3.14,1.65,6.16,2.5,9.35Zm35.03,58.45c-.85-3.15-1.66-6.19-2.47-9.22-1.66,.18-17.32,4.57-18.02,5.02,.81,3.01,1.62,6.03,2.46,9.14,8.12-2.18,9.91-2.77,18.03-4.94ZM34.13,22.89c.24-1.45,.18-8.76-.06-9.53H17.08c-.23,1.5-.17,8.76,.07,9.53h16.99Zm23.14-9.51h-19.53v9.46c1.4,.23,18.65,.17,19.53-.06V13.38Z"/></g></svg>