<?xml version="1.0" encoding="UTF-8"?><svg id="Layer_9" xmlns="http://www.w3.org/2000/svg" viewBox="0 0 325.01 313.41"><defs><style>.cls-1{fill:#010101;}.cls-2{fill:#fff;}.cls-3{fill:#93a5ab;}.cls-4{fill:#50573f;}</style></defs><g><rect class="cls-4" x="6.76" y="159.75" width="311.67" height="147.68"/><path class="cls-1" d="M321.43,310.43H3.76V156.75H321.43v153.68Zm-311.67-6H315.43V162.75H9.76v141.68Z"/></g><g><rect class="cls-3" x="6.88" y="5.98" width="311.64" height="151.71"/><path class="cls-1" d="M321.52,160.7H3.88V2.98H321.52V160.7ZM9.88,154.7H315.52V8.98H9.88V154.7Z"/></g><g><rect class="cls-2" x="39.61" y="28.97" width="134.86" height="246.73"/><rect class="cls-2" x="208.89" y="25.33" width="62.83" height="246.24" transform="translate(-31.42 71.32) rotate(-15.86)"/><path d="M180.35,80.51c0,1.55,0,3.1,0,4.66,0,62.01-.02,124.01-.03,186.02,0,1.32,.07,2.65-.09,3.95-.37,3.01-2.19,4.68-5.24,4.92-1.07,.08-2.16,.04-3.24,.04-57.83,0-73.98,0-131.81,0-1.2,0-2.41,.05-3.6-.06-2.99-.29-4.75-2.12-4.99-5.14-.08-.95-.02-1.92-.02-2.88-.02-67.88-.03-135.77-.04-203.65,0-13.55,0-27.11,.09-40.66,.01-1.6,.31-3.47,1.19-4.71,.78-1.1,2.51-1.66,3.92-2.12,.98-.32,2.14-.09,3.22-.09,57.95,0,74.22,0,132.17,0,.48,0,.96,0,1.44,0,5,.05,6.71,1.65,7.01,6.56,.04,.59,.07,1.17,.13,2.07,1.05-.18,1.95-.25,2.81-.48,24.9-6.65,30.18-8.41,55.08-15.06,.81-.22,1.62-.46,2.44-.61,3.35-.62,5.6,.64,6.59,3.96,1.43,4.82,2.69,9.7,3.99,14.56,16.52,61.57,33.04,123.13,49.55,184.7,3.44,12.85,6.86,25.7,10.28,38.55,.28,1.04,.61,2.09,.69,3.15,.21,2.84-1.44,4.78-4.88,5.72-6.71,1.83,6.19-1.29-.53,.51-21.31,5.7-42.61,11.4-63.92,17.09-1.04,.28-2.1,.55-3.16,.6-2.28,.12-3.93-.98-4.87-3.02-.45-.97-.66-2.05-.94-3.09-17.22-64.1-34.43-128.21-51.65-192.31-.3-1.12-.64-2.24-.97-3.36-.21,.05-.41,.1-.62,.16Zm-138.03-7.63V227.97h54.12V72.88H42.32Zm127.03,155.12V73.16c-4.16-.73-59.01-.59-61.65,.12V228h61.65Zm63.06,2.48c25.69-6.89,31.36-8.76,56.93-15.62-13.44-50.16-26.77-99.88-40.22-150.06-25.58,6.85-31.24,8.71-56.93,15.59,13.45,50.19,26.8,100,40.22,150.09Zm-190.25,38.65c5.4,.81,51.89,.55,54.32-.22v-29.63c-5.52-.75-51.79-.49-54.32,.28v29.56Zm65.53-30.07v30.24h61.48c.73-4.16,.57-27.59-.21-30.24h-61.28ZM189.36,70.04c25.76-6.9,31.43-8.78,57.01-15.63-2.69-10.01-5.28-19.66-7.93-29.53-25.69,6.89-31.36,8.76-56.97,15.62,2.65,9.92,5.21,19.48,7.9,29.54Zm110.7,184.74c-2.67-9.95-5.26-19.57-7.82-29.13-5.23,.56-54.74,14.43-56.94,15.85,2.56,9.51,5.13,19.06,7.78,28.89,25.66-6.88,31.32-8.74,56.98-15.62ZM96.32,61.84c.76-4.58,.57-27.69-.2-30.11H42.42c-.73,4.75-.54,27.67,.21,30.11h53.68Zm73.13-30.07h-61.74v29.9c4.42,.72,58.95,.54,61.74-.2V31.77Z"/></g></svg>