<?xml version="1.0" encoding="UTF-8"?><svg id="Layer_1" xmlns="http://www.w3.org/2000/svg" viewBox="0 0 442.97 239.85"><defs><style>.cls-1{fill:#010101;}.cls-2{fill:#fff;}.cls-3{fill:#93a5ab;}.cls-4{fill:#231f20;}.cls-5{fill:#50573f;}</style></defs><g><path class="cls-4" d="M252.3,202.47h6.24v26.13h16.67v5.75h-22.91v-31.88Z"/><path class="cls-4" d="M277.85,222.31c0-7.31,5.36-12.68,12.97-12.68s12.97,5.36,12.97,12.68-5.36,12.68-12.97,12.68-12.97-5.36-12.97-12.68Zm20.04,0c0-4.24-2.83-7.26-7.07-7.26s-7.12,3.02-7.12,7.26,2.88,7.26,7.12,7.26,7.07-3.02,7.07-7.26Z"/><path class="cls-4" d="M306.61,222.31c0-7.31,5.36-12.68,12.97-12.68,6.53,0,11.31,3.95,12.48,9.65h-5.85c-1.02-2.58-3.46-4.24-6.63-4.24-4.24,0-7.12,3.02-7.12,7.26s2.88,7.26,7.12,7.26c3.17,0,5.61-1.66,6.63-4.24h5.85c-1.17,5.7-5.95,9.65-12.48,9.65-7.61,0-12.97-5.36-12.97-12.68Z"/><path class="cls-4" d="M334.88,222.56c0-7.65,5.36-12.92,13.02-12.92s12.82,5.12,12.82,12.87v11.85h-5.31v-4.73c-1.46,3.56-4.73,5.36-8.53,5.36-5.85,0-11.99-4.19-11.99-12.43Zm20.04-.24c0-4.24-2.83-7.26-7.07-7.26s-7.12,3.02-7.12,7.26,2.88,7.26,7.12,7.26,7.07-3.02,7.07-7.26Z"/><path class="cls-4" d="M365.5,225.09v-23.35h5.8v8.53h12.43v5.27h-12.43v9.56c0,3.22,1.66,4.48,4.05,4.48s4.05-1.22,4.05-4.48v-.63h5.8v.63c0,6.68-4,9.9-9.85,9.9s-9.85-3.22-9.85-9.9Z"/><path class="cls-4" d="M387.92,222.31c0-7.31,5.36-12.68,12.97-12.68s12.97,5.36,12.97,12.68-5.36,12.68-12.97,12.68-12.97-5.36-12.97-12.68Zm20.04,0c0-4.24-2.83-7.26-7.07-7.26s-7.12,3.02-7.12,7.26,2.88,7.26,7.12,7.26,7.07-3.02,7.07-7.26Z"/><path class="cls-4" d="M417.66,220.36c0-7.26,4.29-10.73,10.58-10.73s10.53,3.46,10.53,10.82v.15h-5.75v-.24c0-3.9-1.95-5.31-4.78-5.31s-4.78,1.41-4.78,5.31v13.99h-5.8v-13.99Z"/></g><g><path class="cls-4" d="M252.3,105.41h6.24v26.13h16.67v5.75h-22.91v-31.88Z"/><path class="cls-4" d="M278.77,106.24c0-2.24,1.61-3.9,3.85-3.9s3.85,1.66,3.85,3.9-1.61,3.85-3.85,3.85-3.85-1.61-3.85-3.85Zm.93,6.97h5.8v24.08h-5.8v-24.08Z"/><path class="cls-4" d="M291.1,128.03v-23.35h5.8v8.53h12.43v5.27h-12.43v9.56c0,3.22,1.66,4.48,4.05,4.48s4.05-1.22,4.05-4.48v-.63h5.8v.63c0,6.68-4,9.9-9.85,9.9s-9.85-3.22-9.85-9.9Z"/><path class="cls-4" d="M314.5,128.03v-23.35h5.8v8.53h12.43v5.27h-12.43v9.56c0,3.22,1.66,4.48,4.05,4.48s4.05-1.22,4.05-4.48v-.63h5.8v.63c0,6.68-4,9.9-9.85,9.9s-9.85-3.22-9.85-9.9Z"/><path class="cls-4" d="M338.73,102.68h5.8v34.61h-5.8v-34.61Z"/><path class="cls-4" d="M349.17,125.26c0-7.31,5.36-12.68,12.97-12.68s12.87,5.36,12.87,12.68v2.05h-19.74c.78,3.51,3.46,5.36,6.87,5.36,2.58,0,4.49-.73,5.7-2.29h6.19c-1.8,4.58-6.19,7.56-11.9,7.56-7.61,0-12.97-5.36-12.97-12.68Zm19.7-2.58c-.93-3.22-3.56-4.83-6.73-4.83s-5.8,1.66-6.73,4.83h13.46Z"/></g><g><path class="cls-4" d="M252.3,155.04h6.24v26.13h16.67v5.75h-22.91v-31.88Z"/><path class="cls-4" d="M278.77,155.87c0-2.24,1.61-3.9,3.85-3.9s3.85,1.66,3.85,3.9-1.61,3.85-3.85,3.85-3.85-1.61-3.85-3.85Zm.93,6.97h5.8v24.08h-5.8v-24.08Z"/><path class="cls-4" d="M291.11,174.69v-22.38h5.8v14.04c1.71-2.68,4.58-4.14,8.04-4.14,5.85,0,11.99,4.19,11.99,12.43,0,7.65-5.36,12.92-13.02,12.92s-12.82-5.07-12.82-12.87Zm19.99,.2c0-4.24-2.88-7.26-7.12-7.26s-7.07,3.02-7.07,7.26,2.83,7.26,7.07,7.26,7.12-3.02,7.12-7.26Z"/><path class="cls-4" d="M320.74,172.93c0-7.26,4.29-10.73,10.58-10.73s10.53,3.46,10.53,10.82v.15h-5.75v-.24c0-3.9-1.95-5.31-4.78-5.31s-4.78,1.41-4.78,5.31v13.99h-5.8v-13.99Z"/><path class="cls-4" d="M344,175.13c0-7.65,5.36-12.92,13.02-12.92s12.82,5.12,12.82,12.87v11.85h-5.31v-4.73c-1.46,3.56-4.73,5.36-8.53,5.36-5.85,0-11.99-4.19-11.99-12.43Zm20.04-.24c0-4.24-2.83-7.26-7.07-7.26s-7.12,3.02-7.12,7.26,2.88,7.26,7.12,7.26,7.07-3.02,7.07-7.26Z"/><path class="cls-4" d="M374.61,172.93c0-7.26,4.29-10.73,10.58-10.73s10.53,3.46,10.53,10.82v.15h-5.75v-.24c0-3.9-1.95-5.31-4.78-5.31s-4.78,1.41-4.78,5.31v13.99h-5.8v-13.99Z"/><path class="cls-4" d="M399.04,189.56h5.8c.97,2.24,2.88,3.27,5.8,3.27,3.95,0,6.19-1.9,6.19-6.58v-3.02c-1.46,2.63-4,4.05-7.17,4.05-5.56,0-10.82-3.61-10.82-12.19v-12.24h5.8v12.24c0,4.58,2.44,6.78,6.09,6.78s6.09-2.29,6.09-6.78v-12.24h5.8v23.25c0,8.39-5.31,11.75-11.99,11.75-5.61,0-10.24-2.58-11.6-8.29Z"/></g><g><g><rect class="cls-5" x="7.6" y="122.35" width="233.75" height="110.76"/><path class="cls-1" d="M244.35,236.11H4.6V119.35H244.35v116.76Zm-233.75-6H238.35V125.35H10.6v104.76Z"/></g><g><rect class="cls-3" x="7.69" y="7.02" width="233.73" height="113.79"/><path class="cls-1" d="M244.42,123.81H4.69V4.02H244.42V123.81ZM10.69,117.81H238.42V10.02H10.69V117.81Z"/></g><g><rect class="cls-2" x="32.24" y="24.26" width="101.14" height="185.05"/><rect class="cls-2" x="159.19" y="21.53" width="47.12" height="184.68" transform="translate(-24.16 54.28) rotate(-15.86)"/><path d="M137.79,62.92c0,1.16,0,2.33,0,3.49,0,46.51-.01,93.01-.02,139.52,0,.99,.05,1.99-.07,2.96-.28,2.26-1.64,3.51-3.93,3.69-.81,.06-1.62,.03-2.43,.03-43.37,0-55.49,0-98.86,0-.9,0-1.81,.04-2.7-.05-2.24-.22-3.56-1.59-3.74-3.86-.06-.72-.02-1.44-.02-2.16-.01-50.91-.02-101.83-.03-152.74,0-10.16,0-20.33,.07-30.49,0-1.2,.23-2.6,.89-3.53,.59-.82,1.88-1.24,2.94-1.59,.73-.24,1.6-.06,2.41-.06,43.46,0,55.67,0,99.13,0,.36,0,.72,0,1.08,0,3.75,.04,5.03,1.23,5.25,4.92,.03,.44,.06,.88,.1,1.55,.79-.13,1.46-.19,2.1-.36,18.68-4.99,22.64-6.3,41.31-11.3,.61-.16,1.21-.34,1.83-.46,2.51-.46,4.2,.48,4.94,2.97,1.07,3.62,2.02,7.27,2.99,10.92,12.39,46.17,24.78,92.35,37.16,138.53,2.58,9.63,5.14,19.28,7.71,28.92,.21,.78,.46,1.57,.52,2.36,.16,2.13-1.08,3.58-3.66,4.29-5.03,1.38,4.64-.97-.39,.38-15.98,4.28-31.96,8.55-47.94,12.82-.78,.21-1.58,.41-2.37,.45-1.71,.09-2.95-.73-3.65-2.26-.33-.73-.49-1.54-.7-2.32-12.91-48.08-25.82-96.15-38.74-144.23-.23-.84-.48-1.68-.72-2.52-.15,.04-.31,.08-.46,.12Zm-103.52-5.73v116.32h40.59V57.2H34.27Zm95.27,116.34V57.41c-3.12-.55-44.26-.44-46.23,.09v116.03h46.23Zm47.29,1.86c19.27-5.17,23.52-6.57,42.69-11.71-10.08-37.62-20.08-74.91-30.16-112.54-19.18,5.14-23.43,6.53-42.69,11.69,10.09,37.64,20.1,75,30.16,112.56Zm-142.69,28.98c4.05,.61,38.92,.41,40.74-.16v-22.22c-4.14-.56-38.84-.36-40.74,.21v22.17Zm49.15-22.56v22.68h46.11c.55-3.12,.43-20.7-.16-22.68h-45.96Zm61.25-126.76c19.32-5.18,23.57-6.58,42.75-11.72-2.02-7.51-3.96-14.74-5.95-22.15-19.27,5.16-23.52,6.57-42.73,11.72,1.99,7.44,3.91,14.61,5.92,22.15Zm83.03,138.55c-2-7.46-3.94-14.68-5.86-21.84-3.92,.42-41.06,10.82-42.71,11.89,1.92,7.13,3.85,14.3,5.83,21.67,19.25-5.16,23.49-6.56,42.74-11.71ZM74.77,48.91c.57-3.44,.43-20.77-.15-22.58H34.35c-.55,3.56-.4,20.75,.16,22.58h40.26Zm54.85-22.55h-46.3v22.42c3.32,.54,44.21,.4,46.3-.15V26.36Z"/></g></g></svg>