<?xml version="1.0" encoding="UTF-8"?><svg id="Layer_6" xmlns="http://www.w3.org/2000/svg" viewBox="0 0 331.82 182.64"><defs><style>.cls-1{fill:#010101;}.cls-2{fill:#fff;}.cls-3{fill:#93a5ab;}.cls-4{fill:#231f20;}.cls-5{fill:#50573f;}</style></defs><g><path class="cls-4" d="M189.87,153.15h4.68v19.6h12.5v4.31h-17.18v-23.91Z"/><path class="cls-4" d="M209.03,168.03c0-5.48,4.02-9.51,9.72-9.51s9.72,4.02,9.72,9.51-4.02,9.51-9.72,9.51-9.72-4.02-9.72-9.51Zm15.03,0c0-3.18-2.12-5.45-5.3-5.45s-5.34,2.27-5.34,5.45,2.16,5.45,5.34,5.45,5.3-2.27,5.3-5.45Z"/><path class="cls-4" d="M230.6,168.03c0-5.48,4.02-9.51,9.72-9.51,4.9,0,8.48,2.96,9.36,7.24h-4.39c-.77-1.94-2.6-3.18-4.97-3.18-3.18,0-5.34,2.27-5.34,5.45s2.16,5.45,5.34,5.45c2.38,0,4.2-1.24,4.97-3.18h4.39c-.88,4.28-4.46,7.24-9.36,7.24-5.7,0-9.72-4.02-9.72-9.51Z"/><path class="cls-4" d="M251.81,168.21c0-5.74,4.02-9.69,9.76-9.69s9.62,3.84,9.62,9.65v8.88h-3.99v-3.55c-1.1,2.67-3.55,4.02-6.4,4.02-4.39,0-8.99-3.14-8.99-9.32Zm15.03-.18c0-3.18-2.12-5.45-5.3-5.45s-5.34,2.27-5.34,5.45,2.16,5.45,5.34,5.45,5.3-2.27,5.3-5.45Z"/><path class="cls-4" d="M274.77,170.11v-17.51h4.35v6.4h9.32v3.95h-9.32v7.17c0,2.41,1.24,3.36,3.04,3.36s3.03-.91,3.03-3.36v-.47h4.35v.47c0,5.01-3,7.42-7.38,7.42s-7.39-2.41-7.39-7.42Z"/><path class="cls-4" d="M291.59,168.03c0-5.48,4.02-9.51,9.72-9.51s9.72,4.02,9.72,9.51-4.02,9.51-9.72,9.51-9.72-4.02-9.72-9.51Zm15.03,0c0-3.18-2.12-5.45-5.3-5.45s-5.34,2.27-5.34,5.45,2.16,5.45,5.34,5.45,5.3-2.27,5.3-5.45Z"/><path class="cls-4" d="M313.89,166.57c0-5.45,3.22-8.04,7.93-8.04s7.9,2.6,7.9,8.12v.11h-4.31v-.18c0-2.92-1.46-3.99-3.58-3.99s-3.58,1.06-3.58,3.99v10.49h-4.35v-10.49Z"/></g><g><path class="cls-4" d="M189.87,80.36h4.68v19.6h12.5v4.31h-17.18v-23.91Z"/><path class="cls-4" d="M209.73,80.98c0-1.68,1.21-2.92,2.89-2.92s2.89,1.24,2.89,2.92-1.21,2.89-2.89,2.89-2.89-1.21-2.89-2.89Zm.69,5.23h4.35v18.06h-4.35v-18.06Z"/><path class="cls-4" d="M218.98,97.32v-17.51h4.35v6.4h9.32v3.95h-9.32v7.17c0,2.41,1.24,3.36,3.03,3.36s3.03-.91,3.03-3.36v-.48h4.35v.48c0,5.01-3,7.42-7.38,7.42s-7.39-2.41-7.39-7.42Z"/><path class="cls-4" d="M236.52,97.32v-17.51h4.35v6.4h9.32v3.95h-9.32v7.17c0,2.41,1.24,3.36,3.04,3.36s3.03-.91,3.03-3.36v-.48h4.35v.48c0,5.01-3,7.42-7.38,7.42s-7.39-2.41-7.39-7.42Z"/><path class="cls-4" d="M254.7,78.31h4.35v25.96h-4.35v-25.96Z"/><path class="cls-4" d="M262.52,95.24c0-5.48,4.02-9.51,9.72-9.51s9.65,4.02,9.65,9.51v1.54h-14.81c.58,2.63,2.6,4.02,5.16,4.02,1.94,0,3.36-.55,4.28-1.72h4.64c-1.35,3.44-4.64,5.67-8.92,5.67-5.7,0-9.72-4.02-9.72-9.5Zm14.77-1.94c-.69-2.41-2.67-3.62-5.04-3.62s-4.35,1.24-5.04,3.62h10.09Z"/></g><g><path class="cls-4" d="M189.87,117.58h4.68v19.6h12.5v4.31h-17.18v-23.91Z"/><path class="cls-4" d="M209.73,118.2c0-1.68,1.21-2.93,2.89-2.93s2.89,1.24,2.89,2.93-1.21,2.89-2.89,2.89-2.89-1.21-2.89-2.89Zm.69,5.23h4.35v18.06h-4.35v-18.06Z"/><path class="cls-4" d="M218.98,132.31v-16.78h4.35v10.53c1.28-2.01,3.44-3.11,6.03-3.11,4.39,0,8.99,3.14,8.99,9.32,0,5.74-4.02,9.69-9.76,9.69s-9.62-3.8-9.62-9.65Zm14.99,.15c0-3.18-2.16-5.45-5.34-5.45s-5.3,2.27-5.3,5.45,2.12,5.45,5.3,5.45,5.34-2.27,5.34-5.45Z"/><path class="cls-4" d="M241.21,130.99c0-5.45,3.22-8.04,7.93-8.04s7.9,2.6,7.9,8.12v.11h-4.31v-.18c0-2.92-1.46-3.98-3.58-3.98s-3.58,1.06-3.58,3.98v10.49h-4.35v-10.49Z"/><path class="cls-4" d="M258.65,132.64c0-5.74,4.02-9.69,9.76-9.69s9.62,3.84,9.62,9.65v8.88h-3.99v-3.55c-1.1,2.67-3.55,4.02-6.4,4.02-4.39,0-8.99-3.14-8.99-9.32Zm15.03-.18c0-3.18-2.12-5.45-5.3-5.45s-5.34,2.27-5.34,5.45,2.16,5.45,5.34,5.45,5.3-2.27,5.3-5.45Z"/><path class="cls-4" d="M281.61,130.99c0-5.45,3.22-8.04,7.93-8.04s7.9,2.6,7.9,8.12v.11h-4.31v-.18c0-2.92-1.46-3.98-3.58-3.98s-3.58,1.06-3.58,3.98v10.49h-4.35v-10.49Z"/><path class="cls-4" d="M299.92,143.46h4.35c.73,1.68,2.16,2.45,4.35,2.45,2.96,0,4.64-1.43,4.64-4.94v-2.27c-1.1,1.97-3,3.03-5.37,3.03-4.17,0-8.12-2.71-8.12-9.14v-9.18h4.35v9.18c0,3.44,1.83,5.08,4.57,5.08s4.57-1.72,4.57-5.08v-9.18h4.35v17.44c0,6.29-3.99,8.81-8.99,8.81-4.2,0-7.68-1.94-8.7-6.22Z"/></g><g><g><rect class="cls-5" x="6.35" y="93.06" width="175.32" height="83.07"/><path class="cls-1" d="M184.16,178.63H3.85V90.56H184.16v88.07Zm-175.32-5H179.16V95.56H8.85v78.07Z"/></g><g><rect class="cls-3" x="6.42" y="6.56" width="175.3" height="85.34"/><path class="cls-1" d="M184.21,94.4H3.92V4.06H184.21V94.4ZM8.92,89.4H179.21V9.06H8.92V89.4Z"/></g><g><rect class="cls-2" x="24.82" y="19.49" width="75.86" height="138.78"/><rect class="cls-2" x="120.04" y="17.44" width="35.34" height="138.51" transform="translate(-18.45 40.94) rotate(-15.86)"/><path d="M103.99,48.49c0,.87,0,1.75,0,2.62,0,34.88,0,69.76-.02,104.64,0,.74,.04,1.49-.05,2.22-.21,1.69-1.23,2.63-2.95,2.77-.6,.05-1.21,.02-1.82,.02-32.53,0-41.61,0-74.14,0-.67,0-1.35,.03-2.02-.03-1.68-.16-2.67-1.19-2.81-2.89-.04-.54-.01-1.08-.01-1.62,0-38.18-.02-76.37-.02-114.55,0-7.62,0-15.25,.05-22.87,0-.9,.17-1.95,.67-2.65,.44-.62,1.41-.93,2.21-1.19,.55-.18,1.2-.05,1.81-.05,32.6,0,41.75,0,74.35,0,.27,0,.54,0,.81,0,2.81,.03,3.77,.93,3.94,3.69,.02,.33,.04,.66,.07,1.17,.59-.1,1.1-.14,1.58-.27,14.01-3.74,16.98-4.73,30.98-8.47,.46-.12,.91-.26,1.37-.34,1.88-.35,3.15,.36,3.7,2.23,.81,2.71,1.51,5.46,2.25,8.19,9.29,34.63,18.58,69.26,27.87,103.89,1.94,7.23,3.86,14.46,5.78,21.69,.16,.59,.34,1.18,.39,1.77,.12,1.6-.81,2.69-2.74,3.22-3.77,1.03,3.48-.73-.3,.28-11.98,3.21-23.97,6.42-35.96,9.61-.58,.16-1.18,.31-1.78,.34-1.28,.07-2.21-.55-2.74-1.7-.25-.54-.37-1.15-.53-1.74-9.68-36.06-19.37-72.12-29.05-108.17-.17-.63-.36-1.26-.54-1.89-.12,.03-.23,.06-.35,.09Zm-77.64-4.29v87.24h30.44V44.19H26.35Zm71.45,87.25V44.35c-2.34-.41-33.19-.33-34.68,.07v87.02h34.68Zm35.47,1.4c14.45-3.87,17.64-4.93,32.02-8.78-7.56-28.22-15.06-56.18-22.62-84.41-14.39,3.85-17.57,4.9-32.02,8.77,7.57,28.23,15.07,56.25,22.62,84.42Zm-107.02,21.74c3.04,.46,29.19,.31,30.55-.12v-16.67c-3.1-.42-29.13-.27-30.55,.16v16.63Zm36.86-16.92v17.01h34.59c.41-2.34,.32-15.52-.12-17.01H63.12ZM109.06,42.59c14.49-3.88,17.68-4.94,32.07-8.79-1.51-5.63-2.97-11.06-4.46-16.61-14.45,3.87-17.64,4.93-32.05,8.79,1.49,5.58,2.93,10.95,4.44,16.61Zm62.27,103.91c-1.5-5.6-2.96-11.01-4.4-16.38-2.94,.32-30.79,8.12-32.03,8.92,1.44,5.35,2.89,10.72,4.37,16.25,14.44-3.87,17.62-4.92,32.05-8.78ZM56.72,37.98c.43-2.58,.32-15.58-.11-16.93H26.41c-.41,2.67-.3,15.56,.12,16.93h30.2Zm41.14-16.91H63.13v16.82c2.49,.4,33.16,.3,34.73-.11V21.07Z"/></g></g></svg>