<?xml version="1.0" encoding="UTF-8"?><svg id="Layer_17" xmlns="http://www.w3.org/2000/svg" viewBox="0 0 140.57 187"><defs><style>.cls-1{fill:#010101;}.cls-2{fill:#fff;}.cls-3{fill:#93a5ab;}.cls-4{fill:#231f20;}.cls-5{fill:#50573f;}</style></defs><g><g><rect class="cls-5" x="4.79" y="90.16" width="131.49" height="62.3"/><path class="cls-1" d="M138.78,154.96H2.29V87.66H138.78v67.3ZM7.29,149.96h126.49v-57.3H7.29v57.3Z"/></g><g><rect class="cls-3" x="4.85" y="25.28" width="131.47" height="64"/><path class="cls-1" d="M138.82,91.79H2.35V22.78H138.82V91.79ZM7.35,86.79h126.47V27.78H7.35v59Z"/></g><g><rect class="cls-2" x="18.65" y="34.98" width="56.89" height="104.09"/><rect class="cls-2" x="90.07" y="33.44" width="26.51" height="103.88" transform="translate(-19.4 31.49) rotate(-15.86)"/><path d="M78.03,56.73c0,.65,0,1.31,0,1.96,0,26.16,0,52.32-.01,78.48,0,.56,.03,1.12-.04,1.67-.16,1.27-.92,1.97-2.21,2.07-.45,.04-.91,.02-1.37,.02-24.4,0-31.21,0-55.61,0-.51,0-1.02,.02-1.52-.03-1.26-.12-2-.89-2.1-2.17-.03-.4-.01-.81-.01-1.21,0-28.64-.01-57.28-.02-85.92,0-5.72,0-11.44,.04-17.15,0-.67,.13-1.46,.5-1.99,.33-.46,1.06-.7,1.65-.9,.41-.14,.9-.04,1.36-.04,24.45,0,31.31,0,55.76,0,.2,0,.4,0,.61,0,2.11,.02,2.83,.69,2.96,2.77,.02,.25,.03,.49,.06,.87,.44-.07,.82-.11,1.18-.2,10.5-2.8,12.73-3.55,23.24-6.36,.34-.09,.68-.19,1.03-.26,1.41-.26,2.36,.27,2.78,1.67,.6,2.03,1.13,4.09,1.68,6.14,6.97,25.97,13.94,51.95,20.9,77.92,1.45,5.42,2.89,10.84,4.34,16.27,.12,.44,.26,.88,.29,1.33,.09,1.2-.61,2.02-2.06,2.41-2.83,.77,2.61-.54-.22,.21-8.99,2.41-17.98,4.81-26.97,7.21-.44,.12-.89,.23-1.33,.26-.96,.05-1.66-.41-2.05-1.27-.19-.41-.28-.86-.4-1.3-7.26-27.04-14.53-54.09-21.79-81.13-.13-.47-.27-.94-.41-1.42-.09,.02-.17,.04-.26,.07Zm-58.23-3.22V118.93h22.83V53.51H19.8Zm53.59,65.44V53.62c-1.75-.31-24.9-.25-26.01,.05V118.95h26.01Zm26.6,1.05c10.84-2.91,13.23-3.7,24.02-6.59-5.67-21.16-11.29-42.14-16.97-63.31-10.79,2.89-13.18,3.68-24.02,6.58,5.67,21.18,11.3,42.19,16.97,63.32Zm-80.26,16.3c2.28,.34,21.89,.23,22.92-.09v-12.5c-2.33-.32-21.85-.2-22.92,.12v12.47Zm27.65-12.69v12.76h25.94c.31-1.76,.24-11.64-.09-12.76h-25.85ZM81.83,52.31c10.87-2.91,13.26-3.7,24.05-6.59-1.13-4.22-2.23-8.29-3.35-12.46-10.84,2.9-13.23,3.69-24.04,6.59,1.12,4.18,2.2,8.22,3.33,12.46Zm46.7,77.94c-1.13-4.2-2.22-8.26-3.3-12.29-2.21,.24-23.09,6.09-24.02,6.69,1.08,4.01,2.16,8.04,3.28,12.19,10.83-2.9,13.21-3.69,24.04-6.59ZM42.58,48.85c.32-1.93,.24-11.68-.08-12.7H19.84c-.31,2-.23,11.67,.09,12.7h22.65Zm30.85-12.68h-26.04v12.61c1.87,.3,24.87,.23,26.04-.09v-12.53Z"/></g></g><g><path class="cls-4" d="M3.01,159.35H7.53v19.29h12.1v4.25H3.01v-23.54Z"/><path class="cls-4" d="M21.54,174c0-5.4,3.89-9.36,9.41-9.36s9.41,3.96,9.41,9.36-3.89,9.36-9.41,9.36-9.41-3.96-9.41-9.36Zm14.54,0c0-3.13-2.05-5.36-5.13-5.36s-5.16,2.23-5.16,5.36,2.09,5.36,5.16,5.36,5.13-2.23,5.13-5.36Z"/><path class="cls-4" d="M42.4,174c0-5.4,3.89-9.36,9.41-9.36,4.74,0,8.21,2.92,9.05,7.13h-4.25c-.74-1.91-2.51-3.13-4.81-3.13-3.08,0-5.16,2.23-5.16,5.36s2.09,5.36,5.16,5.36c2.3,0,4.07-1.22,4.81-3.13h4.25c-.85,4.21-4.32,7.13-9.05,7.13-5.52,0-9.41-3.96-9.41-9.36Z"/><path class="cls-4" d="M62.92,174.18c0-5.65,3.89-9.54,9.44-9.54s9.3,3.78,9.3,9.5v8.75h-3.86v-3.49c-1.06,2.63-3.43,3.96-6.19,3.96-4.24,0-8.7-3.1-8.7-9.18Zm14.54-.18c0-3.13-2.05-5.36-5.13-5.36s-5.16,2.23-5.16,5.36,2.09,5.36,5.16,5.36,5.13-2.23,5.13-5.36Z"/><path class="cls-4" d="M85.13,176.06v-17.24h4.21v6.3h9.02v3.89h-9.02v7.05c0,2.38,1.2,3.31,2.94,3.31s2.94-.9,2.94-3.31v-.47h4.21v.47c0,4.93-2.9,7.31-7.14,7.31s-7.14-2.38-7.14-7.31Z"/><path class="cls-4" d="M101.39,174c0-5.4,3.89-9.36,9.41-9.36s9.41,3.96,9.41,9.36-3.89,9.36-9.41,9.36-9.41-3.96-9.41-9.36Zm14.54,0c0-3.13-2.05-5.36-5.13-5.36s-5.16,2.23-5.16,5.36,2.09,5.36,5.16,5.36,5.13-2.23,5.13-5.36Z"/><path class="cls-4" d="M122.97,172.56c0-5.36,3.11-7.92,7.67-7.92s7.64,2.56,7.64,7.99v.11h-4.17v-.18c0-2.88-1.42-3.92-3.47-3.92s-3.47,1.04-3.47,3.92v10.33h-4.21v-10.33Z"/></g><g><path class="cls-4" d="M3.55,2.72h2.62V13.7h7.01v2.42H3.55V2.72Z"/><path class="cls-4" d="M14.68,3.07c0-.94,.68-1.64,1.62-1.64s1.62,.7,1.62,1.64-.68,1.62-1.62,1.62-1.62-.68-1.62-1.62Zm.39,2.93h2.44v10.12h-2.44V6Z"/><path class="cls-4" d="M19.87,12.23V2.41h2.44v3.59h5.23v2.21h-5.23v4.02c0,1.35,.7,1.89,1.7,1.89s1.7-.51,1.7-1.89v-.27h2.44v.27c0,2.81-1.68,4.16-4.14,4.16s-4.14-1.35-4.14-4.16Z"/><path class="cls-4" d="M29.71,12.23V2.41h2.44v3.59h5.23v2.21h-5.23v4.02c0,1.35,.7,1.89,1.7,1.89s1.7-.51,1.7-1.89v-.27h2.44v.27c0,2.81-1.68,4.16-4.14,4.16s-4.14-1.35-4.14-4.16Z"/><path class="cls-4" d="M39.9,1.57h2.44v14.55h-2.44V1.57Z"/><path class="cls-4" d="M44.29,11.06c0-3.07,2.25-5.33,5.45-5.33s5.41,2.25,5.41,5.33v.86h-8.3c.33,1.48,1.45,2.25,2.89,2.25,1.09,0,1.89-.31,2.4-.96h2.6c-.76,1.93-2.6,3.18-5,3.18-3.2,0-5.45-2.25-5.45-5.33Zm8.28-1.09c-.39-1.35-1.5-2.03-2.83-2.03s-2.44,.7-2.83,2.03h5.66Z"/></g><g><path class="cls-4" d="M67.03,2.72h2.62V13.7h7.01v2.42h-9.63V2.72Z"/><path class="cls-4" d="M78.16,3.07c0-.94,.68-1.64,1.62-1.64s1.62,.7,1.62,1.64-.68,1.62-1.62,1.62-1.62-.68-1.62-1.62Zm.39,2.93h2.44v10.12h-2.44V6Z"/><path class="cls-4" d="M83.35,10.98V1.57h2.44V7.47c.72-1.13,1.93-1.74,3.38-1.74,2.46,0,5.04,1.76,5.04,5.23,0,3.22-2.25,5.43-5.47,5.43s-5.39-2.13-5.39-5.41Zm8.4,.08c0-1.78-1.21-3.05-2.99-3.05s-2.97,1.27-2.97,3.05,1.19,3.05,2.97,3.05,2.99-1.27,2.99-3.05Z"/><path class="cls-4" d="M95.81,10.24c0-3.05,1.8-4.51,4.45-4.51s4.43,1.46,4.43,4.55v.06h-2.42v-.1c0-1.64-.82-2.23-2.01-2.23s-2.01,.59-2.01,2.23v5.88h-2.44v-5.88Z"/><path class="cls-4" d="M105.59,11.16c0-3.22,2.25-5.43,5.47-5.43s5.39,2.15,5.39,5.41v4.98h-2.23v-1.99c-.62,1.5-1.99,2.25-3.59,2.25-2.46,0-5.04-1.76-5.04-5.23Zm8.42-.1c0-1.78-1.19-3.05-2.97-3.05s-2.99,1.27-2.99,3.05,1.21,3.05,2.99,3.05,2.97-1.27,2.97-3.05Z"/><path class="cls-4" d="M118.47,10.24c0-3.05,1.8-4.51,4.45-4.51s4.43,1.46,4.43,4.55v.06h-2.42v-.1c0-1.64-.82-2.23-2.01-2.23s-2.01,.59-2.01,2.23v5.88h-2.44v-5.88Z"/><path class="cls-4" d="M128.74,17.23h2.44c.41,.94,1.21,1.37,2.44,1.37,1.66,0,2.6-.8,2.6-2.77v-1.27c-.61,1.11-1.68,1.7-3.01,1.7-2.34,0-4.55-1.52-4.55-5.12V6h2.44v5.14c0,1.93,1.03,2.85,2.56,2.85s2.56-.96,2.56-2.85V6h2.44V15.77c0,3.52-2.23,4.94-5.04,4.94-2.36,0-4.3-1.09-4.88-3.48Z"/></g></svg>