<?xml version="1.0" encoding="UTF-8"?><svg id="Layer_15" xmlns="http://www.w3.org/2000/svg" viewBox="0 0 643.22 620.72"><defs><style>.cls-1{fill:#010101;}.cls-2{fill:#fff;}.cls-3{fill:#93a5ab;}.cls-4{fill:#50573f;}</style></defs><g><rect class="cls-4" x="10.26" y="316.73" width="623.34" height="295.35"/><path class="cls-1" d="M637.6,616.08H6.26V312.73H637.6v303.35ZM14.26,608.08H629.6V320.73H14.26v287.35Z"/></g><g><rect class="cls-3" x="10.5" y="9.19" width="623.27" height="303.43"/><path class="cls-1" d="M637.78,316.62H6.5V5.19H637.78V316.62ZM14.5,308.62H629.78V13.19H14.5V308.62Z"/></g><g><rect class="cls-2" x="75.96" y="55.16" width="269.71" height="493.45"/><rect class="cls-2" x="414.51" y="47.88" width="125.66" height="492.48" transform="translate(-62.21 141.65) rotate(-15.86)"/><path d="M357.43,158.25c0,3.1,0,6.21,0,9.31-.02,124.02-.03,248.03-.06,372.04,0,2.64,.14,5.3-.18,7.91-.75,6.02-4.37,9.35-10.48,9.83-2.15,.17-4.32,.08-6.48,.08-115.66,0-147.96,0-263.62,0-2.4,0-4.81,.11-7.19-.12-5.98-.58-9.5-4.24-9.98-10.28-.15-1.91-.05-3.84-.05-5.75-.03-135.77-.07-271.54-.09-407.31,0-27.11-.02-54.21,.18-81.32,.02-3.2,.61-6.94,2.37-9.41,1.57-2.19,5.01-3.31,7.85-4.24,1.95-.64,4.28-.17,6.44-.17,115.9,0,148.44,0,264.35,0,.96,0,1.92,0,2.88,0,10.01,.1,13.41,3.29,14.01,13.12,.07,1.17,.15,2.34,.26,4.14,2.1-.35,3.9-.5,5.61-.96,49.8-13.29,60.36-16.81,110.16-30.13,1.62-.43,3.24-.91,4.88-1.22,6.69-1.23,11.2,1.27,13.17,7.92,2.86,9.65,5.37,19.4,7.98,29.12,33.04,123.13,66.07,246.26,99.09,369.4,6.89,25.69,13.72,51.4,20.56,77.11,.55,2.08,1.22,4.18,1.38,6.3,.42,5.68-2.88,9.56-9.76,11.44-13.41,3.67,12.38-2.58-1.05,1.01-42.61,11.4-85.22,22.81-127.84,34.19-2.07,.55-4.2,1.1-6.33,1.21-4.55,.24-7.86-1.96-9.74-6.03-.89-1.94-1.31-4.1-1.87-6.18-34.44-128.2-68.86-256.41-103.3-384.62-.6-2.25-1.28-4.48-1.93-6.71-.41,.1-.82,.21-1.24,.31Zm-276.05-15.27V453.16h108.24V142.98H81.38Zm254.06,310.23V143.54c-8.31-1.46-118.02-1.17-123.29,.25V453.22h123.29Zm126.12,4.96c51.38-13.77,62.72-17.52,113.85-31.23-26.89-100.33-53.53-199.75-80.43-300.12-51.16,13.7-62.48,17.42-113.85,31.18,26.9,100.39,53.59,200,80.43,300.17Zm-380.5,77.29c10.79,1.62,103.79,1.1,108.64-.44v-59.26c-11.03-1.5-103.58-.97-108.64,.57v59.13Zm131.07-60.15v60.48h122.97c1.47-8.32,1.14-55.19-.41-60.48h-122.55ZM375.46,137.3c51.52-13.81,62.85-17.55,114.01-31.26-5.37-20.02-10.56-39.32-15.86-59.06-51.38,13.77-62.71,17.52-113.95,31.25,5.3,19.83,10.41,38.95,15.79,59.07Zm221.4,369.47c-5.34-19.9-10.51-39.15-15.64-58.25-10.46,1.13-109.49,28.86-113.88,31.7,5.12,19.02,10.26,38.12,15.55,57.78,51.33-13.75,62.64-17.48,113.97-31.23ZM189.37,120.89c1.53-9.16,1.14-55.38-.4-60.21H81.58c-1.46,9.49-1.08,55.34,.42,60.21h107.37Zm146.26-60.13h-123.47v59.8c8.85,1.43,117.9,1.07,123.47-.41V60.76Z"/></g></svg>