<?xml version="1.0" encoding="UTF-8"?><svg id="Layer_8" xmlns="http://www.w3.org/2000/svg" viewBox="0 0 190.88 106.36"><defs><style>.cls-1{fill:#010101;}.cls-2{fill:#fff;}.cls-3{fill:#93a5ab;}.cls-4{fill:#231f20;}.cls-5{fill:#50573f;}</style></defs><g><path class="cls-4" d="M110.79,88.2h2.63v11.03h7.04v2.43h-9.67v-13.45Z"/><path class="cls-4" d="M121.56,96.57c0-3.09,2.26-5.35,5.47-5.35s5.47,2.26,5.47,5.35-2.26,5.35-5.47,5.35-5.47-2.26-5.47-5.35Zm8.45,0c0-1.79-1.19-3.07-2.98-3.07s-3,1.28-3,3.07,1.21,3.06,3,3.06,2.98-1.28,2.98-3.06Z"/><path class="cls-4" d="M133.7,96.57c0-3.09,2.26-5.35,5.47-5.35,2.76,0,4.77,1.67,5.27,4.07h-2.47c-.43-1.09-1.46-1.79-2.8-1.79-1.79,0-3,1.28-3,3.07s1.21,3.06,3,3.06c1.34,0,2.37-.7,2.8-1.79h2.47c-.49,2.41-2.51,4.07-5.27,4.07-3.21,0-5.47-2.26-5.47-5.35Z"/><path class="cls-4" d="M145.63,96.67c0-3.23,2.26-5.45,5.49-5.45s5.41,2.16,5.41,5.43v5h-2.24v-2c-.62,1.5-2,2.26-3.6,2.26-2.47,0-5.06-1.77-5.06-5.25Zm8.45-.1c0-1.79-1.19-3.07-2.98-3.07s-3,1.28-3,3.07,1.21,3.06,3,3.06,2.98-1.28,2.98-3.06Z"/><path class="cls-4" d="M158.54,97.74v-9.85h2.45v3.6h5.24v2.22h-5.24v4.03c0,1.36,.7,1.89,1.71,1.89s1.71-.51,1.71-1.89v-.27h2.45v.27c0,2.82-1.69,4.18-4.15,4.18s-4.16-1.36-4.16-4.18Z"/><path class="cls-4" d="M168,96.57c0-3.09,2.26-5.35,5.47-5.35s5.47,2.26,5.47,5.35-2.26,5.35-5.47,5.35-5.47-2.26-5.47-5.35Zm8.45,0c0-1.79-1.19-3.07-2.98-3.07s-3,1.28-3,3.07,1.21,3.06,3,3.06,2.98-1.28,2.98-3.06Z"/><path class="cls-4" d="M180.55,95.75c0-3.06,1.81-4.52,4.46-4.52s4.44,1.46,4.44,4.57v.06h-2.43v-.1c0-1.65-.82-2.24-2.02-2.24s-2.02,.6-2.02,2.24v5.9h-2.45v-5.9Z"/></g><g><path class="cls-4" d="M110.79,47.25h2.63v11.03h7.04v2.43h-9.67v-13.45Z"/><path class="cls-4" d="M121.96,47.6c0-.95,.68-1.65,1.62-1.65s1.62,.7,1.62,1.65-.68,1.62-1.62,1.62-1.62-.68-1.62-1.62Zm.39,2.94h2.45v10.16h-2.45v-10.16Z"/><path class="cls-4" d="M127.16,56.8v-9.85h2.45v3.6h5.24v2.22h-5.24v4.03c0,1.36,.7,1.89,1.71,1.89s1.71-.51,1.71-1.89v-.27h2.45v.27c0,2.82-1.69,4.18-4.15,4.18s-4.16-1.36-4.16-4.18Z"/><path class="cls-4" d="M137.03,56.8v-9.85h2.45v3.6h5.25v2.22h-5.25v4.03c0,1.36,.7,1.89,1.71,1.89s1.71-.51,1.71-1.89v-.27h2.45v.27c0,2.82-1.69,4.18-4.15,4.18s-4.16-1.36-4.16-4.18Z"/><path class="cls-4" d="M147.25,46.1h2.45v14.6h-2.45v-14.6Z"/><path class="cls-4" d="M151.65,55.63c0-3.09,2.26-5.35,5.47-5.35s5.43,2.26,5.43,5.35v.86h-8.33c.33,1.48,1.46,2.26,2.9,2.26,1.09,0,1.89-.31,2.41-.97h2.61c-.76,1.93-2.61,3.19-5.02,3.19-3.21,0-5.47-2.26-5.47-5.35Zm8.31-1.09c-.39-1.36-1.5-2.04-2.84-2.04s-2.45,.7-2.84,2.04h5.68Z"/></g><g><path class="cls-4" d="M110.79,68.19h2.63v11.03h7.04v2.43h-9.67v-13.45Z"/><path class="cls-4" d="M121.96,68.54c0-.95,.68-1.65,1.62-1.65s1.62,.7,1.62,1.65-.68,1.62-1.62,1.62-1.62-.68-1.62-1.62Zm.39,2.94h2.45v10.16h-2.45v-10.16Z"/><path class="cls-4" d="M127.16,76.48v-9.44h2.45v5.92c.72-1.13,1.93-1.75,3.39-1.75,2.47,0,5.06,1.77,5.06,5.24,0,3.23-2.26,5.45-5.49,5.45s-5.41-2.14-5.41-5.43Zm8.43,.08c0-1.79-1.21-3.07-3-3.07s-2.98,1.28-2.98,3.07,1.19,3.06,2.98,3.06,3-1.28,3-3.06Z"/><path class="cls-4" d="M139.66,75.74c0-3.06,1.81-4.52,4.46-4.52s4.44,1.46,4.44,4.57v.06h-2.43v-.1c0-1.65-.82-2.24-2.02-2.24s-2.02,.6-2.02,2.24v5.9h-2.45v-5.9Z"/><path class="cls-4" d="M149.47,76.66c0-3.23,2.26-5.45,5.49-5.45s5.41,2.16,5.41,5.43v5h-2.24v-2c-.62,1.5-2,2.26-3.6,2.26-2.47,0-5.06-1.77-5.06-5.25Zm8.45-.1c0-1.79-1.19-3.07-2.98-3.07s-3,1.28-3,3.07,1.21,3.06,3,3.06,2.98-1.28,2.98-3.06Z"/><path class="cls-4" d="M162.39,75.74c0-3.06,1.81-4.52,4.46-4.52s4.44,1.46,4.44,4.57v.06h-2.43v-.1c0-1.65-.82-2.24-2.02-2.24s-2.02,.6-2.02,2.24v5.9h-2.45v-5.9Z"/><path class="cls-4" d="M172.69,82.75h2.45c.41,.95,1.21,1.38,2.45,1.38,1.67,0,2.61-.8,2.61-2.78v-1.28c-.62,1.11-1.69,1.71-3.02,1.71-2.34,0-4.57-1.52-4.57-5.14v-5.16h2.45v5.16c0,1.93,1.03,2.86,2.57,2.86s2.57-.97,2.57-2.86v-5.16h2.45v9.81c0,3.54-2.24,4.96-5.06,4.96-2.37,0-4.32-1.09-4.9-3.5Z"/></g><g><g><rect class="cls-5" x="5.92" y="54.4" width="98.61" height="46.73"/><path class="cls-1" d="M106.53,103.13H3.92V52.4H106.53v50.73ZM7.92,99.13H102.53V56.4H7.92v42.73Z"/></g><g><rect class="cls-3" x="5.96" y="5.75" width="98.6" height="48"/><path class="cls-1" d="M106.56,55.75H3.96V3.75H106.56V55.75ZM7.96,51.75H102.56V7.75H7.96V51.75Z"/></g><g><rect class="cls-2" x="16.31" y="13.02" width="42.67" height="78.07"/><rect class="cls-2" x="69.87" y="11.87" width="19.88" height="77.91" transform="translate(-10.85 23.75) rotate(-15.86)"/><path d="M60.84,29.33c0,.49,0,.98,0,1.47,0,19.62,0,39.24,0,58.86,0,.42,.02,.84-.03,1.25-.12,.95-.69,1.48-1.66,1.56-.34,.03-.68,.01-1.02,.01-18.3,0-23.41,0-41.71,0-.38,0-.76,.02-1.14-.02-.95-.09-1.5-.67-1.58-1.63-.02-.3,0-.61,0-.91,0-21.48-.01-42.96-.01-64.44,0-4.29,0-8.58,.03-12.86,0-.51,.1-1.1,.38-1.49,.25-.35,.79-.52,1.24-.67,.31-.1,.68-.03,1.02-.03,18.34,0,23.48,0,41.82,0,.15,0,.3,0,.46,0,1.58,.02,2.12,.52,2.22,2.08,.01,.19,.02,.37,.04,.66,.33-.06,.62-.08,.89-.15,7.88-2.1,9.55-2.66,17.43-4.77,.26-.07,.51-.14,.77-.19,1.06-.19,1.77,.2,2.08,1.25,.45,1.53,.85,3.07,1.26,4.61,5.23,19.48,10.45,38.96,15.68,58.44,1.09,4.06,2.17,8.13,3.25,12.2,.09,.33,.19,.66,.22,1,.07,.9-.46,1.51-1.54,1.81-2.12,.58,1.96-.41-.17,.16-6.74,1.8-13.48,3.61-20.22,5.41-.33,.09-.66,.17-1,.19-.72,.04-1.24-.31-1.54-.95-.14-.31-.21-.65-.3-.98-5.45-20.28-10.89-40.57-16.34-60.85-.1-.36-.2-.71-.31-1.06-.07,.02-.13,.03-.2,.05Zm-43.67-2.42v49.07h17.12V26.91H17.17Zm40.19,49.08V27c-1.31-.23-18.67-.19-19.51,.04v48.95h19.51Zm19.95,.78c8.13-2.18,9.92-2.77,18.01-4.94-4.25-15.87-8.47-31.6-12.72-47.48-8.09,2.17-9.88,2.76-18.01,4.93,4.26,15.88,8.48,31.64,12.72,47.49Zm-60.2,12.23c1.71,.26,16.42,.17,17.19-.07v-9.37c-1.75-.24-16.39-.15-17.19,.09v9.35Zm20.74-9.52v9.57h19.45c.23-1.32,.18-8.73-.07-9.57h-19.39ZM63.7,26.02c8.15-2.18,9.94-2.78,18.04-4.95-.85-3.17-1.67-6.22-2.51-9.34-8.13,2.18-9.92,2.77-18.03,4.94,.84,3.14,1.65,6.16,2.5,9.35Zm35.03,58.45c-.85-3.15-1.66-6.19-2.47-9.22-1.66,.18-17.32,4.57-18.02,5.02,.81,3.01,1.62,6.03,2.46,9.14,8.12-2.18,9.91-2.77,18.03-4.94ZM34.26,23.42c.24-1.45,.18-8.76-.06-9.53H17.2c-.23,1.5-.17,8.76,.07,9.53h16.99Zm23.14-9.51h-19.53v9.46c1.4,.23,18.65,.17,19.53-.06V13.91Z"/></g></g></svg>