<?xml version="1.0" encoding="UTF-8"?><svg id="Layer_15" xmlns="http://www.w3.org/2000/svg" viewBox="0 0 36 36"><defs><style>.cls-1{fill:#2bb673;}</style></defs><path class="cls-1" d="M17.51,34.77c-1.11-1.39-2.2-2.73-3.27-4.1-2.25-2.9-4.38-5.88-6.07-9.15-.98-1.91-1.78-3.88-2.17-6C4.82,9.12,9.13,2.76,15.51,1.48c6.7-1.34,13.03,2.83,14.43,9.51,.53,2.55,.18,5.04-.66,7.47-.99,2.87-2.58,5.41-4.39,7.82-1.98,2.65-4.23,5.08-6.48,7.51-.29,.31-.58,.63-.91,.98Z"/><path d="M18,3.74c-5.11,0-9.6,4.86-9.6,10.4,0,2.36,1.76,5.71,5.23,9.94,1.08,1.31,2.67,2.06,4.37,2.06s3.29-.75,4.37-2.06c3.47-4.24,5.23-7.58,5.23-9.94,0-5.54-4.49-10.4-9.6-10.4Zm-7.2,9.6v-.8c0-.44,.36-.8,.8-.8h.8c2.21,0,4,1.79,4,4v1.6c0,.44-.36,.8-.8,.8-2.65,0-4.8-2.15-4.8-4.8Zm8.8,8.8h-3.2c-.44,0-.8-.36-.8-.8s.36-.8,.8-.8h3.2c.44,0,.8,.36,.8,.8s-.36,.8-.8,.8Zm.8-4c-.44,0-.8-.36-.8-.8v-1.6c0-2.21,1.79-4,4-4h.8c.44,0,.8,.36,.8,.8v.8c0,2.65-2.15,4.8-4.8,4.8Z"/></svg>