<?xml version="1.0" encoding="UTF-8"?><svg id="Layer_11" xmlns="http://www.w3.org/2000/svg" viewBox="0 0 36 36"><defs><style>.cls-1{fill:#a97c50;}</style></defs><path class="cls-1" d="M17.51,34.59c-1.11-1.39-2.2-2.73-3.27-4.1-2.25-2.9-4.38-5.88-6.07-9.15-.98-1.91-1.78-3.88-2.17-6C4.82,8.94,9.13,2.58,15.51,1.3,22.2-.04,28.54,4.13,29.94,10.81c.53,2.55,.18,5.04-.66,7.47-.99,2.87-2.58,5.41-4.39,7.82-1.98,2.65-4.23,5.08-6.48,7.51-.29,.31-.58,.63-.91,.98Z"/><g><path d="M22.16,14.92c-.07-.14-.14-.28-.21-.42-.91-1.65-2.33-2.72-3.94-2.72s-3.03,1.06-3.93,2.71c-.07,.14-.15,.28-.21,.42-.2,.43-.49,.82-.83,1.16-1.78,1.76-2.37,4.07-1.28,5.41,.5,.61,1.27,.93,2.15,.95,.6,.02,1.56-.34,2.4-.73,1.05-.48,2.26-.47,3.32,0,.85,.39,1.84,.74,2.49,.72,.88-.03,1.65-.34,2.14-.95,1.08-1.34,.5-3.64-1.27-5.39-.34-.34-.62-.73-.83-1.17Z"/><ellipse cx="14.75" cy="7.48" rx="2.41" ry="3.56" transform="translate(-1.35 3.68) rotate(-13.62)"/><ellipse cx="10.74" cy="12.66" rx="2.05" ry="3.02" transform="translate(-2.68 2.88) rotate(-13.62)"/><ellipse cx="21.25" cy="7.46" rx="3.56" ry="2.41" transform="translate(9 26.36) rotate(-76.38)"/><ellipse cx="25.26" cy="12.65" rx="3.02" ry="2.05" transform="translate(7.02 34.22) rotate(-76.38)"/></g></svg>