<?xml version="1.0" encoding="UTF-8"?><svg id="Layer_32" xmlns="http://www.w3.org/2000/svg" viewBox="0 0 36 36"><defs><style>.cls-1{fill:#fff;}.cls-2{fill:#656fb4;}</style></defs><path class="cls-2" d="M17.51,34.77c-1.11-1.39-2.2-2.73-3.27-4.1-2.25-2.9-4.38-5.88-6.07-9.15-.98-1.91-1.78-3.88-2.17-6C4.82,9.12,9.13,2.76,15.51,1.48c6.7-1.34,13.03,2.83,14.43,9.51,.53,2.55,.18,5.04-.66,7.47-.99,2.87-2.58,5.41-4.39,7.82-1.98,2.65-4.23,5.08-6.48,7.51-.29,.31-.58,.63-.91,.98Z"/><g><path class="cls-1" d="M22.76,19.78c-.35-.15-.71-.32-1.08-.51-.86,2.49-3.37,4.15-6.1,3.83-3.15-.37-5.4-3.23-5.03-6.38,.18-1.5,.93-2.85,2.08-3.78-.3-.29-.58-.57-.84-.84-1.33,1.12-2.21,2.72-2.42,4.49-.45,3.8,2.28,7.25,6.07,7.7,3.25,.38,6.24-1.56,7.32-4.5Z"/><path class="cls-1" d="M23.14,18.21c-.05,.44-.15,.87-.28,1.28,1.03,.45,1.92,.73,2.59,.81,.52,.06,.88-.01,1.02-.21,.29-.42-.26-1.47-1.47-2.81-.98-1.08-2.32-2.27-3.86-3.45-.05,.06-.09,.12-.14,.18-.55,.71-1.13,1.45-1.92,1.36-.24-.03-.48-.13-.72-.31,0,0-.03-.02-1.42-1.04-.34-.25-.54-.54-.59-.87-.09-.64,.39-1.28,.81-1.84,.03-.05,.07-.09,.1-.13-2.42-1.46-4.61-2.43-5.94-2.59-.52-.06-.88,.01-1.02,.21-.29,.42,.26,1.47,1.47,2.81,.09,.09,.17,.19,.26,.28,.33-.25,.68-.48,1.05-.67l.55,1.06c-.26,.14-.51,.29-.74,.46,1.18,1.12,2.66,2.31,4.28,3.44,1.6,1.12,3.2,2.07,4.61,2.78,.08-.29,.15-.6,.18-.91l1.18,.14Z"/><path class="cls-1" d="M23.14,18.21l-1.18-.14c-.04,.31-.1,.62-.18,.91,.38,.19,.74,.36,1.09,.51,.13-.41,.22-.84,.28-1.28Z"/><path class="cls-1" d="M13.08,11.23c-.37,.19-.72,.42-1.05,.67,.26,.28,.55,.56,.85,.85,.23-.17,.48-.33,.74-.46l-.55-1.06Z"/><path class="cls-1" d="M21.08,13.4c.25-.3,.5-.56,.79-.71,.33-.17,.69-.26,1.04-.34,.27-.06,.52-.12,.76-.22,.67-.27,1.25-.71,1.67-1.29,1.27-1.74,.85-4.22-.94-5.53-.57-.42-1.25-.69-1.94-.77-1.41-.17-2.79,.43-3.61,1.54-.39,.53-.64,1.16-.72,1.82-.03,.28,0,.55,.05,.84,.04,.25,.08,.52,.06,.79-.03,.54-.21,1.06-.55,1.56,.68,.42,1.38,.87,2.07,1.36,.45,.31,.89,.63,1.31,.95Z"/><path class="cls-1" d="M16.65,13.11c.04,.25,.19,.46,.46,.67,0,0,1.41,1.03,1.42,1.04,.2,.15,.39,.23,.57,.25,.62,.07,1.14-.6,1.64-1.24,.05-.06,.09-.12,.14-.18-.42-.32-.85-.63-1.29-.94-.7-.49-1.4-.94-2.08-1.36-.04,.05-.08,.1-.12,.16-.39,.51-.82,1.09-.75,1.61Z"/><path class="cls-1" d="M20.98,13.53s.07-.08,.1-.12c-.42-.32-.86-.64-1.31-.95-.7-.49-1.39-.94-2.07-1.36,0,0,0,0,0,0-.03,.04-.06,.08-.09,.12,.68,.42,1.37,.87,2.07,1.36,.45,.31,.88,.63,1.3,.94Z"/><path class="cls-1" d="M20.89,13.65s.06-.08,.1-.12c-.42-.32-.85-.63-1.3-.94-.7-.49-1.4-.94-2.07-1.36-.03,.04-.06,.08-.09,.13,.68,.42,1.38,.88,2.08,1.36,.44,.31,.87,.62,1.29,.94Z"/></g></svg>