<?xml version="1.0" encoding="UTF-8"?><svg id="Layer_19" xmlns="http://www.w3.org/2000/svg" viewBox="0 0 36 36"><defs><style>.cls-1{fill:#fff;}.cls-2{fill:#636464;}</style></defs><path class="cls-2" d="M17.51,35.31c-1.11-1.39-2.2-2.73-3.27-4.1-2.25-2.9-4.38-5.88-6.07-9.15-.98-1.91-1.78-3.88-2.17-6-1.18-6.4,3.13-12.76,9.51-14.04,6.7-1.34,13.03,2.83,14.43,9.51,.53,2.55,.18,5.04-.66,7.47-.99,2.87-2.58,5.41-4.39,7.82-1.98,2.65-4.23,5.08-6.48,7.51-.29,.31-.58,.63-.91,.98Z"/><g id="NewGroupe95"><g id="NewGroup0-4"><g><path class="cls-1" d="M23.72,22.81c.28-.2,.54-.41,.8-.63l-.46-.19-.34,.82h0Z"/><path class="cls-1" d="M11.93,21.99l-.46,.19c.25,.22,.52,.43,.8,.63l-.34-.82h0Z"/><path class="cls-1" d="M11.33,20.1l1.37-.69c.09-.04,.19-.05,.27-.02,.08,.03,.16,.09,.2,.17l.69,1.37c.09,.17,.02,.38-.15,.46-.17,.09-.38,.02-.46-.15l-.54-1.07-1.07,.54s-.1,.04-.15,.04c-.13,0-.25-.07-.31-.19-.09-.17-.02-.38,.15-.46h0Zm.44-10.55l.71-1.36c.04-.08,.12-.14,.2-.17,0,0,0,0,.01,0,.08-.03,.18-.02,.26,.02l1.36,.71c.17,.09,.23,.3,.15,.46-.09,.17-.3,.23-.46,.15l-1.06-.55-.55,1.06c-.06,.12-.18,.19-.31,.19-.05,0-.11-.01-.16-.04-.17-.09-.23-.3-.15-.46h0Zm3.15,1.62c-.11,.16-.32,.2-.48,.09l-.99-.68-.68,.99c-.07,.1-.17,.15-.28,.15-.07,0-.14-.02-.2-.06-.16-.11-.2-.32-.09-.48l.87-1.26c.06-.08,.14-.13,.23-.14,.09-.02,.18,0,.26,.05l1.26,.87c.16,.11,.2,.32,.09,.48h0Zm.12,2.13c-.12,.14-.34,.16-.49,.03l-.91-.78-.78,.91c-.07,.08-.16,.12-.26,.12-.08,0-.16-.03-.23-.08-.14-.12-.16-.34-.04-.49l1-1.16c.06-.07,.15-.11,.24-.12,0,0,0,0,.01,0,.09,0,.18,.02,.25,.08l1.16,1c.14,.12,.16,.34,.04,.49h0Zm-.03,2s-.03,.05-.05,.07c-.13,.13-.35,.13-.49,0l-.85-.85-.81,.86c-.07,.07-.16,.11-.25,.11-.07,0-.13-.02-.19-.06,0,0,0,0,0,0-.03-.02-.06-.04-.08-.06-.13-.13-.13-.35,0-.49l.86-.86,.22-.23c.07-.07,.15-.1,.24-.11h0c.09,0,.18,.03,.25,.09l1.11,1.06c.13,.12,.14,.32,.03,.46h0Zm-.29,2.11c-.15,.12-.36,.1-.49-.04l-.77-.92-.92,.77c-.06,.05-.14,.08-.22,.08-.1,0-.2-.04-.26-.12-.12-.15-.1-.36,.04-.49l1.18-.99c.08-.06,.17-.09,.26-.08,.09,0,.17,.05,.24,.12l.99,1.18c.12,.15,.1,.36-.04,.49h0Zm-.32,1.98c-.16,.1-.37,.06-.48-.1l-.65-1.01-1.01,.65c-.06,.04-.12,.06-.19,.06-.11,0-.22-.06-.29-.16-.1-.16-.06-.37,.1-.48l1.29-.84c.08-.05,.17-.07,.26-.05,.09,.02,.18,.07,.23,.15l.84,1.29c.1,.16,.06,.37-.1,.48h0Zm6.58-6.58l1.16-1c.07-.06,.16-.09,.25-.08,0,0,0,0,.01,0,.09,0,.17,.05,.24,.12l1,1.16c.12,.14,.11,.36-.04,.49-.07,.06-.15,.08-.23,.08-.1,0-.19-.04-.26-.12l-.78-.91-.91,.78c-.14,.12-.36,.11-.49-.03-.12-.14-.11-.36,.04-.49h0Zm.18-2.12l1.26-.87c.08-.05,.17-.07,.26-.05,.09,.01,.17,.06,.23,.14l.87,1.26c.11,.16,.07,.37-.09,.48-.06,.04-.13,.06-.2,.06-.11,0-.22-.05-.28-.15l-.68-.99-.99,.68c-.16,.11-.37,.07-.48-.09-.11-.16-.07-.37,.09-.48h0Zm.52-1.94l1.36-.71c.08-.04,.18-.05,.26-.02,0,0,0,0,.01,0,.08,.03,.16,.08,.2,.17l.71,1.36c.09,.17,.02,.38-.15,.46-.05,.03-.11,.04-.16,.04-.12,0-.24-.07-.31-.19l-.55-1.06-1.06,.55c-.17,.09-.38,.02-.46-.15-.09-.17-.02-.38,.15-.46h0Zm2.99,11.35c.17,.09,.24,.29,.15,.46-.06,.12-.18,.19-.31,.19-.05,0-.1-.01-.15-.04l-1.07-.54-.54,1.07c-.09,.17-.29,.24-.46,.15-.17-.09-.24-.29-.15-.46l.69-1.37c.04-.09,.12-.14,.2-.17,.09-.03,.18-.03,.27,.02l1.37,.69h0Zm-3.08-.71c-.16-.1-.21-.32-.1-.48l.84-1.29c.05-.08,.14-.14,.23-.15,.09-.02,.18,0,.26,.05l1.29,.84c.16,.1,.21,.32,.1,.48-.07,.1-.18,.16-.29,.16-.06,0-.13-.02-.19-.06l-1.01-.65-.65,1.01c-.1,.16-.32,.21-.48,.1h0Zm-.36-2.47l.99-1.18c.06-.07,.15-.11,.24-.12,.09-.01,.19,.02,.26,.08l1.18,.99c.15,.12,.16,.34,.04,.49-.07,.08-.17,.12-.26,.12-.08,0-.16-.03-.22-.08l-.92-.77-.77,.92c-.12,.15-.34,.16-.49,.04-.15-.12-.16-.34-.04-.49h0Zm-.24-1.63c-.11-.14-.1-.34,.03-.46l1.11-1.06c.07-.07,.16-.1,.25-.09h0c.09,0,.18,.04,.24,.11l.22,.23,.86,.86c.13,.13,.13,.35,0,.49-.02,.03-.05,.05-.08,.06,0,0,0,0,0,0-.06,.04-.12,.06-.19,.06-.09,0-.18-.04-.25-.11l-.81-.86-.85,.85c-.13,.13-.35,.13-.49,0-.02-.02-.04-.05-.05-.07h0Zm-9,5.93c.09-.04,.18-.03,.26,0,.09,.03,.16,.1,.2,.19l.59,1.42c.06,.15,.01,.31-.1,.4,1.48,.89,3.22,1.4,5.07,1.4s3.59-.51,5.07-1.4c-.12-.09-.17-.26-.1-.4l.59-1.42c.04-.09,.11-.16,.2-.19,.08-.03,.17-.03,.26,0l1.05,.44c1.75-1.79,2.83-4.23,2.83-6.93,0-2.97-1.31-5.64-3.38-7.45l.21,.53c.07,.18-.02,.38-.2,.45-.04,.02-.08,.02-.12,.02-.14,0-.27-.08-.32-.22l-.43-1.12-1.12,.43c-.18,.07-.38-.02-.45-.2-.07-.18,.02-.38,.2-.45l.99-.38c-1.53-.96-3.33-1.52-5.27-1.52s-3.74,.56-5.27,1.52l.99,.38c.18,.07,.27,.27,.2,.45-.07,.18-.27,.27-.45,.2l-1.12-.43-.43,1.12c-.05,.14-.18,.22-.32,.22-.04,0-.08,0-.12-.02-.18-.07-.27-.27-.2-.45l.21-.53c-2.07,1.81-3.38,4.48-3.38,7.45,0,2.7,1.08,5.14,2.83,6.93l1.05-.44h0Z"/><polygon class="cls-1" points="22.36 14.5 22.36 14.5 22.37 14.51 22.37 14.51 22.36 14.5 22.36 14.5"/><polygon class="cls-1" points="13.64 14.5 13.63 14.51 13.63 14.51 13.64 14.5 13.64 14.5 13.64 14.5"/></g></g></g></svg>