<?xml version="1.0" encoding="UTF-8"?><svg id="Layer_29" xmlns="http://www.w3.org/2000/svg" viewBox="0 0 36 36"><defs><style>.cls-1{fill:#020202;}.cls-2{fill:#939598;}</style></defs><path class="cls-2" d="M17.51,35.59c-1.11-1.39-2.2-2.73-3.27-4.1-2.25-2.9-4.38-5.88-6.07-9.15-.98-1.91-1.78-3.88-2.17-6-1.18-6.4,3.13-12.76,9.51-14.04,6.7-1.34,13.03,2.83,14.43,9.51,.53,2.55,.18,5.04-.66,7.47-.99,2.87-2.58,5.41-4.39,7.82-1.98,2.65-4.23,5.08-6.48,7.51-.29,.31-.58,.63-.91,.98Z"/><g id="NewGroupe94"><g id="NewGroup0-5"><g><path class="cls-1" d="M8.89,19.8c2.19-.4,4.81-.27,6.93,.37,.18,.05,.36-.07,.36-.26l.35-11.35c0-.08,.01-.16,.03-.23-2.27-.69-5.04-.78-7.23-.3-.29,.06-.51,.31-.53,.61l-.7,10.45c-.03,.44,.36,.79,.79,.71h0Z"/><path class="cls-1" d="M17.82,7.68c-.33,0-.6,.26-.61,.6l-.37,13.17c-.01,.35,.27,.63,.61,.63h.74c.35,0,.63-.29,.61-.63l-.37-13.17c-.01-.33-.28-.6-.61-.6h0Z"/><path class="cls-1" d="M25.07,21.1c.51,.03,.99-.21,1.26-.64l.06-.1c-.59-.08-2.01-.12-2.59-.12-1.27,0-2.55,.2-3.79,.59-.09,.03-.19,.04-.29,.04s-.19-.01-.27-.04l.02,.58c0,.07,0,.13,0,.2,1.22-.25,4.16-.62,5.6-.52h0Z"/><path class="cls-1" d="M16.1,20.84c-.09,.03-.18,.04-.27,.04s-.19-.01-.29-.04c-1.24-.39-3.07-.59-4.34-.59-.58,0-1.17,.04-1.76,.12l.06,.1c.27,.43,.76,.67,1.26,.64,1.44-.1,4.11,.27,5.33,.52,0-.06-.01-.13,0-.2l.02-.58h0Z"/><path class="cls-1" d="M24.93,11.48l-.83,.06,.49,4.31c.04,.37-.24,.71-.63,.74h-.11c-.39,.04-.72-.25-.74-.63l-.17-4.34-.83,.06c-.3,.02-.53-.14-.52-.36v-.11c.02-.21,.25-.39,.53-.41l.78-.06-.02-.43c0-.19,.2-.35,.47-.37h.08c.26-.03,.5,.1,.52,.29l.05,.43,.78-.06c.28-.02,.54,.12,.58,.33l.02,.11c.04,.21-.16,.41-.46,.43h0Zm2.27-2.83c-.02-.3-.24-.55-.53-.61-2.14-.47-5.14-.4-7.36,.25-.12,.04-.2,.15-.2,.28h0s.35,11.39,.35,11.39c0,.18,.18,.31,.36,.25,2.09-.67,5.07-.81,7.29-.4,.43,.08,.82-.27,.79-.71l-.7-10.45h0Z"/></g></g></g></svg>