<?xml version="1.0" encoding="UTF-8"?><svg id="Layer_5" xmlns="http://www.w3.org/2000/svg" viewBox="0 0 36 36"><defs><style>.cls-1{fill:#7398cf;}</style></defs><path class="cls-1" d="M17.51,34.49c-1.11-1.39-2.2-2.73-3.27-4.1-2.25-2.9-4.38-5.88-6.07-9.15-.98-1.91-1.78-3.88-2.17-6C4.82,8.84,9.13,2.48,15.51,1.2c6.7-1.34,13.03,2.83,14.43,9.51,.53,2.55,.18,5.04-.66,7.47-.99,2.87-2.58,5.41-4.39,7.82-1.98,2.65-4.23,5.08-6.48,7.51-.29,.31-.58,.63-.91,.98Z"/><g><polygon points="24.8 7.88 24.24 7.88 21.97 11.29 27.07 11.29 24.8 7.88"/><g><g><polygon points="18.57 6.18 17.43 6.18 17.43 2.78 18 2.78 18.57 6.18"/><polygon points="21.4 5.05 18 5.05 18 2.78 21.4 2.78 20.27 3.91 21.4 5.05"/></g><polygon points="18.57 6.75 17.43 6.75 15.16 9.58 20.83 9.58 18.57 6.75"/><polygon points="11.76 7.88 11.2 7.88 8.93 11.29 14.03 11.29 11.76 7.88"/><path d="M21.97,11.85v1.7h-1.13v-3.4h-5.67v3.4h-1.13v-1.7h-5.1v9.07H27.07V11.85h-5.1Zm-9.64,4.54h-1.7v-1.98c0-.47,.38-.85,.85-.85s.85,.38,.85,.85v1.98Zm6.24-4.54c0-.31,.25-.57,.57-.57s.57,.25,.57,.57v1.7h-1.13v-1.7Zm-2.27,0c0-.31,.25-.57,.57-.57s.57,.25,.57,.57v1.7h-1.13v-1.7Zm3.97,7.37h-4.54v-1.7c0-1.25,1.02-2.27,2.27-2.27s2.27,1.02,2.27,2.27v1.7Zm5.1-2.84h-1.7v-1.98c0-.47,.38-.85,.85-.85s.85,.38,.85,.85v1.98Z"/></g></g></svg>