<?xml version="1.0" encoding="UTF-8"?><svg id="Layer_8" xmlns="http://www.w3.org/2000/svg" viewBox="0 0 36 36"><defs><style>.cls-1{fill:#ed1c24;}</style></defs><path class="cls-1" d="M17.27,34.77c-1.11-1.39-2.2-2.73-3.27-4.1-2.25-2.9-4.38-5.88-6.07-9.15-.98-1.91-1.78-3.88-2.17-6C4.58,9.12,8.89,2.76,15.27,1.48c6.7-1.34,13.03,2.83,14.43,9.51,.53,2.55,.18,5.04-.66,7.47-.99,2.87-2.58,5.41-4.39,7.82-1.98,2.65-4.23,5.08-6.48,7.51-.29,.31-.58,.63-.91,.98Z"/><g id="NewGroupe54"><g id="NewGroup0-45"><g><path d="M24.98,12.43c0,.66-.27,1.25-.7,1.68-1.39,1.39-2.47,3.05-3.1,4.92-.73,2.17-1.46,4.36-1.46,4.36-.27,.8-1.01,1.33-1.85,1.33h0c-.84,0-1.58-.54-1.85-1.33l-1.54-4.62c-.58-1.75-1.52-3.37-2.79-4.7-.41-.43-.66-1.01-.66-1.65,0-1.13,.79-2.08,1.85-2.32-.01-.12-.02-.24-.02-.36,0-2.16,2.27-3.91,5.06-3.91s5.06,1.75,5.06,3.91c0,.11,0,.22-.02,.33,1.14,.18,2.02,1.16,2.02,2.35h0ZM18,3.18c-4.66,0-8.43,5.42-8.43,12.1s3.78,12.1,8.43,12.1,8.43-5.42,8.43-12.1S22.66,3.18,18,3.18h0Z"/><path d="M21.34,11.04c-.71-.94-1.5-3.15-2.36-.82-.65,1.74,.74,2.73,1.84,3.22,.48,.22,1.76,.45,2.25,.27,1.82-.64-1.2-1.97-1.73-2.67h0Z"/><path d="M17.26,10.22c-.86-2.32-1.65-.11-2.36,.82-.53,.7-3.55,2.03-1.73,2.67,.5,.18,1.77-.06,2.25-.27,1.1-.49,2.48-1.48,1.84-3.22h0Z"/><path d="M17.93,15.35c-.73,0-1.33,1.87-1.33,4.18s.59,4.18,1.33,4.18,1.33-1.87,1.33-4.18-.59-4.18-1.33-4.18h0Z"/><path d="M16.77,14.63c.09,.15,.4,.14,.69-.03,.3-.17,.46-.43,.38-.59-.09-.15-.4-.14-.69,.03-.3,.17-.46,.43-.38,.59h0Z"/><path d="M18.53,14.6c.3,.17,.61,.19,.69,.03,.09-.15-.08-.41-.38-.59-.3-.17-.61-.19-.69-.03-.09,.15,.08,.41,.38,.59h0Z"/></g></g></g></svg>