<?xml version="1.0" encoding="UTF-8"?><svg id="Layer_12" xmlns="http://www.w3.org/2000/svg" viewBox="0 0 36 36"><defs><style>.cls-1{fill:#fff;}.cls-2{fill:#b72e28;}</style></defs><path class="cls-2" d="M17.51,34.77c-1.11-1.39-2.2-2.73-3.27-4.1-2.25-2.9-4.38-5.88-6.07-9.15-.98-1.91-1.78-3.88-2.17-6C4.82,9.12,9.13,2.76,15.51,1.48c6.7-1.34,13.03,2.83,14.43,9.51,.53,2.55,.18,5.04-.66,7.47-.99,2.87-2.58,5.41-4.39,7.82-1.98,2.65-4.23,5.08-6.48,7.51-.29,.31-.58,.63-.91,.98Z"/><path class="cls-1" d="M28.67,11.11c-.15-1.3-.85-2.55-1.76-3.47-1.15-1.18-2.75-1.88-4.4-1.92-1.77-.03-3.37,1-4.54,2.14-1.22-1.19-2.93-2.23-4.79-2.13-3.61,.2-7.12,4-5.45,7.6,.44,.96,1.08,1.82,1.79,2.64h4.2l.69-2.26c.06-.18,.22-.31,.41-.32,.19,0,.36,.11,.43,.29l1.22,3.25,.26-.68,.58-1.67c.06-.17,.22-.29,.41-.3,.18,0,.35,.1,.43,.27l.41,.95,.99-2.02c.07-.15,.22-.24,.38-.25,.16,0,.32,.08,.4,.21l1.08,1.78h1.38c.25,.02,.44,.22,.44,.46,0,.25-.2,.44-.45,.44h0l-1.63-.02c-.15,0-.3-.08-.38-.22l-.79-1.3-1.06,2.16c-.08,.16-.23,.25-.41,.25-.17,0-.33-.11-.4-.27l-.33-.77-.2,.59s0,0,0,.01l-.68,1.79c-.07,.17-.23,.29-.42,.29h0c-.19,0-.35-.12-.42-.29l-1.17-3.13-.4,1.32c-.06,.19-.23,.32-.43,.32h-3.72c.44,.46,.89,.91,1.31,1.36,1.33,1.38,2.72,2.69,4.14,3.97,.43,.39,.91,.75,1.32,1.16,.38,.38,.99,.38,1.37,0,1.65-1.33,3.25-2.72,4.78-4.19,1.46-1.41,3.04-2.88,4.22-4.54,.6-.84,1.13-1.82,1.21-2.86,.02-.22,.01-.44-.01-.66Z"/></svg>