<?xml version="1.0" encoding="UTF-8"?><svg id="Layer_18" xmlns="http://www.w3.org/2000/svg" viewBox="0 0 36 36"><defs><style>.cls-1{fill:#2bb673;}</style></defs><path class="cls-1" d="M17.51,35.04c-1.11-1.39-2.2-2.73-3.27-4.1-2.25-2.9-4.38-5.88-6.07-9.15-.98-1.91-1.78-3.88-2.17-6C4.82,9.39,9.13,3.03,15.51,1.75c6.7-1.34,13.03,2.83,14.43,9.51,.53,2.55,.18,5.04-.66,7.47-.99,2.87-2.58,5.41-4.39,7.82-1.98,2.65-4.23,5.08-6.48,7.51-.29,.31-.58,.63-.91,.98Z"/><g id="NewGroupe68"><g id="NewGroup0-31"><g><path d="M11.41,10.96c-.71,.07-.86,1.13-.86,1.78,0,.65,.09,1.67,.86,1.9l.25-.12c-.4-1.08-.13-2.48,.13-3.38l-.38-.18h0Z"/><path d="M12.42,11.44c-.23,.85-.41,1.98-.14,2.79l.68-.32c-.11-.72-.01-1.5,.13-2.15l-.68-.32h0Z"/><path d="M13.73,12.05c-.1,.51-.16,1.05-.12,1.55l1.04-.49c0-.07-.01-.14-.01-.22,0-.13,.02-.26,.04-.39l-.96-.45h0Z"/><path d="M21.68,12.8c0-1.78-.88-3.36-2.22-4.32-.29,.68-.96,1.16-1.74,1.16-1.04,0-1.89-.85-1.89-1.89,0-.07,0-.15,.01-.22-1.29,.14-2.45,.74-3.3,1.64l3.83,1.92s.05,0,.08,0c.99,0,1.8,.81,1.8,1.8s-.81,1.8-1.8,1.8c-.13,0-.25-.01-.37-.04l-3.86,1.94c.94,.88,1.13,1.94,.4,3.16-.23,.38-.4,.8-.5,1.23l-.19,.78c2.24-.88,6.03-2.33,8.35-3.05-.03-1.2,.25-2.39,.81-3.46,.38-.73,.59-1.56,.59-2.44h0Z"/><path d="M10.49,16.24c.09,.2,.33,.29,.52,.19l4.99-2.51c.13,.06,.28,.09,.44,.09,.62,0,1.12-.5,1.12-1.12s-.5-1.12-1.12-1.12c-.07,0-.14,0-.21,.02l-5.22-2.63c-.2-.1-.44-.01-.52,.19-.08,.19,0,.41,.19,.5l4.92,2.31c-.16,.19-.26,.45-.26,.72,0,.21,.06,.41,.16,.58l-4.81,2.27c-.19,.09-.27,.31-.19,.5h0Z"/><path d="M11.81,24.12l9.83-2.46c.35-.09,.59-.4,.59-.76v-1.02c-.02-.51-.5-.87-.99-.74-2.43,.67-7.9,2.8-9.9,3.59-.4,.16-.58,.63-.38,1.01,.16,.31,.51,.47,.85,.38h0Z"/><path d="M17.71,6.54c-.67,0-1.21,.54-1.21,1.21s.54,1.21,1.21,1.21,1.21-.54,1.21-1.21-.54-1.21-1.21-1.21h0Z"/><path d="M28.15,16.05c-.34,.9-2.48,2.04-2.48-3.47s-3.59-8.49-6.17-8.49c-1.49,0-2,.98-2.17,1.8,.12-.02,.25-.04,.37-.04,.81,0,1.5,.51,1.77,1.22,1.25-.14,2.78,.95,2.94,2.09,.22,1.55,1.39,9.2,3.97,9.7,2.57,.5,1.77-2.82,1.77-2.82h0Z"/></g></g></g></svg>