<?xml version="1.0" encoding="UTF-8"?><svg id="Layer_16" xmlns="http://www.w3.org/2000/svg" viewBox="0 0 36 36"><defs><style>.cls-1{fill:#ed8e25;}</style></defs><path class="cls-1" d="M15.5,35.22c-1.11-1.39-2.2-2.73-3.27-4.1-2.25-2.9-4.38-5.88-6.07-9.15-.98-1.91-1.78-3.88-2.17-6C2.81,9.57,7.12,3.2,13.5,1.93c6.7-1.34,13.03,2.83,14.43,9.51,.53,2.55,.18,5.04-.66,7.47-.99,2.87-2.58,5.41-4.39,7.82-1.98,2.65-4.23,5.08-6.48,7.51-.29,.31-.58,.63-.91,.98Z"/><g><path d="M22.8,17.36c-.56,.06-1.12,.11-1.67,.19-1.17,.15-2.33,.37-3.44,.8-.47,.19-.92,.42-1.35,.78,0-.07,0-.12,0-.16,0-3.46,0-6.92,0-10.38,0-.18,.08-.3,.2-.42,.26-.26,.58-.42,.91-.56,.79-.34,1.62-.55,2.47-.68,.94-.15,1.88-.25,2.82-.38,.02,0,.04,0,.06,0v10.81Z"/><path d="M15.76,19.1c-1.19-.91-2.59-1.2-3.99-1.44-.81-.14-1.63-.22-2.46-.32V6.54c.36,.04,.72,.07,1.07,.11,1.11,.13,2.22,.29,3.29,.61,.43,.13,.84,.3,1.26,.47,.15,.06,.28,.16,.41,.24,.29,.19,.43,.43,.42,.81-.02,3.38,0,6.76,0,10.13,0,.05,0,.11,0,.18Z"/><path d="M25.85,20.45h-8.96s0-.02,0-.02c.05-.02,.09-.04,.14-.06,1.61-.59,3.28-.88,4.99-.91,.86-.02,1.71,.01,2.56,.15,.21,.03,.34-.09,.34-.31,0-.52,0-1.05,0-1.57,0-2.65,0-5.29,0-7.94,0-.06,0-.12,0-.2h.94v10.87Z"/><path d="M6.26,9.57h.94c0,.07,0,.14,0,.21,0,3.12,0,6.24,0,9.36,0,.04,0,.09,0,.13,0,.24,.14,.35,.37,.32,1.28-.19,2.56-.19,3.85-.06,1.25,.12,2.46,.39,3.64,.82,.05,.02,.11,.04,.16,.08H6.26V9.57Z"/><path d="M15.74,19.99c-2.59-.99-5.24-1.29-7.98-.99V8.27h.99c0,.06,0,.12,0,.18,0,2.99,0,5.98,0,8.97,0,.43,.04,.47,.47,.5,1.27,.1,2.54,.24,3.79,.55,.7,.17,1.39,.39,2.01,.78,.2,.13,.38,.3,.55,.46,.08,.07,.12,.18,.18,.27Z"/><path d="M23.36,8.27h.99v10.73c-2.74-.3-5.39,0-7.98,1.03,.07-.21,.2-.35,.34-.48,.41-.38,.91-.6,1.43-.78,.91-.32,1.86-.51,2.81-.63,.68-.09,1.36-.15,2.03-.21,.31-.03,.37-.1,.37-.41,0-3.02,0-6.04,0-9.06v-.18Z"/></g></svg>