<?xml version="1.0" encoding="UTF-8"?><svg id="Layer_25" xmlns="http://www.w3.org/2000/svg" viewBox="0 0 36 36"><defs><style>.cls-1{fill:#f7ca9a;}.cls-2{fill:#010101;}</style></defs><path class="cls-1" d="M17.51,34.77c-1.11-1.39-2.2-2.73-3.27-4.1-2.25-2.9-4.38-5.88-6.07-9.15-.98-1.91-1.78-3.88-2.17-6C4.82,9.12,9.13,2.76,15.51,1.48c6.7-1.34,13.03,2.83,14.43,9.51,.53,2.55,.18,5.04-.66,7.47-.99,2.87-2.58,5.41-4.39,7.82-1.98,2.65-4.23,5.08-6.48,7.51-.29,.31-.58,.63-.91,.98Z"/><path class="cls-2" d="M19.77,3.85s0,0,0,0h-.05s-.06,0-.09,0c-3.06-.14-5.4,.55-6.95,2.04-1.47,1.4-2.21,3.49-2.21,6.21,0,.3-.05,.64-.14,1.01-.36,1.39-1.3,2.78-1.84,3.49-.18,.24-.25,.55-.17,.84,.07,.29,.26,.53,.53,.66,.5,.24,1.06,.35,1.44,.4,.1,.01,.18,.1,.18,.2,0,.95,.07,1.77,.19,2.42,.17,.89,.91,1.53,1.81,1.58,1.45,.07,2.88-.41,3.61-.7v2.59c0,.19,.15,.34,.34,.34h6.95c.19,0,.34-.15,.34-.34v-2.49c0-.27,.12-.54,.34-.72,2.18-1.89,3.55-4.94,3.68-8.15,.16-4.09-1.83-8.98-7.95-9.34ZM11.14,12.08c0-2.52,.67-4.44,2-5.71,1.39-1.33,3.5-1.95,6.27-1.85v3.65c0,.14,.09,.27,.22,.32,.13,.05,.28,.02,.38-.09,.22-.24,.53-.38,.86-.38,.64,0,1.15,.52,1.15,1.15s-.52,1.15-1.15,1.15c-.33,0-.64-.14-.86-.38-.09-.1-.24-.14-.38-.09s-.22,.18-.22,.32v2.66h-2.4c.11-.24,.17-.5,.17-.77,0-1.01-.82-1.84-1.84-1.84s-1.84,.82-1.84,1.84c0,.27,.06,.53,.17,.77h-2.59c.05-.26,.07-.52,.07-.75Zm12.45,8.74c-.36,.32-.57,.77-.57,1.24v2.15h-2.93v-5.56c0-.14-.09-.27-.22-.32-.13-.05-.28-.02-.38,.09-.22,.24-.53,.38-.86,.38-.64,0-1.15-.52-1.15-1.15s.52-1.15,1.15-1.15c.33,0,.64,.14,.86,.38,.09,.1,.24,.14,.38,.09,.13-.05,.22-.18,.22-.32v-3.13s1.71,0,1.71,0c-.11,.24-.17,.5-.17,.77,0,1.01,.82,1.84,1.84,1.84s1.84-.82,1.84-1.84c0-.27-.06-.53-.17-.77h1.88c-.2,2.9-1.46,5.61-3.42,7.31Z"/></svg>