<?xml version="1.0" encoding="UTF-8"?><svg id="Layer_31" xmlns="http://www.w3.org/2000/svg" viewBox="0 0 36 36"><defs><style>.cls-1{fill:#231f20;}.cls-2{fill:#39b54a;}</style></defs><path class="cls-2" d="M17.51,34.77c-1.11-1.39-2.2-2.73-3.27-4.1-2.25-2.9-4.38-5.88-6.07-9.15-.98-1.91-1.78-3.88-2.17-6C4.82,9.12,9.13,2.76,15.51,1.48c6.7-1.34,13.03,2.83,14.43,9.51,.53,2.55,.18,5.04-.66,7.47-.99,2.87-2.58,5.41-4.39,7.82-1.98,2.65-4.23,5.08-6.48,7.51-.29,.31-.58,.63-.91,.98Z"/><g><path d="M18,22.85c5.09,0,9.21-4.12,9.21-9.21s-4.12-9.21-9.21-9.21-9.21,4.12-9.21,9.21,4.12,9.21,9.21,9.21Zm-3.48-6.97h.11c.09,.07,.24,.16,.47,.28,.23,.12,.44,.22,.66,.3,.24,.09,.52,.17,.84,.25,.32,.08,.66,.12,1.03,.14v-3c-.18-.04-.35-.07-.51-.11-.16-.03-.3-.07-.44-.11-.75-.19-1.29-.47-1.62-.86-.33-.38-.49-.85-.49-1.41,0-.68,.27-1.26,.81-1.73,.54-.47,1.29-.75,2.25-.82v-1.88h.82v1.87c.46,0,.94,.06,1.43,.17,.49,.1,.9,.22,1.23,.35v1.35h-.1c-.35-.21-.71-.4-1.08-.56-.38-.16-.87-.27-1.48-.31v2.98c.14,.02,.29,.05,.45,.09,.16,.04,.3,.07,.42,.09,.69,.15,1.22,.4,1.59,.76,.38,.36,.56,.85,.56,1.47,0,.71-.28,1.31-.84,1.78-.56,.47-1.29,.75-2.19,.84v2.5h-.82v-2.47c-.61,0-1.18-.06-1.72-.18-.53-.11-1-.26-1.39-.44v-1.37Z"/><path class="cls-1" d="M20.17,15.39c0-.43-.14-.75-.4-.95-.27-.2-.71-.36-1.32-.47v2.86c.55-.05,.98-.19,1.28-.42,.3-.23,.45-.56,.45-1.02Z"/><path class="cls-1" d="M17.63,9.81c-.49,.04-.91,.17-1.25,.4-.34,.23-.5,.56-.5,.97s.12,.74,.37,.95c.25,.21,.71,.39,1.38,.53v-2.86Z"/></g></svg>