<?xml version="1.0" encoding="UTF-8"?><svg id="Layer_21" xmlns="http://www.w3.org/2000/svg" viewBox="0 0 36 36"><defs><style>.cls-1{fill:#9b8579;}</style></defs><path class="cls-1" d="M17.51,34.5c-1.11-1.39-2.2-2.73-3.27-4.1-2.25-2.9-4.38-5.88-6.07-9.15-.98-1.91-1.78-3.88-2.17-6C4.82,8.85,9.13,2.49,15.51,1.21c6.7-1.34,13.03,2.83,14.43,9.51,.53,2.55,.18,5.04-.66,7.47-.99,2.87-2.58,5.41-4.39,7.82-1.98,2.65-4.23,5.08-6.48,7.51-.29,.31-.58,.63-.91,.98Z"/><path d="M20.97,14.63h.17c.33,0,.63,.2,.72,.49,.11,.35,.38,.66,.76,.89,.39,.23,.89,.37,1.44,.37s1.05-.14,1.44-.37c.36-.22,.63-.52,.75-.85,.08-.3,.38-.53,.73-.53h.03c.2,0,.38-.06,.5-.15,.09-.07,.14-.15,.14-.24v-2.94c0-.09-.05-.17-.14-.24-.12-.09-.3-.15-.5-.15h-.19c-.33,0-.63-.19-.72-.49-.39-1.23-1.42-2.32-2.84-3.1-1.43-.79-3.27-1.26-5.27-1.26s-3.83,.47-5.27,1.26c-1.41,.78-2.43,1.85-2.83,3.08-.08,.3-.38,.52-.73,.52h-.19c-.2,0-.38,.06-.5,.15-.09,.07-.14,.15-.14,.24v2.94c0,.09,.05,.17,.14,.24,.12,.09,.3,.15,.5,.15h.12c.33,0,.63,.2,.72,.49,.11,.35,.38,.66,.76,.89,.39,.23,.89,.37,1.44,.37s1.05-.14,1.44-.37c.36-.22,.63-.52,.75-.85,.08-.3,.38-.53,.73-.53h.17c.33,0,.63,.2,.72,.49,.11,.35,.38,.66,.76,.89,.39,.23,.89,.37,1.44,.37s1.05-.14,1.44-.37c.36-.22,.63-.52,.75-.85,.08-.3,.38-.53,.73-.53h0Zm-3.31-7.61c.24,0,.43,.2,.56,.52,.11,.27,.17,.64,.17,1.05s-.07,.78-.17,1.05c-.13,.32-.32,.52-.56,.52s-.43-.2-.56-.52c-.11-.27-.17-.64-.17-1.05s.07-.78,.17-1.05c.13-.32,.32-.52,.56-.52h0Zm3.16,.25c.19-.1,.49-.02,.81,.19,.28,.18,.6,.46,.89,.8,.23,.27,.4,.53,.52,.76,.09,.17,.14,.33,.15,.46,.02,.16-.02,.29-.12,.38h0s-.05,.03-.07,.05c-.19,.1-.49,.02-.81-.19-.28-.18-.6-.46-.89-.8-.23-.27-.4-.53-.52-.76-.08-.17-.14-.33-.15-.46-.02-.16,.02-.29,.12-.38,.02-.02,.04-.03,.07-.05h0Zm-6.44,.19c.32-.21,.62-.29,.81-.19,.03,.01,.05,.03,.07,.05,.1,.09,.14,.22,.12,.38-.02,.13-.07,.29-.15,.46-.12,.23-.29,.5-.52,.76-.29,.34-.61,.62-.89,.8-.32,.21-.62,.29-.81,.19-.02-.01-.05-.03-.07-.05h0c-.1-.09-.14-.22-.12-.38,.02-.13,.07-.29,.15-.46,.12-.23,.29-.5,.52-.76,.29-.34,.61-.62,.89-.8h0Zm8.81,13.49H13.1c-.14,0-.27-.06-.35-.17l-2.37-3.34c-.22-.09-.43-.19-.62-.3-.51-.31-.91-.71-1.17-1.18-.41-.06-.78-.22-1.07-.44-.42-.32-.68-.77-.68-1.27v-2.94c0-.5,.26-.95,.68-1.27,.3-.23,.68-.39,1.11-.45,.59-1.37,1.76-2.56,3.33-3.42,1.66-.91,3.77-1.46,6.05-1.46s4.39,.55,6.05,1.46c1.56,.86,2.74,2.05,3.33,3.42,.42,.06,.81,.22,1.11,.45,.42,.32,.68,.77,.68,1.27v2.94c0,.5-.26,.95-.68,1.27-.27,.2-.6,.35-.97,.43-.26,.48-.67,.89-1.18,1.2-.11,.07-.23,.13-.36,.19l-2.43,3.42c-.07,.12-.21,.2-.37,.2h0Z"/></svg>