<?xml version="1.0" encoding="UTF-8"?><svg id="Layer_2" xmlns="http://www.w3.org/2000/svg" viewBox="0 0 36 36"><defs><style>.cls-1{fill:#1c75bc;}</style></defs><path class="cls-1" d="M17.51,34.49c-1.11-1.39-2.2-2.73-3.27-4.1-2.25-2.9-4.38-5.88-6.07-9.15-.98-1.91-1.78-3.88-2.17-6C4.82,8.84,9.13,2.48,15.51,1.2c6.7-1.34,13.03,2.83,14.43,9.51,.53,2.55,.18,5.04-.66,7.47-.99,2.87-2.58,5.41-4.39,7.82-1.98,2.65-4.23,5.08-6.48,7.51-.29,.31-.58,.63-.91,.98Z"/><path d="M19.97,11.05c-.37,0-.66-.3-.66-.66s.3-.66,.66-.66h6.66c-.27-.71-.62-1.37-1.05-1.99h-6.27c-.37,0-.66-.3-.66-.66s.3-.66,.66-.66h5.15c-1.67-1.64-3.96-2.65-6.48-2.65-3.14,0-5.92,1.58-7.6,3.97h2.3c.37,0,.66,.3,.66,.66s-.3,.66-.66,.66h-3.07c-.49,1.02-.79,2.13-.87,3.31h3.28c.37,0,.66,.3,.66,.66s-.3,.66-.66,.66h-3.28c.07,.93,.27,1.82,.59,2.65h3.35c.37,0,.66,.3,.66,.66s-.3,.66-.66,.66h-2.72c1.61,2.77,4.6,4.64,8.02,4.64,2.52,0,4.8-1.01,6.48-2.65h-4.49c-.37,0-.66-.3-.66-.66s.3-.66,.66-.66h5.61c1.05-1.5,1.67-3.33,1.67-5.3,0-.68-.08-1.35-.22-1.99h-7.07Zm-3.31,8.61c-.73,0-1.32-.59-1.32-1.32s.59-1.32,1.32-1.32,1.32,.59,1.32,1.32-.59,1.32-1.32,1.32Zm.66-3.97h-2.65c-.37,0-.66-.3-.66-.66s.3-.66,.66-.66h2.65c.37,0,.66,.3,.66,.66s-.3,.66-.66,.66Zm-1.32-3.31c-1.1,0-1.99-.89-1.99-1.99s.89-1.99,1.99-1.99,1.99,.89,1.99,1.99-.89,1.99-1.99,1.99Zm5.3,4.64c-1.1,0-1.99-.89-1.99-1.99s.89-1.99,1.99-1.99,1.99,.89,1.99,1.99-.89,1.99-1.99,1.99Z"/></svg>