<?xml version="1.0" encoding="UTF-8"?><svg xmlns="http://www.w3.org/2000/svg" viewBox="0 0 36 36"><defs><style>.cls-1{fill:#fff;}.cls-2{fill:#2f449b;}</style></defs><g id="Layer_12"><path class="cls-2" d="M17.51,34.77c-1.11-1.39-2.2-2.73-3.27-4.1-2.25-2.9-4.38-5.88-6.07-9.15-.98-1.91-1.78-3.88-2.17-6C4.82,9.12,9.13,2.76,15.51,1.48c6.7-1.34,13.03,2.83,14.43,9.51,.53,2.55,.18,5.04-.66,7.47-.99,2.87-2.58,5.41-4.39,7.82-1.98,2.65-4.23,5.08-6.48,7.51-.29,.31-.58,.63-.91,.98Z"/></g><g id="Layer_13"><g><path class="cls-1" d="M27.51,20.04H8.49v-1.38H27.51v1.38Z"/><path class="cls-1" d="M26.4,6.24H9.6s0,0,0-.01c.03-.01,.07-.03,.1-.04,2.74-.99,5.48-1.98,8.22-2.98,.06-.02,.11-.02,.17,0,2.74,.99,5.49,1.99,8.23,2.98,.03,.01,.06,.02,.08,.03,0,0,0,0,0,.01Z"/><path class="cls-1" d="M18.16,16.45v-5.44c1.21-.52,2.42-1.05,3.64-1.57,.03,.08,.04,5.17,.02,5.43-1.21,.52-2.42,1.05-3.66,1.58Z"/><path class="cls-1" d="M14.19,9.44c1.23,.53,2.43,1.05,3.65,1.58v5.44s-.08-.03-.11-.04c-1.15-.5-2.3-.99-3.44-1.49-.08-.03-.11-.07-.1-.16,0-1.74,0-3.48,0-5.22,0-.03,0-.06,0-.11Z"/><path class="cls-1" d="M26.46,7.93H9.54c-.02-.07-.03-.91-.01-1.09,0,0,0,0,0,0,0,0,0,0,0,0,5.61,0,11.21,0,16.82,0,.03,0,.06,0,.09,0,.03,.1,.03,1.03,0,1.11Z"/><path class="cls-1" d="M9.53,18.18v-1.08c.08-.02,16.8-.03,16.94,0,0,.36,0,.72,0,1.08-.07,.02-16.77,.03-16.94,0Z"/><path class="cls-1" d="M24.72,16.38h-1.33c-.02-.07-.03-7.66,0-7.79h1.33c.02,.07,.03,7.67,0,7.79Z"/><path class="cls-1" d="M12.61,16.38h-1.34v-7.78c.07-.02,1.18-.03,1.33,0,.02,.07,.03,7.67,0,7.78Z"/><path class="cls-1" d="M14.99,9.52c0-.19,0-.38,0-.57,0-.02,0-.03,0-.05,.08,.02,2.6,1.68,2.73,1.81-.91-.4-1.82-.79-2.73-1.19Z"/><path class="cls-1" d="M21,8.9v.62c-.89,.39-1.79,.78-2.71,1.18,.06-.07,2.59-1.75,2.71-1.8Z"/><path class="cls-1" d="M18.26,10.39c.66-.63,1.32-1.27,2-1.91,0,.04,0,.06,0,.09,0,.15,0,.3,0,.45,0,.05-.01,.08-.05,.1-.64,.43-1.28,.86-1.93,1.28,0,0-.01,0-.02,0,0,0,0,0-.01-.01Z"/><path class="cls-1" d="M17.75,10.41s-.05-.03-.08-.05c-.61-.41-1.22-.82-1.83-1.22-.08-.05-.11-.11-.1-.2,0-.15,0-.3,0-.45,.09,.04,1.68,1.55,2.01,1.92Z"/></g></g></svg>