<?xml version="1.0" encoding="UTF-8"?><svg id="Layer_14" xmlns="http://www.w3.org/2000/svg" viewBox="0 0 36 36"><defs><style>.cls-1{fill:#fff;}.cls-2{fill:#a26627;}</style></defs><path class="cls-2" d="M17.51,34.75c-1.11-1.39-2.2-2.73-3.27-4.1-2.25-2.9-4.38-5.88-6.07-9.15-.98-1.91-1.78-3.88-2.17-6C4.82,9.11,9.13,2.74,15.51,1.47c6.7-1.34,13.03,2.83,14.43,9.51,.53,2.55,.18,5.04-.66,7.47-.99,2.87-2.58,5.41-4.39,7.82-1.98,2.65-4.23,5.08-6.48,7.51-.29,.31-.58,.63-.91,.98Z"/><g><path class="cls-1" d="M19.23,3.75c-.26-.45-.71-.71-1.23-.71s-.97,.27-1.23,.71l-1.9,3.32c-.31,.54-.47,1.16-.47,1.78v12.18h1.44l.56,1.67c.1,.29,.37,.49,.68,.49h1.84c.31,0,.59-.2,.68-.49l.56-1.67h1.44V8.85c0-.63-.16-1.24-.47-1.79l-1.9-3.32Zm-1.23,5.05c.8,0,1.44,.64,1.44,1.44s-.64,1.44-1.44,1.44-1.44-.64-1.44-1.44,.64-1.44,1.44-1.44Zm-.72,4.32h1.44c.4,0,.72,.32,.72,.72s-.32,.72-.72,.72h-1.44c-.4,0-.72-.32-.72-.72s.32-.72,.72-.72Z"/><path class="cls-1" d="M12.96,13.33v7.71h-2.88c-.4,0-.72-.32-.72-.72v-2.16c0-2.28,1.52-4.21,3.6-4.83Z"/><path class="cls-1" d="M26.64,18.16v2.16c0,.4-.32,.72-.72,.72h-2.88v-7.71c2.08,.62,3.6,2.55,3.6,4.83Z"/></g></svg>