<?xml version="1.0" encoding="UTF-8"?><svg id="Layer_6" xmlns="http://www.w3.org/2000/svg" viewBox="0 0 36 36"><defs><style>.cls-1{fill:#fff;}.cls-2{fill:#ffce07;}</style></defs><path class="cls-2" d="M17.51,34.85c-1.11-1.39-2.2-2.73-3.27-4.1-2.25-2.9-4.38-5.88-6.07-9.15-.98-1.91-1.78-3.88-2.17-6C4.82,9.21,9.13,2.84,15.51,1.57c6.7-1.34,13.03,2.83,14.43,9.51,.53,2.55,.18,5.04-.66,7.47-.99,2.87-2.58,5.41-4.39,7.82-1.98,2.65-4.23,5.08-6.48,7.51-.29,.31-.58,.63-.91,.98Z"/><g id="NewGroupe86"><g id="NewGroup0-13"><g><path class="cls-1" d="M18,11.99c-1.36,0-2.46,1.1-2.46,2.46s1.1,2.46,2.46,2.46,2.46-1.1,2.46-2.46-1.1-2.46-2.46-2.46h0Z"/><path class="cls-1" d="M11.72,18.13s-.03,.07-.04,.1c1.63,.47,3.54,.74,5.56,.8,.37-.27,.73-.55,1.09-.85-.11,0-.22,0-.32,0-2.17,0-4.23-.26-5.96-.74-.12,.23-.23,.46-.32,.68h0Z"/><path class="cls-1" d="M25.82,11.19s-.02,0-.03-.01c-.02,0-.03-.01-.05-.02-.04-.02-.08-.03-.12-.05-.03-.01-.06-.02-.09-.04,0,0,0,0,0,0-.06-.02-.12-.05-.18-.07-.04-.01-.07-.03-.11-.04-.06-.02-.12-.04-.18-.06,0,0,0,0,0,0-1.83-.63-4.11-.99-6.53-1.03h0s-.05,0-.07,0c-.05,0-.11,0-.16,0-.02,0-.04,0-.06,0-.08,0-.16,0-.24,0-.07,0-.15,0-.22,0-.02,0-.04,0-.06,0-.05,0-.11,0-.16,0-.11,0-.22,0-.33,0-.04,0-.07,0-.11,0,0,0,0,0,0,0-2.54,.08-4.91,.51-6.74,1.23-.43,.17-.81,.35-1.16,.54-.18-.11-.39-.18-.61-.18-.64,0-1.16,.52-1.16,1.16,0,.14,.03,.28,.07,.4-.33,.45-.5,.92-.5,1.41,0,1.11,.87,2.13,2.46,2.94,.03-.07,.06-.14,.09-.2,.08-.19,.17-.38,.27-.58-1.26-.64-1.96-1.41-1.96-2.16,0-.25,.08-.51,.24-.76,.15,.07,.32,.11,.5,.11,.64,0,1.16-.52,1.16-1.16,0-.1-.01-.2-.04-.29,.29-.15,.61-.3,.96-.44,.98-.39,2.14-.69,3.39-.89,0,0,0,0,0,0,.37-.06,.76-.11,1.14-.15,0,0,0,0,0,0,.08,0,.16-.02,.24-.02,.03,0,.06,0,.08,0,0,0,0,0,0,0,.79-.07,1.61-.11,2.44-.11,2.42,0,4.7,.32,6.54,.91,0,0,0,0,0,0,.11,.03,.21,.07,.31,.1,.03,.01,.06,.02,.1,.03,.13,.05,.25,.09,.37,.14,.02,0,.04,.02,.06,.02,.02,0,.04,.02,.06,.02,1.73,.7,2.71,1.61,2.71,2.5s-1.03,1.84-2.83,2.54c-.93,.36-2,.65-3.17,.85-.12,.13-.25,.25-.37,.38-.21,.21-.43,.42-.65,.63,1.68-.2,3.22-.56,4.51-1.07,2.17-.85,3.37-2.04,3.37-3.34s-1.13-2.41-3.18-3.26h0Z"/><path class="cls-1" d="M11.7,13.57c.13-.17,.26-.34,.39-.51-.15-.24-.29-.48-.43-.71-.25,.08-.48,.16-.71,.25-.03,.01-.07,.03-.1,.04,.21,.38,.44,.76,.69,1.14,.03-.04,.06-.09,.1-.13,.02-.03,.04-.05,.06-.08h0Z"/><path class="cls-1" d="M22.47,13.83c.18-.24,.35-.48,.51-.73-.38-.46-.77-.91-1.2-1.35-.44-.07-.9-.13-1.37-.17,.08,.07,.15,.15,.23,.23,.66,.66,1.27,1.34,1.83,2.03h0Z"/><path class="cls-1" d="M14.62,7.48c.64,.28,1.31,.64,1.99,1.07,0,0,0,0,0,0,.24-.19,.48-.37,.72-.55-.81-.53-1.61-.97-2.37-1.3-1.08-.47-2.04-.7-2.85-.7s-1.44,.23-1.9,.68c-.78,.78-.89,2.12-.33,3.82,.07-.03,.14-.06,.2-.08,.19-.08,.39-.15,.6-.22-.44-1.34-.39-2.38,.14-2.91,.64-.64,2.03-.57,3.8,.2h0Z"/><path class="cls-1" d="M15.59,17.32c-.08-.08-.15-.15-.23-.23-.66-.66-1.27-1.34-1.83-2.03h0s-.06,.09-.1,.13c-.07,.1-.14,.19-.21,.29,0,.01-.02,.02-.02,.03-.03,.04-.05,.07-.08,.11-.03,.05-.07,.1-.1,.14,0,0,0,.01-.01,.02h0c.38,.46,.78,.91,1.2,1.36,.44,.07,.9,.13,1.37,.17h0Z"/><path class="cls-1" d="M24.33,16.55c.25-.08,.48-.16,.71-.25,.03-.01,.07-.03,.1-.04-.21-.38-.44-.76-.69-1.14-.18,.24-.36,.48-.55,.73,.15,.24,.29,.48,.43,.71h0Z"/><path class="cls-1" d="M25.91,10.41c.07,.03,.14,.05,.2,.08,.23-.71,.35-1.35,.35-1.92,0-.8-.23-1.44-.68-1.9-.09-.09-.19-.17-.29-.24-.04-.6-.54-1.08-1.16-1.08-.47,0-.87,.28-1.06,.68-.67,.09-1.42,.31-2.24,.66-1.26,.55-2.61,1.38-3.94,2.43,.3,0,.6-.01,.91-.01,.18,0,.36,0,.53,0,.97-.69,1.93-1.24,2.84-1.64,.68-.3,1.31-.49,1.86-.58,.16,.45,.59,.78,1.1,.78,.34,0,.65-.15,.86-.38,.52,.54,.55,1.57,.12,2.9,.2,.07,.4,.14,.6,.22h0Z"/><path class="cls-1" d="M21.24,17.69c.18-.18,.36-.37,.54-.55,1.39-1.47,2.55-3.02,3.37-4.5-.03-.01-.07-.03-.1-.04-.23-.09-.46-.17-.71-.25-.88,1.56-2.16,3.2-3.69,4.74-.08,.08-.15,.15-.23,.23-.96,.94-1.95,1.77-2.94,2.47-.97,.68-1.93,1.24-2.84,1.64-1.02,.45-1.92,.66-2.61,.63,0-.03,0-.05,0-.08,0-.64-.52-1.16-1.16-1.16-.14,0-.28,.03-.4,.07-.12-.56-.04-1.3,.24-2.18,.09-.28,.2-.58,.34-.88,.18-.42,.4-.85,.64-1.28,.88-1.56,2.16-3.2,3.69-4.74,.08-.08,.15-.15,.23-.23-.47,.04-.93,.1-1.37,.17-1.39,1.47-2.55,3.02-3.37,4.5-.23,.42-.44,.83-.61,1.23-.14,.32-.26,.63-.35,.92-.42,1.28-.46,2.36-.12,3.14-.05,.13-.08,.27-.08,.43,0,.64,.52,1.16,1.16,1.16,.28,0,.54-.1,.74-.27,.17,.02,.34,.04,.53,.04,.81,0,1.77-.23,2.85-.7,1.26-.55,2.61-1.38,3.94-2.43,.79-.62,1.58-1.32,2.34-2.08h0Z"/><path class="cls-1" d="M26.45,20.64c.05-.64-.06-1.39-.34-2.23-.07,.03-.14,.06-.2,.08-.19,.08-.39,.15-.6,.22,.2,.61,.3,1.16,.3,1.63-.62,.03-1.11,.54-1.11,1.16,0,.16,.03,.32,.1,.46-.74,.23-1.87,.05-3.22-.54-.64-.28-1.31-.64-1.99-1.07h-.01c-.24,.2-.47,.38-.71,.55,.81,.53,1.61,.97,2.37,1.3,1.08,.47,2.04,.7,2.85,.7,.54,0,1.01-.11,1.4-.32,.12,.04,.25,.06,.38,.06,.64,0,1.16-.52,1.16-1.16,0-.34-.15-.64-.38-.86h0Z"/></g></g></g></svg>