<?xml version="1.0" encoding="UTF-8"?><svg id="Layer_28" xmlns="http://www.w3.org/2000/svg" viewBox="0 0 36 36"><defs><style>.cls-1{fill:#bcbec0;}</style></defs><path class="cls-1" d="M17.51,35.04c-1.11-1.39-2.2-2.73-3.27-4.1-2.25-2.9-4.38-5.88-6.07-9.15-.98-1.91-1.78-3.88-2.17-6C4.82,9.39,9.13,3.03,15.51,1.75c6.7-1.34,13.03,2.83,14.43,9.51,.53,2.55,.18,5.04-.66,7.47-.99,2.87-2.58,5.41-4.39,7.82-1.98,2.65-4.23,5.08-6.48,7.51-.29,.31-.58,.63-.91,.98Z"/><g id="NewGroupe28"><g id="NewGroup0-71"><path d="M25.22,11.62l1.42,1.86c.23,.31,.29,.71,.14,1.07l-.94,2.27c-.15,.36-.47,.61-.86,.66l-2.32,.3c-.44,.06-.87-.16-1.09-.55l-.83-1.5c-.16-.29-.18-.63-.05-.94l1.02-2.46c.13-.3,.38-.53,.7-.62l1.65-.47c.43-.12,.89,.03,1.16,.38h0Zm-3.88,7.54l-1.17,2.03c-.19,.33-.55,.54-.94,.54h-2.46c-.39,0-.74-.21-.94-.54l-1.17-2.03c-.22-.38-.19-.87,.09-1.21l1.07-1.34c.2-.26,.52-.41,.85-.41h2.66c.33,0,.64,.15,.85,.41l1.07,1.34c.28,.35,.31,.83,.09,1.21h0Zm-8.09-1.11l-2.32-.36c-.38-.06-.7-.32-.84-.68l-.89-2.29c-.14-.36-.08-.77,.16-1.07l1.47-1.83c.28-.35,.74-.49,1.16-.36l1.64,.51c.31,.1,.57,.33,.69,.64l.96,2.48c.12,.31,.09,.65-.07,.93l-.86,1.48c-.22,.38-.66,.59-1.1,.52h0Zm-1.41-11.42l1.92-1.53c.3-.24,.71-.3,1.07-.16l2.18,.86c.41,.16,.69,.56,.69,1.01v1.71c0,.33-.15,.64-.41,.85l-2.08,1.66c-.26,.21-.59,.28-.91,.21l-1.67-.38c-.43-.1-.76-.45-.83-.89l-.35-2.32c-.06-.38,.09-.76,.39-1.01h0Zm6.71,.17c0-.44,.27-.84,.69-1.01l2.18-.86c.36-.14,.77-.08,1.07,.16l1.92,1.53c.3,.24,.45,.62,.39,1.01l-.35,2.32c-.07,.44-.39,.79-.83,.89l-1.67,.38c-.32,.07-.66,0-.91-.21l-2.08-1.66c-.26-.2-.41-.52-.41-.85v-1.71h0Zm-.54-3.34c-5.47,0-9.9,4.43-9.9,9.9s4.43,9.9,9.9,9.9,9.9-4.43,9.9-9.9S23.47,3.47,18,3.47h0Z"/></g></g></svg>