<?xml version="1.0" encoding="UTF-8"?><svg id="Layer_4" xmlns="http://www.w3.org/2000/svg" viewBox="0 0 36 36"><defs><style>.cls-1{fill:#808285;}.cls-2{fill-rule:evenodd;}</style></defs><path class="cls-1" d="M17.51,34.85c-1.11-1.39-2.2-2.73-3.27-4.1-2.25-2.9-4.38-5.88-6.07-9.15-.98-1.91-1.78-3.88-2.17-6C4.82,9.21,9.13,2.84,15.51,1.57c6.7-1.34,13.03,2.83,14.43,9.51,.53,2.55,.18,5.04-.66,7.47-.99,2.87-2.58,5.41-4.39,7.82-1.98,2.65-4.23,5.08-6.48,7.51-.29,.31-.58,.63-.91,.98Z"/><path class="cls-2" d="M12.5,20.98c-.16,.17-.32,.35-.46,.47l-.09,.09c-.09,.09-.24,.09-.33,0h0c-.09-.09-.09-.24,0-.33l3.52-3.52c.09-.09,.24-.09,.33,0h0s.03,.04,.04,.06c0,0,.02,.01,.03,.02,0,.01,0,.02,0,.03,.01,.07,0,.15-.06,.21l-.36,.36c-.34,.37-.81,.82-1.12,1.13l-1.48,1.48Zm2.14-4.11h0c.04,.09,.03,.2-.04,.27l-3.52,3.52c-.09,.09-.24,.09-.33,0h0c-.09-.09-.09-.24,0-.33l3.52-3.52c.09-.09,.24-.09,.33,0h0s.03,.03,.04,.05h0Zm4.94-3.48c1.05-1.07,2.23-2.26,3.26-3.3,.67-.67,1.17-1.16,1.31-1.24,.45-.28,.86-.13,1.13-.53,.24-.36,1.1-1.7,1.22-2.04-.16-.26-.35-.45-.58-.58-.39,.14-1.59,.94-2,1.2-.44,.28-.2,.43-.52,1.07-.03,.07-.17,.22-.36,.43-1.37,1.37-3.33,3.34-4.22,4.23,.26,.25,.51,.5,.77,.75Zm1.3,5.6c.17,.39-.6,1.77,.77,3.13,.8,.8,1.69,.96,3.04,.73l-.67-.72c-1.31-1.29-1.3-1.2-.25-2.26,.44-.45,.86-1.18,1.58-.46l1.41,1.33c.2-1.36,.02-2.24-.79-3.02-1.15-1.11-1.79-.7-3.13-.73-2.57-2.53-5.14-5.06-7.73-7.56-.02-1.35,.35-2.01-.77-3.13-.8-.8-1.69-.96-3.04-.73,.17,.32,1.04,1.08,1.36,1.39,.73,.71,0,1.15-.43,1.59-.44,.45-.86,1.18-1.58,.46-.31-.31-1.09-1.16-1.43-1.33-.11,1.31-.07,2.38,1.08,3.3,.95,.76,1.83,.43,2.86,.45,2.57,2.53,5.15,5.04,7.73,7.56Zm-3.5-1.96s-.41-.41-.71-.71c.11-.1,.29-.29,.53-.53-.25-.24-.5-.49-.75-.73l-.51,.52-.71-.71c-.22,.1-.15,.1-.31,.21,.23,.56-.05,.95-.65,.66l-1.8,1.82c-.62,.62-1.19,1.2-1.81,1.82-.46,.46-1.53,1.21-.99,2.43,.33,.73,1.07,1.05,1.84,.86,.71-.18,2.24-1.96,2.82-2.54,.71-.71,1.45-1.52,2.17-2.18-.3-.52,.04-.9,.66-.64l.22-.28Z"/></svg>