<?xml version="1.0" encoding="UTF-8"?><svg id="Layer_9" xmlns="http://www.w3.org/2000/svg" viewBox="0 0 36 36"><defs><style>.cls-1{fill:#662d91;}</style></defs><path class="cls-1" d="M17.51,35.31c-1.11-1.39-2.2-2.73-3.27-4.1-2.25-2.9-4.38-5.88-6.07-9.15-.98-1.91-1.78-3.88-2.17-6-1.18-6.4,3.13-12.76,9.51-14.04,6.7-1.34,13.03,2.83,14.43,9.51,.53,2.55,.18,5.04-.66,7.47-.99,2.87-2.58,5.41-4.39,7.82-1.98,2.65-4.23,5.08-6.48,7.51-.29,.31-.58,.63-.91,.98Z"/><g id="NewGroupe78"><g id="NewGroup0-21"><g><path d="M19.55,9.67c-.02,.13-.06,.26-.11,.38-.11,.24-.31,.82-.39,2.08-.07,1.25-.4,2.16-.98,2.71-.51,.48-1.02,.5-1.12,.5s-.19-.02-.27-.06c-.14,.46-.34,.84-.61,1.14-.51,.59-1.07,.67-1.18,.68-.02,0-.04,0-.06,0-.14,0-.28-.05-.39-.13-.12,.26-.27,.49-.44,.69-.36,.41-.74,.57-.97,.64,0,.06-.02,.11-.04,.17-.33,.82-.83,1.19-1.2,1.36,0,0,0,0,0,0,0,0,0,0,.01,.01,2,2.26,6.55,4.96,8.43,6.03,.4,.23,.9-.04,.93-.5,.21-2.88-.63-3.75-2.43-5.87-1.99-2.34-.41-3.97-.41-3.97,.38,1.46,1.85,1.99,2.99,2.18,.82,.14,1.49,.72,1.77,1.5,.04,.13,.09,.27,.15,.41,.47,1.23,3.21,.29,3.21-.99s-1.64-.88-1.81-2.16c-.05-.39-.2-.98-.39-1.61-.14-.47-.33-.91-.56-1.33-.06,0-.12,0-.19,0-.05,0-.11,0-.16,0-1.49-.07-2.85-1.54-2.92-2.69-.02-.34,.09-.66,.32-.9,.11-.12,.25-.22,.4-.28,.26-.9,.76-1.83,.76-1.83-1.12,0-1.95,1.21-2.32,1.84h0Z"/><path d="M18.4,12.09c.07-1.25,.27-1.94,.45-2.32,.15-.32,.02-.71-.3-.86-.6-.28-1.41-.49-1.72,.29,.1,.11,.19,.24,.25,.38,.16,.34,.18,.73,.04,1.08-.07,.18-.14,.45-.18,.84,.34,1.12,.83,2.01,0,3.2,0,0,1.3,0,1.45-2.6h0Z"/><path d="M16.06,9.45c-.75-.27-1.75-.42-2.01,.58,.05,.02,.1,.03,.16,.05,.36,.13,.64,.39,.8,.73,.16,.34,.18,.73,.04,1.08-.1,.28-.21,.77-.24,1.61,.4,.93,.66,1.78,0,2.95,0,0,1.54-.15,1.42-3.23-.06-1.49,.1-2.32,.27-2.79,.15-.39-.06-.83-.46-.98h0Z"/><path d="M11.92,11.86c.03,2.53,2.07,3.64,.84,5.84,0,0,1.54-.15,1.42-3.23-.06-1.49,.1-2.32,.27-2.79,.15-.39-.06-.83-.46-.98-.87-.31-2.09-.47-2.07,1.17h0Z"/><path d="M10.41,13.49c.03,2.53,2.07,3.64,.84,5.84,0,0,.72-.07,1.13-1.1-.07-.05-.12-.11-.17-.18-.13-.2-.14-.46-.02-.67,.57-1,.27-1.67-.17-2.67-.32-.72-.68-1.53-.74-2.57-.49,.08-.88,.43-.87,1.35h0Z"/><path d="M11.15,19.97c-.18-.03-.34-.13-.44-.29-.13-.2-.14-.46-.02-.67,.57-1,.27-1.67-.17-2.67-.24-.54-.5-1.13-.64-1.84-.5,.07-.89,.42-.88,1.35,.03,2.53,2.07,3.64,.84,5.84,0,0,.99-.09,1.32-1.72h0Z"/><path d="M21.04,10.81c.05,.83,1.15,2.02,2.3,2.08,1.12,.06,1.34-.6,1.36-1.1,0-.11-.13-.17-.21-.09-.15,.15-.43,.29-.97,.33-.82,.06-1.19-.79-1.36-1.4-.18-.66-1.16-.5-1.12,.18h0Z"/><path d="M26.93,7.58c.05-.07,.08-.15,.08-.24,0-.1-.04-.21-.12-.28-.14-.14-.37-.15-.52-.02l-1.03,.81c.35,.07,.77,.13,1.22,.13l.37-.39h0Z"/><path d="M22.61,10.07c.08,.12,.14,.25,.18,.39,.06,.22,.28,.92,.65,.92,.01,0,.02,0,.03,0,.44-.03,.55-.14,.55-.14,.04-.04,.09-.08,.14-.11l.96-1.26c-.78-.03-1.45-.19-1.88-.32l-.64,.52h0Z"/><path d="M23.87,9.04c.47,.11,1.08,.2,1.75,.18l.46-.61c-.54-.04-1.02-.14-1.38-.24l-.83,.67h0Z"/></g></g></g></svg>