<?xml version="1.0" encoding="UTF-8"?><svg id="Layer_26" xmlns="http://www.w3.org/2000/svg" viewBox="0 0 36 36"><defs><style>.cls-1{fill:#fff;}.cls-2{fill:#9e1f63;}</style></defs><path class="cls-2" d="M17.51,35.04c-1.11-1.39-2.2-2.73-3.27-4.1-2.25-2.9-4.38-5.88-6.07-9.15-.98-1.91-1.78-3.88-2.17-6C4.82,9.39,9.13,3.03,15.51,1.75c6.7-1.34,13.03,2.83,14.43,9.51,.53,2.55,.18,5.04-.66,7.47-.99,2.87-2.58,5.41-4.39,7.82-1.98,2.65-4.23,5.08-6.48,7.51-.29,.31-.58,.63-.91,.98Z"/><g id="NewGroupe24"><g id="NewGroup0-75"><g><path class="cls-1" d="M11.3,13.77v-.02c0-1.13,.58-2.18,1.54-2.78,1.36-.85,3.12-1.11,5.03,.82,.04,.04,.09,.09,.13,.13,.04-.05,.09-.09,.13-.13,1.91-1.93,3.67-1.67,5.03-.82,.96,.6,1.54,1.65,1.54,2.78v.02c0,2.23-.62,4.26-1.63,5.83-1.21,1.86-2.98,3.05-4.96,3.09-.04,0-.07,0-.11,0s-.07,0-.11,0c-1.98-.04-3.75-1.23-4.96-3.09-1.02-1.56-1.63-3.6-1.63-5.83h0Zm-2.74,3.81c.03,1.7,.48,5.92,4.03,6.63h10.81c3.55-.71,4-4.92,4.03-6.63,0-.31-.34-.51-.6-.34l-2.57,1.61c.71-1.47,1.11-3.21,1.11-5.08,0-.2,0-.41-.01-.61-.04-.78-.15-1.54-.32-2.26-.17-.7-.4-1.36-.68-1.98-1.28-2.84-3.65-4.75-6.37-4.75-2.19,0-4.17,1.25-5.52,3.23-.69,1-1.21,2.2-1.53,3.51-.17,.72-.28,1.48-.32,2.26,0,.2-.01,.4-.01,.6,0,1.86,.41,3.6,1.11,5.08l-2.57-1.61c-.27-.17-.61,.03-.6,.34h0Z"/><path class="cls-1" d="M19.66,15.05c2.1,1.03,3.13-.29,3.56-1.15,.12-.25-.12-.53-.38-.44l-3.13,1.01c-.27,.09-.3,.46-.04,.59h0Z"/><path class="cls-1" d="M16.34,15.05c.26-.13,.23-.5-.04-.59l-3.13-1.01c-.27-.09-.51,.19-.38,.44,.42,.87,1.45,2.18,3.56,1.15h0Z"/><path class="cls-1" d="M15.02,17.75c-.03,.11-.04,.22-.04,.33,0,.51,.29,.98,.76,1.34-.01,.91,.49,1.52,.86,1.86,.09,.08,.23,0,.2-.12-.09-.38-.08-.86-.06-1.22,.41,.13,.87,.2,1.35,.2s.94-.07,1.35-.2c.03,.36,.03,.85-.06,1.22-.03,.12,.11,.2,.2,.12,.37-.33,.88-.95,.86-1.86,.47-.36,.76-.83,.76-1.34,0-.11-.01-.22-.04-.33-.24,.82-1.52,1.45-3.07,1.45s-2.83-.63-3.07-1.45h0Z"/></g></g></g></svg>