<?xml version="1.0" encoding="UTF-8"?><svg id="Layer_20" xmlns="http://www.w3.org/2000/svg" viewBox="0 0 36 36"><defs><style>.cls-1{fill:#020202;}.cls-2{fill:#bc5768;}</style></defs><path class="cls-2" d="M17.51,34.77c-1.11-1.39-2.2-2.73-3.27-4.1-2.25-2.9-4.38-5.88-6.07-9.15-.98-1.91-1.78-3.88-2.17-6C4.82,9.12,9.13,2.76,15.51,1.48c6.7-1.34,13.03,2.83,14.43,9.51,.53,2.55,.18,5.04-.66,7.47-.99,2.87-2.58,5.41-4.39,7.82-1.98,2.65-4.23,5.08-6.48,7.51-.29,.31-.58,.63-.91,.98Z"/><g><path class="cls-1" d="M20.78,14.83v2.87c-.92,.27-1.9,.56-2.88,.85-.07,.02-.17,.02-.24,0-.85-.25-1.7-.5-2.59-.76,.13-1.01,.35-2,.07-3.12-.15,.33-.25,.57-.36,.81-.1,.21-.2,.42-.29,.63-.28,.72-.76,1.08-1.57,1.14-1.18,.09-2.35,.32-3.53,.47-.68,.09-.99-.16-1.12-.83-.12-.62,.1-1,.72-1.17,1.01-.29,2.03-.55,3.03-.85,.18-.05,.37-.22,.46-.38,.49-.93,.97-1.86,1.43-2.81,.5-1.04,1.34-1.58,2.45-1.74,1.13-.16,2.26-.17,3.38,.02,.97,.16,1.72,.65,2.18,1.55,.5,.99,1.01,1.97,1.49,2.96,.12,.25,.27,.37,.54,.43,.98,.25,1.95,.52,2.92,.79,.82,.23,1.09,.99,.6,1.7-.19,.27-.44,.41-.77,.37-1.43-.19-2.87-.37-4.29-.61-.27-.05-.56-.34-.71-.6-.33-.55-.57-1.14-.84-1.72-.03,0-.06,0-.1,.01Z"/><path class="cls-1" d="M20.81,21.79c.13,.02,.27,.07,.4,.06,.51-.05,1.03-.11,1.57-.18,.06,.44-.1,.76-.39,1.03-.42,.38-.91,.46-1.45,.34-.93-.2-1.87-.41-2.8-.59-.27-.05-.57-.05-.84,0-.83,.15-1.66,.35-2.49,.51-.54,.11-1.05,.04-1.37-.48-.32-.5-.4-1.04-.03-1.53,.17-.22,.45-.43,.71-.5,2.76-.76,5.53-1.49,8.3-2.21,.25-.07,.54-.02,.81,.02,.46,.06,.92,.15,1.37,.22,.62,.09,.96,.56,.87,1.18-.1,.68-.64,1.2-1.45,1.36-.96,.2-1.93,.37-2.89,.56-.1,.02-.2,.06-.3,.08,0,.04,0,.09,0,.13Z"/><path class="cls-1" d="M18.02,3.64c1.54,0,2.82,1.3,2.8,2.83-.02,1.56-1.27,2.8-2.82,2.81-1.57,0-2.83-1.28-2.81-2.85,.02-1.56,1.28-2.79,2.84-2.79Z"/><path class="cls-1" d="M12.25,21.28c-.44-.22-.9-.38-1.25-.66-.61-.48-.66-1.33-.14-1.88,.13-.14,.33-.23,.51-.28,1.11-.32,2.19-.24,3.27,.16,.48,.18,.99,.27,1.49,.49-.58,.16-1.16,.32-1.75,.47-1.3,.35-1.43,.45-2.13,1.7Z"/></g></svg>