<?xml version="1.0" encoding="UTF-8"?><svg id="Layer_15" xmlns="http://www.w3.org/2000/svg" viewBox="0 0 27.83 24.74"><defs><style>.cls-1{fill:#fff;}.cls-2{fill:#2bb673;}</style></defs><rect class="cls-2" x=".82" y=".73" width="26.07" height="23.24" rx="3.47" ry="3.47"/><path class="cls-1" d="m13.64,1.75c-4.86,0-9.13,4.62-9.13,9.89,0,2.25,1.67,5.43,4.98,9.45,1.02,1.25,2.54,1.96,4.15,1.96s3.13-.72,4.15-1.96c3.3-4.03,4.98-7.21,4.98-9.45,0-5.27-4.26-9.89-9.13-9.89Zm-6.85,9.13v-.76c0-.42.34-.76.76-.76h.76c2.1,0,3.8,1.71,3.8,3.8v1.52c0,.42-.34.76-.76.76-2.52,0-4.56-2.05-4.56-4.56Zm8.37,8.37h-3.04c-.42,0-.76-.34-.76-.76s.34-.76.76-.76h3.04c.42,0,.76.34.76.76s-.34.76-.76.76Zm.76-3.8c-.42,0-.76-.34-.76-.76v-1.52c0-2.1,1.71-3.8,3.8-3.8h.76c.42,0,.76.34.76.76v.76c0,2.52-2.05,4.56-4.56,4.56Z"/></svg>