<?xml version="1.0" encoding="UTF-8"?><svg id="Layer_11" xmlns="http://www.w3.org/2000/svg" viewBox="0 0 27.65 24.92"><defs><style>.cls-1{fill:#fff;}.cls-2{fill:#a97c50;}</style></defs><rect class="cls-2" x=".95" y=".75" width="26.07" height="23.24" rx="3.47" ry="3.47"/><g><path class="cls-1" d="m18.56,14.26c-.07-.16-.15-.31-.23-.46-1-1.82-2.57-2.99-4.33-2.99s-3.33,1.17-4.33,2.98c-.08.15-.16.3-.23.46-.22.48-.53.91-.91,1.28-1.96,1.93-2.6,4.48-1.41,5.95.55.67,1.39,1.02,2.37,1.05.66.02,1.71-.38,2.64-.8,1.16-.53,2.49-.52,3.65,0,.93.43,2.02.81,2.74.79.97-.03,1.81-.38,2.36-1.05,1.19-1.47.55-4-1.39-5.93-.37-.37-.69-.8-.91-1.28Z"/><ellipse class="cls-1" cx="10.41" cy="6.08" rx="2.65" ry="3.91" transform="translate(-1.14 2.62) rotate(-13.62)"/><ellipse class="cls-1" cx="6" cy="11.78" rx="2.25" ry="3.32" transform="translate(-2.61 1.74) rotate(-13.62)"/><ellipse class="cls-1" cx="17.56" cy="6.06" rx="3.91" ry="2.65" transform="translate(7.54 21.7) rotate(-76.38)"/><ellipse class="cls-1" cx="21.97" cy="11.76" rx="3.32" ry="2.25" transform="translate(5.36 30.35) rotate(-76.38)"/></g></svg>