<?xml version="1.0" encoding="UTF-8"?><svg id="Layer_22" xmlns="http://www.w3.org/2000/svg" viewBox="0 0 27.65 24.56"><defs><style>.cls-1{fill:#00a79d;}.cls-2{fill:#fff;}</style></defs><rect class="cls-1" x=".88" y=".7" width="26.07" height="23.24" rx="3.47" ry="3.47"/><g id="NewGroupe37"><g id="NewGroup0-62"><g><path class="cls-2" d="m14.99,5.29c0-.66-.53-1.19-1.19-1.19s-1.19.53-1.19,1.19.53,1.19,1.19,1.19,1.19-.53,1.19-1.19h0Z"/><path class="cls-2" d="m11.79,5.29c0-1.11.9-2.01,2.01-2.01s2.01.9,2.01,2.01-.9,2.01-2.01,2.01-2.01-.9-2.01-2.01h0Zm7.33,13.77c0,1.25-1.02,2.27-2.27,2.27s-2.27-1.02-2.27-2.27,1.02-2.27,2.27-2.27,2.27,1.02,2.27,2.27h0Zm.52-12.39c1.25,0,2.27,1.02,2.27,2.27s-1.02,2.27-2.27,2.27-2.27-1.02-2.27-2.27,1.02-2.27,2.27-2.27h0Zm3.5,8.67c0,1.25-1.02,2.27-2.27,2.27s-2.27-1.02-2.27-2.27,1.02-2.27,2.27-2.27,2.27,1.02,2.27,2.27h0Zm-9.98,7.29c.16.12.27.3.3.49,4.85.65,9.78-2.05,11.66-6.8,2.19-5.53-.44-11.82-5.95-14.12-1.97-.82-4.05-1.03-6.02-.7-2.31.39-3.58,2.88-2.61,5.02.7,1.53.78,3.34.08,5.01-.34.81-.82,1.51-1.41,2.08.26.81.44,1.65.53,2.5,0,.01,0,.03,0,.04.02,0,.03-.02.05-.03.32-.17.68-.26,1.06-.26,1.25,0,2.27,1.02,2.27,2.27,0,.78-.39,1.47-1,1.88.05.27.08.53.11.77.15,1.18.85,1.79.92,1.85h0Z"/><path class="cls-2" d="m20.75,9.23c0,.5-.22.95-.58,1.25.64-.22,1.1-.83,1.1-1.55,0-.9-.73-1.64-1.64-1.64-.4,0-.77.15-1.06.39.17-.06.35-.09.54-.09.9,0,1.64.73,1.64,1.64h0Z"/><path class="cls-2" d="m19.81,14.08c.17-.06.35-.09.54-.09.9,0,1.64.73,1.64,1.64,0,.5-.22.95-.58,1.25.64-.22,1.1-.83,1.1-1.55,0-.9-.73-1.64-1.64-1.64-.4,0-.77.15-1.06.39h0Z"/><path class="cls-2" d="m17.96,19.35c0,.5-.22.95-.58,1.25.64-.22,1.1-.83,1.1-1.55,0-.9-.73-1.64-1.64-1.64-.4,0-.77.15-1.06.39.17-.06.35-.09.54-.09.9,0,1.64.73,1.64,1.64h0Z"/><path class="cls-2" d="m11.99,19.3c.31-.3.5-.72.5-1.18,0-.9-.73-1.64-1.64-1.64-.12,0-.24.01-.35.04.13.1.25.22.37.35.64.22,1.09.83,1.09,1.54,0,.17-.03.34-.08.5.04.13.07.26.1.38h0Z"/><path class="cls-2" d="m8.18,17.94c-.07,1.56,1.3,2.94,1.3,2.94-2.64-.89-1.3-2.94-1.3-2.94h0Zm.16-1.11c-.45.09-.82.41-.98.85-.35.94-.65,2.74,1.45,4.09,2.97,1.91,3.85,1.51,3.85,1.51,0,0-1.02-.8-1.22-2.39-.18-1.46-.66-4.55-3.09-4.05h0Z"/><path class="cls-2" d="m4.26,12.75c.47,1.64,1.29,3.15,2.42,4.42.29-.6.84-1.02,1.5-1.16.23-.05.45-.07.67-.07.02,0,.04,0,.06,0-.2-1.61-.74-3.15-1.58-4.54L2.99,4.28c-.11-.17-.29-.27-.49-.27-.08,0-.15.02-.23.05-.26.11-.4.4-.32.68l2.3,8.02h0Z"/></g></g></g></svg>