<?xml version="1.0" encoding="UTF-8"?><svg id="Layer_22" xmlns="http://www.w3.org/2000/svg" viewBox="0 0 36 36"><defs><style>.cls-1{fill:#00a79d;}.cls-2{fill:#fff;}</style></defs><path class="cls-1" d="M17.51,34.5c-1.11-1.39-2.2-2.73-3.27-4.1-2.25-2.9-4.38-5.88-6.07-9.15-.98-1.91-1.78-3.88-2.17-6C4.82,8.85,9.13,2.49,15.51,1.21c6.7-1.34,13.03,2.83,14.43,9.51,.53,2.55,.18,5.04-.66,7.47-.99,2.87-2.58,5.41-4.39,7.82-1.98,2.65-4.23,5.08-6.48,7.51-.29,.31-.58,.63-.91,.98Z"/><g id="NewGroupe37"><g id="NewGroup0-62"><g><path class="cls-2" d="M18.88,7.84c0-.54-.44-.98-.98-.98s-.98,.44-.98,.98,.44,.98,.98,.98,.98-.44,.98-.98h0Z"/><path class="cls-2" d="M16.24,7.84c0-.92,.74-1.66,1.66-1.66s1.66,.74,1.66,1.66-.74,1.66-1.66,1.66-1.66-.74-1.66-1.66h0Zm6.06,11.38c0,1.04-.84,1.88-1.88,1.88s-1.88-.84-1.88-1.88,.84-1.88,1.88-1.88,1.88,.84,1.88,1.88h0Zm.43-10.24c1.04,0,1.88,.84,1.88,1.88s-.84,1.88-1.88,1.88-1.88-.84-1.88-1.88,.84-1.88,1.88-1.88h0Zm2.89,7.17c0,1.04-.84,1.88-1.88,1.88s-1.88-.84-1.88-1.88,.84-1.88,1.88-1.88,1.88,.84,1.88,1.88h0Zm-8.25,6.02c.13,.1,.22,.25,.25,.41,4.01,.54,8.08-1.69,9.64-5.62,1.81-4.57-.36-9.77-4.92-11.67-1.63-.68-3.35-.85-4.97-.58-1.91,.32-2.96,2.38-2.16,4.15,.57,1.27,.64,2.76,.06,4.14-.28,.67-.68,1.24-1.17,1.72,.22,.67,.37,1.37,.44,2.07,0,.01,0,.02,0,.04,.01,0,.03-.01,.04-.02,.26-.14,.56-.22,.88-.22,1.04,0,1.88,.84,1.88,1.88,0,.65-.33,1.22-.82,1.55,.04,.22,.07,.44,.09,.64,.12,.97,.7,1.48,.76,1.53h0Z"/><path class="cls-2" d="M23.65,11.1c0,.41-.19,.78-.48,1.03,.53-.18,.91-.69,.91-1.28,0-.75-.61-1.35-1.35-1.35-.33,0-.64,.12-.87,.32,.14-.05,.29-.07,.44-.07,.75,0,1.35,.61,1.35,1.35h0Z"/><path class="cls-2" d="M22.87,15.11c.14-.05,.29-.07,.44-.07,.75,0,1.35,.61,1.35,1.35,0,.41-.19,.78-.48,1.03,.53-.18,.91-.69,.91-1.28,0-.75-.61-1.35-1.35-1.35-.33,0-.64,.12-.87,.32h0Z"/><path class="cls-2" d="M21.34,19.46c0,.41-.19,.78-.48,1.03,.53-.18,.91-.69,.91-1.28,0-.75-.61-1.35-1.35-1.35-.33,0-.64,.12-.87,.32,.14-.05,.29-.07,.44-.07,.75,0,1.35,.61,1.35,1.35h0Z"/><path class="cls-2" d="M16.41,19.42c.26-.25,.41-.59,.41-.97,0-.75-.61-1.35-1.35-1.35-.1,0-.19,.01-.29,.03,.1,.08,.21,.18,.31,.29,.53,.19,.9,.69,.9,1.28,0,.14-.02,.28-.06,.41,.03,.11,.06,.21,.08,.32h0Z"/><path class="cls-2" d="M13.26,18.29c-.06,1.29,1.08,2.43,1.08,2.43-2.18-.74-1.08-2.43-1.08-2.43h0Zm.13-.92c-.37,.08-.68,.34-.81,.7-.29,.77-.54,2.26,1.2,3.38,2.45,1.58,3.18,1.25,3.18,1.25,0,0-.85-.66-1.01-1.97-.15-1.21-.55-3.76-2.56-3.35h0Z"/><path class="cls-2" d="M10.02,14.01c.39,1.35,1.07,2.6,2,3.66,.24-.49,.69-.84,1.24-.96,.19-.04,.38-.06,.55-.06,.02,0,.03,0,.05,0-.17-1.33-.61-2.6-1.31-3.75l-3.58-5.9c-.09-.14-.24-.23-.4-.23-.06,0-.13,.01-.19,.04-.22,.09-.33,.33-.26,.56l1.9,6.63h0Z"/></g></g></g></svg>