<?xml version="1.0" encoding="UTF-8"?><svg id="Layer_19" xmlns="http://www.w3.org/2000/svg" viewBox="0 0 28.37 25.1"><defs><style>.cls-1{fill:#fff;}.cls-2{fill:#636464;}</style></defs><rect class="cls-2" x="1.25" y=".81" width="26.07" height="23.24" rx="3.47" ry="3.47"/><g id="NewGroupe95"><g id="NewGroup0-4"><g><path class="cls-1" d="m20.52,21.23c.3-.21.59-.44.87-.69l-.5-.21-.37.89h0Z"/><path class="cls-1" d="m7.68,20.33l-.5.21c.28.24.57.47.87.69l-.37-.89h0Z"/><path class="cls-1" d="m7.02,18.27l1.49-.75c.1-.05.2-.05.3-.02.09.03.17.09.22.19l.75,1.49c.09.19.02.41-.17.5-.19.09-.41.02-.5-.17l-.59-1.17-1.17.59c-.05.03-.11.04-.17.04-.14,0-.27-.08-.34-.21-.09-.18-.02-.41.17-.5h0Zm.48-11.49l.77-1.48c.05-.09.13-.15.22-.18,0,0,0,0,.02,0,.09-.03.19-.02.28.03l1.48.77c.18.1.26.32.16.51-.1.18-.32.26-.51.16l-1.16-.6-.6,1.16c-.07.13-.2.2-.33.2-.06,0-.12-.01-.17-.04-.18-.1-.26-.32-.16-.51h0Zm3.43,1.76c-.12.17-.35.21-.52.1l-1.07-.74-.74,1.07c-.07.11-.19.16-.31.16-.07,0-.15-.02-.21-.07-.17-.12-.21-.35-.1-.52l.95-1.38c.06-.09.15-.14.25-.16.1-.02.2,0,.28.06l1.38.95c.17.12.21.35.1.52h0Zm.14,2.31c-.14.16-.37.17-.53.04l-.99-.85-.85.99c-.07.09-.18.13-.28.13-.09,0-.17-.03-.25-.09-.16-.14-.17-.37-.04-.53l1.09-1.26c.07-.08.16-.12.26-.13,0,0,0,0,.01,0,.1,0,.19.02.27.09l1.26,1.09c.16.14.17.37.04.53h0Zm-.03,2.18s-.04.05-.06.08c-.15.15-.38.15-.53,0l-.92-.92-.89.93c-.07.08-.17.12-.27.12-.07,0-.14-.02-.21-.06,0,0,0,0,0,0-.03-.02-.06-.04-.09-.07-.15-.15-.15-.38,0-.53l.93-.93.24-.26c.07-.08.17-.11.26-.12h0c.1,0,.19.03.27.1l1.21,1.15c.14.13.16.35.04.5h0Zm-.31,2.3c-.16.13-.4.11-.53-.05l-.84-1-1,.84c-.07.06-.16.09-.24.09-.11,0-.21-.05-.29-.13-.13-.16-.11-.4.05-.53l1.28-1.08c.08-.07.19-.1.28-.09.1,0,.19.05.26.13l1.08,1.28c.13.16.11.4-.05.53h0Zm-.35,2.16c-.17.11-.41.06-.52-.11l-.71-1.09-1.09.71c-.06.04-.13.06-.2.06-.12,0-.24-.06-.31-.17-.11-.17-.06-.41.11-.52l1.4-.91c.09-.06.19-.07.28-.05.1.02.19.07.25.17l.91,1.4c.11.17.06.41-.11.52h0Zm7.16-7.17l1.26-1.09c.08-.07.18-.1.27-.09,0,0,0,0,.01,0,.1,0,.19.05.26.13l1.09,1.26c.14.16.12.39-.04.53-.07.06-.16.09-.25.09-.11,0-.21-.04-.28-.13l-.85-.99-.99.85c-.16.14-.39.12-.53-.04-.14-.16-.12-.39.04-.53h0Zm.19-2.31l1.38-.95c.09-.06.19-.08.28-.06.1.02.19.07.25.16l.95,1.38c.12.17.07.4-.1.52-.07.05-.14.07-.21.07-.12,0-.24-.06-.31-.16l-.74-1.07-1.07.74c-.17.12-.4.07-.52-.1-.12-.17-.07-.4.1-.52h0Zm.56-2.11l1.48-.77c.09-.05.19-.05.28-.03,0,0,0,0,.02,0,.09.03.17.09.22.18l.77,1.48c.1.18.02.41-.16.51-.06.03-.11.04-.17.04-.14,0-.27-.07-.33-.2l-.6-1.16-1.16.6c-.18.1-.41.02-.51-.16-.1-.18-.02-.41.16-.51h0Zm3.25,12.36c.19.09.26.32.17.5-.07.13-.2.21-.34.21-.06,0-.11-.01-.17-.04l-1.17-.59-.59,1.17c-.09.19-.32.26-.5.17-.19-.09-.26-.32-.17-.5l.75-1.49c.05-.09.13-.16.22-.19.09-.03.2-.03.3.02l1.49.75h0Zm-3.35-.77c-.17-.11-.22-.35-.11-.52l.91-1.4c.06-.09.15-.15.25-.17.09-.02.19,0,.28.05l1.4.91c.17.11.22.35.11.52-.07.11-.19.17-.31.17-.07,0-.14-.02-.2-.06l-1.09-.71-.71,1.09c-.11.17-.34.22-.52.11h0Zm-.4-2.69l1.08-1.28c.07-.08.16-.12.26-.13.1-.01.2.02.28.09l1.28,1.08c.16.13.18.37.05.53-.07.09-.18.13-.29.13-.09,0-.17-.03-.24-.09l-1-.84-.84,1c-.13.16-.37.18-.53.05-.16-.13-.18-.37-.05-.53h0Zm-.27-1.77c-.12-.15-.1-.37.04-.5l1.21-1.15c.08-.07.17-.11.27-.1h0c.1,0,.19.04.26.12l.24.26.93.93c.15.15.15.38,0,.53-.03.03-.06.05-.09.07,0,0,0,0,0,0-.06.04-.13.06-.21.06-.1,0-.2-.04-.27-.12l-.89-.93-.92.92c-.15.15-.38.15-.53,0-.02-.02-.04-.05-.06-.08h0Zm-9.8,6.46c.09-.04.2-.04.28,0,.1.03.18.11.22.21l.64,1.54c.07.16.01.34-.11.44,1.62.97,3.51,1.52,5.53,1.52s3.91-.56,5.53-1.52c-.13-.1-.18-.28-.11-.44l.64-1.54c.04-.1.12-.17.22-.21.09-.04.19-.04.28,0l1.15.48c1.91-1.94,3.08-4.61,3.08-7.55,0-3.24-1.43-6.14-3.68-8.11l.22.58c.07.19-.02.41-.21.49-.04.02-.09.03-.13.03-.15,0-.29-.09-.35-.24l-.47-1.22-1.22.47c-.19.07-.41-.02-.49-.22-.07-.19.02-.41.22-.49l1.08-.41c-1.66-1.05-3.63-1.65-5.74-1.65s-4.08.61-5.74,1.65l1.08.41c.19.07.29.29.22.49-.07.19-.29.29-.49.22l-1.22-.47-.47,1.22c-.06.15-.2.24-.35.24-.04,0-.09,0-.13-.03-.19-.07-.29-.29-.21-.49l.22-.58c-2.26,1.98-3.68,4.88-3.68,8.11,0,2.94,1.17,5.6,3.08,7.55l1.15-.48h0Z"/><polygon class="cls-1" points="19.03 12.18 19.03 12.18 19.04 12.19 19.04 12.19 19.03 12.18 19.03 12.18"/><polygon class="cls-1" points="9.54 12.18 9.52 12.19 9.52 12.19 9.54 12.18 9.54 12.18 9.54 12.18"/></g></g></g></svg>