<?xml version="1.0" encoding="UTF-8"?><svg id="Layer_19" xmlns="http://www.w3.org/2000/svg" viewBox="0 0 28.37 25.1"><defs><style>.cls-1{fill:#fff;}.cls-2{fill:#636464;}</style></defs><rect class="cls-2" x="1.35" y=".69" width="26.07" height="23.24" rx="3.47" ry="3.47"/><g id="NewGroupe95"><g id="NewGroup0-4"><g><path class="cls-1" d="m20.48,21.44c.31-.22.6-.45.88-.69l-.5-.21-.38.9h0Z"/><path class="cls-1" d="m7.51,20.53l-.5.21c.28.25.57.48.88.69l-.38-.9h0Z"/><path class="cls-1" d="m6.85,18.45l1.51-.76c.1-.05.21-.05.3-.02.09.03.17.1.22.19l.76,1.51c.09.19.02.41-.17.51-.19.09-.41.02-.51-.17l-.59-1.18-1.18.59c-.05.03-.11.04-.17.04-.14,0-.27-.08-.34-.21-.09-.19-.02-.41.17-.51h0Zm.48-11.61l.78-1.5c.05-.09.13-.16.22-.19,0,0,0,0,.02,0,.09-.03.2-.02.29.03l1.5.78c.19.1.26.33.16.51-.1.19-.33.26-.51.16l-1.17-.61-.61,1.17c-.07.13-.2.2-.34.2-.06,0-.12-.01-.18-.04-.19-.1-.26-.33-.16-.51h0Zm3.47,1.78c-.12.17-.36.22-.53.1l-1.09-.75-.75,1.09c-.07.11-.19.16-.31.16-.07,0-.15-.02-.22-.07-.17-.12-.22-.35-.1-.53l.96-1.39c.06-.09.15-.14.25-.16.1-.02.2,0,.29.06l1.39.96c.17.12.22.35.1.53h0Zm.14,2.34c-.14.16-.38.18-.53.04l-1-.86-.86,1c-.08.09-.18.13-.29.13-.09,0-.18-.03-.25-.09-.16-.14-.18-.38-.04-.53l1.11-1.28c.07-.08.16-.12.26-.13,0,0,0,0,.01,0,.1,0,.2.02.28.09l1.28,1.11c.16.14.18.38.04.53h0Zm-.03,2.2s-.04.05-.06.08c-.15.15-.39.15-.54,0l-.93-.93-.9.94c-.07.08-.17.12-.27.12-.07,0-.14-.02-.21-.06,0,0,0,0,0,0-.03-.02-.06-.04-.09-.07-.15-.15-.15-.39,0-.54l.94-.94.25-.26c.07-.08.17-.12.27-.12h0c.1,0,.2.03.27.1l1.22,1.16c.14.14.16.36.04.51h0Zm-.32,2.32c-.16.13-.4.11-.53-.05l-.85-1.01-1.01.85c-.07.06-.16.09-.24.09-.11,0-.22-.05-.29-.14-.13-.16-.11-.4.05-.53l1.29-1.09c.08-.07.19-.1.29-.09.1,0,.19.05.26.13l1.09,1.29c.13.16.11.4-.05.53h0Zm-.36,2.18c-.18.11-.41.06-.52-.11l-.72-1.11-1.11.72c-.06.04-.14.06-.21.06-.12,0-.25-.06-.32-.17-.11-.18-.06-.41.11-.52l1.42-.92c.09-.06.19-.07.28-.05.1.02.19.08.25.17l.92,1.42c.11.18.06.41-.11.52h0Zm7.23-7.24l1.28-1.11c.08-.07.18-.1.28-.09,0,0,0,0,.01,0,.1,0,.19.05.26.13l1.11,1.28c.14.16.12.4-.04.53-.07.06-.16.09-.25.09-.11,0-.21-.04-.29-.13l-.86-1-1,.86c-.16.14-.4.12-.53-.04-.14-.16-.12-.4.04-.53h0Zm.2-2.33l1.39-.96c.09-.06.19-.08.29-.06.1.02.19.07.25.16l.96,1.39c.12.17.08.41-.1.53-.07.05-.14.07-.22.07-.12,0-.24-.06-.31-.16l-.75-1.09-1.09.75c-.17.12-.41.08-.53-.1-.12-.17-.08-.41.1-.53h0Zm.57-2.14l1.5-.78c.09-.05.2-.05.29-.03,0,0,.01,0,.02,0,.09.03.17.09.22.19l.78,1.5c.1.19.02.41-.16.51-.06.03-.12.04-.18.04-.14,0-.27-.07-.34-.2l-.61-1.17-1.17.61c-.19.1-.41.02-.51-.16-.1-.19-.02-.41.16-.51h0Zm3.29,12.49c.19.09.26.32.17.51-.07.13-.2.21-.34.21-.06,0-.12-.01-.17-.04l-1.18-.59-.59,1.18c-.09.19-.32.26-.51.17-.19-.09-.26-.32-.17-.51l.76-1.51c.05-.09.13-.16.22-.19.09-.03.2-.03.3.02l1.51.76h0Zm-3.38-.78c-.18-.11-.23-.35-.11-.52l.92-1.42c.06-.09.15-.15.25-.17.09-.02.2,0,.28.05l1.42.92c.18.11.23.35.11.52-.07.11-.19.17-.32.17-.07,0-.14-.02-.21-.06l-1.11-.72-.72,1.11c-.11.18-.35.23-.52.11h0Zm-.4-2.71l1.09-1.29c.07-.08.16-.13.26-.13.1-.01.2.02.29.09l1.29,1.09c.16.13.18.37.05.53-.08.09-.18.14-.29.14-.09,0-.17-.03-.24-.09l-1.01-.85-.85,1.01c-.13.16-.37.18-.53.05-.16-.13-.18-.37-.05-.53h0Zm-.27-1.79c-.12-.15-.11-.37.04-.51l1.22-1.16c.08-.07.18-.11.27-.1h0c.1,0,.19.04.27.12l.25.26.94.94c.15.15.15.39,0,.54-.03.03-.06.05-.09.07,0,0,0,0,0,0-.06.04-.14.06-.21.06-.1,0-.2-.04-.27-.12l-.9-.94-.93.93c-.15.15-.39.15-.54,0-.02-.02-.04-.05-.06-.08h0Zm-9.9,6.53c.1-.04.2-.04.29,0,.1.04.18.11.22.21l.65,1.56c.07.16.01.34-.12.44,1.63.98,3.54,1.54,5.58,1.54s3.95-.56,5.58-1.54c-.13-.1-.18-.28-.12-.44l.65-1.56c.04-.1.12-.18.22-.21.09-.04.19-.04.29,0l1.16.48c1.93-1.96,3.11-4.65,3.11-7.62,0-3.27-1.44-6.2-3.72-8.2l.23.59c.08.2-.02.41-.22.49-.04.02-.09.03-.14.03-.15,0-.3-.09-.35-.24l-.47-1.23-1.23.47c-.2.08-.41-.02-.49-.22-.08-.2.02-.41.22-.49l1.09-.42c-1.68-1.06-3.67-1.67-5.8-1.67s-4.12.61-5.8,1.67l1.09.42c.2.08.29.29.22.49-.08.2-.29.29-.49.22l-1.23-.47-.47,1.23c-.06.15-.2.24-.35.24-.05,0-.09,0-.14-.03-.2-.08-.29-.29-.22-.49l.23-.59c-2.28,2-3.72,4.93-3.72,8.2,0,2.97,1.19,5.66,3.11,7.62l1.16-.48h0Z"/><polygon class="cls-1" points="18.98 12.3 18.98 12.3 18.99 12.31 18.99 12.31 18.98 12.3 18.98 12.3"/><polygon class="cls-1" points="9.39 12.3 9.38 12.31 9.38 12.31 9.39 12.3 9.39 12.3 9.39 12.3"/></g></g></g></svg>