<?xml version="1.0" encoding="UTF-8"?><svg id="Layer_29" xmlns="http://www.w3.org/2000/svg" viewBox="0 0 27.65 24.92"><defs><style>.cls-1{fill:#fff;}.cls-2{fill:#434343;}</style></defs><rect class="cls-2" x=".86" y=".77" width="26.07" height="23.24" rx="3.47" ry="3.47"/><g id="NewGroupe94"><g id="NewGroup0-5"><g><path class="cls-1" d="m2.88,18.35c2.65-.49,5.82-.33,8.39.45.21.07.43-.09.44-.31l.42-13.74c0-.1.01-.19.03-.28-2.74-.83-6.1-.95-8.75-.36-.35.08-.61.38-.64.74l-.85,12.65c-.04.53.44.95.96.86h0Z"/><path class="cls-1" d="m13.68,3.68c-.4,0-.73.32-.74.72l-.45,15.94c-.01.42.32.77.74.77h.89c.42,0,.76-.35.74-.77l-.45-15.94c-.01-.4-.34-.72-.74-.72h0Z"/><path class="cls-1" d="m22.45,19.92c.61.04,1.2-.25,1.53-.77l.08-.12c-.72-.1-2.43-.15-3.13-.15-1.54,0-3.08.24-4.58.72-.11.04-.23.05-.35.05s-.22-.02-.33-.05l.02.71c0,.08,0,.16-.01.24,1.47-.3,5.03-.75,6.78-.63h0Z"/><path class="cls-1" d="m11.59,19.61c-.1.03-.22.05-.33.05s-.23-.02-.35-.05c-1.5-.48-3.71-.72-5.25-.72-.7,0-1.42.05-2.13.15l.08.12c.33.52.92.81,1.53.77,1.75-.12,4.97.33,6.45.63,0-.08-.01-.16-.01-.24l.02-.71h0Z"/><path class="cls-1" d="m22.28,8.27l-1,.08.6,5.22c.05.45-.29.86-.77.9h-.14c-.48.05-.88-.3-.89-.76l-.2-5.25-1,.08c-.36.03-.64-.17-.63-.43v-.13c.02-.25.3-.47.64-.5l.94-.07-.02-.52c0-.22.24-.42.57-.45h.09c.32-.03.6.13.63.35l.06.52.94-.07c.34-.03.65.15.7.4l.03.13c.05.26-.19.49-.55.52h0Zm2.75-3.43c-.02-.36-.28-.66-.64-.74-2.59-.57-6.23-.48-8.9.31-.15.04-.25.18-.24.33h0s.42,13.78.42,13.78c0,.22.22.37.43.31,2.53-.81,6.14-.97,8.82-.48.52.1.99-.33.96-.86l-.85-12.65h0Z"/></g></g></g></svg>