<?xml version="1.0" encoding="UTF-8"?><svg id="Layer_5" xmlns="http://www.w3.org/2000/svg" viewBox="0 0 27.83 24.74"><defs><style>.cls-1{fill:#fff;}.cls-2{fill:#0c2444;}</style></defs><rect class="cls-2" x="1.38" y=".94" width="26.07" height="23.24" rx="3.47" ry="3.47"/><g><polygon class="cls-1" points="21.22 8.59 20.65 8.59 18.38 11.99 23.48 11.99 21.22 8.59"/><g><g><polygon class="cls-1" points="14.98 6.89 13.85 6.89 13.85 3.48 14.41 3.48 14.98 6.89"/><polygon class="cls-1" points="17.81 5.75 14.41 5.75 14.41 3.48 17.81 3.48 16.68 4.62 17.81 5.75"/></g><polygon class="cls-1" points="14.98 7.45 13.85 7.45 11.58 10.29 17.25 10.29 14.98 7.45"/><polygon class="cls-1" points="8.18 8.59 7.61 8.59 5.34 11.99 10.44 11.99 8.18 8.59"/><path class="cls-1" d="m18.38,12.56v1.7h-1.13v-3.4h-5.67v3.4h-1.13v-1.7h-5.1v9.07h18.14v-9.07h-5.1Zm-9.64,4.54h-1.7v-1.98c0-.47.38-.85.85-.85s.85.38.85.85v1.98Zm6.24-4.54c0-.31.25-.57.57-.57s.57.25.57.57v1.7h-1.13v-1.7Zm-2.27,0c0-.31.25-.57.57-.57s.57.25.57.57v1.7h-1.13v-1.7Zm3.97,7.37h-4.54v-1.7c0-1.25,1.02-2.27,2.27-2.27s2.27,1.02,2.27,2.27v1.7Zm5.1-2.84h-1.7v-1.98c0-.47.38-.85.85-.85s.85.38.85.85v1.98Z"/></g></g></svg>