<?xml version="1.0" encoding="UTF-8"?><svg id="Layer_27" xmlns="http://www.w3.org/2000/svg" viewBox="0 0 27.65 24.92"><defs><style>.cls-1{fill:#fff;}.cls-2{fill:#1c75bc;}</style></defs><rect class="cls-2" x=".74" y=".88" width="26.07" height="23.24" rx="3.47" ry="3.47"/><g><path class="cls-1" d="m25.51,7.87c-.38-.24-.85-.26-1.24-.06-.38.19-1.76.88-2.1,1.05H5.37c-.36-.18-1.72-.86-2.1-1.05-.4-.2-.87-.18-1.24.06-.6.38-.78,1.17-.4,1.77.05.08.11.15.17.22l3.03,3.03v5.35c0,1.89,1.53,3.41,3.42,3.42h11.06c1.89,0,3.41-1.53,3.42-3.42v-5.35l3.03-3.03c.5-.5.49-1.32,0-1.82-.07-.07-.14-.12-.22-.17Zm-17.28,11.58c-.67,0-1.21-.54-1.21-1.21v-2.21c0-.24.2-.44.45-.43.24,0,.43.2.43.43v2.21c0,.18.15.33.33.33.24.02.43.23.41.47-.01.22-.19.4-.41.41h0Z"/><path class="cls-1" d="m21.96,7.98l.4-.2c-.58-1.16-1.76-1.9-3.06-1.9h-3.34v-.41c-.2-3.1-4.58-2.7-4.28.41h-3.44c-1.3,0-2.48.74-3.06,1.9l.4.2h16.39Z"/></g></svg>