<?xml version="1.0" encoding="UTF-8"?><svg id="Layer_27" xmlns="http://www.w3.org/2000/svg" viewBox="0 0 36 36"><defs><style>.cls-1{fill:#fff;}.cls-2{fill:#1c75bc;}</style></defs><path class="cls-2" d="M16.06,35.31c-1.11-1.39-2.2-2.73-3.27-4.1-2.25-2.9-4.38-5.88-6.07-9.15-.98-1.91-1.78-3.88-2.17-6C3.37,9.67,7.68,3.3,14.06,2.03c6.7-1.34,13.03,2.83,14.43,9.51,.53,2.55,.18,5.04-.66,7.47-.99,2.87-2.58,5.41-4.39,7.82-1.98,2.65-4.23,5.08-6.48,7.51-.29,.31-.58,.63-.91,.98Z"/><path class="cls-1" d="M26.24,10.37c-.31-.2-.7-.21-1.03-.05-.31,.16-1.45,.73-1.74,.87H9.59c-.3-.15-1.42-.71-1.74-.87-.33-.17-.72-.15-1.03,.05-.5,.31-.65,.97-.33,1.46,.04,.07,.09,.13,.14,.18l2.5,2.5v4.42c0,1.56,1.27,2.82,2.82,2.82h9.14c1.56,0,2.82-1.27,2.82-2.82v-4.42l2.5-2.5c.41-.42,.41-1.09,0-1.5-.06-.05-.12-.1-.18-.14Zm-14.28,9.57c-.55,0-1-.45-1-1v-1.83c0-.2,.17-.36,.37-.36,.2,0,.36,.16,.36,.36v1.83c0,.15,.12,.27,.27,.27,.2,.01,.35,.19,.34,.39-.01,.18-.16,.33-.34,.34h0Z"/><path class="cls-1" d="M23.31,10.46l.33-.16c-.48-.96-1.46-1.57-2.53-1.57h-2.76v-.34c-.16-2.56-3.78-2.23-3.54,.34h-2.84c-1.07,0-2.05,.61-2.53,1.57l.33,.16h13.54Z"/></svg>