<?xml version="1.0" encoding="UTF-8"?><svg id="Layer_17" xmlns="http://www.w3.org/2000/svg" viewBox="0 0 36 36"><defs><style>.cls-1{fill:#fff;}.cls-2{fill:#b96728;}</style></defs><path class="cls-2" d="M17.51,34.22c-1.11-1.39-2.2-2.73-3.27-4.1-2.25-2.9-4.38-5.88-6.07-9.15-.98-1.91-1.78-3.88-2.17-6C4.82,8.58,9.13,2.21,15.51,.94c6.7-1.34,13.03,2.83,14.43,9.51,.53,2.55,.18,5.04-.66,7.47-.99,2.87-2.58,5.41-4.39,7.82-1.98,2.65-4.23,5.08-6.48,7.51-.29,.31-.58,.63-.91,.98Z"/><g id="NewGroupe11"><g id="NewGroup0-88"><g><path class="cls-1" d="M11.83,13.51c.79-.12,1.56,.58,1.71,1.57,0,0,0,0,0,0,0,.06-.08,.09-.11,.03-.31-.61-.9-.99-1.49-.9-.6,.09-1.04,.62-1.16,1.3-.01,.06-.1,.06-.11,0,0,0,0,0,0,0-.15-.99,.37-1.89,1.17-2.01h0Zm3.72,6.77c1.49-.22,2.61-1.43,2.96-2.98,.04-.18,.29-.17,.32,0,0,0,0,0,0,0,.35,2.3-1,4.42-3.01,4.72-2.01,.3-3.93-1.32-4.27-3.62,0,0,0,0,0,0-.03-.18,.21-.26,.3-.1,.79,1.37,2.22,2.2,3.71,1.97h0Zm1.59-7.57c.79-.12,1.56,.58,1.71,1.57,0,0,0,0,0,0,0,.06-.08,.09-.11,.03-.31-.61-.9-.99-1.49-.9-.6,.09-1.04,.62-1.16,1.3-.01,.06-.1,.06-.11,0,0,0,0,0,0,0-.15-.99,.37-1.89,1.17-2.01h0Zm-7.4,6.87c.62,2.85,3.34,4.73,6.23,4.3h0c2.88-.44,4.93-3.04,4.68-5.95l-.75-8.6c-.06-.71-.82-1.13-1.45-.8-3.02,1.57-6.14,2.08-9.35,1.46-.7-.14-1.32,.49-1.17,1.19l1.82,8.4h0Z"/><path class="cls-1" d="M17.63,20.06s0,0,0,0c-.09,.08-.18,.15-.28,.21,.03,.02,.06,.04,.09,.06,.07-.09,.13-.18,.19-.27h0Z"/><path class="cls-1" d="M25.72,11.26s0,0,0,0c-.2,.98-1,1.65-1.79,1.48-.79-.16-1.26-1.08-1.06-2.07,0,0,0,0,0,0,.01-.06,.1-.06,.11,0,.08,.68,.5,1.24,1.09,1.36,.59,.12,1.19-.23,1.54-.82,.03-.06,.12-.02,.11,.04h0Zm1.26-3.69c-3.38,.43-6.48-.16-9.28-1.85-.62-.37-1.41,0-1.51,.72l-.34,2.45c.77-.25,1.53-.57,2.28-.96,.24-.13,.5-.19,.77-.19,.41,0,.81,.15,1.12,.43,.32,.29,.52,.68,.56,1.11l.4,4.56c1.93,.47,3.11,2.6,2.65,4.84,0,0,0,0,0,0-.04,.18-.29,.17-.32,0-.23-1.32-1.03-2.44-2.16-2.93l.19,2.12c.1,1.17-.13,2.33-.65,3.36,2.37-.09,4.48-1.7,5.13-4.08l2.25-8.33c.19-.69-.38-1.34-1.09-1.25h0Z"/></g></g></g></svg>