<?xml version="1.0" encoding="UTF-8"?><svg id="Layer_17" xmlns="http://www.w3.org/2000/svg" viewBox="0 0 28.1 24.83"><defs><style>.cls-1{fill:#fff;}.cls-2{fill:#b96728;}</style></defs><rect class="cls-2" x="1.07" y=".83" width="26.07" height="23.24" rx="3.47" ry="3.47"/><g id="NewGroupe11"><g id="NewGroup0-88"><g><path class="cls-1" d="m7.01,11.01c.91-.14,1.79.67,1.96,1.81,0,0,0,0,0,0,.01.07-.09.1-.12.04-.36-.71-1.03-1.14-1.72-1.04-.69.1-1.2.72-1.33,1.5-.01.07-.12.07-.13,0,0,0,0,0,0,0-.17-1.14.43-2.17,1.34-2.31h0Zm4.28,7.78c1.71-.26,3-1.65,3.4-3.43.05-.2.34-.19.37.01,0,0,0,0,0,.01.4,2.65-1.15,5.08-3.47,5.43-2.31.35-4.52-1.51-4.92-4.16,0,0,0,0,0-.01-.03-.21.25-.3.35-.12.91,1.58,2.55,2.53,4.26,2.27h0Zm1.83-8.7c.91-.14,1.79.67,1.96,1.81,0,0,0,0,0,0,.01.07-.09.1-.12.04-.36-.71-1.03-1.14-1.72-1.04-.69.1-1.2.72-1.33,1.5-.01.07-.12.07-.13,0,0,0,0,0,0,0-.17-1.14.43-2.17,1.34-2.31h0Zm-8.51,7.91c.71,3.28,3.84,5.44,7.16,4.94h0c3.32-.5,5.67-3.5,5.38-6.84l-.86-9.89c-.07-.81-.95-1.3-1.67-.92-3.48,1.8-7.06,2.39-10.75,1.68-.81-.16-1.52.56-1.34,1.37l2.09,9.66h0Z"/><path class="cls-1" d="m13.68,18.54s0,0,0,0c-.1.09-.21.17-.32.25.03.02.07.04.1.07.08-.1.15-.2.22-.31h0Z"/><path class="cls-1" d="m22.98,8.42s0,0,0,0c-.23,1.13-1.15,1.89-2.05,1.71-.9-.18-1.45-1.25-1.22-2.37,0,0,0,0,0,0,.01-.07.12-.07.13,0,.1.79.57,1.42,1.25,1.56.68.14,1.37-.26,1.77-.95.04-.06.14-.03.12.04h0Zm1.44-4.24c-3.89.5-7.45-.19-10.67-2.12-.71-.43-1.62,0-1.73.82l-.39,2.82c.88-.29,1.76-.66,2.62-1.11.28-.14.58-.22.89-.22.47,0,.93.17,1.29.49.37.33.6.78.64,1.28l.46,5.25c2.22.54,3.58,3,3.05,5.57,0,0,0,0,0,.01-.04.2-.34.2-.37,0-.26-1.52-1.18-2.8-2.49-3.36l.21,2.43c.12,1.35-.15,2.68-.75,3.86,2.72-.1,5.16-1.95,5.9-4.69l2.59-9.58c.21-.79-.44-1.54-1.25-1.44h0Z"/></g></g></g></svg>