<?xml version="1.0" encoding="UTF-8"?><svg id="Layer_23" xmlns="http://www.w3.org/2000/svg" viewBox="0 0 27.83 25.1"><defs><style>.cls-1{fill:#fff;}.cls-2{fill:#32aa49;}</style></defs><rect class="cls-2" x=".98" y=".5" width="26.07" height="23.24" rx="3.47" ry="3.47"/><g><path class="cls-1" d="m13.41,4.45c.17-1.14,1.24-1.93,2.39-1.76,1.14.17,1.93,1.24,1.76,2.39-.17,1.14-1.24,1.93-2.39,1.76-1.14-.17-1.93-1.24-1.76-2.39Z"/><path class="cls-1" d="m23.86,16.42v-7.4l1.02-.83-1.14-1.41-3.36,2.72,1.14,1.41.53-.42v5.83l-7.39,1.09c.1-.2.14-.44.1-.68l-.51-3.07c-.04-.23-.15-.45-.31-.61l-1.36-1.37.73-1.57.51,1.11c.19.41.6.66,1.03.66.13,0,.26-.02.39-.07l2.09-.76c.59-.21.89-.86.68-1.45-.21-.59-.86-.89-1.45-.68l-1.11.4-.81-1.77c-.11-.25-.31-.44-.55-.56l-1.42-.67c-.11-.05-.22-.08-.34-.1l-3.25-.41c-.42-.05-.83.13-1.07.48l-1.38,1.98c-.36.51-.23,1.22.28,1.58.51.36,1.22.23,1.58-.28l.99-1.42,1.07.14-1.34,2.29c-.08.14-.13.29-.15.45l-.31,2.83-2.17,2.08c-.45.43-.47,1.15-.03,1.6.43.45,1.15.47,1.6.03l2.47-2.36c.19-.18.31-.43.34-.7l.12-1.14,1.01,1.01.46,2.72c.04.22.14.42.28.58l-9.32,1.37c-.28.05-.49.61-.49,1.23v.15c0,.63.22,1.14.49,1.14h19.06c1.33,0,2.5-1.22,2.5-2.73v-.36c0-.96-.48-1.71-1.17-2.07Z"/></g></svg>