<?xml version="1.0" encoding="UTF-8"?><svg id="Layer_23" xmlns="http://www.w3.org/2000/svg" viewBox="0 0 36 36"><defs><style>.cls-1{fill:#fff;}.cls-2{fill:#32aa49;}</style></defs><path class="cls-2" d="M17.63,35.04c-1.11-1.39-2.2-2.73-3.27-4.1-2.25-2.9-4.38-5.88-6.07-9.15-.98-1.91-1.78-3.88-2.17-6C4.94,9.39,9.25,3.03,15.63,1.75c6.7-1.34,13.03,2.83,14.43,9.51,.53,2.55,.18,5.04-.66,7.47-.99,2.87-2.58,5.41-4.39,7.82-1.98,2.65-4.23,5.08-6.48,7.51-.29,.31-.58,.63-.91,.98Z"/><g><path class="cls-1" d="M17.82,5.6c.14-.95,1.03-1.6,1.97-1.45,.95,.14,1.6,1.03,1.45,1.97-.14,.95-1.03,1.6-1.97,1.45-.95-.14-1.6-1.03-1.45-1.97Z"/><path class="cls-1" d="M26.46,15.49v-6.11l.85-.68-.94-1.16-2.78,2.25,.94,1.16,.43-.35v4.81l-6.11,.9c.08-.17,.11-.36,.08-.56l-.43-2.54c-.03-.19-.12-.37-.26-.51l-1.12-1.13,.6-1.3,.42,.92c.16,.34,.49,.55,.85,.55,.11,0,.21-.02,.32-.06l1.73-.63c.49-.18,.74-.71,.56-1.2-.18-.49-.71-.74-1.2-.56l-.91,.33-.67-1.47c-.09-.2-.25-.37-.46-.46l-1.18-.55c-.09-.04-.18-.07-.28-.08l-2.69-.34c-.35-.04-.69,.11-.89,.39l-1.14,1.64c-.3,.42-.19,1.01,.23,1.3,.42,.3,1.01,.19,1.3-.23l.82-1.17,.88,.11-1.11,1.89c-.07,.11-.11,.24-.12,.37l-.25,2.34-1.79,1.72c-.37,.36-.39,.95-.03,1.32,.36,.37,.95,.39,1.32,.03l2.04-1.95c.16-.15,.26-.36,.28-.58l.1-.94,.83,.84,.38,2.24c.03,.18,.11,.35,.23,.48l-7.7,1.14c-.23,.04-.41,.5-.41,1.02v.13c0,.52,.18,.94,.41,.94h15.75c1.1,0,2.07-1.01,2.07-2.25v-.3c0-.79-.4-1.42-.97-1.71Z"/></g></svg>