<?xml version="1.0" encoding="UTF-8"?><svg id="Layer_8" xmlns="http://www.w3.org/2000/svg" viewBox="0 0 27.83 24.83"><defs><style>.cls-1{fill:#fff;}.cls-2{fill:#ed1c24;}</style></defs><rect class="cls-2" x=".97" y=".95" width="26.07" height="23.24" rx="3.47" ry="3.47"/><g id="NewGroupe54"><g id="NewGroup0-45"><g><path class="cls-1" d="m20.29,9.99c0,.59-.24,1.13-.63,1.52-1.25,1.25-2.23,2.76-2.8,4.44-.66,1.96-1.32,3.94-1.32,3.94-.24.72-.91,1.2-1.67,1.2h0c-.76,0-1.43-.48-1.67-1.2l-1.39-4.17c-.53-1.58-1.37-3.04-2.52-4.24-.37-.39-.6-.91-.6-1.49,0-1.02.71-1.88,1.67-2.1-.01-.11-.02-.21-.02-.32,0-1.95,2.05-3.53,4.57-3.53s4.57,1.58,4.57,3.53c0,.1,0,.2-.02.29,1.03.16,1.82,1.05,1.82,2.12h0ZM14,1.64c-4.2,0-7.61,4.89-7.61,10.92s3.41,10.92,7.61,10.92,7.61-4.89,7.61-10.92S18.2,1.64,14,1.64h0Z"/><path class="cls-1" d="m17.01,8.74c-.64-.85-1.35-2.84-2.13-.74-.58,1.57.67,2.47,1.66,2.91.44.19,1.59.41,2.04.25,1.64-.58-1.08-1.78-1.56-2.41h0Z"/><path class="cls-1" d="m13.33,8c-.78-2.1-1.49-.1-2.13.74-.48.63-3.2,1.83-1.56,2.41.45.16,1.6-.05,2.04-.25.99-.44,2.24-1.34,1.66-2.91h0Z"/><path class="cls-1" d="m13.93,12.63c-.66,0-1.2,1.69-1.2,3.77s.54,3.77,1.2,3.77,1.2-1.69,1.2-3.77-.54-3.77-1.2-3.77h0Z"/><path class="cls-1" d="m12.89,11.98c.08.14.36.12.63-.03.27-.15.42-.39.34-.53-.08-.14-.36-.12-.63.03-.27.15-.42.39-.34.53h0Z"/><path class="cls-1" d="m14.48,11.95c.27.15.55.17.63.03.08-.14-.07-.37-.34-.53-.27-.15-.55-.17-.63-.03-.08.14.07.37.34.53h0Z"/></g></g></g></svg>