<?xml version="1.0" encoding="UTF-8"?><svg id="Layer_12" xmlns="http://www.w3.org/2000/svg" viewBox="0 0 27.1 24.74"><defs><style>.cls-1{fill:#fff;}.cls-2{fill:#b72e28;}</style></defs><rect class="cls-2" x=".62" y=".77" width="26.07" height="23.24" rx="3.47" ry="3.47"/><path class="cls-1" d="m25.39,8.46c-.17-1.43-.94-2.8-1.94-3.82-1.27-1.3-3.02-2.07-4.84-2.11-1.95-.04-3.71,1.1-4.99,2.35-1.34-1.31-3.22-2.45-5.27-2.34-3.97.22-7.84,4.4-5.99,8.37.49,1.05,1.19,2.01,1.96,2.9h4.62l.76-2.48c.06-.2.24-.34.45-.35.21,0,.4.12.48.32l1.34,3.58.28-.74.63-1.84c.07-.19.24-.32.45-.33.2,0,.39.11.47.3l.45,1.04,1.09-2.22c.08-.16.24-.27.42-.27.18,0,.35.08.44.24l1.19,1.96,1.51.02c.27,0,.49.22.49.5,0,.27-.22.49-.49.49h0l-1.79-.02c-.17,0-.33-.09-.42-.24l-.86-1.43-1.16,2.37c-.08.17-.26.28-.45.27-.19,0-.36-.12-.44-.3l-.37-.85-.22.64s0,.01,0,.02l-.75,1.97c-.07.19-.26.32-.46.32h0c-.2,0-.39-.13-.46-.32l-1.29-3.44-.44,1.45c-.06.21-.25.35-.47.35h-4.09c.48.51.97,1,1.45,1.49,1.46,1.51,2.99,2.96,4.55,4.37.48.43,1,.82,1.45,1.28.41.41,1.09.41,1.5,0,1.81-1.46,3.57-2.99,5.25-4.61,1.61-1.55,3.35-3.17,4.65-4.99.66-.93,1.24-2.01,1.33-3.14.02-.24.02-.48-.01-.73Z"/></svg>