<?xml version="1.0" encoding="UTF-8"?><svg id="Layer_1" xmlns="http://www.w3.org/2000/svg" viewBox="0 0 36 36"><defs><style>.cls-1{fill:#fff;}.cls-2{fill:#8dc63f;}</style></defs><path class="cls-2" d="M17.51,35.22c-1.11-1.39-2.2-2.73-3.27-4.1-2.25-2.9-4.38-5.88-6.07-9.15-.98-1.91-1.78-3.88-2.17-6C4.82,9.57,9.13,3.2,15.51,1.93c6.7-1.34,13.03,2.83,14.43,9.51,.53,2.55,.18,5.04-.66,7.47-.99,2.87-2.58,5.41-4.39,7.82-1.98,2.65-4.23,5.08-6.48,7.51-.29,.31-.58,.63-.91,.98Z"/><path class="cls-1" d="M27.07,8.71h-1.45c-.21,0-.38,.17-.38,.38v.84l-.67,.67s-.09-.04-.13-.05c.02-.1,.02-.19,.02-.29v-2.48c0-.99-.81-1.8-1.8-1.8H13.33c-.99,0-1.8,.81-1.8,1.8v2.48c0,.1,0,.2,.02,.29-.05,.01-.09,.03-.13,.05l-.67-.67v-.84c0-.21-.17-.38-.38-.38h-1.45c-.21,0-.38,.17-.38,.38v.88c0,.21,.17,.38,.38,.38h1.42l.68,.68c-.03,.07-.05,.14-.06,.22l-.11,1.07s-.05,.02-.07,.03l-1.45,.56c-.36,.14-.66,.57-.66,.95v3.61c0,.32,.22,.6,.52,.68v3.27c0,.23,.18,.41,.41,.41h2.29c.23,0,.41-.18,.41-.41v-3.04l.92,.99h9.55l.92-.99v3.04c0,.23,.18,.41,.41,.41h2.29c.23,0,.41-.18,.41-.41v-3.27c.3-.08,.52-.36,.52-.68v-3.61c0-.39-.3-.82-.66-.95l-1.45-.56s-.05-.02-.07-.03l-.11-1.07c0-.07-.03-.15-.06-.22l.68-.68h1.42c.21,0,.38-.17,.38-.38v-.88c0-.21-.17-.38-.38-.38Zm-14.81-.94c0-.59,.48-1.07,1.07-1.07h9.33c.59,0,1.07,.48,1.07,1.07v2.48s0,.07,0,.1l-.88-.24c-.3-.08-.79-.15-1.09-.15h-7.52c-.31,0-.8,.07-1.09,.15l-.88,.24s0-.07,0-.1v-2.48Zm8.15,4.59v2.13c0,.14-.11,.26-.24,.26s-.24-.12-.24-.26v-2.13c0-.14,.11-.26,.24-.26s.24,.12,.24,.26Zm-1.09,0v2.13c0,.14-.11,.26-.24,.26s-.24-.12-.24-.26v-2.13c0-.14,.11-.26,.24-.26s.24,.12,.24,.26Zm-1.09,0v2.13c0,.14-.11,.26-.24,.26s-.24-.12-.24-.26v-2.13c0-.14,.11-.26,.24-.26s.24,.12,.24,.26Zm-1.09,0v2.13c0,.14-.11,.26-.24,.26s-.24-.12-.24-.26v-2.13c0-.14,.11-.26,.24-.26s.24,.12,.24,.26Zm-1.09,0v2.13c0,.14-.11,.26-.24,.26s-.24-.12-.24-.26v-2.13c0-.14,.11-.26,.24-.26s.24,.12,.24,.26Zm-4.17-.42c0-.31,.25-.56,.56-.56h1.19c.31,0,.56,.25,.56,.56v.58c0,.31-.25,.56-.56,.56h-1.19c-.31,0-.56-.25-.56-.56v-.58Zm.47,2.85c-.26,0-.47-.21-.47-.47s.21-.47,.47-.47,.47,.21,.47,.47-.21,.47-.47,.47Zm10.1,3.78H13.53l-.31-.41h9.56l-.31,.41Zm1.15-3.78c-.26,0-.47-.21-.47-.47s.21-.47,.47-.47,.47,.21,.47,.47-.21,.47-.47,.47Zm.47-2.27c0,.31-.25,.56-.56,.56h-1.19c-.31,0-.56-.25-.56-.56v-.58c0-.31,.25-.56,.56-.56h1.19c.31,0,.56,.25,.56,.56v.58Z"/></svg>