<?xml version="1.0" encoding="UTF-8"?><svg id="Layer_1" xmlns="http://www.w3.org/2000/svg" viewBox="0 0 28.55 24.92"><defs><style>.cls-1{fill:#fff;}.cls-2{fill:#8dc63f;}</style></defs><rect class="cls-2" x="1.31" y=".73" width="26.07" height="23.24" rx="3.47" ry="3.47"/><path class="cls-1" d="m25.53,5.8h-1.75c-.25,0-.46.21-.46.46v1.01l-.81.81c-.05-.03-.11-.05-.16-.07.02-.12.03-.24.03-.36v-3c0-1.2-.98-2.18-2.18-2.18h-11.29c-1.2,0-2.18.98-2.18,2.18v3c0,.12.01.24.03.36-.05.02-.11.04-.16.07l-.81-.81v-1.01c0-.25-.21-.46-.46-.46h-1.75c-.25,0-.46.21-.46.46v1.06c0,.25.21.46.46.46h1.72l.82.82c-.04.09-.06.17-.07.26l-.13,1.3s-.06.02-.09.03l-1.76.67c-.44.17-.79.69-.79,1.15v4.36c0,.39.27.72.63.82v3.96c0,.27.22.5.5.5h2.77c.27,0,.5-.22.5-.5v-3.68l1.11,1.19h11.56l1.11-1.19v3.68c0,.27.22.5.5.5h2.77c.27,0,.5-.22.5-.5v-3.96c.36-.1.63-.43.63-.82v-4.36c0-.47-.36-.99-.79-1.15l-1.76-.67s-.06-.02-.09-.03l-.13-1.3c0-.09-.03-.18-.07-.26l.82-.82h1.72c.25,0,.46-.21.46-.46v-1.06c0-.25-.21-.46-.46-.46Zm-17.92-1.13c0-.71.58-1.29,1.29-1.29h11.29c.71,0,1.29.58,1.29,1.29v3s0,.08,0,.12l-1.06-.29c-.36-.1-.95-.18-1.32-.18h-9.1c-.37,0-.97.08-1.32.18l-1.06.29s0-.08,0-.12v-3Zm9.86,5.56v2.58c0,.18-.13.32-.29.32s-.29-.14-.29-.32v-2.58c0-.18.13-.32.29-.32s.29.14.29.32Zm-1.32,0v2.58c0,.18-.13.32-.29.32s-.29-.14-.29-.32v-2.58c0-.18.13-.32.29-.32s.29.14.29.32Zm-1.32,0v2.58c0,.18-.13.32-.29.32s-.29-.14-.29-.32v-2.58c0-.18.13-.32.29-.32s.29.14.29.32Zm-1.32,0v2.58c0,.18-.13.32-.29.32s-.29-.14-.29-.32v-2.58c0-.18.13-.32.29-.32s.29.14.29.32Zm-1.32,0v2.58c0,.18-.13.32-.29.32s-.29-.14-.29-.32v-2.58c0-.18.13-.32.29-.32s.29.14.29.32Zm-5.04-.5c0-.37.3-.67.67-.67h1.44c.37,0,.67.3.67.67v.7c0,.37-.3.67-.67.67h-1.44c-.37,0-.67-.3-.67-.67v-.7Zm.57,3.44c-.32,0-.57-.26-.57-.57s.26-.57.57-.57.57.26.57.57-.26.57-.57.57Zm12.22,4.57h-10.83l-.37-.49h11.57l-.37.49Zm1.4-4.57c-.32,0-.57-.26-.57-.57s.26-.57.57-.57.57.26.57.57-.26.57-.57.57Zm.57-2.74c0,.37-.3.67-.67.67h-1.44c-.37,0-.67-.3-.67-.67v-.7c0-.37.3-.67.67-.67h1.44c.37,0,.67.3.67.67v.7Z"/></svg>