<?xml version="1.0" encoding="UTF-8"?><svg id="Layer_18" xmlns="http://www.w3.org/2000/svg" viewBox="0 0 27.83 25.1"><defs><style>.cls-1{fill:#fff;}.cls-2{fill:#2bb673;}</style></defs><rect class="cls-2" x=".81" y=".75" width="26.07" height="23.24" rx="3.47" ry="3.47"/><g id="NewGroupe68"><g id="NewGroup0-31"><g><path class="cls-1" d="m5.1,8.9c-.78.08-.95,1.24-.95,1.95,0,.71.1,1.84.94,2.09l.28-.13c-.44-1.18-.14-2.73.15-3.72l-.42-.2h0Z"/><path class="cls-1" d="m6.2,9.42c-.26.94-.45,2.18-.15,3.07l.75-.35c-.12-.79-.01-1.65.14-2.37l-.74-.35h0Z"/><path class="cls-1" d="m7.65,10.1c-.11.56-.17,1.16-.13,1.71l1.15-.54c0-.08-.02-.16-.02-.24,0-.15.02-.29.05-.43l-1.05-.49h0Z"/><path class="cls-1" d="m16.39,10.92c0-1.96-.97-3.69-2.45-4.75-.32.75-1.06,1.27-1.92,1.27-1.15,0-2.08-.93-2.08-2.08,0-.08,0-.16.01-.24-1.42.15-2.69.82-3.63,1.81l4.21,2.12s.06,0,.09,0c1.09,0,1.98.89,1.98,1.98s-.89,1.98-1.98,1.98c-.14,0-.28-.02-.41-.04l-4.24,2.13c1.03.97,1.24,2.14.44,3.47-.25.42-.44.87-.55,1.35l-.21.86c2.47-.96,6.64-2.56,9.19-3.35-.03-1.32.28-2.63.89-3.81.42-.8.65-1.72.65-2.68h0Z"/><path class="cls-1" d="m4.08,14.71c.1.22.36.32.58.21l5.49-2.76c.15.06.31.1.48.1.68,0,1.23-.55,1.23-1.23s-.55-1.23-1.23-1.23c-.08,0-.15,0-.23.02l-5.75-2.89c-.22-.11-.48-.01-.58.21-.09.21,0,.45.21.55l5.41,2.54c-.18.21-.29.49-.29.79,0,.23.07.45.18.64l-5.3,2.49c-.21.1-.3.34-.21.55h0Z"/><path class="cls-1" d="m5.54,23.37l10.81-2.71c.38-.1.65-.44.64-.84v-1.12c-.02-.56-.55-.96-1.09-.81-2.67.74-8.69,3.08-10.89,3.95-.44.17-.63.69-.41,1.11.18.34.57.51.94.42h0Z"/><path class="cls-1" d="m12.02,4.04c-.73,0-1.33.6-1.33,1.33s.6,1.33,1.33,1.33,1.33-.6,1.33-1.33-.6-1.33-1.33-1.33h0Z"/><path class="cls-1" d="m23.51,14.5c-.37.99-2.73,2.25-2.73-3.82S16.83,1.35,14,1.35c-1.64,0-2.2,1.08-2.39,1.98.13-.03.27-.04.41-.04.89,0,1.65.56,1.94,1.34,1.38-.16,3.06,1.04,3.24,2.3.24,1.7,1.53,10.12,4.36,10.67,2.83.55,1.94-3.1,1.94-3.1h0Z"/></g></g></g></svg>