<?xml version="1.0" encoding="UTF-8"?><svg id="Layer_7" xmlns="http://www.w3.org/2000/svg" viewBox="0 0 36 36"><defs><style>.cls-1{fill:#006838;}.cls-2{fill:#fff;}</style></defs><path class="cls-1" d="M17.51,34.42c-1.11-1.39-2.2-2.73-3.27-4.1-2.25-2.9-4.38-5.88-6.07-9.15-.98-1.91-1.78-3.88-2.17-6C4.82,8.78,9.13,2.41,15.51,1.14c6.7-1.34,13.03,2.83,14.43,9.51,.53,2.55,.18,5.04-.66,7.47-.99,2.87-2.58,5.41-4.39,7.82-1.98,2.65-4.23,5.08-6.48,7.51-.29,.31-.58,.63-.91,.98Z"/><g><path class="cls-2" d="M26.38,15.88c-.05-3.03-1.28-5.92-2.85-8.51-.13,1.07-.86,1.98-1.7,2.65-.84,.67-1.82,1.15-2.7,1.77-1.7,1.2-3.06,2.91-3.77,4.87-1.16,3.2-.43,6.78-.38,7.19,.17-1.12,1.42-3.44,3.97-5.63,2.29-1.96,4.43-4.44,4.45-7.38,.26,1.53-.23,3.1-1.01,4.44-.78,1.34-1.85,2.48-2.86,3.66-1.01,1.18-1.98,2.42-2.54,3.86-.61,1.58-.85,3.3-.37,4.92,.45-1.14,1.52-1.93,2.62-2.47s2.29-.92,3.33-1.57c2.56-1.61,3.86-4.78,3.81-7.81Z"/><path class="cls-2" d="M14.03,16.13c.29-.79,.68-1.55,1.16-2.24-.58-.69-1.13-1.4-1.58-2.18-.78-1.34-1.27-2.91-1.01-4.44,.02,2.3,1.34,4.33,3.02,6.04,.63-.78,1.36-1.48,2.18-2.06,.44-.31,.89-.58,1.35-.86-.65-.83-1.42-1.57-2.28-2.18-.88-.62-1.86-1.11-2.7-1.77-.84-.67-1.58-1.58-1.7-2.65-1.57,2.59-2.8,5.48-2.85,8.51-.05,3.01,1.23,6.15,3.76,7.77,.01-1.21,.17-2.61,.65-3.95Z"/></g></svg>