<?xml version="1.0" encoding="UTF-8"?><svg id="Layer_7" xmlns="http://www.w3.org/2000/svg" viewBox="0 0 27.65 24.74"><defs><style>.cls-1{fill:#006838;}.cls-2{fill:#fff;}</style></defs><rect class="cls-1" x=".77" y=".85" width="26.07" height="23.24" rx="3.47" ry="3.47"/><g><path class="cls-2" d="m21.69,12.58c-.05-2.85-1.2-5.57-2.68-8.01-.12,1.01-.81,1.86-1.6,2.49-.8.63-1.71,1.08-2.54,1.67-1.6,1.13-2.88,2.74-3.55,4.59-1.09,3.01-.41,6.38-.36,6.76.16-1.05,1.33-3.24,3.73-5.3,2.15-1.85,4.16-4.18,4.19-6.94.25,1.44-.21,2.92-.95,4.18-.74,1.26-1.74,2.34-2.69,3.44-.95,1.11-1.87,2.28-2.39,3.64-.57,1.49-.8,3.1-.35,4.63.42-1.07,1.43-1.81,2.46-2.33s2.15-.86,3.13-1.48c2.41-1.52,3.64-4.5,3.59-7.35Z"/><path class="cls-2" d="m10.07,12.82c.27-.75.64-1.45,1.09-2.11-.54-.65-1.06-1.32-1.49-2.05-.74-1.26-1.2-2.74-.95-4.18.02,2.17,1.26,4.07,2.84,5.68.59-.74,1.28-1.39,2.05-1.93.41-.29.84-.55,1.27-.81-.61-.78-1.33-1.48-2.14-2.05-.83-.58-1.75-1.04-2.54-1.67-.8-.63-1.48-1.49-1.6-2.49-1.48,2.43-2.64,5.16-2.68,8.01-.05,2.83,1.16,5.79,3.54,7.31.01-1.14.16-2.46.61-3.72Z"/></g></svg>