<?xml version="1.0" encoding="UTF-8"?><svg id="Layer_16" xmlns="http://www.w3.org/2000/svg" viewBox="0 0 27.28 24.19"><defs><style>.cls-1{fill:#f15a29;}.cls-2{fill:#fff;}</style></defs><rect class="cls-1" x=".58" y=".49" width="26.07" height="23.24" rx="3.47" ry="3.47"/><g><path class="cls-2" d="m21.77,16.78c-.68.08-1.35.14-2.02.23-1.42.19-2.82.45-4.16.97-.57.23-1.12.51-1.63.94,0-.09,0-.14,0-.2,0-4.19,0-8.37,0-12.56,0-.22.1-.37.24-.51.31-.31.7-.51,1.1-.68.96-.41,1.96-.66,2.99-.82,1.13-.18,2.27-.31,3.41-.46.02,0,.04,0,.08,0v13.08Z"/><path class="cls-2" d="m13.26,18.89c-1.44-1.1-3.13-1.45-4.83-1.74-.98-.17-1.97-.26-2.97-.39V3.69c.44.05.87.09,1.29.14,1.34.16,2.68.35,3.98.74.52.16,1.02.37,1.52.57.18.07.34.19.5.29.35.23.51.52.51.98-.02,4.09-.01,8.17-.01,12.26,0,.06,0,.13,0,.22Z"/><path class="cls-2" d="m25.47,20.52h-10.84s0-.02,0-.03c.06-.02.11-.05.17-.07,1.95-.71,3.96-1.06,6.03-1.1,1.04-.02,2.07.02,3.1.18.25.04.41-.11.41-.37,0-.63,0-1.26,0-1.9,0-3.2,0-6.41,0-9.61,0-.08,0-.15,0-.24h1.14v13.15Z"/><path class="cls-2" d="m1.76,7.36h1.14c0,.09,0,.17,0,.25,0,3.78,0,7.55,0,11.33,0,.05,0,.11,0,.16,0,.29.16.43.45.38,1.55-.23,3.1-.23,4.66-.07,1.51.15,2.98.47,4.4,1,.06.02.13.05.19.1H1.76V7.36Z"/><path class="cls-2" d="m13.24,19.96c-3.13-1.2-6.35-1.57-9.66-1.2V5.79h1.2c0,.08,0,.15,0,.22,0,3.62,0,7.24,0,10.86,0,.52.05.56.56.6,1.54.12,3.08.3,4.58.67.85.21,1.68.47,2.43.94.24.16.46.36.67.56.09.09.15.22.22.33Z"/><path class="cls-2" d="m22.45,5.78h1.2v12.98c-3.31-.37-6.53,0-9.66,1.24.09-.26.24-.43.41-.58.5-.45,1.1-.72,1.73-.94,1.1-.39,2.24-.62,3.4-.77.82-.11,1.64-.18,2.46-.26.37-.04.45-.12.45-.5,0-3.65,0-7.31,0-10.96v-.21Z"/></g></svg>