<?xml version="1.0" encoding="UTF-8"?><svg id="Layer_25" xmlns="http://www.w3.org/2000/svg" viewBox="0 0 27.83 25.37"><defs><style>.cls-1{fill:#f47820;}.cls-2{fill:#fff;}</style></defs><rect class="cls-1" x=".72" y="1.04" width="26.07" height="23.24" rx="3.47" ry="3.47"/><path class="cls-2" d="m15.52,2.14s0,0,0,0h-.05s-.06,0-.09,0c-3.06-.14-5.4.55-6.95,2.04-1.47,1.4-2.21,3.49-2.21,6.21,0,.3-.05.64-.14,1.01-.36,1.39-1.3,2.78-1.84,3.49-.18.24-.25.55-.17.84.07.29.26.53.53.66.5.24,1.06.35,1.44.4.1.01.18.1.18.2,0,.95.07,1.77.19,2.42.17.89.91,1.53,1.81,1.58,1.45.07,2.88-.41,3.61-.7v2.59c0,.19.15.34.34.34h6.95c.19,0,.34-.15.34-.34v-2.49c0-.27.12-.54.34-.72,2.18-1.89,3.55-4.94,3.68-8.15.16-4.09-1.83-8.98-7.95-9.34ZM6.9,10.37c0-2.52.67-4.44,2-5.71,1.39-1.33,3.5-1.95,6.27-1.85v3.65c0,.14.09.27.22.32.13.05.28.02.38-.09.22-.24.53-.38.86-.38.64,0,1.15.52,1.15,1.15s-.52,1.15-1.15,1.15c-.33,0-.64-.14-.86-.38-.09-.1-.24-.14-.38-.09s-.22.18-.22.32v2.66h-2.4c.11-.24.17-.5.17-.77,0-1.01-.82-1.84-1.84-1.84s-1.84.82-1.84,1.84c0,.27.06.53.17.77h-2.59c.05-.26.07-.52.07-.75Zm12.45,8.74c-.36.32-.57.77-.57,1.24v2.15h-2.93v-5.56c0-.14-.09-.27-.22-.32-.13-.05-.28-.02-.38.09-.22.24-.53.38-.86.38-.64,0-1.15-.52-1.15-1.15s.52-1.15,1.15-1.15c.33,0,.64.14.86.38.09.1.24.14.38.09.13-.05.22-.18.22-.32v-3.13s1.71,0,1.71,0c-.11.24-.17.5-.17.77,0,1.01.82,1.84,1.84,1.84s1.84-.82,1.84-1.84c0-.27-.06-.53-.17-.77h1.88c-.2,2.9-1.46,5.61-3.42,7.31Z"/></svg>