<?xml version="1.0" encoding="UTF-8"?><svg id="Layer_31" xmlns="http://www.w3.org/2000/svg" viewBox="0 0 27.83 24.83"><defs><style>.cls-1{fill:#fff;}.cls-2{fill:#39b54a;}</style></defs><rect class="cls-2" x=".94" y=".67" width="26.07" height="23.24" rx="3.47" ry="3.47"/><g><path class="cls-1" d="m13.97,22.88c5.85,0,10.59-4.74,10.59-10.59S19.82,1.7,13.97,1.7,3.38,6.44,3.38,12.29s4.74,10.59,10.59,10.59Zm-4-8.01h.13c.1.08.28.18.54.32.26.14.51.26.75.35.28.1.6.19.97.28.37.09.76.14,1.18.16v-3.44c-.21-.04-.41-.08-.59-.12-.18-.04-.35-.08-.5-.12-.86-.22-1.48-.55-1.86-.98-.38-.44-.56-.98-.56-1.62,0-.79.31-1.45.93-1.99.62-.54,1.48-.86,2.59-.95v-2.16h.94v2.15c.53.01,1.08.07,1.65.19.56.12,1.03.25,1.42.41v1.56h-.11c-.4-.24-.81-.46-1.25-.65-.43-.19-1-.31-1.7-.36v3.43c.16.03.33.06.52.11.19.04.35.08.49.11.79.17,1.4.46,1.83.88.43.41.65.98.65,1.69,0,.82-.32,1.5-.96,2.05-.64.54-1.48.87-2.52.97v2.88h-.94v-2.84c-.7,0-1.36-.07-1.97-.2-.61-.13-1.15-.3-1.6-.51v-1.58Z"/><path class="cls-1" d="m16.46,14.31c0-.5-.16-.86-.47-1.09-.31-.23-.82-.41-1.51-.54v3.29c.64-.06,1.12-.22,1.47-.48.34-.26.51-.65.51-1.17Z"/><path class="cls-1" d="m13.54,7.9c-.57.04-1.04.2-1.43.46-.39.27-.58.64-.58,1.12s.14.85.43,1.09c.29.24.81.45,1.58.61v-3.28Z"/></g></svg>