<?xml version="1.0" encoding="UTF-8"?><svg id="Layer_30" xmlns="http://www.w3.org/2000/svg" viewBox="0 0 36 36"><defs><style>.cls-1{fill:#008fba;}.cls-2{fill:#fff;}</style></defs><path class="cls-1" d="M17.51,34.77c-1.11-1.39-2.2-2.73-3.27-4.1-2.25-2.9-4.38-5.88-6.07-9.15-.98-1.91-1.78-3.88-2.17-6C4.82,9.12,9.13,2.76,15.51,1.48c6.7-1.34,13.03,2.83,14.43,9.51,.53,2.55,.18,5.04-.66,7.47-.99,2.87-2.58,5.41-4.39,7.82-1.98,2.65-4.23,5.08-6.48,7.51-.29,.31-.58,.63-.91,.98Z"/><g id="NewGroupe7"><g id="NewGroup0-92"><g><path class="cls-2" d="M27.93,14.2c-.12-.1-.25-.18-.39-.25l-8.01,9.59,4.03-8.23c-.27-.04-.52-.17-.71-.37l-4.46,9.09V15.26s0,0,0,0c-.12,.04-.25,.07-.38,.07-.14,0-.28-.03-.41-.07,0,0,0,0,0,0v8.78l-4.45-9.07c-.19,.2-.44,.33-.71,.36l4.03,8.22L8.46,13.96c-.14,.07-.26,.15-.39,.25-.09,.07-.19,.13-.3,.18l9.78,11.71c.05,.06,.12,.11,.2,.13,.06,.04,.12,.07,.2,.08,0,0,.01,0,.02,0,0,0,.01,0,.02,0,0,0,.01,0,.02,0,0,0,.02,0,.03,0,0,0,0,0,0,0,0,0,.02,0,.03,0,.06-.01,.12-.04,.16-.07,.08-.02,.15-.06,.2-.13l9.79-11.72c-.11-.04-.21-.1-.3-.17h0Z"/><path class="cls-2" d="M29,13.3s0,0,0,0c0-.03,0-.06-.01-.09-1.31-4.84-5.73-8.4-10.98-8.4s-9.64,3.53-10.97,8.35h0s-.01,.05-.02,.07c-.09,.33,.3,.59,.57,.37,.11-.09,.24-.17,.36-.25,.44-.26,.96-.41,1.51-.41,1,0,1.89,.49,2.43,1.25,.04,.06,.08,.12,.12,.18,.14,.23,.47,.23,.61,0,.04-.07,.09-.14,.14-.21,.54-.74,1.42-1.22,2.41-1.22s1.9,.5,2.44,1.26c0,0,0,0,0,0,.04,.05,.07,.1,.1,.16,.14,.23,.47,.23,.61,0,.02-.04,.05-.08,.08-.12,0,0,0,0,0,0,.54-.78,1.44-1.3,2.47-1.3s1.85,.47,2.39,1.2c.06,.07,.11,.15,.16,.23,.14,.23,.47,.23,.61,0,0-.02,.02-.03,.03-.05,0,0,0,0,0,0,.53-.83,1.46-1.37,2.52-1.37,.54,0,1.05,.14,1.49,.4,.13,.07,.25,.15,.36,.24,.24,.19,.58,0,.58-.28h0Z"/></g></g></g></svg>