<?xml version="1.0" encoding="UTF-8"?><svg id="Layer_21" xmlns="http://www.w3.org/2000/svg" viewBox="0 0 27.55 25.1"><defs><style>.cls-1{fill:#fff;}.cls-2{fill:#9b8579;}</style></defs><rect class="cls-2" x=".87" y=".9" width="26.07" height="23.24" rx="3.47" ry="3.47"/><path class="cls-1" d="m17.17,14.51h.18c.36,0,.69.22.79.54.12.39.42.73.84.98.43.26.98.41,1.59.41s1.16-.15,1.59-.41c.4-.24.69-.57.82-.94.08-.33.41-.58.81-.58h.03c.22,0,.42-.06.55-.17.1-.07.16-.17.16-.26v-3.24c0-.09-.06-.19-.16-.26-.13-.1-.33-.17-.55-.17h-.2c-.36,0-.69-.21-.79-.54-.43-1.36-1.56-2.55-3.12-3.41-1.58-.87-3.59-1.39-5.79-1.39s-4.22.52-5.79,1.39c-1.55.85-2.67,2.04-3.11,3.39-.09.33-.41.57-.8.57h-.2c-.22,0-.42.06-.55.17-.1.07-.16.17-.16.26v3.24c0,.09.06.19.16.26.13.1.33.17.55.17h.13c.36,0,.69.22.79.54.12.39.42.73.84.98.43.26.98.41,1.59.41s1.16-.15,1.59-.41c.4-.24.69-.57.82-.94.08-.33.41-.58.81-.58h.18c.36,0,.69.22.79.54.12.39.42.73.84.98.43.26.98.41,1.59.41s1.16-.15,1.59-.41c.4-.24.69-.57.82-.94.08-.33.41-.58.81-.58h0Zm-3.65-8.37c.26,0,.48.22.62.57.12.3.19.71.19,1.15s-.07.86-.19,1.15c-.14.35-.36.57-.62.57s-.48-.22-.62-.57c-.12-.3-.19-.71-.19-1.15s.07-.86.19-1.15c.14-.35.36-.57.62-.57h0Zm3.47.27c.21-.11.54-.02.89.21.31.2.66.51.98.88.25.29.44.58.57.84.09.19.15.36.17.5.02.18-.02.32-.13.42h0s-.05.04-.08.05c-.21.11-.54.02-.89-.21-.31-.2-.66-.51-.98-.88-.25-.29-.44-.58-.57-.84-.09-.19-.15-.36-.17-.5-.02-.18.02-.32.13-.42.02-.02.05-.04.08-.05h0Zm-7.08.21c.35-.23.68-.32.89-.21.03.01.05.03.08.05.11.09.15.24.13.42-.02.14-.07.31-.17.5-.13.26-.32.55-.57.84-.32.37-.67.68-.98.88-.35.23-.68.32-.89.21-.03-.01-.05-.03-.08-.05h0c-.11-.09-.15-.24-.13-.42.02-.14.07-.31.17-.5.13-.26.32-.55.57-.84.32-.37.67-.68.98-.88h0Zm9.69,14.83h-11.09c-.15,0-.3-.07-.38-.19l-2.6-3.67c-.24-.09-.47-.21-.68-.33-.56-.34-1.01-.78-1.29-1.3-.45-.07-.86-.24-1.18-.49-.46-.35-.75-.84-.75-1.4v-3.24c0-.55.29-1.04.75-1.4.33-.25.75-.43,1.22-.49.64-1.51,1.94-2.81,3.66-3.76,1.83-1.01,4.14-1.61,6.65-1.61s4.82.6,6.65,1.61c1.72.95,3.02,2.25,3.66,3.76.47.07.89.24,1.22.49.46.35.75.84.75,1.4v3.24c0,.55-.29,1.04-.75,1.4-.29.22-.66.39-1.06.47-.28.53-.73.98-1.3,1.32-.13.08-.26.15-.39.21l-2.67,3.76c-.08.13-.23.22-.41.22h0Z"/></svg>