<?xml version="1.0" encoding="UTF-8"?><svg id="Layer_2" xmlns="http://www.w3.org/2000/svg" viewBox="0 0 27.65 24.74"><defs><style>.cls-1{fill:#fff;}.cls-2{fill:#1c75bc;}</style></defs><rect class="cls-2" x=".86" y=".62" width="26.07" height="23.24" rx="3.47" ry="3.47"/><path class="cls-1" d="m16.17,9.94c-.42,0-.77-.34-.77-.77s.34-.77.77-.77h7.7c-.31-.82-.72-1.59-1.22-2.3h-7.25c-.42,0-.77-.34-.77-.77s.34-.77.77-.77h5.95c-1.93-1.89-4.57-3.06-7.48-3.06-3.63,0-6.84,1.82-8.78,4.59h2.66c.42,0,.77.34.77.77s-.34.77-.77.77h-3.54c-.56,1.17-.91,2.46-1.01,3.83h3.79c.42,0,.77.34.77.77s-.34.77-.77.77h-3.79c.08,1.07.31,2.1.68,3.06h3.87c.42,0,.77.34.77.77s-.34.77-.77.77h-3.14c1.86,3.2,5.31,5.36,9.26,5.36,2.91,0,5.55-1.17,7.48-3.06h-5.19c-.42,0-.77-.34-.77-.77s.34-.77.77-.77h6.48c1.21-1.74,1.93-3.84,1.93-6.12,0-.79-.09-1.55-.25-2.3h-8.16Zm-3.83,9.95c-.84,0-1.53-.69-1.53-1.53s.69-1.53,1.53-1.53,1.53.69,1.53,1.53-.69,1.53-1.53,1.53Zm.77-4.59h-3.06c-.42,0-.77-.34-.77-.77s.34-.77.77-.77h3.06c.42,0,.77.34.77.77s-.34.77-.77.77Zm-1.53-3.83c-1.27,0-2.3-1.03-2.3-2.3s1.03-2.3,2.3-2.3,2.3,1.03,2.3,2.3-1.03,2.3-2.3,2.3Zm6.12,5.36c-1.27,0-2.3-1.03-2.3-2.3s1.03-2.3,2.3-2.3,2.3,1.03,2.3,2.3-1.03,2.3-2.3,2.3Z"/></svg>