<?xml version="1.0" encoding="UTF-8"?><svg id="Layer_2" xmlns="http://www.w3.org/2000/svg" viewBox="0 0 27.65 24.74"><defs><style>.cls-1{fill:#fff;}.cls-2{fill:#1c75bc;}</style></defs><rect class="cls-2" x=".86" y=".62" width="26.07" height="23.24" rx="3.47" ry="3.47"/><path class="cls-1" d="m16.06,10.05c-.4,0-.73-.33-.73-.73s.33-.73.73-.73h7.33c-.3-.78-.69-1.51-1.16-2.19h-6.9c-.4,0-.73-.33-.73-.73s.33-.73.73-.73h5.67c-1.84-1.8-4.35-2.91-7.13-2.91-3.46,0-6.51,1.73-8.36,4.37h2.53c.4,0,.73.33.73.73s-.33.73-.73.73h-3.37c-.53,1.12-.87,2.35-.96,3.64h3.61c.4,0,.73.33.73.73s-.33.73-.73.73h-3.61c.07,1.02.3,2,.65,2.91h3.69c.4,0,.73.33.73.73s-.33.73-.73.73h-2.99c1.77,3.04,5.05,5.1,8.82,5.1,2.77,0,5.29-1.11,7.13-2.91h-4.94c-.4,0-.73-.33-.73-.73s.33-.73.73-.73h6.17c1.16-1.65,1.84-3.66,1.84-5.83,0-.75-.09-1.48-.24-2.19h-7.77Zm-3.64,9.47c-.8,0-1.46-.65-1.46-1.46s.65-1.46,1.46-1.46,1.46.65,1.46,1.46-.65,1.46-1.46,1.46Zm.73-4.37h-2.91c-.4,0-.73-.33-.73-.73s.33-.73.73-.73h2.91c.4,0,.73.33.73.73s-.33.73-.73.73Zm-1.46-3.64c-1.21,0-2.19-.98-2.19-2.19s.98-2.19,2.19-2.19,2.19.98,2.19,2.19-.98,2.19-2.19,2.19Zm5.83,5.1c-1.21,0-2.19-.98-2.19-2.19s.98-2.19,2.19-2.19,2.19.98,2.19,2.19-.98,2.19-2.19,2.19Z"/></svg>