<?xml version="1.0" encoding="UTF-8"?><svg id="Layer_13" xmlns="http://www.w3.org/2000/svg" viewBox="0 0 27.59 24.72"><defs><style>.cls-1{fill:#fff;}.cls-2{fill:#2f449b;}</style></defs><rect class="cls-2" x=".77" y=".56" width="26.07" height="23.24" rx="3.47" ry="3.47"/><g><path class="cls-1" d="m25.29,22.37H2.32v-1.67h22.98v1.67Z"/><path class="cls-1" d="m23.95,5.67H3.65s0,0,0-.01c.04-.02.08-.03.12-.05,3.31-1.2,6.62-2.4,9.93-3.6.07-.03.13-.02.2,0,3.31,1.2,6.63,2.4,9.94,3.61.03.01.07.03.1.04,0,0,0,.01,0,.02Z"/><path class="cls-1" d="m13.99,18.03v-6.58c1.46-.63,2.93-1.27,4.4-1.9.03.1.05,6.25.02,6.57-1.46.63-2.93,1.27-4.41,1.91Z"/><path class="cls-1" d="m9.2,9.54c1.48.64,2.94,1.27,4.41,1.91v6.58c-.05-.02-.09-.03-.13-.05-1.39-.6-2.77-1.2-4.16-1.8-.09-.04-.13-.09-.13-.19,0-2.1,0-4.21,0-6.31,0-.04,0-.07,0-.13Z"/><path class="cls-1" d="m24.02,7.72H3.59c-.03-.09-.04-1.1-.01-1.32,0,0,0,0,0,0,0,0,0,0,0,0,6.77,0,13.55,0,20.32,0,.04,0,.07,0,.11,0,.03.12.03,1.25,0,1.34Z"/><path class="cls-1" d="m3.57,20.12v-1.31c.09-.03,20.29-.04,20.46,0,0,.44,0,.87,0,1.31-.09.02-20.25.03-20.46,0Z"/><path class="cls-1" d="m21.92,17.95h-1.61c-.02-.09-.03-9.27,0-9.42h1.61c.03.09.03,9.28,0,9.42Z"/><path class="cls-1" d="m7.3,17.95h-1.61v-9.41c.09-.02,1.43-.03,1.61-.01.03.09.03,9.28,0,9.42Z"/><path class="cls-1" d="m10.17,9.65c0-.23,0-.46,0-.68,0-.02,0-.04,0-.06.09.03,3.14,2.04,3.29,2.18-1.1-.48-2.2-.96-3.3-1.44Z"/><path class="cls-1" d="m17.43,8.9v.75c-1.08.47-2.16.95-3.27,1.43.07-.09,3.13-2.12,3.27-2.18Z"/><path class="cls-1" d="m14.12,10.69c.8-.77,1.6-1.53,2.42-2.32,0,.05,0,.08,0,.1,0,.18,0,.36,0,.54,0,.05-.02.09-.06.12-.78.52-1.55,1.03-2.33,1.55,0,0-.01,0-.02,0,0,0,0,0-.01-.01Z"/><path class="cls-1" d="m13.5,10.73s-.06-.04-.09-.06c-.74-.49-1.47-.99-2.21-1.48-.09-.06-.13-.13-.13-.24,0-.18,0-.36,0-.55.1.05,2.03,1.88,2.43,2.32Z"/></g></svg>