<?xml version="1.0" encoding="UTF-8"?><svg id="Layer_14" xmlns="http://www.w3.org/2000/svg" viewBox="0 0 28.19 24.56"><defs><style>.cls-1{fill:#fff;}.cls-2{fill:#a26627;}</style></defs><rect class="cls-2" x="1.35" y=".7" width="26.07" height="23.24" rx="3.47" ry="3.47"/><g><path class="cls-1" d="m15.73,2.02c-.28-.49-.79-.78-1.35-.78s-1.07.29-1.35.78l-2.09,3.65c-.34.6-.52,1.27-.52,1.96v13.4h1.58l.61,1.83c.11.32.41.54.75.54h2.03c.34,0,.64-.22.75-.54l.61-1.83h1.58V7.63c0-.69-.18-1.37-.52-1.96l-2.09-3.65Zm-1.35,5.55c.87,0,1.58.71,1.58,1.58s-.71,1.58-1.58,1.58-1.58-.71-1.58-1.58.71-1.58,1.58-1.58Zm-.79,4.75h1.58c.44,0,.79.35.79.79s-.35.79-.79.79h-1.58c-.44,0-.79-.35-.79-.79s.35-.79.79-.79Z"/><path class="cls-1" d="m8.84,12.56v8.48h-3.17c-.44,0-.79-.35-.79-.79v-2.38c0-2.51,1.67-4.63,3.96-5.31Z"/><path class="cls-1" d="m23.89,17.87v2.38c0,.44-.35.79-.79.79h-3.17v-8.48c2.29.68,3.96,2.8,3.96,5.31Z"/></g></svg>