<?xml version="1.0" encoding="UTF-8"?><svg id="Layer_3" xmlns="http://www.w3.org/2000/svg" viewBox="0 0 27.28 24.56"><defs><style>.cls-1{fill:#fff;}.cls-2{fill:#c94d86;}</style></defs><rect class="cls-2" x=".5" y=".46" width="26.07" height="23.24" rx="3.47" ry="3.47"/><g><path class="cls-1" d="m22.86,14.16l-1.02-3.53c-.11-.38-.46-.65-.86-.65-.5,0-.9.4-.9.9v3.15l-.39.38-.27-.26c-.43-.42-1.12-.42-1.54,0l-1.7,1.67c-.13.13-.23.3-.28.48l-.91,3.14h-.3c-.19,0-.34.15-.34.34v2.03c0,.19.15.34.34.34h4.59c.19,0,.34-.15.34-.34v-2.03c0-.19-.15-.34-.34-.34h-.04v-.89l3.35-3.29s0,0,0,0c.29-.29.4-.7.28-1.09Zm-.76.61l-3.45,3.38c-.06.06-.1.15-.1.24v1.03h-2.86l.86-2.95c.02-.07.06-.14.11-.19l1.7-1.66c.16-.16.43-.16.6,0l.25.25-1.13,1.13c-.13.13-.13.35,0,.48s.35.13.48,0l2.1-2.08c.06-.06.1-.15.1-.24v-3.29c0-.25.38-.31.44-.06l1.02,3.53c.04.15,0,.31-.11.43Z"/><path class="cls-1" d="m12.38,19.43h-.3l-.91-3.14c-.05-.18-.15-.34-.29-.48l-1.7-1.66c-.43-.42-1.12-.42-1.54,0l-.27.26-.39-.38v-3.15c0-.5-.4-.9-.9-.9-.4,0-.76.27-.86.65l-1.02,3.53c-.11.39,0,.8.29,1.09l3.35,3.29v.89h-.04c-.19,0-.34.15-.34.34v2.03c0,.19.15.34.34.34h4.59c.19,0,.34-.15.34-.34v-2.03c0-.19-.15-.34-.34-.34Zm-3.97-1.27l-3.45-3.38c-.11-.11-.16-.28-.11-.43l1.02-3.54c.06-.24.44-.19.44.06v3.29c0,.09.04.18.1.24l2.1,2.08c.13.13.35.13.48,0s.13-.35,0-.48l-1.13-1.13.25-.25c.16-.16.43-.16.6,0l1.7,1.66c.05.05.09.12.11.19l.86,2.95h-2.86v-1.03c0-.09-.04-.18-.1-.24Z"/><path class="cls-1" d="m20.16,4.58c-.32-1.2-1.23-2.11-2.43-2.43-1.36-.36-2.85.1-4.14,1.27-.93-.85-1.97-1.33-3.01-1.38-1.02-.05-1.97.3-2.68,1.01-1.28,1.28-1.64,3.68.61,5.92l4.84,4.84c.13.13.35.13.48,0l4.84-4.84c1.34-1.34,1.88-2.93,1.49-4.38Zm-4,4.15c-.19,0-.34-.15-.34-.34s.15-.34.34-.34.34.15.34.34-.15.34-.34.34Zm1.25-1.03c-.13.13-.35.13-.48,0-.13-.13-.13-.35,0-.48.76-.76,1.06-1.56.82-2.15-.16-.38-.53-.61-.96-.61-.19,0-.34-.15-.34-.34s.15-.34.34-.34c.71,0,1.32.4,1.59,1.03.35.85,0,1.93-.96,2.88Z"/></g></svg>