<?xml version="1.0" encoding="UTF-8"?><svg id="Layer_6" xmlns="http://www.w3.org/2000/svg" viewBox="0 0 28.37 25.37"><defs><style>.cls-1{fill:#fff;}.cls-2{fill:#ffce07;}</style></defs><rect class="cls-2" x="1.1" y="1.02" width="26.07" height="23.24" rx="3.47" ry="3.47"/><g id="NewGroupe86"><g id="NewGroup0-13"><g><path class="cls-1" d="m14.13,10.16c-1.5,0-2.71,1.21-2.71,2.71s1.21,2.71,2.71,2.71,2.71-1.21,2.71-2.71-1.21-2.71-2.71-2.71h0Z"/><path class="cls-1" d="m7.22,16.91s-.03.08-.05.11c1.79.51,3.89.82,6.12.88.4-.29.8-.6,1.2-.93-.12,0-.24,0-.36,0-2.39,0-4.66-.28-6.56-.81-.13.25-.25.51-.35.75h0Z"/><path class="cls-1" d="m22.74,9.28s-.02,0-.03-.01c-.02,0-.04-.01-.05-.02-.04-.02-.08-.03-.13-.05-.03-.01-.07-.03-.1-.04,0,0,0,0,0,0-.07-.03-.13-.05-.2-.07-.04-.01-.08-.03-.12-.04-.07-.02-.13-.05-.2-.07,0,0,0,0,0,0-2.01-.69-4.52-1.09-7.18-1.14h0s-.05,0-.08,0c-.06,0-.12,0-.18,0-.02,0-.04,0-.06,0-.09,0-.18,0-.27,0-.08,0-.16,0-.25,0-.02,0-.05,0-.07,0-.06,0-.12,0-.17,0-.12,0-.24,0-.36,0-.04,0-.08,0-.12,0,0,0,0,0,0,0-2.8.09-5.4.56-7.42,1.36-.47.18-.89.38-1.28.59-.2-.12-.43-.19-.68-.19-.71,0-1.28.57-1.28,1.28,0,.16.03.3.08.44-.36.49-.55,1.01-.55,1.55,0,1.22.95,2.34,2.71,3.23.03-.07.06-.15.09-.22.09-.21.19-.42.29-.63-1.38-.71-2.16-1.55-2.16-2.37,0-.28.09-.56.26-.84.17.08.35.12.55.12.71,0,1.28-.57,1.28-1.28,0-.11-.01-.22-.04-.32.32-.17.67-.33,1.06-.48,1.08-.43,2.35-.76,3.73-.98,0,0,0,0,0,0,.41-.07.83-.12,1.26-.17,0,0,0,0,0,0,.09,0,.18-.02.27-.03.03,0,.06,0,.09,0,0,0,0,0,0,0,.87-.08,1.77-.12,2.69-.12,2.66,0,5.17.35,7.19,1,0,0,0,0,0,0,.12.04.23.08.34.11.04.01.07.02.1.04.14.05.28.1.41.15.02,0,.04.02.06.02.02,0,.04.02.06.03,1.9.77,2.98,1.77,2.98,2.75s-1.13,2.02-3.11,2.8c-1.02.4-2.2.72-3.49.94-.13.14-.27.28-.41.42-.24.24-.47.47-.72.69,1.85-.22,3.55-.62,4.96-1.17,2.39-.94,3.7-2.24,3.7-3.67s-1.24-2.66-3.49-3.59h0Z"/><path class="cls-1" d="m7.21,11.9c.14-.19.28-.37.43-.56-.17-.26-.32-.52-.47-.78-.27.09-.53.18-.78.28-.04.02-.08.03-.11.05.23.41.48.83.76,1.26.04-.05.07-.1.11-.15.02-.03.04-.06.07-.09h0Z"/><path class="cls-1" d="m19.05,12.19c.2-.27.38-.53.56-.8-.41-.5-.85-1-1.32-1.49-.49-.08-.99-.14-1.51-.19.08.08.17.17.25.25.73.73,1.4,1.47,2.01,2.23h0Z"/><path class="cls-1" d="m10.42,5.19c.71.31,1.44.7,2.19,1.17,0,0,0,0,0,0,.26-.21.53-.41.8-.6-.89-.58-1.77-1.07-2.61-1.43-1.19-.52-2.24-.77-3.13-.77s-1.58.25-2.09.75c-.86.86-.98,2.33-.37,4.2.07-.03.15-.06.23-.09.21-.08.43-.16.66-.24-.48-1.48-.43-2.62.15-3.21.71-.71,2.23-.63,4.18.22h0Z"/><path class="cls-1" d="m11.48,16.02c-.09-.08-.17-.17-.25-.25-.73-.73-1.4-1.47-2.01-2.23h0s-.07.1-.11.14c-.08.11-.15.21-.23.32,0,.01-.02.02-.03.04-.03.04-.06.08-.08.12-.04.05-.07.11-.11.16,0,0,0,.01-.01.02h0c.41.5.85,1,1.32,1.49.49.08.99.14,1.51.19h0Z"/><path class="cls-1" d="m21.1,15.17c.27-.09.53-.18.78-.28.04-.02.08-.03.11-.05-.23-.41-.48-.83-.76-1.26-.19.27-.4.53-.6.8.17.26.32.52.47.78h0Z"/><path class="cls-1" d="m22.83,8.42c.08.03.15.06.23.09.26-.78.38-1.49.38-2.12,0-.88-.25-1.58-.75-2.09-.1-.1-.2-.19-.32-.26-.05-.67-.6-1.19-1.28-1.19-.52,0-.96.31-1.16.75-.73.09-1.56.34-2.46.73-1.39.6-2.87,1.52-4.34,2.68.33-.01.66-.02,1-.02.2,0,.39,0,.59,0,1.07-.75,2.12-1.37,3.13-1.8.75-.33,1.44-.54,2.04-.64.17.5.65.86,1.21.86.38,0,.71-.16.95-.42.57.59.61,1.72.13,3.19.22.08.44.16.66.24h0Z"/><path class="cls-1" d="m17.7,16.43c.2-.2.4-.4.59-.61,1.53-1.61,2.8-3.32,3.7-4.95-.04-.02-.08-.03-.11-.05-.25-.1-.51-.19-.78-.28-.97,1.72-2.37,3.52-4.06,5.21-.08.08-.17.17-.25.25-1.05,1.03-2.15,1.95-3.24,2.72-1.07.75-2.12,1.37-3.13,1.8-1.13.49-2.11.72-2.88.7,0-.03,0-.06,0-.09,0-.71-.57-1.28-1.28-1.28-.16,0-.3.03-.44.08-.14-.62-.05-1.43.27-2.39.1-.31.22-.63.37-.97.2-.46.44-.93.71-1.41.97-1.72,2.37-3.52,4.06-5.21.08-.08.17-.17.25-.25-.52.05-1.02.11-1.51.19-1.53,1.61-2.8,3.32-3.7,4.95-.25.46-.48.91-.67,1.36-.15.35-.28.69-.39,1.02-.46,1.41-.51,2.59-.13,3.46-.06.14-.09.3-.09.47,0,.71.57,1.28,1.28,1.28.31,0,.59-.11.81-.29.18.03.38.04.58.04.89,0,1.95-.26,3.13-.77,1.39-.6,2.87-1.52,4.34-2.68.87-.69,1.74-1.45,2.57-2.29h0Z"/><path class="cls-1" d="m23.43,19.68c.06-.7-.07-1.53-.37-2.46-.07.03-.15.06-.23.09-.21.08-.43.16-.66.24.22.67.33,1.28.33,1.79-.68.03-1.22.59-1.22,1.28,0,.18.04.35.1.51-.82.26-2.06.06-3.54-.59-.71-.31-1.44-.7-2.19-1.17h-.02c-.26.22-.52.41-.78.6.89.58,1.77,1.06,2.61,1.43,1.19.52,2.24.77,3.13.77.59,0,1.11-.12,1.54-.35.13.05.27.07.42.07.71,0,1.28-.57,1.28-1.28,0-.37-.16-.71-.42-.94h0Z"/></g></g></g></svg>