<?xml version="1.0" encoding="UTF-8"?><svg id="Layer_28" xmlns="http://www.w3.org/2000/svg" viewBox="0 0 28.1 24.56"><defs><style>.cls-1{fill:#fff;}.cls-2{fill:#293a49;}</style></defs><rect class="cls-2" x=".9" y=".81" width="26.07" height="23.24" rx="3.47" ry="3.47"/><g id="NewGroupe28"><g id="NewGroup0-71"><path class="cls-1" d="m21.87,10.51l1.57,2.05c.26.34.32.79.15,1.18l-1.04,2.49c-.16.39-.52.67-.94.72l-2.56.33c-.48.06-.96-.18-1.19-.6l-.91-1.65c-.17-.32-.2-.7-.06-1.03l1.12-2.7c.14-.33.42-.59.77-.69l1.81-.52c.47-.13.97.03,1.27.42h0Zm-4.27,8.3l-1.29,2.23c-.21.37-.6.59-1.03.59h-2.7c-.42,0-.82-.23-1.03-.59l-1.29-2.23c-.24-.42-.2-.95.1-1.33l1.17-1.47c.23-.28.57-.45.93-.45h2.93c.36,0,.7.16.93.45l1.17,1.47c.3.38.34.91.1,1.33h0Zm-8.9-1.22l-2.55-.39c-.42-.06-.77-.35-.93-.74l-.98-2.52c-.15-.4-.08-.84.18-1.17l1.61-2.01c.31-.38.81-.54,1.28-.39l1.8.56c.35.11.62.37.75.7l1.06,2.73c.13.34.1.72-.08,1.03l-.95,1.63c-.25.42-.72.65-1.21.58h0Zm-1.55-12.56l2.11-1.68c.33-.26.78-.33,1.17-.18l2.4.94c.45.18.75.62.75,1.11v1.89c0,.36-.16.7-.45.93l-2.29,1.82c-.28.23-.65.31-1.01.23l-1.84-.42c-.48-.11-.84-.5-.91-.98l-.38-2.55c-.06-.42.1-.84.43-1.11h0Zm7.38.19c0-.49.3-.93.75-1.11l2.4-.94c.4-.16.84-.09,1.18.18l2.11,1.68c.33.26.5.69.43,1.11l-.38,2.55c-.07.48-.43.87-.91.98l-1.84.42c-.35.08-.72,0-1.01-.23l-2.29-1.82c-.28-.23-.45-.57-.45-.93v-1.89h0Zm-.6-3.68C7.91,1.54,3.04,6.41,3.04,12.43s4.88,10.89,10.89,10.89,10.89-4.88,10.89-10.89S19.94,1.54,13.93,1.54h0Z"/></g></g></svg>