<?xml version="1.0" encoding="UTF-8"?><svg id="Layer_24" xmlns="http://www.w3.org/2000/svg" viewBox="0 0 28.1 25.37"><defs><style>.cls-1{fill:#fff;}.cls-2{fill:#207fa5;}</style></defs><rect class="cls-2" x=".79" y="1.22" width="26.07" height="23.24" rx="3.47" ry="3.47"/><path class="cls-1" d="m23.96,9.2c-.27,0-.49.18-.57.42h-3.45l-1.73-3.01,1.85-3.18s.09.02.13.02c.33,0,.6-.27.6-.6s-.27-.6-.6-.6-.6.27-.6.6c0,.16.06.3.16.4l-1.86,3.2h-3.38l-1.63-2.9c.1-.11.16-.25.16-.41,0-.33-.27-.6-.6-.6s-.6.27-.6.6.27.6.6.6c.04,0,.08,0,.12-.01l1.61,2.86-1.74,3.02-.95-1.66c.1-.11.16-.25.16-.41,0-.33-.27-.6-.6-.6s-.6.27-.6.6.27.6.6.6c.04,0,.09,0,.13-.01l.95,1.68h-3.47l-1.27-2.18c.1-.11.16-.25.16-.4,0-.33-.27-.6-.6-.6s-.6.27-.6.6.27.6.6.6c.05,0,.09,0,.13-.02l1.27,2.19-1.72,2.98h-2.38c-.08-.24-.3-.42-.57-.42-.33,0-.6.27-.6.6s.27.6.6.6c.27,0,.49-.18.57-.42h2.38l1.72,2.98-1.52,2.63s-.08-.01-.12-.01c-.33,0-.6.27-.6.6s.27.6.6.6.6-.27.6-.6c0-.16-.06-.3-.17-.41l1.52-2.63h3.45l-1.17,2.02s-.09-.02-.13-.02c-.33,0-.6.27-.6.6s.27.6.6.6.6-.27.6-.6c0-.16-.06-.3-.16-.4l1.17-2.03,1.71,2.96-1.55,2.63s-.09-.02-.14-.02c-.33,0-.6.27-.6.6s.27.6.6.6.6-.27.6-.6c0-.15-.06-.29-.16-.4l1.53-2.6h3.52l1.37,2.33c-.1.11-.16.25-.16.4,0,.33.27.6.6.6s.6-.27.6-.6-.27-.6-.6-.6c-.05,0-.09,0-.13.02l-1.38-2.36,1.71-2.96h2.32c.08.24.3.42.57.42.33,0,.6-.27.6-.6s-.27-.6-.6-.6c-.27,0-.49.18-.57.42h-2.32l-1.72-2.99h2.15c.08.24.3.42.57.42.33,0,.6-.27.6-.6s-.27-.6-.6-.6c-.27,0-.49.18-.57.42h-2.15l1.72-2.99h3.45c.08.24.3.42.57.42.33,0,.6-.27.6-.6s-.27-.6-.6-.6Z"/></svg>