<?xml version="1.0" encoding="UTF-8"?><svg id="Layer_10" xmlns="http://www.w3.org/2000/svg" viewBox="0 0 36 36"><defs><style>.cls-1{fill:#fff;}.cls-2{fill:#573f99;}</style></defs><path class="cls-2" d="M17.51,34.95c-1.11-1.39-2.2-2.73-3.27-4.1-2.25-2.9-4.38-5.88-6.07-9.15-.98-1.91-1.78-3.88-2.17-6C4.82,9.3,9.13,2.94,15.51,1.66c6.7-1.34,13.03,2.83,14.43,9.51,.53,2.55,.18,5.04-.66,7.47-.99,2.87-2.58,5.41-4.39,7.82-1.98,2.65-4.23,5.08-6.48,7.51-.29,.31-.58,.63-.91,.98Z"/><g><path class="cls-1" d="M26.27,15.3c-.97-.83-2.16-1.33-3.43-1.46,.57-.89,.9-1.94,.9-3.07,0-.46-.06-.9-.16-1.32,.74-.57,1.17-1.45,1.17-2.39,0-1.67-1.36-3.04-3.04-3.04-.94,0-1.82,.44-2.39,1.17-.43-.1-.87-.16-1.32-.16s-.9,.06-1.32,.16c-.57-.74-1.45-1.17-2.39-1.17-1.68,0-3.04,1.36-3.04,3.04,0,.94,.44,1.82,1.17,2.39-.1,.43-.16,.87-.16,1.32,0,1.13,.33,2.18,.9,3.07-1.26,.13-2.46,.63-3.43,1.46-.54,.46-.66,1.24-.3,1.85,.27,.45,.75,.7,1.25,.7,.22,0,.44-.05,.64-.15,.17-.09,.35-.16,.53-.22-.17,.64-.26,1.27-.26,1.87,0,.01,0,.02,0,.03-.9,.44-1.69,1.68-1.69,2.87,0,1.49,1.22,2.03,2.36,2.03,.79,0,1.62-.26,2.06-.92,.97,.38,2.21,.58,3.68,.58,1.33,0,2.48-.16,3.41-.48,.45,.59,1.23,.82,1.99,.82,1.14,0,2.36-.53,2.36-2.03,0-1.04-.6-2.12-1.36-2.67,0-.08,.01-.15,.01-.23,0-.6-.1-1.23-.26-1.87,.18,.06,.36,.14,.53,.23,.21,.1,.43,.15,.64,.15,.5,0,.98-.25,1.25-.7,.37-.61,.24-1.38-.3-1.85Zm-4.56-9.26c.56,0,1.01,.45,1.01,1.01,0,.13-.03,.25-.07,.37-.36-.5-.81-.95-1.31-1.31,.12-.05,.24-.07,.37-.07Zm-1.69,3.04c.37,0,.68,.3,.68,.68s-.3,.67-.68,.67-.68-.3-.68-.67,.3-.68,.68-.68Zm-2.02,2.7c.29,0,.56,.05,.81,.13l-.08,.13c-.15,.26-.43,.42-.73,.42s-.58-.16-.73-.41l-.08-.13c.25-.08,.53-.13,.81-.13Zm-1.31,.61c.22,.36,.58,.61,.98,.7,0,.01,0,.03,0,.04,0,.37-.3,.67-.67,.67-.13,0-.25-.05-.34-.14l-.1-.1c-.13-.13-.35-.13-.48,0s-.13,.35,0,.48l.1,.1c.22,.22,.51,.34,.81,.34,.41,0,.76-.18,1.01-.47,.25,.28,.61,.47,1.01,.47,.31,0,.6-.12,.81-.34l.1-.1c.13-.13,.13-.35,0-.48s-.35-.13-.48,0l-.1,.1c-.09,.09-.21,.14-.34,.14-.37,0-.68-.3-.68-.67,0-.01,0-.03,0-.04,.41-.09,.77-.34,.98-.7l.12-.19c.57,.37,.94,.95,.94,1.61,0,1.04-.92,1.9-2.1,2.01-.09,0-.17,.01-.26,.01s-.18,0-.26-.01c-1.18-.11-2.1-.97-2.1-2.01,0-.66,.37-1.24,.94-1.61l.12,.19Zm-.71-3.31c.37,0,.68,.3,.68,.68s-.3,.67-.68,.67-.67-.3-.67-.67,.3-.68,.67-.68Zm-1.69-3.04c.13,0,.25,.03,.37,.07-.5,.36-.95,.81-1.31,1.31-.05-.12-.07-.24-.07-.37,0-.56,.45-1.01,1.01-1.01Zm-2.35,10.69c.26-.73,.61-1.44,1.04-2.1,.1-.16,.31-.2,.47-.1s.2,.31,.1,.47c-.4,.61-.72,1.27-.97,1.95-.05,.14-.18,.22-.32,.22-.04,0-.08,0-.11-.02-.18-.06-.27-.25-.21-.43Zm2.35,5.85c-.19,0-.34-.15-.34-.34,0-1.17-.98-2.36-1.69-2.36-.19,0-.34-.15-.34-.34s.15-.34,.34-.34c1.15,0,2.36,1.56,2.36,3.04,0,.19-.15,.34-.34,.34Zm3.71-1.35c-1.86,0-3.38-1.67-3.38-3.71,0-.65,.15-1.27,.44-1.83,.77,.46,1.66,.74,2.6,.8,.11,.01,.22,.02,.33,.02s.22,0,.33-.02c.95-.05,1.83-.34,2.6-.8,.29,.56,.44,1.18,.44,1.83,0,2.05-1.51,3.71-3.38,3.71Zm5.4-1.35c-.71,0-1.69,1.19-1.69,2.36,0,.19-.15,.34-.34,.34s-.34-.15-.34-.34c0-1.48,1.21-3.04,2.36-3.04,.19,0,.34,.15,.34,.34s-.15,.34-.34,.34Zm.46-2.72s-.08,.02-.11,.02c-.14,0-.27-.09-.32-.23-.24-.69-.57-1.34-.96-1.95-.1-.16-.06-.37,.1-.47,.16-.1,.37-.06,.47,.1,.43,.66,.78,1.36,1.04,2.1,.06,.18-.03,.37-.21,.43Z"/><path class="cls-1" d="M19.69,17.86h-3.38c-.19,0-.34,.15-.34,.34,0,1.12,.91,2.02,2.03,2.02s2.02-.91,2.02-2.02c0-.19-.15-.34-.34-.34Z"/></g></svg>