<?xml version="1.0" encoding="UTF-8"?><svg id="Layer_4" xmlns="http://www.w3.org/2000/svg" viewBox="0 0 27.83 24.56"><defs><style>.cls-1{fill:#474749;}.cls-2{fill:#fff;fill-rule:evenodd;}</style></defs><rect class="cls-1" x=".75" y=".66" width="26.07" height="23.24" rx="3.47" ry="3.47"/><path class="cls-2" d="m7.72,19.73c-.17.19-.35.39-.51.51l-.1.1c-.1.1-.26.1-.36,0h0c-.1-.1-.1-.26,0-.36l3.87-3.88c.1-.1.26-.1.36,0h0s.04.04.05.07c0,0,.02.02.03.03,0,.01,0,.02,0,.04.02.08,0,.17-.07.23l-.4.4c-.37.41-.89.91-1.24,1.24l-1.62,1.63Zm2.36-4.52h0c.05.1.03.22-.05.3l-3.87,3.88c-.1.1-.26.1-.36,0h0c-.1-.1-.1-.26,0-.36l3.87-3.88c.1-.1.26-.1.36,0h0s.03.03.04.05h0Zm5.43-3.83c1.16-1.17,2.45-2.48,3.59-3.63.74-.74,1.29-1.27,1.44-1.37.49-.31.95-.14,1.24-.58.27-.4,1.21-1.87,1.35-2.25-.17-.28-.38-.49-.64-.64-.43.16-1.75,1.04-2.2,1.33-.49.31-.22.48-.57,1.18-.04.07-.18.24-.4.47-1.51,1.5-3.67,3.67-4.64,4.66.28.28.56.55.85.83Zm1.43,6.16c.18.43-.66,1.94.85,3.44.88.88,1.85,1.05,3.34.8l-.74-.79c-1.45-1.42-1.43-1.32-.28-2.49.48-.49.95-1.3,1.74-.51l1.56,1.46c.22-1.49.03-2.46-.87-3.33-1.27-1.22-1.97-.77-3.45-.8-2.83-2.78-5.65-5.56-8.51-8.32-.03-1.48.39-2.21-.85-3.44-.88-.88-1.85-1.05-3.34-.8.19.36,1.14,1.19,1.49,1.53.81.78,0,1.26-.48,1.75-.48.49-.95,1.3-1.74.51-.34-.34-1.2-1.28-1.57-1.46-.12,1.45-.08,2.62,1.19,3.63,1.05.83,2.02.47,3.14.49,2.83,2.78,5.67,5.55,8.5,8.32Zm-3.85-2.16s-.45-.45-.78-.78c.12-.12.32-.32.59-.58-.28-.27-.55-.54-.83-.81l-.56.58-.78-.79c-.24.11-.17.11-.34.23.26.62-.06,1.05-.72.73l-1.98,2c-.68.68-1.31,1.32-1.99,2-.5.5-1.69,1.33-1.09,2.67.36.81,1.18,1.16,2.02.94.78-.2,2.47-2.15,3.1-2.79.78-.78,1.59-1.67,2.39-2.4-.33-.58.04-.99.73-.7l.24-.31Z"/></svg>