<?xml version="1.0" encoding="UTF-8"?><svg id="Layer_9" xmlns="http://www.w3.org/2000/svg" viewBox="0 0 27.83 25.1"><defs><style>.cls-1{fill:#fff;}.cls-2{fill:#662d91;}</style></defs><rect class="cls-2" x=".76" y=".95" width="26.07" height="23.24" rx="3.47" ry="3.47"/><g id="NewGroupe78"><g id="NewGroup0-21"><g><path class="cls-1" d="m15.51,5.1c-.02.14-.06.28-.13.41-.12.26-.35.9-.42,2.29-.08,1.38-.44,2.38-1.08,2.98-.56.53-1.12.55-1.23.55s-.21-.02-.3-.07c-.15.5-.38.92-.67,1.26-.57.65-1.18.74-1.3.75-.02,0-.05,0-.07,0-.16,0-.31-.05-.43-.14-.13.29-.29.54-.48.76-.39.45-.81.63-1.07.7,0,.06-.02.13-.05.19-.36.9-.91,1.31-1.32,1.49,0,0,0,0-.01,0,0,0,0,.01.01.02,2.2,2.48,7.2,5.46,9.27,6.63.44.25.99-.04,1.02-.55.23-3.17-.7-4.13-2.68-6.46-2.18-2.57-.45-4.37-.45-4.37.42,1.6,2.04,2.19,3.29,2.39.9.15,1.64.79,1.94,1.65.05.14.1.29.17.45.51,1.35,3.53.32,3.53-1.09s-1.8-.96-1.99-2.38c-.06-.43-.22-1.08-.42-1.77-.15-.51-.36-1.01-.62-1.46-.07,0-.14,0-.21,0-.06,0-.12,0-.18,0-1.64-.08-3.14-1.7-3.21-2.96-.02-.38.1-.73.35-1,.12-.13.28-.24.44-.31.29-.99.83-2.02.83-2.02-1.23,0-2.15,1.33-2.55,2.03h0Z"/><path class="cls-1" d="m14.24,7.76c.08-1.38.29-2.14.49-2.56.17-.35.02-.78-.34-.94-.66-.31-1.55-.53-1.89.32.11.12.21.26.28.41.18.38.19.8.05,1.19-.07.2-.15.49-.2.93.38,1.23.92,2.21,0,3.52,0,0,1.43,0,1.59-2.86h0Z"/><path class="cls-1" d="m11.67,4.86c-.82-.3-1.92-.46-2.21.63.06.02.11.04.17.06.39.14.7.43.88.81.18.38.19.8.05,1.19-.11.3-.23.84-.26,1.78.44,1.02.73,1.96,0,3.24,0,0,1.69-.16,1.56-3.56-.06-1.64.11-2.56.3-3.07.16-.43-.07-.92-.5-1.08h0Z"/><path class="cls-1" d="m7.11,7.51c.03,2.79,2.28,4.01.92,6.42,0,0,1.69-.16,1.56-3.56-.06-1.64.11-2.56.3-3.07.16-.43-.07-.92-.5-1.08-.96-.35-2.3-.51-2.28,1.28h0Z"/><path class="cls-1" d="m5.45,9.3c.03,2.79,2.28,4.01.92,6.42,0,0,.79-.07,1.25-1.2-.07-.05-.14-.12-.19-.19-.15-.22-.15-.51-.02-.74.62-1.11.3-1.83-.19-2.94-.35-.79-.74-1.68-.81-2.83-.54.08-.97.47-.95,1.49h0Z"/><path class="cls-1" d="m6.26,16.43c-.2-.03-.38-.14-.49-.32-.15-.22-.15-.51-.02-.74.62-1.11.3-1.83-.19-2.94-.26-.59-.55-1.24-.71-2.02-.55.08-.98.47-.96,1.49.03,2.79,2.28,4.01.92,6.42,0,0,1.09-.1,1.45-1.9h0Z"/><path class="cls-1" d="m17.14,6.36c.05.91,1.27,2.22,2.53,2.29,1.23.06,1.48-.66,1.49-1.21,0-.12-.15-.19-.23-.1-.16.17-.48.32-1.06.36-.9.06-1.31-.87-1.5-1.54-.2-.72-1.28-.55-1.23.2h0Z"/><path class="cls-1" d="m23.62,2.81c.06-.08.09-.17.09-.26,0-.11-.04-.23-.13-.31-.16-.15-.4-.16-.57-.02l-1.14.89c.39.08.85.14,1.35.14l.41-.43h0Z"/><path class="cls-1" d="m18.86,5.54c.09.13.16.27.2.43.06.24.31,1.02.72,1.02.01,0,.02,0,.04,0,.48-.03.6-.15.6-.15.05-.05.1-.09.15-.12l1.05-1.39c-.86-.03-1.59-.21-2.06-.35l-.7.57h0Z"/><path class="cls-1" d="m20.25,4.41c.51.12,1.19.22,1.92.19l.51-.67c-.6-.05-1.12-.16-1.52-.27l-.91.74h0Z"/></g></g></g></svg>