<?xml version="1.0" encoding="UTF-8"?><svg id="Layer_20" xmlns="http://www.w3.org/2000/svg" viewBox="0 0 27.83 25.37"><defs><style>.cls-1{fill:#fff;}.cls-2{fill:#bc5768;}</style></defs><rect class="cls-2" x=".88" y=".81" width="26.07" height="23.24" rx="3.47" ry="3.47"/><g><path class="cls-1" d="m16.97,14.04v3.16c-1.01.3-2.09.62-3.17.93-.08.02-.18.03-.26,0-.94-.27-1.87-.55-2.84-.84.14-1.11.38-2.2.08-3.43-.16.36-.28.63-.4.89-.1.23-.23.46-.32.7-.3.8-.84,1.18-1.72,1.25-1.3.1-2.59.35-3.88.51-.74.09-1.08-.18-1.23-.91-.13-.68.11-1.1.79-1.29,1.11-.32,2.23-.61,3.34-.94.2-.06.41-.24.51-.42.54-1.02,1.07-2.05,1.57-3.09.55-1.15,1.47-1.74,2.7-1.92,1.24-.18,2.48-.19,3.72.02,1.07.18,1.9.71,2.4,1.7.55,1.09,1.11,2.16,1.64,3.26.13.27.3.4.59.48,1.08.27,2.15.57,3.22.87.9.25,1.19,1.09.66,1.87-.21.3-.48.45-.85.4-1.58-.21-3.16-.41-4.72-.68-.3-.05-.62-.38-.79-.66-.36-.6-.63-1.26-.93-1.89-.04,0-.07.01-.11.02Z"/><path class="cls-1" d="m17.01,21.69c.15.02.3.08.44.06.57-.05,1.13-.13,1.73-.2.07.48-.11.84-.43,1.13-.46.41-1,.51-1.6.38-1.03-.22-2.05-.45-3.08-.65-.3-.06-.63-.06-.93,0-.92.17-1.82.38-2.73.56-.6.12-1.15.04-1.51-.52-.35-.55-.44-1.14-.03-1.68.18-.24.49-.47.78-.55,3.04-.83,6.08-1.64,9.13-2.44.28-.07.59-.02.89.02.51.06,1.01.16,1.51.24.68.1,1.06.61.96,1.3-.11.75-.7,1.31-1.6,1.5-1.06.22-2.12.41-3.18.62-.11.02-.22.06-.33.09,0,.05,0,.1,0,.14Z"/><path class="cls-1" d="m13.93,1.73c1.69,0,3.1,1.43,3.08,3.12-.02,1.72-1.39,3.09-3.11,3.09-1.72,0-3.11-1.41-3.09-3.14.02-1.71,1.4-3.07,3.12-3.07Z"/><path class="cls-1" d="m7.59,21.14c-.48-.24-.99-.41-1.38-.72-.68-.53-.72-1.46-.16-2.07.14-.15.36-.25.56-.31,1.22-.35,2.41-.27,3.6.17.53.19,1.09.3,1.64.54-.64.17-1.28.35-1.92.52-1.43.38-1.58.49-2.35,1.87Z"/></g></svg>